<?xml version="1.0" encoding="UTF-8" standalone="no"?>
<!DOCTYPE svg PUBLIC "-//W3C//DTD SVG 1.1//EN" "http://www.w3.org/Graphics/SVG/1.1/DTD/svg11.dtd">
<svg width="100%" height="100%" viewBox="0 0 78 77" version="1.1" xmlns="http://www.w3.org/2000/svg" xmlns:xlink="http://www.w3.org/1999/xlink" xml:space="preserve" xmlns:serif="http://www.serif.com/" style="fill-rule:evenodd;clip-rule:evenodd;stroke-linejoin:round;stroke-miterlimit:2;">
    <g transform="matrix(1,0,0,1,-0.7,-0.4)">
        <g transform="matrix(-3.82857e-16,1,-1,-3.82857e-16,78.4,0.4)">
            <rect x="0" y="0.2" width="76.7" height="77.5" style="fill:white;"/>
            <path d="M52,54.8L51.9,54.8C51.9,54.9 51.9,54.9 52,54.8ZM31,51.6C30.9,51.6 30.9,51.6 31,51.7L31,51.6ZM26,26.5L26,26.4L25.9,26.4L26,26.5ZM47.3,29L47.3,28.9C47.3,28.9 47.2,28.9 47.3,28.9L47.3,29ZM27.4,50.6L27.4,50.8L27.4,50.6ZM60.3,37C60.3,36.9 60.2,36.9 60.1,37L60.3,37ZM32.6,58.6L32.6,58.5L32.5,58.5L32.6,58.6ZM18.5,16.4L18.5,16.3L18.5,16.4ZM71.9,6.5C71.9,6.4 71.8,6.4 71.7,6.5L71.9,6.5ZM31.5,51.1L31.5,50.9L31.3,51L31.4,51.2L31.5,51.1ZM53.4,52L53.3,51.8L53.2,52L53.2,52.2L53.4,52ZM30.7,51L30.5,51.2L30.8,51.2L30.8,51L30.7,51ZM27.1,32L27.1,31.7L27,31.7C27,31.7 26.8,31.7 26.9,31.9C26.9,31.9 26.9,32 27,31.9L27.1,32ZM54.4,33L54.5,32.8L54.5,32.7L54.3,32.7L54.3,33L54.4,33ZM13.7,37.2L13.5,37.3L13.7,37.4C13.8,37.4 13.9,37.4 13.8,37.3L13.7,37.3L13.7,37.2ZM60.3,46.3L60.3,46L60.2,46L60.1,46.2L60.2,46.3L60.3,46.3ZM57.7,18.4L57.7,18.6L57.9,18.5C58,18.4 58.1,18.2 57.9,18.2L57.8,18.2C57.7,18.2 57.6,18.3 57.7,18.4ZM29.3,25L28.7,25L28.7,25.1L29.2,25.1L29.3,25ZM39.3,28.9C39.3,28.7 39.2,28.6 39,28.6L39,28.9L39.3,28.9ZM31.3,29.7L31.1,29.8L31.1,30L31.3,30L31.4,29.9L31.4,29.7L31.3,29.7ZM60.5,32.7C60.2,32.6 60.2,32.7 60.1,32.8L60.1,33L60.3,33L60.5,32.8L60.5,32.7ZM60.2,44.6L60.3,44.9L60.5,44.9L60.5,44.8C60.5,44.6 60.5,44.6 60.2,44.6ZM63.6,58.1L63.5,58.1L63.5,58.2L63.7,58.4L63.9,58.3C63.9,58.1 63.8,58.1 63.6,58.1ZM37.6,37.2C37.6,37.1 37.4,36.9 37.3,37L37.1,37.1L37.2,37.4L37.4,37.4L37.5,37.2L37.6,37.2ZM32.3,50.7L32.6,50.4L32.6,50.2C32.6,50.1 32.6,50.1 32.5,50.2C32.3,50.2 32.2,50.4 32.2,50.6L32.3,50.7ZM44.3,24L45.1,24L44.9,23.8L44.3,23.8L44.3,24ZM27.3,29.8C27.6,29.8 27.7,29.7 27.9,29.5L27.9,29.3L27.7,29.3L27.3,29.5C27.3,29.5 27.1,29.6 27.2,29.7L27.3,29.7L27.3,29.8ZM18,46.3L17.9,46.3L17.9,46.8L18.1,46.9C18.2,46.9 18.3,46.7 18.2,46.6L18,46.3ZM60.6,27.8L60.6,27.6C60.6,27.6 60.4,27.4 60.3,27.5L60.3,28L60.5,28L60.6,27.8ZM29.7,51.3L29.8,51.5L29.9,51.5L30.2,51.2L30.2,51L30,50.9L29.8,50.9L29.8,51.3L29.7,51.3ZM61,29L61.5,29C61.5,29 61.6,28.9 61.5,28.8L61.3,28.5L61,28.5L61,29ZM57.4,75.9L57.4,76.5L57.5,76.5C57.9,76.3 57.9,76.1 57.7,75.9L57.5,75.7L57.5,75.9C57.4,75.9 57.4,76.1 57.4,75.9ZM47.8,24L48.5,23.9L48.7,23.8L48.5,23.7L47.5,23.7L47.5,23.8L47.8,23.9L47.8,24ZM65.3,5.8L66,5.8L66,5.6L64.7,5.6L64.6,5.7L65.3,5.8ZM0.5,15L0.5,14.3L0.3,14.3L0.3,15.8L0.4,15.1L0.5,15ZM59.2,26L59.2,25.6C59.2,25.6 59,25.5 59,25.6L58.6,25.7L58.6,25.9L58.8,26.1L59.1,26.1C59.1,26.1 59.2,26.1 59.1,25.9L59.2,26ZM41.4,24L42,24C42,23.8 41.9,23.7 41.8,23.7L41.6,23.6C41.3,23.6 41.2,23.6 41,23.8L41,23.9L41.4,24ZM23.5,39.7L23.5,39.4L23.3,39L23,39L23,39.9L23.2,40L23.4,40L23.4,39.7L23.5,39.7ZM17.2,44.7L17.2,44.3L17,44.2L17,44.9L17.1,45.2L17.3,45.2L17.3,44.6L17.2,44.7ZM34.4,58.7L34.4,59.1C34.4,59.2 34.5,59.3 34.7,59.3L34.9,59.3L35.1,59L34.8,58.5L34.4,58.5L34.4,58.8L34.4,58.7ZM18.5,46.3L18.7,46L18.7,45.7C18.6,45.4 18.4,45.4 18,45.5L18,45.7C18,45.9 18.2,46.1 18.4,46.3L18.5,46.3ZM36.5,23.6L36,23.6L36,23.8L36.4,24.1C36.6,23.8 36.8,24.1 37,24.1C37.201,24.072 37.401,24.038 37.6,24L37.3,23.7L36.6,23.7L36.5,23.6ZM57.5,33.3L57.5,33C57.4,32.8 57.4,32.8 57.2,32.9L56.7,32.9L56.4,33.2L56.4,33.3C56.7,33.3 56.9,33.5 57.1,33.6L57.4,33.5L57.4,33.2L57.5,33.3ZM52.1,23.7L50.8,23.7L50.8,23.9L51.2,24.1L51.8,24.1C52,24.1 52.1,24.1 52.2,23.9L52.1,23.7ZM38.2,27.9L38.2,27.8C38.2,27.6 38.1,27.5 38,27.6L37.6,27.8L37.4,27.8L37.2,28.1L37.4,28.2C37.6,28.2 37.7,28.2 37.8,28.4L38,28.4C38.1,28.2 38.2,28.2 38.2,27.9ZM23.5,51.5L22.7,51.5L22.7,52L23.7,52C23.9,52 24,51.8 24.1,51.7L24.1,51.6L23.5,51.5ZM39,25.2L38.9,25.3L38.9,25.7L39.5,26.3L39.9,26.3L39.9,26C39.9,25.8 39.6,25.8 39.5,25.7L39,25.2ZM45.6,26.4L45.6,26.6L45.9,26.8L46.5,26.4L46.7,26.2L46.6,25.9L46.3,25.9C46.1,26.1 46,25.9 45.9,25.9L45.7,26.1L45.6,26.4ZM22.9,37.2L23.2,37.1L23.8,37.1L23.9,37L23.9,36.9L23.4,36.5C23.4,36.5 23.2,36.4 23.2,36.5C23,36.6 22.7,36.5 22.5,36.7L22.5,37L22.7,37.2L22.9,37.2ZM24.9,38.5L25.2,38.5L25.2,38.2C25.2,37.9 24.8,37.6 24.6,37.4L24.5,37.4L24.3,37.7L24.4,38.3L24.6,38.4L24.9,38.4L24.9,38.5ZM59.2,47C59.2,46.6 59.1,46.4 58.8,46.3L58.5,46.1C58.4,46.1 58.3,46.1 58.3,46.3L58.3,46.9C58.3,47.1 58.6,47.4 58.9,47.4C59.1,47.4 59.2,47.4 59.2,47.1L59.2,47ZM38.4,61.9L38.4,61.6L38.3,61.3C38.2,61.2 38,61.1 37.9,61.2C37.6,61.2 37.5,61.3 37.6,61.5C37.8,61.9 38,62.3 38,62.8L38.1,62.9L38.2,62.8C38.3,62.5 38.5,62.2 38.4,61.9ZM60.1,33.8L60.1,35.8L60.3,35.8L60.5,35.2L60.5,33.5L60.1,33.8ZM30.4,57.8L30.7,57.7L30.9,57.4C30.832,57.026 30.658,56.679 30.4,56.4L30.3,56.4L29.8,57.4C29.7,57.5 29.8,57.7 30,57.7L30.4,57.7L30.4,57.8ZM58.5,56L58.3,56.1L58.3,56.9L58.5,57.2C58.7,57.4 59.1,57.4 59.3,57.2L59.3,57C59.2,56.6 58.9,56.4 58.6,56.1L58.5,56ZM37.6,58.3L36.4,58.3C36.3,58.3 36.3,58.3 36.4,58.5L36.5,58.9C36.6,59.1 36.8,59.2 37,59.2L37.3,59.2C37.4,59.2 37.5,59.2 37.6,59L37.8,58.5L37.6,58.3ZM60.2,19.3L60.2,19.4L60.1,19.5L60.1,20.6L60,20.9C59.822,21.209 59.822,21.591 60,21.9L60,22.9L60.1,23.6L60.2,23.6L60.3,23.2L60.3,21.3L60.5,20.8C60.3,20.6 60.3,20.4 60.3,20.2L60.3,19.5L60.2,19.3ZM36.7,54L36.7,53L36.4,52.9C36.2,53 36,53.2 36,53.4L36,54.4C36.2,54.5 36.2,54.8 36.3,55.1L36.6,55.1L36.6,54.1L36.7,54ZM12.2,38.2L13.1,38.2L13.1,38C13,37.6 12.5,37.5 12.2,37.2L12,37.2L11.8,37.4C11.615,37.588 11.364,37.696 11.1,37.7L11,37.7L11,37.8C11.1,38 11.2,38.1 11.4,38.1L12.4,38.1L12.2,38.2ZM26.2,59.3L26.9,59.3C26.9,59 27.1,58.9 27.2,58.6L27.1,58.4C26.8,58.7 26.5,58.6 26.1,58.6L24.8,58.6L24.8,58.7C24.8,58.9 25,59.1 25.2,59.1L25.5,59.1C25.7,59.3 26,59.3 26.4,59.3L26.2,59.3ZM77.7,78.6L77.7,78C77.7,78 77.7,77.8 77.5,77.8L77,77.8L76.8,77.9L76.8,78.9C76.8,79.3 77.3,79.5 77.6,79.3L77.7,78.5L77.7,78.6ZM58.4,50.9C58.391,51.4 58.391,51.9 58.4,52.4C58.7,52.4 58.8,52.7 59.1,52.8C59.2,52.5 59.1,52.2 59.3,51.9L59.3,51.7C59.2,51.4 59,51.1 58.6,51L58.4,50.9ZM24.7,34.6C24.4,34.9 24.3,35.1 24.6,35.3L25.6,36.3L26.1,37.1L26.3,37.3L26.5,37.3C26.6,37.3 26.6,37.2 26.5,37.1L26.1,36.4L25.6,35.7L25.2,35.2L24.9,34.8L24.7,34.6ZM54.6,58.1L54,58.1L54,58.2C53.9,58.2 53.9,58.3 54,58.4L54.8,59.2L55.7,59.2C55.8,59.2 55.9,59.1 55.8,59C55.8,58.7 55.4,58.6 55.3,58.3L55.1,58.2L54.6,58.2L54.6,58.1ZM20.3,59.3L21.3,59.3C21.5,59.3 21.7,59.3 21.8,59.1L22.1,58.8L22,58.6C21.7,58.6 21.4,58.6 21.1,58.4L20.4,58.4L20.2,58.5L19.7,59L19.7,59.2L19.8,59.2L20.3,59.3ZM52.3,26.3L52.8,26.1L53.4,26.1L53.6,25.9C53.6,25.8 53.6,25.6 53.4,25.6L52.4,25.6L52,25.5C51.9,25.2 51.5,25.2 51.3,25C51.1,24.9 51,25 50.9,25.1C50.8,25.2 50.8,25.3 50.9,25.3L51.5,26.1L51.7,26.1L51.9,25.9L52,25.9C52,26.1 52,26.3 52.2,26.3L52.3,26.3ZM53.3,33.9L53.4,33.9L53.4,34.5L53.6,34.9L53.9,34.9L54,34.8C54.3,34.8 54.5,34.8 54.7,34.5L55.1,34.3L55.1,34L54.7,33.8C54.4,33.8 54.2,33.6 54,33.5C53.8,33.5 53.9,33.3 53.8,33.1L53.6,33L53.4,33L53.4,33.8L53.3,33.9ZM36.3,30.4L36.8,30.4C37,30.4 37.1,30.4 37,30.3L36.9,29.9C36.7,29.5 36.5,29.1 36.1,28.9L35.9,28.6L35.2,28.6C35.1,28.6 35.1,28.9 35.2,29L35.8,29.7C36,29.8 36,30 36,30.2C36,30.3 36.1,30.4 36.3,30.4ZM54,35.4L54.6,35.4C55,35.2 55.4,35.3 55.8,35.2L56,35.2C56.2,35 56.5,35 56.8,35L57,35C57.3,34.8 57.6,34.8 57.9,34.8C58.1,34.7 58.4,34.6 58.6,34.3C58.6,34.3 58.7,34.2 58.6,34.2C58.6,34.2 58.6,34.1 58.5,34.2L57.8,34.3L57.4,34.4L57,34.6L56.6,34.6L56.2,34.8L55.6,34.8C55.418,34.82 55.245,34.889 55.1,35L54.5,35C54.3,35.1 54.1,35.3 53.8,35.3L53.4,35.3L53.7,35.5L54,35.5L54,35.4ZM41.7,59.4L42.5,59.4L42.5,59.3L42.6,59.2L42.3,58.6C42.1,58.4 41.8,58.3 41.5,58.3L40.7,58.4C40.6,58.4 40.5,58.4 40.4,58.6C40.3,58.6 40.3,58.7 40.4,58.8L40.6,59.2L41,59.3L41.7,59.3L41.7,59.4ZM50.5,59.4L51.3,59.3L51.2,58.9C51.2,58.6 50.9,58.4 50.6,58.2L49.6,58.2L49.4,58.4C49.4,58.7 49.4,59 49.6,59.1C49.6,59.2 49.7,59.3 49.9,59.3L50.5,59.3L50.5,59.4ZM59.2,28.2L59.2,27.7C59.2,27.6 59.2,27.5 59,27.5L58.3,27.1L58.1,27.2C58.165,27.867 58.232,28.534 58.3,29.2L59.1,28.8L59.1,28.6L59.2,28.2ZM61.2,37.1L61.2,37.8L61.4,38L62,38L62.8,38.2L63.5,38.2C63.6,38.2 63.7,38.1 63.6,38L63.6,37.9C63.6,37.8 63.6,37.7 63.4,37.6L62.4,37.1C62.2,37.1 61.9,37.1 61.7,36.9L61.4,36.9C61.3,36.9 61.2,36.9 61.2,37.1ZM27.1,41.2L27.1,40.8L27,40.6L26.5,40C26.2,39.8 26.2,39.5 26,39.3L25.8,39.2L25.2,39.2L25.1,39.4L25.4,39.9C25.7,40.1 25.9,40.3 26,40.7C26.3,40.9 26.4,41.3 26.6,41.7L26.7,41.8L26.9,41.8L27,41.7L27,41.2L27.1,41.2ZM27.7,27.7L27.3,27.6L26.7,27L26.7,26.5L26.8,26.3L26.8,26L26.5,26L26.2,26.6L26.2,26.7L26.5,27.5C26.8,27.6 27,27.9 27.4,27.8L27.8,27.9L28,28C28.2,28 28.5,27.9 28.7,27.7L29.2,27C29.2,26.7 29.4,26.5 29.2,26.2L29.1,25.9L28.9,25.6L28.7,25.6L28.7,25.8L28.9,26.6C28.9,26.6 28.9,26.8 28.7,26.9C28.7,27.1 28.4,27.2 28.3,27.4C28.1,27.6 27.9,27.6 27.7,27.6L27.7,27.7ZM26,57.7L26.7,57.7L26.8,57.6L26.8,57.5C26.9,56.5 26.8,56.5 26.6,55.8C26.6,55.7 26.5,55.7 26.4,55.8L25.9,56.2L25.5,56.9C25.5,57.1 25.2,57.2 25.1,57.4L25.1,57.6L25.2,57.6L26,57.7ZM45.2,59.3L47.4,59.3C47.5,59.3 47.6,59.3 47.5,59.1L47.1,58.3L46.9,58.2L46,58.2C45.8,58.6 45.5,58.6 45.2,58.6L44.8,58.6L44.8,58.9C44.8,59.1 45,59.3 45.2,59.3ZM18.8,36.3L18.8,35.4L18.7,35.3L18,35.1C17.9,35 17.7,35.1 17.7,35.2L17.7,36.6C17.4,36.9 17.5,37.2 17.7,37.4L17.7,37.6C17.7,37.8 18,37.8 18.1,37.6C18.1,37.6 18.1,37.4 18.3,37.3C18.7,37.3 18.8,36.9 18.8,36.5L18.8,36.2L18.8,36.3ZM69.1,4L69,4C68.7,4 68.4,4 68.2,4.3L67.8,5L67.3,5.7L66.7,6.4L66.7,6.7L67.2,6.7C67.6,6.7 67.9,6.6 68.2,6.4L68.4,6L68.4,5C68.5,4.8 68.7,4.6 69,4.5L69.5,4.3L69.5,4.2L69,4L69.1,4ZM37.8,19.2L37.8,23.3C37.8,23.5 37.8,23.6 38,23.7L38.2,23.6C38.2,23.3 38.2,23 38.4,22.7L38.4,19.5C38.4,19.2 38.3,19.1 38.1,19C38,19 37.8,19 37.8,19.2ZM23.2,37.8L23.2,37.6L22.7,37.6L22.3,37.8L20.8,37.8L20,38L19.3,38C19.1,38 18.9,38 18.7,38.2L18.1,38.2C18,38.2 18,38.3 18.1,38.4C18.1,38.7 18.5,38.7 18.7,38.8C19,38.6 19.4,38.8 19.7,38.7L19.9,38.6L20.2,38.5L20.9,38.5L21.4,38.3L21.7,38.3C21.7,38.3 21.8,38.4 21.9,38.3L22.5,38.3C22.7,38.2 23.1,38 23.2,37.8ZM31.3,19.7L32.3,19.7C32.6,19.7 32.7,19.5 32.6,19.2L32.4,18.8C32.4,18.6 32.4,18.5 32.1,18.5L30,18.5C29.8,18.5 29.7,18.7 29.8,18.8L30,19.4C30,19.6 30.1,19.6 30.2,19.6L31.3,19.6L31.3,19.7ZM18.8,28.8L18.8,26.3C18.8,26.2 18.8,26.1 18.6,26L18,25.6C17.9,25.6 17.7,25.6 17.7,25.8L17.7,28.1C17.7,28.3 17.7,28.4 17.9,28.5L18.6,28.8L18.8,28.8ZM59.4,37.7L59.4,36L59,35.6L58.3,35.6L58.1,35.8L58.1,37.6L58.2,37.9C58.4,38.1 58.6,38.1 58.9,38C59,38 59.2,38 59.3,37.8L59.4,37.7ZM41,55L40.1,55C39.9,55 39.8,55.1 39.8,55.4L39.7,55.8C39.5,56.3 39.7,56.6 40.2,56.7C40.5,56.7 40.8,56.7 41.1,56.4L41.5,56.4C41.7,56.2 41.8,56.1 41.8,55.9L41.9,55.2C42,55.2 42,55.1 41.9,55.1L41,55.1L41,55ZM22.2,18.5L20.7,18.5C20.4,18.8 20,18.7 19.7,18.8L19.6,18.8L19.6,18.9C19.8,19.2 20.1,19.5 20.5,19.5L20.8,19.5C21.3,19.3 21.8,19.5 22.4,19.5L23.5,19.5L23.7,19.3C22.9,18.3 23.1,18.6 22.2,18.5ZM24.6,31.5C24.6,31.6 24.6,32 24.9,32.3L25.7,33.7L26.2,34.4L26.8,35.1L26.9,35.4L27.1,35.4C27.3,35.1 27.3,35.1 27.1,34.8C27.1,34.6 27.1,34.4 26.9,34.3L25.9,32.7C25.9,32.5 25.8,32.2 25.6,32.1L25,31.1C25,30.9 24.9,30.8 24.8,30.8C24.8,30.8 24.8,30.7 24.8,30.8L24.6,30.8L24.6,31.5ZM17.7,30.3L17.7,33C17.7,33.2 17.9,33.5 18.2,33.5L18.6,33.5L18.8,33.3L18.8,31C18.8,30.7 18.7,30.5 18.3,30.4L17.9,30.3L17.7,30.3ZM28.2,19.5C28.2,19.2 27.9,19.1 27.9,18.9C27.8,18.7 27.7,18.5 27.4,18.5L25.3,18.5C25.2,18.5 25,18.7 25.1,18.8L25.4,19.4L25.8,19.7L26.4,19.7C26.6,19.9 26.7,19.9 26.9,19.7L28,19.7L28,19.5L28.2,19.5ZM58.9,47.7C58.5,47.7 58.3,47.5 58,47.4C57.788,47.256 57.55,47.154 57.3,47.1C57.1,46.9 56.8,46.9 56.6,46.9L56.3,46.9L56,46.7L55.4,46.7C55.3,46.4 55,46.6 54.8,46.4C54.6,46.2 54.2,46.3 53.9,46L53.6,46L53.4,46.2L53.4,46.4L53.5,46.4C53.7,46.4 53.9,46.8 54.1,46.5L54.3,46.6C54.5,46.8 54.7,47 55,46.9L55.3,46.9L55.8,47.2C56,47.4 56.2,47.3 56.4,47.4L57.8,48.1L58.3,48.3L58.5,48.3L58.9,47.8L58.9,47.7ZM57.1,39.4L58.2,39.4C58.5,39.4 58.6,39.2 58.7,39L58.7,38.7L55.8,38.7C55.7,38.9 55.5,38.9 55.4,38.9L53.7,38.9C53.4,38.9 53.4,39.1 53.4,39.4L53.6,39.6L55,39.6L55.5,39.4L57.2,39.4L57.1,39.4ZM19,50.4L19,48.9L18.7,48.9L17.7,49.7L17.7,51.3C17.7,51.5 17.7,51.8 18,52C18.4,51.9 18.5,51.5 18.8,51.5L19.1,51.2L19.1,51C19.1,50.8 18.9,50.6 19,50.4ZM37.2,18.5L34.5,18.5L34.4,18.6L34.4,19.3C34.4,19.4 34.6,19.7 34.8,19.7L37.3,19.7L37.4,19.5L37.4,18.7C37.4,18.7 37.4,18.5 37.2,18.5ZM57.8,31.8L57.8,33.4C57.8,33.5 57.8,33.6 58,33.6C58.3,33.6 58.6,33.6 58.8,33.4C59.2,33.4 59.3,33.1 59.3,32.7L59.3,31.4C59.1,31.2 59,31.1 58.7,31.1C58.5,31.1 58.2,31.1 58.1,31.4L57.9,31.5L57.8,31.8ZM48.7,57.5L50.3,57.5L50.3,57.2L49.8,56.1L49.5,55.8L49.3,55.7L48.7,55.7C48.4,55.6 48.2,55.7 47.9,55.9C47.7,55.9 47.7,55.9 47.9,56.1L48.4,57.3C48.4,57.3 48.5,57.5 48.7,57.5ZM54,57.7L54.5,57.7L54.6,57.5L54.2,56.8C54.1,56.5 53.9,56.4 53.6,56.3L53.6,56C53.3,55.5 52.9,55.3 52.6,55.1L52.1,55.1L51.7,55.3C51.6,55.3 51.5,55.4 51.7,55.5L52.3,56.3C52.5,56.8 52.9,57 53.3,57.4C53.3,57.6 53.5,57.6 53.7,57.6L54,57.6L54,57.7ZM56.6,18.3L54.4,18.3C54.1,18.3 54,18.3 53.8,18.5C53.595,18.83 53.395,19.164 53.2,19.5L53.6,19.7C54.432,19.623 55.266,19.556 56.1,19.5L56.7,19.2L57,18.9L57,18.5L56.6,18.3ZM52.6,58.8L53.2,58.8C53.3,58.8 53.4,58.8 53.3,58.6L53.2,58.3C53,58.2 53,57.9 52.9,57.7L52.4,57.1C52.4,56.9 52.1,56.8 52,56.6L51.4,55.9C51.2,55.7 51,55.6 50.9,55.3L50.4,54.8L50.2,54.8L49.7,54.9L49.7,55.1L49.9,55.5C50,55.8 50.3,55.9 50.3,56.2L51.2,57.3L51.2,57.4C51.5,57.4 51.6,57.6 51.7,57.8C52.1,58 52.4,58.3 52.6,58.8ZM24.4,41.3L24.4,41.7L24.5,42L24.6,42.5C24.6,42.8 24.6,43 24.8,43.2C24.8,43.3 24.9,43.5 25.2,43.5L25.5,44.1L25.9,44.6L26.9,45.8L27.2,45.8L27.2,45.5L27.1,45.1L27.1,44.5L27,44.2L26.5,43.5L25.8,42.7C25.8,42.4 25.5,42.2 25.3,42C25.1,41.9 25.1,41.6 24.9,41.4L24.5,41L24.5,41.3L24.4,41.3ZM56,29L57,29L57.2,28.7L57.2,28L57.3,27.5C57.5,27.2 57.3,27 57.2,26.7L57,26.7L56.2,27.1L55.5,27.6C55.3,27.6 55.2,27.9 55.1,28C54.9,28 54.7,28.1 54.6,28.3L54.6,28.6L54.7,28.9C54.7,29.1 54.9,29.2 55.1,29.2L56,29.2L56,29ZM62.6,29.9L61.2,29.9L61,30.1L61,30.9C61,31.2 61.1,31.3 61.3,31.4L61.9,31.7L62.4,31.9L63,32.2L63.4,32.3L63.6,31.7L63.6,30.3L63.1,30C62.949,29.913 62.773,29.878 62.6,29.9ZM59.4,21.7L59.4,20C59.4,19.8 59.2,19.7 59,19.9L58.8,19.9L58.2,20.5C58,20.7 58.1,21 58.1,21.2L58.1,24L58.3,24.1L58.7,23.9L58.9,23.7C59.1,23.7 59.2,23.5 59.3,23.4L59.4,23.1L59.2,22.8L59.3,22.1L59.4,21.7ZM18.8,22.3L18.8,20.6C18.8,20.4 18.6,20.1 18.3,20L17.9,19.9L17.7,19.9L17.5,20.2L17.5,22.2L17.6,22.6L17.6,22.8L17.5,23.2L17.6,23.4C17.9,23.4 18,23.7 18.2,23.9L18.7,24.1L18.8,22.3ZM19.5,36.3L19.5,37.2C19.5,37.4 19.7,37.5 19.9,37.4L20.2,37.2L21.4,37.2C21.7,37.2 21.9,37 22,36.7C22,36.4 22.3,36.3 22.6,36.3L22.8,36.1L22.8,36L22.7,35.7L21.6,35.7C21.486,35.601 21.348,35.532 21.2,35.5L19.6,35.5C19.4,35.9 19.6,36.2 19.5,36.4L19.5,36.3ZM17.7,56L17.7,56.5C17.762,56.901 17.828,57.301 17.9,57.7C18.3,57.7 18.6,57.7 18.9,57.4L19,57.1C19.3,56.9 19.3,56.6 19.2,56.3C19.2,56.3 19.1,56.3 19.2,56.1L19.2,54.8C19,54.5 19.1,54.1 19.1,53.8L19.1,53.5C19.2,53.5 19.2,53.4 19.1,53.4C18.8,53.4 18.7,53.7 18.5,53.7L17.8,54.3L17.8,56L17.7,56ZM63.5,35.3L63.5,34.4C63.5,34.2 63.3,34.1 63.2,34L62,33.2L61.4,32.9L61.1,32.8L61,33.8L61.1,34.1L61.4,34.4L61.3,34.8L61,34.8C60.9,34.9 60.8,35.1 61,35.3L61.2,35.4C61.876,35.714 62.543,36.047 63.2,36.4L63.3,36.3L63.3,35.3L63.5,35.3ZM27,48.3L27,47.7L26.9,47.4C26.7,47.2 26.5,47.1 26.5,46.8L25.8,46.1C25.336,45.697 24.87,45.297 24.4,44.9C24.3,45.2 24.3,45.5 24.4,45.7L24.5,46.2C24.5,46.4 24.5,46.6 24.7,46.8L24.7,47C24.7,47.1 24.7,47.3 24.9,47.4L25.3,48.1C25.6,48.6 26,49.1 26.4,49.4L26.6,49.4C26.8,49.1 27,48.8 27,48.4L27,48.2L27,48.3ZM41.3,29L43.3,29L43.3,28.3L42.8,27.6L42,26.2C42,26.1 41.9,26 41.7,26L41.6,25.8C41.6,25.6 41.4,25.5 41.3,25.3L41,25.3L41,25.7L41.2,25.7L41.3,25.9L41.2,26.2L41,26.2C40.6,26.4 40.4,26.7 40.2,27L40.2,27.5C40.4,27.7 40.6,27.9 40.6,28.1C40.6,28.3 40.6,28.5 40.8,28.6L41,28.8L41.3,29ZM19.7,48.4L19.7,50.6L19.8,50.8L20.5,50.3L21.1,49.8L21.8,49.2L22.5,48.8C22.7,48.6 22.9,48.3 22.9,47.9L22.9,46.4L22.6,46.4C22.4,46.4 22.2,46.5 22.1,46.7L21.5,47.1L20.7,47.6C20.5,47.9 20.1,48 19.8,48.1L19.7,48.4ZM53.7,44.4L53.7,45.3L53.8,45.5L54.1,45.7C54.4,45.8 54.7,45.9 54.9,45.7C55,45.7 55.1,45.6 55.1,45.7L55.5,45.7C55.7,45.7 55.9,45.9 56,46C56.8,46.2 56.8,46.2 57.2,46.6L57.6,46.7C57.7,46.7 57.8,46.7 57.8,46.5L57.8,46L57.6,45.6C57.6,45.3 57.3,45.1 57.1,44.9C56.8,44.9 56.6,44.6 56.4,44.5L55.8,44L55.2,43.8L54.6,43.5L53.9,43.3C53.8,43.3 53.6,43.3 53.6,43.5L53.6,44.4L53.7,44.4ZM61,44.2L61,45C61,45.3 61,45.5 61.3,45.8L62.3,46.5C62.6,46.8 63,47 63.3,47.1L63.6,47.1L63.6,46.9C63.6,46.7 63.4,46.6 63.6,46.4L63.6,45L63.5,44.7L63.5,44.2L63.3,44L62.1,43.4L61.4,43C61.2,43 61,43 61,43.3L61,44.3L61,44.2ZM15.7,39L12.8,39L12.6,39.3L12.6,39.6L13.3,40.6L13.4,40.9C13.7,41.2 14.1,41.5 14.2,41.9C14.5,42.3 14.7,42.4 15.2,42.7L15.5,42.5L15.5,40.5C15.5,40.3 15.9,40.1 16.1,39.9L16.1,39.6C16.043,39.462 15.977,39.328 15.9,39.2L15.7,39ZM44.9,25.3L42.8,25.3C42.9,25.6 42.9,25.9 43.1,26.1C43.4,26.3 43.4,26.7 43.7,26.9L43.8,27.1C43.8,27.3 44.1,27.4 44.2,27.6C44.2,27.9 44.4,28.1 44.5,28.3L44.6,28.5C44.928,28.773 45.261,29.04 45.6,29.3C45.8,29.1 46.2,29.3 46.5,29.1L46.7,29.1C46.7,28.9 46.9,28.8 47,28.7C47.1,28.7 47.1,28.6 47,28.5L46.6,28.1C46.464,27.905 46.238,27.791 46,27.8L45.8,27.8C45.6,27.8 45.4,27.5 45.4,27.3L45.4,26.3C45.4,26 45.3,25.7 45.1,25.5C45.1,25.4 45.1,25.3 44.9,25.3ZM57.4,24.5L57.4,21.5L57.3,21.5L57.1,21.4C56.6,21.9 56,22.2 55.5,22.8C55.3,23 55.1,23.2 54.9,23.2L54.1,24L54.1,24.2L54.7,24.7L54.9,24.7C55.1,24.8 55.3,25.1 55.5,25L55.8,25.1C56.2,25.3 56.5,25.4 56.8,25.1L57.2,24.9L57.4,24.5ZM37.5,21.9L37.5,20.7C37.5,20.6 37.5,20.5 37.3,20.4L37,20.4L36.8,20.2C36.366,20.226 35.933,20.26 35.5,20.3L35,20.5C34.8,20.5 34.8,20.5 34.8,20.7L34.8,21L35,21.7L35,22.4C35.2,22.7 35.2,22.9 35.2,23.2L35.3,23.4L35.4,23.4L35.7,23.1C35.7,23 35.8,23 35.9,23.1C35.9,23.3 35.9,23.4 36.1,23.4L37.5,23.4L37.6,23.2L37.6,21.9L37.5,21.9ZM63.5,55.9L63.5,55L63.4,54.4L62.8,54.1L62.5,53.8L61.3,53L61,52.9C60.9,52.9 60.8,52.9 60.8,53.1L61,53.5C61.027,54.434 61.06,55.367 61.1,56.3C61.6,56.5 61.9,56.9 62.1,57.3L62.4,57.5L63.2,57.5L63.4,57.2L63.4,56L63.5,55.9ZM76.6,17.1L76.6,18.7L76.7,18.8L76.9,18.8C77.1,18.8 77.2,18.5 77.4,18.4C77.7,18.4 77.7,18.2 77.7,18L77.7,14.6C78,14.2 77.9,13.9 77.9,13.5C77.7,13.3 77.7,13 77.7,12.8C77.7,12.4 77.7,12.1 77.5,11.8L77.2,10.9L76.7,9.7L76.4,9.7L76.4,10.3L76.6,10.8L76.6,12.5C76.637,13.433 76.67,14.367 76.7,15.3L76.9,15.7C77,15.7 76.9,15.7 76.9,15.9C76.7,16.3 76.5,16.7 76.6,17.1ZM57.8,65.5L57.8,62.6C57.8,62.2 57.8,61.8 57.5,61.5L57.4,61.3C57.2,61.1 57.1,60.9 56.8,60.9L54.4,60.9L54.4,61.2L55,62.2L55.7,63.2L56.3,63.9L56.8,64.6L57,64.8C57.1,65.1 57.4,65.4 57.7,65.6L57.8,65.5ZM63.5,50.5L63.5,49C63.5,48.8 63.3,48.6 63.2,48.5L62.5,48.1L61.8,47.6L61.2,47.3L60.9,47.4L60.8,47.7L60.8,48.6C60.9,48.7 61,48.8 60.8,48.9L61,49.3L60.9,49.5C60.8,49.8 60.7,50 60.9,50.3L60.9,50.6L61.2,50.8L61.9,51.3L62.3,51.5L63,52L63.4,52L63.4,50.4L63.5,50.5ZM63.7,41L63.7,39C63.7,38.8 63.4,38.6 63.2,38.6L61.1,38.6L61.1,38.7L61,39.5C61,39.9 61,40.3 61.2,40.6L61.1,40.9L61.1,41.4L61.5,41.6C61.7,41.6 61.9,41.7 62,41.9L63.3,42.6C63.5,42.8 63.6,42.6 63.6,42.5L63.6,41L63.7,41ZM57.8,51.9L57.8,51C57.8,50.8 57.7,50.6 57.5,50.5L57.1,49.9C56.8,49.8 56.6,49.4 56.3,49.3L55.3,48.8C55.125,48.756 54.957,48.689 54.8,48.6L54.1,48.1L53.8,47.8L53.7,47.8L53.7,49.8C53.8,49.8 53.8,49.9 53.7,50L53.7,50.3C53.7,50.5 53.9,50.7 54.1,50.7L54.4,50.7L55,51.3L55.6,51.8L56.3,52.2L57,52.7C57.4,53.1 57.8,53.3 58.3,53.6L58.6,53.5L58.8,53.5L58.9,53.3L58.8,53.2C58.7,53 58.5,53 58.3,52.9C58.031,52.657 57.728,52.455 57.4,52.3C57.275,52.229 57.171,52.125 57.1,52L57,52L57.2,51.9C57.3,51.9 57.5,51.9 57.6,52.1L57.8,51.9C57.8,51.9 57.8,51.7 57.8,51.9ZM31.4,20.1L31,20.1C30.8,20.1 30.6,20.2 30.5,20.4C30.5,20.4 30.4,20.5 30.5,20.6L30.6,21C30.7,21.3 30.9,21.5 30.9,21.8L31.3,22.8L31.6,23.2C31.7,23.4 31.9,23.4 32.1,23.5C32.3,23.5 32.4,23.7 32.5,23.8C32.8,24 33,24.1 33.5,24L33.5,23.9L33.1,23.7L33.3,23.4C33.5,23.4 33.7,23.4 33.8,23.2L34,23.2L34,23.6C34,23.8 34.2,23.9 34.3,24L34.6,23.9L34.6,23.2C34.4,23 34.5,22.6 34.4,22.3L34.4,21.8C34.2,21.6 34.2,21.4 34.2,21.1L34.2,20C34,19.7 33.9,19.3 33.5,19C33.37,18.961 33.23,18.961 33.1,19C33,19 32.9,19 32.9,19.2L32.9,19.6L33.2,19.9L33.2,20.1C33.3,20.1 33.2,20.3 33.2,20.3C32.8,20.3 32.4,20.4 32.1,20.2L31.4,20.2L31.4,20.1ZM39,62.2L39,64.8L39.2,65.6L39.2,65.8L39.3,66.2L39.4,66.5L39.8,67.3C39.8,67.5 40,67.6 40.2,67.6C40.6,67.6 41,67.5 41.3,67.7L42.3,67.7L42.3,67.6L42.2,67C41.8,66.7 41.6,66.2 41.7,65.7L41.7,65.2C41.7,64.9 41.7,64.6 41.5,64.4C41.5,64.2 41.5,64 41.3,63.9L41,63.3L40.6,62.6L40.6,62.2L40.4,61.8C40.4,61.7 40.1,61.5 40.1,61.3L39.9,61.2L39.5,61.2L39.2,61.3L39,62.2ZM22.8,31.1L23.1,31.1C23.2,31.1 23.3,31.1 23.2,31C23.124,30.845 23.09,30.672 23.1,30.5L23.1,28.3L22.6,28L19.8,26.6L19.4,26.6C19.3,27.4 19.2,28.2 19.3,28.9L19.4,29.1L19.8,29.3L19.8,29.5L19.3,29.5C19.2,29.3 19,29.3 18.8,29.2L18.3,29L18.1,29C18.1,28.9 18,28.9 18,29C18,29.3 18.2,29.4 18.3,29.6C18.4,29.8 18.5,30 18.7,30L19.1,30.1L19.6,30.3L20.2,30.4C20.4,30.4 20.5,30.4 20.7,30.6L20.9,30.6L21.4,30.7C21.6,30.9 21.9,30.8 22,30.9C22.3,31.1 22.5,31.1 22.8,31.1ZM55.6,67.6L56.4,67.6L56.4,67.5L56.5,67.3L56.1,66.7L55.6,66.1L55,65L54.6,64.3L53.9,63.3L53.6,62.7L53.1,62.2C52.976,62.049 52.875,61.88 52.8,61.7L52.3,61.2L50.8,61.2C50.7,61.2 50.5,61.3 50.6,61.5L51,62.2L51.8,64C52,64.2 52.2,64.5 52.2,64.8L52.7,65.5C53,65.5 53.2,65.8 53.4,66C53.6,66.1 53.8,66.3 53.5,66.5L54.2,67.3C54.5,67.3 54.7,67.6 55.1,67.6L55.7,67.6L55.6,67.6ZM77.7,29.2L77.7,20.2L76.8,20.2L76.8,20.5C76.799,23.5 76.799,26.5 76.8,29.5C77,29.8 76.9,30.2 76.9,30.5C76.7,30.8 76.7,31.1 76.7,31.5L76.7,35.8C76.7,36 76.7,36.1 76.9,36.3L76.9,36.6L76.7,36.8L76.7,37.8L76.8,37.9L77.4,37.9L77.6,37.8L77.6,29.2L77.7,29.2ZM18.8,5.9L18.8,4.4L18.7,4L18.7,3.7L18.5,2L18.3,1.6C18.1,1.3 17.7,1.2 17.5,1L17.2,1.1L16.9,1.5L16.9,2C16.7,2.4 16.7,2.8 16.7,3.1L16.7,3.3C16.5,3.5 16.5,3.6 16.5,3.8L16.5,6.8C16.5,7 16.5,7.3 16.2,7.5C16,7.6 16,7.9 16,8.1C16,8.3 16.1,8.4 16.3,8.4L17.5,8.8L18,9.1L18.3,9.1L18.5,9L18.5,7.8C18.7,7.6 18.7,7.3 18.7,7.1L18.7,5.9L18.8,5.9ZM77.8,48.1L77.8,38.8L77.5,38.7C77.1,38.6 76.8,38.9 76.8,39.3L76.8,40.1C76.799,45.767 76.799,51.433 76.8,57.1L76.8,57.4L77.5,57.4C77.6,57.4 77.7,57.4 77.7,57.2L77.7,48.1L77.8,48.1ZM77.8,67.7L77.8,58.4L77.5,58.2L76.8,58.2C76.8,58.2 76.6,58.2 76.6,58.4L76.6,60.2C76.8,60.3 76.8,60.4 76.8,60.6L76.8,77L77.1,77.2L77.5,77.2L77.7,76.9L77.7,67.7L77.8,67.7ZM29.1,67.7L30.3,67.7C30.3,67.6 30.4,67.4 30.3,67.3L30.2,66.7L30.1,66.4L29.8,65.8C29.7,65.6 29.8,65.4 29.6,65.3C29.5,65.1 29.5,64.8 29.3,64.7L29.3,64.5C29.3,64.2 29.1,64 29,63.7L28.5,62.6C28.4,62.5 28.5,62.2 28.3,62.1L27.9,61.5C27.7,61.3 27.4,61.4 27.2,61.2L25.7,61.2L25.5,61.4C25.7,61.7 25.8,61.9 25.8,62.3L25.8,62.5L26,62.9L26.2,63.4C26.2,63.8 26.5,64 26.4,64.4C26.6,64.6 26.6,64.9 26.7,65.2L27.7,67.4C27.9,67.6 28,67.8 28.3,67.8L29.1,67.8L29.1,67.7ZM63,-2L58.5,-2L58.3,-1.8L58.3,-0.4C58.3,-0.2 58.6,-0 58.8,-0L66.2,-0L66.2,-0.1C66.2,-0.3 66,-0.4 65.8,-0.4L65.6,-0.4L65.5,-0.5L65.8,-0.6C66.1,-0.6 66.5,-0.6 66.8,-0.9L67.2,-0.8L67.6,-0.4L68.1,-0.3L68.4,-0.3L68.6,-0.6L68.7,-0.6C69,-0.3 69.1,-0.6 69.2,-0.8C69.4,-1.1 69.5,-1.5 69.4,-1.8L69.4,-2L69.3,-2.1C68.9,-2.1 68.4,-2.3 68,-1.9L67.8,-1.9C67.6,-2.1 67.3,-2.1 67.1,-2.1L63,-2.1L63,-2ZM44.4,67.8L46.9,67.8L47.1,67.6C47.1,67.3 47.2,67 47.1,66.8C47,66.5 46.9,66.1 46.6,65.9L45.9,65.2L45.2,64.7C45.067,64.64 44.96,64.533 44.9,64.4C44.9,64.2 44.8,64.1 44.6,64L44.1,63.4L44.1,62.9C44.3,62.7 44.3,62.3 44.3,61.9C44.3,61.9 44.3,61.7 44.1,61.6L43.8,61.2L43.6,61.2C42.866,61.224 42.133,61.257 41.4,61.3L41.5,61.7C41.5,62.1 41.7,62.3 41.8,62.6C42,62.8 42,63.1 42.1,63.3C42.3,63.5 42.2,63.8 42.3,64.1L42.3,64.3L42.5,64.8C42.5,65.2 42.5,65.5 42.7,65.8L43.4,67.1L43.5,67.4C43.7,67.6 44,67.8 44.4,67.8ZM63.9,63.5L63.9,61.3L63.8,60.9C63.6,60.6 63.5,60.3 63.1,60.2L61.3,58.4L61,58.4L60.8,58.9C60.8,59.3 60.8,59.6 60.6,59.9L60.6,60.1C60.6,60.4 60.3,60.6 60.2,60.9L59.8,61.1L59.6,61.1L59.4,61.4C59.6,61.7 59.9,61.9 59.9,62.2L60.4,62.8L60.8,63.4C61,63.5 61,63.8 61.2,64L62.5,65.3L62.8,65.9C63.1,65.9 63.2,66.1 63.3,66.3L63.4,66.5L63.6,66.5L63.6,66C63.9,65.8 63.9,65.5 63.9,65.2L63.9,63.4L63.9,63.5ZM31.9,67.8L34.2,67.8L34.2,67.7C34.4,67.4 34.3,67.2 34.3,67C34.1,66.8 34.2,66.4 34,66.2L33.5,65.2C33.5,64.7 33.2,64.4 33.1,64C32.9,63.8 33.1,63.6 32.9,63.4L32.6,62.8L32.6,62.6C32.6,62.3 32.3,62.2 32.3,61.9L32.1,61.7C32.1,61.6 32,61.7 31.9,61.7C31.8,61.8 31.6,62 31.6,62.2L31.6,62.9L31.5,62.9C31.304,62.815 31.182,62.613 31.2,62.4L31.2,61.8L31.4,61.6C31.6,61.6 31.7,61.4 31.7,61.3C31.7,61.1 31.6,60.9 31.4,60.9L29.4,60.9C29.2,60.9 29,61.2 29,61.5L29.1,62.1L29.4,62.7L29.6,63.2C29.6,63.5 29.8,63.6 29.9,63.8L30.4,65.1L30.5,65.5L30.7,66C30.8,66.2 30.8,66.4 31,66.5L31.3,67.1L31.7,67.6L31.9,67.8ZM46.7,61L45,61L44.8,61.4L45.2,62.2L45.2,62.7C45,62.9 45,63 45.2,63.1L45.5,63.5C45.7,63.6 45.7,63.8 45.8,64L46.5,64.5L47.4,65.2L47.8,65.5L48,65.6C48.2,65.6 48.3,65.6 48.4,65.8C48.4,66.1 48.6,66.3 48.7,66.5L49,67.2L49.3,67.5L49.8,67.7L51,67.7C51.3,67.7 51.5,67.4 51.7,67.5L51.8,67.5C52.1,67.4 52.1,67.2 52,67C51.7,66.8 51.6,66.5 51.4,66.2C51.1,66 51.1,65.6 50.9,65.3L50.7,65.1L50.3,65.1C50,65.1 49.8,65.3 49.6,65.5L49.3,65.5L49.1,65.2L49,65C49.1,64.7 49.4,64.6 49.6,64.8L49.8,65L50.1,65L50.4,64.9L50.4,64.6L50.1,64C50,63.8 49.8,63.6 49.8,63.3L49.7,63.1C49.4,62.9 49.4,62.5 49.2,62.2C49.2,62 49,61.9 48.9,61.7C48.9,61.4 48.6,61.2 48.3,61.2L46.7,61.2L46.7,61ZM58.2,79.4L76,79.4L76,79.3C76.1,78.8 76.2,78.3 76.1,77.9L75.7,77.8L74.7,77.8C74.5,77.8 74.3,77.5 74.1,77.6L72,77.6C71.8,77.8 71.6,77.8 71.4,77.8C70.8,77.7 70.2,77.9 69.7,77.6L68.2,77.6L67.7,77.8L64,77.8L64.1,78L64.1,78.2L63.9,78.4L63.4,78.2L62.6,78C62.4,77.7 62,77.8 61.6,77.8L59,77.8C58.8,77.8 58.3,78 58.1,78.2L58,78.5L58,79.1C58,79.3 58.1,79.4 58.2,79.4ZM19.7,79.4L37.4,79.4C37.7,79.4 37.8,79.2 37.9,79.1L37.9,78.8L37.8,78L37.6,77.9C37.3,77.9 37,77.8 36.8,77.9L35.8,78.3L35.6,78.3L35.6,78L35.7,77.9L35.6,77.8L34.8,77.8L34,77.6L26.8,77.6C26.6,77.8 26.3,77.8 26.2,77.6L25.8,77.6C25.655,77.711 25.482,77.78 25.3,77.8L24.1,77.8C23.8,77.5 23.4,77.5 23.1,77.5L19.6,77.5L19.3,77.8L19.3,78C19.5,78 19.5,78.1 19.4,78.2C19.2,78.4 19.2,78.6 19.4,78.8L19.5,79.2L19.7,79.4ZM38.7,79.4L57.5,79.4L57.6,79.1C57.7,78.7 57.6,78.4 57.4,78.1C57.2,77.9 57.1,77.7 56.8,77.7L56.5,77.7C56.5,77.6 56.4,77.6 56.3,77.7L56,77.7C55.7,77.5 55.5,77.5 55.2,77.7L54.9,77.7L54.7,77.6L53,77.6C52.7,77.8 52.5,77.8 52.3,77.8L46.6,77.8C46.4,77.8 46.2,77.8 46.1,77.6L44.1,77.6L43.8,77.5C43.4,77.2 43.1,77.3 42.7,77.4C42.4,77.6 42.1,77.5 41.8,77.5L38.8,77.5C38.6,77.5 38.4,77.8 38.4,78.1L38.4,78.3L38.6,79.2L38.7,79.4ZM38.7,59.4L17.6,59.4C17.5,59.2 17.6,59 17.4,58.9L17.3,58.1L17.3,55.1L17,55C16.889,54.745 16.889,54.455 17,54.2C17.2,53.9 17.1,53.6 17.1,53.4C16.8,53 17,52.5 16.9,52.1L16.9,50.3L16.7,50.3C16.7,50.7 16.4,50.9 16.5,51.3C16.5,51.5 16.5,51.7 16.3,52L16.3,53.6L16.1,53.9L16.1,54.3C16.3,54.6 16.3,54.9 16.3,55.3L16.3,59.6C16.3,59.8 16.3,60 16.5,60.1L16.8,60.4L17.5,60.4C17.7,60.1 17.9,60.2 18.2,60.4L22.8,60.4C23.4,60.409 24,60.409 24.6,60.4L24.9,60.2L25.9,60.2L26.2,60.4L26.5,60.4L26.9,60.2L41.1,60.2L41.4,60.1L41.7,60.1L42.1,60.2L45.7,60.2C45.9,60.4 46,60.4 46.2,60.2L47.9,60.2L48.3,60.3L48.5,60.4L49.9,60.4L50.3,60.2L55.1,60.2C55.3,60 55.6,60 55.8,60L59.7,60L59.8,59.9L59.5,59.6L38.7,59.6L38.7,59.4ZM9.6,-2L0.7,-2L0.3,-1.6L0.3,-0.3L0.4,-0.1L1.4,0.3C2.4,0.203 3.4,0.103 4.4,-0C4.4,-0.2 4.6,-0.3 4.8,-0.3C4.9,-0.3 5.1,-0.3 5.1,-0.1C5.1,0 5.1,0.1 5.3,0.2L6.4,0.2L6.6,0.1L7.1,0L7.9,0.1L8.2,0.1L8.7,0.3L9,0.3C9.5,0.307 10,0.307 10.5,0.3L11.2,0.2C12.333,0.129 13.466,0.063 14.6,0L14.7,0C15.2,0 15.6,-0.1 16,0.1L16.7,0.1C17,-0.1 17.3,0 17.7,-0.1L17.9,-0.1L18.2,-0.3C18.7,-0.3 18.8,-0.5 18.8,-1L18.8,-1.6C18.8,-1.8 18.5,-2.1 18.4,-2.1L9.6,-2.1L9.6,-2ZM47.7,-2L38.6,-2L38.5,-1.8L38.5,-0.2L38.6,0.1L39,0.3C39.4,0.3 39.8,0.3 40.2,0.5L40.5,0.5C40.8,0.3 41.1,0.3 41.4,0.3L47.9,0.3L48.2,0.2C48.4,0.1 48.6,-0 48.7,0.2L55.3,0.2C55.6,-0 56,0.1 56.3,0.1L56.8,0.1L57.2,-0.4L57.2,-1L57,-2C57,-2.1 56.9,-2.2 56.7,-2.2L47.7,-2.2L47.7,-2ZM28.3,17L16.7,17L16.7,17.2L16.6,18L16.4,18.9L16.4,19.7L16.5,20.1L16.5,20.4L16.4,20.7L16.4,38.1L16.5,38.7L16.5,39.1L16.7,39.2L16.8,39.2L17,38.7L17,34.4L17.1,34.1L17.2,33.5L17.2,23.7L17.1,23.5L17.1,21.5L17.2,21.2L17.2,17.6L18.7,17.6C18.8,17.6 19,17.6 19.1,17.4L19.4,17.4L19.8,17.6L21.1,17.6C21.3,17.6 21.4,17.6 21.5,17.8L22.8,17.8C25.133,17.731 27.467,17.664 29.8,17.6L29.9,17.6L30.2,17.8L33.1,17.8C33.3,17.6 33.4,17.6 33.6,17.8L34,17.8C34,17.6 34.1,17.6 34.2,17.7L34.4,17.8L36.4,17.8L36.7,17.7L37.2,17.7C37.5,17.8 37.8,17.9 38.1,17.7L38.3,17.7L39.9,17.6L43.5,17.6C46.3,17.605 49.1,17.605 51.9,17.6L56.8,17.6L57.2,17.5L57.5,17.4L59.4,17.4L59.6,17.3L59.4,17.1L53.8,17.1C53.5,16.9 53.3,16.9 53,16.9L41,16.9C40.7,16.9 40.5,16.9 40.2,17.1L28.3,17.1L28.3,17ZM28.4,-2L19.4,-2L19.3,-1.8C19.323,-1.133 19.356,-0.466 19.4,0.2L20.7,0.2C20.8,-0 21,-0 21.1,-0.1L21.3,-0.1C21.5,0.2 21.7,0.3 22.1,0.3L22.3,0.3C22.5,0.5 22.7,0.5 22.9,0.5L26.7,0.5C27,0.5 27.2,0.5 27.4,0.3L27.6,0.3C27.8,0.4 27.9,0.5 28,0.3L28.6,0.3L28.9,0.5C29.3,0.5 29.7,0.6 30.1,0.4L30.5,0.4L31.1,0.3L37.3,0.3C37.5,0.3 37.8,0.1 37.8,-0.1L37.8,-1L37.6,-1.9C37.6,-2 37.5,-2.1 37.3,-2.1L28.4,-2.1L28.4,-2ZM16.7,77L18.6,77C19,77 19,77 19,76.7L19,76C19.024,75.333 19.057,74.666 19.1,74L19.2,73.8L19.2,72.7C19.1,72.5 19,72.4 19.2,72.3L19.2,71.8L19.4,71.5L19.4,71.2L19.3,70.7C19.3,70.4 19.3,70.1 19.1,69.9L19.1,69.7C19.3,69.5 19.3,69.3 19.3,69.1L19.2,68.8L19.1,68.6C19.093,68.1 19.093,67.6 19.1,67.1C19.3,66.9 19.3,66.6 19.3,66.4L19.3,61.6C19.3,61.4 19,61.2 18.8,61.2C18.201,61.128 17.601,61.061 17,61L16.7,61C16.413,60.913 16.187,60.687 16.1,60.4L16.1,60C15.9,59.9 15.9,59.7 16,59.6L16.1,58.9L16.1,58.7C15.9,58.5 15.8,58.4 15.6,58.4L12.4,58.4C12.3,58.4 12.1,58.4 12.1,58.6L12.1,59.7C11.9,59.9 11.9,60.1 11.9,60.2L11.9,75.2C11.922,75.634 11.956,76.068 12,76.5L12.4,76.9L13.5,76.9L14,76.8L14.2,76.8C14.5,77 14.8,76.9 15.1,76.9L16.7,76.9L16.7,77ZM18.8,12C18.9,11.7 18.8,11.3 18.6,11L18.4,10.9L18.2,10.9C18,10.9 17.8,10.9 17.7,10.5C17.7,10.3 17.4,10.2 17.2,10.1L16.8,10L16.2,9.9C16.027,9.77 15.816,9.7 15.6,9.7C15.5,9.7 15.3,9.7 15.2,9.5L15,9.5C14.8,9.5 14.7,9.6 14.5,9.8C14.2,10.1 13.8,10.2 13.5,10.4C13.2,10.4 13,10.7 12.8,10.8L12.3,11L11.8,11.4L11.2,11.7L11,11.7L10.8,11.8L10.3,12.2L9.8,12.3L8.8,12.8L8.5,12.8L8.1,12.7L7,12.7L6.4,12.5C6.1,12.4 5.9,12.5 5.6,12.5L5.5,12.3L4.9,12C4.7,12 4.4,12 4.2,11.8L4,11.8L3.4,12.2C3.2,12.2 3.1,12.6 2.8,12.6L2.3,13C1.8,13.2 1.6,13.5 1.3,13.9L1.3,14.2L1.4,14.2C1.5,14.1 1.6,14 1.6,14.2L1.6,14.4L1.4,14.4C1.2,14.6 1,14.7 1,15.1L1,17L1.1,17.3L1.1,17.5C1.1,17.8 1.2,18 1.1,18.3C1,18.3 1,18.4 1.1,18.5L1.3,19.1L1.7,19.3L7.9,19.3C8.2,19.3 8.4,19.3 8.7,19.1L9.4,19.1L9.8,19.3C11.2,19.197 12.6,19.097 14,19L14.5,18.9L14.8,18.9L16.1,18.1L16.2,17.9C16.2,17.5 16.4,17.2 16.5,16.9C16.6,16.7 16.8,16.6 17,16.6L18,16.6C18.2,16.6 18.2,16.5 18.2,16.3L18.2,16C18.2,15.8 18.4,15.7 18.6,15.8L18.9,15.8L18.9,14.2C18.9,13.8 18.9,13.4 18.7,13.1L18.7,12.7C18.9,12.5 18.9,12.2 18.9,11.9L18.8,12ZM45.4,68.7L40.6,68.7C40.35,68.676 40.1,68.748 39.9,68.9L39.3,68.9C39.2,68.9 39.1,69 39.2,69.1C39.4,69.3 39.4,69.6 39.2,69.8C39.1,70.1 39.2,70.4 38.9,70.7L38.9,73.3C38.9,73.5 38.9,73.7 39.1,73.8L39.1,74.4C38.9,74.5 38.9,74.7 39.1,74.9L39.1,75.3L39.2,75.7C39.2,75.9 39.4,76 39.3,76.2L39.3,76.6L39.5,77L42.4,77C42.7,77 43,77 43.3,77.2L43.6,77.2C44,76.9 44.3,77 44.6,77L45.6,77L46.1,77.1L48.8,77.1L49.3,77L49.5,77C49.7,77.2 50,77.2 50.3,77.2L51.3,77.2C51.5,77.4 51.7,77.4 51.9,77.4L53.3,77.4C53.5,77.2 53.7,77.2 54,77.2L55.2,77.2C55.6,77.2 55.9,76.9 56.3,76.9L56.5,76.9L56.8,76.5C57,76.4 56.9,76.2 57.1,76C57.2,75.9 57.1,75.6 57.5,75.6L57.8,74.8L57.8,72.4C57.6,72.2 57.7,72 57.8,71.9L57.8,69.6C57.8,69.1 57.6,68.9 57.2,68.9L56.8,68.9C56.661,68.778 56.485,68.707 56.3,68.7L50.5,68.7L50.3,68.8L50,68.9L45.9,68.9C45.758,68.784 45.583,68.714 45.4,68.7ZM0.3,1.8L0.3,11.3C0.362,12.067 0.428,12.834 0.5,13.6L1.3,13.1L1.4,12.9L1.9,12.4L2.9,11.9L3.3,11.5C3.7,11.3 4,11 4.3,10.6L4.6,10.6L5.1,10.9L6.1,11.9L6.8,12.1L7.4,12.1L8,12.2C8.2,12.4 8.5,12.3 8.7,12.3L9.1,12.1L10.7,11.4C10.9,11.2 11.2,11.2 11.3,10.9L11.4,10.7C12.2,10.3 12.2,10.3 12.7,9.8L13.5,9C13.8,8.7 13.9,8.2 14.3,8C14.3,7.7 14.5,7.5 14.6,7.2L14.7,7C14.8,6.9 15,6.8 15.2,7L15.4,7L15.4,6.9C15.6,6.6 15.7,6.3 15.7,5.9L15.7,5.7L15.9,5.4L15.9,3.7L15.6,3.8L15.1,4.4C14.9,4.6 14.7,4.6 14.5,4.5C14.4,4.5 14.4,4.4 14.5,4.3L14.8,4.2L15.6,3.4L15.6,3.2C15.8,3.1 15.8,2.9 15.9,2.8C15.9,2.6 15.9,2.3 16.1,2.1L16.1,1C16.1,1 16.1,0.8 15.9,0.8L14.9,0.8L14.5,0.6L14.3,0.6C12.633,0.597 10.967,0.597 9.3,0.6C9.1,0.8 8.9,0.8 8.7,0.8L7.7,0.8L7,0.7L6.5,0.9L6,0.8L5.7,0.7L1.6,0.7C1.2,0.6 1,0.7 0.7,0.9L0.6,1C0.6,1.3 0.2,1.5 0.3,1.8ZM19.7,69.4L19.7,76.6C19.7,76.9 20,77.2 20.2,77.2L23.9,77.2C24.1,77.2 24.3,77.2 24.5,77.4L24.9,77.4C25.2,77.2 25.4,77.2 25.7,77.2L26.5,77.2C26.7,77.4 26.9,77.4 27.1,77.4C27.699,77.355 28.299,77.322 28.9,77.3L29.2,77.2L32.8,77.2L33.1,77.1C33.1,77 33.2,77 33.3,77.1L37.3,77.1C37.6,77.3 37.8,77 38.1,76.9L38.2,76.7C38.3,76.3 38.1,75.9 38.4,75.5C38.2,75.2 38.2,74.9 38.2,74.7L38.2,69.8L38,69.2C38,69 37.8,68.9 37.6,68.9L34.7,68.9C34.5,68.7 34.3,68.7 34.1,68.7L33.3,68.7C33.1,68.7 33,68.7 32.8,68.9L28.6,68.9L28.4,68.8C28.215,68.693 27.985,68.693 27.8,68.8C27.4,69 27.1,68.8 26.8,68.6C26.7,68.5 26.7,68.2 26.5,68.1C26.3,67.8 26.5,67.5 26.2,67.2L26.2,67L25.7,65.5L25.5,65L24.9,63.5C24.896,63.236 24.788,62.985 24.6,62.8C24.6,62.6 24.6,62.3 24.4,62.1L24.2,61.3C24.2,61.3 24.1,61.1 23.9,61.1C22.5,61.199 21.1,61.299 19.7,61.4L19.7,62.9L19.6,63.9C19.5,64.1 19.6,64.2 19.6,64.3L19.6,65.7L19.7,66.1L19.7,67.8C19.7,68 19.7,68.2 19.9,68.3L19.9,68.6C19.7,68.8 19.7,69.1 19.7,69.4ZM0.3,58.4L0.3,76.8L0.5,76.9C1.267,76.937 2.033,76.97 2.8,77L9.7,77C10.234,76.936 10.767,76.869 11.3,76.8L11.4,76.5L11.4,74.5C11.4,74.2 11.2,74 11,74L10.5,74L10.4,73.9L10.4,73.8L11,73.8L11.4,73.4L11.4,73.3C11.3,73.3 11.3,73.2 11.4,73.1L11.4,72.6C11.222,72.291 11.222,71.909 11.4,71.6L11.4,71.3C11.2,70.8 11.2,70.5 11.4,70.1L11.4,69C11.4,68.8 11.4,68.5 11.6,68.4L11.6,68L11.5,67.6L11.5,63.6L11.7,63.3L11.7,61.5C11.4,61.2 11.5,60.9 11.5,60.6L11.5,59.3C11.5,58.9 11.3,58.7 11,58.6L10.6,58.6C10.467,58.469 10.287,58.397 10.1,58.4L9.8,58.4C9.5,58.1 9.3,58.2 9,58.2L5,58.2L4.6,58.1C4.4,57.9 4.1,57.9 3.9,57.9L1.3,57.9C0.9,57.9 0.9,57.9 0.5,58.2C0.4,58.2 0.3,58.2 0.3,58.4ZM65,52L65,57.2C65,57.4 65.1,57.5 65.4,57.5L66.2,57.5L66.3,57.6L66.5,57.6C66.8,57.4 67,57.4 67.3,57.6C67.4,57.7 67.5,57.6 67.7,57.6L67.9,57.5L69,57.5L69.5,57.7L74,57.7L74.6,57.5L75.4,57.5L76,57.2L76.3,56.6L76.3,54.8C76.6,54.5 76.5,54 76.5,53.6L76.5,51L76.4,50.6C76.267,50.423 76.267,50.177 76.4,50L76.4,44L76.3,43.4C76.3,43 76.3,42.5 76.1,42.2L76.1,41L76.2,40.7L76.1,40.4L76.1,40.2L75.9,39.5L75.7,39.1C75.6,39 75.5,38.8 75.3,38.8L74.8,38.6L70.6,38.6C70.3,38.8 69.9,38.8 69.6,38.8L65.6,38.8C65.5,38.795 65.4,38.795 65.3,38.8L65.2,38.8L65.2,39L64.9,39.7L64.9,45.7C64.9,46.1 65,46.7 64.7,47.1L64.9,47.4L64.9,49L64.8,49.2L64.7,49.5C64.785,50.335 64.885,51.168 65,52ZM65,29.1L65,37L65.4,38L65.6,38C65.9,38.1 66.3,38.2 66.6,38C66.8,37.8 67.1,38 67.3,38L68,38.1L72.7,38.1C73,37.8 73.3,37.9 73.6,37.9L75.3,37.9C75.5,37.9 75.7,37.9 75.8,37.7L76.2,37.3L76.4,36.9L76.4,30.3L76.5,29.8L76.5,28.8C76.459,27.133 76.426,25.467 76.4,23.8L76.4,22.4C76.4,22 76.4,21.6 76.2,21.2L76.2,21C76.2,20.6 76,20.4 75.9,20.1L75.7,20.1L75.2,19.9L74.9,19.9C74.7,20 74.5,20.1 74.4,19.9L74,19.8L72.3,19.8L71.5,19.6L70,19.6L69.4,19.7L68.5,19.7C68.345,19.611 68.155,19.611 68,19.7C67.7,19.7 67.5,19.8 67.2,19.7C67.111,19.64 67.007,19.606 66.9,19.6L62.6,19.6L62.2,19.8L61,19.8C60.8,19.8 60.8,19.8 60.9,20L60.9,20.4C60.8,20.8 60.7,21.2 60.9,21.6L60.9,22.1C60.96,23.7 61.027,25.3 61.1,26.9L61.6,27.1C62.752,27.734 63.886,28.401 65,29.1ZM76.4,63.9L76.4,59.4C76.4,59.2 76.4,59 76.2,58.9C76.2,58.5 75.9,58.4 75.7,58.2L75.5,58.1C75,58 74.5,58.1 74,57.9L72.2,57.9L71.7,58.1C71.2,58.085 70.7,58.085 70.2,58.1C69.933,58.275 69.599,58.312 69.3,58.2C69.1,58 68.8,58.1 68.6,58C68.407,57.811 68.093,57.811 67.9,58L66.6,58C66.066,58.097 65.533,58.197 65,58.3L65,60.5C65,60.6 65,60.8 65.2,60.9L65.2,62.7C64.9,63.2 65.1,63.7 65,64.3L65,64.5C65.3,64.9 65.2,65.2 65.2,65.5L65.2,67.3L65,67.9C65,68.1 64.8,68.3 64.6,68.3L64.1,68.7L63.6,68.7C62.333,68.708 61.067,68.708 59.8,68.7L59.3,68.7C59.1,68.9 58.9,68.8 58.7,68.8L58.6,68.7L58.6,67.1L58.7,67.1L58.8,67.2L59.5,67.6C59.6,67.7 59.8,67.6 59.9,67.6L61.6,67.6C61.8,67.6 61.9,67.6 61.8,67.4L61.4,66.9L60.9,66.2C60.9,65.9 60.5,65.7 60.5,65.3L60.4,65.2L59.8,64.4C59.8,64.2 59.5,64 59.3,63.7L59.2,63.5L58.9,63.1L58.6,62.6L58.4,62.5L58.2,62.5L58.2,62.6C58.3,63 58.4,63.3 58.2,63.6L58.2,65C58,65.2 58.1,65.4 58.2,65.6L58.2,66.1C58.4,66.5 58.2,66.9 58.2,67.4L58.2,68.6C58.2,68.9 58.4,69.3 58.2,69.6L58.2,71.3C58.3,71.4 58.2,71.5 58.2,71.7L58.2,72C58.4,72.3 58.2,72.6 58.2,73L58.2,76L58.3,76.6L58.3,76.8C58.6,76.9 58.8,77.2 59.1,77.2L60.1,77.2L60.6,77.3L60.8,77.3C61.133,77.31 61.467,77.31 61.8,77.3L62.3,77.2L68.1,77.2C68.3,77.4 68.6,77.4 68.8,77.2L71.2,77.2C71.4,77.4 71.6,77.4 71.7,77.2L76.1,77.2C76.3,77.2 76.3,77 76.4,76.9L76.4,76.3C76.6,76.2 76.6,76.1 76.5,76.1C76.367,75.923 76.367,75.677 76.5,75.5L76.5,74.8L76.6,70.2L76.6,66.7C76.4,66.6 76.4,66.4 76.4,66.2L76.4,65.6C76.1,65.3 76.2,65 76.2,64.6L76.2,64.4L76.4,63.9ZM47.7,16.7L55.5,16.7C55.9,16.7 56.2,16.7 56.5,16.5L56.7,16.5C57,16.5 57.2,16.2 57.2,15.9L57.2,14.7C57.2,14.3 57.2,13.9 57.4,13.6L57.4,12.9C57.2,12.7 57.2,12.4 57.2,12.1L57.3,11.6L57.3,11.4C57.305,10.733 57.305,10.067 57.3,9.4L57.2,8.7L57.2,4.7L57.1,4.3C56.9,4 56.9,3.7 57.1,3.3L57.1,3.1C57.1,2.7 57.2,2.4 57,2.1L57,1.7L56.8,1.2L56.6,1.1C56.5,0.9 56.2,0.9 56,0.7L46.4,0.7C46.1,0.9 45.8,0.9 45.5,0.9L41.2,0.9L41,1L40.7,1L39.6,0.8L39.3,0.9C39.048,1.089 38.9,1.385 38.9,1.7L38.9,3.4C38.9,3.7 38.9,4.1 38.7,4.4L38.7,5.5L38.8,5.9L38.8,6.6C38.6,7 38.7,7.4 38.8,7.8L38.8,9.4C38.6,9.7 38.7,10.1 38.7,10.4L38.7,10.6L38.9,10.8L38.9,12.8L38.7,13.2C38.772,14.166 38.838,15.133 38.9,16.1L39,16.3C39.3,16.3 39.5,16.6 39.8,16.6L47.8,16.6L47.7,16.7ZM19.5,16.7L37.3,16.7L37.5,16.6C37.7,16.5 37.8,16.3 37.8,16.1L37.9,15L37.9,14.8L38,11L37.9,10.7L37.8,10.5L38,10.1L38,9.6C38.1,9.6 38.2,9.5 38.2,9.3L38.2,7C38,6.8 38,6.5 38,6.2L38,4.4C37.842,4.243 37.767,4.02 37.8,3.8C37.8,3.3 37.5,2.9 37.5,2.4C37.4,2.2 37.4,1.9 37.2,1.7L36.9,1.5C36.7,1.2 36.5,1.1 36.1,1.1L35.6,1.1C35.492,0.991 35.352,0.921 35.2,0.9L34,0.9C33.7,0.9 33.4,0.9 33.1,0.7L29.6,0.7L29.3,0.9L26.8,0.9L26.5,0.8L25.9,0.7L24.3,0.7C23.9,1 23.3,0.8 22.9,0.9L20.2,0.9C20.055,1.011 19.882,1.08 19.7,1.1C19.6,1.1 19.5,1.1 19.4,1.3C19.3,1.5 19.2,1.7 19.4,1.9L19.4,2.8L19.3,3C19.221,3.532 19.154,4.065 19.1,4.6L19.1,5.3C19.3,5.6 19.3,6 19.3,6.3L19.3,14.5C19.365,15.233 19.432,15.967 19.5,16.7ZM52.1,36.8L52.1,37.1L52.2,37.3C52.567,37.303 52.933,37.303 53.3,37.3L53.3,36.9L52,36.9L52.1,36.7C52.2,36.5 52.3,36.4 52.2,36.3L52.1,35.8L52.1,34.8C52.1,34.5 52.1,34.2 51.9,34L51.9,33.7C51.896,33.436 51.788,33.185 51.6,33L51.1,32L50.9,31.8C50.9,31.7 50.9,31.4 51.1,31.4L51.4,31.4C51.6,31.3 51.8,31 51.8,30.8L51.8,30.3C51.8,30 51.8,30 51.5,30L40.4,30C40.2,30 40,30 39.9,30.2L39.6,30.2L39.3,30L38.8,30L38.7,30.1L38.7,30.6C38.691,31.7 38.691,32.8 38.7,33.9C38.7,34.1 38.4,34.3 38.7,34.4C38.4,34.7 38.5,35 38.5,35.3C38.495,35.967 38.495,36.633 38.5,37.3C38.7,37.5 38.6,37.7 38.7,38C38.7,38.1 38.7,38.2 38.9,38.2L41.4,38.2C41.6,38.2 41.7,38.2 41.9,38.4L43.6,38.4L43.8,38.6L42.6,38.6L42.3,38.8L42,38.8L41.4,38.5L41.1,38.5C40.8,38.7 40.6,38.7 40.3,38.5L39.8,38.5L39.6,38.7C39.3,38.7 39.2,38.9 39,39.1L38.8,39.8C38.8,40.2 38.8,40.6 39,40.8L39,44.3C39,44.4 39.1,44.5 39.2,44.4L39.7,44.3L39.8,44.3L39.8,44.5L39.4,44.8L39.3,44.9L39.3,45.6L39.7,45.6C39.7,45.8 39.7,45.9 39.5,45.9C39.4,45.9 39.3,45.9 39.3,46.1L39.3,47L39,47.6L39,48.6C39.2,48.8 39.2,49 39.3,49.3L39.3,49.7L39.6,50.3L39.9,50.6L39.9,51.1L39.6,51L39.3,51L39,51.3L39,53.2C39,53.3 39.1,53.4 39.3,53.4L42.5,53.4C42.5,53.1 42.8,52.9 42.8,52.7L42.8,52C42.8,51.8 42.9,51.7 43.1,51.5L43.2,51.5C43.2,51.7 43.2,51.9 43.4,52.1C43.4,52.2 43.4,52.4 43.6,52.5L44,52.7C44.2,52.8 44.4,52.7 44.5,52.9L45.1,53.2L45.4,53.2L45.6,53.1L46.7,53.1C47,53.3 47.3,53.2 47.6,53.2L51.6,53.2C51.8,53.2 52,53.2 52.1,52.9L52.1,52.6L51.8,52.3L51.8,51.6C51.8,51.5 51.8,51.4 52,51.4C52,51.6 52,51.8 52.2,52L52.4,52L52.7,51.8L52.8,51.8L52.8,51.7C52.5,51.7 52.3,51.3 51.9,51.4L52.1,51.1L52.1,51C52.1,51 52,51 52.1,51L52.1,50C52.107,47.167 52.107,44.333 52.1,41.5L51.3,41.5L50,42.3L49.7,42.3C50.4,41.6 50.4,41.6 51,41.3L51.3,41.1C51.605,40.772 51.905,40.438 52.2,40.1L52.2,39.1L51.8,38.7L45.1,38.7L45.1,38.5L46.4,38.5L46.7,38.4C47,38.2 47.3,38.2 47.6,38.2L50.1,38.2C50.767,38.136 51.434,38.07 52.1,38C52,37.9 51.8,37.8 51.8,37.6L51.8,37C51.8,37 51.8,36.8 52,36.8L52.1,36.8ZM10.8,41.7L10.8,41.2L12,40L12,39.5L11.8,39.1C11.674,38.958 11.489,38.884 11.3,38.9L10.7,38.7L6.5,38.7C6,38.7 5.5,38.8 4.9,38.5L4.8,38.5L4.5,38.7L2.8,38.7L2.1,38.5L1.2,38.5L0.7,39C0.5,39.3 0.5,39.5 0.7,39.9L0.7,40.3C0.567,40.367 0.433,40.433 0.3,40.5L0.3,42.8C0.362,43.967 0.428,45.134 0.5,46.3L0.5,46.6C0.37,46.773 0.3,46.984 0.3,47.2L0.3,57.3L0.6,57.5L1.3,57.5C1.6,57.5 1.9,57.5 2.2,57.7C2.2,57.7 2.4,57.5 2.5,57.6L8.9,57.6L9,57.5C9,57.3 9.2,57.2 9.3,57.3L9.5,57.4L9.7,57.4C10,57.2 10.3,57.2 10.6,57.2L13,57.2L13.6,57.4C13.8,57.5 14.1,57.6 14.4,57.4C14.4,57.3 14.5,57.3 14.6,57.4L15.8,57.4L15.9,57.3L15.9,54.9L15.7,54.7L15.4,54.7L15.4,54.6L15.6,54.5C15.8,54.5 15.9,54.4 15.9,54.2L15.9,52.8C15.87,51.867 15.837,50.933 15.8,50L15.1,50.4C14.9,50.5 14.8,50.8 14.7,51.1L14.4,51.3L13.9,51.9L13.2,52.4L13.2,52.7L13.3,53.1L13.3,53.4C13.171,53.713 12.964,53.988 12.7,54.2L12.6,54.2L12.6,53.8C12.8,53.8 12.9,53.6 13,53.5L13,53.2C12.8,53.1 12.7,52.9 12.7,52.8C12.5,52.7 12.5,52.4 12.7,52.3L13.5,51.6L13.9,51.4L14.3,51C14.4,50.6 14.7,50.3 15,50L15.6,49.2L15.6,49C15.6,48.7 15.8,48.6 15.9,48.4L15.9,48C15.6,47.7 15.3,47.8 15.1,47.6L14.9,47.7L14.7,47.7L14.7,47.5L15.3,47.1C15.6,46.9 15.7,46.7 15.8,46.4L16,46.4L16.1,46.2L16.1,45.5C16.1,45.3 16.1,45.2 15.8,45.2L15.4,45.1L15.2,45.1C15,45.1 14.8,45.3 14.6,45.2L14.4,45.3C14.1,45.5 13.8,45.5 13.4,45.3L12.2,45.3L11.9,45.1L10.9,44.6L10.7,44.6L9.9,44.9C9.5,45.1 9.1,45.1 8.8,44.9L8.4,44.9C8,44.9 7.7,45.3 7.4,45.2C7.1,45.5 6.8,45.5 6.5,45.5L6.2,45.5C5.9,45.7 5.6,45.7 5.2,45.7L4.9,45.5L4.9,45.3L5.9,45.3L6.9,45.2C7.1,45.2 7.3,44.9 7.5,44.8L8.1,44.7L8.7,44.4L9,44.4C9.2,44.6 9.5,44.6 9.8,44.4L10.2,44.3L10.8,44.1L12.7,44.1C13,43.8 13.3,43.9 13.5,43.8L14.6,43.8L14.9,43.6C15,43.6 15.1,43.4 15,43.3C14.8,43 14.7,42.7 14.4,42.5L14,42C13.8,41.5 13.5,41.2 13.2,40.9L13,40.6C12.9,40.4 12.6,40.3 12.4,40.2C12.2,40.2 12.1,40.4 11.9,40.5L10.9,41.5L10.8,41.5L10.8,41.7ZM63,7.5C63,7.3 63,7 63.2,6.8C63.2,6.5 63.4,6.3 63.6,6.1L63.5,5.8L62.8,5.5L62.4,5.2L62.4,5L63.2,5.1L63.5,5.2C64.5,5.175 65.5,5.141 66.5,5.1C66.5,4.9 66.8,4.7 66.9,4.5L67.2,3.8L67.4,3.6L67.9,2.6L67.9,1.6L67.4,1.2L67.4,1L67.3,0.9L67.5,0.8L67.7,0.8L67.9,0.7L67.7,0.5L65.8,0.5C65.5,0.2 65.1,0.3 64.8,0.3L60.2,0.3C60,0.5 59.8,0.5 59.6,0.5L58.9,0.6L58.6,0.9L58.6,1.5L58.7,2L60.2,3.5L60.6,4.2L60.9,4.7L61.3,5.2L61.5,5.4C61.7,5.4 61.9,5.7 62,5.9L62,6.2L61.8,6.2L61.1,6L60.3,5.6L60.1,5.4L59.9,5.1C59.8,4.7 59.6,4.2 59.3,3.9L59.2,3.6L58.9,2.9C58.5,2.9 58.4,2.5 58.1,2.4L57.9,2.5C57.9,2.7 57.9,2.9 57.7,3.1L57.6,3.6L57.4,4.3L57.4,7.1C57.3,7.5 57.5,7.7 57.7,8C57.9,8.3 58.2,8.5 58.4,9L58.5,9.1C58.9,9.5 59.3,9.8 59.5,10.3L60.4,11.3C60.672,11.073 60.939,10.839 61.2,10.6L61.1,11C60.9,11.3 60.7,11.5 60.7,11.8C60.5,12.1 60.6,12.4 60.5,12.7C60.1,12.4 59.8,12.1 59.9,11.7L59.8,11.3C59.6,11.1 59.6,10.8 59.4,10.7L59.2,10.4C59.1,10 58.7,9.9 58.4,9.8L58.4,10.5L58.1,10.9L57.7,11.6L57.7,16.1L57.8,16.4L58.5,16.4C58.9,16.4 59.2,16.7 59.5,16.6L60.2,16.6C60.5,16.8 60.8,17 60.8,17.4L60.9,18.1L60.9,18.4L61.2,18.6C61.5,18.6 61.7,18.8 62,18.9L62.5,19.1L63.4,19.1C63.4,18.9 63.6,18.9 63.6,18.8L63.9,18.2L63.9,18L64.7,18.4L67,18.4C67.3,18.7 67.7,18.6 68,18.6C69.599,18.678 71.2,18.745 72.8,18.8L73.5,18.4L75.1,16.8L75.5,16.1C75.7,15.8 75.6,15.3 75.5,15.1L75,15L74.4,15C74.3,14.9 74.1,14.7 73.9,14.7L73.4,14.7C73.2,14.7 73.1,14.5 73,14.6L72.4,14.7C72.167,14.691 71.933,14.691 71.7,14.7C71.5,14.9 71.3,14.9 71,15L70.3,15C70.1,15.2 70,15.2 69.8,15L69.2,14.7C68.9,14.6 68.7,14.4 68.4,14.5L65.8,14.5C65.6,14.3 65.3,14.3 65.1,14.2L64.7,14L63.7,14C63.45,13.976 63.2,14.048 63,14.2L62.8,14.2L62.7,14.1L62.1,12.9L62.1,12.7L62.2,12.7L62.7,13.2L63.4,13.6L64.4,13.6L64.8,13.4C65.2,13.4 65.7,13.2 66.1,13.6L66.9,13.8C67.1,14 67.3,14 67.5,14L68.2,13.9C68.5,13.7 68.7,13.8 69,13.9C69.2,13.9 69.3,13.9 69.4,14.1L70,14.5L70.7,14.5C71.1,14.5 71.5,14.5 71.9,14.3L72.2,14.3L72.5,14.2L73,14L73.6,13.9L74.1,13.9L74.7,14.2L75.3,14.2L75.5,14.4L75.9,14.4L75.9,12.9C75.9,12.7 75.9,12.5 76.1,12.3L76.1,12C76.045,11.829 75.978,11.662 75.9,11.5L75.7,10.9L75.6,10.7C75.4,10.5 75.2,10.3 74.9,10.3L74.7,10L74.7,9.8C74.9,9.6 74.8,9.4 74.6,9.2L74.4,9.2L74.4,9.8C74.4,10 74.1,10.3 74,10.3L72.9,10.3L72.9,9.7C73.2,9.5 73.3,9.2 73.2,8.8L73,8.8C73,8.9 72.9,9.1 72.7,9.1L72.5,9.3C72.5,9.5 72.3,9.6 72.2,9.7L72,9.6L72,8.6L71.9,8.1C71.7,8.1 71.7,7.9 71.5,7.8L71.3,7.3L70.8,6.8C70.7,6.8 70.7,6.6 70.8,6.4L71.1,6L71.1,5.9C71.1,5.8 71.1,5.7 71,5.8L70.2,6.2L70,6.4C69.9,6.7 69.6,6.8 69.3,7L68.2,7L67.9,7.2L67.5,7.2L66.7,7.3C66.415,7.393 66.145,7.527 65.9,7.7C65.806,7.776 65.706,7.843 65.6,7.9L65,7.9C64.897,7.784 64.754,7.713 64.6,7.7L64.2,7.7L64.2,7.5C64.5,7.5 64.6,7.3 64.8,7.2L65,7C65.1,7 65.3,7 65.4,7.2L65.7,7.2C65.8,6.9 65.7,6.6 65.5,6.6L65.2,6.6C65.027,6.47 64.816,6.4 64.6,6.4L63.8,6.4L63.7,6.6L63.3,7.2C63.3,7.3 63.1,7.5 62.9,7.5L63,7.5ZM6,29.3L6.1,29.3L6.4,28.7L6.6,28.1L6.6,26.7C6.6,26.3 6.6,26 6.4,25.7L6.4,25.4C6.4,25.1 6.2,24.9 6.1,24.7L6,24L5.9,23.7C5.9,23.6 5.9,23.4 5.7,23.2C5.568,23.094 5.465,22.957 5.4,22.8L4.8,21.6C4.8,21.3 4.7,21.1 4.5,20.8C4.4,20.5 4.1,20.2 3.8,20C3.6,19.8 3.3,19.9 3.1,19.9L1.6,19.9C1.4,19.9 1.3,19.9 1.1,20.1L0.7,20.1C0.6,20 0.5,19.9 0.4,20.1L0.2,20.3L0.2,37L0.8,37.6C1,37.9 1.2,38 1.5,38L4,38C4.1,38 4.3,38 4.4,37.8L4.7,37.8C5.1,37.8 5.5,37.8 5.7,37.6L7.3,37.6C7.3,37.7 7.3,37.6 7.4,37.6C7.5,37.3 7.6,37.3 7.7,37.4L8.2,37.9L8.4,38L9,37.9L9.7,37.5C9.9,37.5 10.1,37.3 10.3,37.5C11.2,37.5 11,37.7 11.6,37L11.7,37L11.9,36.9L12.7,36.9L12.7,36.7L12.8,36.4C12.8,36.3 13,36.1 13.1,36.2L13.4,36.4L13.9,36.5C14.1,36.6 14.3,36.6 14.4,36.8C14.6,36.8 14.8,36.9 14.9,37.1L15.3,37.4L15.5,37.5C15.7,37.6 16.1,37.3 16.1,37.1L16.1,29.1C16.1,28.7 16.2,28.3 15.9,28L15.9,27.3L15.7,27.3C15.5,27.3 15.4,27.4 15.2,27.6L14.7,28.3L14.6,28.6L14.4,28.8C14.2,28.8 14.1,29.1 13.9,29C13.6,29 13.5,29.2 13.3,29.3C12.7,29.5 12.5,29.5 12.1,29.9L10.7,29.9C10.4,29.7 10.1,29.8 9.8,29.8C9.5,29.8 9.5,29.8 9.4,30.1L9.4,30.4L9.3,30.3C9.3,29.9 9.1,29.7 8.9,29.5C8.6,29.4 8.3,29.2 7.9,29.3L7.6,29.3L7.5,29.2L7.6,29.1C7.7,29.1 7.9,29.1 7.9,28.9C7.9,28.7 7.8,28.6 7.6,28.6C7.3,28.4 7.3,28.4 7.2,28.6C7,28.6 6.8,28.8 6.8,29.1L6.6,29.1C6.4,29.3 6.3,29.3 6.1,29.3L6,29.3ZM28.4,56.8L28.4,57.2C28,57.5 27.9,57.9 27.6,58.2C27.6,58.5 27.3,58.6 27.3,58.9L27.3,59L27.6,58.9C27.9,58.9 28.1,58.7 28.2,58.4C28.2,58.3 28.2,58.2 28.4,58.1L28.6,57.7C28.6,57.5 28.9,57.5 29,57.4L29.8,56L30.1,55.3C30.4,55.1 30.5,54.8 30.6,54.5L30.7,54.3L31.1,54.1L34,54.1L34,54.7C34,54.9 34,54.9 33.9,54.8L31.3,54.8C31.1,55 31,55.3 31.1,55.5L31.3,56L31.6,56.6C31.8,56.9 31.8,57.2 31.8,57.5C31.8,57.6 31.8,57.7 32,57.7L32.5,57.7C32.7,57.7 32.8,57.7 32.9,57.5L33.1,57.6L33,58.2L32.9,58.6C32.9,58.7 32.9,58.8 33.1,58.9C33.3,58.9 33.5,58.9 33.5,58.6L33.6,58.2L33.8,57.7L33.9,57.2L33.9,56.8C33.9,56.7 33.9,56.5 34.1,56.3L34.1,56.1C34.2,55.7 34.1,55.3 34.4,55L34.4,54.9L34.7,54L35,53.8L35,53.7L32.9,53.6L24.4,53.6C24,53.6 23.7,53.6 23.4,53.4L23,53.4L22.7,53.6C22.5,53.6 22.5,53.5 22.7,53.4L22.7,53C22.7,52.7 22.7,52.4 22.5,52.2C22.3,52.1 22.3,51.9 22.3,51.6L22.3,51.4C22.3,51.3 22.3,51.2 22.5,51.2L22.7,51L22.7,50.5L22.6,50.3L21.3,51.2L20.7,51.8L20,52.3C19.8,52.5 19.5,52.7 19.4,53L19.4,56L19.5,56.2L19.7,56.2L20.5,55.4L20.7,55.4L20.7,55.3L20.6,55.8L18.3,58.2L17.9,58.8L17.9,58.9L18.1,58.9C18.3,58.9 18.5,58.7 18.6,58.5L21.2,55.8L22.7,54.6L22.9,54.3C23.2,54.1 23.4,54 23.7,54L26.2,54C26.2,54.1 26.3,54.2 26.2,54.2L25.5,55.1L25.4,55.1C25.4,54.6 25.4,54.6 25,54.6C24.565,54.658 24.132,54.725 23.7,54.8L23.8,55.1L23.8,55.8C23.9,56 24,56.2 24.3,56.2L24.3,56.4L23.8,56.8L23.5,57.4L23.2,57.6L23.2,57C23.2,56.9 23.2,56.7 23,56.6L23,56.3L22.8,55.9L22.5,55.9L21,57.4L21,57.5L21.2,57.5C21.4,57.6 21.7,57.5 21.9,57.8L22.2,57.8L22.5,57.6L23.4,57.6L23.3,57.8C23.072,58.104 22.839,58.404 22.6,58.7L22.8,58.7C23.1,58.5 23.4,58.5 23.6,58.2L24.9,56.8L25.1,56.5L25.5,56C25.8,55.6 26.2,55.4 26.3,55L27.2,54L27.4,54C28.068,54.051 28.735,54.118 29.4,54.2L30,54.2L30,54.4C30,54.6 29.9,54.8 29.6,54.9C29.6,54.7 29.6,54.6 29.4,54.6L28.4,54.6C28.2,54.6 28.1,54.8 28.1,54.9C28.093,55.333 28.093,55.767 28.1,56.2C28.3,56.3 28.3,56.5 28.4,56.7L28.5,56.7L28.4,56.8ZM18.8,78.8L19,78.7C19,78.3 19,78 18.7,77.9C18.4,77.8 18.1,77.6 17.7,77.7L13.3,77.7L12.9,77.6C12.7,77.4 12.4,77.4 12.1,77.4L9.4,77.4C9.2,77.4 9.1,77.4 9,77.6L7.5,77.6L7.2,77.4C6.8,77.4 6.3,77.3 6,77.6L5.7,77.6C5.5,77.6 5.3,77.6 5.1,77.8C5,77.9 4.8,77.9 4.7,77.8L4,77.6L1.4,77.6C1,77.6 0.8,77.8 0.4,77.9L0.4,79.5L18.6,79.5L18.8,79.2L18.8,78.8ZM39.6,22.6L39.6,22.5L40.2,22.5L40.4,22.6C40.4,22.8 40.4,23 40.6,23.2C40.8,23.4 41,23.3 41.2,23.3L41.7,23.3C41.9,23.3 42,23.3 42,23L42.2,23L42.2,23.9L42.7,23.9L42.7,23.2C42.9,23 42.9,22.8 42.9,22.6L42.9,22.1C43.2,21.8 43.1,21.5 43.1,21.2L43.1,20.8L43.4,20C43.6,19.8 43.6,19.5 43.6,19.2C43.6,19.2 43.6,19 43.4,18.9C43.2,18.7 43,18.7 42.9,19C42.9,19.1 42.9,19.2 42.8,19.1L42.7,18.9C42.7,18.6 42.6,18.5 42.4,18.5L41.2,18.5C40.9,18.5 40.5,18.5 40.2,18.3L39.8,18.3L39.5,18.5L39.3,18.7L39.1,19.1L39.1,19.4C39.3,19.5 39.4,19.7 39.6,19.7L42.2,19.7L42.5,19.5L42.7,19.6C42.675,19.967 42.642,20.334 42.6,20.7L42.5,20.7L42.5,20L42.3,19.8C41.967,19.787 41.633,19.787 41.3,19.8C41,20 40.7,20 40.5,20L39.5,20C39.3,20 39.1,20.3 39.1,20.6L39,21.2L39,21.4L38.9,23.3L39.3,23.3L39.6,23.4L39.6,25L39.8,25.1L40,25L40,23.6L40.1,23.3L40.2,22.9C40.2,22.7 40.2,22.6 40,22.6L39.6,22.6ZM33.3,61.8L33.1,61.9L33.1,62.1L33.8,63.6L34,63.9L34.1,64.3C34.2,64.5 34.2,64.7 34.4,64.8C34.6,65 34.7,65.2 34.7,65.5L35.6,67.5L35.8,67.5C36.467,67.477 37.134,67.444 37.8,67.4L37.8,66.6C37.5,66.4 37.6,66 37.5,65.8L37.3,65.3L37.1,64.5L36.9,64.4C36.667,64.388 36.433,64.388 36.2,64.4L36.1,64.2C36.1,64 35.8,63.9 35.8,63.7L36.5,63.8L36.7,63.8C36.7,63.5 36.7,63.2 36.5,62.9L36.5,62.7C36.5,62.2 36.1,61.9 35.9,61.4L35.7,61.2C35.4,61.2 35.2,60.9 34.9,60.9L32.8,60.9L32.7,61L32.7,61.3L32.9,61.3C33.1,61.5 33.3,61.6 33.3,61.8ZM26.4,23.8L26.6,23.8L26.8,24L27,24L27,23.8L26.8,23.2L26,22C25.9,21.8 25.8,21.4 25.5,21.3L24.9,20.1C24.7,19.7 24.5,19.4 24.1,19.1L24,19.1L24,19.3L24.5,20.2L24.6,20.6L24.2,20.4L21,20.4C20.9,20.4 20.8,20.4 20.8,20.6L20.4,20.5L19.1,19.1C18.9,19 18.7,18.9 18.6,19C18.4,19 18.3,19.2 18.4,19.3L19.8,20.7C20.2,20.9 20.5,21.3 20.8,21.6L21.1,21.9C21.5,22 21.8,22.4 22.1,22.7L23,23.5C23.1,23.5 23.3,23.7 23.3,23.9L23.5,24C23.9,24 24.3,24 24.5,24.2L25.1,24.2C25.1,24.1 25.2,24.1 25.3,24.2L26,24.1C26.1,24 26.3,24.1 26.4,23.9L26.4,23.8ZM51.8,18.8L51.8,18.5C51.8,18.3 51.8,18.3 51.6,18.5L50.9,18.4L50.7,18.4L50.5,18.5C50.067,18.508 49.633,18.508 49.2,18.5L48.8,19.1L48.8,19.3C48.8,19.5 49,19.6 49.2,19.7L49.8,19.7C50.233,19.696 50.667,19.696 51.1,19.7L51.1,19.8L50.9,19.9L48.4,19.9L47.9,20.6L47.5,21.3L47.1,22.1C47,22.3 46.7,22.5 46.7,22.8L46.5,23L46.5,23.3C46.7,23.5 46.9,23.5 47.1,23.5L47.6,23.5C47.6,23.4 47.7,23.4 47.8,23.5L48.2,23.5L48.8,23.4L49,23.2L49.1,23.2L49.1,23.6C49,23.6 49,23.7 49.1,23.7L49.2,23.7L49.5,23.5L49.8,23L50.5,22C50.7,21.6 50.9,21.2 51.2,21L51.4,20.5C51.6,20.1 51.8,19.8 52.2,19.5L52.4,19.1C52.3,18.8 52.1,18.7 51.8,18.7L51.8,18.8ZM22.4,34.2L23.2,34.2L23.2,32.8L23.1,32.6L23.1,32C23.1,31.7 22.8,31.5 22.5,31.5C22.3,31.5 22,31.5 21.8,31.3L21.4,31.3L21,31L20.3,30.9C20.1,30.7 19.8,30.9 19.6,30.6C19.5,30.6 19.3,30.6 19.3,30.8L19.3,31.1C19.3,31.4 19.3,31.6 19.1,31.8C19.096,32.267 19.096,32.733 19.1,33.2L19.5,33.6L20.1,33.6L20.1,34L19.7,33.9C19.4,33.9 19.1,33.9 18.9,33.7L18.3,33.7C18.3,33.7 18.1,33.7 18.1,33.9L18.1,34C18.1,34.2 18.2,34.3 18.4,34.3L19.4,34.3C19.6,34.6 19.9,34.6 20.2,34.6L21.1,34.8C21.5,34.8 22,34.8 22.4,35L23.1,35L23.3,34.8C23.3,34.8 23.3,34.6 23.1,34.6L22.5,34.6L22.4,34.3L22.4,34.2ZM28.9,20.2L28.4,20.2L28.2,20.1L26.8,20.1L26.4,20.2L26.3,20.2C25.9,20.3 25.9,20.4 26.1,20.8C26.2,20.9 26.4,21 26.4,21.2C26.7,21.6 26.8,22.1 27.1,22.4C27.1,22.8 27.4,23.1 27.7,23.4L28,23.4C28.3,23.4 28.4,23.6 28.6,23.7C28.6,23.8 28.7,23.9 28.9,23.9L30.6,23.9L30.6,23.7L30.3,23.7L30.4,23.3L30.4,23.1L30.6,23.1C30.6,23.3 30.8,23.5 30.9,23.6L31.1,23.6L31.1,23.5L30.9,23C30.8,22.5 30.5,21.8 30.2,21.6L29.8,20.9L29.5,20.3L29.3,19.5L29,19.2L28.5,19.2L28.8,19.8L28.8,20.3L28.9,20.2ZM20.2,46.2C19.948,46.532 19.598,46.777 19.2,46.9L18.2,47.5C17.9,47.6 17.9,47.8 18,48.1L18.2,48.2L18.5,48.2L18.9,47.8C19.1,47.8 19.2,47.7 19.4,47.5L19.7,47.5C20.1,47 20.6,46.9 21,46.6L21.7,46.3C21.966,46.005 22.315,45.796 22.7,45.7L23.2,45.2L23.2,45C22.948,44.811 22.8,44.515 22.8,44.2L22.8,42.6L22.6,42.5L22.2,42.7C21.9,42.7 21.8,43 21.5,42.9C21.318,42.92 21.145,42.989 21,43.1L20.1,43.4C19.9,43.4 19.7,43.7 19.7,43.9L19.7,45.9L19.9,46.1L20.2,46.1L20.2,46.2ZM58.5,43L57.5,43L57.6,42.8C57.7,42.8 57.8,42.8 57.8,42.6L57.8,41.6C57.8,41.3 57.8,41.1 57.5,41C57.1,40.9 56.7,40.5 56.2,40.5C56,40.3 55.8,40.3 55.5,40.3L53.7,40.3L53.7,40.5C53.7,41 54.1,41.3 54.1,41.8L54.2,42L54.6,42.2L54.7,42.2L54.5,42.3L53.3,42.3L53.3,42.5C53.5,42.5 53.6,42.7 53.8,42.8C54,42.8 54.2,42.8 54.4,43L54.6,43L55.1,43.1C55.3,43.3 55.6,43.2 55.8,43.3C56,43.5 56.2,43.5 56.4,43.5C56.7,43.5 57.1,43.5 57.4,43.7L57.8,43.7L58.3,43.9L58.8,43.8L59.1,43.5L59.1,43.4L58.9,43.3L58.6,43.2L58.6,43L59.3,43L59.4,42.1L59.3,41.9L58.5,41.5L58.3,41.6L58.3,42.6C58.3,42.6 58.3,42.8 58.5,42.8L58.5,43ZM45.5,23.8L45.9,24L45.9,23.8L45.6,23.8L45.6,23.6L46.2,22.9C46.3,22.4 46.6,22 46.8,21.6L46.9,21L47,20.8L47.2,20.3C47.2,20.1 47.5,20 47.6,19.8L47.8,19.3L47.8,18.8L47.4,18.8C47.4,18.9 47.3,19 47.1,19L47.1,18.8L47,18.5L44.6,18.5L44.5,18.7L44.5,19.1C44.4,19.2 44.2,19.3 44.3,19.4C44.4,19.5 44.5,19.7 44.7,19.7C45.1,19.7 45.6,19.7 46,19.5L46.5,19.5C46.5,19.6 46.6,19.6 46.7,19.5L46.9,19.5L46.8,19.9L46.7,20.2L46.6,20.3C46.5,20 46.4,19.9 46.2,19.9L44,19.9C44,20.2 43.7,20.4 43.7,20.7C43.7,21 43.7,21.4 43.5,21.7C43.5,22.1 43.5,22.5 43.3,22.8L43.3,23.3C43.3,23.4 43.4,23.6 43.6,23.5L44.2,23.3L44.7,23.3L45.1,23.2L45.2,23.2L45.2,23.6L45.5,23.8ZM49.4,26.3L49.4,25.8L48.8,25.1L48.5,25L46.9,25L46.6,25.1L46.6,25.4C46.9,25.6 47.1,26 47.5,26.2L47.5,26.3C47.6,26.6 47.5,26.8 47.7,27L48.1,27.7L48.4,28C48.5,28.4 48.9,28.6 49.1,28.9L49.5,29C50.266,28.955 51.033,28.922 51.8,28.9L51.8,28.8C51.7,28.5 51.3,28.3 51.2,28C51.104,27.777 50.969,27.574 50.8,27.4L50.4,27L50.2,26.6L50,26.4L49.8,26.3L49.4,26.3ZM54,53.8L53.5,53.7L53.4,53.7L53.4,53.9C53.5,54.2 53.8,54.4 54.1,54.7C54.4,54.7 54.5,55 54.7,55.2L55.6,55.8L56.6,56.8C56.8,56.8 56.9,57 57.1,57.2L58.5,58.5L58.6,58.5L58.6,58C58.3,57.7 58,57.3 57.6,57.2L57.6,54.9L57.4,54.8C57,54.8 56.5,54.6 56.1,54.8C55.9,55 55.7,54.9 55.4,54.9C55.2,54.9 55.1,54.9 55,54.7C54.9,54.7 54.9,54.6 55,54.5L55.3,54.5L55.4,54.7C55.7,54.5 55.9,54.5 56.2,54.5C56.3,54.5 56.4,54.5 56.5,54.3C56.6,54.3 56.6,54.1 56.5,54.1L55.5,53.1C55.3,53.1 55.2,52.9 55,52.8L54.4,52.3L54.1,52.2L53.8,52L53.8,52.4L53.5,52.7C53.3,52.7 53.3,53 53.5,53.1C53.5,53.3 53.8,53.5 53.9,53.7L53.9,53.8L54,53.8ZM55.7,20.6L55.7,20.5L55.9,20.3L55.9,20.1L52.9,20.1L52.7,20C52.4,20.2 52.1,20.5 52,20.8L51.6,21.3L51.4,21.7L50.8,22.4L50.3,23.2L50.4,23.3L53,23.3C53,23.5 52.8,23.6 52.7,23.7L52.7,23.9C52.7,23.9 53,24 53.1,23.9L53.7,23.4C53.9,23.2 54.2,23 54.3,22.7L55,22.2L55.4,21.9C55.4,21.7 55.7,21.7 55.8,21.6L56.5,21L57.3,20.4L57.5,20.2L58.5,19.4L58.5,19C58.5,18.8 58.3,18.7 58.2,18.8C58,18.9 57.8,19.2 57.5,19.2L57,19.8L56.3,20.5L55.8,20.5L55.7,20.6ZM19,41L19,40C19,39.8 18.7,39.5 18.5,39.6C18.3,39.8 18.1,39.8 17.9,39.8L17.7,40.1L17.7,41L17.9,41.2L18.5,41.2C18.6,41.2 18.6,41.3 18.5,41.4L18.4,41.7L18.4,41.8L18.5,41.8L19.3,41.3C19.3,41.3 19.5,41.2 19.5,41.3L19.7,41.3L19.7,41.7L19.8,41.8L19.9,41.8C20.2,41.7 20.1,41.4 20.2,41.2C20.2,41.2 20.4,41.1 20.2,41L20.1,40.8C19.9,40.6 19.9,40.6 20.1,40.5L20.4,40.3L20.4,40.5L20.7,40.5L20.9,40.3C21.1,40.3 21.2,40.3 21.3,40.5C21.3,40.7 21.3,40.9 21.1,41L20.7,41.2L20.7,41.4C21,41.4 21.2,41.4 21.4,41.2L21.7,40.6L21.7,40.4C21.5,40.2 21.4,40 21.1,40L20.6,40L20.7,39.9L21.4,39.9C21.6,39.9 21.7,39.9 21.8,40.1L22.1,40.7L22.1,41C21.9,41.1 22,41.3 22.1,41.4L22,41.6C21.7,41.6 21.4,41.6 21.2,41.9L20.9,41.9L20.3,42C20.1,42.2 19.9,42 19.7,42.2L19.4,42.3C19.136,42.304 18.885,42.412 18.7,42.6L18.2,42.6L18.2,43L18.9,43C19.1,42.8 19.3,42.8 19.6,42.8L19.9,42.8L20.4,42.6L21.1,42.6L21.3,42.5C21.5,42.3 21.9,42.4 22.1,42.1L22.3,42.1C22.6,42.1 22.8,41.9 23,41.8L23.2,41.7L23.2,41.6L23.1,41.4L22.5,41.4L22.5,41.2C22.8,41.2 22.9,41.1 22.9,40.8L22.9,39.4C22.9,39.2 22.7,39.1 22.6,39.1L21,39.1C20.6,39.1 20.3,39.3 20,39.5L19.8,39.9L19.8,40.8L19.6,41L19,41ZM56.7,36.9L57.1,37.1L57.4,36.9C57.336,36.5 57.269,36.1 57.2,35.7L56.6,35.7C56.4,35.9 56.2,35.9 56,35.9C55.9,35.892 55.8,35.892 55.7,35.9L54.7,36C54.5,36.2 54.1,36.1 53.8,36.2L53.5,36.3L53.5,36.6L53.7,36.8C53.9,37 53.9,37.3 53.7,37.6L53.7,38L56.8,38L56.9,37.8L56.9,37.4C56.777,37.226 56.74,37.005 56.8,36.8L56.7,36.9ZM56.1,30.4L56.1,30.3L56.4,30.2L56.4,30L53.6,30C53.5,30 53.4,30 53.4,30.3L53.4,30.6C53.1,30.9 53.2,31.2 53.2,31.5L53.6,31.5C53.9,31.5 54.1,31.3 54.3,31.2L54.7,31.2C54.7,31.4 54.5,31.5 54.3,31.6L53.7,31.9L53.5,32.1C53.5,32.2 53.5,32.3 53.6,32.2C53.9,32.2 54.1,32 54.3,31.9C54.6,31.8 54.9,31.9 55.1,31.6C55.3,31.6 55.5,31.6 55.6,31.4C55.8,31.2 56,31.1 56.3,31.1C56.7,31 57.1,30.6 57.5,30.6C57.8,30.3 58.3,30.2 58.5,29.8C58.6,29.8 58.7,29.8 58.7,29.6L58.7,29.4L58.6,29.4C58.4,29.5 58.2,29.4 58,29.6C57.6,29.8 57,29.9 56.7,30.3L56.4,30.4L56.1,30.4ZM37.1,26.1L37.2,25.7L37.2,25.6C37.3,25.5 37.2,25.4 37.2,25.4C37,25.4 36.9,25.4 36.9,25.1L36.4,25.1L36.2,25.3C36.2,25.7 36.2,26 36.5,26.3L36.6,26.5L36.1,26.7L35.6,27C35.3,27 35.1,27 34.9,27.2L34.2,27.4C33.9,27.4 33.7,27.6 33.5,27.8L33.3,27.8L33,27.5L32.7,27.5L32.7,27.9C32.5,27.9 32.4,27.9 32.4,27.7C32.4,27.3 32.3,27.1 32,26.9L31.6,26.8C31.326,26.8 31.1,26.574 31.1,26.3L31.1,25.8C31.3,25.8 31.3,26 31.3,26.2L31.6,26.3L31.8,26.3C32,26.1 32.3,26.1 32.6,26.1L34,26.1L34,25.9C33.668,25.697 33.335,25.497 33,25.3L32.5,25.7L32.2,25.8L31.5,25.7L31.3,25.7L31.2,25.9L31,25.7C31,25.5 30.9,25.4 30.7,25.4L30,25.4L29.3,25.6L29.3,25.9L29.7,27.2L29.7,27.4C30,27.6 30.1,28 30.3,28.2C30.4,28.4 30.6,28.6 30.8,28.6C31,28.6 31,28.7 30.8,28.8C30.8,28.9 30.7,29.1 30.5,29.1L30.4,29.2C30.4,29.2 30.5,29.3 30.6,29.2L30.7,29.2C31,29.3 31.3,29.2 31.4,28.9L31.4,28.8L31.7,28.6L31.9,28.6C32.1,28.6 32.2,28.8 32.1,28.9L31.7,29.6L31.7,29.7L32.2,29.7L32.7,30L32.7,30.3C32.6,30.5 32.5,30.7 32.6,31L32.4,31C32.4,30.8 32.2,30.6 32.1,30.5L32,30.5L32.1,31.5L31.6,31.6L31.4,31.6C31.2,31.8 31.1,31.7 31,31.6L30.7,31.6L30.7,32L30.4,32C30.4,31.7 30.4,31.6 30.1,31.6C29.9,31.6 29.8,31.5 29.6,31.3L29.6,31.2L29.8,30.9L29.9,30.3L30.1,30.2L30.1,30L29.9,30L29.4,30.2C29.1,30.2 28.9,30.5 28.6,30.5L28.5,30.5L28.1,30.7L27.1,30.7L27,30.5C26.7,30.4 26.4,30.2 26.4,29.9L26.4,29.8C26.1,29.3 25.8,28.8 25.7,28.3L25.5,27.6L25.3,27.4L24.8,27.1L24.6,27.2L24.6,28.2L25.1,29L25.3,29.5C25.3,29.8 25.5,29.7 25.7,29.8C25.9,29.8 26,29.9 25.9,30.1L25.8,30.3L25.9,30.5L26.2,30.6L27.1,30.6L27.1,30.8L27.6,30.9C27.8,30.9 27.9,30.9 28,31.1C28.2,31.3 28.5,31.4 28.8,31.3L29.2,31.5L29.3,31.8C29.5,32.2 29.6,32.5 29.9,32.8L29.9,32.9L29.4,32.8L29.1,32.8C28.6,33.2 28.3,33.8 28.1,34.4C27.989,34.655 27.989,34.945 28.1,35.2L28.1,38.2L28.4,38.5L32.4,38.5L32.6,38.4C32.9,38.1 33.3,37.7 33.4,37.4C33.4,37.2 33.6,37.1 33.8,37.1L33.8,37.3C33.8,37.4 33.8,37.5 34,37.5L34.2,37.5L34.4,37.7L34.5,37.9L34.7,37.9L34.9,37.6C34.9,37.3 34.9,37.1 34.7,37C34.5,36.9 34.4,36.8 34.3,37L33.8,37C34.2,36.7 34.5,36.6 34.9,36.9L35.1,36.9L35.1,36.6C35.1,36.3 35.1,36 35.4,35.8L35.5,35.8C35.6,35.6 35.8,35.6 36,35.6C36,35.8 35.7,35.9 35.6,36.1L35.6,36.5L35.7,36.5C35.9,36.8 36.2,36.8 36.4,36.6L36.8,36.2L36.8,36C36.9,35.9 36.8,35.7 36.8,35.6L37.3,35.8C37.3,35.8 37.5,35.8 37.5,35.6L37.5,35.2L37.7,34.7L37.7,34.6C37.5,34.4 37.6,34.1 37.5,33.8L37.3,33.3L37.3,32.3L36.6,31.7L36.3,31.6L36.1,31.6C35.8,31.3 35.6,31.1 35.5,30.7L35.4,30.5C35.2,30.5 35.1,30.3 34.9,30.1C34.787,30.011 34.641,29.974 34.5,30L33.3,30L33.1,29.7L33.1,29.3L33.3,29.1L33,29.1L32.8,28.8L33,28.8C33.1,28.8 33.2,28.8 33.2,28.6C33.2,28.5 33.3,28.4 33.5,28.4C33.8,28.4 34,28.4 34.2,28.2C34.4,28.2 34.6,28 34.7,27.9C35,27.9 35.3,27.8 35.5,27.6C35.5,27.4 36.5,27 36.7,27L37.1,26.9L37.8,26.3L38.2,26.1L38.2,26C38.3,26 38.2,26 38.2,26C38,25.8 37.7,25.8 37.4,25.9L37.2,26L37,26L37.1,26.1ZM16.6,42L16.7,41.8C17.1,41.5 17.1,41.2 17,40.8L16.8,40.3L16.6,40.2L16.2,40.2L15.9,40.3L15.7,40.7L15.7,42.2C15.7,42.5 15.9,42.8 16,43L16.1,43.1L16.5,43.1C16.9,43.1 17.2,42.7 17,42.4L16.6,42ZM53.6,25L53.4,25C53.4,25.2 53.5,25.2 53.6,25.2L53.8,25.5L53.9,26L53.9,26.3C53.776,26.541 53.559,26.722 53.3,26.8L53.3,27.1C53.3,27.3 53.4,27.4 53.6,27.4L53.6,27.6L53.2,28L53.4,28.1L53.7,28.1L54.2,27.7L54.6,27.5C54.9,27.1 55.3,27 55.6,26.8C56,26.6 56.4,26.4 56.7,26L57,25.8L58.2,25.1C58.4,25.1 58.5,24.8 58.7,24.6L58.7,24.3L58.5,24.3C58.3,24.3 58.2,24.5 58.1,24.6L57.5,24.9C57.3,25.2 57,25.1 56.9,25.4L56.1,25.8C55.9,25.8 55.8,26.1 55.6,26.2L55.2,26.3L55.3,26L55.3,25.8L54.3,25.3C54.1,25.1 53.9,25.1 53.6,25.2L53.6,25ZM42,57.6L42.1,57.6L42.5,58C42.5,58.3 42.7,58.6 42.9,58.8C42.9,58.8 43,58.9 43.1,58.8C43.2,58.8 43.4,58.8 43.5,58.6L43.5,58.4C43.5,58.2 43.3,58.1 43.1,57.9L42.8,57.3L42.4,57.1L42.3,56.9L42.3,56.2L42.5,55.9L42.5,54.9C42.7,54.7 42.8,54.6 42.6,54.4L42.5,54.4L42.5,54.8C42.3,54.8 42.3,54.9 42.2,55L42.2,55.4L42,56L42,56.4L41.9,56.7L41.8,57.1L41.6,57.1L41.6,56.8C41.5,56.7 41.4,56.6 41.3,56.7L40.9,56.9L40.3,56.9C40.1,56.9 40,57.1 40,57.2L40.2,57.6L40.5,57.8L41.8,57.8L42,57.6ZM24.4,25.4C24.6,25.4 24.8,25.4 24.9,25.6C25.1,25.8 25.4,25.9 25.7,25.8L25.9,25.8L26.4,25.6C26.6,25.6 26.6,25.5 26.7,25.4C26.8,25.3 26.8,25.2 26.7,25.2L26.3,25L24.7,25C24.5,25 24.4,25 24.4,25.2L24.4,25.4L24.3,25.4L23.7,25.5L23.4,25.6L22.7,25.6L22.7,26C22.8,26.1 23,26.1 23.1,26L23.9,25.9L24.2,25.7L24.4,25.4ZM24.8,49.9L24.8,49.7L24.7,49.8L24.8,49.9L24.8,50.2C25.2,50.6 25.4,51.1 25.8,51.4L26,51.8C26.2,52.2 26.6,52.5 27,52.8C27.1,52.7 27,52.5 27,52.4L26.6,51.6L24.9,49.9L24.8,49.9ZM57.2,31.9L57,31.8C56.7,31.8 56.4,31.8 56.2,32C55.9,32 55.7,32.4 55.3,32.3L55.1,32.5C55,32.5 55,32.6 55.1,32.7C55.8,32.7 55.8,32.7 56.5,32.4L56.9,32.2C57.1,32.1 57.2,32 57.2,31.8C57.4,31.8 57.4,31.8 57.3,31.7L57.2,31.8L57.2,31.9ZM54.7,55.9L54.7,55.7L54.6,55.7L54.7,55.9C54.7,56.1 54.7,56.2 54.9,56.4L55.8,57.3C55.9,57.5 56.2,57.5 56.4,57.6C56.4,57.6 56.5,57.4 56.4,57.4L55.7,56.6C55.3,56.5 55.1,56.1 54.8,55.9L54.7,55.9ZM30.4,59L30.8,59.2C30.8,59.2 31.1,59.2 31.1,59L31.1,58.7L30.8,58.2L30.5,58.2C30.3,58.2 30.2,58.5 30.2,58.8L30,58.7L29.6,58.3L29.4,58.3C29.2,58.5 29,58.7 29.1,59C29.1,59 29.1,59.2 29.3,59.2L30.3,59.2L30.4,59ZM14.8,19.9L14.8,19.7L14.6,19.7L14.8,19.9L14.8,20.1C15.1,20.1 15.3,20.2 15.4,20.4L15.4,20.6L14.6,20.6L14.4,20.5L13.9,20L13.6,19.9L10.7,19.9C10.5,19.9 10.4,19.9 10.3,20.1L10.1,20.2C10.1,20.3 10,20.3 9.9,20.2C9.7,20 9.5,19.8 9.2,19.9L8.6,19.9C8.3,19.9 7.9,19.9 7.6,20.1C7.1,20.1 6.6,20.2 6.3,20L6.1,19.9L4.7,19.9L4.6,20.1C4.6,20.3 4.6,20.5 4.8,20.7C5,21 5.1,21.4 5.5,21.7L5.9,22L6.4,22.2L6.7,22.4L6.7,22.7L6.5,23.1C6.3,23.2 6.3,23.3 6.4,23.5L6.6,24L6.6,24.5L6.8,24.9C6.8,25.1 6.8,25.3 7,25.5L7,27.5L7.1,27.7L7.8,28.4C8,28.4 8.1,28.4 8.2,28.6L8.6,29L10.1,29L10.5,28.6C10.7,28.6 10.8,28.5 10.8,28.3L11,28L11.1,28L11.2,28.1L11.2,29.1L11.5,29.4L11.8,29.4L13.4,28.6C13.5,28.6 13.6,28.6 13.7,28.4C14.1,28.1 14.4,27.8 14.6,27.4L14.8,27.2C15,27.2 15.1,27 15.2,26.8L15.6,26L15.6,25.7L15.7,25.4C16,25 15.9,24.6 15.9,24.3L16,24.1L16.2,23.6L16.2,21.2L16,21L15.6,20.8L15.5,20.6L15.9,20.6C16,20.6 16.1,20.5 16.1,20.3L16.1,20.2L16,19.9L14.8,19.9ZM57.6,59.1L57.7,59.3L57.8,59.2L57.6,59.1L57.6,58.7L57.2,58.3C57.2,58.2 56.9,58.1 56.8,58.2L56.6,58.2L56.6,58.3L57.2,59C57.3,59.1 57.5,59 57.6,59L57.6,59.1ZM22.6,26.5C22.6,26.4 22.6,26.3 22.4,26.3L22.4,25.6C22.4,25.5 22.4,25.4 22.6,25.4C22.8,25.4 23,25.2 23,25.1L23,24.3C22.8,24 22.7,23.6 22.3,23.5L22.2,23.5L21.4,22.7C21.2,22.4 20.8,22.4 20.6,22C20.4,21.7 19.9,21.7 19.7,21.4L19.5,21.4L19.5,21.6C19.5,22.1 19.6,22.6 19.3,23L19.3,24.5C19.3,24.6 19.3,24.7 19.5,24.7C19.7,24.7 19.8,24.9 19.9,25.1L19.5,25.1L18.8,24.6C18.615,24.412 18.364,24.304 18.1,24.3L18,24.3L18.2,24.9L19.6,25.6L20.9,26.4L21.2,26.5L21.5,26.7L22,27.1L22.6,27.3L22.8,27.6L23,27.6C23,27.7 23.2,27.6 23.2,27.6C23.2,27.3 22.9,27.2 22.8,27L23,27L23,26.6L22.6,26.6L22.6,26.5ZM27.5,25.4L28.1,25.4L28.1,25.2C27.968,25.173 27.832,25.173 27.7,25.2C27.6,25.2 27.5,25.2 27.5,25.4L27.2,25.4L27.2,25.5C27.4,25.6 27.4,25.5 27.5,25.4ZM59,49.7L58.9,49.5C58.8,49.5 58.8,49.6 58.9,49.7L59.2,49.9C59.3,49.9 59.4,49.9 59.3,49.8L59,49.7ZM22.8,49.2C22.6,49.2 22.6,49.2 22.6,49.5L22.2,49.5C22,49.8 21.6,49.9 21.3,50.2C21.1,50.5 20.7,50.7 20.3,50.9C20.3,50.9 20.1,50.9 20.1,51.1L19.5,51.5L18.9,52L18.4,52.3L18,52.7L18,52.9L18.3,53L19,52.3C19.3,52 19.6,52 19.8,51.7L20.4,51.3L21.2,50.8C21.4,50.7 21.5,50.4 21.8,50.3L22.4,49.8L22.6,49.6L22.6,49.4C22.7,49.4 22.8,49.4 22.8,49.2L23,49.1L22.8,49.2ZM31.8,49.9C31.8,49.9 32,49.9 32,49.7C32.2,49.7 32.2,49.6 32.1,49.5L32,49.5L32,49.3L33.2,49.3L33.7,49.8C33.8,49.9 33.8,50.1 33.7,50.2L33.2,51C33.2,51.2 32.6,51.5 32.4,51.5L31.4,52C31.1,52 30.7,52 30.4,51.8L30.2,51.8C30.1,52 29.9,52 29.8,52.1L29.4,52.2L28.8,52.2L28.4,52L28.2,52C28.2,52 28,52 28,52.2L28,53.1C28,53.2 28,53.3 28.3,53.3L35.5,53.3L35.8,53.2L35.9,52.9C36,52.7 36.1,52.7 36.3,52.7L37,52.7L37.1,52.8L37.1,52.9C37.1,53.3 37.1,53.3 37.5,53.3L38.1,53.3L38.1,53.7L37.8,53.7C37.8,53.7 37.8,53.9 38,54L38.3,54.1L38.5,54.1C38.6,54.1 38.7,54.3 38.6,54.4L38.4,55.2L38.4,55.4L38.3,55.4L38.3,55L38,54.7L37.3,54.7L37.1,55L37.1,55.2L36.9,55.4L36.2,55.4C36.1,55.4 36,55.4 36,55.1L36,55C36,54.8 35.9,54.7 35.7,54.7L35.5,54.7C35.1,54.7 34.9,54.9 34.9,55.4L34.9,55.9C35.2,56.3 35.4,56.6 35.5,57L35.5,57.2L35.4,57.4L35.5,57.6L35.7,57.6L37.7,57.7L38,57.3L38,56L38.2,56L38.2,59L38.4,59.2C38.8,59.2 39.1,58.9 39.1,58.6L39.1,54.3L39.3,54.2L42,54.2C42.2,54.2 42.3,54.2 42.4,54L42.9,54L43.3,54.1L45,54.1L45.2,54.2L45.7,54.7C45.7,55 46,55.2 45.9,55.5L46,55.7L46.2,56.2L45.6,56.2C45.6,56.2 45.5,56.1 45.6,56L45.7,55.7L45.5,55.2L45.3,55L45,54.8C44.7,54.8 44.5,54.8 44.3,55L43.5,55L43.3,55.3C43.3,55.6 43.3,55.9 43.5,56.1L43.4,56.4C43.2,56.7 43.2,56.7 43.4,56.9C43.6,57.2 43.9,57.4 44,57.7L46.5,57.7L46.7,57.6L46.7,57L46.8,57L47.2,57.6L47.7,58.8C47.9,58.5 47.9,58.2 47.7,58L47.6,57.4L47.6,57C47.4,56.9 47.4,56.6 47.3,56.4L47.1,55.8L46.9,55.5L46.8,55L46.5,54.5L46.3,54.2L46.4,54L49.8,54L50.2,53.9C50.4,53.7 50.5,53.7 50.7,53.7C51.135,53.641 51.568,53.575 52,53.5L38.6,53.5C38.6,53.5 38.5,53.4 38.6,53.3L38.6,52C38.457,51.717 38.457,51.383 38.6,51.1L38.6,50.6C38.4,50.2 38.5,49.8 38.5,49.5L38.5,49.4L38.7,49L38.7,48L38.5,47.4L38.5,46.4C38.5,46 38.4,45.7 38.6,45.4L38.6,45C38.4,44.6 38.5,44.3 38.5,44C38.7,43.7 38.7,43.4 38.7,43L38.7,41.9L38.3,41.3L38.3,41L38.4,40.6L38.4,40L38.2,39.3C38.2,39.1 37.9,38.9 37.8,38.9L29.4,38.9L29.1,39C28.9,39.2 28.7,39.1 28.5,39.1C28.2,39.1 28,39.4 28,39.6L28,46L28.1,46.6C28.2,46.9 28.3,47.2 28.1,47.4L28.1,47.5L28.2,47.8C28.5,48 28.5,48.3 28.3,48.5L28.3,49C28.5,49.2 28.4,49.4 28.3,49.6L28.2,49.9L28.2,50.1L28.8,50.4L30.2,50.4L30.2,50.5L30.5,50.5C30.8,50.4 31.2,50.3 31.4,50L31.5,49.9L31.6,50.1L31.7,49.9L31.8,49.9ZM78.4,38.5L78.4,79.3C78.4,79.5 78.4,79.7 78.1,79.9L78,80C77.9,80 77.8,80.2 77.7,80.1L-0.1,80.1C-0.3,80.1 -0.4,80 -0.4,79.8L-0.3,79.6C-0.2,79.4 -0.1,79.2 -0.2,79L-0.2,78.3L-0.3,78C-0.31,77.667 -0.31,77.333 -0.3,77C-0.1,76.8 -0.2,76.6 -0.2,76.4L-0.2,59L-0.3,58.3L-0.3,57L-0.2,56.8L-0.2,54.5L-0.4,54.2L-0.4,46.7C-0.4,46.4 -0.4,46 -0.2,45.7L-0.2,38.7L-0.3,38.1L-0.3,37.8L-0.2,37.5L-0.2,20.8C-0.2,20.5 -0.1,20.1 -0.3,19.8L-0.3,15.3L-0.2,14.4L-0.2,14.1C-0.5,13.7 -0.3,13.1 -0.3,12.7C-0.1,12.4 -0.2,12 -0.2,11.7L-0.2,4.4L-0.3,3.4L-0.3,0L-0.2,-0.7L-0.2,-2C-0.4,-2.3 -0.4,-2.5 -0.2,-2.8L0,-2.8C0,-2.9 0.2,-2.8 0.2,-2.8L73.6,-2.8L78,-2.9L78.3,-2.9L78.3,38.4L78.4,38.5Z" style="fill:rgb(108,26,47);"/>
            <path d="M43.4,42.1L43.4,42.6L43.2,42.9C42.9,43.1 42.9,43.4 42.9,43.7L42.8,44L42.8,44.3L42.9,44.8L42.9,46.6L42.7,46.6L42.7,45.9C42.563,45.731 42.492,45.518 42.5,45.3C42.5,45 42.5,45 42.1,44.8L42.1,44.7L42.2,44.2C42.2,44.1 42.2,44 42,43.9L41.9,43.7L41.9,43.5C42.3,43.5 42.4,43.1 42.7,42.9C42.7,42.5 43,42.2 43.1,41.9L43.1,41.7C43.1,41.5 43.1,41.5 42.9,41.5C42.6,41.7 42.6,41.7 42.4,41.4C42.4,41.3 42.4,41.2 42.2,41.2L42.1,41.1L42.3,41C42.5,41 42.7,41 42.7,40.7L42.8,40.6L43.3,41.3L43.3,42.1L43.4,42.1ZM43.1,47.3L43.1,47.8L42.9,47.7L42.9,47.1L43,47L43.1,47L43.1,47.3M41,44.7L41.1,44.4L41.6,44.4L41.7,44.5L41.7,44.6L40.9,44.6L41,44.7ZM49.8,42.3C49.7,42.7 49.6,42.8 49.3,42.8L49.3,42.7C49.3,42.4 49.6,42.3 49.8,42.4L49.8,42.3ZM39.8,45.6C39.8,45.4 39.8,45.4 40,45.3C40,45.5 40,45.5 39.8,45.5L39.8,45.6ZM40,45.3L40.1,45.2L40,45.3ZM40.9,44.6L40.9,44.8L40.7,44.8L40.9,44.7L40.9,44.6ZM44.7,38.6L44.5,38.6L44.5,38.5L44.7,38.5M61.6,77L60.2,77L60.2,76.6L61.8,76.6C62.1,76.6 62.2,76.6 62.4,76.4L62.9,76.2L63.3,76.4C63.4,76.4 63.4,76.5 63.3,76.6L62.9,76.8L61.6,76.8L61.6,77ZM67.8,76.5L68,76.5C68.6,76.5 68.6,76.5 69,76.7C69.2,76.7 69.2,76.8 69.2,76.9L69,76.9L68.2,76.8L67.2,76.8L67.1,76.6L67.8,76.6L67.8,76.5ZM65.3,77L65.1,76.9L65.1,76.5C65.3,76.5 65.4,76.5 65.5,76.7L65.6,76.9L65.4,76.9M4.5,42.1C4.5,42.4 4.3,42.5 4.1,42.6L3.5,42.6L2.9,43.1C2.7,43.1 2.6,43.3 2.4,43.5C2.4,43.4 2.3,43.2 2.4,43.1L2.9,42.5L3.3,42.3L3.6,42.3L4,42L4.6,42L4.5,42.1ZM7,49.9L6.9,49.9C6.6,49.9 6.5,49.7 6.2,49.6C6,49.6 5.8,49.3 5.7,49.1L5.7,48.8L6,48.8L6.7,49.4C6.9,49.4 6.9,49.7 6.9,49.9L7,49.9ZM3.6,40.6L3.6,40L3.8,39.7L4.1,39.5L4.3,39.6L4.3,39.8C3.9,40.1 3.8,40.5 3.8,40.9L3.8,41L3.7,41L3.7,40.5L3.6,40.6ZM7,57.5L5.6,57.5L5.5,57.3L7,57.3L7,57.5ZM11.9,54.7C11.9,54.8 11.9,54.9 11.7,54.9L10.7,54.9L10.7,54.7L12,54.7L11.9,54.7ZM10.1,42.4C10.1,42.2 10.1,42 10.3,41.9C10.4,41.7 10.6,41.6 10.8,41.7C10.8,41.7 10.8,41.9 10.6,41.9C10.5,42.1 10.4,42.3 10.1,42.3L10.1,42.4ZM4.3,45.7L4.2,45.7C4,45.7 3.9,45.9 3.7,46L3.5,46L3.5,45.8C3.7,45.6 3.9,45.5 4.2,45.6M2,46L1.3,46L1.3,45.8L2,45.8L2.2,45.9L2,46ZM2.8,46L2.6,46C2.6,45.9 2.6,45.8 2.8,45.8L3,45.8L3,46L2.8,46M6,41.6L5.8,41.6L5.8,41.5L6.3,41.5L6,41.6M7.9,44.2C7.9,44.3 7.8,44.4 7.6,44.4C7.5,44.3 7.6,44.2 7.6,44.2L7.9,44.2ZM8.1,44C8.1,43.8 8.2,43.7 8.4,43.7L8.6,43.7C8.6,43.9 8.4,43.9 8.3,43.9L8,43.9L8.1,44ZM0.5,46.3L0.8,46L1,46L1,46.2L0.4,46.2L0.5,46.3ZM5.3,41.7L5.3,41.9L5.1,41.8L5.1,41.7L5.3,41.7M1,40.7C0.8,40.7 0.7,40.7 0.8,40.5L0.8,40.3C0.8,40.3 1,40.4 1,40.6L1,40.8L1,40.7ZM7,50L7.3,50C7.3,50 7.4,50 7.3,50L7.3,50.1C7.1,50.1 7,50.1 7,49.9L7,50ZM12,54.7C12,54.6 12,54.5 12.2,54.5L12.4,54.5L12.1,54.7L11.9,54.7L12,54.7ZM7.9,48.5C7.9,48.4 8,48.3 8.2,48.3C8.3,48.4 8.2,48.5 8.2,48.5L7.9,48.5ZM7.9,44.2C7.9,44 7.9,44 8.1,44C8.1,44.1 8.1,44.2 7.9,44.2ZM8.6,43.7L8.6,43.6L8.7,43.6L8.5,43.7L8.6,43.7ZM2.3,43.5L2.2,43.7L2.2,43.6L2.3,43.5ZM9.4,43C9.4,43.2 9.4,43.3 9.3,43.2L9.5,43M9.5,43C9.5,42.9 9.5,42.8 9.7,42.8C9.7,43 9.7,43 9.4,43L9.5,43ZM9.7,42.8C9.7,42.6 9.7,42.6 9.9,42.6C9.9,42.8 9.9,42.8 9.7,42.8ZM9.9,42.6C9.9,42.4 9.9,42.4 10.1,42.4L9.9,42.6Z" style="fill:rgb(108,26,47);"/>
            <path d="M4.6,42.1L4.6,42L4.7,42L4.5,42.1L4.6,42.1ZM1,40.8C1.1,40.8 1.2,40.8 1.1,40.9L1,40.7L1,40.8ZM7.7,48.8L7.5,48.9L7.7,48.8ZM7.7,48.8C7.7,48.6 7.7,48.6 7.9,48.5C7.9,48.7 7.8,48.7 7.7,48.8ZM5.4,48.5C5.6,48.5 5.6,48.6 5.7,48.8C5.5,48.8 5.5,48.8 5.4,48.5ZM12.6,54.3C12.6,54.4 12.5,54.5 12.3,54.5C12.3,54.3 12.4,54.3 12.6,54.3ZM5.4,48.5C5.3,48.5 5.2,48.5 5.3,48.4L5.4,48.5ZM71.8,37.6L72.7,37.6L72.7,37.8L71,37.8L70.8,37.6L71.8,37.6M67,37.6L67.4,37.6C67.1,37.8 66.8,37.7 66.5,37.7C66.4,37.7 66.5,37.6 66.5,37.6L67,37.6M75.1,37.6L75.4,37.6C75.4,37.8 75.2,37.8 75.1,37.6M69,37.7L68.9,37.7L68.9,37.6M62.8,7.7L62.7,8.2L62.3,9L62.1,9.1L62.1,8.7L62.3,8.2C62.3,8 62.5,7.9 62.7,7.8L62.8,7.7ZM58.6,4.7C58.2,4.8 58.1,4.7 58.1,4.4L58.1,4.2L58.3,4.2L58.7,4.7M62.3,15.8C62.1,15.7 61.9,15.5 61.9,15.3L61.9,15C62.1,15 62.1,15.2 62.2,15.3L62.3,15.7L62.3,15.8ZM62.3,15.8C62.5,15.8 62.6,16 62.7,16.1L62.7,16.5C62.5,16.3 62.3,16.1 62.3,15.8ZM61.9,9.3L61.9,9.9L61.6,10L61.6,9.5L61.9,9.4L61.9,9.3ZM63,16.7C63,16.7 63.2,16.7 63.2,16.9L63.2,17.2L63,16.9L63,16.7ZM63.6,17.6C63.8,17.6 63.9,17.7 63.9,17.9L63.9,18.1C63.8,18.1 63.7,18.1 63.7,17.9L63.7,17.6L63.6,17.6ZM63,7.5C63,7.7 63,7.7 62.8,7.7L63,7.5ZM61.9,9.4C61.9,9.2 61.9,9.2 62.1,9.1C62.1,9.3 62.1,9.3 61.9,9.3L61.9,9.4ZM61.6,10C61.6,10.2 61.6,10.3 61.5,10.2C61.5,10.1 61.5,10 61.7,10L61.6,10ZM61.2,10.7C61.2,10.5 61.2,10.5 61.4,10.6L61.2,10.7ZM60.5,12.8L60.7,12.8L60.7,13L60.5,12.8ZM61.4,14.6L61.3,14.6L61.3,14.5L61.4,14.6ZM61.7,14.8C61.5,14.8 61.4,14.8 61.4,14.6C61.6,14.6 61.6,14.6 61.6,14.9L61.7,14.8Z" style="fill:rgb(108,26,47);"/>
            <path d="M61.6,14.9C61.8,14.9 61.9,14.9 61.9,15.1C61.7,15.1 61.7,15 61.7,14.8L61.6,14.9ZM62.8,16.5L63,16.7C62.8,16.7 62.8,16.6 62.8,16.4L62.8,16.5ZM63.4,17.4C63.6,17.4 63.6,17.4 63.6,17.6L63.4,17.4ZM63.4,17.4C63.3,17.4 63.2,17.3 63.2,17.1C63.4,17.1 63.4,17.2 63.4,17.4ZM3.1,65L3,64.8L3,64.7L3.2,64.7C3.416,64.861 3.498,65.149 3.4,65.4C3.3,65.6 3,65.9 2.7,65.9C2.6,65.9 2.6,65.9 2.7,65.7L3.1,65.2L3.1,65M2.2,61.6L2.5,61.7L2.5,62L2.1,61.7L2.2,61.6M22.9,77L21.7,77L21.6,76.9L21.6,76.7C21.9,76.7 22.1,76.7 22.3,76.5L22.6,76.5C22.6,76.6 22.7,76.7 22.9,76.7L24,76.7L24,76.9L22.8,76.9M25.3,77L24.8,77L24.5,76.7L24.5,76.6L25.5,76.5L25.9,76.8L25.9,76.9L25.3,76.9M20.4,68L20.4,68.7L20.3,68.9L20.2,68.8L20.2,66.9L20.3,67L20.4,68M20,66.2C20.2,66.3 20.2,66.4 20.1,66.5L20.1,66.6C20,66.6 19.9,66.5 20,66.3M20,65.8L20.1,65.8C20.1,66 20.1,66 20,65.8M3.2,31.6C3,31.6 2.7,31.6 2.5,31.4L1.3,31.4L1.3,31.2L1.5,31.2C2.3,31.1 2.1,31.2 2.7,30.6L3.2,30.4C3.2,30.6 3,30.7 2.9,30.9C2.8,31 2.8,31 2.9,31.1C2.9,31.3 3.2,31.4 3.2,31.6ZM6,29.3C6,29.7 5.8,29.8 5.4,29.7L5.3,29.7L5.3,29.6C5.6,29.6 5.7,29.3 6,29.3L6.1,29.3L6,29.3ZM9.2,31.7L9.2,31.3C9.2,31.2 9.3,31.2 9.4,31.3L9.4,32.2L9.3,32.2L9.3,31.7M15.6,30.5C15.6,30.7 15.6,30.7 15.4,30.8L15.3,30.7C15.3,30.5 15.4,30.4 15.6,30.4L15.6,30.5M6.8,29L7,29L7,29.4C6.8,29.4 6.8,29.4 6.7,29.1L6.8,29ZM2.4,34.5L2.4,34.4L2.5,34.4L2.5,34.5M9.2,32.6C9,32.6 9,32.6 9.2,32.6M3.2,31.6L3.4,31.7L3.3,31.7C3.3,31.7 3.2,31.7 3.3,31.6L3.2,31.6ZM3.2,30.4L3.2,30.3L3.4,30.3L3.2,30.4ZM31.5,44.3C31.5,44.8 31.5,45 31.3,45.3L31.2,45.6L31,45.9L30.6,45.8L30.3,45.5L30.3,45.2C30.5,44.7 30.6,44.5 31.2,44L31.4,44L31.5,44.2L31.5,44.3M30.4,39.5C30.6,39.5 30.6,39.5 30.7,39.7C30.7,39.9 30.5,40.2 30.3,40.3C30.2,40.3 30,40.3 30,40.1C29.9,39.9 30,39.7 30.2,39.6L30.4,39.5M31.5,41L31.5,40.8C31.5,40.6 31.6,40.6 31.7,40.5C32,40.5 32.3,40.6 32.4,40.9L32.4,41.2C32.1,40.9 31.8,41 31.5,41ZM29.3,40.3L29.3,40.6L29.1,40.7L28.9,40.7L28.9,40.2L29,40.1L29.3,40.1L29.3,40.3M32.4,41.2L32.6,41.3L32.6,42.2L32.4,42.2L32.4,41.2ZM31.6,43L31.6,42.7L31.9,43.3L31.9,43.5L31.6,43.4L31.6,42.9M31.5,41L31.5,41.8L31.3,41.8L31.3,41.2L31.5,41ZM46.7,57C46.6,57 46.5,57 46.5,56.8L46.5,56.5L46.7,56.8L46.7,57M46.5,56.6C46.4,56.6 46.3,56.6 46.3,56.4L46.3,56C46.3,56 46.5,56.1 46.5,56.3L46.5,56.5M32,49.7L31.7,49.7C31.7,49.5 31.9,49.5 32,49.4L32,49.7M31.8,50L31.5,50C31.5,49.8 31.6,49.7 31.8,49.7L31.8,49.9M43.4,76.7L39.8,76.7C39.7,76.7 39.6,76.7 39.6,76.4L39.6,76.2L39.7,76.1C39.7,76.4 39.9,76.5 40.1,76.5L43.6,76.5L43.8,76.6L43.7,76.6L43.4,76.7ZM47.4,76.5L47.7,76.5L47.7,76.6L47.1,76.7L47,76.7L47,76.5L47.4,76.5M50.7,76.8C50.6,77 50.5,76.9 50.4,76.9C50.3,76.9 50.3,76.9 50.4,76.8L50.7,76.8M15.5,12.5C15.5,12.8 15.3,12.8 15.1,13C14.7,13 14.3,13.3 13.9,13.5C13.9,13.5 13.7,13.5 13.7,13.3L13.7,13.2C13.8,13 13.9,12.8 14.2,12.8L14.4,12.8C14.671,12.556 15.056,12.479 15.4,12.6L15.5,12.5ZM15.5,12.6L15.5,12.4L15.6,12.4L15.5,12.5L15.5,12.6ZM18.6,15.4C18.6,15.4 18.5,15.5 18.5,15.4C18.4,15.4 18.4,15.4 18.5,15.4M16.1,62.7L16.1,63.3L15.9,63.3L15.9,62.9L16.2,62.8L16.1,62.7ZM16.4,62.3L16.4,62.5C16.4,62.6 16.3,62.7 16.1,62.7L16.1,62.5C16.1,62.3 16.3,62.3 16.4,62.3ZM15.7,64.3L15.7,64.7L15.5,64.7C15.5,64.5 15.5,64.4 15.7,64.4L15.7,64.3ZM16.4,62.3C16.4,62.1 16.4,62 16.5,62.1L16.5,62.2C16.5,62.2 16.5,62.3 16.4,62.2L16.4,62.3ZM16,63.7L16,63.9L16,63.7M15.7,64.4C15.7,64.2 15.7,64.1 15.8,64.2L15.7,64.3L15.7,64.4ZM33.8,32.7L33.9,32.4C33.9,32.4 34,32.4 33.9,32.2C33.896,31.936 33.788,31.685 33.6,31.5L33.4,31.4L33.2,31.4L33.2,31.5L33.3,32.1C33.3,32.2 33.1,32.2 33.1,32.1L32.9,31.7C32.816,31.474 32.816,31.226 32.9,31L33.1,30.8L33.6,30.5L34.1,30.3L34.4,30.3L35,30.9L35,31.2L34.9,31.5C34.9,31.6 34.9,31.8 35.1,31.8L35.4,31.8L35.5,32.1C35.4,32.4 35.2,32.6 34.9,32.5C34.5,32.8 34.1,32.8 33.8,32.7ZM36.2,33.3L36.2,33.6L36.1,33.8C35.9,33.8 35.8,34 35.6,34.1C35.4,34.4 35.1,34.4 34.8,34.3L34.8,34C35.1,33.7 35.4,33.2 35.8,33L36,32.9L36.2,33.1C36.2,33.1 36.2,33.2 36.2,33.1M32.6,27.9L33,27.9L33,28.3L32.9,28.8L32.7,28.7L32.7,27.9M36.9,35.5L35.9,35.5L36.2,35.3L36.7,35.3C36.8,35.3 36.9,35.3 36.9,35.5M32.6,33.9L32.8,33.9L32.8,34C32.7,34 32.6,34 32.7,33.9L32.6,33.9ZM32.7,33.9C32.5,33.9 32.5,33.9 32.4,33.6C32.6,33.6 32.6,33.6 32.6,33.9L32.7,33.9ZM32.4,33.6C32.3,33.6 32.2,33.6 32.3,33.5L32.4,33.6ZM32.9,33.2L33,33.2L33,33.4L32.9,33.2ZM32.9,33.2C32.7,33.2 32.7,33.1 32.7,33L32.9,33.2ZM33.5,32.7L33.8,32.7L33.7,32.9L33.6,32.7L33.5,32.7ZM33.6,32.7L33.4,32.7L33.4,32.6L33.5,32.7L33.6,32.7ZM33.3,57.1L33,57.1L33,56.9L33.2,56.9L33.2,57.1M28.4,56.8L28.4,56.6C28.4,56.4 28.5,56.4 28.6,56.3L28.6,56.5C28.6,56.7 28.6,56.8 28.4,56.8M33.5,56.4L33.5,56.5L33.3,56.4L33.4,56.2L33.5,56.4M29.3,55.4L29.3,55.2C29.3,55.1 29.3,55 29.5,54.9L29.5,55.1C29.5,55.3 29.5,55.4 29.3,55.4M33.7,55.2L33.7,55.5C33.7,55.5 33.7,55.6 33.7,55.5C33.6,55.5 33.5,55.5 33.6,55.4L33.6,55.2M28.8,56.1L28.8,56C28.8,55.8 28.9,55.8 29.1,55.7L29.1,55.9C29.1,56.1 29,56.2 28.8,56.2" style="fill:rgb(108,26,47);"/>
            <path d="M28.6,56.3C28.6,56.2 28.7,56.1 28.9,56.1C28.9,56.2 28.8,56.3 28.6,56.3M24.4,56.3L24.6,56.1C24.6,56.2 24.6,56.3 24.4,56.3M21.7,54.7C21.7,54.7 21.7,54.5 21.9,54.6L21.7,54.7ZM21.7,54.7L21.7,54.9L21.6,54.9L21.7,54.7ZM20.8,55.4L20.9,55.3C21,55.4 20.9,55.3 20.9,55.4L20.8,55.4ZM25.3,55.4C25.3,55.3 25.3,55.2 25.5,55.2C25.5,55.3 25.5,55.4 25.3,55.4M25,55.6L25.3,55.4L25.1,55.6M29,55.7C29,55.5 29.2,55.4 29.3,55.4C29.3,55.5 29.3,55.6 29.1,55.7M24.8,55.9C24.8,55.7 24.9,55.7 25.1,55.6C25.1,55.8 25,55.9 24.8,55.9M24.6,56.1C24.6,56 24.7,55.9 24.9,55.9C24.9,56 24.8,56.1 24.6,56.1M42.3,22.2L42.3,21.4C42.3,21.4 42.3,21.3 42.3,21.4L42.5,21.4L42.5,22.5L42.3,22.6L42.3,22.2M39.6,22.6L39.6,22.9C39.6,23 39.5,23.1 39.4,23C39.4,22.8 39.4,22.7 39.6,22.7L39.6,22.6ZM35.8,63.7L35.4,63.6C35.3,63.5 35.1,63.4 35.1,63.2L35.5,63.2C35.6,63.4 35.8,63.5 35.8,63.7ZM33.3,61.8L33.5,62L33.4,62L33.4,61.8L33.3,61.8ZM34.4,62.7C34.3,62.7 34.2,62.7 34.3,62.6L34.4,62.8L34.4,62.7ZM34.4,62.8L34.6,62.8L34.6,62.9L34.4,62.7L34.4,62.8ZM35.1,63.2C34.9,63.2 34.9,63.1 34.9,63L35,63C35,63 35.1,63.1 35,63.2L35.1,63.2ZM23.7,23.6L24.1,23.5L24.4,23.4L25.7,23.4L26,23.2L26.2,23.2L26.4,23.8L24,23.8L23.8,23.6L23.7,23.6ZM23.3,23L23,23L22,22L22,21.9C22,21.8 22.1,21.8 22.2,21.9L23.4,23.1M25.5,22.2C25.7,22.2 25.7,22.2 25.7,22.5L25.7,22.7L25.5,22.4L25.5,22.2ZM25,21.5L24.9,21.2L24.9,21L25,21.2L25,21.5ZM24.9,21C24.7,21 24.6,21 24.6,20.8L24.6,20.6C24.8,20.6 24.8,20.6 24.8,20.8L24.8,21L24.9,21ZM23.7,23.6C23.6,23.5 23.5,23.5 23.6,23.4L23.7,23.6ZM25.7,22.7L25.9,22.7L25.9,22.8L25.7,22.6L25.7,22.7ZM25.5,22.2L25.4,22.1C25.5,22 25.4,22.1 25.5,22.2ZM25,21.5L25.2,21.5L25.2,21.7L25.1,21.5L25,21.5ZM21.3,21C21.4,21 21.5,21.1 21.4,21.2L21.3,21ZM21.3,21C21.1,21 21.1,21 21.1,20.8L21.3,21ZM20.8,20.6C21,20.6 21,20.6 21,20.8L20.8,20.6ZM51.6,19C51.6,19 51.6,19.2 51.5,19.1L51.6,19ZM51.6,19C51.6,18.8 51.6,18.8 51.8,18.7C51.8,18.9 51.8,18.9 51.6,19ZM21.3,34.1L22.3,34.1L22.3,34.3L22.4,34.3L21.4,34.3L21.3,34.1ZM21.3,34L20.5,34L20.5,33.9L21.1,33.9C21.1,33.9 21.3,33.9 21.3,34.1L21.3,34ZM20.6,29.8L20.9,29.8C21,29.8 20.9,29.9 20.9,29.9C20.7,29.9 20.7,29.9 20.6,29.7L20.6,29.8ZM20.6,29.7L20.3,29.7C20.3,29.7 20.2,29.7 20.3,29.6C20.5,29.6 20.5,29.6 20.6,29.8L20.6,29.7ZM21.4,30C21.4,30.2 21.4,30.2 21.4,30M28.9,20.4C29.2,20.5 29.3,20.7 29.3,21C29,21 28.9,20.8 28.9,20.6L28.9,20.4ZM30.2,22.7L30.4,22.7L30.4,22.8L30.2,22.6L30.2,22.7ZM30.2,22.6L30,22.6L30,22.5C30.2,22.5 30.2,22.5 30.2,22.7L30.2,22.6ZM29.9,22C29.9,22.2 29.9,22.2 29.8,22M29.3,21L29.5,21.1L29.5,21.2C29.3,21.2 29.3,21.2 29.3,21ZM40.3,64.1C40.5,64.1 40.7,64.2 40.8,64.4L40.8,64.7L40.6,65L40.4,65C40.196,64.873 39.996,64.739 39.8,64.6C39.8,64.3 39.8,64.1 40.2,64.1M33.5,21.8C33.4,21.9 33.4,21.8 33.3,21.8L33.4,21.6L33.5,21.6L33.5,21.8M33.3,20.8L33.3,21L33.1,20.8L33.2,20.6L33.2,20.8M20.2,46.3C20.2,46 20.2,46 20.4,46L20.5,46L20.5,46.2L20,46.2L20.2,46.3ZM21.3,45.8C21.2,46 21.1,46 21,46L20.9,46L20.9,45.8L21.3,45.8ZM21.3,45.8C21.3,45.6 21.3,45.6 21.5,45.6C21.6,45.6 21.7,45.6 21.6,45.7L21.3,45.7L21.3,45.8ZM56,42.6L57.1,42.6L57.1,42.8L56.3,42.8L56.1,42.6L56,42.6ZM56.1,42.6L55.3,42.6L55.3,42.4L55.9,42.4C55.9,42.4 56.1,42.4 56.1,42.6ZM54.3,50.2L54.6,50.2L54.7,50.4L54.6,50.4C54.4,50.4 54.3,50.3 54.3,50.1L54.3,50.2ZM55.2,50.6L55,50.6C54.8,50.6 54.8,50.6 54.7,50.4L54.9,50.4C55.1,50.4 55.2,50.4 55.2,50.6ZM55.4,50.8L55.6,50.8C55.7,50.8 55.8,50.9 55.8,51.1L55.7,51.1C55.5,51.1 55.4,51 55.4,50.8ZM54.3,50.1L54.1,50L54.2,50L54.2,50.2L54.3,50.2L54.3,50.1ZM55.2,50.6C55.4,50.6 55.4,50.6 55.4,50.8C55.3,50.8 55.2,50.8 55.2,50.6ZM55.8,51L56,51.2L55.9,51L55.8,51ZM46.3,21L46.3,20.7L46.4,20.7C46.4,20.9 46.4,20.9 46.2,21L46.3,21ZM47,19.4L47,19.2C47,19.1 47,19 47.2,19L47.2,19.2C47.2,19.3 47.1,19.4 46.9,19.4M46.2,21L46.2,21.2L46,21.2C46,21.1 46,21 46.2,21ZM21.7,26.3L21.3,26.3L20.6,25.7L21.1,25.7L21.6,26.1L21.7,26.3M22.4,26.3C22.4,26.5 22.4,26.5 22.6,26.5L22.6,26.7C22.8,26.8 22.8,26.9 22.8,27C22.7,27 22.5,27 22.4,26.8C22.2,26.7 22.1,26.5 21.8,26.5L21.8,26.3L22.4,26.3M20.6,25.6C20.3,25.6 20.1,25.6 19.9,25.3L19.9,25C20.2,25 20.4,25.2 20.6,25.4L20.6,25.5M49,26.8L48.8,26.9L48.9,26.8L49,26.8ZM49.1,26.5C49.1,26.7 49.1,26.7 48.9,26.8C48.9,26.6 49,26.6 49.2,26.6L49.1,26.5ZM49.4,26.3C49.4,26.4 49.3,26.5 49.1,26.5L49.4,26.3ZM54,53.8C54.2,53.8 54.2,53.8 54.3,54C54.1,54 54.1,54 54.1,53.8L54,53.8ZM54.5,54.3C54.4,54.3 54.3,54.2 54.3,54C54.5,54 54.5,54 54.5,54.3ZM54.5,54.3L54.7,54.4L54.6,54.4L54.6,54.3L54.5,54.3ZM55,21.5L54.7,21.7L54.5,21.7C54.5,21.6 54.6,21.5 54.8,21.5L55,21.5M53.2,23C53.2,23.2 53.1,23.3 52.9,23.3C52.9,23.2 53,23.1 53.2,23.1" style="fill:rgb(108,26,47);"/>
            <path d="M53.4,22.9L53.2,23.1C53.2,23 53.2,22.9 53.4,22.9M53.6,22.6C53.6,22.8 53.6,22.9 53.4,22.9C53.4,22.7 53.4,22.7 53.6,22.6" style="fill:rgb(108,26,47);"/>
            <path d="M53.8,22.4C53.8,22.6 53.8,22.6 53.6,22.7C53.6,22.5 53.7,22.4 53.8,22.4M54,22.2C54,22.3 54,22.4 53.8,22.4C53.8,22.3 53.9,22.2 54.1,22.2M54.3,22L54.1,22.2C54.1,22.1 54.1,22 54.3,22M54.5,21.7C54.5,21.9 54.5,21.9 54.3,22C54.3,21.8 54.3,21.7 54.5,21.7M55.2,21.3L55,21.5C55,21.4 55,21.3 55.2,21.3M55.4,21C55.4,21.2 55.4,21.2 55.2,21.3C55.2,21.1 55.2,21.1 55.4,21M55.6,20.8C55.6,20.9 55.6,21 55.4,21L55.6,20.8M55.9,20.6C55.9,20.7 55.8,20.8 55.6,20.8C55.6,20.7 55.7,20.6 55.9,20.6M19,41L19,41.1L18.9,41.1L19.1,41L19,41ZM20.6,40C20.6,40.2 20.6,40.3 20.4,40.3C20.4,40.1 20.4,40.1 20.6,40.1M45.3,56.1L45.3,56.2C45.3,56.3 45.3,56.3 45.2,56.2M56.8,36.8C56.6,36.8 56.5,36.8 56.6,36.7L56.7,36.9L56.8,36.8ZM54.7,31.1C54.8,30.9 54.9,30.9 55,30.9L55.1,30.9L55.1,31.1L54.7,31.1ZM56,30.4L56,30.7L55.6,30.7C55.6,30.5 55.7,30.4 55.9,30.4L56.1,30.4L56,30.4ZM55.6,30.7L55.6,30.8L55.5,30.8L55.6,30.7ZM37.1,26L37.1,26.2L37,26.2L37.1,26.1L37.1,26ZM62.3,30.3L62.5,30.5L62.5,30.8L62.3,30.8L62.1,30.4L62.3,30.3M16.6,41.2C16.6,41.3 16.6,41.4 16.4,41.4L16.2,41.4L16.2,41.2L16.4,41.1L16.5,41.1L16.5,41.2M16.6,42.1L16.5,42.3L16.6,42.1ZM54.3,27C54.3,26.7 54.5,26.6 54.8,26.5L55,26.5C54.9,26.9 54.6,27 54.3,27M53.6,27.5C53.7,27.1 54,27 54.3,27C54.2,27.3 53.9,27.5 53.6,27.5M55,26.5C55,26.4 55,26.3 55.2,26.3C55.2,26.5 55.1,26.5 54.9,26.5M42,57.5C42,57.5 41.8,57.5 41.8,57.3L41.8,57C41.8,57 42,57 42,57.2L42,57.5M30.2,58.8C30.3,58.8 30.4,58.9 30.4,59.1C30.3,59.1 30.2,59 30.2,58.8" style="fill:rgb(108,26,47);"/>
        </g>
    </g>
</svg>
