<?xml version="1.0" encoding="UTF-8" standalone="no"?>
<!DOCTYPE svg PUBLIC "-//W3C//DTD SVG 1.1//EN" "http://www.w3.org/Graphics/SVG/1.1/DTD/svg11.dtd">
<svg width="100%" height="100%" viewBox="0 0 52 35" version="1.1" xmlns="http://www.w3.org/2000/svg" xmlns:xlink="http://www.w3.org/1999/xlink" xml:space="preserve" xmlns:serif="http://www.serif.com/" style="fill-rule:evenodd;clip-rule:evenodd;stroke-linejoin:round;stroke-miterlimit:2;">
    <g transform="matrix(0.0669271,0,0,0.0669271,1.94356e-05,2.43e-05)">
        <g>
            <g transform="matrix(15.0132,0,0,7.46116,-562.665,-299.842)">
                <rect x="37.478" y="40.187" width="51.155" height="68.622" style="fill:white;"/>
            </g>
            <path d="M0,512L0,0L768,0L768,512L0,512ZM144.1,506.4C144.7,505.6 146.6,505 148.2,505C149.8,505 152.7,504.3 154.7,503.5C156.6,502.7 159.9,502 161.9,502C163.9,502 166.6,501.2 167.9,500.3C169.5,499.2 173.1,498.5 178.4,498.2C187,497.7 189,496.9 189,493.9C189,492.4 189.8,492 192.9,492C195.2,492 197.5,492.7 198.5,493.6C199.4,494.5 201.6,495.6 203.3,496C206.1,496.7 205.8,496.8 201,496.9C197.9,497 193.6,497.9 191.1,499C188.7,500.1 185.8,501 184.5,501C182.1,501 178.5,505.4 179.5,507C179.9,507.6 191.2,508 208.4,508C231.2,508 237,507.7 238.6,506.6C240.1,505.4 240.6,503.4 241.2,495.8C242.2,481.3 242.1,439 241.1,439C240.6,439 239.9,437.7 239.5,436C239,433.8 239.4,432.2 240.9,430.1C244,425.8 243.5,422.8 239,417.4C236.8,414.7 235,412.2 235,411.8C235,411.5 233.5,410.2 231.7,409.1C226.6,406 224.6,400.6 225.2,391.8C225.5,387.8 226.3,384.4 226.9,384.2C228.5,383.7 228.2,371 226.5,368C225.5,366.2 225.1,362 225,353.3L225,341L228.8,339.1C233.3,336.8 238.4,327.5 240.1,318.5C241.8,309.5 240.9,293.3 238.5,289.3C236.9,286.5 236.8,285.7 237.9,282.3C238.8,279.5 238.9,277.8 238.1,275.7C237.5,274.1 237,271.5 237,269.9C237,267.9 236,265.9 234.2,264.1C231.5,261.4 231,261.3 218.5,260.8C207.3,260.3 204.6,260.5 199,262.2C192.9,264.1 191.7,265 178.6,278.1C171,285.8 164.6,292 164.4,292C163.7,292 164,277.3 164.7,276.6C165.1,276.2 166.2,276.9 167.1,278.1L168.8,280.3L169.5,277.9C169.9,276.6 173.8,269.1 178.1,261.4C182.4,253.6 186.8,245 187.9,242.4C191.4,233.4 200.7,214.3 201.9,213.6C202.5,213.2 203,210.1 203,206.4C203,200.3 202.9,200 201.1,201C199.1,202 182.4,234.9 175.5,251.2C173.4,256 171.1,260.5 170.4,261.1C169.6,261.7 169,263.5 169,265.1C169,266.6 168.6,268.2 168,268.5C167.4,268.9 167,267.7 167,265.7C167,261.9 165.8,261 161,261C159.5,261 157.7,260.3 157,259.5C156,258.3 152.4,258 136.9,258L118,258L118,262.3C118,264.8 117.2,267.9 115.9,270C114.1,272.9 113.8,274.6 114.2,281.2C114.5,286.4 115.2,289.6 116.3,290.7C117.3,291.9 118,295.2 118.4,300C118.6,304.1 119.2,309.3 119.5,311.5C120.2,315.5 120.1,315.5 115.3,317.9C109.2,320.9 103.7,322.1 93,322.7C82.3,323.2 80.9,322.3 74.3,310.4C71.3,305 67.4,299.8 63.7,296.3L57.8,290.6L57.9,280.1C58.1,271.8 58.5,269.4 59.7,268.5C62.9,266.1 60,265 51,265C46.1,265 41.8,265.5 41.5,266C41.1,266.6 34.2,267 24,267C3.6,267 4.6,266.1 5.4,281.8C6.1,294.9 6.1,294.6 5.4,315.8C5,328.5 5.2,333 6,333C8.3,333 13.1,328.8 14.4,325.6C15.1,323.9 17.6,320.3 19.9,317.7C23.1,313.9 24,312.1 24,309.2C24,307.2 24.4,304.9 24.9,304.2C27.1,300.7 35.1,298.3 47.7,297.3C54.7,296.8 55,296.9 59,300.1C67.4,306.9 75,314.9 75,316.9C75,318 75.6,320.4 76.4,322.2C77.1,324 78.3,327.1 78.9,329.1C80.2,333.4 80.4,346.7 79.1,347.5C78.6,347.8 77.9,349.3 77.5,350.9C77.2,352.5 74.9,356.7 72.5,360.2C70,363.6 68,367.1 68,367.8C68,368.4 67.5,369 67,369C66.4,369 63.8,370.9 61.2,373.3C58.6,375.6 54.6,378.8 52.3,380.3C49.9,381.8 48,383.4 48,383.9C48,384.3 44.6,387.6 40.5,391.1C33.1,397.4 32.9,397.5 25.7,398.1C21.8,398.4 17,399 15.2,399.5C12.1,400.2 11.9,400.1 9.7,395.2C8.5,392.3 7.1,390.2 6.5,390.4C5.4,390.7 4.5,501.6 5.5,505.8L6.1,508.1L74.5,508C132.6,507.9 143,507.7 144.1,506.4ZM403.5,506.5C408.6,504.6 411.1,504.6 413.6,506.5C416.2,508.5 468.9,508.7 470.8,506.8C471.5,506.1 475,505.4 478.8,505.3C493.6,504.9 498,503.2 498,497.9C498,496.3 498.9,493.6 500,491.8C501.7,488.9 502,486.7 502,475C502,467.5 502.4,461 503,460.4C504.4,459 504.8,312.7 503.3,310.9C502.5,309.9 502,302.6 501.8,288.5C501.5,269.1 501.3,267.1 499.1,262.7C495.8,255.8 493.7,255.1 476.4,255.7L462.3,256.3L460.4,259.1C458.3,262.3 447.8,269.5 443.9,270.4C442.4,270.7 440,272.7 438.4,274.7C434.8,279.6 423.9,292.1 422,293.7C421.2,294.4 419.8,295 418.9,295C418,295 416.1,296.1 414.7,297.4C411.6,300.3 404.9,301.6 398.2,300.5C395.6,300.2 390.6,299.5 387,299.2C383.4,298.8 379.2,297.7 377.7,296.8C375.9,295.6 373.1,295 368.8,295C364.2,295 361.7,294.5 359.5,293C357.9,291.9 354.8,290.5 352.7,289.9C349.7,289.1 348.5,288.1 347.4,285.5C346.6,283.6 346,280.9 346,279.5C346,277.6 344.6,276 340,272.7C333.6,268.2 333.7,268.6 335.2,260.7C335.4,259.3 334.4,258.5 331.2,257.4C327.7,256.2 322.5,256 303.7,256.4C290.9,256.7 276.3,257.2 271.1,257.7L261.8,258.5L258,262.7C255.8,265.2 253.8,268.9 253.1,271.4C252.5,273.8 250.9,277.2 249.5,278.8C248.2,280.4 246.6,282.9 246,284.4C244.6,288.2 244.7,319.5 246.2,322.3C248.7,327.1 254.6,333.2 260.4,337.1C263.7,339.3 267.1,342.4 267.9,343.8C268.6,345.3 270.1,347.4 271.1,348.5C272,349.6 274.2,353.4 275.9,357C278.5,362.5 279,364.7 279,371.3C279,376.6 278.5,380.1 277.4,382.2C276.1,384.7 275.9,387.2 276.3,393.7L276.8,402.1L273.6,404.5C271.8,405.9 268.4,407.7 265.9,408.5C253.7,412.8 249.1,416.3 249,421.1C249,422.6 248.1,425.8 247,428.4C245.1,432.6 244.9,434.6 245.3,450.2C245.5,461.3 246.1,469 247,471.8C248.3,475.6 248.2,476.4 246.6,479.4C245.1,482.1 244.9,484.5 245.1,491.4C245.6,501.6 246.2,502.5 255.8,505.7C262.5,507.9 262.7,507.9 331,507.9C388.1,507.9 400.2,507.7 403.5,506.5ZM693.5,504.9C702.3,504.4 709.6,503.7 709.9,503.5C710.6,502.7 707,494.5 703.5,489C701.6,486 700,482.8 700,481.8C700,480.9 698.7,477.9 697,475.3C694.6,471.5 694,469.5 694,465C694,457.7 695.5,456.1 711.4,446.2C714.5,444.3 719.9,445.4 725.7,449.1C728.6,451 734.8,455 739.6,458C752.3,466.1 753,467.1 753,478.5C753,485.6 752.6,488 751.4,489C750.4,489.9 750,491.6 750.2,493.9C750.5,497.2 750.8,497.5 753.8,497.8C756.7,498.1 757.2,497.7 758.5,494.6C760.1,490.7 760.5,483.4 759.1,482.6C757.4,481.5 757,469 758.5,464.7C760.2,459.8 760.4,453.7 759,451C758.5,450 758.1,439.8 758.1,426.9C758.2,414.6 758.2,402.5 758.2,400C758.1,397.5 758.1,387.9 758.1,378.5C758.1,364.8 757.8,361.1 756.6,359.5C754.6,356.9 754.6,354.6 756.5,353C757.3,352.3 758,350.6 758,349.1C758,347.6 758.7,345.5 759.5,344.3C760.7,342.5 760.8,339.2 759.9,320.9C759.4,309.1 758.9,297.6 759,295.3C759.2,284.2 759,277.7 758.3,268L757.5,257.5L752.5,255C747.8,252.7 746.2,252.5 729.1,252.2C713.3,251.9 709.9,252.1 705.4,253.6C700.4,255.3 700,255.3 698.2,253.7C696.7,252.3 694.3,252 685.3,252C679.3,252 673,252.4 671.4,253C669.8,253.5 664,254.1 658.5,254.2L648.5,254.5L648.7,262.5C648.9,275.3 650,285.3 651.6,288.7C652.4,290.4 653,293.4 653,295.3C653,298.3 653.8,299.4 659.6,304.3C663.2,307.3 669.7,311.7 674.1,314C680.5,317.5 682.1,318.9 683,321.6C684.1,324.9 687.7,328 690.4,328C691.3,328 692.6,329.3 693.5,331C694.3,332.6 696.4,335.5 698.1,337.5C700.2,339.9 701.3,342.3 701.6,345.2C702.1,349.1 703.3,354.3 706.2,363.8C706.7,365.6 707.4,369.4 707.7,372.4C708.2,377.5 708.1,377.8 704.5,381.5C702.4,383.5 699.3,385.8 697.5,386.6C695.8,387.3 693.8,388.6 693,389.4C692,390.8 688.5,391 670.5,391C645.3,391 640.2,390.2 634.5,385C628.5,379.7 623.1,376.7 618.1,375.9C611.6,374.9 604.7,372.7 603.3,371.3C602.6,370.7 602,368.3 602,366C602,363.8 601.4,360.7 600.6,359.2C599.9,357.7 598.9,353.8 598.5,350.6C598.1,347.4 597.4,343.7 596.8,342.5C596.1,340.9 596.1,339.6 596.9,338.4C597.7,336.9 597.9,336.8 598,338C598,338.9 599.6,343.4 601.5,348C603.4,352.6 605,356.6 605,356.7C605,356.9 605.7,357 606.5,357C607.5,357 608,356 608,354C608,352.4 608.5,351 609,351C609.6,351 610,351.9 610,352.9C610,358.4 612.4,359.4 616.1,355.4C617.4,354 619.8,352.1 621.4,351.3C624.1,349.9 624.4,350 626.9,352.4C630.3,355.6 631.3,355.6 633.4,352.5C635.4,349.5 635.4,344.4 633.5,341C632.7,339.6 632.1,335.8 632,332.4C632,329 631.3,324.4 630.5,322C629.2,318.3 629.2,317.6 630.5,315.7C632.7,312.6 632.4,311.7 628.4,309.7C624.1,307.6 622.3,307.6 615.2,309.6C608.4,311.6 605,314.7 605,319.2C604.9,323.1 602.2,329.9 602.1,326.4C602,325.3 601.3,323.5 600.5,322.4C599,320.4 598.5,317 599.8,317C600.2,317 601.6,314.2 602.9,310.8C605.7,303.3 607.1,302 612.4,302C614.7,302 618.3,301.3 620.5,300.5C622.7,299.7 627.1,299.1 630.2,299C634.9,299 636.2,298.6 637.4,296.8C639.4,294 639.4,290 637.5,287.4C635.4,284.6 635.7,282.2 638.3,281.8C640.1,281.6 640.5,280.8 640.8,277.5C641,274.2 640,271.6 634.6,262C631,255.7 626,246.5 623.4,241.5C620.3,235.5 617.7,231.8 615.6,230.4C612.1,228.2 610,228.3 610,230.7C610,232.6 623.4,258.7 625.8,261.4C628.2,264.1 631.3,271.5 630.8,273C630.6,273.7 628.8,271.6 626.8,268.4C624.8,265.1 621.3,260.7 619,258.5C615.3,254.9 614.3,254.4 607.7,253.7C595.1,252.2 565,251.8 562.1,253C560.5,253.6 550.7,254.2 538.3,254.3C522.6,254.5 516.8,255 515.6,255.9C514.2,257.1 514,263.3 514,313.3C514,365.3 513.9,369.5 512.3,371.3C510.7,373 510.5,375.6 510.6,395.9C510.6,408.3 510.7,419.6 510.7,421C510.8,422.4 510.6,439.4 510.4,458.9L509.9,494.3L513.8,497.9C515.9,499.9 520.3,502.5 523.5,503.7C529.5,505.9 530,505.9 603.5,505.9C645.9,506 684.4,505.5 693.5,504.9ZM732.8,491.3C735.4,489.2 737.6,487.5 737.7,487.5C737.9,487.4 738.3,485.3 738.6,482.9C739,479.7 738.8,477.9 737.9,476.9C737.1,476.1 735.5,473.4 734.2,470.8C732.4,467.4 730.6,465.5 726.9,463.5C724.1,462 722.1,460.3 722.3,459.7C722.6,459 723.4,458.7 724.1,458.9C724.9,459.1 726.3,459.5 727.3,459.7C728.5,460.1 729,459.7 729,458.4C729,455.2 727.7,454.3 723,453.7C720.5,453.4 717.1,452.8 715.3,452.5C712.9,451.9 711.3,452.4 708.4,454.4C706.3,455.8 703.8,457 702.9,457C702,457 700.1,457.9 698.6,459.1C694.4,462.4 695,467.2 700.3,472.3C704.1,476.1 705.2,478.2 707.6,486.8C707.8,487.5 708.8,488.3 709.7,488.7C710.7,489.1 713.1,490.6 715,492.2C717.7,494.4 719.5,495 723.3,495C727.4,495 728.9,494.4 732.8,491.3ZM256.3,403.9C262.2,399.6 263.1,398.5 262.5,396.7C260.8,391.5 260.8,381.3 262.4,378.2C264.6,374 264.7,349.3 262.6,345.2C261.8,343.7 258.6,341 255.5,339.1L249.9,335.7L247.7,337.9C245.8,339.8 245.4,341.5 245,350.8C244.4,363.3 243.5,361 242.4,344.3L241.7,333.2L238.5,335.1C233.6,338.1 233,340.4 233,358.8C232.9,368 232.4,377.5 231.9,380C231.3,382.5 230.6,386 230.3,387.8C230,389.6 229.4,391.3 228.9,391.6C227.2,392.6 228.1,394.7 232.3,399.2C236,403.2 245.5,408.9 248.5,408.9C249.1,409 252.6,406.7 256.3,403.9ZM18.4,388.1C18.7,387.7 20.3,387 22,386.6C23.7,386.3 26.2,384.7 27.6,383C31,379 38.8,375.2 42.5,375.7C45.2,376.1 45.8,375.6 48.5,371C54.1,361.5 55,359.5 55,356.9C55,355.4 55.7,353.7 56.6,352.9C59.1,350.9 63,342.4 63,339C63,337.3 62.3,334.3 61.5,332.3C59.6,327.8 59.6,323.6 61.5,321.6C64.8,318.4 62,307.1 56.8,302.2C54.4,300 54,299.9 47.6,301C43.8,301.7 39.9,303.1 38.3,304.4C36.8,305.5 33.8,307.4 31.6,308.5C29.3,309.6 27.3,311.3 27.2,312.4C27,313.4 24.4,317.8 21.4,322.2L16,330.2L16,346.4C16,355.3 15.6,363 15.1,363.5C14.6,364.1 13.5,367.9 12.6,372.2C11,379.2 11,380.1 12.5,383.6C14.5,388.3 17.1,390.3 18.4,388.1ZM654,366.4C654,363.5 657.7,360.6 663.5,358.9C668.9,357.3 668.8,355.6 663.3,355.2C659.9,354.9 659,354.4 658,352C657.2,350 657.1,348.6 657.9,347.2C658.5,346 659,343.9 659,342.5C659,340.4 658.6,339.9 656.9,340.2C655.7,340.4 654.3,341.2 653.9,342C651.9,345.6 649.2,352.8 648.5,356C648.2,357.9 647,361.9 645.9,364.8C643.7,370.9 643.5,373.1 645.2,374.8C646.8,376.4 654,369.5 654,366.4ZM7.8,373.1C8.1,372.3 7.7,371.9 6.9,372.2C6.2,372.4 5.4,373.2 5.2,373.9C4.9,374.7 5.3,375.1 6.1,374.8C6.8,374.6 7.6,373.8 7.8,373.1ZM15,355.3C15,353.7 14.4,353 13,353C10.3,353 9.4,355.5 11,358.8C12.1,361.4 12.2,361.4 13.6,359.5C14.4,358.5 15,356.6 15,355.3ZM99,316.5C100.6,315.7 102.1,314.1 102.5,313C103,311.4 104,311 107.2,311C109.9,311 111,310.6 110.8,309.8C110.1,307.6 105.6,307.8 103.1,310C101.8,311.1 99.9,312 98.9,312C98,312 96.5,312.3 95.6,312.6C92.4,313.8 94,310.1 98.5,305.8C100.9,303.4 103,300.7 103,299.6C103,298.6 101.4,295.2 99.5,292C95.5,285.4 95.4,285.2 97.7,281.2C99.3,278.4 99.3,278.1 97.6,275.5C95.5,272.3 90.4,270 85.5,270C82.3,270 81.9,270.2 82.5,272C83.3,274.6 81.4,277 78.6,277C77.5,277 74.3,275.6 71.5,274C65.4,270.4 64.6,270.3 61.5,273.5C56.5,278.4 58.3,283.2 69.6,295.6C71.9,298.1 75.2,303 77.1,306.6C81.5,315.4 84.7,318 91.1,318C93.9,318 97.4,317.3 99,316.5ZM656,313.5C656,311.4 653,310.4 652,312.1C650.9,313.8 651.7,315 654.1,315C655.1,315 656,314.3 656,313.5ZM373,283.8C381.7,276.2 381.6,275.9 371.2,276.7C361.3,277.4 358,279 358,282.9C358,285 358.8,286 361.3,287.3C363,288.1 365.1,288.9 365.8,288.9C366.5,289 369.8,286.7 373,283.8ZM373.1,271.5C375.8,269.4 377.2,269 380.1,269.5C383.3,270.1 384.6,269.5 391.2,265.1C395.3,262.3 399.6,260 400.7,260C403.2,260 408.2,256.2 407.5,254.9C406.7,253.6 371.3,253.8 358.8,255.1C349.6,256.1 348.3,256.5 346.3,258.8C343.7,262 343.4,265.9 345.5,270C347.3,273.5 348.2,273.7 360.1,273.9C368.8,274 369.9,273.8 373.1,271.5ZM92.1,261C95.8,259 94.1,257.9 87.8,258.2C82.8,258.4 81.5,258.8 81.2,260.3C80.9,261.7 81.6,262 85.5,262C88,262 91,261.5 92.1,261ZM28.3,251.5C28.1,251 25.2,250.2 21.8,249.9L15.5,249.3L20.5,249.1C23.3,249 29.8,248.3 35,247.7C46.4,246.2 47,245.2 41,238.1C37.4,233.9 36.2,233.1 32.2,232.6C22.5,231.2 21.9,231 23,229C23.6,228 24,226.9 24,226.6C24,225.4 19.5,222 17.9,222C14.8,222 14.6,219.8 17.3,217.8C19.3,216.4 20,214.9 20,212.6C20,209.9 19.1,208.6 15.1,205.2C12,202.6 9.9,199.9 9.5,198C8.7,194.6 7.3,193.3 5.8,194.8C4.3,196.3 4.7,249.9 6.2,251.7C7.5,253.4 28.6,253.1 28.3,251.5ZM40.8,251.8C40.3,250.3 36.6,249.6 34.4,250.4C31.9,251.4 33.9,253 37.6,253C40,253 41,252.6 40.8,251.8ZM94.3,246.9C93.6,239.7 94.2,239 101.5,239C106.9,239 115,242.5 115,244.8C115,245.5 116.2,247.7 117.8,249.6C120.4,252.8 120.8,253 126.8,253C130.3,253 134,252.6 135,252C136.7,251.1 136.4,250.4 131.9,243.5C128.2,238 126.2,235.9 124.2,235.5C106.9,231.9 102,229 113.4,229C119.2,229 120,228.8 120,227.1C120,223.6 115.8,222 106.5,222C100,222 97.9,221.7 98.2,220.8C98.5,220 101.5,219.3 106.1,218.9C110.2,218.6 114.5,217.9 115.7,217.2C118.8,215.5 123.7,215.7 124.4,217.5C124.9,219 129,219.7 129,218.3C129,217.8 127.2,216.5 125,215.3C122,213.5 119.5,213 113.8,213C109.4,212.9 105.5,212.4 104,211.5C102.6,210.7 100,210.1 98.1,210C94.5,210 81,215.6 81,217.2C81,217.7 82.8,220 85,222.4C91.2,229.1 90.3,230.7 82.8,226.4C70.5,219.5 70.6,219.5 66.8,221.2C65,222.1 60.8,223.6 57.5,224.5C49.8,226.7 45,228.7 45,229.8C45,230.3 46.5,232.4 48.4,234.6C50.2,236.7 52.4,239.9 53.3,241.5C54.1,243.2 56.4,246 58.4,247.9C62.7,252.1 65.9,252.7 82.7,252.9L95,253L94.3,246.9ZM173.1,246.5C174.7,243.8 175.9,240.9 176,240.1C176,239.3 179.1,232.4 182.9,224.6C192.4,205.2 198,192.6 198,190.8C198,189.9 197.4,188.7 196.6,188.1C195.4,187.1 193.4,188.1 186.3,192.9C176.1,199.8 174,201.8 171.1,207.6C168.6,212.4 166.7,214.2 162.3,215.9C160.5,216.6 157.9,218.8 156.5,220.6C154.1,223.8 153.9,224.7 154.3,230.8C154.7,236.8 156.4,247.3 157.6,250.8C157.9,251.7 159.8,252 164.2,251.8L170.4,251.5L173.1,246.5ZM233.9,248.4C236.9,245.9 237,245.5 237,238C237,233.4 236.4,228.8 235.5,226.7C234.7,224.7 234,220.9 234,218.3C234,213.1 231.9,209 229.3,209C228.5,209 225.4,210.3 222.5,212C217.9,214.6 217,215.7 215.1,220.7C213.9,223.9 211.4,228.7 209.6,231.5C204.5,239 200.6,247.6 201.3,249.4C201.8,250.8 204,251 216.4,251C230.5,251 230.9,250.9 233.9,248.4ZM277.4,248C282.6,244.1 287.9,244.1 299.5,248C307.4,250.7 309.7,251 320.2,251C334.1,251 333.7,251.6 328.5,239C326.6,234.3 325,229.6 325,228.4C325,226.3 322.2,223.4 315.8,218.7C313.7,217.2 308.4,212.2 303.9,207.7C295.8,199.5 292,193 292,187.4L292,184.9L296.3,187.5C298.7,188.9 301.4,190 302.2,190C304,190 315.2,178.3 318.1,173.5C319.1,171.9 321.5,169.6 323.4,168.6C325.4,167.6 327.8,165.3 328.9,163.5C330,161.6 332.7,159.4 335.4,158.1C338.4,156.6 340,155.2 340,154C340,150.7 338.1,147 336.4,147C334.9,147 325.4,152 320.8,155.2C319.5,156.1 318.6,156.1 316.6,155.2C314.2,154.1 314,153.5 314.1,148.3C314.1,142.6 314.2,142.4 318.7,139.2C324.6,134.9 328,133.5 328,135.5C328,136.3 328.5,137 329,137C330.4,137 330.3,136.4 327.7,132.2C326.5,130.2 325,127.6 324.4,126.5C323.4,124.7 322.1,124.5 313.3,124.2C303.2,123.9 303.2,123.9 300.2,127C297.3,129.8 297.1,130.7 296.8,137.7C296.6,142.7 296.1,145.5 295.3,145.8C294.3,146.1 294,144.5 294,140.2C294,133.6 293.4,132.8 287.4,131C281.9,129.4 280,125.4 280,115.8C280,109 280.1,108.7 283.8,104.9C287.9,100.8 292.4,99.1 294.9,100.7C295.8,101.2 297.5,103.2 298.8,105.1C301.5,109 303.7,109.4 305.7,106.3C307,104.3 306.9,103.9 303.5,100.3C300.5,97.1 300,96.1 300.6,93.5C300.9,91.9 301.5,90.1 301.8,89.5C302.2,89 302.5,86.8 302.6,84.8C302.9,79.6 303.5,79 308.5,79C313.3,79 315.7,81.3 313.9,84.1C313.4,84.8 313,86.3 313,87.2C313,88.6 313.8,88.8 318.8,88.3C325.1,87.7 327.4,85.9 330.6,78.8C332.1,75.5 332.7,75 335.7,75C340.5,75 343,72.1 343,66.6C343,63 342.5,61.8 340.4,60.1C334.7,55.6 328,59.4 328,67.2C327.9,70.3 327.9,70.4 326.5,68.6C325.7,67.5 325,65.4 325,64C325,59.4 322.9,57.6 317.9,58.2C315.5,58.5 312.9,58.9 312.1,59.1C308.8,60 310.5,56.9 317.1,49.7C323.2,43.1 325.5,41.3 333.8,37.3C339.1,34.7 345.6,30.6 348.2,28.3C350.8,25.9 353.3,24 353.7,24C354.2,24 355.4,22.4 356.4,20.6L358.3,17.1L355.2,13.2C353.5,11.1 350.3,8.1 348.2,6.6L344.3,3.9L321.9,4.3C309.6,4.5 298.2,5 296.5,5.4C293.2,6.2 287.7,13.4 286.4,18.3C286.1,19.9 284.1,23.1 282.1,25.5C280.1,27.9 277.3,31.8 275.7,34.2C274.2,36.6 271.4,40.7 269.5,43.4C265.4,49.1 264.9,53.9 268.1,57.1L270.2,59.2L273.4,56.1C278.1,51.6 279.4,52 278.6,57.7C278.3,60.3 277.5,62.9 277,63.4C276.4,64 276,68.3 276,73C276,86.3 274.1,91.9 266.7,100.3C263.3,104.2 258.4,109.6 255.8,112.3L251,117.1L251,124.1C251,128 251.7,132.6 252.5,134.7C253.3,136.6 254,139.7 254,141.4C254,144.5 251,157.4 249.3,161.9C248.7,163.3 248.5,171.9 248.8,181.4C249.2,196.7 249,199.3 247.1,206.1C245.1,213.3 245.1,213.9 246.6,218.1C247.7,220.9 248.4,226.9 248.7,234.5C249.4,250.7 249.7,251 263.4,251C273,250.9 273.7,250.8 277.4,248ZM411.2,249.7C415.6,249.4 416.6,248.7 425.7,240C436.8,229.5 441.1,222.8 441.2,216C441.3,209.5 438,207 429.4,207C425.8,207 422,207.5 420.9,208.1C419.8,208.6 417.7,209 416.2,208.8L413.5,208.4L417,206.8C418.9,206 422.5,203.8 424.9,202L429.3,198.8L426.7,196.2L424.1,193.7L417.3,198.1C413.6,200.5 406.9,205.8 402.5,209.8C393.7,217.8 385.3,223.4 380.3,224.5C377.1,225.1 376.7,225.7 375.5,231.6C375.2,233.4 374.1,235.5 373.1,236.4C371.3,238 371.2,237.9 370.6,235.6C369.7,231.9 366,228.7 364.3,230.1C362.3,231.8 362.7,233 366.5,236.6L370,239.9L367.4,241.9C365.9,243.1 363.5,244 362,244C360.5,244 358.5,244.9 357.4,246.1C355.6,248.1 355.6,248.2 357.5,249.6C359.1,250.8 363.5,251 383,250.6C395.9,250.4 408.6,250 411.2,249.7ZM451.4,248.8C453,246.5 453.6,235.8 452.4,231.3C451.4,227.5 449,228.5 449,232.6C449,234.6 448.3,238.3 447.3,240.9C444.6,248.6 447.6,254.3 451.4,248.8ZM471.3,249C474.1,247.5 476.7,247 481.3,247.1C488,247.4 491.9,245.9 495.8,241.7C498.8,238.5 498.6,233 495.3,231.5C494,230.9 492.9,229.3 492.5,227.2C491.8,223.3 489,216.8 487.5,215.8C487,215.4 482.1,215 476.8,215L467.1,215L466.6,225.8C466.3,231.7 465.8,239.8 465.5,243.8C464.8,252 465.1,252.3 471.3,249ZM711,248C714.3,246.4 718.1,245 719.5,245C721.2,245 722.4,244.2 723.2,242.5C724.6,239.5 723.1,237.3 718.1,235.3C715.6,234.2 715,233.6 715.9,232.7C717.6,231 717.3,230.5 712.9,227.6C709.9,225.5 708.1,225 706,225.5C702.2,226.3 692.2,222.7 684.9,217.8C681.8,215.8 677.2,213.1 674.7,211.9C670.3,209.7 668.6,207.4 667.8,202.5C667.5,200.9 666.7,200.5 663.5,200.6C661.3,200.6 658.3,201 656.8,201.4C654.2,202.2 654,202 654,199.2C654,197.6 655.1,193.8 656.5,190.8C660.3,182.7 660,182 653.5,182L648.1,182L647,185.9C646.3,188.8 645.2,190.1 643,191C640.9,191.9 639.3,193.8 637.6,197.7C636.2,200.7 634.2,204.2 633.2,205.5C631.6,207.5 631.4,208.8 632.1,213.5C632.5,216.6 634,221.3 635.4,224C636.8,226.7 638,230.2 638,231.7C638,233.3 639.2,236.2 640.6,238.3C642,240.4 643.8,243.7 644.6,245.6C645.4,247.5 647.1,249.5 648.3,250C649.5,250.5 662.8,250.9 677.8,250.9L705.1,251L711,248ZM104.9,246.8C106.3,244.4 106.3,244 104.6,242.1C102.3,239.6 98.5,239.3 97.6,241.6C96.6,244.3 96.9,248.8 98.3,249.4C100.8,250.4 103.5,249.4 104.9,246.8ZM434,247.1C434,245.5 433.4,243.7 432.6,243.1C431.4,242.1 430.8,242.4 429.5,244.4C427.3,247.7 428.2,250 431.5,250C433.6,250 434,249.5 434,247.1ZM343.9,244.4C345.4,242.5 346,240.3 346,236.4L346,231.2L338,230.8C333.6,230.6 330,230.8 330,231.1C330,231.4 330.7,232.5 331.5,233.6C332.3,234.6 333,237 333,238.9C333,243 336.3,247 339.6,247C340.8,247 342.8,245.8 343.9,244.4ZM602.5,246.5L606.3,238.7L603.5,233.4C600.5,227.8 594.4,223.4 591,224.3C590,224.6 588.2,224.1 587.1,223.4C585.5,222.3 585.2,221.2 585.7,218.5C586.7,212.2 581.7,214.4 576.5,222.5L573,228L567.4,228C563.1,228 560.1,227.2 555.2,224.9C549.2,222.1 548,221.9 540.6,222.3C536.1,222.5 531.2,223.1 529.7,223.5C527.7,224 526.4,223.8 525,222.5C520.9,218.8 523.4,213.8 531.2,210C538.2,206.7 544,202 545.8,198.3C547.9,193.9 546.6,191.7 541.4,191C533.6,190 525.8,185.9 520.8,180.3L516,175L516,167.1C516,158.5 516.6,157.4 521.5,156.8C524.3,156.5 524.5,156.2 524.6,152C524.7,144.8 524.8,144.2 527.9,140.7C533.5,134.4 533.2,133.3 523.7,123.9C515.7,116 511,109.1 511,105.5C511,102.9 507.7,104.2 506.9,107C506.5,108.4 506.2,139.3 506.1,175.8L506,242.1L508.7,244.6L511.3,247L556.9,246.8L602.5,246.5ZM50,217.5C51.4,216.7 53.6,216.1 54.8,216C58.2,216 63.6,212 61.8,210.9C59.8,209.6 54.8,209.9 52,211.5C50.6,212.3 48.5,212.9 47.3,213C45,213 41.7,216.7 42.6,218.2C43.4,219.4 47.2,219.1 50,217.5ZM737.1,214.5C748.6,208.9 751,206.8 751,202.2C751,195.8 745.4,192.7 741.6,196.9C739.8,198.9 729.4,202.7 728.4,201.7C728.1,201.4 729.6,199.9 731.7,198.4C738.5,193.4 744.1,187.6 747.6,181.8C751.1,176.1 751.1,175.9 750.7,166.8C750.4,161.7 749.9,155.9 749.5,154L748.7,150.5L750.9,152.4C752.5,153.9 753,155.5 753,159.2C753,162.1 753.8,165.7 755,168C756.1,170.2 757,173 757,174.4C757,176.7 758.6,178 761.6,178C762.7,178 763,175.7 763,165.8C763,159 762.5,151.7 761.9,149.5C761.3,147.3 760.6,144.1 760.3,142.3C759.6,138.2 754.9,135.8 752.2,138.3C751.3,139.1 747.2,141.4 743.1,143.4C736,146.8 732,150.6 732,154C732,156.9 727.1,165.9 724.7,167.5C722.4,169 721.9,168.9 714.2,165.5C709.8,163.6 705.5,162 704.6,162C703.7,162 701.4,163.7 699.5,165.8C696.1,169.3 696,169.8 696.5,175C698.9,198.5 698.4,200 688.3,205.1C685.9,206.2 684,207.7 684,208.3C684,209 687.8,211.6 692.3,214.2L700.5,218.9L714.2,218.9L727.9,219L737.1,214.5ZM599.6,207.8C602.3,204.5 602.7,202 600.6,202C598.8,202 587,213.1 587,214.7C587,216.5 596.7,211.1 599.6,207.8ZM36.5,211.6C38.7,210.8 43.4,209.4 46.9,208.4C50.3,207.4 53.4,206 53.7,205.3C54.4,203.4 50.4,199.3 45.6,196.8C41,194.5 26.5,180.2 25.5,177.1C24.6,174.1 19.9,172 14,172C7.1,172 5,173.3 5,177.4C5,180.1 6,181.6 10.8,186.1C14,189.1 17.8,192.4 19.4,193.5C21.4,194.9 22.4,196.8 23,200.1C24,205.4 28.7,213 30.9,213C31.7,213 34.2,212.4 36.5,211.6ZM626,207.4C626,206.6 626.5,206.1 627.1,206.3C627.7,206.4 628.5,205.9 628.7,205.3C629.4,203.4 627.9,203.8 625.2,206C623.9,207.1 623.1,208.4 623.5,209C624.3,210.3 626,209.3 626,207.4ZM75,207.7C75,206.8 76.2,206.6 78.8,206.8C81.4,207.1 83,206.7 83.9,205.6C84.7,204.6 86.8,204 89.2,204C91.7,204 93.3,203.5 93.6,202.5C94,201.7 95,201 96,201C97.8,201 99.4,198.7 98.3,197.6C97.1,196.4 93.9,197 93.4,198.5C93,199.5 91.4,200 88.8,200C85.7,200 84.7,200.4 84.3,202C83.9,203.6 82.9,204 79.7,204C77.1,204 75.3,204.6 74.4,205.8C72.8,207.9 72.7,209 74,209C74.6,209 75,208.4 75,207.7ZM142,206C142,204.9 141.6,204 141,204C140.5,204 140,204.9 140,206C140,207.1 140.5,208 141,208C141.6,208 142,207.1 142,206ZM479,205.5C479.6,204.7 479.9,203.2 479.5,202C478.9,200.2 478.2,199.9 474.2,200.2C470.5,200.4 469.4,200.9 469.2,202.4C468.4,206.3 476.3,208.8 479,205.5ZM69.4,201C73,199.9 76.1,198.6 76.4,198.1C76.7,197.6 78,197.5 79.2,197.7C80.7,198 83,197 85.7,195.1C88,193.4 92.3,191.2 95.2,190.1C98.1,189 101.9,187.6 103.5,187C106.2,185.9 106.9,186 110.4,188.4C116.8,192.7 121.4,191.6 120.8,185.9C120.5,182.9 119.8,182.2 113.5,178.7C109.7,176.7 105.9,174.3 105,173.5C102.9,171.6 99.4,171.7 95,173.8C91.9,175.3 91.5,175.9 91.7,179C92.3,186.9 92.1,187.8 90.1,186.5C89.5,186.2 89,182.4 89,177.8C89,171.6 89.4,169.2 90.7,167.8C91.6,166.8 92.8,166 93.3,166C95.3,166 99,161.6 99,159.3C99,156.4 96.3,151 94.9,151C94.3,151 89.2,154.6 83.5,159C73.9,166.4 72.3,167.3 63.8,169.6C49.4,173.5 47.8,173.9 42.5,174.5C39.8,174.8 37.2,175.4 36.7,175.9C35,177.6 42.1,184.8 47.3,186.6C52.2,188.2 54,190.3 54,194C54,196.2 59.9,203 61.8,203C62.3,203 65.7,202.1 69.4,201ZM627.9,199.6C628.7,198.6 628.7,198 627.7,197.1C626,195.8 622.3,198.1 623.4,199.8C624.4,201.4 626.5,201.3 627.9,199.6ZM580.6,194.9C587.6,191.8 589,190.3 589,185.8C589,183.7 588.5,182 587.9,182C586.4,182 582.9,184 579.7,186.7C578.1,188 574.8,189.5 572.4,190.1C570,190.7 568,191.6 568,192C568,193.2 573,197 574.5,197C575.2,197 577.9,196 580.6,194.9ZM437,193.1C437,191.9 435,190.6 434.3,191.3C433.6,192 434.9,194 436.1,194C436.6,194 437,193.6 437,193.1ZM157.5,189.5C160.5,186.6 160.6,184.8 158.3,180.9C156.6,178.1 156.2,177.9 151,178.2L145.5,178.5L145.2,182.4C144.9,185.3 145.4,186.8 147.1,188.6C149,190.6 150.2,191.2 154.3,191.9C154.7,191.9 156.2,190.9 157.5,189.5ZM373.3,187.6C369.6,183.5 368,180 368,176.4C368,173.7 367.5,172.7 366,172.3C364.7,172 364,170.9 364,169.4C364,167.9 363.4,167 362.5,167C360.6,167 360.6,168.3 362.6,172.2C363.9,174.7 364,175.8 363.1,177.2C362.5,178.2 362,179.3 362,179.8C362,181 369.2,188.5 371.5,189.8C374.4,191.3 375.4,190.1 373.3,187.6ZM137.4,186.8C138.3,184.6 138.5,182.8 137.9,181.2C137.4,179.9 137,176 137,172.6C137,161.3 131.1,147.5 127.8,150.8C125.8,152.8 128.5,185.5 130.9,188.4C133.1,191 135.9,190.4 137.4,186.8ZM351.4,188.4C353.7,187.5 353.4,185.7 350.1,181.7C347.1,177.8 345,178.2 345,182.8C345,187.7 347.5,189.9 351.4,188.4ZM598.4,186.3C598.8,185.4 598.4,184 597.5,183.1C596.2,181.7 596,181.9 596,184.8C596,188.2 597.4,189.1 598.4,186.3ZM439.7,182.3L446.9,178.6L452.7,180.4C455.9,181.4 459.3,182.9 460.3,183.8C463.2,186.3 463.4,184.4 460.7,179.8C456.5,172.6 454.8,171.6 447.1,171.6C439.8,171.6 436.3,173.1 433.5,177.3C431.7,180.1 430.4,186 431.6,186C432.1,186 435.7,184.3 439.7,182.3ZM536.8,177.8C537.6,170.7 527.2,159 521.4,160.4C519.3,161 519,161.6 519,165.4C519,168.6 519.6,170.4 521.4,172.3C522.8,173.8 524.3,175.6 524.7,176.3C526.3,178.9 530.5,181.1 533.5,180.8C535.9,180.6 536.6,180 536.8,177.8ZM608.2,176.1C613,173 616,169.5 616,167C615.9,165.8 615.7,165.8 614.6,167.3C613.9,168.2 612,169 610.3,169C606.7,169 598.2,175.9 599.4,177.8C600.6,179.7 603.3,179.2 608.2,176.1ZM475.2,176.3C476.2,175.4 477,173.7 477,172.5C477,170.4 471.8,161.6 469.9,160.4C469.3,160.1 466.9,160.8 464.5,161.9C459,164.5 458.3,168.1 462.8,170.4C464.3,171.2 466.8,173.2 468.4,174.9C471.8,178.5 472.6,178.6 475.2,176.3ZM643.8,175.8C644.5,175.1 645,173.4 645,171.8C645,170.3 646,167.1 647.1,164.7C648.9,161.1 650.1,160 653.9,158.6C656.4,157.7 661.4,157 665,157C668.6,156.9 672.4,156.4 673.5,155.7C674.6,155 678.3,151.5 681.8,147.9L688,141.3L688,132.4C688,125.9 688.4,122.8 689.6,121.2C691,119.1 690.9,118.6 687.8,112.8C684.9,107.3 684.1,106.4 681,105.9C679.1,105.6 676.5,104.8 675.3,104.2C671,101.8 664.5,102.8 656,106.9C649.2,110.3 648,110.6 648,109.1C648,107 651.1,104.2 656.2,101.6C661.4,99 667.2,93.4 666.8,91.4C665.4,84.2 654.2,88.8 640.4,102.4C632.5,110.2 631,112.3 629.6,117C628.7,120 627.5,123.9 627,125.5C626.5,127.2 626,133.7 625.9,140C625.8,150.3 626.1,152.3 628.4,158C629.8,161.5 631,164.9 631,165.5C631,167.6 639.1,177 640.9,177C641.8,177 643.1,176.5 643.8,175.8ZM558.7,173.3C559,172.3 560,170.7 560.8,169.7C562.2,168.2 562.1,167.5 560,163.1C557.4,157.5 553.2,154.8 550.5,157C549.7,157.7 549,158.8 549,159.5C549,160.3 547.4,161.8 545.4,163C542.6,164.8 542,165.8 542.2,167.8C542.8,173.1 557.1,177.8 558.7,173.3ZM340.8,172.8C342.3,171.3 342.4,167 341,167C340.5,167 340,168.3 340,169.9C340,171.5 339.4,173.1 338.8,173.3C338.1,173.6 338,173.9 338.6,173.9C339.1,174 340.1,173.5 340.8,172.8ZM210.7,171.8C212.3,169.7 214.3,164 213.7,163.3C211.8,161.4 200,167.1 200,169.9C200,172.4 209.1,173.9 210.7,171.8ZM169.7,164.1C171.5,163 173,161.1 173.2,159.8C173.4,158 174.1,157.5 176.4,157.5C178.8,157.5 180.2,156.5 183.8,151.8C188.6,145.3 191,144.6 192.7,148.9C193.3,150.5 194.7,152.3 195.8,152.9C197.4,153.8 198.2,153.5 200.5,151.3C202.6,149.1 203,148 202.6,145.5C202.2,143.9 201.9,141.6 201.7,140.4C201.6,139.2 200,137.1 198.3,135.6C194.2,132.2 194.2,130.2 198.1,126.4C203.3,121.4 205.4,117.2 204.1,114.4C203.5,112.9 203.4,112 204,112C204.6,112 205,111.6 205,111.1C205,110.5 203.4,110.4 201.5,110.7C198.5,111.2 198,111 198,109.4C198,108.3 198.7,106.4 199.6,105.2C200.8,103.4 200.9,102.6 200,101.5C198.2,99.3 195.7,101.2 192.1,107.4C190.2,110.8 187,114.4 183.7,117C177.8,121.4 176.8,121.7 175,119.5C173.2,117.3 171.2,117.7 168.5,120.6C166.6,122.7 166,124.4 166,128C166,131.8 165.5,133.1 163,135.5C159.5,138.9 158.5,142.6 159.9,147.6C160.8,150.8 160.6,151.9 159,154.8C156.8,158.5 156.4,163 158.2,164.8C160,166.6 166.1,166.2 169.7,164.1ZM436.5,162.4C436.5,158.8 433.6,157.9 431.9,161.1C430.9,163 431,163.6 432.6,164.7C435.2,166.6 436.5,165.8 436.5,162.4ZM489.2,164.3C492,161.8 491.4,160.2 486.9,158C481.5,155.2 478.6,155.7 478.2,159.3C477.5,165 484.8,168.3 489.2,164.3ZM685.6,163.8C687.3,162.5 690.3,159.6 692.5,157.2C695.9,153.4 696.2,152.7 695.2,150.4C694.5,149.1 693.4,147.7 692.6,147.4C690.8,146.7 675,161.7 675,164.2C675,166.9 681.7,166.6 685.6,163.8ZM37,160.5C35.5,158.7 31.9,158.9 31.2,160.8C31,161.6 32,162 34.5,162C37.8,162 38.1,161.8 37,160.5ZM51.4,158.5C52.5,157.7 54.1,157 54.9,157C57.1,157 71.4,149.4 78.1,144.8C85,140 90,134 90,130.6C90,127 86.9,127.2 82.2,131C69.6,141.1 63.7,145.4 57,149.1C45.4,155.6 41.9,158 42.5,159C43.4,160.5 49.2,160.1 51.4,158.5ZM544.4,157.9C546.5,156.2 547,155 547,151.4C547,147.7 546.4,146.3 544.1,143.9C541.4,141.3 540.5,141 534.6,141L528,141L528,147.3C528,154.2 528.9,155.9 533.5,158.4C537.6,160.5 541.3,160.4 544.4,157.9ZM14.5,155C14.8,154.5 14.2,154 13,154C11.8,154 11.2,154.5 11.5,155C11.8,155.6 12.5,156 13,156C13.5,156 14.2,155.6 14.5,155ZM441.4,155.4C443.9,154.4 443.3,152.3 439.7,149.6C433.5,144.8 429.4,147.7 434.6,153.1C437.4,156.1 438.6,156.5 441.4,155.4ZM616,155C616,153.5 612.7,150 611.8,150.6C610.5,151.5 610.9,153 612.5,153C613.3,153 614,153.7 614,154.5C614,155.3 614.5,156 615,156C615.6,156 616,155.6 616,155ZM151,151.6C151,149.6 147.1,147 144.3,147C142.9,147 142,146.4 142,145.5C142,143.7 136,139.8 134.3,140.5C133.6,140.7 133,140.3 133,139.5C133,137.8 128.3,134 126.2,134C125.4,134 124.2,133.3 123.5,132.3C122.8,131.4 121.6,130.9 120.6,131.3C118.2,132.3 118.7,134 121.4,134C123.2,134 123.9,134.6 124.2,136.3C124.4,137.7 125.9,139.2 128.5,140.5C130.7,141.6 132.9,143 133.5,143.7C134,144.4 136.1,145.6 138,146.4C139.9,147.2 142.6,149 143.9,150.4C146.5,153.2 151,153.9 151,151.6ZM421.6,149.4C426.3,147.2 426.1,144.2 421.1,140.2C416.6,136.6 414.5,136.3 411.8,138.7C410.6,139.8 410,141.7 410,145C410,147.6 410.3,150 410.7,150.3C411.9,151.6 418.2,151 421.6,149.4ZM493.8,148.3C494.4,146.3 488.5,141 485.6,141C482,141 482,145.1 485.7,148C488.5,150.2 493.1,150.4 493.8,148.3ZM36,148C36,147.5 35.3,147 34.5,147C33.7,147 33,147.5 33,148C33,148.6 33.7,149 34.5,149C35.3,149 36,148.6 36,148ZM29.3,144.9C28.9,143.6 28.4,143.2 27.8,143.8C26.7,144.9 27.5,147 29,147C29.4,147 29.6,146.1 29.3,144.9ZM44.3,145.6C44.6,144.8 46.2,143.9 47.9,143.5C49.6,143.1 51.8,141.8 52.7,140.6C53.7,139.4 55.7,138 57.1,137.7C58.5,137.3 62.4,134.2 65.8,130.6C71,125.2 72,123.6 72,120.6C72,116.1 69.4,115.7 66.2,119.8C65,121.3 61.7,125.3 59,128.6C56.2,132 54,135.3 54,135.9C54,136.5 52.6,137 51,137C48.6,137 47.5,137.7 46.2,140C45,142.2 43.8,143 41.8,143C38.8,143 38.7,143.1 39.6,145.4C40.4,147.4 43.6,147.5 44.3,145.6ZM380,142.1C380,140 378.7,138 377.4,138C375.9,138 375.7,139 376.6,141.4C377.3,143.1 380,143.6 380,142.1ZM396,139C396,137.9 395.6,137 395.1,137C393.8,137 391.9,139.6 392.7,140.3C394,141.7 396,140.9 396,139ZM476,137.4C477.5,133.6 477.3,132.5 474.5,129.2C473.1,127.5 472,125.5 472,124.6C472,123.3 472.5,123.3 475.3,125C477.6,126.4 479.1,128.2 479.8,130.8C480.9,134.5 485.1,138 488.4,138C489.3,138 490.9,138.5 492,139.2C493.5,140.2 494.3,140.1 495.9,138.6C497.8,136.9 498,135.5 498,124.8C498,111.1 497.7,110.6 490.1,113.4C487.6,114.3 484.5,115 483.4,115C482.2,115 480.7,115.7 480,116.5C479.3,117.3 477.2,118.2 475.2,118.6C471.6,119.3 463,126.9 463,129.3C463,130 464.7,132.6 466.8,135.2C471.1,140.7 474.5,141.5 476,137.4ZM427,136.5C428.1,135.2 427.4,134 422.9,129.2C419.9,126 416.7,122 415.8,120.2C413,115 403.9,112.7 404.1,117.3C404.1,121 411.1,130.3 414.5,131.2C416.2,131.6 419.1,133.3 421,134.9C425.1,138.4 425.4,138.5 427,136.5ZM695.5,132.1C694.5,130.5 693,131.8 693,134.3C693,136.3 693.1,136.3 694.6,134.8C695.5,133.9 695.9,132.7 695.5,132.1ZM561.5,134C564.7,133.3 567.2,131.3 574.7,123.4L583.9,113.7L581.7,111.9C580.5,110.9 579.2,110.1 578.8,110C578.4,110 576.4,108.9 574.4,107.5C572.4,106.1 569.9,105 568.8,105C566.1,105 553.9,95.8 549.6,90.5C541,80.1 530.8,61.8 529.2,54.2C528.6,51.4 527.9,50.4 526.2,50.2C523.2,49.7 523.4,48 526.5,48C528.8,48 529,47.6 529,43.5C529,37 530.7,38 531.2,44.7C531.6,49 533.1,53.2 536.9,61C539.7,66.8 543,73 544.3,74.7C545.5,76.5 548.1,80.4 550,83.5C551.9,86.5 554.5,89.7 555.7,90.5C556.9,91.3 560.2,94 563,96.5C569.3,102.1 573.8,103.4 586.1,102.8C597.3,102.2 601,100.5 604.9,94.1C606.3,91.9 608.2,89.9 609.2,89.7C611.1,89.2 611.7,87 609.9,87C608.2,87 617,77 621.2,74.1C625.6,71 626.1,68 623,62.1C620.6,57.2 616,53.3 611.1,52C609,51.5 606.1,49.7 604.7,48C601.5,44.5 598.7,44.2 594.5,47C591.3,49.1 587,49.7 587,48C587,47.5 588.8,46.1 591,45C597.8,41.6 603.9,36.6 603.9,34.6C604,32.1 601.8,25.7 600.5,24.8C598.7,23.5 595,23.9 591.2,25.9C584.1,29.6 582,30.3 581.3,29.5C580.8,29.1 581.1,28.5 581.8,28.3C582.5,28 584.6,25.8 586.4,23.4C590.5,18.1 590.2,15.3 585.3,11L581.9,8L568,8C559.6,8 553.9,8.4 553.5,9C552.6,10.5 539.4,17 537.3,17C536.3,17 532.6,18.7 529.1,20.8C524,23.9 522.5,25.5 521.3,28.6C519.4,33.8 519.3,34.4 520.5,34.9C522.5,35.7 524.2,39.2 523.6,41.4C523.3,42.6 521.8,45 520.2,46.7C518.6,48.3 515.9,52.6 514.2,56.1C512.4,59.6 510,63.7 508.8,65.3C506.6,68 506.6,68.1 508.3,74.4C509.2,77.9 510,82.6 510,84.7L510,88.6L517.1,88.2C522.2,87.9 524.1,88.1 523.6,88.9C523.2,89.5 520.4,90 517.4,90C513.5,90 512,90.4 512,91.4C512,93.1 520.4,109.2 524,114.5C528,120.1 534.4,126.1 541.9,130.9C548.9,135.3 553,136 561.5,134ZM710.9,132C712.5,132 713,131.4 713,129.5C713,126.1 710.1,126.2 706.7,129.8C703.8,132.8 704,134.6 707.1,133C708.1,132.4 709.8,132 710.9,132ZM50.8,127.8C51.2,121.8 48.4,118 44.8,119.7C43.4,120.3 41.7,122.5 40.8,124.8C38.9,129.5 39.7,130.7 45.3,132C50,133.1 50.5,132.8 50.8,127.8ZM117.1,128.7C115.8,127.4 114.5,128.4 115.5,129.9C115.8,130.5 116.6,130.7 117.2,130.4C117.8,130 117.8,129.4 117.1,128.7ZM222,128.9C228.7,125.1 230,119 224.1,119C221.8,119 220.7,119.8 219.1,122.4C217.1,125.5 216.2,131 217.6,131C218,131 219.9,130 222,128.9ZM341.5,127.8C340.3,122 335,118.8 335,123.8C335,125.2 340.4,130.9 341.8,131C342,131 341.9,129.5 341.5,127.8ZM127.3,125.8C127.5,125.1 126.9,123.4 125.9,122.1C124.6,120.5 124,118.1 124,114.5C124,110.6 123.5,108.9 122,107.5C118.9,104.7 117.3,106.8 118.8,111.8C119.5,114 120,116.7 120,117.8C120,121.2 123.2,127 125.1,127C126.1,127 127,126.4 127.3,125.8ZM108,123.8C108,122.4 105,119 103.8,119C103.4,119 103,119.7 103,120.5C103,121.4 103.6,121.7 104.5,121.4C105.5,121 106,121.4 106,122.9C106,124.1 106.5,125 107,125C107.6,125 108,124.5 108,123.8ZM295,123.2C296.8,121.8 297.4,120 297.8,115.8C298.3,108.8 296.1,106 290.1,106C286.4,106 286.2,106.1 285.1,110.4C283.7,116 283.7,120.6 285,123.1C286.4,125.6 292,125.6 295,123.2ZM388.8,120.9C389,118.1 388.5,116.8 386.4,114.6C383.9,112.2 383,111.9 377.6,112.2C371.6,112.5 371.5,112.6 371.2,115.5C370.9,118.9 371.4,119.7 375.4,122.8C377.8,124.6 379.4,125 383.4,124.8C388.5,124.5 388.5,124.5 388.8,120.9ZM139,122.6C139,121.9 138.3,120.7 137.5,120C135.9,118.7 135.5,119.7 136.6,122.4C137.4,124.4 139,124.5 139,122.6ZM426,119.9C427.5,117.2 425.5,114.3 423.4,116.1C421.2,117.9 421.8,122 424.1,122C424.6,122 425.4,121.1 426,119.9ZM151,120.6C151,120.4 149.6,118.7 148,117C142.8,111.4 135.2,108.3 133.5,111.1C132.5,112.6 135.9,116 138.4,116C139.6,116.1 142.3,117.2 144.5,118.5C148.2,120.7 151,121.6 151,120.6ZM365.4,117.4C369.4,113.5 364.7,109 356.6,109C351.5,109 351.3,110.7 355.6,115.1C359.7,119.3 362.8,120 365.4,117.4ZM334,116.8C334,113.7 331.8,108 330.3,107.2C328.3,106 325,108.7 325,111.5C325.1,112.6 326.5,114.4 328.3,115.7C332,118.1 334,118.5 334,116.8ZM602.3,116.3C610.1,108 611.3,107 612.7,108.1C613.4,108.7 614,109.9 614,110.6C614,112.4 615,112.4 617.8,110.4C620.2,108.7 620.7,105.1 618.8,103.2C616.4,100.8 612.6,101.9 609,106.2C607.1,108.4 604.6,111.2 603.4,112.4C600.2,115.8 598.7,118 599.7,118C600.2,118 601.4,117.2 602.3,116.3ZM311.1,113.5C311,112 308.7,112.3 308.2,113.8C307.9,114.7 308.4,115.1 309.4,114.8C310.4,114.7 311.1,114.1 311.1,113.5ZM726.6,113.3C726.9,112.3 727.7,110.5 728.3,109.3C728.9,108 729,106.7 728.6,106.3C728.2,105.9 727.7,106.6 727.3,107.8C727,109 726.2,110 725.6,110C723.5,110 720.7,112.6 721.4,113.8C722.5,115.6 726,115.2 726.6,113.3ZM407.1,111C410,109.4 409.4,106.3 404.5,98.4C402,94.5 400,90.8 400,90.4C400,89.9 398.8,88.9 397.3,88.3C393.9,86.7 392.4,87.9 391.6,93.1C391.1,96.3 391.5,97.9 393.6,101.6C395.1,104.2 398.1,107.5 400.3,109.1C404.9,112.4 404.5,112.3 407.1,111ZM436.5,111C436.8,110.5 436.4,110 435.6,110C434.5,110 434.3,109.2 434.7,106.5C435.1,104.2 434.7,102.2 433.6,100.6C432.7,99.2 432,97.3 432,96.5C432,94.8 429.2,90.6 423.3,83.6C421.5,81.4 420,78.9 420,78.1C420,77.2 418.4,74.5 416.4,72C410.9,65 400,49 400,47.9C400,47.4 398.2,44.7 396,41.9C393.8,39.1 392,36.4 392,35.8C392,35.3 389.6,32.3 386.6,29.2C383.7,26.1 380.7,22.4 380,21C378.7,18.4 374.3,12.2 370.2,6.9C368.2,4.4 367.1,4 363,4C354.1,4 353.1,5.5 358.4,11C362,14.7 379,39.6 379,41.1C379,42.7 377.4,42.1 375,39.5C373.7,38.1 371.9,37 371,37C368.3,37 365.8,40.6 365.3,45.2C364.9,49.1 365.2,49.8 368.2,52.7C371.8,56.1 376.4,57.8 377.4,56.1C377.8,55.5 379.1,55 380.2,55C382,55 382.2,54.6 381.7,51.8C381.3,50 380.8,47.5 380.4,46.2C379.4,42.6 382.4,44.5 384.4,48.7C385.4,50.7 387,53.5 388.1,54.9C393.9,62.5 397,67.1 397,68.1C397,68.7 399.8,72.2 403.1,75.8C406.5,79.5 410.5,84.8 412.1,87.6C413.7,90.4 416.5,94 418.3,95.7C420,97.3 422.9,100.7 424.6,103.2C426.4,105.7 429.2,108.4 430.9,109.1C432.6,109.9 434,110.8 434,111.2C434,112.3 435.8,112.2 436.5,111ZM388.5,106.9C389,104.5 388.7,103.3 387.1,101.6C385.9,100.4 385,98.9 385,98.2C385,97.6 383.6,95.5 381.9,93.6C376.4,87.3 365,88 365,94.7C365,98.9 368.8,104.9 372.4,106.4C374.2,107.2 376.1,108.3 376.4,108.9C376.8,109.5 379.5,110 382.5,110C387.7,110 387.9,109.9 388.5,106.9ZM489.9,107.1C493.6,106.5 493.9,106 496.4,98.4C498.4,91.9 498.4,85.2 496.4,76.3C494.2,66.6 493.9,66.2 489.6,68.3C487.6,69.2 486,70.5 486,71C486,71.6 487.1,74.5 488.5,77.5L491.1,82.8L489.1,86.1C488,88 486.6,91.5 486,94C485.4,96.5 484.4,100.2 483.8,102.2C482.6,106.3 483.3,109.5 485.2,108.4C485.9,108 488,107.4 489.9,107.1ZM87,107C87,106.5 86.3,106 85.5,106C84.7,106 84,106.5 84,107C84,107.6 84.7,108 85.5,108C86.3,108 87,107.6 87,107ZM99,105.3C99,103.3 98.7,102.9 97.9,103.7C97.2,104.4 97,105.6 97.3,106.4C98.3,108.8 99,108.3 99,105.3ZM10.7,104.8C15,100.7 12.6,98.1 7.9,101.8C6.5,103 5.9,104.3 6.3,105.3C7.1,107.5 7.9,107.4 10.7,104.8ZM176.2,104.3C177.6,102.8 178.1,101.7 177.5,101.1C176.9,100.6 167.1,99.9 155.5,99.5C144,99.2 133.6,98.5 132.5,98C131.4,97.5 129.3,96.9 127.8,96.6C123.6,95.7 124.5,94 129.1,94C131.9,94 133,93.6 132.8,92.8C132.2,91.1 124,90.5 124,92.1C124,93.2 115.4,93 111,91.9C110,91.6 109.5,92.3 109.5,93.9C109.5,96.6 110.3,97.1 118.5,99.5C121.8,100.5 127.9,102.5 132,104.1C139.3,106.9 140,106.9 156.7,106.7C173.1,106.5 174.1,106.4 176.2,104.3ZM473.5,103.8L476.9,100.5L474.9,96.3C473.5,93.6 471.7,91.6 469.3,90.5C466.1,88.9 465.7,88.9 463.9,90.6C462.5,91.9 462,93.7 462,97.5C462,102.7 463.3,104.9 467,106.3C469.6,107.2 469.9,107.1 473.5,103.8ZM356.8,101.8C356.3,100.3 352.6,99.6 350.4,100.4C347.9,101.4 349.9,103 353.6,103C356,103 357,102.6 356.8,101.8ZM240.9,99.8C245.4,98.7 247.3,97.5 252.2,92.7L258,86.8L258,60.5L254.4,55.3C252.5,52.5 249.7,49.4 248.3,48.5C246,47 245.6,46.9 244.2,48.4C242.8,49.8 243,50.4 246.4,55.4C250.8,61.7 250.8,64.3 246.5,65C243.3,65.6 243.1,66.5 244.6,73.7C245.2,76.6 244.9,77.1 241.1,79.5C238.8,80.9 236.4,83.2 235.8,84.5C235.2,85.9 234.2,87 233.5,87C232.2,87 228.6,91.6 227.7,94.5C226.9,97 227.9,98.6 231,99.9C234.3,101.2 234.6,101.2 240.9,99.8ZM334.7,94.6C340.4,89.3 340.6,89.3 345.6,89.7C348.6,90 351,89.8 351.4,89.2C352.6,87.2 350.7,85 346.9,83.8C344.7,83.2 342.5,82.1 341.9,81.3C341.3,80.6 340.3,80 339.6,80C338.2,80 322,96.1 322,97.6C322,98.3 322.6,99.1 323.3,99.3C326.7,100.7 329.2,99.7 334.7,94.6ZM69.8,97.8C71.8,95.8 71.2,94 66.3,88.3C58.1,78.8 55,76.1 49.6,73.5C44.3,71 40.6,70.4 37.5,71.6C35.6,72.4 33,77.1 33,79.9C33,82.5 41.6,89.3 49.4,92.8C52.8,94.4 57.1,96.4 59,97.3C63.2,99.2 68.2,99.4 69.8,97.8ZM82.3,97.3C81.6,97 81,96.2 81,95.4C81,94.6 80.6,94 80,94C78.5,94 78.8,95.1 80.7,97.2C81.6,98.2 82.6,98.7 82.9,98.4C83.2,98 82.9,97.5 82.3,97.3ZM99,96.4C99,95.6 98.6,95.2 98,95.5C97.5,95.8 97,96.8 97,97.6C97,98.4 97.5,98.8 98,98.5C98.6,98.2 99,97.2 99,96.4ZM153.8,96.4C158.5,95.1 155.3,93.5 147.9,93.5C141.7,93.5 140.5,93.8 140.2,95.3C139.9,96.8 140.7,97 145.7,97C148.9,97 152.5,96.7 153.8,96.4ZM706.8,95.3C706.4,93.1 698.2,92.1 696.9,94.1C695.6,96.3 696.9,97 702.1,97C706.4,97 707.1,96.7 706.8,95.3ZM13,90.4C15.2,88.4 17,86.4 17,85.9C17,85.4 15.8,84.5 14.3,84C12.7,83.4 10.5,82.5 9.3,81.9C6.2,80.2 5,81.6 5,86.9C5,91.2 6.2,94 8.2,94C8.6,94 10.8,92.4 13,90.4ZM459.1,88C459.5,84.9 460.4,83.2 462.3,81.8C465.4,79.5 465.9,74.8 463.5,71.3C461.5,68.4 454.4,67.2 452.2,69.3C450.9,70.7 450.5,70.7 448.4,69.3C445.2,67.2 442.6,68.3 443.6,71.2C444.5,74.3 444.5,74.3 446.9,73.1C448.6,72.2 449.1,72.3 450.1,74.1C450.7,75.3 450.9,77.6 450.5,79.4C448.7,88.5 448.7,88.8 451.5,91.4C455.4,95 458.3,93.7 459.1,88ZM694.9,90C695.5,90 696,89.6 696,89C696,88.5 695.5,88 694.9,88C693.6,88 691.1,91 691.1,92.5C691.1,93.1 691.7,92.7 692.4,91.8C693.1,90.8 694.2,90 694.9,90ZM78,89.3C78,88.9 76.8,86.8 75.3,84.7L72.6,80.8L75.3,78.8C78.6,76.4 78.7,74 75.7,71.2C72.4,68.1 70.7,69.9 69.1,77.9C67.9,84.2 67.9,84.3 70.6,87.1C73.1,89.7 78,91.1 78,89.3ZM98.7,86.3C99.4,84.4 93,81 88.8,81C81.9,81 79.9,83.4 84.3,86.5C87,88.4 98.1,88.2 98.7,86.3ZM207.3,86.5C208.2,85.6 209.1,82.2 209.5,78.3C209.8,74.5 210.5,69.9 211,67.9C212.4,62.8 212.2,60 210.6,60C208.6,60 206,63.9 206,66.7C206,69.8 204.3,70.5 202.8,68C200.6,64.5 200,65.7 200,73.6C200,84.9 203.3,90.6 207.3,86.5ZM482.2,85.5C483.2,83.3 483,82.4 480.3,78.7C477,74 474.5,73.6 470,76.9C466.5,79.5 466.5,81.2 469.9,84.8C472.2,87.4 473.6,88 476.9,88C480.4,88 481.2,87.6 482.2,85.5ZM309.5,84C309.5,83.2 308.7,82.4 307.8,82.2C306.5,82 306,82.5 306,84C306,85.5 306.5,86 307.8,85.8C308.7,85.6 309.5,84.8 309.5,84ZM370,84.5C371.7,83.6 373,82.6 373,82.2C373,81.2 366.1,74.5 365.7,75.1C365.5,75.3 364.8,77.4 364.1,79.6C362.1,85.9 364.1,87.6 370,84.5ZM123.6,82.5C124,81.7 125.5,81 127,81C131.3,81 134.7,79.4 135.5,77.1C135.9,75.8 137,75 138.3,75C140.9,75 152,64.3 152,61.8C152,58.5 149.3,59.9 141.9,67C137.8,70.8 133.8,74 133,74C132.1,74 129.9,75.3 128,77C125,79.5 123.6,79.9 118.5,80C110.4,80.1 104.8,81.2 104.2,82.8C103.6,84.8 122.9,84.5 123.6,82.5ZM230.8,81.3C233.2,78.9 233.3,78.5 231.7,78.2C229.4,77.7 225,80.6 225,82.5C225,84.9 227.8,84.2 230.8,81.3ZM752.2,82.3C753.9,80.8 754.8,74 753.3,74C751.4,74 748,78.6 748,81.2C748,84.4 749.5,84.8 752.2,82.3ZM765,81.3C764.9,78.6 764.9,78.6 763.5,80.4C762.1,82.3 762.3,84 764.1,84C764.6,84 765,82.8 765,81.3ZM743,76.6C743,74.7 742.1,73.9 739,72.6C736.8,71.7 733.4,71 731.5,71C729.6,71 727.1,70.6 725.8,70.1C720,67.7 709.3,65 705.8,65C703.7,65 700.3,64.1 698.3,63C696.2,61.9 693,61 691.2,61C689.4,61 686.2,60.1 684,59C679.3,56.6 678,56.5 678,58.5C678,59.4 676.9,60.5 675.5,61C672.1,62.3 672.4,63.5 676.9,66.5C680.9,69.2 687,70.7 698.5,71.6C702.4,72 706.1,72.7 706.9,73.3C707.6,74 711.2,74.8 714.9,75.2C718.5,75.6 725.1,76.6 729.5,77.4C741.8,79.5 743,79.4 743,76.6ZM379.4,73.4C380.5,70.4 380,67.3 377.9,64.6C376.3,62.5 375,62 371.5,62C364.2,62 363,67.3 369.1,72.5C372.6,75.4 378.4,75.9 379.4,73.4ZM359,68.9C359,66 357.5,65 353.4,65C348.4,65 347.9,66 351.5,69.5C353.6,71.7 354.2,71.9 356.5,70.8C357.9,70.2 359,69.3 359,68.9ZM28.4,68.3C28.9,67.3 31.7,64.3 34.5,61.5C40.7,55.6 43.6,51.5 44.6,47.4C45.8,42.5 48.1,38.7 52.6,34.2C58,28.8 58.2,26.1 53.9,17C52.2,13.4 50.3,9.4 49.7,8.1C49,6.8 47.5,5.4 46.2,4.9C44.9,4.4 35.6,4 25.5,4C5,4 5,4 5,11C5,16.2 6.5,18 11.1,18C14.3,18 21.8,20.7 23.9,22.6C24.1,22.8 22.2,24.8 19.6,27.1C15.2,31 14.9,31.5 15.5,35C16,37.8 15.7,39 14.4,40.1C11.7,42.3 8,51.1 8,55.2C8,61 9.5,63.6 15.2,67.4C19.4,70.2 21.2,70.9 23.9,70.5C25.9,70.3 27.8,69.3 28.4,68.3ZM763,68.6C763,65.6 761.6,64.6 758.4,65.4C755.6,66.1 755.2,68.5 757.8,69.9C760.9,71.7 763,71.2 763,68.6ZM103.5,58.7C104.9,56.3 106,53 106,51.4C106,48.9 105,47.9 99.1,44.2C94.5,41.3 91.3,38.5 89.4,35.5C87.9,33 86.1,31.1 85.5,31.3C83.2,32 81,38.6 81,45.1C81,50.8 81.4,52.2 84,55.8C85.7,58.1 88.9,61.3 91.1,63C95,65.8 95.4,65.9 98.1,64.5C99.6,63.7 102.1,61 103.5,58.7ZM49.5,59C50.3,57.4 51,55.3 51,54.3C51,49.9 66.8,30.8 73.3,27.4C76,25.9 76.9,22.7 75,21.5C72.7,20.1 60.7,30 55.1,37.9C52.9,41.1 50.4,44.2 49.6,45C48.7,45.7 48,47.7 48,49.4C47.9,51.1 47.3,53.6 46.5,55C44.6,58.3 44.6,62 46.5,62C47.3,62 48.6,60.7 49.5,59ZM358,61C358,59.5 353.1,57.8 350.9,58.5C348.7,59.2 348.4,60.6 350.3,61.3C352.6,62.3 358,62 358,61ZM119.8,57.2C120.1,56.3 119.5,55.9 117.9,56.2C116.7,56.3 115.5,57.1 115.2,57.8C114.9,58.7 115.5,59.1 117.1,58.8C118.3,58.7 119.5,57.9 119.8,57.2ZM154.7,56.4C155.5,54.2 153.2,52.1 152,54C151.5,54.8 151,56.1 151,56.8C151,58.5 154,58.3 154.7,56.4ZM678.5,55C678.8,54.5 678.2,52.3 677,50.1C675,46.1 675,46.1 677,45C678.5,44.2 679.7,44.4 682.7,46.3C687.3,49.2 691.6,50.1 694.7,48.9C696.7,48.2 697,47.3 697,43.2C697,40.6 697.5,37.9 698.1,37.3C698.8,36.6 699.1,32.7 698.8,26.7C698.5,17.7 698.3,16.9 695.6,14.1C693.9,12.4 691.9,11 690.9,11C690,11 687.9,10.3 686.4,9.5C684.8,8.7 681.5,8 679,8C676.6,8 672.2,7 669.3,5.8C664.4,3.8 663.6,3.7 657.1,5L650.2,6.3L649.5,11.9C648.6,19.6 647.8,43 648.4,43C649.9,43 657.2,38 661.9,33.8C667.5,28.7 670.4,28 672.4,31.2C673.2,32.5 672.9,33.9 671.2,37.3C667.1,45.4 667.3,47.1 672.2,51.8C676.7,56.2 677.5,56.6 678.5,55ZM451.9,53.9C458.8,51.7 459.7,51.2 460.3,49C460.8,46.9 460.6,46.8 456.7,47.4C454.4,47.7 451.8,48 451,48.1C448.3,48.2 438.5,45.9 437.6,44.9C435.9,43.3 435,43.9 435,46.8C435,50.8 436.1,51.9 441.6,53.4C448.1,55.2 447.8,55.2 451.9,53.9ZM653,51.6C651.7,50.3 649.5,52.3 650.5,54C651,54.8 651.6,54.8 652.6,53.9C653.6,53.1 653.8,52.4 653,51.6ZM358,50.4C360.6,43.6 358.2,38.5 351.9,37.5C348.3,36.9 347.5,37.1 344.9,39.6C341.3,43.1 341.2,46.5 344.7,50.2C346.9,52.5 348.2,53 352.2,53C356.5,53 357.2,52.7 358,50.4ZM621,47.1C623.4,45.2 623.4,45.1 621.6,43.1C619.2,40.5 617.8,40.5 615.5,43C613.8,44.9 613.8,45.1 615.5,47C617.7,49.4 617.9,49.4 621,47.1ZM217.8,44.9C217.6,44.3 217,43.9 216.5,43.9C216,43.9 215.4,44.3 215.2,44.9C215,45.5 215.6,46 216.5,46C217.4,46 218,45.5 217.8,44.9ZM631.8,44.9C631.6,44.3 631,43.9 630.5,43.9C630,43.9 629.4,44.3 629.2,44.9C629,45.5 629.6,46 630.5,46C631.4,46 632,45.5 631.8,44.9ZM425.2,42.3C427.5,41.6 428.5,38.3 427,36.5C424.9,34 429.9,34.7 434.9,37.5C441.3,41.2 447.7,40.9 456.8,36.5C464.9,32.6 472,27.4 472,25.3C472,24.5 473.1,22.4 474.5,20.6C477.9,16.2 477.8,11.1 474.4,7.1C470,1.9 463.7,3.3 459.5,10.5C456.4,15.8 453,18.2 453,15.2C453,12.2 452.2,12.1 445.2,14.7C441.5,16 437.7,17.4 436.8,17.7C435.8,18 433.6,17.3 431.8,16.2L428.6,14.1L431,13.2C432.4,12.7 434.7,11.7 436.3,11.1C440.7,9.4 439.9,6.5 434.6,5.1C427.9,3.4 424.2,3.7 423,5.9C421.5,8.9 421.8,23.5 423.5,27.6C425.4,32.2 424.6,33.4 421,31.5C415.9,28.9 414,29.9 414,35.3C414,38.1 420,44.2 422,43.4C422.8,43.1 424.3,42.6 425.2,42.3ZM248.8,37.5C249.5,36.1 250,34.3 250,33.6C250,32.8 251.1,31.5 252.5,30.6C254.7,29.2 254.8,28.7 253.8,26.5C252.8,24.2 252.1,24 246.5,24C243.1,24 239.9,24.5 239.2,25.2C236.8,27.6 237.9,31.3 242.2,35.7C244.5,38.1 246.7,40 247,40C247.4,40 248.2,38.9 248.8,37.5ZM513.5,31.6C517.6,22.2 520.7,18.7 526.9,16.3C529.4,15.4 532.6,14 534,13.3C535.4,12.6 537.3,12 538.2,12C540.5,12 541.6,10 539.9,8.9C539.1,8.4 534.3,8 529.2,8C520.7,8 519.4,8.3 513.9,11.1C510.1,13.1 507.5,15.2 506.9,16.7C505.5,20.3 505.8,37.4 507.2,38.8C509.2,40.8 509.9,39.9 513.5,31.6ZM743,34.8C744.8,32.8 745,31.3 745,19.9C745,12.9 744.6,6.9 744.2,6.6C743.5,6.2 737.7,12.3 735.7,15.6C735.3,16.3 735.5,18.2 736.2,20C737,22.5 737,24.1 736.1,26.6C735.1,29.3 735.2,30.4 736.4,32.9C737.7,35.3 738.5,36.1 740.7,36.9C740.8,37 741.8,36 743,34.8ZM104.2,34.3C107.5,31.4 106.4,29.5 98.8,25.1C92.1,21.2 88,20.5 88,23.1C88,24.6 99.4,36 101,36C101.7,36 103.2,35.3 104.2,34.3ZM130,24C130,20.4 129.4,20.3 126.3,23.2C123.2,26.1 123.4,27 127,27C129.7,27 130,26.7 130,24ZM185,17.1C182.1,13.7 177.8,9.9 175.4,8.5C171.2,6 167,5.2 167,6.8C167,8.7 179.9,18 182.4,18C183.3,18 184.3,18.7 184.6,19.5C185,20.3 185.8,21 186.5,21C187.2,21 188.1,21.7 188.4,22.6C188.8,23.5 189.3,24 189.6,23.7C190,23.4 187.9,20.4 185,17.1ZM411.8,21.5C414.3,16 412.3,11.1 408,12.5C406.5,13 406,14 406,16.6C406,23.4 409.6,26.4 411.8,21.5ZM117.5,16.9C117.9,16.3 117.2,14.9 116,13.8C113,11 100.1,9.9 98.2,12.3C97.1,13.5 97.4,14 100.1,14.9C101.9,15.5 105,16 107.1,16C109.2,16 111.2,16.5 111.5,17C112.3,18.3 116.7,18.3 117.5,16.9ZM128,13.5C130.3,11.1 130.3,10.9 128.7,9.2C127.3,7.8 126.6,7.8 125.2,8.8C124.3,9.4 122.5,10.4 121.3,10.9C118.3,12.3 117.7,13.7 119.7,14.9C122.7,16.6 125.5,16.1 128,13.5ZM263.8,13.2C264,12.5 263.5,12 262.6,12C261.7,12 261,12.7 261,13.6C261,15.3 263.2,15 263.8,13.2ZM69,11.2C69,6.9 67,4.7 63.7,5.5C60.3,6.4 60.3,7.7 63.7,11.2C67.1,14.8 69,14.8 69,11.2ZM260,10.2C260,8.3 256.4,5.6 255.6,6.9C255.3,7.4 255.7,8 256.5,8.4C257.3,8.7 258,9.6 258,10.5C258,11.3 258.5,12 259,12C259.6,12 260,11.2 260,10.2ZM77.8,8.7C78.2,6.6 75.3,5.3 73.8,6.8C73,7.6 73,8.4 74,9.5C75.6,11.4 77.4,11 77.8,8.7Z" style="fill:rgb(129,28,51);fill-rule:nonzero;"/>
            <path d="M110.2,502.4C107.8,500.7 101.6,489.9 100.6,485.7C100,483.1 100.1,483 102,484.2C103.1,484.9 104.4,486.7 104.9,488.1C106.4,492.6 109.4,492.7 115.7,488.5L121.2,484.8L120.5,480.7C120.2,478.4 119.6,470.7 119.4,463.7C118.8,451.1 118.9,450.8 121.4,447.1C122.8,445.1 124,442.6 124,441.7C124,439.1 121,438.4 117.8,440.3C116.1,441.2 113.8,442 112.5,442C111.2,442 108.8,443.1 107.2,444.5C104.1,447.1 102.5,446.6 103.6,443.6C104.4,441.5 109.2,439 112.4,439C115,439 115.4,438.6 119.1,433.8C122.5,429.2 129.1,430.4 138.5,437.1C143.9,441 145,443.9 145,454.4C145,461 145.5,463.4 147.5,467.5C148.8,470.3 150,473.9 150,475.6C150,479.3 145.6,486.5 140.8,490.5C131.4,498.3 128.5,499.9 122.4,500.6C119.2,500.9 115.5,501.8 114.4,502.6C112.6,503.7 111.9,503.6 110.2,502.4ZM129.8,473.5C130,472.2 128.6,470 126,467.5C122.6,464.2 121.8,463.8 121,465C119.3,467.6 119.9,471 122.5,473.6C125.5,476.6 129.4,476.5 129.8,473.5Z" style="fill:rgb(129,28,51);fill-rule:nonzero;"/>
            <path d="M172.9,449.3C172.1,448.4 168.6,445.3 165,442.5C159.2,437.9 158.1,436.4 155.5,430.1C152.9,423.5 152.8,422.7 154,419.1C155.2,415.4 155.1,414.8 152.1,409.6C149.4,404.7 149,403.1 149,396.6C149,387.2 150.1,385.8 157.3,386.2C163.6,386.6 165.1,389 159.1,389C156.8,389 155,389.2 155,389.4C155,390.7 158.4,397.6 159.4,398.2C160,398.6 162.4,399 164.8,399C167.8,399 169,398.6 169,397.6C169,396.8 168.6,395.8 168,395.5C166.3,394.4 166.9,393 169.1,393C170.3,393 172.8,394.4 174.7,396C177.1,398.2 179.1,399 181.8,399C186.1,399 189.2,401.3 190.9,405.7C191.6,407.4 193.2,409.8 194.6,411.1C196.8,413.1 197,414.1 197,422.1C197,432.7 194.6,438.8 187.4,446.1C183.2,450.4 182.1,451 178.4,451C175.8,451 173.7,450.4 172.9,449.3ZM180.8,431.6C183.9,427.1 187,418.4 187,414C187,412.9 186.1,411.6 185,411C183.9,410.4 182.3,408.6 181.5,407C180.3,404.7 179.3,404 176.9,404C172.9,404 166.9,407.2 163.6,411C161.3,413.8 161,415 161,421.4C161,428.1 161.2,428.8 164,431.5C167.3,434.6 172.3,436.9 175.4,436.6C176.5,436.6 178.9,434.3 180.8,431.6Z" style="fill:rgb(129,28,51);fill-rule:nonzero;"/>
            <path d="M87.2,414.4C85.4,413.2 85,411.9 85,407.4C85,401.6 87.9,394.4 90.6,393.3C92.3,392.7 99.1,397.1 102.6,401.3C106,405.4 105.7,408.6 101.4,412.6C98.5,415.4 97.1,416 93.7,416C91.3,416 88.4,415.3 87.2,414.4ZM94,405.6C94,400.2 92.7,398.1 90.3,399.6C87.8,401.2 86.4,406.5 87.8,409.5C88.8,411.7 89.2,411.9 91.5,410.8C93.6,409.9 94,409 94,405.6Z" style="fill:rgb(129,28,51);fill-rule:nonzero;"/>
            <path d="M160.7,343.2C158.7,341 159.4,340 162.6,340C165.5,340 166.5,341.6 165,343.5C163.4,345.4 162.7,345.4 160.7,343.2Z" style="fill:rgb(129,28,51);fill-rule:nonzero;"/>
            <path d="M355.7,402.4C354.6,401.3 354.9,396 356,396C357.4,396 358.4,401 357.3,402.1C356.8,402.6 356.1,402.7 355.7,402.4Z" style="fill:rgb(129,28,51);fill-rule:nonzero;"/>
            <path d="M259.3,329.8C256.4,326.6 255,323.6 255,320.6C255,316.4 256.7,316.8 257.8,321.3C258.4,323.7 260.2,326.8 261.9,328.4L264.9,331.3L279.5,326.5L279.8,320.6C280.1,315.3 279.8,314.3 276.3,309.1C274.2,306 272.2,303.4 271.8,303.2C270.4,302.6 271,300.3 273.1,297.6C275.8,294.1 281.2,294.1 289.4,297.6C299.7,302.1 303,307.5 299.8,314.5C299.2,315.9 295.4,320.5 291.5,324.6L284.5,332L272.9,332C262.2,332 261.2,331.8 259.3,329.8Z" style="fill:rgb(129,28,51);fill-rule:nonzero;"/>
            <path d="M258.5,309.1C257.8,307.9 266.2,302 268.5,302C270.7,302 269.5,303.6 264.8,307.1C260.4,310.2 259.4,310.5 258.5,309.1Z" style="fill:rgb(129,28,51);fill-rule:nonzero;"/>
            <path d="M37.5,321.3C37.9,320.3 39,317.6 39.8,315.3C40.6,312.9 41.8,311 42.5,311C43.2,311 44.5,309.9 45.4,308.5C48.8,303.4 51,307.1 48,312.9C45,318.8 35.3,326.6 37.5,321.3Z" style="fill:rgb(129,28,51);fill-rule:nonzero;"/>
            <path d="M633.5,125.7C633.1,124.7 633,123.6 633.4,123.3C634.4,122.3 635.2,123.7 634.7,125.7C634.3,127.4 634.3,127.4 633.5,125.7Z" style="fill:rgb(129,28,51);fill-rule:nonzero;"/>
            <path d="M524.2,32.9C524.4,32.2 525.2,31.4 525.9,31.2C526.7,30.9 527.1,31.3 526.8,32.1C526.6,32.8 525.8,33.6 525.1,33.8C524.3,34.1 523.9,33.7 524.2,32.9Z" style="fill:rgb(129,28,51);fill-rule:nonzero;"/>
            <path d="M37,31.6C37,30.1 39.4,28.8 40.4,29.7C41.1,30.4 39.1,33 37.9,33C37.4,33 37,32.4 37,31.6Z" style="fill:rgb(129,28,51);fill-rule:nonzero;"/>
        </g>
    </g>
</svg>
