<svg width="501" height="447" xmlns="http://www.w3.org/2000/svg"><g fill="none" fill-rule="evenodd"><path d="M501 445V2H2v443z" fill="#FFF"/><path d="M354 4h6-6m-33-2h4-4m29 2h-6 6m4 0h-4 4c1 0 1 0 0 0m142 384h2v1l-2-1m2 1v38c-1 9-1-8-1-8 0 20 1 9 1 13v10l-3-1-4 1h-2 4-5l-2-1-4 1s2-1-1-1c-2 1 2 1-1 1h-4l1-1-7 1-7-1-6 1c4-1-7 0-6-1h-5v-2 2-52h24-1 29m-100 0h45l-1 15 1 8v5l-1 3 1 3v-3l-1 13 1 8-6 1h1l-5-1-7 1c-3 0 2 0 1-1 0 0-6 0-5 1l-3-1-5 1-4-1h1c-4 0-2 0-3 1-4 0-2-1-3-1l-8 1v-1l-6 1v-3 3-53h8-1m-29 0h19l-1 15 1 8h-1l1 5-1 3 1 3v-3l-1 13 1 9h-5l1 1h-4l1-1h-1 2-11 8c-4-1 2 0-1-1h-12l-1 1-12-1-7 1 2-1-9 1h3-6v-3 2-31l-1-9h1v-12l3 1 17-1h2-2 13m-60 53a218 218 0 0 0 2 0h-2m10 0h-2 2m7-52h-2 2m7 30-1 13v9h-15s1 0 0 0l-26-1-3 1-1-1c-3 0 0 1-1 1l-2-1-3 1v-3 3-32l-1-9h1v-12h4-1 16c1 0 0 0 0 0h13-8c0 1 4 1 1 1l12-1v1h11c0-1 3-1 0-1h-2a609 609 0 0 1 6 0l-1 15 1 8h-1l1 5-1 3v3l1-3m-55 0-1 13v9h-14 1-38v-3 3h-1l1-32-1-9h1v-11l4-1 1 1h20-1c3 0 12 0 11-1h11l-1 1 7-1-1 15 1 8h-1l1 5-1 3v3l1-3m-77-30 6-1v1h15-1 2l-1 14 1 8h-1l1 5-1 3v3l1-3-1 13v9h-5l-12-1-6 1v-1l-3 1-2-1h-3l2 1-9-1-9 1 2-1h-5v1l-1-1v-2 2h-1l1-31-1-9h1v-11h3v-1l27 1m-33 0-1 14 1 8h-1l1 5-1 3v3l1-3-1 13v8h-6 1-22c3 0 2 1 0 1h-2c-2 0-1 0 0-1l-3 1 1-1h-20v-2 2h-1l1-31-1-9h1v-11l16-1 27 1c-2 0 0 0 1-1 2 1 6 0 5 1h3m-55 0-1 14 1 8h-1l1 5-1 3v3l1-3-1 13v8h-2l-4 1-15-1-3 1s-5 0-3-1l-16 1h1-9v-3 3h-1l1-32-1-9h1v-11h11-1 11-2l19-1 9 1h5m-82 51-20 1-5-1v-2l-1 2h1-1l1-31-1-9h1v-12h5-1 7c2 1-2 1-1 1h9-4 12-2l16-1c1 1 2 1 0 1h11l-1 14 1 8h-1l1 5-1 3v3-3 22l-18-1-8 1c-3 0 3 0 0-1m0-55-20 1-5-1v-6 2l-1-11v-30l1 2v-9h5-1 7c2 1-2 0-1 1h9-4 12-2l16-1c1 1 2 1 0 1h11v2-2l-1 39v13l-18-1-8 1c-3 0 3-1 0-1m0-55-20 1-5-1-1-3v-15 1-10c0-2 0-2 0 0v-9 2l-1-7a51 51 0 0 1 1-10h1l-1-1h6-1 7c2 0-2 0-1 1h9l-4-1 12 1h-2l16-1a214 214 0 0 0 10 0v46-1l1 8-19-1-8 1c-3 0 3-1 0-1M5 242v-3 3m26 34H5v-2 1-18 11s0-5 1-1l-1-17v-7l1-9c-1 1-1-3-1 0v4a1538 1538 0 0 1-1-5l1-8h1l-1-1h6-1 7c2 0-2 0-1 1h9l-4-1 12 1h-2l16-1a227 227 0 0 0 10 0l1 1-1 1 1 26c-1-1-1-2-1 0v25l-18-1-8 1c-3 0 3-1 0-1m0-55H5l-1-22 1-4v4l-1-15c1-5 1 4 1-4v1-12h1-1 6-1 7c2 0-2 0-1 1h9l-4-1 12 1h-2l16-1a214 214 0 0 0 10 0v16c0 2 0-1 1 1 0 11-2 9-1 17l1 9-1-2 1 12h-1v-5 5l-18-1-8 1c-3 0 3-1 0-1m0-55H5v-27l-1 2 1-27h6-1 7-1l5 1h4l-4-1 12 1h-2l16-1a230 230 0 0 0 10 0v11-2 19c0 1 0 1 0 0l1 18v1-1 6-3 3-3 3H39l-8 1c-3-1 3-1 0-1m0-55H5V82l-1-9 1-1-1-6v-7h2c-4 0 2 0 2-1h3-1 1l6 1h-1l5 1h4l-4-1 12 1h-2l16-1c1 0 2 0 0 1l10-1v29-1 7l1 9c-1 4-1-3-1-1 0-1 0 7 1 6l-1 3H31c-3 0 3 0 0 0m0-55H5V42l-1 2c0-4 0-12 1-11l-1-3h1l-1-9c0-7 1 1 1-9V3h39-21l26 1-1-1 10 1h-9 9l-1 5 1 5-1 2v-5 9l1 6c-1 1-1-2-1 1s1-2 1 2l-1 6v-2l1 9-1 10v4H31c-3 0 3 0 0 0M4 3v4-4Zm0 0Zm10 0H4h10m155 4V4h1l-1 3m30 49h-8 2-18 2-5c1 0 0 0 0 0h-2V42v2-14l-1-9c1-7 1 1 1-9V4h5-2 50l-1 5 1 5-1 2v-5l1 7-1 2 1 6c0 1-1-2-1 1s1-2 1 2v6l-1-2 1 9-1 10 1 4-6 1-12-1h-6M315 3h2-9 25l-1 6 1 5v2-5 7l-1 2 1 6c0 1-1-2-1 1 1 3 1-2 1 2v6l-1-2 1 9-1 10 1 4-16 1v-1h-37V42v2V3h35m35 0h21l-11 1 28-1v13-5 7l-1 2 1 6c0 1-1-2-1 1 1 3 1-2 1 2v6l-1-2 1 9-1 10 1 4-4 1-1-1 1 1h-4 1-1l2-1-11 1c0-1 7 0 3-1l5 1c-4-1 2 0-1-1h-12l-1 1c-8 0-6-2-12-1l-7 1 2-1h-9 3l-6 1v-1h-1V42v2V3h15m40 1V3h8l-8 1m-1 0V3h1-1 1v1h-1m0 3V4h1l-1 3m55 0V4l1-1-1 4m55-3v1l1 1-1-2h1v13l-1-12V4m-23 383 1-1-7 1-7-1-6 1c4-1-7 0-6-1h-5v-6 2l-1-11 1-2v-28 2-9h24-1 10l7-1c5 1-1 1 6 1h6v16c0 15 0-9-1-5l1 22-1 16 1 4-3-1-4 1-2-1h4l-5 1-2-1-4 1s2-1-1-1c-2 1 2 1-1 1h-4m22-54v1l-2-1h2Zm-71 53s-6 0-5 1l-3-1-5 1-4-1h1c-4 0-2 0-3 1-4 0-2-1-3-1l-8 1v-1l-6 1v-7 2l-1-11 1-2v-28 2-9h8-1 45v3-2 51l-6 1 1-1h-5l-7 1c-3 0 2-1 1-1m-47 1h1-1 2-11 8c-4-1 2 0-1-1h-12l-1 1-12-1-7 1 2-1-9 1h3-6v-7 2l-1-11 1-2v-28 2-9l3 1 17-1h2-2 32v3-2 52a39 39 0 0 0-5 0h1-4m-71 0h3-3m10 0h-2 2m7-53v1h-2 2v-1m7 40v12l-16 1v-1h-26l-3 1-1-1c-3 0 0 1-1 1l-2-1-3 1v-7 2l-1-11 1-2v-28 2-9h4-1 16c1 0 0 0 0 0h13-8c0 1 4 1 1 1l12-1v1l2-1 3 1h6c0-1 3-1 0-1h-2a1145 1145 0 0 1 6 3v-2 39m-78 13-28-1-1 1v-7 2l-1-11 1-2v-28 2-9h4l1 1h20-1c3 0 12 0 11-1h11l-1 1 7-1v3-2l-1 39 1 13h-15 1-9m-56 0v-1l-3 1-2-1h-3l2 1-9-1-9 1 2-1h-5v1l-1-1v-6 2l-1-11v-30l1 2v-8h3v-1l27 1 6-1v1h15-1 2v2-2l-1 39 1 13h-6l-12-1-6 1m-61-1h-3 1-20v-6 2l-1-11v-30l1 2v-8l16-1 27 1c-2 0 0-1 1-1 2 1 6 0 5 1h3v2-2l-1 39 1 12h-7 1-22c3 0 2 1 0 1l-1-1c-1 1 2 1-1 1-2 0-1-1 0-1m27-327 2 1v28-1 7l1 9c-1 4-1-3-1-1 0-1 0 7 1 6l-1 3h-6 1-22c3 0 2 1 0 1l-1-1c-1 0 2 0-1 1-2 0-1-1 0-1h-3 1-21V82l-1-9 1-1-1-6v-6l18-1 27 1c-2 0 0-1 1-1h5m36 0h6l15 1h-1 1v9l1 19-1-1v7l1 9c0 4-1-3-1-1 0-1 0 7 1 6l-1 3-5 1-12-1-6 1v-1l-3 1-2-1h-3 2-18 2-5c1 0 0 0 0 0h-2V72l-1-6 1-6h4v-1h27m110-2h-2 3-1m58 2 19-1v2c-1-5 0 10-1 9l1 19v-1l-1 7 1 9c0 4 0-3-1-1 1-1 1 7 1 6v3l-4 1-1-1 1 1h-4 1-1 2-11s7 0 3-1l5 1c-4-1 2 0-1-1h-12l-1 1c-8 0-6-2-12-1l-7 1 2-1h-9 3l-6 1v-1h-1V59h4l17-1 2 1h-2l10-1c4 1-2 1 3 1m29-1 43 1h2v1c-1-5 0 10-1 9l1 19v-1l-1 7 1 9c0 4 0-3-1-1 1-1 1 7 1 6v3h-6 1-5l-7 1c-3-1 2-1 1-1h-17 1-14s-1 0 0 0h-7V58l9 1-1-1m29 273s-6 0-5 1l-3-1-5 1-4-1h1c-4 0-2 0-3 1-4 0-2-1-3-1l-8 1v-1l-6 1v-4l-1-15 1 1-1-10c0-2 0-2 0 0v-9 2-18h9-1 44v8l1 4-1 1c0 4 1 0 1 2 0 3 0 4-1 2l1 29v-1 7l-6 1 1-1h-5l-7 1c-3 0 2-1 1-1m-47 1h1-1 2-11 8c-4-1 2 0-1-1h-12l-1 1-12-1-7 1 2-1-9 1c1 0 4 0 3-1l-6 1v-1c0-2 0-4-1-3v-15l1 1-1-10c0-2 0-2 0 0v-9 2-18l4 1 17-1h2-2 31v8l1 4-1 1c0 4 1 0 1 2 0 3 0 4-1 2l1 29v-1 8a39 39 0 0 0-5 0h1-4m-71 0a186 186 0 0 0 2 0h-2m10 0h-2 2m7-53v1h-2l2-1m7 15a365 365 0 0 1 0 31v-1 7l-16 1v-1h-30c-3 0 0 0-1 1l-2-1h-3c0-2 0-4-1-3v-15l1 1-1-10c0-2 0-2 0 0v-9 2-18h5-1 16c1 0 0 0 0 0h13-8s4 1 1 1l12-1h2l3 1h6c0-1 3-1 0-1h-2a827 827 0 0 1 5 0v8l1 4-1 1c0 4 1 0 1 2m-78 38-28-1-1 1c0-3 0-5-1-4v-15l1 1-1-10c0-2 0-2 0 0v-9 2-7a51 51 0 0 1 0-10l5-1h21l-1 1c3 0 12 0 11-1h11l-1 1 6-1v8l1 4-1 1c0 4 0 0 1 2a363 363 0 0 1 0 31l-1-1 1 8h-15l1-1-9 1m-56 0v-1l-3 1-2-1h-3l2 1-9-1-9 1 2-1h-5c1 0 0 0 0 0h-1c0-2 0-4-1-3v-15l1 1-1-10c0-2 0-2 0 0v-9 2-7a51 51 0 0 1 0-10h4v-1l27 1 6-1v1h15-1 1v12c0 4 0 0 1 2a365 365 0 0 1 0 31l-1-1 1 8h-6l-12-1-6 1m2-217 6-1v1h15-1 1l1 3-1 7v-2c0 5 0 3 1 4 0 6-1 3-1 5l1 10h-1l1 18v1-1 6-3 3-3 3l-6 1-12-1-6 1v-1l-3 1-2-1h-3l2 1-9-1h-9 2-5c1 0 0 0 0 0h-2v-27 2-26h4v-1l27 1m26 51h-2v-27 2-27h26l-1 1c3 0 12 0 11-1h11-1 7v4l-1 7v-2c0 5 0 3 1 4 0 6-1 3-1 5l1 10h-1l1 18v1-1 6-3 3-3 3h-15 1l-9 1-28-1m99-52h-2 2m7 0v4l-1 7v-2c0 5 0 3 1 4 0 6-1 3-1 5l1 10h-1l1 18v1l1-1v6l-1-3v3-3 3l-16 1v-1h-37v-27 2-27h5-1 16c1 0 0 0 0 0h13-8s4 0 1 1l12-1h5l6 1c0-1 3-1 0-1h-2a827 827 0 0 1 6 0m-22 53h-2a186 186 0 0 0 2 0m58-53h19v4l-1 7v-2c0 5 0 3 1 4 0 6-1 3-1 5l1 10h-1l1 18v1l1-1v6l-1-3v3-3 3a40 40 0 0 0-5 1h1-4 1-1 2-11s7 0 3-1l5 1c-4-1 2 0-1-1h-12l-1 1c-8 0-6-2-12-1l-7 1 2-1-9 1 3-1-6 1v-1h-1v-27 2-27h4l17-1 2 1h-2l10-1c4 1-2 1 3 1m19 149a347 347 0 0 0 0-4v4m0-14v3-3m-52-7v-3 3m44 35h1-1 2-11 8c-4-1 2 0-1-1h-12l-1 1-12-1-7 1 2-1-9 1 3-1-6 1v-1h-1v-2 1-18 11c1 0 1-5 1-1l-1-17h1v-16c-1 1 0-3-1 0v4a1538 1538 0 0 1 0-5v-9h23-2 32v1l-1 1 1 26c0-1 0-2 0 0l-1 25h-4 1-4m-71 0h3-3m10 0h-2 2m7-53v1l-2-1h2m-45 18v-3 3m52 21v-5 5m0-14v3-3m0 3c0-1 0-2-1 0v24l-15 1v-1h-30c-3 0 0 0-1 1l-2-1h-4v-2 1-18 11c1 0 1-5 1-1l-1-17h1v-16c-1 1-1-3-1 0v4a1478 1478 0 0 1-1-5l1-9h5-1 16c1 0 0 0 0 0h13-8s4 0 1 1l12-1h5l6 1c0-1 3-1 0-1h-2a827 827 0 0 1 6 1l-1 1 1 26m-55 11v-5 5m0-14v3-3m-52-7v-3h-1l1 1v2m29 35-28-1-2 1v-3 1-18 11s1-5 1-1l-1-17h1l-1-3 1-4v-9c-1 1-1-3-1 0v4a1538 1538 0 0 1-1-5l1-9h26l-1 1c3 0 12 0 11-1h11-1 7v1l-1 1 1 26c0-1 0-2-1 0v25h-14l1-1-9 1m23-100v-8 8m-51 44-1 1-1-23v-4 4-19 1-12h26l-1 1c3 0 12 0 11-1h11-1 6v16c0 2 1-1 1 1l-1 17 1 9-1-2 1 11v-4 4h-15 1l-9 1-28-1m99-52v1l-2-1h2m6 0v16c1 2 1-1 1 1l-1 17 1 9-1-2 1 11v-4 4l-16 1v-1h-30c-3 0 0 0-1 1l-2-1h-3l-1-22v-4 4-19 1-12h5-1 16c1 0 0 0 0 0h13-8s4 0 1 1l12-1h5l6 1c0-1 3-1 0-1h-2a1145 1145 0 0 1 5 0m1 4v-4 8-4m-22 49h-2a218 218 0 0 0 2 0m58-53h18v16c1 2 1-1 1 1l-1 17 1 9-1-2 1 11v-4 4l-4 1h-1 1-4 1-1 2-11 8c-4-1 2 0-1-1h-12l-1 1-12-1-7 1 2-1-9 1 3-1-6 1v-1l-1-22v-4 4-19 1-12h23-2l10-1c4 1-2 1 3 1m19 4v-4 8-4m-165 0v-3 7-4m-24 49v-1l-3 1-2-1h-3l2 1-9-1h-9 2-5c1 0 0 0 0 0h-1l-1-22v-4 4-19 1-11h4v-1l27 1 6-1v1h15-1 1v15c0 2 1-1 1 1l-1 17 1 9-1-2 1 12c0-2 0-6-1-5v4l-5 1-12-1-6 1m24 41a347 347 0 0 0 0-4v4m0-14v3-3m-52-7-1-3 1 1v2m28 35v-1l-3 1-2-1h-3l2 1-9-1h-9 2-5c1 0 0 0 0 0h-2v-2 1-18 11s0-5 1-1l-1-17v-3l1-4v-9c-1 1-1-3-1 0v4a1538 1538 0 0 1-1-5l1-8h4v-1l27 1 6-1v1h15-1 2l-1 1 1 26c0-1 0-2-1 0v25h-5l-12-1-6 1m192-35v-3 3m52 21v-5 5m0-14v3-3m-45-25h45v28c0-1 0-2 0 0v24l-6 1 1-1h-5l-7 1c-3-1 2-1 1-1 0 0-6 0-5 1l-3-1-5 1-4-1h1c-4 0-2 0-3 1-4 0-2-1-3-1h-8s-1 0 0 0h-7v-2 1-18 11c1 0 1-5 1-1v-33c0 1 0-3-1 0v4a2126 2126 0 0 1 0-5l1-9h8-1m45-51v-4 8-4m-45-4h44v16c1 2 1-1 1 1 1 11-1 9-1 17l1 9v-2 11-4 4h-6 1-5l-7 1c-3-1 2-1 1-1 0 0-6 0-5 1l-3-1-5 1-4-1h1-14s-1 0 0 0h-6l-1-22v-4 4-19 1-13l9 1h-1m0-55h45v4l-1 7v-2c0 5 0 3 1 4 0 6-1 3-1 5l1 10c0 1 0 1 0 0v19l1-1v6l-1-3 1 3h-1v-3 3h-6 1-5l-7 1c-3-1 2-1 1-1 0 0-6 0-5 1l-3-1h-9 1-14s-1 0 0 0h-7v-27 2-28l9 1h-1m-89-2a186 186 0 0 0 2 0h-2m10 0h-2 2m7-53h-2 2m6 10 1 19v-1l-1 7 1 9c0 4 0-3-1-1 0-1 0 7 1 6v3l-16 1v-1h-37V59h5-1l5-1 7 1 4-1v1h13-8s4 0 1 1l12-1h11s3 0 0 0h-2a827 827 0 0 1 6 1c-1-5 0 10-1 9m-105 42h-2V59h26l-1 1c3 0 12 0 11-1h11-1 7v1c-1-5 0 10-1 9l1 19-1-1v7l1 9c0 4-1-3-1-1 0-1 0 7 1 6l-1 3h-14 1l-9 1-28-1m-92 55h1-21v-27 2-26l17-1 27 1c-2 0 0-1 1-1h5l2 1 1 3-1 7v-2 19c0 1 0 1 0 0l1 18v1-1 6-3 3-3 3h-7 1-22c3 0 2 1 0 1l-1-1c-1 1 2 0-1 1-2 0-1-1 0-1h-3Zm33 7v-3 7-4m-33 48h1-21v-26 4l-1-15c1-5 1 4 1-4v1-11l17-1 27 1c-2 0 0-1 1-1h5l2 1v15c0 2 0-1 1 1l-1 17 1 9-1-2 1 11-1-4v4h-6 1-22c3 0 2 1 0 1l-1-1c-1 1 2 0-1 1-2 0-1-1 0-1h-3Zm33 42v-5 5m0-14v3-3m-53-7v-3l1 1-1 2m20 34h1-21v-2 1-18 11s0-5 1-1l-1-17v-7l1-9c-1 1-1-3-1 0v4a1478 1478 0 0 1-1-5l1-8 17-1 27 1c-2 0 0-1 1-1h5l3 1-1 1 1 26a614 614 0 0 1-1 24h-6 1-22c3 0 2 1 0 1l-1-1c-1 1 2 1-1 1-2 0-1-1 0-1h-3Zm0 55h1-20c0-2 0-4-1-3v-15 1-10c0-2 0-2 0 0v-9 2-7a51 51 0 0 1 0-10l17-1 27 1c-2 0 0-1 1-1h5l2 1v12c0 4 0 0 1 2a363 363 0 0 1 0 31l-1-1 1 7h-7 1-22c3 0 2 1 0 1l-1-1c-1 1 2 1-1 1-2 0-1-1 0-1h-3Zm363-53h-2 2m-22 54 1-1-7 1-7-1-6 1c4-1-7 0-6-1h-5v-3l-1-15 1 1-1-10c0-2 0-2 0 0v-9 2-18h3l5-1c5 0 10 2 17 1h-1 10l7-1c5 1-1 1 6 1h6v20-5l-1 24 1 14-3-1-4 1-2-1h4l-5 1-2-1-4 1s2-1-1-1c-2 0 2 1-1 1h-4m22-109h-2 2m-52 19v-3 3m30 35 1-1-7 1-7-1-6 1c4-1-7 0-6-1h-6v-2 1-18 11c1 0 1-5 1-1v-33c0 1 0-3-1 0v4a1538 1538 0 0 1 0-5l1-9 2-1v1l5-1 17 1h-1 10l7-1c5 1-1 1 6 1h6l-1 7 1 46-3-1-4 1-2-1h4l-5 1-2-1-4 1s2-1-1-1c-2 0 2 1-1 1h-4m22-109h-2 2m-22 54 1-1-7 1-7-1-6 1c4-1-7 0-6-1h-5l-1-22v-4 4-19 1l1-12 2-1v1l5-1 17 1-1-1c3 0 9 0 8 1l2-1v1l7-1c5 0-1 1 6 1h6v53l-3-1-4 1-2-1h4-7l-4 1c0-1 2-1-1-1-2 0 2 1-1 1h-4m20-109h2-2m-20 53h1l-7 1-7-1-6 1c4-1-7 0-6-1h-6v-27 2-27l3-1v1l5-1 17 1-1-1c3 0 9 0 8 1l2-1v1l7-1c5 0-1 1 6 1h6v52h-3l-4 1-2-1h4-7l-4 1c0-1 2-1-1-1-2 0 2 1-1 1l-4-1m22-108h-2 2m-22 53h1l-7 1-7-1-6 1c4-1-7-1-6-1h-6V59l3-1v1l5-1 17 1-1-1h10v1l7-1c5 0-1 1 6 1h6l-1 5 1 20c0 2 0-9-1 4 1 10 1-8 1 7v16h-3l-4 1-2-1h4-7l-4 1c0-1 2-1-1-1-2 0 2 1-1 1l-4-1M334 3h1l-1 4V3Zm-55 0h1l-1 4V3m-55 4V4h1l-1 3m3 49h-2V42v2-14l-1-9c1-7 1 1 1-9V4h32l21-1-1 6 1 5-1 2v-5l1 7-1 2 1 6c0 1-1-2-1 1 1 3 1-2 1 2v6l-1-2 1 9-1 10 1 4h-15 1l-9 1-28-1M166 4h2l-1 5 1 5-1 2v-5 9l1 6c0 1-1-2-1 1s1-2 1 2v6l-1-2 1 9-1 10 1 4h-7 1-22c3 0 2 1 0 1l-1-1c-1 0 2 0-1 1-2 0-1-1 0-1h-3 1-21V42l-1 2c1-4 0-12 1-11l-1-3h1l-1-9c0-7 1 1 1-9V3c2 0 5 0 4 1h47m-52-1v4-4ZM59 7V4v3m1 49V42l-1 2c0-4 0-12 1-11l-1-3h1l-1-9c0-7 1 1 1-9V4h11-6l48-1-1 6 1 5-1 2v-5 9l1 6c-1 1-1-2-1 1s1-2 1 2v6l-1-2 1 9-1 10v4H91c-4 0-1 0-3 1l-3-1H69l1 1-3-1h-7m0 55V82l-1-9 1-1-1-6v-7h13-1 11-2 19l9 1h4v28-1 7l1 9c-1 4-1-3-1-1 0-1 0 7 1 6l-1 3H91c-4 0-1 0-3 1l-3-1H69l1 1-3-1h-7m-2-51-1-1h1v1m2 107v-28 2-27h12-1 4l1 1 6-1h-2 19l9 1h4l1 3-1 7v-2 19c0 1 0 1 0 0l1 18v1-1 6-3 3-3 3h-3l-4 1-15-1c-4 0-1 0-3 1l-3-1H69l1 1h-3v-1l-7 1m52 6 1-3v7c0 1 0-9-1-4m-52 49v-27 4l-1-15c1-5 1 4 1-4v1-12h12l-1 1 4-1 1 1 6-1-2 1 19-1 9 1h4v15c0 2 0-1 1 1 0 11-2 9-1 17l1 9-1-2 1 11-1-4v4h-2l-4 1-15-1c-4 0-1 1-3 1l-3-1-16 1h1-10m-3-49 1-4v8c0 1 0-9-1-4m56 90a347 347 0 0 0 0-4v4m0-14v3-3m-53-7v-3 3m0 35v-3 1-18 11s0-5 1-1l-1-17v-7l1-9c-1 1-1-3-1 0v4a1538 1538 0 0 1-1-5l1-9h12l-1 1 4-1 1 1 6-1-2 1 19-1 9 1h5l-1 1 1 26a611 611 0 0 1-1 24h-2l-4 1-15-1c-4 0-1 1-3 1 0-1-5 0-3-1l-16 1h1-10m-2-14a347 347 0 0 0 0-4v4m3 69c0-3 0-5-1-4v-15 1-10c0-2 0-2 0 0v-9 2-7a51 51 0 0 1 0-11h12l-1 1 4-1 1 1 6-1-2 1 19-1 9 1h4v45-1l1 7h-3l-4 1-15-1-3 1s-5 0-3-1l-16 1h1-9m0 55v-7 2l-1-11v-30l1 2v-8l11-1-1 1h5l6-1-2 1 19-1 9 1h5v2-2l-1 39 1 12h-3l-4 1-15-1-3 1s-5 0-3-1l-16 1h1-9m439-108V140v5-78c0-24 1 3 1-32a1192 1192 0 0 0-1-32h-7l-5 1h10v46-17 23h-9 4-7l-4 1c0-1 2-1-1-1-2 0 2 0-1 1l-4-1h1-32V42v2-23c0-7 1 1 1-9l-1-9h39-34 1a621 621 0 0 0-6 0h-2a321 321 0 0 1 0 1v12-5 7l-1 2 1 6c0 1 0-2-1 1 1 3 1-2 1 2v6-2 9l-1 10 1 4h-6 1-5l-7 1c-3-1 2-1 1-1h-17c-2 0 1-1 1-1-4 0-2 1-3 1h-11s-1 0 0 0h-7V42v2-23c0-7 1 1 1-9l-1-8 37-1h-29 9-55 8-22l5-1h-23 1-13 6-46 2c-24 0-14 0-18 1H4v440h495l1-164M420 3h-2 2ZM117 4h2-2Zm301 0h1-4 3Zm4 0h-3 3Zm8 0h-8 8M323 4h1-1Zm-26 0h26-26M57 52" fill="#650332" fill-rule="nonzero"/><path d="m57 163 1-2c-1 1-1-5-1 2m0 260v1-1Zm3-186v1-2 1m-3 175v-1zm55-249 1-2c-1 1-1-5-1 2m0 260v1-1Zm3-186v1-2 1m-2 175v-1zm54-249 1-2c-1 1-1-5-1 2m0 260v1-1Zm3-186v1-2 1m-2 175v-1zm54-249 1-2c-1 1-1-5-1 2m3 74v1-2 1m52-74 1-2c-1 1-1-5-1 2m3 74v1-2 1m52-74 1-2c0 1-1-5-1 2m0 260 1 1-1-1Zm3-186v1-2 1m-2 175v-1zm55-249v-2 2m0 260v1-1Zm2-186v1-2 1m-2 175v-1zm55-249v-2 2m0 260v1-1Zm2-186v1-2 1m-2 175v-1zm-60 30s4-1-1-1l1 1m-55 2h-1 1m-129-3h1zm-20 4h-2 3zM11 390c-3-1 4-1 0-1 0 0-4 0 0 1m371-4 1 1c0-1 4-1-1-1m-54 3h-1 1m-129-3h1zm-19 3h-3zM11 335c-3-1 4-1 0-1 0 0-4 0 0 1m371-4 1 1c0-1 4-1-1-1m-54 3h-1 1m-129-3h1zm-20 3h-2 3zM11 280c-3-1 4-1 0-1 0 0-4 0 0 1m371-4 1 1c0-1 4-1-1-1m-54 3h-1 1m-129-3h1zm-20 3h-2 3zM11 225c-3-1 4-1 0-1 0 0-4 0 0 1m372-3c0-1 4-1-1-1l1 1m-55 2h-1 1m-129-3h1zm-20 3h-2 3zM11 169c-3 0 4 0 0 0 0 0-4 0 0 0m372-2c0-1 4-1-1-1l1 1m-55 2h-1 1m-129-3h1zm-20 3h-2 3zM11 114c-3 0 4 0 0 0 0 0-4 0 0 0m372-3h-1 1m-55 3h-1 1m-129-3h1zm-19 3h-3zM11 59c-3 0 4 0 0-1 0 1-4 1 0 1m372-3h-1 1m-55 3h-1 1m-129-3h1zm-19 3h-3z" fill="#650332" fill-rule="nonzero"/></g></svg>