<?xml version="1.0" encoding="UTF-8" standalone="no"?>
<!DOCTYPE svg PUBLIC "-//W3C//DTD SVG 1.1//EN" "http://www.w3.org/Graphics/SVG/1.1/DTD/svg11.dtd">
<svg width="100%" height="100%" viewBox="0 0 240 409" version="1.1" xmlns="http://www.w3.org/2000/svg" xmlns:xlink="http://www.w3.org/1999/xlink" xml:space="preserve" xmlns:serif="http://www.serif.com/" style="fill-rule:evenodd;clip-rule:evenodd;stroke-linejoin:round;stroke-miterlimit:2;">
    <g transform="matrix(1,0,0,1,-244.436,-1368.74)">
        <g id="Blizzard-Room" serif:id="Blizzard Room" transform="matrix(4.16667,0,0,4.16667,-762.322,177.068)">
            <g transform="matrix(-6.12323e-17,-1,-1,6.12323e-17,576.802,705.925)">
                <rect x="322.001" y="277.622" width="97.923" height="57.558" style="fill:rgb(198,140,145);"/>
            </g>
            <g transform="matrix(0.274086,0,0,0.279638,241.622,286.051)">
                <path d="M0,175L0,350L210,350L210,0L0,0L0,175M68.852,9.75C69.994,16.323 69.619,58.189 68.401,60.161C67.269,61.992 61.953,63.976 57.829,64.107C53.131,64.256 28.627,63.325 15.056,62.483C2.184,61.684 3,63.825 3,30.845L3,3L67.68,3L68.852,9.75M141.292,4.435C142.418,5.561 142.736,9.385 142.767,22.185C142.79,31.158 143.352,42.205 144.017,46.733C146.168,61.388 145.03,62.45 127,62.614C120.125,62.676 106.989,63.079 97.81,63.51C78.54,64.413 76.084,63.887 74.113,58.435C73.345,56.312 72.94,50.979 73.072,44.73C73.191,39.103 73.254,32.925 73.212,31C72.845,14.058 72.934,4.916 73.475,4.04C73.899,3.354 85.307,3 106.988,3C134.21,3 140.104,3.247 141.292,4.435M207,32.455L207,61.909L203.25,62.705C195.628,64.321 154.069,62.897 150.853,60.909C150.045,60.41 149.264,56.898 148.827,51.798C147.758,39.311 146.742,6.115 147.379,4.456C147.85,3.227 152.542,3 177.469,3L207,3L207,32.455M11.203,70C12.486,71.925 14.946,74.125 16.671,74.889C18.395,75.652 20.316,77.398 20.94,78.768C21.564,80.138 22.344,80.989 22.673,80.66C23.741,79.592 20.231,75.338 17.268,74.111C15.68,73.453 13.604,71.6 12.654,69.992L10.927,67.068L17.214,67.551C20.671,67.816 33.063,68.166 44.752,68.328C64.415,68.601 66.114,68.768 67.47,70.562C69.513,73.262 69.35,74.258 67.066,73.035C66.002,72.466 61.692,72 57.489,72C50.375,72 49.644,72.202 46.923,74.923C44.8,77.046 44,78.809 44,81.364C44,83.299 44.346,85.096 44.768,85.357C45.191,85.618 45.378,84.166 45.184,82.131C44.377,73.675 53.39,70.818 67.98,74.905C72.094,76.057 76.713,77 78.245,77C80.235,77 81.524,77.814 82.766,79.855C83.721,81.425 85.94,83.92 87.697,85.399C92.165,89.158 92.83,91.848 89.867,94.168L87.5,96.022L90,95.123C93.912,93.717 93.21,88.409 88.581,84.394C86.611,82.686 85,80.843 85,80.299C85,78.48 81.538,76.176 77.75,75.473C73.927,74.764 72.974,73.097 75.291,71.174C78.119,68.826 87.58,67.878 113.088,67.383L139.769,66.867L141.832,69.765C143.556,72.185 143.925,74.34 144.071,82.831C144.168,88.424 144.641,93 145.123,93C145.605,93 146.045,89.063 146.1,84.25C146.241,71.835 146.528,71.196 153.005,68.872C157.734,67.175 161.009,66.908 176.5,66.961C186.4,66.994 197.2,67.464 200.5,68.005C203.8,68.546 206.613,68.991 206.75,68.994C206.887,68.997 207,82.895 207,99.878C207,123.376 206.701,130.996 205.75,131.762C202.979,133.995 193.273,134.439 155.773,134.049C149.58,133.985 147.579,131.226 147.452,122.576C147.403,119.234 146.99,112.314 146.534,107.197C145.429,94.799 143.522,96.405 143.442,109.802C143.354,124.327 141.353,131.67 136.82,134.096C133.634,135.801 90.198,136.317 82.586,134.74C76.952,133.573 76.581,133.307 74.728,129.118C73.474,126.283 72.975,123.541 73.323,121.396C73.994,117.26 73,107 71.927,107C70.294,107 69.644,111.816 69.892,122.066C70.082,129.893 69.805,132.901 68.824,133.672C65.72,136.109 56.25,137.176 33.292,137.674L9.057,138.199L6.084,135.85L3.111,133.5L3.055,119.215C3.002,105.393 3.063,104.963 4.934,105.965C7.375,107.271 12,107.315 12,106.031C12,105.499 11.317,105.325 10.482,105.645C9.647,105.966 7.622,105.672 5.982,104.993L3,103.757L3,84.545C3,73.979 3.284,65.05 3.63,64.703C4.756,63.577 8.813,66.415 11.203,70M23,82.885C23,83.556 21.665,84.569 20.033,85.138C17.142,86.146 17.108,86.235 18.689,88.648C19.581,90.01 20.354,93.078 20.406,95.466C20.458,97.854 20.837,99.6 21.25,99.345C22.526,98.557 22.066,92.649 20.494,89.636C18.612,86.028 18.615,86 20.893,86C22.715,86 24.601,83.268 23.524,82.19C23.236,81.902 23,82.215 23,82.885M47.706,89C54.146,96.486 60.942,103.392 61.408,102.926C61.7,102.633 58.253,98.817 53.747,94.447C49.241,90.076 46.522,87.625 47.706,89M81.366,98C83.592,105.876 82.207,107.367 75.329,104.493C72.615,103.359 71.385,103.266 70.358,104.117C69.588,104.757 67.669,104.984 65.948,104.64C64.058,104.262 63.132,104.404 63.509,105.015C64.271,106.247 69.017,106.275 70.938,105.06C71.875,104.467 73.084,104.646 74.41,105.575C75.529,106.359 77.911,107 79.703,107C82.345,107 83.081,106.527 83.589,104.5C84.345,101.489 83.616,98.207 81.59,95.5C80.243,93.7 80.221,93.95 81.366,98M11.292,100.962C11.907,102.591 12.597,103.737 12.825,103.508C13.539,102.795 12.009,98 11.068,98C10.576,98 10.677,99.333 11.292,100.962M14,99C14.825,99.533 16.4,99.945 17.5,99.914L19.5,99.859L17.5,99C16.4,98.527 14.825,98.116 14,98.086C12.667,98.037 12.667,98.138 14,99M76.064,141.034C77.056,141.565 79.219,142 80.869,142C85.953,142 88.625,143.61 90.284,147.672C91.144,149.777 93.231,152.4 94.921,153.5C96.611,154.6 97.996,156.037 97.997,156.693C98.001,158.257 94.04,161 91.777,161C89.634,161 89.638,160.938 91.461,165.135L92.922,168.5L92.999,165.5C93.057,163.274 93.887,161.984 96.218,160.5C100.632,157.69 100.693,156.405 96.593,152.649C94.617,150.839 93,148.688 93,147.87C93,147.052 92.339,145.509 91.532,144.441C89.428,141.66 89.581,141.442 93.75,141.274C95.813,141.19 101.482,140.626 106.349,140.021C112.398,139.268 115.588,139.243 116.432,139.944C117.111,140.507 122.268,141.27 127.892,141.638L138.117,142.308L140.051,146.1C141.115,148.185 141.644,150.102 141.226,150.36C140.809,150.618 138.225,150.385 135.484,149.843C128.78,148.516 126.538,148.534 123.139,149.943C119.782,151.333 118,154.676 118,159.582C118,163.665 119.775,166.815 125.561,173C127.876,175.475 130.328,179.3 131.009,181.5C132.805,187.305 135.833,190.283 139.246,189.601C141.958,189.058 142,189.126 142,194.057C142,196.811 141.355,200.609 140.566,202.497C138.393,207.697 137.174,207.85 107.5,206.65C84.999,205.741 82.241,205.342 78.388,202.447C75.548,200.313 75.221,199.473 74.638,192.805C73.665,181.673 73.244,172.578 73.667,171.807C73.876,171.426 76.399,172.209 79.274,173.547C82.148,174.886 85.476,175.985 86.668,175.99C89.548,176.003 92,175.012 92,173.834C92,173.31 91.479,173.204 90.843,173.597C88.67,174.94 83.28,174.074 78.393,171.597C74.31,169.527 73.38,169.357 72.706,170.561C71.483,172.746 68.195,172.286 65.455,169.545C64.105,168.195 63,167.48 63,167.957C63,168.981 68.789,174 69.97,174C70.42,174 70.423,175.688 69.977,177.75C69.531,179.813 68.849,186.801 68.462,193.28C67.695,206.087 67.303,206.847 61.361,207.048C59.788,207.101 47.475,206.833 34,206.452C15.569,205.931 8.695,205.39 6.25,204.266L3,202.772L3,142.123L7.25,141.602C15.614,140.577 37.618,140.09 44,140.788L50.5,141.5L51.022,146.689C51.74,153.828 52.726,154.253 52.787,147.449C52.815,144.358 53.04,141.626 53.288,141.378C53.536,141.131 56.61,140.342 60.119,139.626C66.443,138.336 71.928,138.82 76.064,141.034M205.75,139.524C206.717,139.844 207,147.51 207,173.368L207,206.799L194.25,207.576C162.695,209.501 148.866,208.484 147.58,204.142C146.204,199.499 144.015,188.652 144.379,188.287C144.61,188.057 146.715,188.385 149.058,189.016C153.574,190.232 159.489,189.636 160.59,187.854C161.035,187.134 160.475,187.042 158.875,187.571C155.133,188.808 148.235,188.2 145.472,186.39C143.107,184.84 142.823,184.85 140.944,186.551C139.369,187.976 138.364,188.162 136.251,187.419C134.175,186.689 133.214,185.322 132.032,181.416C130.967,177.9 128.719,174.398 124.658,169.929C118.931,163.626 118.825,163.404 119.275,158.604C119.892,152.024 122.682,149.694 129,150.482C149.728,153.068 152.595,153.78 153.682,156.613C154.09,157.676 153.463,158.908 151.906,160.106C149.907,161.643 149.799,161.959 151.27,161.978C152.243,161.99 154.718,163.045 156.77,164.323C158.821,165.601 161.261,166.927 162.192,167.269C163.122,167.612 164.672,169.096 165.636,170.567C167.317,173.133 167.312,173.299 165.503,174.621C164.466,175.38 162.605,176 161.368,176C160.13,176 158.81,176.499 158.432,177.109C157.946,177.897 159.017,178.008 162.123,177.494C167.696,176.571 168,176.366 168,173.523C168,169.362 166.903,168.044 160.426,164.421C154.605,161.166 154.122,160.642 154.624,158.129C155.273,154.885 153.495,153.055 148.744,152.077C145.853,151.482 145.538,151.087 145.852,148.455C146.318,144.542 147.597,142.286 150.114,140.939C151.349,140.278 160.244,139.679 172.223,139.45C183.247,139.24 192.487,138.846 192.758,138.575C193.275,138.058 203.596,138.812 205.75,139.524M159,181.274C159,182.709 159.468,184.171 160.04,184.525C160.722,184.946 160.846,184.192 160.399,182.334C159.479,178.502 159,178.14 159,181.274M53.5,211.546C62.892,212.29 66.366,214.635 67.369,220.909C68.156,225.827 68.334,278.651 67.568,279.89C67.243,280.415 63.72,281.59 59.739,282.501C54.14,283.782 50.122,284.003 42,283.479C36.225,283.107 31.104,282.559 30.619,282.261C30.134,281.964 24.22,281.614 17.476,281.485C10.732,281.356 4.716,280.943 4.107,280.566C3.334,280.089 3,270.069 3,247.39L3,214.898L6.493,213.438C9.95,211.994 36.422,209.888 42.5,210.574C44.15,210.76 49.1,211.197 53.5,211.546M134.292,211.546C140.646,212.412 142.557,215.117 141.515,221.77C140.516,228.143 140.527,228.601 142.452,263C143.227,276.84 143.171,277.582 141.238,279.309C138.905,281.393 132.344,282.226 120,282.005C110.386,281.834 93.676,281.851 84.021,282.042C77.964,282.162 77.361,281.968 74.771,279.069C72.232,276.228 71.995,275.28 71.944,267.734C71.913,263.205 71.691,250.092 71.451,238.594C71.148,224.088 71.356,217.276 72.13,216.344C72.743,215.605 72.865,215 72.4,215C71.935,215 72.516,214.327 73.69,213.505C77.276,210.993 120.092,209.609 134.292,211.546M207,246.191L207,280.136L199.25,280.077C194.988,280.045 185.2,280.243 177.5,280.517C149.127,281.53 146.679,280.5 145.258,266.953C144.771,262.304 144.699,254.45 145.099,249.5C145.499,244.55 145.865,236.134 145.913,230.797C146.01,219.98 146.987,216.84 150.86,214.895C155.785,212.421 157.483,212.279 182.25,212.263L207,212.247L207,246.191M155.6,217.478C150.54,219.281 149.392,221.197 149.892,227C150.148,229.959 153.331,240 154.013,240C154.922,240 162.254,250.701 163.777,254.25C165.113,257.362 167.478,257.755 170.815,255.417C172.965,253.911 173.266,254.007 177.04,257.417C179.221,259.388 181.792,260.986 182.753,260.97C184.27,260.943 184.236,260.794 182.5,259.84C181.4,259.235 178.918,257.235 176.985,255.396L173.469,252.052L170.554,253.965C167.472,255.986 164,255.275 164,252.622C164,251.902 161.825,248.206 159.166,244.407C153.964,236.972 151,229.665 151,224.271C151,221.367 151.483,220.696 154.468,219.449C160.403,216.969 169.883,218.031 174.084,221.646C174.955,222.396 178.105,223.721 181.084,224.59C184.063,225.46 187.135,226.784 187.912,227.533C189.12,228.699 188.94,229.07 186.662,230.108C183.078,231.741 183.299,232.602 187.905,234.952C190.053,236.048 192.753,238.142 193.905,239.607C195.057,241.071 196,241.7 196,241.003C196,239.538 189.347,233 187.856,233C187.305,233 187.794,231.806 188.941,230.348L191.028,227.695L188.087,225.907C186.469,224.923 183.523,223.813 181.539,223.441C179.555,223.069 176.391,221.719 174.508,220.441C170.931,218.014 164.919,215.984 161.5,216.049C160.4,216.071 157.745,216.713 155.6,217.478M186.362,247.75C186.706,249.813 187.425,253.3 187.96,255.5L188.934,259.5L188.463,255.5C188.204,253.3 187.722,250.066 187.392,248.313C186.799,245.166 186.848,245.12 191.146,244.737L195.5,244.349L190.618,244.175L185.737,244L186.362,247.75M35.5,285.485C43.2,286.365 51.3,286.836 53.5,286.532C59.344,285.726 67.991,288.615 68.03,291.387C68.046,292.549 68.55,301.6 69.151,311.5C70.435,332.688 70.411,335.941 68.922,342.25L67.801,347L3,347L3,286.077L6.75,285.114C15.574,282.849 12.033,282.804 35.5,285.485M137.936,286.776C140.366,289.318 140.694,290.681 141.854,303.026C143.739,323.091 143.651,338.661 141.627,343.25L139.973,347L75.135,347L74.405,344.75C73.435,341.761 73.002,330.271 73.063,309.15C73.108,293.248 73.288,291.533 75.215,288.592L77.318,285.384L98.409,285.485C115.803,285.568 129.195,285.074 134.392,284.157C134.882,284.071 136.477,285.249 137.936,286.776M204.54,286.434L207,288.046L207,347L179.582,347C164.502,347 151.45,346.726 150.578,346.392C149.706,346.057 148.299,343.395 147.45,340.477C145.511,333.807 144.862,308.693 146.303,296.134L147.343,287.077L150.921,285.589C156.248,283.375 200.945,284.079 204.54,286.434" style="fill:rgb(129,30,51);"/>
            </g>
        </g>
    </g>
</svg>
