<?xml version="1.0" encoding="UTF-8" ?>
<!DOCTYPE svg PUBLIC "-//W3C//DTD SVG 1.1//EN" "http://www.w3.org/Graphics/SVG/1.1/DTD/svg11.dtd">
<svg width="1200pt" height="1200pt" viewBox="0 0 1200 1200" version="1.1" xmlns="http://www.w3.org/2000/svg">
<g id="#691e2fff">
<path fill="#691e2f" opacity="1.00" d=" M 0.00 0.00 L 1200.00 0.00 L 1200.00 1200.00 L 0.00 1200.00 L 0.00 0.00 M 10.00 10.00 C 10.00 55.84 10.00 101.67 10.00 147.50 C 55.83 147.50 101.67 147.50 147.50 147.50 C 147.50 101.66 147.50 55.83 147.50 10.00 C 101.67 10.00 55.83 10.00 10.00 10.00 M 152.50 10.00 C 152.50 55.83 152.50 101.66 152.50 147.50 C 200.83 147.50 249.17 147.50 297.50 147.50 C 297.50 101.66 297.50 55.83 297.50 10.00 C 249.17 10.00 200.83 10.00 152.50 10.00 M 302.50 10.00 C 302.50 55.83 302.50 101.66 302.50 147.50 C 350.83 147.50 399.16 147.50 447.50 147.50 C 447.50 101.67 447.50 55.83 447.50 10.00 C 399.17 10.00 350.83 10.00 302.50 10.00 M 452.50 10.00 C 452.50 55.83 452.50 101.66 452.50 147.50 C 500.84 147.50 549.17 147.50 597.50 147.50 C 597.50 101.66 597.50 55.83 597.49 10.00 C 549.16 10.00 500.83 10.00 452.50 10.00 M 602.50 10.00 C 602.50 55.83 602.50 101.67 602.50 147.50 C 650.83 147.50 699.17 147.50 747.50 147.49 C 747.50 101.66 747.50 55.83 747.50 10.00 C 699.16 10.00 650.83 10.00 602.50 10.00 M 752.50 10.00 C 752.50 55.83 752.50 101.67 752.50 147.50 C 800.83 147.50 849.16 147.50 897.50 147.50 C 897.50 101.67 897.50 55.83 897.50 10.00 C 849.16 10.00 800.83 10.00 752.50 10.00 M 902.50 10.00 C 902.50 55.83 902.50 101.67 902.50 147.50 C 950.83 147.50 999.16 147.50 1047.50 147.50 C 1047.50 101.67 1047.50 55.83 1047.50 10.00 C 999.17 10.00 950.83 10.00 902.50 10.00 M 1052.50 10.00 C 1052.50 55.83 1052.50 101.66 1052.50 147.50 C 1098.33 147.50 1144.17 147.50 1190.00 147.50 C 1190.00 101.67 1190.00 55.83 1190.00 10.00 C 1144.16 10.00 1098.33 10.00 1052.50 10.00 M 10.00 152.50 C 10.00 200.83 10.00 249.17 10.00 297.50 C 55.83 297.50 101.67 297.50 147.50 297.50 C 147.50 249.17 147.50 200.83 147.50 152.50 C 101.66 152.50 55.83 152.50 10.00 152.50 M 152.50 152.50 C 152.50 200.83 152.50 249.16 152.50 297.50 C 200.83 297.50 249.17 297.50 297.50 297.50 C 297.50 249.17 297.50 200.83 297.50 152.50 C 249.17 152.50 200.84 152.50 152.50 152.50 M 302.50 152.50 C 302.50 200.83 302.50 249.17 302.50 297.50 C 350.83 297.50 399.17 297.50 447.50 297.50 C 447.50 249.17 447.50 200.83 447.50 152.50 C 399.17 152.50 350.83 152.50 302.50 152.50 M 452.50 152.50 C 452.50 200.84 452.50 249.17 452.50 297.50 C 500.83 297.50 549.16 297.50 597.50 297.50 C 597.50 249.17 597.50 200.83 597.50 152.50 C 549.16 152.50 500.83 152.50 452.50 152.50 M 602.50 152.50 C 602.50 200.83 602.50 249.16 602.50 297.50 C 650.83 297.50 699.17 297.50 747.50 297.50 C 747.50 249.16 747.50 200.83 747.50 152.50 C 699.16 152.50 650.83 152.50 602.50 152.50 M 752.50 152.50 C 752.50 200.83 752.50 249.17 752.50 297.50 C 800.83 297.50 849.16 297.50 897.50 297.50 C 897.50 249.16 897.50 200.83 897.49 152.50 C 849.16 152.50 800.83 152.50 752.50 152.50 M 902.50 152.50 C 902.50 200.83 902.50 249.17 902.50 297.50 C 950.83 297.50 999.16 297.50 1047.50 297.50 C 1047.50 249.17 1047.50 200.83 1047.50 152.50 C 999.16 152.50 950.83 152.50 902.50 152.50 M 1052.50 152.50 C 1052.50 200.83 1052.50 249.17 1052.51 297.50 C 1098.33 297.50 1144.16 297.50 1190.00 297.50 C 1190.00 249.17 1190.00 200.84 1190.00 152.50 C 1144.17 152.50 1098.34 152.50 1052.50 152.50 M 10.00 302.50 C 10.00 350.83 10.00 399.17 10.00 447.50 C 55.83 447.50 101.66 447.50 147.50 447.50 C 147.50 399.17 147.50 350.84 147.50 302.51 C 101.67 302.50 55.83 302.50 10.00 302.50 M 152.50 302.50 C 152.50 350.83 152.50 399.16 152.50 447.50 C 200.83 447.50 249.17 447.50 297.50 447.50 C 297.50 399.16 297.50 350.83 297.50 302.50 C 249.17 302.50 200.83 302.50 152.50 302.50 M 302.50 302.50 C 302.50 350.84 302.50 399.17 302.50 447.50 C 350.83 447.50 399.16 447.50 447.50 447.50 C 447.50 399.17 447.50 350.83 447.50 302.50 C 399.17 302.50 350.83 302.50 302.50 302.50 M 452.50 302.50 C 452.50 350.83 452.50 399.16 452.50 447.50 C 500.83 447.50 549.16 447.50 597.50 447.50 C 597.50 399.17 597.50 350.83 597.50 302.50 C 549.17 302.50 500.84 302.50 452.50 302.50 M 602.51 302.50 C 602.50 350.83 602.50 399.16 602.50 447.50 C 650.83 447.50 699.16 447.50 747.50 447.50 C 747.50 399.17 747.50 350.84 747.50 302.50 C 699.17 302.50 650.84 302.50 602.51 302.50 M 752.50 302.50 C 752.50 350.83 752.50 399.17 752.50 447.50 C 800.83 447.50 849.17 447.50 897.50 447.50 C 897.50 399.17 897.50 350.83 897.50 302.50 C 849.17 302.50 800.83 302.50 752.50 302.50 M 902.50 302.50 C 902.50 350.83 902.50 399.17 902.50 447.50 C 950.83 447.50 999.16 447.50 1047.50 447.50 C 1047.50 399.17 1047.50 350.83 1047.50 302.50 C 999.16 302.50 950.83 302.50 902.50 302.50 M 1052.50 302.50 C 1052.50 350.83 1052.50 399.16 1052.50 447.50 C 1098.33 447.50 1144.17 447.50 1190.00 447.50 C 1190.00 399.16 1190.00 350.83 1190.00 302.50 C 1144.17 302.50 1098.33 302.50 1052.50 302.50 M 10.00 452.50 C 10.00 500.83 10.00 549.17 10.00 597.50 C 55.83 597.50 101.67 597.50 147.50 597.50 C 147.50 549.17 147.50 500.83 147.50 452.50 C 101.66 452.50 55.83 452.50 10.00 452.50 M 152.50 452.50 C 152.50 500.83 152.50 549.16 152.50 597.50 C 200.83 597.50 249.17 597.50 297.50 597.50 C 297.50 549.17 297.50 500.84 297.50 452.50 C 249.17 452.50 200.84 452.50 152.50 452.50 M 302.50 452.50 C 302.50 500.84 302.50 549.17 302.50 597.50 C 350.84 597.50 399.17 597.50 447.50 597.50 C 447.50 549.16 447.50 500.83 447.50 452.50 C 399.16 452.50 350.83 452.50 302.50 452.50 M 452.50 452.50 C 452.50 500.83 452.50 549.17 452.50 597.50 C 500.83 597.50 549.17 597.50 597.50 597.50 C 597.50 549.17 597.50 500.83 597.50 452.50 C 549.17 452.50 500.83 452.50 452.50 452.50 M 602.50 452.50 C 602.50 500.83 602.50 549.17 602.50 597.50 C 650.83 597.50 699.16 597.50 747.50 597.50 C 747.50 549.17 747.50 500.83 747.50 452.50 C 699.17 452.50 650.83 452.50 602.50 452.50 M 752.50 452.50 C 752.50 500.83 752.50 549.16 752.50 597.50 C 800.83 597.50 849.16 597.50 897.50 597.50 C 897.50 549.17 897.50 500.84 897.50 452.50 C 849.17 452.50 800.83 452.50 752.50 452.50 M 902.50 452.50 C 902.50 500.84 902.50 549.17 902.50 597.50 C 950.83 597.50 999.17 597.50 1047.50 597.50 C 1047.50 549.16 1047.50 500.83 1047.50 452.50 C 999.16 452.50 950.83 452.50 902.50 452.50 M 1052.50 452.50 C 1052.50 500.83 1052.50 549.17 1052.50 597.50 C 1098.34 597.50 1144.17 597.50 1190.00 597.50 C 1190.00 549.16 1190.00 500.83 1190.00 452.50 C 1144.17 452.50 1098.33 452.50 1052.50 452.50 M 10.00 602.50 C 10.00 650.83 10.00 699.17 10.00 747.50 C 55.83 747.50 101.66 747.50 147.50 747.50 C 147.50 699.16 147.50 650.83 147.50 602.50 C 101.66 602.50 55.83 602.50 10.00 602.50 M 152.50 602.50 C 152.50 650.83 152.50 699.16 152.50 747.50 C 200.83 747.50 249.16 747.50 297.49 747.50 C 297.50 699.17 297.50 650.84 297.50 602.50 C 249.17 602.50 200.83 602.50 152.50 602.50 M 302.50 602.50 C 302.50 650.83 302.50 699.17 302.50 747.50 C 350.83 747.50 399.16 747.50 447.50 747.50 C 447.50 699.17 447.50 650.84 447.50 602.50 C 399.17 602.50 350.83 602.50 302.50 602.50 M 452.50 602.50 C 452.50 650.83 452.50 699.17 452.51 747.50 C 500.83 747.50 549.16 747.50 597.49 747.50 C 597.50 699.17 597.50 650.84 597.50 602.50 C 549.17 602.50 500.83 602.50 452.50 602.50 M 602.50 602.50 C 602.50 650.83 602.50 699.17 602.50 747.50 C 650.83 747.50 699.16 747.50 747.50 747.50 C 747.50 699.17 747.50 650.83 747.50 602.50 C 699.16 602.50 650.83 602.50 602.50 602.50 M 752.50 602.50 C 752.50 650.83 752.50 699.16 752.50 747.49 C 800.83 747.50 849.16 747.50 897.49 747.50 C 897.50 699.17 897.50 650.83 897.50 602.50 C 849.17 602.50 800.83 602.50 752.50 602.50 M 902.50 602.50 C 902.50 650.83 902.50 699.16 902.50 747.50 C 950.83 747.50 999.17 747.50 1047.50 747.50 C 1047.50 699.16 1047.50 650.83 1047.50 602.50 C 999.17 602.50 950.84 602.50 902.50 602.50 M 1052.51 602.50 C 1052.50 650.83 1052.50 699.16 1052.50 747.49 C 1098.33 747.50 1144.16 747.50 1190.00 747.50 C 1190.00 699.17 1190.00 650.83 1190.00 602.50 C 1144.17 602.50 1098.34 602.50 1052.51 602.50 M 10.00 752.50 C 10.00 800.83 10.00 849.17 10.00 897.50 C 55.84 897.50 101.67 897.50 147.50 897.50 C 147.50 849.16 147.50 800.83 147.50 752.50 C 101.67 752.50 55.83 752.50 10.00 752.50 M 152.50 752.50 C 152.50 800.83 152.50 849.17 152.50 897.50 C 200.83 897.50 249.16 897.50 297.50 897.50 C 297.50 849.17 297.50 800.83 297.50 752.50 C 249.17 752.50 200.83 752.50 152.50 752.50 M 302.50 752.50 C 302.50 800.83 302.50 849.17 302.50 897.50 C 350.84 897.50 399.17 897.50 447.50 897.49 C 447.50 849.16 447.50 800.83 447.50 752.50 C 399.16 752.50 350.83 752.50 302.50 752.50 M 452.50 752.50 C 452.50 800.83 452.50 849.16 452.50 897.50 C 500.83 897.50 549.17 897.50 597.50 897.50 C 597.50 849.16 597.50 800.83 597.50 752.50 C 549.17 752.50 500.83 752.50 452.50 752.50 M 602.50 752.50 C 602.50 800.83 602.50 849.16 602.50 897.50 C 650.83 897.50 699.17 897.50 747.50 897.50 C 747.50 849.16 747.50 800.83 747.50 752.50 C 699.17 752.50 650.83 752.50 602.50 752.50 M 752.50 752.50 C 752.50 800.83 752.50 849.17 752.50 897.50 C 800.83 897.50 849.17 897.50 897.50 897.50 C 897.50 849.16 897.50 800.83 897.50 752.50 C 849.17 752.50 800.83 752.50 752.50 752.50 M 902.50 752.50 C 902.50 800.83 902.50 849.17 902.50 897.50 C 950.83 897.50 999.17 897.50 1047.50 897.50 C 1047.50 849.16 1047.50 800.83 1047.50 752.50 C 999.16 752.50 950.83 752.50 902.50 752.50 M 1052.50 752.50 C 1052.50 800.83 1052.50 849.17 1052.50 897.50 C 1098.33 897.50 1144.17 897.50 1190.00 897.50 C 1190.00 849.17 1190.00 800.84 1190.00 752.50 C 1144.17 752.50 1098.33 752.50 1052.50 752.50 M 10.00 902.50 C 10.00 950.83 10.00 999.16 10.00 1047.49 C 55.83 1047.50 101.66 1047.50 147.50 1047.50 C 147.50 999.16 147.50 950.83 147.50 902.50 C 101.66 902.50 55.83 902.50 10.00 902.50 M 152.50 902.50 C 152.50 950.83 152.50 999.17 152.50 1047.50 C 200.84 1047.50 249.17 1047.50 297.50 1047.50 C 297.50 999.17 297.50 950.83 297.50 902.50 C 249.17 902.50 200.84 902.50 152.50 902.50 M 302.50 902.50 C 302.50 950.83 302.50 999.16 302.50 1047.50 C 350.83 1047.50 399.17 1047.50 447.50 1047.50 C 447.50 999.17 447.50 950.83 447.50 902.50 C 399.17 902.50 350.83 902.50 302.50 902.50 M 452.50 902.50 C 452.50 950.83 452.50 999.17 452.50 1047.50 C 500.83 1047.50 549.17 1047.50 597.50 1047.50 C 597.50 999.16 597.50 950.83 597.50 902.50 C 549.16 902.50 500.83 902.50 452.50 902.50 M 602.50 902.50 C 602.50 950.83 602.50 999.16 602.50 1047.49 C 650.83 1047.50 699.16 1047.50 747.50 1047.50 C 747.50 999.16 747.50 950.83 747.50 902.50 C 699.16 902.50 650.83 902.50 602.50 902.50 M 752.50 902.50 C 752.50 950.83 752.50 999.17 752.50 1047.50 C 800.83 1047.50 849.17 1047.50 897.50 1047.50 C 897.50 999.16 897.50 950.83 897.50 902.50 C 849.16 902.50 800.83 902.50 752.50 902.50 M 902.50 902.50 C 902.50 950.83 902.50 999.16 902.50 1047.50 C 950.83 1047.50 999.16 1047.50 1047.49 1047.50 C 1047.50 999.17 1047.50 950.83 1047.50 902.50 C 999.17 902.50 950.83 902.50 902.50 902.50 M 1052.50 902.50 C 1052.50 950.83 1052.50 999.17 1052.50 1047.50 C 1098.33 1047.50 1144.17 1047.50 1190.00 1047.50 C 1190.00 999.17 1190.00 950.83 1190.00 902.50 C 1144.17 902.50 1098.34 902.50 1052.50 902.50 M 10.00 1052.50 C 10.00 1098.33 10.00 1144.16 10.00 1190.00 C 55.84 1190.00 101.67 1190.00 147.50 1190.00 C 147.50 1144.16 147.50 1098.33 147.50 1052.50 C 101.66 1052.50 55.83 1052.50 10.00 1052.50 M 152.50 1052.51 C 152.50 1098.34 152.50 1144.17 152.50 1190.00 C 200.83 1190.00 249.17 1190.00 297.50 1190.00 C 297.50 1144.17 297.50 1098.33 297.50 1052.50 C 249.16 1052.50 200.83 1052.50 152.50 1052.51 M 302.50 1052.50 C 302.50 1098.33 302.50 1144.16 302.50 1190.00 C 350.83 1190.00 399.16 1190.00 447.50 1190.00 C 447.50 1144.17 447.50 1098.33 447.50 1052.50 C 399.16 1052.50 350.83 1052.50 302.50 1052.50 M 452.50 1052.50 C 452.50 1098.33 452.50 1144.17 452.50 1190.00 C 500.83 1190.00 549.16 1190.00 597.50 1190.00 C 597.50 1144.17 597.50 1098.33 597.50 1052.50 C 549.16 1052.50 500.83 1052.50 452.50 1052.50 M 602.50 1052.50 C 602.50 1098.33 602.50 1144.17 602.50 1190.00 C 650.83 1190.00 699.17 1190.00 747.50 1190.00 C 747.50 1144.17 747.50 1098.33 747.50 1052.50 C 699.16 1052.50 650.83 1052.50 602.50 1052.50 M 752.50 1052.50 C 752.50 1098.33 752.50 1144.17 752.50 1190.00 C 800.83 1190.00 849.17 1190.00 897.50 1190.00 C 897.50 1144.17 897.50 1098.34 897.50 1052.51 C 849.17 1052.50 800.83 1052.50 752.50 1052.50 M 902.50 1052.50 C 902.50 1098.33 902.50 1144.17 902.50 1190.00 C 950.83 1190.00 999.17 1190.00 1047.50 1190.00 C 1047.50 1144.17 1047.50 1098.34 1047.50 1052.50 C 999.17 1052.50 950.83 1052.50 902.50 1052.50 M 1052.50 1052.50 C 1052.50 1098.34 1052.50 1144.17 1052.50 1190.00 C 1098.33 1190.00 1144.17 1190.00 1190.00 1190.00 C 1190.00 1144.16 1190.00 1098.33 1190.00 1052.50 C 1144.17 1052.50 1098.33 1052.50 1052.50 1052.50 Z" />
</g>
<g id="#ffffffff">
<path fill="#ffffff" opacity="1.00" d=" M 10.00 10.00 C 55.83 10.00 101.67 10.00 147.50 10.00 C 147.50 55.83 147.50 101.66 147.50 147.50 C 101.67 147.50 55.83 147.50 10.00 147.50 C 10.00 101.67 10.00 55.84 10.00 10.00 Z" />
<path fill="#ffffff" opacity="1.00" d=" M 152.50 10.00 C 200.83 10.00 249.17 10.00 297.50 10.00 C 297.50 55.83 297.50 101.66 297.50 147.50 C 249.17 147.50 200.83 147.50 152.50 147.50 C 152.50 101.66 152.50 55.83 152.50 10.00 Z" />
<path fill="#ffffff" opacity="1.00" d=" M 302.50 10.00 C 350.83 10.00 399.17 10.00 447.50 10.00 C 447.50 55.83 447.50 101.67 447.50 147.50 C 399.16 147.50 350.83 147.50 302.50 147.50 C 302.50 101.66 302.50 55.83 302.50 10.00 Z" />
<path fill="#ffffff" opacity="1.00" d=" M 452.50 10.00 C 500.83 10.00 549.16 10.00 597.49 10.00 C 597.50 55.83 597.50 101.66 597.50 147.50 C 549.17 147.50 500.84 147.50 452.50 147.50 C 452.50 101.66 452.50 55.83 452.50 10.00 Z" />
<path fill="#ffffff" opacity="1.00" d=" M 602.50 10.00 C 650.83 10.00 699.16 10.00 747.50 10.00 C 747.50 55.83 747.50 101.66 747.50 147.49 C 699.17 147.50 650.83 147.50 602.50 147.50 C 602.50 101.67 602.50 55.83 602.50 10.00 Z" />
<path fill="#ffffff" opacity="1.00" d=" M 752.50 10.00 C 800.83 10.00 849.16 10.00 897.50 10.00 C 897.50 55.83 897.50 101.67 897.50 147.50 C 849.16 147.50 800.83 147.50 752.50 147.50 C 752.50 101.67 752.50 55.83 752.50 10.00 Z" />
<path fill="#ffffff" opacity="1.00" d=" M 902.50 10.00 C 950.83 10.00 999.17 10.00 1047.50 10.00 C 1047.50 55.83 1047.50 101.67 1047.50 147.50 C 999.16 147.50 950.83 147.50 902.50 147.50 C 902.50 101.67 902.50 55.83 902.50 10.00 Z" />
<path fill="#ffffff" opacity="1.00" d=" M 1052.50 10.00 C 1098.33 10.00 1144.16 10.00 1190.00 10.00 C 1190.00 55.83 1190.00 101.67 1190.00 147.50 C 1144.17 147.50 1098.33 147.50 1052.50 147.50 C 1052.50 101.66 1052.50 55.83 1052.50 10.00 Z" />
<path fill="#ffffff" opacity="1.00" d=" M 10.00 152.50 C 55.83 152.50 101.66 152.50 147.50 152.50 C 147.50 200.83 147.50 249.17 147.50 297.50 C 101.67 297.50 55.83 297.50 10.00 297.50 C 10.00 249.17 10.00 200.83 10.00 152.50 Z" />
<path fill="#ffffff" opacity="1.00" d=" M 152.50 152.50 C 200.84 152.50 249.17 152.50 297.50 152.50 C 297.50 200.83 297.50 249.17 297.50 297.50 C 249.17 297.50 200.83 297.50 152.50 297.50 C 152.50 249.16 152.50 200.83 152.50 152.50 Z" />
<path fill="#ffffff" opacity="1.00" d=" M 302.50 152.50 C 350.83 152.50 399.17 152.50 447.50 152.50 C 447.50 200.83 447.50 249.17 447.50 297.50 C 399.17 297.50 350.83 297.50 302.50 297.50 C 302.50 249.17 302.50 200.83 302.50 152.50 Z" />
<path fill="#ffffff" opacity="1.00" d=" M 452.50 152.50 C 500.83 152.50 549.16 152.50 597.50 152.50 C 597.50 200.83 597.50 249.17 597.50 297.50 C 549.16 297.50 500.83 297.50 452.50 297.50 C 452.50 249.17 452.50 200.84 452.50 152.50 Z" />
<path fill="#ffffff" opacity="1.00" d=" M 602.50 152.50 C 650.83 152.50 699.16 152.50 747.50 152.50 C 747.50 200.83 747.50 249.16 747.50 297.50 C 699.17 297.50 650.83 297.50 602.50 297.50 C 602.50 249.16 602.50 200.83 602.50 152.50 Z" />
<path fill="#ffffff" opacity="1.00" d=" M 752.50 152.50 C 800.83 152.50 849.16 152.50 897.49 152.50 C 897.50 200.83 897.50 249.16 897.50 297.50 C 849.16 297.50 800.83 297.50 752.50 297.50 C 752.50 249.17 752.50 200.83 752.50 152.50 Z" />
<path fill="#ffffff" opacity="1.00" d=" M 902.50 152.50 C 950.83 152.50 999.16 152.50 1047.50 152.50 C 1047.50 200.83 1047.50 249.17 1047.50 297.50 C 999.16 297.50 950.83 297.50 902.50 297.50 C 902.50 249.17 902.50 200.83 902.50 152.50 Z" />
<path fill="#ffffff" opacity="1.00" d=" M 1052.50 152.50 C 1098.34 152.50 1144.17 152.50 1190.00 152.50 C 1190.00 200.84 1190.00 249.17 1190.00 297.50 C 1144.16 297.50 1098.33 297.50 1052.51 297.50 C 1052.50 249.17 1052.50 200.83 1052.50 152.50 Z" />
<path fill="#ffffff" opacity="1.00" d=" M 10.00 302.50 C 55.83 302.50 101.67 302.50 147.50 302.51 C 147.50 350.84 147.50 399.17 147.50 447.50 C 101.66 447.50 55.83 447.50 10.00 447.50 C 10.00 399.17 10.00 350.83 10.00 302.50 Z" />
<path fill="#ffffff" opacity="1.00" d=" M 152.50 302.50 C 200.83 302.50 249.17 302.50 297.50 302.50 C 297.50 350.83 297.50 399.16 297.50 447.50 C 249.17 447.50 200.83 447.50 152.50 447.50 C 152.50 399.16 152.50 350.83 152.50 302.50 Z" />
<path fill="#ffffff" opacity="1.00" d=" M 302.50 302.50 C 350.83 302.50 399.17 302.50 447.50 302.50 C 447.50 350.83 447.50 399.17 447.50 447.50 C 399.16 447.50 350.83 447.50 302.50 447.50 C 302.50 399.17 302.50 350.84 302.50 302.50 Z" />
<path fill="#ffffff" opacity="1.00" d=" M 452.50 302.50 C 500.84 302.50 549.17 302.50 597.50 302.50 C 597.50 350.83 597.50 399.17 597.50 447.50 C 549.16 447.50 500.83 447.50 452.50 447.50 C 452.50 399.16 452.50 350.83 452.50 302.50 Z" />
<path fill="#ffffff" opacity="1.00" d=" M 602.51 302.50 C 650.84 302.50 699.17 302.50 747.50 302.50 C 747.50 350.84 747.50 399.17 747.50 447.50 C 699.16 447.50 650.83 447.50 602.50 447.50 C 602.50 399.16 602.50 350.83 602.51 302.50 Z" />
<path fill="#ffffff" opacity="1.00" d=" M 752.50 302.50 C 800.83 302.50 849.17 302.50 897.50 302.50 C 897.50 350.83 897.50 399.17 897.50 447.50 C 849.17 447.50 800.83 447.50 752.50 447.50 C 752.50 399.17 752.50 350.83 752.50 302.50 Z" />
<path fill="#ffffff" opacity="1.00" d=" M 902.50 302.50 C 950.83 302.50 999.16 302.50 1047.50 302.50 C 1047.50 350.83 1047.50 399.17 1047.50 447.50 C 999.16 447.50 950.83 447.50 902.50 447.50 C 902.50 399.17 902.50 350.83 902.50 302.50 Z" />
<path fill="#ffffff" opacity="1.00" d=" M 1052.50 302.50 C 1098.33 302.50 1144.17 302.50 1190.00 302.50 C 1190.00 350.83 1190.00 399.16 1190.00 447.50 C 1144.17 447.50 1098.33 447.50 1052.50 447.50 C 1052.50 399.16 1052.50 350.83 1052.50 302.50 Z" />
<path fill="#ffffff" opacity="1.00" d=" M 10.00 452.50 C 55.83 452.50 101.66 452.50 147.50 452.50 C 147.50 500.83 147.50 549.17 147.50 597.50 C 101.67 597.50 55.83 597.50 10.00 597.50 C 10.00 549.17 10.00 500.83 10.00 452.50 Z" />
<path fill="#ffffff" opacity="1.00" d=" M 152.50 452.50 C 200.84 452.50 249.17 452.50 297.50 452.50 C 297.50 500.84 297.50 549.17 297.50 597.50 C 249.17 597.50 200.83 597.50 152.50 597.50 C 152.50 549.16 152.50 500.83 152.50 452.50 Z" />
<path fill="#ffffff" opacity="1.00" d=" M 302.50 452.50 C 350.83 452.50 399.16 452.50 447.50 452.50 C 447.50 500.83 447.50 549.16 447.50 597.50 C 399.17 597.50 350.84 597.50 302.50 597.50 C 302.50 549.17 302.50 500.84 302.50 452.50 Z" />
<path fill="#ffffff" opacity="1.00" d=" M 452.50 452.50 C 500.83 452.50 549.17 452.50 597.50 452.50 C 597.50 500.83 597.50 549.17 597.50 597.50 C 549.17 597.50 500.83 597.50 452.50 597.50 C 452.50 549.17 452.50 500.83 452.50 452.50 Z" />
<path fill="#ffffff" opacity="1.00" d=" M 602.50 452.50 C 650.83 452.50 699.17 452.50 747.50 452.50 C 747.50 500.83 747.50 549.17 747.50 597.50 C 699.16 597.50 650.83 597.50 602.50 597.50 C 602.50 549.17 602.50 500.83 602.50 452.50 Z" />
<path fill="#ffffff" opacity="1.00" d=" M 752.50 452.50 C 800.83 452.50 849.17 452.50 897.50 452.50 C 897.50 500.84 897.50 549.17 897.50 597.50 C 849.16 597.50 800.83 597.50 752.50 597.50 C 752.50 549.16 752.50 500.83 752.50 452.50 Z" />
<path fill="#ffffff" opacity="1.00" d=" M 902.50 452.50 C 950.83 452.50 999.16 452.50 1047.50 452.50 C 1047.50 500.83 1047.50 549.16 1047.50 597.50 C 999.17 597.50 950.83 597.50 902.50 597.50 C 902.50 549.17 902.50 500.84 902.50 452.50 Z" />
<path fill="#ffffff" opacity="1.00" d=" M 1052.50 452.50 C 1098.33 452.50 1144.17 452.50 1190.00 452.50 C 1190.00 500.83 1190.00 549.16 1190.00 597.50 C 1144.17 597.50 1098.34 597.50 1052.50 597.50 C 1052.50 549.17 1052.50 500.83 1052.50 452.50 Z" />
<path fill="#ffffff" opacity="1.00" d=" M 10.00 602.50 C 55.83 602.50 101.66 602.50 147.50 602.50 C 147.50 650.83 147.50 699.16 147.50 747.50 C 101.66 747.50 55.83 747.50 10.00 747.50 C 10.00 699.17 10.00 650.83 10.00 602.50 Z" />
<path fill="#ffffff" opacity="1.00" d=" M 152.50 602.50 C 200.83 602.50 249.17 602.50 297.50 602.50 C 297.50 650.84 297.50 699.17 297.49 747.50 C 249.16 747.50 200.83 747.50 152.50 747.50 C 152.50 699.16 152.50 650.83 152.50 602.50 Z" />
<path fill="#ffffff" opacity="1.00" d=" M 302.50 602.50 C 350.83 602.50 399.17 602.50 447.50 602.50 C 447.50 650.84 447.50 699.17 447.50 747.50 C 399.16 747.50 350.83 747.50 302.50 747.50 C 302.50 699.17 302.50 650.83 302.50 602.50 Z" />
<path fill="#ffffff" opacity="1.00" d=" M 452.50 602.50 C 500.83 602.50 549.17 602.50 597.50 602.50 C 597.50 650.84 597.50 699.17 597.49 747.50 C 549.16 747.50 500.83 747.50 452.51 747.50 C 452.50 699.17 452.50 650.83 452.50 602.50 Z" />
<path fill="#ffffff" opacity="1.00" d=" M 602.50 602.50 C 650.83 602.50 699.16 602.50 747.50 602.50 C 747.50 650.83 747.50 699.17 747.50 747.50 C 699.16 747.50 650.83 747.50 602.50 747.50 C 602.50 699.17 602.50 650.83 602.50 602.50 Z" />
<path fill="#ffffff" opacity="1.00" d=" M 752.50 602.50 C 800.83 602.50 849.17 602.50 897.50 602.50 C 897.50 650.83 897.50 699.17 897.49 747.50 C 849.16 747.50 800.83 747.50 752.50 747.49 C 752.50 699.16 752.50 650.83 752.50 602.50 Z" />
<path fill="#ffffff" opacity="1.00" d=" M 902.50 602.50 C 950.84 602.50 999.17 602.50 1047.50 602.50 C 1047.50 650.83 1047.50 699.16 1047.50 747.50 C 999.17 747.50 950.83 747.50 902.50 747.50 C 902.50 699.16 902.50 650.83 902.50 602.50 Z" />
<path fill="#ffffff" opacity="1.00" d=" M 1052.51 602.50 C 1098.34 602.50 1144.17 602.50 1190.00 602.50 C 1190.00 650.83 1190.00 699.17 1190.00 747.50 C 1144.16 747.50 1098.33 747.50 1052.50 747.49 C 1052.50 699.16 1052.50 650.83 1052.51 602.50 Z" />
<path fill="#ffffff" opacity="1.00" d=" M 10.00 752.50 C 55.83 752.50 101.67 752.50 147.50 752.50 C 147.50 800.83 147.50 849.16 147.50 897.50 C 101.67 897.50 55.84 897.50 10.00 897.50 C 10.00 849.17 10.00 800.83 10.00 752.50 Z" />
<path fill="#ffffff" opacity="1.00" d=" M 152.50 752.50 C 200.83 752.50 249.17 752.50 297.50 752.50 C 297.50 800.83 297.50 849.17 297.50 897.50 C 249.16 897.50 200.83 897.50 152.50 897.50 C 152.50 849.17 152.50 800.83 152.50 752.50 Z" />
<path fill="#ffffff" opacity="1.00" d=" M 302.50 752.50 C 350.83 752.50 399.16 752.50 447.50 752.50 C 447.50 800.83 447.50 849.16 447.50 897.49 C 399.17 897.50 350.84 897.50 302.50 897.50 C 302.50 849.17 302.50 800.83 302.50 752.50 Z" />
<path fill="#ffffff" opacity="1.00" d=" M 452.50 752.50 C 500.83 752.50 549.17 752.50 597.50 752.50 C 597.50 800.83 597.50 849.16 597.50 897.50 C 549.17 897.50 500.83 897.50 452.50 897.50 C 452.50 849.16 452.50 800.83 452.50 752.50 Z" />
<path fill="#ffffff" opacity="1.00" d=" M 602.50 752.50 C 650.83 752.50 699.17 752.50 747.50 752.50 C 747.50 800.83 747.50 849.16 747.50 897.50 C 699.17 897.50 650.83 897.50 602.50 897.50 C 602.50 849.16 602.50 800.83 602.50 752.50 Z" />
<path fill="#ffffff" opacity="1.00" d=" M 752.50 752.50 C 800.83 752.50 849.17 752.50 897.50 752.50 C 897.50 800.83 897.50 849.16 897.50 897.50 C 849.17 897.50 800.83 897.50 752.50 897.50 C 752.50 849.17 752.50 800.83 752.50 752.50 Z" />
<path fill="#ffffff" opacity="1.00" d=" M 902.50 752.50 C 950.83 752.50 999.16 752.50 1047.50 752.50 C 1047.50 800.83 1047.50 849.16 1047.50 897.50 C 999.17 897.50 950.83 897.50 902.50 897.50 C 902.50 849.17 902.50 800.83 902.50 752.50 Z" />
<path fill="#ffffff" opacity="1.00" d=" M 1052.50 752.50 C 1098.33 752.50 1144.17 752.50 1190.00 752.50 C 1190.00 800.84 1190.00 849.17 1190.00 897.50 C 1144.17 897.50 1098.33 897.50 1052.50 897.50 C 1052.50 849.17 1052.50 800.83 1052.50 752.50 Z" />
<path fill="#ffffff" opacity="1.00" d=" M 10.00 902.50 C 55.83 902.50 101.66 902.50 147.50 902.50 C 147.50 950.83 147.50 999.16 147.50 1047.50 C 101.66 1047.50 55.83 1047.50 10.00 1047.49 C 10.00 999.16 10.00 950.83 10.00 902.50 Z" />
<path fill="#ffffff" opacity="1.00" d=" M 152.50 902.50 C 200.84 902.50 249.17 902.50 297.50 902.50 C 297.50 950.83 297.50 999.17 297.50 1047.50 C 249.17 1047.50 200.84 1047.50 152.50 1047.50 C 152.50 999.17 152.50 950.83 152.50 902.50 Z" />
<path fill="#ffffff" opacity="1.00" d=" M 302.50 902.50 C 350.83 902.50 399.17 902.50 447.50 902.50 C 447.50 950.83 447.50 999.17 447.50 1047.50 C 399.17 1047.50 350.83 1047.50 302.50 1047.50 C 302.50 999.16 302.50 950.83 302.50 902.50 Z" />
<path fill="#ffffff" opacity="1.00" d=" M 452.50 902.50 C 500.83 902.50 549.16 902.50 597.50 902.50 C 597.50 950.83 597.50 999.16 597.50 1047.50 C 549.17 1047.50 500.83 1047.50 452.50 1047.50 C 452.50 999.17 452.50 950.83 452.50 902.50 Z" />
<path fill="#ffffff" opacity="1.00" d=" M 602.50 902.50 C 650.83 902.50 699.16 902.50 747.50 902.50 C 747.50 950.83 747.50 999.16 747.50 1047.50 C 699.16 1047.50 650.83 1047.50 602.50 1047.49 C 602.50 999.16 602.50 950.83 602.50 902.50 Z" />
<path fill="#ffffff" opacity="1.00" d=" M 752.50 902.50 C 800.83 902.50 849.16 902.50 897.50 902.50 C 897.50 950.83 897.50 999.16 897.50 1047.50 C 849.17 1047.50 800.83 1047.50 752.50 1047.50 C 752.50 999.17 752.50 950.83 752.50 902.50 Z" />
<path fill="#ffffff" opacity="1.00" d=" M 902.50 902.50 C 950.83 902.50 999.17 902.50 1047.50 902.50 C 1047.50 950.83 1047.50 999.17 1047.49 1047.50 C 999.16 1047.50 950.83 1047.50 902.50 1047.50 C 902.50 999.16 902.50 950.83 902.50 902.50 Z" />
<path fill="#ffffff" opacity="1.00" d=" M 1052.50 902.50 C 1098.34 902.50 1144.17 902.50 1190.00 902.50 C 1190.00 950.83 1190.00 999.17 1190.00 1047.50 C 1144.17 1047.50 1098.33 1047.50 1052.50 1047.50 C 1052.50 999.17 1052.50 950.83 1052.50 902.50 Z" />
<path fill="#ffffff" opacity="1.00" d=" M 10.00 1052.50 C 55.83 1052.50 101.66 1052.50 147.50 1052.50 C 147.50 1098.33 147.50 1144.16 147.50 1190.00 C 101.67 1190.00 55.84 1190.00 10.00 1190.00 C 10.00 1144.16 10.00 1098.33 10.00 1052.50 Z" />
<path fill="#ffffff" opacity="1.00" d=" M 152.50 1052.51 C 200.83 1052.50 249.16 1052.50 297.50 1052.50 C 297.50 1098.33 297.50 1144.17 297.50 1190.00 C 249.17 1190.00 200.83 1190.00 152.50 1190.00 C 152.50 1144.17 152.50 1098.34 152.50 1052.51 Z" />
<path fill="#ffffff" opacity="1.00" d=" M 302.50 1052.50 C 350.83 1052.50 399.16 1052.50 447.50 1052.50 C 447.50 1098.33 447.50 1144.17 447.50 1190.00 C 399.16 1190.00 350.83 1190.00 302.50 1190.00 C 302.50 1144.16 302.50 1098.33 302.50 1052.50 Z" />
<path fill="#ffffff" opacity="1.00" d=" M 452.50 1052.50 C 500.83 1052.50 549.16 1052.50 597.50 1052.50 C 597.50 1098.33 597.50 1144.17 597.50 1190.00 C 549.16 1190.00 500.83 1190.00 452.50 1190.00 C 452.50 1144.17 452.50 1098.33 452.50 1052.50 Z" />
<path fill="#ffffff" opacity="1.00" d=" M 602.50 1052.50 C 650.83 1052.50 699.16 1052.50 747.50 1052.50 C 747.50 1098.33 747.50 1144.17 747.50 1190.00 C 699.17 1190.00 650.83 1190.00 602.50 1190.00 C 602.50 1144.17 602.50 1098.33 602.50 1052.50 Z" />
<path fill="#ffffff" opacity="1.00" d=" M 752.50 1052.50 C 800.83 1052.50 849.17 1052.50 897.50 1052.51 C 897.50 1098.34 897.50 1144.17 897.50 1190.00 C 849.17 1190.00 800.83 1190.00 752.50 1190.00 C 752.50 1144.17 752.50 1098.33 752.50 1052.50 Z" />
<path fill="#ffffff" opacity="1.00" d=" M 902.50 1052.50 C 950.83 1052.50 999.17 1052.50 1047.50 1052.50 C 1047.50 1098.34 1047.50 1144.17 1047.50 1190.00 C 999.17 1190.00 950.83 1190.00 902.50 1190.00 C 902.50 1144.17 902.50 1098.33 902.50 1052.50 Z" />
<path fill="#ffffff" opacity="1.00" d=" M 1052.50 1052.50 C 1098.33 1052.50 1144.17 1052.50 1190.00 1052.50 C 1190.00 1098.33 1190.00 1144.16 1190.00 1190.00 C 1144.17 1190.00 1098.33 1190.00 1052.50 1190.00 C 1052.50 1144.17 1052.50 1098.34 1052.50 1052.50 Z" />
</g>
</svg>
