<?xml version="1.0" encoding="UTF-8" standalone="no"?>
<!DOCTYPE svg PUBLIC "-//W3C//DTD SVG 1.1//EN" "http://www.w3.org/Graphics/SVG/1.1/DTD/svg11.dtd">
<svg width="100%" height="100%" viewBox="0 0 39 19" version="1.1" xmlns="http://www.w3.org/2000/svg" xmlns:xlink="http://www.w3.org/1999/xlink" xml:space="preserve" xmlns:serif="http://www.serif.com/" style="fill-rule:evenodd;clip-rule:evenodd;stroke-linejoin:round;stroke-miterlimit:2;">
    <g>
        <rect x="0" y="0" width="38.3" height="18.7" style="fill:rgb(109,172,130);"/>
        <g>
            <path d="M6,4.8L6,4.5L5,3.1L4.6,3.1L6,4.8ZM26,3.2C25.6,3.2 25.5,3.2 25.4,3.4L24.4,4.6C24.4,5.1 24.4,5.1 24.2,5.5C24.1,5.8 23.9,5.8 23.7,5.9C23.3,6 23.1,6.3 23.1,6.7L23.5,6.7C24.2,6.7 24.4,6.7 24.5,5.9L24.8,5.4L25.8,3.7L26,3.2ZM12.2,15L13.5,15C13.7,15 13.9,15 14,14.7C14.2,14.3 14.5,14.1 14.8,13.8L15.1,13.4C14.6,13.4 14.4,13.7 14.1,13.8C14,13.5 14.5,13.5 14.2,13.1L12.7,13.1L12.9,13.9L12.9,14C12.7,14 12.7,13.7 12.5,13.7C12.2,14.1 12.1,14.5 12.2,15ZM20.2,12L20.4,12.1L20.7,12.3C20.8,12.2 20.8,12 20.7,11.9L20.6,11.8C20.8,11.6 21,11.8 21.1,11.9L21.1,12.5L22.4,12.4C22.7,12.3 23.2,12.4 23.6,12.5L27.6,12.5C28.1,12.5 28.5,12.2 28.8,11.9L29,11.5L29,9.7C29,9.5 28.8,9.4 28.5,9.3C28.9,8.8 29,8.6 28.9,8L28.7,7.4C28.5,7.2 28.2,7.1 27.9,7.1L19,7.1C18.557,7.07 18.113,7.138 17.7,7.3C17.3,7.1 16.7,7.1 16.3,7.2L14.7,7.2C14.2,7.7 13.7,7.2 13.2,7.2L8.4,7.2L8.4,8.5C8.4,8.9 8.6,9.3 8.4,9.8L8.4,12.4L20,12.4L20.2,11.8L20.2,12ZM10.4,3.6L10.2,3.4C10,3.2 9.9,3.2 9.6,3.3C9.6,3.7 9.8,4.1 9.9,4.4C10.2,4.4 10.3,4.6 10.5,4.5L10.5,3.5C10.9,4.1 11.4,4.6 12.2,4.9C12.6,4.9 12.9,5.3 12.9,5.8L13.1,6.3C13.1,6.4 13.3,6.5 13.5,6.3L13.5,6L13.1,5C13.1,5 12.9,4.8 13.1,4.7C13.5,5 13.7,5.3 13.9,5.7C14.3,6.5 14.7,6.7 15.5,6.5L16.2,6.4C16.3,6 16.3,5.7 16.6,5.4L16.6,6.4C17.2,6.4 17.6,7.1 18.3,6.7L18.3,5.7C18.6,5.7 18.7,5.5 18.8,5.3C18.8,4.8 18.8,4.3 18.5,4L18,3.3C17.011,3.095 15.989,3.095 15,3.3L15.6,4.5C15,4.2 14.8,3.6 14.3,3.3C13.3,3.4 12.3,3.5 11.3,3.3C11.029,3.116 10.671,3.116 10.4,3.3L10.4,3.6ZM21.5,3.5L21.5,4.8L21.7,5L22.3,4.7C22.5,5.2 22.3,5.5 21.9,5.7L21.1,6.4L21,6.8L22.4,6.8C22.7,6.3 23.1,6 23.6,5.8C23.9,5.6 24.1,5.3 24.1,5C24.1,4.7 24.1,4.5 24.4,4.3L24.8,3.7L24.9,3.2L22.9,3.2C22.2,3.2 22.2,3.2 21.5,3.7L21.5,3L21,3C20.8,3 20.6,3.3 20.5,3.2L19.9,3L18.8,3L18.4,3.1L19.1,4.1C19.1,4.5 19.1,5.1 19.5,5.4L20.5,6.6L21.3,5.4L21.1,4.5C21.1,4.1 21.1,3.7 21.5,3.5ZM11.2,13.6L11.4,13.1L10.6,13.1C10.5,13.4 10.2,13.7 9.9,13.9L9.1,14.4C9,14.5 8.9,14.6 8.7,14.5L9,14L9.3,13.3C8.5,13.3 8.5,13.3 8.1,13.5L7.1,13.9C6.7,14 6.3,14.4 5.9,14.6L5.8,15C6.3,15.2 6.8,14.9 7.2,14.7C7.2,15 7.3,15.1 7.5,15C7.7,15 7.8,14.8 7.9,14.6L8.1,15L12,15L12.4,13.2L12.3,13L11.6,13.4L11.3,13.5L11.2,13.6ZM27.1,14.5C26.8,14.4 26.6,14.5 26.3,14.5L25.6,13.8L25.1,13.2C24.9,13 24.7,13 24.5,13.2L24.5,13.6L24.2,13.6C23.9,12.9 23.7,12.9 22.8,13.2L23.1,14L23,14L22.3,13C21.777,13.145 21.223,13.145 20.7,13L19.9,13C19.7,13 19.7,13.2 19.7,13.4L19.6,13.4L19.6,13C19.2,12.8 19,13 18.8,13.2C18.4,13.6 17.8,13.7 17.2,13.8C17.7,13.2 17.7,13.2 18.5,12.9L16.3,12.9L16.3,13.5L16.1,13.1L15.7,12.9L15.2,13.9C15,14.4 14.6,14.5 14.4,14.8C15.4,15.2 16.4,14.5 16.4,13.5C16.5,13.6 16.6,13.8 16.4,14C16.4,14.3 16.1,14.5 16.1,14.9L17.1,14.9L18.3,14.7L19.3,14.7L19.5,13.9L19.7,14.6C19.8,14.9 19.9,14.9 20.2,14.9L22.8,14.9C23.2,14.7 23.5,15 23.9,14.9L24.4,14.9C24.4,14.3 23.9,13.9 23.9,13.4L24.2,13.4C24.3,14 24.7,14.4 25,14.9L27,14.9L27.2,14.7C27.5,14.7 27.3,14.4 27.4,14.2L27.9,14.7C28.4,14.7 28.9,14.7 29.3,14.5L29.3,14.2C30,14.6 30,14.5 30.8,14.6L32.7,14.6C32.7,14.6 32.9,14.6 32.9,14.4L32.4,14C32.7,14 33,14 33.3,14.3C33.5,14.5 33.8,14.6 34.3,14.5C34,14 33.5,14 33.3,13.5L34.3,14L34.3,12.8L33.6,12.4C33.4,12.4 33.2,12.3 33.1,12C33.5,12 33.9,12.4 34.3,12L34.3,10.2C34.1,9.4 34.1,8.6 34.3,7.9L34.3,7.2C33.7,7.2 33.3,7.8 32.8,7.8L33,7.6L33.5,7.2L34.2,6.8L34.3,6.5C33.7,6.5 33.7,6.5 33.2,6.2L33.7,5.7L34.4,5.1L34.4,3.3C33.7,3.6 33.2,3.8 33,4.3C33,4.6 32.8,4.8 32.5,4.9C32.2,5 32,5.3 32,5.7C32,5.9 31.9,6 31.7,6.1L31.2,6.4L30.2,7.1C30.7,7.3 30.9,6.9 31.4,6.8L30.6,7.6L30.1,8C30.1,8.2 29.8,8.2 29.8,8.4L30.2,8.6L29.9,9C30.4,9 30.7,8.7 31.2,8.9L30.4,9.6C30.4,9.9 30.9,9.8 31,10.1C31,10.4 31.2,10.5 31.4,10.6L32.2,11L33.2,12C32.8,12 32.4,11.7 32.2,11.4C31.8,11 31.2,10.9 30.7,10.8L30.4,11C30.5,11.3 30.1,11.2 30.1,11.4L30.6,12.2C30.4,12.3 30.2,11.9 29.9,12C29.9,12.3 30.1,12.4 30.3,12.6L32.4,14C31.7,14 31.2,13.7 30.6,13.4C30.4,13.3 30.2,13.1 29.9,13.2L30.1,13.6C30.1,13.6 30.3,13.8 30.1,14L29.1,13.1C28.7,12.9 28.5,12.8 28.1,13.1L28.1,13.5L27.5,12.9C26.9,12.9 26.3,12.8 25.9,13.2C25.9,13.6 26.1,13.7 26.4,13.9C26.6,14 26.9,14.1 27.1,14.4L27.1,14.5ZM8,4.5L6.9,3.3L6.3,3.3L5.6,3L6.6,5L6.8,5L6.7,4.4L7.2,5L7.8,5.5C7.9,5.7 7.9,6 8.2,6L8.3,5.6L9,6.4L9.3,6.2C10,6.8 10.7,6.7 11.5,6.3C11.4,5.3 10.5,4.9 9.8,4.4L9.3,3.3C9,3 8.4,3 8,3.2L8.2,3.9C8.4,4.1 8.1,4.3 8.2,4.5L8,4.5ZM29.6,6.1L29.4,6.2L29.6,6.2C30.684,5.876 31.655,5.252 32.4,4.4L33.6,3.2C33.2,3.1 32.8,3.2 32.6,3.4L32,4L31.3,4.5C31.6,4 32.1,3.8 32.3,3.2L30.6,3.2L30.1,4.2C29.5,4.1 29.4,4.7 28.9,4.8C29.2,4.2 29.3,4.1 29.8,3.8C30.1,3.7 30.2,3.5 30.1,3.1L29.1,3.1C28.4,3.1 28.4,3.1 27.8,3.6L27.8,3L27,3L26.6,3.3C25.651,4.181 24.931,5.279 24.5,6.5C25.1,6.9 25.4,6.2 25.7,6.1L26.1,6.5L26.3,6.5C27.1,6.7 27.9,6.7 28.6,6C28.8,5.7 29.1,5.5 29.4,5.4C30,5.2 30.4,4.8 30.9,4.5L31.3,4.4L30.6,5C30.3,5.4 29.8,5.6 29.6,6L29.6,6.1ZM7,6.5L6.7,6.3C6.2,5.3 5.5,4.5 4.6,3.9L4.2,3.7L4.2,4.9C4.2,5.2 4.4,5.5 4.6,5.7L4.6,6L4.2,6L4.2,7.8C4.4,8 4.4,8.2 4.2,8.4C4.022,8.709 4.022,9.091 4.2,9.4L5,9.4C5.5,9.5 5.9,9.4 6.3,9.2L6.1,9.4L5.2,9.7C4.8,9.7 4.5,10 4.2,10.3C4.5,10.8 4.2,11.3 4.2,12C4.6,12 4.9,11.8 5.2,11.7L5,12L4.4,12.5C4.1,12.6 4.1,12.9 4.2,13.1C4.4,13.4 4.3,13.6 4.2,13.9C4.2,14.1 4.2,14.2 4.4,14.3L4.2,14.8C4.2,14.9 4.2,15 4.4,15C4.7,15 5,14.9 5.2,14.5C5.3,14.2 5.6,14.1 5.9,13.9C6.4,13.7 6.9,13.3 7.3,12.8L7.5,12.5L7.2,12.5L6.2,13.1C5.7,13.5 5.2,13.7 4.7,13.9C4.8,13.4 5.2,12.9 5.7,12.7L6.1,12.3C6.5,12 6.9,11.7 7.1,11.2L6.5,10.9C6.3,10.9 6.1,10.8 5.9,11C6,10.6 6.1,10.5 6.3,10.6C6.688,10.609 7.07,10.505 7.4,10.3C7.8,10.3 7.9,9.9 7.9,9.6L7.7,8.6L7.5,8.2L7.1,7.9L7.1,7.8C7.3,7.8 7.4,8 7.6,7.8C7.6,7.4 7.1,7.3 7.1,6.9L7.6,7.1L7,6.6L7,6.5ZM30.3,1C30.5,1 30.7,1.2 30.7,1.4C30.8,1.7 30.9,2 30.7,2.4C30.2,2.5 29.6,2.4 28.8,2.6L34.6,2.6C34.8,2.9 34.7,3.2 34.7,3.6L34.7,15.3C34.3,15.5 34,15.4 33.7,15.4C26.867,15.408 20.033,15.408 13.2,15.4L5,15.4L4,15.3L3.9,14.6L3.9,2.8L4.7,2.7L21,2.7C21,2.5 21,2.4 20.8,2.4L20.4,2.4C20.2,2.4 20.1,2.2 20.1,2C20.1,1.8 20.3,1.8 20.5,1.8L20.6,1.8L21.3,2.3C21.8,2.2 21.7,1.8 21.8,1.5L21.5,1.3C21.8,1.1 22,1.1 22,1.3L22.2,2C22.2,2.4 21.8,2.3 21.8,2.7L27.8,2.7C28.1,2.2 27.8,1.7 27.8,1.3C28.5,1.1 29,0.7 29.7,0.6C30,0.6 30.1,0.7 30.1,0.9C29.8,0.9 29.4,0.9 29.2,1.1C28.7,1 28.5,1.4 28.2,1.5L28.2,2.5C28.9,2.3 29.5,2.5 30.2,2.3L30,1.8L30.6,2C30.7,1.6 30.3,1.4 30.3,1ZM36.2,5.4L36.3,5L37.1,4.6C37.3,4.4 37.6,4.6 37.7,4.9L37.7,7C37,7.5 36.3,7.7 35.4,7.6L35,6.6C35.1,6.2 35.3,5.9 35.6,5.8L35.8,6.1C35.1,6.5 35.1,6.5 35.5,7.3C35.9,7.3 36,7 36.2,6.7L36.7,6.8C36.3,6.8 36.1,7.1 35.8,7.5C36.3,7.5 36.7,7.5 37.1,7.2L36.6,6.8L37,6.8L37.2,6.1L37.2,4.8C36.7,4.8 36.5,5.2 36.2,5.4ZM2.2,3.2L2.9,3.4L2.9,3.9L2.6,4.4C2.3,4.9 1.8,5.2 1.1,5.3L0.5,4.3C0.5,3.8 0.7,3.5 0.8,3.1C1,2.8 1.3,2.7 1.6,2.8C1.9,2.8 2.1,3 2.2,3.2L1.2,3.2L1.6,4.4L1.3,4.8C1.9,4.9 2.1,4.6 2.4,4.3C2.2,4 2.5,3.8 2.5,3.5L2.2,3.2M21,17.2C21,17 20.8,16.9 20.7,16.7L20.4,16.9L20.4,17.8L21,18.3C21.3,17.9 21.3,17.9 21.3,17.4L21.7,17.3L21.7,16.9C21.5,16.6 21.3,16.5 20.9,16.6L20.9,17L21.1,17.2M21.5,16.3C22.2,16.9 22,17.5 22,18.1C21.7,18.5 21.3,18.6 20.8,18.5C20.653,18.464 20.517,18.396 20.4,18.3C20,17.9 20.1,16.8 20.7,16.5L21.5,16.3M3.3,15.7C3.6,15.8 3.7,16 3.5,16.1L2.6,16.9L1.6,16.5L1.3,16.1L1.4,15.7L1.8,15.7C2.1,16 2.4,16 2.8,16L3.3,16L3.3,15.7ZM35,17.6C34.9,18 34.6,18.2 34.2,18.2C33.827,18.212 33.493,17.961 33.4,17.6L33.4,17.2L33.4,17.4C33.5,17.6 33.7,17.8 33.9,17.8C34.1,17.8 34.3,17.6 34.4,17.4L34.4,16.7L34.5,17.1C34.5,17.4 34.7,17.5 34.9,17.6M34.8,16.5C34.6,16.5 34.4,16.5 34.4,16.7C34.2,16.5 34,16.5 33.8,16.7L33.7,16.9C33.9,16.2 34.1,16.2 34.7,16.5" style="fill:rgb(82,22,40);"/>
            <path d="M35.1,17.1L34.7,16.5C35,16.6 35.1,16.8 35.1,17.1M35.6,5.8C35.8,5.6 35.9,5.4 36.2,5.4C36.1,5.7 35.9,5.8 35.6,5.8ZM21,1.7C21,1.4 21.2,1.3 21.5,1.3C21.4,1.5 21.2,1.6 20.9,1.6L21,1.7ZM1.6,15.4L1.6,15.3L1.6,15.4ZM33.5,17.2C33.5,17.2 33.5,16.9 33.7,16.9C33.7,17 33.7,17.2 33.5,17.2ZM20.6,1.8C20.6,1.6 20.8,1.7 21,1.7L20.6,1.8ZM35,17.6L35.1,17.1C35.1,17.3 35.1,17.5 34.9,17.6M7.1,6.5L7.1,6.9C7,6.8 7.1,6.6 7.1,6.5ZM29.6,1.3L29.2,1.1L29.6,1.3M28.4,10.7L28.6,11C28.6,11.2 28.4,11.3 28.2,11.3C28.1,11.3 28,11.2 28,11C28,10.9 28.2,10.7 28.4,10.7M23.5,11C23.8,11.3 23.8,11.4 23.7,11.5C23.6,11.6 23.3,11.6 23.3,11.5C23.1,11.4 23.3,11.2 23.3,11.1L23.5,11.1M20.6,11.7L20.2,11.9L20.6,11.7M32.1,8.2L32.2,8.2L32.2,8.3L32,8.3L32,8.2M6.4,9L7.4,9C6.9,9.2 6.9,9.2 6.4,9M6,7.7L6,8L6,7.8M6,10.9L5.8,10.9L6,10.9M31,12.4C31.3,12.4 31.6,12.4 31.9,12.8C31.5,12.8 31.2,12.7 31,12.4M30.6,12.2L31,12.4C30.9,12.4 30.7,12.4 30.6,12.2M31.9,12.8L32,12.8L31.9,12.8M11.2,13.4L11.2,14L11.2,13.4M27.4,13.7C27.1,13.7 26.9,13.7 26.9,13.4L27.4,13.7M29.4,14.2L29,13.9L29,13.8L29.2,13.8L29.4,14.2M27.2,14.7L27,14.3L27.2,14.7M27.4,14.2C27.1,14 27.2,13.9 27.4,13.7L27.4,14.2M8.8,5.4C8.5,5.2 8.2,4.9 8,4.5L8.6,5L8.8,5.4M9.3,6.3C9,6.1 8.8,5.8 8.8,5.3C9.1,5.6 9.3,5.9 9.3,6.3M36,6.5L35.8,6.1L36,6.5M1.3,15.1L1,14.8L1,14C1,13.7 1.4,13.6 1.6,13.7L2.6,14.2L3.6,14.9C3.579,15.731 3.299,16.535 2.8,17.2L1.6,16.9C1.4,16.6 1.2,16.3 1.3,15.9L1.7,15.9C1.6,16.7 1.6,16.7 2.5,16.9C2.6,16.5 2.5,16.2 2.3,15.9L2.7,15.6C2.5,15.9 2.7,16.3 2.8,16.6C3.1,16.3 3.2,15.9 3.2,15.5L2.7,15.6L2.8,15.2C2.8,15 2.6,14.8 2.4,14.8C2.1,14.8 1.8,14.5 1.6,14.3L1.3,14C1.1,14.5 1.3,14.9 1.3,15.2L1.3,15.1Z" style="fill:rgb(82,22,40);"/>
            <path d="M1.3,15.8C1.175,15.584 1.175,15.316 1.3,15.1L1.3,15.8ZM2,15.9L1.6,15.9L2,15.9" style="fill:rgb(82,22,40);"/>
        </g>
    </g>
</svg>
