<?xml version="1.0" encoding="UTF-8" standalone="no"?>
<svg
   width="19"
   height="19.1"
   viewBox="0 0 19 19.1"
   version="1.1"
   xml:space="preserve"
   style="clip-rule:evenodd;fill-rule:evenodd;stroke-linejoin:round;stroke-miterlimit:2"
   id="svg26"
   sodipodi:docname="hq21-rotdm-caltrops_undetectable.svg"
   inkscape:version="1.1.1 (3bf5ae0d25, 2021-09-20)"
   xmlns:inkscape="http://www.inkscape.org/namespaces/inkscape"
   xmlns:sodipodi="http://sodipodi.sourceforge.net/DTD/sodipodi-0.dtd"
   xmlns="http://www.w3.org/2000/svg"
   xmlns:svg="http://www.w3.org/2000/svg"><defs
   id="defs30" /><sodipodi:namedview
   id="namedview28"
   pagecolor="#ffffff"
   bordercolor="#666666"
   borderopacity="1.0"
   inkscape:pageshadow="2"
   inkscape:pageopacity="0.0"
   inkscape:pagecheckerboard="0"
   showgrid="false"
   inkscape:zoom="43.473684"
   inkscape:cx="9.5"
   inkscape:cy="9.5920097"
   inkscape:window-width="1920"
   inkscape:window-height="1012"
   inkscape:window-x="-8"
   inkscape:window-y="-8"
   inkscape:window-maximized="1"
   inkscape:current-layer="svg26" />
    <g
   id="g24"
   transform="translate(0,0.1)">
        <path
   d="m 15,6.7 -0.2,0.2 h -0.1 l -2.4,1.7 0.1,0.1 0.4,-0.1 1.5,-0.4 1,-0.3 h 0.3 c 0,-0.033 0,-0.067 0,-0.1 0,-0.033 0.1,0.1 0.2,0 h 0.3 C 16,8 15.8,8 15.6,8 c 0.2,0.2 0.3,0.4 0.7,0.5 l 1.2,0.5 1,0.4 h 0.1 V 9.2 L 17.7,8.4 16.8,7.7 V 7.3 L 16.6,7 C 16.6,6.8 16.4,6.6 16.2,6.6 L 16,6.4 V 3.5 h -0.1 v 0.2 c -0.403,0.941 -0.737,1.91 -1,2.9 l 0.2,0.1 V 6.8 H 15 V 6.7 M 4.5,7.6 4.8,7.3 V 3.6 L 4.7,3.5 H 4.6 L 4.5,3.8 3.8,5.7 C 3.6,6.3 3.4,6.8 3.4,7.4 V 7.6 L 2.4,8.2 0.2,9.7 V 9.8 H 0.3 L 0.9,9.7 2,9.4 3.8,8.9 H 4 V 8.8 L 4.2,8.9 V 8.6 8.8 H 4.7 L 4.4,9 H 4.2 c 0.2,0.2 0.3,0.4 0.6,0.5 l 0.3,0.1 1.7,0.7 c 0.3,0 0.6,0.2 1,0.4 0,0 0.1,-0.1 0,-0.2 L 6.6,9.3 5.7,8.6 V 8.2 L 5.3,7.6 C 5.3,7.4 5.1,7.3 4.9,7.3 L 4.5,7.6 M 8,5 H 8.7 8.4 L 8.7,5.3 10.2,5.9 9,10 c -0.2,0.7 -0.4,1.4 -0.3,2.1 0,0.2 0,0.3 -0.2,0.4 -1.407,0.923 -2.807,1.857 -4.2,2.8 L 2.5,16.6 H 2.4 c 0,0.2 0.1,0.3 0.2,0.3 H 2.8 L 4.5,16.4 5.9,16 c 1,-0.3 1.9,-0.7 2.9,-0.9 L 9.5,14.9 H 9.8 9 C 8.749,15.038 8.48,15.139 8.2,15.2 H 8.3 L 8.9,15 9,14.7 8,15 7,15.4 c 0.2,0 0.3,-0.2 0.5,-0.3 L 7,15.3 5.6,15.8 H 5.4 l 1.5,-0.6 -2,0.7 H 5.2 L 4.4,16.1 C 3.881,16.249 3.378,16.45 2.9,16.7 H 2.8 L 3.4,16.4 8,14.6 H 8.3 8 v 0.1 h 0.3 l 1,-0.2 0.3,0.1 C 9.5,14.633 9.4,14.667 9.3,14.7 H 9.7 L 9.9,14.8 9.7,14.7 H 10 l 0.1,0.2 V 15 14.3 l 0.3,0.4 0.1,0.1 h 0.7 l 0.2,-0.1 -0.5,0.4 H 10.2 V 15 c 0.3,0.5 0.8,0.9 1.4,1.2 0.9,0.4 1.8,0.8 2.8,1 l 1.6,0.7 1,0.5 c 0.2,0 0.3,0 0.4,-0.2 L 17.3,18 14.9,15.8 c -0.608,-0.603 -1.278,-1.14 -2,-1.6 v -0.3 c 0.2,-0.1 0.2,-0.2 0.1,-0.4 L 12.3,12.2 C 12.229,12.016 12.084,11.871 11.9,11.8 L 11.3,11.5 V 4.6 C 11.2,4.4 11.1,4.4 11,4.5 L 10.6,5.4 10.4,5.8 9.3,4.8 V 4.6 L 9,4.2 H 8.7 v -2 L 8.5,2.4 8,3.8 V 4.2 L 7.9,4.3 7.1,4.8 6.4,5.4 H 6.3 6.4 L 8.1,5 m 9,-5 H 19 V 19 H 0 V 0 H 5.7 L 6,0.1 H 6.3 L 6.4,0.3 6.8,0.1 H 7.2 L 6.7,0.2 h 0.4 c 0,0.033 0,0.067 0,0.1 H 7.6 L 7.4,0.4 8,0.3 v 0.1 h 0.5 c 0.2,0.001 0.4,0.001 0.6,0 L 9.7,0.3 9.2,0.5 c 0.3,0 0.5,0 0.8,-0.2 L 9.8,0.5 c 0.3,0 0.5,-0.2 0.8,-0.3 -0.267,0.114 -0.506,0.285 -0.7,0.5 0.2,0 0.4,-0.3 0.6,-0.2 l -0.3,0.2 0.7,-0.2 h 0.7 l -0.2,0.2 0.2,-0.1 h 0.5 c 0.1,0 0.2,0 0.3,0 h 0.4 L 13.1,0.4 13.3,0.3 V 0.4 L 13.2,0.5 V 0.7 H 13 L 11.8,1.3 H 12 L 11.7,1.5 12.2,1.3 12,1.4 h 0.4 c 0,0.2 -0.1,0.2 -0.2,0.3 h 1.2 c 0,0 0.1,-0.1 0.1,0 h 0.2 c -0.263,0.141 -0.53,0.274 -0.8,0.4 h -0.5 l 0.3,0.1 h 0.8 L 14.2,2 H 15 c 0,-0.1 0,0 0.1,0 h 0.7 l -0.2,0.2 h -0.4 c -0.1,0 -0.1,0.1 0,0.2 h 0.5 c 0.1,0 0.3,0 0.3,-0.3 l 0.1,0.2 -0.5,0.3 H 13.3 L 12.6,2.5 12.4,2.4 V 2.3 H 12 L 11.7,2.2 H 11.3 L 11,2 11.1,1.7 h -0.6 0.3 V 1.6 h -0.3 c 0,0 0,0.1 0,0 l 0.1,-0.1 -0.5,0.1 c 0,-0.2 0.3,-0.2 0.4,-0.3 H 9.6 L 9.4,1.2 H 9.1 9.3 L 9.2,1 8.8,1.1 H 8.7 L 8.4,1 H 7.5 C 7.318,0.98 7.145,0.911 7,0.8 7,0.6 6.9,0.6 6.8,0.6 H 6 V 0.4 H 5.8 C 5.7,0.3 5.5,0.2 5.4,0.3 H 5.3 L 5,0.1 H 4.5 L 6,0.6 7.4,1.1 10,1.7 10.3,1.8 c 0.2,0.3 0.4,0.4 0.7,0.5 l 1.8,0.4 1.3,0.2 1,0.1 h 1.1 L 16.6,2.7 16.9,2.4 C 16.6,2.6 16.2,2.8 15.8,2.8 L 17,2 V 2.2 L 17.3,1.8 V 1.6 C 17.5,1.5 17.5,1.3 17.5,1.1 V 0.4 c 0,-0.2 0,-0.3 -0.2,-0.3 L 17.1,0"
   style="fill:#521628;fill-rule:nonzero"
   id="path2" />
        <path
   d="M 13,2.1 13.4,2 H 13 m 3.3,-1.7 h 0.8 -0.8 M 15,0 15.3,0.2 h 0.5 C 15.702,0.169 15.598,0.169 15.5,0.2 L 15.1,0.1 m 0,0.7 V 0.4 h -0.4 l -0.8,0.4 c -0.2,0 -0.2,0 -0.2,0.2 h 0.4 l 0.7,-0.2 c 0.1,0 0.1,0.1 0.2,0 L 15.1,1 c 0.2,0.1 0.3,0.2 0.5,0.1 H 16.3 16 v 0.2 h 0.2 v 0.1 l -0.1,0.1 h 0.4 v 0.1 h 0.2 L 17,1.3 c 0.1,0 0.1,-0.1 0,-0.2 L 16.9,0.9 H 17 V 0.7 H 15.2 M 5.7,0 h 11.8 l 0.2,0.4 v 0.8 l -0.1,0.5 -0.1,0.2 c 0,0.2 -0.2,0.3 -0.3,0.4 V 2.1 L 16,2.9 c 0.4,0 0.8,-0.2 1,-0.5 L 16.8,2.8 C 16.7,3 16.6,3 16.4,3 L 15.7,3.1 H 15.3 L 14.3,3 13,2.8 11.2,2.4 C 10.9,2.4 10.7,2.2 10.5,1.9 L 10.2,1.7 7.6,1.2 l -3,-1 h 0.7 c 0.2,0 0.4,0 0.5,0.2 L 6,0.5 h 0.3 l 0.2,0.1 h 0.2 c 0.2,0 0.2,0 0.2,0.2 L 7.5,1 h 0.6 c 0,0.1 0.1,0 0.2,0 h 0.1 c 0,0.2 0.2,0.1 0.3,0.2 H 8.8 C 8.9,1.1 9,1 9.2,1.1 V 1.2 L 9,1.3 h 0.6 l 0.1,0.1 h 0.8 l -0.4,0.3 0.5,-0.1 h -0.1 v 0.1 c 0,0.1 0,0 0,0 h 0.3 l -0.3,0.1 h 0.6 v 0.3 h 0.7 l 0.6,0.2 0.2,0.2 h 0.7 l 0.2,0.1 h 2.2 L 16.1,2.4 16.2,2.3 V 2 c 0,0.2 -0.3,0.2 -0.4,0.3 h -0.5 c -0.1,0 -0.1,-0.1 0,-0.2 h 0.4 c 0,0 0.3,0 0.3,-0.2 H 15.2 L 15.1,1.8 H 14.2 L 13.5,2.1 H 12.4 L 12.5,2 h 0.4 L 13.8,1.7 H 13.7 V 1.6 h -0.2 c 0,-0.1 0,0 0,0 h -1.3 c 0,-0.1 0.2,0 0.2,-0.2 h -0.2 l 0.1,-0.1 h -0.2 0.2 -0.5 0.3 c -0.1,0 -0.2,0 -0.3,0 l 1.3,-0.7 c 0.1,0 0.2,-0.1 0.1,-0.2 h 0.1 V 0.2 H 13 l -0.3,0.2 c 0,0 -0.1,0.1 -0.2,0 h -0.2 c 0.1,0 0.1,0 0,-0.1 L 12,0.4 11.8,0.5 h -0.5 0.2 V 0.4 H 10.8 L 10.1,0.6 10.4,0.4 9.8,0.6 C 10,0.3 10.2,0.2 10.5,0.1 L 9.7,0.4 9.9,0.3 c -0.3,0 -0.5,0 -0.8,0.2 L 9.6,0.2 9.1,0.3 H 7.9 V 0.2 L 7.4,0.3 7.6,0.2 H 6.8 L 7.1,0.1 H 6.7 C 6.867,0.034 7.034,-0.033 7.2,-0.1 L 6.8,0 6.4,0.2 6.3,0.1 6,0 Z M 8,4.4 7.9,4.5 H 8 m 3,1.3 V 6 5.8 m 1.8,8 h -0.3 0.3 m -4,-1.1 -0.1,0.2 V 12.7 Z M 12,12 c -0.1,-0.1 -0.1,-0.1 -0.2,0 H 12 m -1.8,1.1 v 0.4 z M 7.7,4.5 c 0.1,0 0.2,0 0.3,-0.2 L 7.7,4.5 m 7,12.8 -0.5,-0.3 0.5,0.3 M 7,5.3 H 6.5 7 m 5.7,8.1 -0.4,-0.3 0.4,0.3 M 11,11 V 10.5 11 m -0.4,0.4 -0.1,-0.2 v 0.3 M 9.3,5.5 8.7,5 9.3,5.4 M 10,11.8 9.8,12.1 10,11.9 v -0.1 m 0.6,-5.4 0.1,-0.8 -0.1,0.8 m -2,-3.2 -0.1,1 V 3.8 L 8.6,3.1 M 11,15.7 10.5,15.1 c 0.1,0.2 0.1,0.4 0.3,0.5 H 11 M 7.2,5.2 H 7.4 L 7.7,5.1 8.1,4.9 7.1,5.2 m 1.7,6.2 0.1,-0.7 0.2,-0.8 -0.3,1.2 v 0.3 m -3,3 -1.4,0.8 1.4,-0.8 M 4.5,15.3 H 4.4 l -1.9,1.2 v 0.2 c 0,-0.2 0.1,-0.2 0.2,-0.3 l 0.9,-0.5 0.9,-0.6 m 9.6,0.2 c -0.2,-0.4 -0.6,-0.6 -1,-1 l 0.1,0.2 1,0.8 m -7,-1.9 -0.7,0.6 1,-0.5 H 7.1 m 6,1.8 0.2,0.2 1.5,0.8 -0.5,-0.3 -1.2,-0.7 M 10,7.3 9.8,8.3 10,7.6 l -0.1,1 0.2,-1 V 7.3 m -1.3,5 V 12.2 L 9,12 9.1,12.1 v 0.1 -0.3 c 0,-0.1 -0.3,-0.2 -0.2,-0.4 v 0.7 m 8.1,5.8 -0.8,-0.5 -0.6,-0.6 0.2,0.5 h 0.1 c 0.3,0.3 0.7,0.4 1,0.6 m -8.7,-4.8 0.1,0.3 0.2,-0.6 -0.6,0.5 0.2,-0.1 v 0.1 l 0.1,-0.2 m 3.4,-1.3 -0.2,-0.2 -0.8,0.7 1,-0.5 m 0,2.5 h 0.2 l 0.8,-0.3 c 0.1,0 0.2,0 0.2,-0.2 -0.5,0 -0.8,0.2 -1.2,0.5 m 0.5,0.6 v 0.1 l 0.4,0.3 0.9,0.5 -1,-0.8 -0.1,0.1 -0.2,-0.2 m -3,-3.6 v -0.5 l 0.4,-2 -0.6,2.4 v -0.1 l 0.2,0.2 m -0.6,1 c -0.709,0.441 -1.378,0.943 -2,1.5 L 6.9,13.5 8,13 8.5,12.5 m 2.3,2.8 0.4,0.5 c 0.8,0.4 1.5,0.8 2.3,1 L 14,17 11.9,16 c -0.3,0 -0.6,-0.3 -0.8,-0.6 v 0.2 L 10.8,15.3 M 10.3,11.7 11,6.5 10.8,7.3 10.1,11.5 v 0.7 c 0,-0.2 0.3,-0.3 0.5,-0.5 z m 0.5,-3 V 9 l -0.2,1.5 V 11 L 10.7,9.9 V 9.3 L 10.8,9 V 8.1 8.5 M 8.1,5 6.5,5.5 H 6.4 V 5.4 L 7.2,4.8 8,4.3 C 8.1,4.2 8.1,4.2 8.2,4.3 V 4.2 C 8.1,4.1 8.1,4 8.2,3.8 8.2,3.4 8.4,2.9 8.6,2.4 L 8.7,2.1 v 2.1 h 0.4 l 0.2,0.4 v 0.2 l 1,1 0.3,-0.4 c 0,-0.3 0.2,-0.6 0.3,-0.8 V 4.5 h 0.3 v 0.1 l 0.1,4.5 v 2.4 l 0.6,0.3 0.4,0.4 0.7,1.3 c 0.1,0.2 0.1,0.3 0,0.4 -0.2,0.1 -0.2,0.2 0,0.3 l 0.1,0.1 c 0.663,0.419 1.268,0.924 1.8,1.5 l 2.4,2.2 v 0.2 c 0,0.3 0,0.3 -0.3,0.2 L 16,17.9 C 15.5,17.6 15,17.5 14.4,17.3 L 11.6,16.2 C 10.974,15.942 10.423,15.529 10,15 h 0.1 l 0.2,0.2 c 0,-0.2 0.1,-0.2 0.2,-0.1 h 0.3 l 0.5,-0.4 h -0.2 c -0.1,0.1 -0.3,0.2 -0.4,0.1 H 10.5 L 10.3,14.3 V 15 c 0,-0.2 -0.1,-0.2 -0.2,-0.2 L 9.8,14.7 10,14.8 H 9.8 L 9.4,14.7 9.2,14.6 H 9.7 8.4 l -0.3,0.1 0.3,-0.2 -0.3,0.1 -4.8,1.8 -0.6,0.3 c 0.51,-0.257 1.047,-0.458 1.6,-0.6 0.3,0 0.5,0 0.8,-0.2 H 4.8 l 2,-0.7 -1.5,0.6 H 5.5 L 6.9,15.3 7.3,15.1 H 7.4 L 6.9,15.4 C 7.234,15.267 7.567,15.134 7.9,15 L 9,14.6 8.9,14.9 8.3,15 H 8.2 9 L 9.3,14.9 H 9.8 9.5 l -0.7,0.2 c -1,0.2 -2,0.6 -2.9,0.9 L 4.5,16.4 C 3.858,16.533 3.224,16.7 2.6,16.9 1.976,17.1 2.3,16.8 2.4,16.7 v -0.1 l 2,-1.4 c 1,-0.8 2.2,-1.6 3.4,-2.3 L 8.5,12.5 8.7,12.1 C 8.7,11.4 8.7,10.7 9,10 L 10.3,6 9.9,5.8 8.8,5.4 8.5,5.1 H 8.8 8 L 8.2,5 H 8.1"
   style="fill:#6dac82;fill-rule:nonzero"
   id="path4" />
        <path
   d="M 0.9,9.3 0.6,9.5 Z M 4.7,3.7 V 4 3.7 M 4.4,4 4.6,3.8 4.4,4 M 6.2,9.1 5.7,8.8 C 5.9,8.8 6,9 6.2,9.1 M 2.3,8.5 2.7,8.3 c -0.2,0 -0.3,0 -0.4,0.2 M 7,10 7.6,10.5 7,10 M 3.5,7.5 H 3.6 V 7.4 L 3.4,7.3 V 7.5 M 4.2,5 V 5.3 5 5.6 5 M 5.9,9.2 6.6,9.7 5.9,9.2 M 3.2,8.1 3.3,7.9 3,8 H 3.2 M 5.5,8.3 C 5.3,8.3 5.1,8.3 5,8.5 H 5.3 L 5.5,8.3 M 4.4,6.7 4.5,5.7 Z M 5.2,9 5.8,9.5 5.2,9 M 3.6,7.1 3.8,5.9 3.6,6.9 V 7.1 M 2.4,8.2 3,8 3.3,7.8 2.3,8.3 M 6.2,10 H 6 L 5,9.6 4.8,9.4 4.5,9.2 c 0.1,0.1 0.2,0.3 0.4,0.3 l 1,0.5 H 6.1 M 4.2,7.2 4.6,5 4,7.5 4.2,7.2 M 3.5,8.7 3,8.8 3.1,8.7 0.5,9.7 H 0.4 L 1,9.6 1.5,9.4 2.4,9.1 1.7,9.3 C 2.1,9.3 2.4,9.1 2.7,9 H 3 L 3.5,8.8 H 3.6 L 3.5,8.9 3.9,8.8 H 3.7 3.9 V 8.7 H 3.6 M 4.5,7.6 4.9,7.3 c 0.2,0 0.3,0 0.4,0.3 l 0.4,0.6 v 0.3 l 0.9,0.8 1.2,1.2 c 0.1,0 0.1,0.1 0,0.2 L 6.8,10.3 5,9.6 4.7,9.5 C 4.4,9.4 4.3,9.2 4.1,8.9 H 4.7 4.3 V 8.8 L 4.1,8.6 V 8.9 L 4,8.8 H 3.7 L 2,9.5 1,9.7 0.4,9.9 C 0.2,9.8 0.2,9.7 0.4,9.7 l 2,-1.5 1,-0.6 0.1,-0.2 C 3.5,6.8 3.7,6.3 3.9,5.7 l 0.7,-2 V 3.6 L 4.8,3.5 v 3.7 c 0.2,0 0.1,0 0,0.1 L 4.6,7.5 M 15.5,4.7 V 5 c 0,0 0.1,0 0,-0.2 m 0.3,0.9 V 6 5.6 M 15.1,6 V 6.4 6 m -1,1.6 0.3,-0.2 c -0.2,0 -0.2,0.1 -0.3,0.2 m 1.2,0.2 -0.2,0.1 h 0.2 -0.1 V 7.8 h 0.1 m 2.2,0.8 -0.6,-0.4 0.6,0.4 m 0.4,0.3 0.4,0.3 -0.4,-0.3 M 14.8,7.3 V 7.1 l -0.2,0.2 h 0.2 M 16.5,8 16.8,8.3 16.5,8 m 0.2,-0.5 c -0.2,0 -0.3,0 -0.4,0.2 l 0.4,-0.2 m -0.6,-1 c 0,0.2 -0.2,0.2 -0.3,0.3 0.1,0 0.3,0 0.4,-0.2 M 14.8,6.9 14.2,7.3 C 14.4,7.2 14.7,7.1 14.8,6.9 M 17.1,8.8 16.3,8.4 16.1,8.2 h -0.2 l -0.1,-0.1 1.3,0.7 m -1.2,-4 -0.4,2 0.2,-0.2 v -1 L 15.9,4.8 M 15,7.8 H 14.7 L 13.1,8.4 12.6,8.6 13.4,8.3 14,8.1 13.6,8.3 14.4,8 14.3,8.1 15,7.8 m 0,-1.1 0.1,0.1 V 6.7 L 15,6.6 V 5.9 L 15.8,3.7 15.9,3.5 H 16 v 2.9 l 0.1,0.2 c 0.3,0 0.4,0.2 0.5,0.4 l 0.2,0.3 v 0.3 l 1,0.8 0.7,0.8 0.1,0.2 H 18.5 L 17.5,9 16.3,8.5 C 15.9,8.4 15.8,8.2 15.6,8 L 16.1,7.9 H 15.8 L 15.7,7.8 V 8 C 15.5,7.8 15.4,7.9 15.3,7.9 c -0.4,0 -0.7,0.2 -1,0.3 L 12.8,8.6 12.4,8.7 H 12.3 V 8.6 c 0.899,-0.668 1.799,-1.335 2.7,-2"
   style="fill:#6dac82;fill-rule:nonzero"
   id="path6" />
        <path
   d="M 15.1,0.8 15.4,0.7 V 0.8 H 17 V 1 L 16.8,1.1 V 1.4 L 17.1,1.3 V 1.5 L 16.5,1.8 16.4,1.7 H 16.2 V 1.5 H 16 V 1.4 l 0.2,-0.1 c -0.167,0.002 -0.333,0.002 -0.5,0 H 15.1 V 1 h -0.3 c 0,0 0,-0.1 0,0 H 14 l -0.2,0.1 c 0,-0.1 0,-0.2 0.2,-0.2 l 0.6,-0.3 h 0.6 V 0.7 M 13,2.1 13.4,2 13,2.2 V 2"
   style="fill:#521628;fill-rule:nonzero"
   id="path8" />
        <path
   d="m 17.2,1.2 c 0,0.2 0,0.3 -0.2,0.3 l 0.2,-0.3 m -6.9,10.5 h 0.2 L 10,12.2 V 11.5 L 10.2,10.4 10.8,7.3 11,6.5 c -0.2,1.7 -0.6,3.4 -0.7,5.2 m 0.5,3.6 0.3,0.3 v -0.2 c 0.2,0.3 0.5,0.5 0.8,0.6 l 2,1 -0.4,-0.1 -2.3,-1 -0.4,-0.6 M 8.5,12.5 8,13 7,13.5 6.5,13.9 c 0.626,-0.522 1.295,-0.99 2,-1.4 M 9,11.4 V 11.2 L 8.9,11.3 C 8.9,10.5 9.2,9.7 9.5,8.9 L 9.4,9.4 9,11 v 0.5 m 3.1,3.5 0.2,0.2 c 0,0 0,-0.1 0.1,0 l 1,0.7 -1,-0.5 -0.3,-0.3 V 15 m -0.5,-0.5 c 0.4,-0.3 0.7,-0.6 1.2,-0.6 0,0.1 0,0.2 -0.2,0.2 -0.3,0 -0.5,0.2 -0.8,0.3 l -0.2,0.1"
   style="fill:#521628;fill-rule:nonzero"
   id="path10" />
        <path
   d="m 10.8,8.6 v 0.8 l -0.1,0.6 -0.2,1 v 0.1 -0.5 L 10.7,9.1 V 8.7 h 0.1 z m 0.8,3.3 -1,0.5 c 0.2,-0.2 0.5,-0.5 0.8,-0.6 v -0.1 l 0.2,0.2 M 8.2,13.3 8.1,13.4 H 7.8 L 8.5,12.9 8.3,13.6 V 13.3 M 17,18 C 16.6,17.8 16.2,17.7 16,17.3 H 15.8 L 15.5,17 16.2,17.5 Z M 8.8,12.3 V 11.6 C 8.7,11.8 8.9,11.9 9,12 v 0.3 L 8.9,12.1 8.8,12.2 M 10,7.3 v 0.3 l -0.1,1 0.1,-1 -0.2,0.6 0.2,-1 m 3.2,8.3 1.2,0.7 0.5,0.3 -1.5,-0.8 -0.2,-0.1 m -6,-2 v 0.1 h 0.2 l -1,0.5 0.8,-0.6 m 6.9,1.9 -0.9,-0.8 v -0.1 l 1,0.9 m -9.7,-0.2 -1,0.6 -0.8,0.5 c -0.1,0 -0.2,0.1 -0.2,0.3 v -0.2 l 1.9,-1.2 m 1.4,-0.9 -1.4,0.8 1.3,-0.8 m 4.9,-8.8 c 0,-0.3 0.2,-0.5 0.3,-0.8 0,0.3 -0.1,0.6 -0.3,0.8 M 8.8,11.4 V 11.1 L 9,9.9 8.8,10.7 8.7,11.4 M 7.2,5.2 c 0.3,0 0.6,-0.3 1,-0.3 L 7.7,5.1 H 7.3 L 7.2,5.2 M 11,5.6 11.1,4.8 11,5.6 m 0,10.1 -0.2,-0.1 c -0.2,0 -0.2,-0.3 -0.3,-0.4 L 11,15.7 M 8.6,3.2 v 1 H 8.5 v -1 H 8.6 M 11.9,16 c -0.2,0 -0.4,-0.2 -0.6,-0.4 L 11.9,16 M 10,11.9 c 0,0.2 -0.1,0.3 -0.2,0.3 0,-0.1 0,-0.2 0.2,-0.3 M 9.3,5.5 8.7,5.2 9.3,5.5 m 1.3,6.7 -0.2,0.4 0.2,-0.4 m 0,-0.8 -0.2,0.2 v -0.4 l 0.2,0.2 M 11,11 V 10.5 11 m 1.7,2.4 -0.3,-0.3 0.4,0.3 M 7,5.2 6.6,5.4 7.1,5.2"
   style="fill:#521628;fill-rule:nonzero"
   id="path12" />
        <path
   d="M 14.7,17.3 14.1,17.1 Z"
   style="fill:#521628"
   id="path14" />
        <path
   d="M 7.7,4.6 8,4.3 C 7.9,4.4 7.8,4.5 7.7,4.6 m 2.5,8.5 v 0.4 -0.3 M 12,12 H 11.7 12 m -3.3,0.7 v 0.2 -0.2 m 4.1,1.2 h -0.3 0.3 M 11,5.8 V 6 5.7 m -0.2,3 V 8.2 Z M 8,5 H 8.2 V 4.9 H 8.3 8.1 M 8,4.4 V 4.6 H 7.9 L 8,4.4 M 3.6,8.7 H 3.5 C 3.236,8.84 2.97,8.973 2.7,9.1 V 9 L 1.7,9.4 2.4,9.1 1.5,9.4 1,9.6 0.4,9.8 0.6,9.7 3.1,8.7 H 3.2 V 8.8 H 3.6 Z M 4.3,7.2 c 0,0.1 0,0.2 -0.2,0.3 L 4.5,4.9 4.3,7.2 M 6,10 4.9,9.4 C 4.7,9.4 4.6,9.3 4.5,9.1 L 5.1,9.5 6,9.9 M 2.3,8.3 3.3,7.7 3,8 2.3,8.4 M 3.6,7 c 0,-0.4 0,-0.8 0.2,-1 0,0.3 -0.3,0.7 -0.2,1 M 5.1,9 C 5.4,9 5.6,9.2 5.8,9.4 L 5,9"
   style="fill:#521628;fill-rule:nonzero"
   id="path16" />
        <path
   d="M 3.5,8.7 H 4 3.8 L 4,8.8 3.5,8.9 3.7,8.8 Z m 0.9,-2 v -1 h 0.1 l -0.1,1 M 5.5,8.4 5.2,8.5 4.9,8.7 5.5,8.4 M 3.2,8 3,8.1 3.3,7.9 V 8.2 L 3.2,8.1 M 5.7,9.3 C 6,9.3 6.3,9.5 6.6,9.7 L 5.7,9.3 M 4.1,5 V 5.7 5.2 5.3 5 M 3.5,7.5 V 7.3 L 3.6,7.4 V 7.6 7.5 H 3.5 M 7,10 7.6,10.5 7,10 M 2.3,8.5 2.6,8.3 H 2.7 L 2.3,8.5 M 6.2,9.1 C 6,9.1 5.9,8.9 5.7,8.8 L 6.2,9.1 M 4.4,4 C 4.434,3.933 4.467,3.867 4.5,3.8 V 4"
   style="fill:#521628;fill-rule:nonzero"
   id="path18" />
        <path
   d="M 4.7,3.7 4.6,4.1 V 3.7 Z"
   style="fill:#521628"
   id="path20" />
        <path
   d="M 0.9,9.3 0.6,9.5 0.9,9.3 M 15,7.8 14.3,8.1 13.6,8.3 14,8.1 13.4,8.3 12.6,8.6 13.1,8.4 14.7,7.8 H 15 m 0.8,-3 v 0.8 l -0.2,0.9 v 0.1 l -0.1,0.1 0.3,-1.9 m 1.3,4 C 16.7,8.6 16.1,8.5 15.8,8.1 l 0.3,0.2 1,0.5 M 14.8,6.9 c -0.1,0.3 -0.4,0.3 -0.6,0.5 l 0.6,-0.5 m 1.3,-0.3 -0.3,0.3 0.3,-0.3 m 0.6,1 -0.4,0.1 0.3,-0.2 M 16.4,8 c 0.2,0 0.3,0.2 0.4,0.3 L 16.4,8.1 M 14.8,7.4 V 7.3 H 14.6 L 14.8,7.1 V 7.4 M 18,8.9 18.3,9.2 17.9,8.9 M 17.5,8.6 16.9,8.3 17.5,8.6 M 15.3,7.8 H 15.2 L 15,8 15.3,7.9 M 14,7.6 14.4,7.4 14.1,7.6 M 15.1,6 V 6.5 6 M 15.8,5.6 V 6 5.5 M 15.5,4.7 V 5 4.8"
   style="fill:#521628;fill-rule:nonzero"
   id="path22" />
    </g>
</svg>
