<?xml version="1.0" encoding="UTF-8" standalone="no"?>
<svg
   width="19.018"
   height="19.056"
   viewBox="0 0 19.018 19.056"
   version="1.1"
   xml:space="preserve"
   style="clip-rule:evenodd;fill-rule:evenodd;stroke-linejoin:round;stroke-miterlimit:2"
   id="svg9"
   sodipodi:docname="hq21-fh-swingingaxe_undetectable.svg"
   inkscape:version="1.1.1 (3bf5ae0d25, 2021-09-20)"
   xmlns:inkscape="http://www.inkscape.org/namespaces/inkscape"
   xmlns:sodipodi="http://sodipodi.sourceforge.net/DTD/sodipodi-0.dtd"
   xmlns="http://www.w3.org/2000/svg"
   xmlns:svg="http://www.w3.org/2000/svg"><defs
   id="defs13" /><sodipodi:namedview
   id="namedview11"
   pagecolor="#ffffff"
   bordercolor="#666666"
   borderopacity="1.0"
   inkscape:pageshadow="2"
   inkscape:pageopacity="0.0"
   inkscape:pagecheckerboard="0"
   showgrid="false"
   inkscape:zoom="39.333333"
   inkscape:cx="9.9661017"
   inkscape:cy="9.5084746"
   inkscape:window-width="1920"
   inkscape:window-height="1012"
   inkscape:window-x="-8"
   inkscape:window-y="-8"
   inkscape:window-maximized="1"
   inkscape:current-layer="svg9" />
    <g
   transform="rotate(90,9.509,9.509)"
   id="g7">
        <g
   id="Page-1">
            <g
   id="swingingaxe">
                <g
   id="fh-swingingaxeHQ21">
                    <path
   id="Fill-7699"
   d="M 0,0 H 19.056 V 19.018 H 0 Z"
   style="fill:#6dac82" />
                    <path
   id="Fill-7701"
   d="m 2.657,6.167 c 0.401,0.019 0.686,0.048 0.97,0.044 2.685,-0.031 4.347,2.464 3.145,4.726 -0.717,1.347 -2.016,2.022 -3.671,1.916 -0.085,-0.005 -0.175,0.076 -0.26,0.116 0.829,2.632 3.563,4.671 6.497,4.685 3.191,0.016 6.367,-2.041 6.943,-4.61 -1.305,-0.079 -2.503,-0.349 -3.454,-1.33 -0.954,-0.983 -1.265,-2.055 -0.725,-3.286 0.56,-1.277 1.493,-2.147 3.046,-2.206 0.235,-0.009 0.475,0.048 0.709,0.03 0.518,-0.039 0.692,-0.392 0.4,-0.811 C 16.09,5.201 15.836,5.008 15.704,4.755 15.187,3.767 14.395,3.038 13.427,2.463 11.006,1.023 8.182,1.01 5.819,2.353 4.316,3.208 3.427,4.492 2.657,6.167"
   style="fill:#521628" />
                </g>
            </g>
        </g>
    </g>
</svg>
