<?xml version="1.0" encoding="UTF-8" standalone="no"?>
<svg
   width="110.58932"
   height="111.11845"
   viewBox="0 0 110.58932 111.11845"
   version="1.1"
   xml:space="preserve"
   style="clip-rule:evenodd;fill-rule:evenodd;stroke-linejoin:round;stroke-miterlimit:2"
   id="svg85"
   sodipodi:docname="hq21-speartrap_undetectable.svg"
   inkscape:version="1.1.1 (3bf5ae0d25, 2021-09-20)"
   xmlns:inkscape="http://www.inkscape.org/namespaces/inkscape"
   xmlns:sodipodi="http://sodipodi.sourceforge.net/DTD/sodipodi-0.dtd"
   xmlns="http://www.w3.org/2000/svg"
   xmlns:svg="http://www.w3.org/2000/svg"
   xmlns:serif="http://www.serif.com/"><defs
   id="defs89" /><sodipodi:namedview
   id="namedview87"
   pagecolor="#ffffff"
   bordercolor="#666666"
   borderopacity="1.0"
   inkscape:pageshadow="2"
   inkscape:pageopacity="0.0"
   inkscape:pagecheckerboard="0"
   showgrid="false"
   inkscape:zoom="7.375"
   inkscape:cx="55.186441"
   inkscape:cy="55.59322"
   inkscape:window-width="1920"
   inkscape:window-height="1012"
   inkscape:window-x="-8"
   inkscape:window-y="-8"
   inkscape:window-maximized="1"
   inkscape:current-layer="svg85" />
    <g
   transform="matrix(1.0698,0,0,1.0698,-2467.2175,-4012.4815)"
   id="g83">
        <g
   id="Spear-Trap"
   serif:id="Spear Trap">
            <g
   transform="matrix(3.53294,0,0,3.53294,2064.08,3687.96)"
   id="g4">
                <rect
   x="68.543999"
   y="17.754"
   width="29.26"
   height="29.4"
   style="fill:#6dac82"
   id="rect2" />
            </g>
            <path
   d="m 2377.86,3779.47 c 0.29,0.24 0.65,2.03 0.25,2.59 v 0.07 c -0.07,-0.02 -0.12,-0.04 -0.19,-0.07 -0.17,-0.42 -0.24,-1.73 -0.5,-2.03 0,-0.32 0.03,-0.45 0.13,-0.63 0.16,0.04 0.25,0.04 0.31,0.07"
   style="fill:#6dac82;fill-rule:nonzero"
   id="path6" />
            <path
   d="m 2376.37,3780.82 c 0.13,-0.12 0.24,-0.27 0.31,-0.43 0.15,0.04 0.14,0.06 0.25,0.12 0.03,1.11 1.02,3.26 0.37,3.97 -0.06,0.05 -0.01,0.01 -0.12,0.06 -0.18,-0.51 -0.07,-1.04 -0.25,-1.61 -0.2,-0.66 -0.56,-1.29 -0.56,-2.11"
   style="fill:#6dac82;fill-rule:nonzero"
   id="path8" />
            <path
   d="m 2376.37,3780.51 h -0.12 v -0.06 h -0.06 c 0.08,-0.15 0.17,-0.29 0.25,-0.43 0.06,0.02 0.12,0.04 0.18,0.06 v 0.12 c -0.09,0.1 -0.17,0.2 -0.25,0.31"
   style="fill:#6dac82;fill-rule:nonzero"
   id="path10" />
            <path
   d="m 2375.44,3781.69 c 0.02,-0.44 0.13,-0.52 0.25,-0.8 0.07,0.02 0.13,0.03 0.19,0.06 -0.07,0.62 0.33,1.49 0.56,2.23 0.19,0.63 0,1.19 0.18,1.79 0.1,0.33 0.33,1.01 0.06,1.36 -0.06,0.05 -0.01,0.02 -0.12,0.06 -0.35,-1 -0.5,-2.13 -0.8,-3.09 -0.17,-0.52 0.02,-1.28 -0.32,-1.61"
   style="fill:#6dac82;fill-rule:nonzero"
   id="path12" />
            <path
   d="m 2372.91,3785.04 c 0.08,-0.84 0.66,-0.88 1.05,-1.36 0.15,-0.2 0.21,-0.45 0.37,-0.62 -0.04,-0.21 -0.07,-0.19 -0.12,-0.38 0.26,-0.13 0.38,-0.34 0.55,-0.55 0.11,0.04 0.06,0.02 0.13,0.06 0.28,0.43 0.19,1.49 0.37,2.04 0.25,0.8 0.34,1.72 0.62,2.6 0.12,0.38 0.45,1.06 0.31,1.62 -0.19,0.65 -0.42,1.28 -0.68,1.91 -0.13,-0.03 -0.12,-0.02 -0.19,-0.06 -0.39,-0.53 -0.55,-1.49 -0.81,-2.17 -0.21,-0.56 -0.74,-0.99 -0.99,-1.55 -0.24,-0.54 -0.27,-1.12 -0.61,-1.54"
   style="fill:#6dac82;fill-rule:nonzero"
   id="path14" />
            <path
   d="m 2372.04,3788.31 c -0.28,-0.56 -0.32,-1.31 -0.68,-1.79 0.06,-0.53 0.56,-0.76 0.8,-1.12 0.11,0.04 0.06,0.02 0.13,0.06 0.47,0.38 0.5,1.37 0.81,1.92 0.17,0.32 0.58,0.66 0.74,0.99 0.06,0.27 0.12,0.54 0.18,0.8 0.18,0.4 0.49,0.86 0.62,1.31 v 0.61 c 0.13,0.46 0.47,0.87 0.25,1.55 -0.08,0.24 -0.35,0.56 -0.43,0.8 -0.14,0.44 0.07,0.68 -0.19,0.93 -0.06,0.07 0,0.01 -0.06,0.06 -0.52,-1.12 -0.9,-2.6 -1.3,-3.77 -0.12,-0.52 -0.25,-1.03 -0.37,-1.55 -0.11,-0.25 -0.38,-0.56 -0.5,-0.8"
   style="fill:#6dac82;fill-rule:nonzero"
   id="path16" />
            <path
   d="m 2370.12,3787.88 c 0.09,-0.39 0.44,-0.62 0.62,-0.93 0.11,0.04 0.06,0.01 0.13,0.06 0.29,0.36 0.21,0.91 0.43,1.36 0.18,0.38 0.53,0.83 0.68,1.24 0.14,0.38 0.06,0.66 0.18,1.05 0.23,0.74 0.46,1.53 0.75,2.29 0.16,0.42 0.28,0.95 0.49,1.43 0.11,0.24 0.35,0.46 0.43,0.74 h 0.06 v 0.06 c -0.47,0.17 -0.66,0.3 -0.86,0.74 -0.6,-0.13 -0.58,-1.32 -0.8,-1.85 -0.66,-1.56 -1.34,-3.37 -2.05,-4.89 -0.2,-0.44 0.14,-0.94 -0.06,-1.3"
   style="fill:#6dac82;fill-rule:nonzero"
   id="path18" />
            <path
   d="m 2370.92,3794.07 c -0.46,-1.19 -1.96,-3.1 -1.36,-4.52 0.11,0.04 0.06,0.01 0.12,0.06 0.43,0.37 0.51,1.25 0.75,1.8 0.28,0.65 0.45,1.42 0.74,2.1 0.12,0.29 0.39,0.63 0.5,0.93 0.27,0.77 0.3,1.52 0.74,2.11 -0.08,0.12 -0.19,0.22 -0.31,0.3 -0.06,0.07 0.01,0.01 -0.07,0.06 -0.5,-0.85 -0.72,-1.85 -1.11,-2.84"
   style="fill:#6dac82;fill-rule:nonzero"
   id="path20" />
            <path
   d="m 2369.38,3793.57 c -0.24,-0.57 -0.68,-1.21 -0.37,-1.98 0.06,0.02 0.12,0.04 0.19,0.06 0.3,1.13 0.87,1.99 1.23,2.98 0.31,0.81 0.51,2.01 0.99,2.66 -0.02,0.21 0,0.2 -0.12,0.3 -0.06,0.07 0.01,0.01 -0.07,0.06 -0.73,-1.3 -1.22,-2.61 -1.85,-4.08"
   style="fill:#6dac82;fill-rule:nonzero"
   id="path22" />
            <path
   d="m 2369.13,3799.27 c -0.03,0.32 -0.12,0.3 -0.25,0.49 h -0.12 c -0.05,-0.06 0,-0.01 -0.06,-0.06 0.03,-0.25 0.11,-0.43 0.18,-0.62 0.06,0.02 0.13,0.05 0.19,0.07 0.04,0.1 0.01,0.06 0.06,0.12"
   style="fill:#6dac82;fill-rule:nonzero"
   id="path24" />
            <path
   d="m 2368.51,3793.7 c 0.36,0.28 0.34,0.93 0.56,1.36 0.1,0.21 0.33,0.48 0.43,0.68 0.2,0.4 0.21,0.81 0.44,1.18 0.26,0.44 0.61,0.83 0.74,1.42 -0.2,0.2 -0.31,0.45 -0.56,0.62 -0.06,0.07 0.01,0.01 -0.06,0.06 -0.28,-0.41 -0.62,-0.85 -0.81,-1.36 -0.04,-0.31 -0.08,-0.62 -0.12,-0.93 -0.07,-0.25 -0.29,-0.57 -0.37,-0.8 -0.21,-0.62 -0.22,-1.15 -0.56,-1.61 0,-0.33 0.03,-0.5 0.13,-0.68 0.12,0.02 0.12,0.02 0.18,0.06"
   style="fill:#6dac82;fill-rule:nonzero"
   id="path26" />
            <path
   d="m 2368.7,3771.98 c 0.06,-0.08 0.12,-0.16 0.18,-0.24 h 0.13 c -0.03,0.03 -0.21,0.33 -0.31,0.24"
   style="fill:#6dac82;fill-rule:nonzero"
   id="path28" />
            <path
   d="m 2368.39,3798.59 c -0.38,-0.68 -0.87,-2.11 -0.62,-2.72 0.11,0.04 0.06,0.01 0.12,0.06 0.46,0.57 0.3,1.7 0.74,2.29 -0.04,0.22 -0.04,0.21 -0.18,0.31 -0.06,0.07 0,0 -0.06,0.06"
   style="fill:#6dac82;fill-rule:nonzero"
   id="path30" />
            <path
   d="m 2367.4,3798.34 c 0.04,0.02 0.08,0.04 0.12,0.06 -0.02,0.13 -0.01,0.12 -0.05,0.18 -0.06,0.08 0,0.01 -0.07,0.07 -0.06,-0.07 0.01,-0.01 -0.06,-0.07 0.02,-0.13 0.03,-0.15 0.06,-0.24"
   style="fill:#6dac82;fill-rule:nonzero"
   id="path32" />
            <path
   d="m 2364.61,3775.25 c 0.32,-0.47 0.92,-0.7 1.24,-1.17 h 0.12 v 0.06 h -0.06 c -0.17,0.26 -1.04,1.11 -1.36,1.17 v -0.06 z"
   style="fill:#6dac82;fill-rule:nonzero"
   id="path34" />
            <path
   d="m 2360.96,3778.47 -0.25,0.18 z"
   style="fill:#6dac82"
   id="path36" />
            <path
   d="m 2360.59,3778.78 c -0.12,0.2 -0.27,0.38 -0.56,0.43 v -0.06 h 0.06 c 0.13,-0.18 0.32,-0.25 0.44,-0.43 h 0.13 v 0.06 z"
   style="fill:#6dac82;fill-rule:nonzero"
   id="path38" />
            <path
   d="m 2353.47,3789.24 c 0.18,-0.83 -0.27,-1.68 -0.2,-2.42 0.03,-0.19 0.09,-0.37 0.2,-0.55 0.1,-0.01 0.13,-0.01 0.19,0.19 0.16,-0.19 0.12,-0.38 0.25,-0.63 0.1,-0.07 0.2,-0.16 0.31,-0.25 0.3,-0.64 -0.32,-1.28 0.25,-1.78 l -0.13,-0.13 c 0.26,-0.74 0.89,-0.95 1.3,-1.49 0.11,-0.14 0.16,-0.33 0.31,-0.43 0.12,-0.02 0.25,-0.04 0.37,-0.06 0.15,-0.08 0.29,-0.34 0.44,-0.43 0.12,-0.04 0.24,-0.09 0.37,-0.13 0.49,-0.33 0.88,-0.89 1.36,-1.24 0.53,-0.38 1.07,-0.67 1.61,-1.04 1.69,-1.2 3.05,-2.78 4.7,-4.03 0.4,-0.3 0.71,-0.81 1.11,-1.11 0.9,-0.66 1.73,-1.32 2.6,-1.98 0.27,-0.21 0.48,-0.55 0.75,-0.75 0.37,-0.27 0.83,-0.5 1.11,-0.86 h 0.12 c 0.06,0.06 0,0 0.07,0.06 -0.19,0.5 -1.11,0.89 -1.42,1.42 h -0.07 v 0.06 c 0.47,-0.16 0.72,-0.69 1.12,-0.93 0.66,-0.38 1.18,-0.79 1.79,-1.23 0.18,-0.21 0.37,-0.42 0.56,-0.62 0.36,-0.27 0.74,-0.48 1.05,-0.81 0.01,-0.08 0.01,-0.08 -0.12,-0.18 0.07,-0.19 0.18,-0.34 0.33,-0.47 0.42,-0.36 1.11,-0.46 1.59,-0.71 0.23,-0.13 0.5,-0.36 0.73,-0.49 0.31,-0.16 0.7,-0.2 0.93,-0.44 0.02,-0.1 0.05,-0.2 0.06,-0.31 0.19,-0.29 0.72,-0.66 1,-0.86 0.06,-0.1 0.15,0.06 0.24,0.12 0.19,-0.19 0.41,-0.32 0.56,-0.55 0.2,0.02 0.34,0.06 0.49,0.12 0.16,-0.31 0.32,-0.75 0.56,-0.99 0.06,-0.06 0,0 0.06,-0.06 0.06,0.06 0,0 0.07,0.06 -0.15,0.38 -0.29,0.85 -0.56,1.11 v 0.13 h 0.06 v -0.07 c 0.44,-0.17 0.51,-0.85 0.75,-1.23 0.41,-0.67 0.96,-1.27 1.48,-1.86 0.08,0.06 0.12,0.12 0.19,0.19 -0.05,0.48 -0.25,0.74 -0.38,1.11 -0.06,0.41 -0.12,0.83 -0.18,1.24 -0.19,0.53 -0.43,1.33 -0.62,1.92 -0.07,0.21 -0.26,1.76 -0.19,1.97 0.03,0.09 0.23,0.26 0.25,0.31 0.06,0.24 -0.33,1.42 -0.43,1.68 -0.16,0.38 -0.51,0.6 -0.69,0.92 -0.18,0.38 -0.14,0.75 -0.37,1.06 -0.15,0.21 -0.51,0.3 -0.61,0.56 -0.17,0.38 0.02,1.02 -0.19,1.36 -0.16,0.14 -0.33,0.29 -0.49,0.43 -0.23,0.31 -0.34,0.68 -0.56,0.99 -0.34,0.47 -0.9,0.82 -1.24,1.3 -0.29,0.42 -0.4,1.18 -0.8,1.49 -0.08,0 -0.03,0.04 -0.12,-0.07 -0.58,0.16 -0.46,1.05 -0.88,1.36 -0.39,0.31 -0.77,0.57 -1.17,0.87 -0.17,0.19 -0.33,0.37 -0.49,0.55 -0.74,0.5 -1.38,0.82 -1.86,1.55 -0.26,-0.05 -0.23,-0.03 -0.25,-0.31 -0.72,0.44 -1.44,0.93 -2.17,1.36 0.06,1.05 -0.37,1.96 -0.73,2.79 -0.25,0.57 -0.25,1.1 -0.5,1.67 -0.22,0.49 -0.53,1.11 -0.74,1.61 -0.13,0.3 -0.06,0.51 -0.19,0.8 -0.14,0.33 -0.39,0.77 -0.5,1.12 -0.09,0.31 -0.03,0.62 -0.18,0.86 -0.12,0.14 -0.17,0.07 -0.25,0.13 -0.27,0.24 -0.23,0.67 -0.43,0.99 -0.09,0.13 -0.34,0.12 -0.44,0.25 -0.06,0.16 -0.12,0.33 -0.18,0.49 -0.21,0.32 -0.62,0.57 -0.93,0.81 -0.26,0.2 -0.3,0.52 -0.49,0.8 -0.14,0.2 -0.44,0.35 -0.56,0.56 -0.16,0.26 -0.06,0.58 -0.19,0.86 -0.05,0.11 -0.24,0.27 -0.31,0.38 -0.41,0.68 -0.71,1.35 -1.17,1.98 -0.19,0.16 -0.37,0.33 -0.56,0.49 -0.17,0.24 -0.19,0.45 -0.43,0.62 -0.17,0.09 -0.42,0.01 -0.74,0.12 -0.33,0.12 -0.78,0.65 -1.3,0.5 -0.15,-0.04 -0.24,-0.2 -0.38,-0.25 -0.04,0.06 -0.3,0.24 -0.37,0.25 -0.06,0.01 -0.15,-0.12 -0.18,-0.13 -0.42,-0.1 -1.21,-0.05 -1.55,0.07 -0.58,0.19 -1.01,0.85 -1.42,0.98 -0.06,0.06 -0.02,0.03 -0.13,0.07 -0.5,-0.82 -0.37,-2.43 -0.37,-3.78 v -5.75 c 0,-1.15 -0.1,-2.2 0.12,-3.28 m 7.06,-10.52 c -0.12,0.18 -0.31,0.25 -0.43,0.43 h -0.06 v 0.06 c 0.28,-0.05 0.42,-0.23 0.55,-0.43 h 0.07 v -0.06 z m 0.18,-0.06 c 0.07,-0.02 0.13,-0.04 0.19,-0.06 0.02,-0.05 0.04,-0.09 0.06,-0.13 h -0.12 c -0.04,0.06 -0.08,0.13 -0.13,0.19 m 5.14,-4.58 c -0.31,0.47 -0.91,0.7 -1.24,1.17 h -0.06 v 0.07 c 0.32,-0.07 1.2,-0.92 1.36,-1.18 h 0.06 v -0.06 z m 3.16,-2.35 h -0.12 c -0.07,0.08 -0.13,0.16 -0.19,0.24 0.11,0.09 0.29,-0.2 0.31,-0.24"
   style="fill:#6dac82;fill-rule:nonzero"
   id="path40" />
            <path
   d="m 2352.22,3786.64 c 0.31,-1.44 -0.21,-3.31 0.58,-4.46 0.21,-0.3 0.56,-0.44 0.87,-0.67 0.04,-0.1 0.08,-0.21 0.11,-0.31 0.24,-0.27 0.52,-0.34 0.82,-0.56 0.22,-0.27 0.45,-0.53 0.67,-0.81 0.76,-0.46 1.34,-1.01 2.05,-1.48 0.26,-0.18 0.54,-0.24 0.8,-0.43 0.62,-0.45 1.16,-1.11 1.8,-1.55 0.75,-0.53 1.65,-0.88 2.41,-1.42 0.31,-0.33 0.62,-0.66 0.93,-0.99 h 0.37 c 0.22,-0.11 0.39,-0.49 0.62,-0.62 0.36,-0.21 0.71,-0.27 1.05,-0.49 0.11,-0.08 0.04,-0.23 0.12,-0.32 0.23,-0.24 0.61,-0.34 0.81,-0.61 0.34,-0.47 0.78,-0.79 1.11,-1.24 0.1,-0.13 0.13,-0.33 0.25,-0.43 0.62,-0.58 1.57,-0.77 2.29,-1.24 0.5,-0.33 0.89,-0.89 1.36,-1.24 0.56,-0.42 1.11,-0.84 1.66,-1.26 l 0.9,0.92 c -0.15,0.12 -0.26,0.29 -0.33,0.47 0.14,0.09 0.13,0.09 0.12,0.18 -0.31,0.32 -0.69,0.53 -1.05,0.8 -0.19,0.21 -0.37,0.42 -0.56,0.62 -0.61,0.45 -1.13,0.85 -1.8,1.24 -0.4,0.23 -0.64,0.76 -1.11,0.93 v -0.06 h 0.06 c 0.33,-0.53 1.24,-0.93 1.43,-1.43 -0.07,-0.06 0,0.01 -0.06,-0.06 h -0.13 c -0.28,0.36 -0.74,0.59 -1.11,0.87 -0.27,0.19 -0.48,0.54 -0.74,0.74 -0.88,0.67 -1.71,1.33 -2.6,1.98 -0.41,0.3 -0.71,0.81 -1.11,1.11 -1.65,1.25 -3.01,2.83 -4.71,4.03 -0.54,0.38 -1.08,0.67 -1.61,1.05 -0.48,0.35 -0.87,0.9 -1.36,1.23 -0.12,0.05 -0.25,0.09 -0.37,0.13 -0.14,0.1 -0.29,0.36 -0.43,0.44 -0.13,0.02 -0.25,0.03 -0.38,0.05 -0.14,0.1 -0.19,0.3 -0.3,0.43 -0.42,0.55 -1.05,0.75 -1.3,1.49 l 0.12,0.13 c -0.57,0.5 0.05,1.14 -0.25,1.79 -0.1,0.08 -0.2,0.17 -0.31,0.25 -0.13,0.24 -0.09,0.43 -0.24,0.62 -0.07,-0.2 -0.1,-0.19 -0.19,-0.19 -0.11,0.17 -0.18,0.36 -0.2,0.55 z"
   style="fill:#521628;fill-rule:nonzero"
   id="path42" />
            <path
   d="m 2352.12,3800.31 c 0,-0.78 0.17,-1.67 0.42,-2.29 0.05,0.02 0.09,0.05 0.13,0.06 0.02,0.52 0.11,2.26 -0.12,2.48 -0.13,0.08 -0.29,-0.14 -0.43,-0.25"
   style="fill:#6dac82;fill-rule:nonzero"
   id="path44" />
            <path
   d="m 2352.18,3801.99 c 0.05,-0.33 0.22,-0.5 0.36,-0.74 0.05,0.02 0.09,0.04 0.13,0.06 0.02,0.4 0.05,0.64 -0.24,0.74 -0.07,0.05 -0.02,0.03 -0.13,0.06 -0.06,-0.07 -0.05,-0.06 -0.12,-0.12"
   style="fill:#6dac82;fill-rule:nonzero"
   id="path46" />
            <path
   d="m 2348.59,3817.33 c 0.21,0.06 0.33,0.15 0.49,0.25 v 0.12 h -0.06 c -0.13,-0.15 -0.31,-0.21 -0.43,-0.37"
   style="fill:#6dac82;fill-rule:nonzero"
   id="path48" />
            <path
   d="m 2348.59,3817.28 v 0.06 c -0.1,-0.04 -0.06,-0.01 -0.12,-0.06 z"
   style="fill:#6dac82;fill-rule:nonzero"
   id="path50" />
            <path
   d="m 2344.94,3814.55 0.31,-0.18 c 0,-0.33 0.09,-0.56 -0.06,-0.75 0.02,-0.14 0.03,-0.15 0.06,-0.24 0.5,-0.2 1.64,-0.34 2.23,-0.07 0.23,0.11 0.45,0.43 0.67,0.56 0.34,0.12 0.67,0.25 0.99,0.37 0.24,0.15 0.44,0.48 0.69,0.62 0.26,0.15 0.51,0.15 0.74,0.31 0.18,0.21 0.37,0.41 0.56,0.62 0.31,0.21 0.71,0.32 0.92,0.62 0.13,0.18 0.13,0.5 0.25,0.68 -0.03,0.11 -0.01,0.06 -0.06,0.13 v 0.05 c -0.42,-0.15 -0.5,-0.53 -0.74,-0.86 -0.16,-0.22 -0.46,-0.32 -0.62,-0.56 -0.19,0 -0.31,0.02 -0.43,0.06 0.02,0.62 0.39,0.62 0.55,1.06 h 0.07 v 0.05 H 2351 v 0.07 c -0.31,-0.12 -0.31,-0.38 -0.62,-0.5 -0.06,-0.05 -0.01,-0.02 -0.11,-0.06 -0.07,0.07 0,0 -0.07,0.06 0.07,0.43 0.26,0.77 0.55,0.99 -0.01,0.15 -0.01,0.18 -0.06,0.25 v 0.06 c -0.41,-0.14 -0.39,-0.5 -0.55,-0.8 h -0.44 c 0.04,0.54 0.52,1.6 0.81,1.92 0.01,0.19 0.01,0.39 -0.06,0.49 v 0.07 c -0.06,-0.02 -0.12,-0.05 -0.18,-0.07 -0.05,-0.13 -0.06,-0.49 -0.13,-0.62 v -0.12 c -0.16,0.1 -0.1,0.28 -0.19,0.43 v 0.07 c -0.06,-0.02 -0.12,-0.05 -0.18,-0.07 -0.09,-0.17 -0.13,-0.36 -0.13,-0.55 h -0.19 c -0.62,-1.02 -1.35,-1.12 -2.35,-1.73 -0.22,-0.15 -0.44,-0.45 -0.67,-0.57 -0.19,-0.09 -0.52,-0.02 -0.69,-0.12 h -0.06 v -0.06 c 0.21,-0.1 0.37,-0.14 0.5,-0.06 0.4,0.03 1.44,0.63 1.73,0.87 h 0.12 c -0.05,-0.08 0.01,-0.01 -0.06,-0.06 -0.52,-0.76 -2.4,-1.02 -3.28,-1.49 0.04,-0.14 0.06,-0.23 0.13,-0.31 0.11,-0.14 0.22,-0.14 0.5,-0.13 -0.1,-0.23 -0.25,-0.25 -0.38,-0.43 m 3.65,2.78 c 0.12,0.17 0.31,0.22 0.44,0.38 h 0.06 v -0.13 c -0.17,-0.1 -0.28,-0.19 -0.5,-0.25 v -0.06 h -0.12 c 0.06,0.06 0.02,0.02 0.12,0.06"
   style="fill:#6dac82;fill-rule:nonzero"
   id="path52" />
            <g
   transform="matrix(2.48452,4.96905,4.96905,-2.48452,2343.68,3822.49)"
   id="g56">
                <ellipse
   cx="-0.022"
   cy="-0.015"
   rx="0.037999999"
   ry="0.027000001"
   style="fill:#6dac82"
   id="ellipse54" />
            </g>
            <path
   d="m 2343.33,3822.23 v 0.06 c -0.1,-0.04 -0.06,-0.01 -0.12,-0.06 z"
   style="fill:#6dac82;fill-rule:nonzero"
   id="path58" />
            <path
   d="m 2342.02,3831.26 c -0.11,-0.21 -0.2,-0.34 -0.18,-0.55 0.12,0.1 0.25,0.2 0.37,0.31 -0.02,0.06 -0.05,0.12 -0.07,0.18 -0.03,0.03 -0.07,0.05 -0.12,0.06"
   style="fill:#6dac82;fill-rule:nonzero"
   id="path60" />
            <path
   d="m 2340.36,3821.42 c 0.81,-0.01 1.81,0.18 2.23,0.56 h 0.12 v -0.07 c -0.4,-0.2 -0.92,-0.46 -1.36,-0.61 -0.75,-0.26 -1.52,-0.12 -2.17,-0.44 0.03,-0.17 0.05,-0.27 0.13,-0.37 0.12,-0.13 0.23,-0.13 0.49,-0.13 -0.08,-0.17 -0.26,-0.27 -0.43,-0.36 0.08,-0.19 0.09,-0.17 0.25,-0.25 -0.05,-0.42 -0.05,-0.63 -0.19,-0.93 1.19,-0.68 2.42,-0.27 3.47,0.18 0.18,0.05 0.37,0.09 0.56,0.13 0.24,0.11 0.47,0.38 0.74,0.5 0.25,0.07 0.5,0.16 0.74,0.24 0.23,0.14 0.43,0.43 0.68,0.56 0.24,0.12 0.43,0.11 0.62,0.25 0.4,0.28 0.66,0.85 1.05,1.11 0.22,0.15 0.6,0.2 0.81,0.31 0.1,0.28 0.15,0.57 0.37,0.74 -0.01,0.16 -0.03,0.21 -0.06,0.31 -0.06,0.02 -0.13,0.04 -0.19,0.06 -0.38,-0.4 -0.77,-0.8 -1.17,-1.17 -0.28,-0.25 -0.6,-0.24 -0.81,-0.56 -0.27,0.03 -0.21,0.07 -0.37,0.18 0.02,0.54 0.52,0.79 0.86,1 -0.06,0.16 -0.12,0.2 -0.25,0.3 0.06,0.35 0.37,1 0.63,1.18 -0.06,0.07 0,0.01 -0.06,0.06 v 0.06 c -0.25,-0.1 -0.38,-0.42 -0.62,-0.31 -0.36,-0.06 -0.43,-0.32 -0.68,-0.49 v -0.56 h -0.07 v -0.06 h -0.31 v 0.81 c 0.48,0.31 0.68,0.83 1.06,1.23 -0.01,0.16 -0.01,0.23 -0.07,0.31 v 0.07 c -0.3,-0.12 -0.25,-0.28 -0.43,-0.5 -0.17,-0.22 -0.51,-0.33 -0.68,-0.56 -0.29,-0.39 -0.6,-0.83 -0.99,-1.11 -0.79,-0.57 -1.72,-0.75 -2.66,-1.18 -0.1,-0.04 -0.21,-0.21 -0.31,-0.25 -0.3,-0.11 -0.61,0.07 -0.93,-0.12 h -0.06 v -0.06 h 0.06 z m 2.85,0.8 c 0.06,0.06 0.01,0.03 0.12,0.06 0.09,0.12 0.21,0.15 0.31,0.25 h 0.13 v -0.05 c -0.15,-0.08 -0.25,-0.15 -0.44,-0.2 v -0.06 z"
   style="fill:#6dac82;fill-rule:nonzero"
   id="path62" />
            <path
   d="m 2337.69,3825.01 v 0.25 h -0.12 v -0.07 c -0.04,-0.06 -0.04,-0.05 -0.06,-0.18 z"
   style="fill:#6dac82;fill-rule:nonzero"
   id="path64" />
            <path
   d="m 2337.26,3825.32 c 0.02,-0.42 -0.05,-0.48 -0.31,-0.62 0.01,-0.14 0.01,-0.17 0.06,-0.25 0.09,-0.26 0.22,-0.31 0.57,-0.31 -0.09,-0.12 -0.19,-0.23 -0.32,-0.31 v -0.12 c 0.08,-0.03 0.19,-0.07 0.25,-0.12 0.18,-0.29 0.05,-0.73 0.12,-0.99 1.44,-0.26 1.42,0.19 2.36,0.55 0.28,0.11 0.49,0.06 0.74,0.19 0.57,0.29 1.18,0.85 1.85,0.56 0.18,0.25 0.61,0.35 0.75,0.61 0.02,0.15 0.03,0.29 0.06,0.44 0.13,0.2 1.05,0.85 1.3,1.05 0.17,0.14 0.12,0.37 0.25,0.56 0.15,0.23 0.45,0.32 0.68,0.49 0.11,0.09 0.15,0.28 0.24,0.38 -0.03,0.18 -0.01,0.15 -0.12,0.24 -0.13,0.09 -0.84,-0.69 -0.99,-0.86 h -0.12 c 0.09,0.32 0.4,0.7 0.61,0.93 -0.03,0.19 0,0.15 -0.12,0.24 -0.06,0.07 0.01,0.01 -0.06,0.06 -0.1,-0.16 -0.21,-0.33 -0.31,-0.49 -0.32,0.39 0.05,1.09 0.31,1.3 -0.04,0.1 -0.01,0.06 -0.06,0.13 -0.06,0.06 0,0 -0.06,0.05 -0.11,-0.14 -0.21,-0.28 -0.31,-0.43 h -0.32 c 0.03,0.26 0.09,0.43 0.25,0.56 -0.13,0.19 -0.38,0.21 -0.55,0.37 -0.35,-0.07 -0.43,-0.19 -0.87,-0.19 0.02,0.13 0.01,0.12 0.06,0.19 0.07,0.25 0.42,0.67 0.62,0.8 -0.04,0.11 -0.01,0.06 -0.06,0.12 -0.06,0.06 -0.02,0.03 -0.12,0.07 -0.06,-0.06 -0.2,-0.07 -0.25,-0.13 -0.11,-0.12 -0.11,-0.34 -0.25,-0.43 -0.16,-0.1 -0.25,-0.06 -0.37,-0.18 h -0.13 c 0.09,0.34 0.29,0.7 0.5,0.92 l -0.06,0.19 c -0.44,-0.04 -0.82,-0.43 -0.93,-0.8 h -0.49 c 0.02,0.25 0.03,0.26 0.18,0.36 -0.02,0.14 -0.01,0.13 -0.06,0.19 -0.05,0.07 0.01,0.01 -0.06,0.06 -0.11,-0.12 -0.21,-0.25 -0.31,-0.37 -0.06,-0.05 -0.02,-0.02 -0.12,-0.06 -0.06,0.07 0,0.01 -0.07,0.06 0.01,0.43 0.16,0.65 0.38,0.87 -0.05,0.11 -0.02,0.06 -0.07,0.13 -0.58,0.39 -1.17,-0.02 -1.98,0.18 -0.09,0.02 -0.27,0.16 -0.43,0.12 -0.13,-0.03 -0.21,-0.24 -0.31,-0.3 -0.28,-0.18 -0.59,-0.2 -0.87,-0.38 -0.08,-0.06 -0.35,-0.22 -0.43,-0.31 -0.02,-0.06 -0.04,-0.12 -0.06,-0.19 h -0.25 c -0.24,-0.12 -0.4,-0.46 -0.62,-0.61 0,-0.25 0,-0.5 0,-0.75 -0.06,0.05 -0.13,0.09 -0.18,0.13 -0.06,-0.08 -0.06,-0.07 -0.13,-0.13 0.14,-0.52 0.43,-1.05 0.56,-1.54 v -0.93 c 0.07,-0.34 0.27,-1.04 0.43,-1.3 m 0.25,-0.31 c 0.02,0.13 0.02,0.12 0.07,0.19 v 0.06 h 0.11 v -0.25 z"
   style="fill:#6dac82;fill-rule:nonzero"
   id="path66" />
            <path
   d="m 2332.12,3834.11 c -0.03,-1.21 0.43,-0.53 0.87,-1.11 h 0.19 c 0.11,0.24 0.07,0.55 0.18,0.86 0.08,0.23 0.3,0.57 0.37,0.81 0.02,0.3 0.04,0.61 0.06,0.92 0.09,0.25 0.31,0.51 0.37,0.75 0.16,0.52 -0.01,0.83 0.25,1.18 0.01,0.32 0.04,0.37 -0.25,0.43 0.05,0.14 0.03,0.09 0.13,0.18 -0.02,0.15 -0.03,0.16 -0.06,0.25 -0.45,-0.1 -0.42,-0.75 -0.56,-0.99 -0.12,-0.2 -0.34,-0.06 -0.43,-0.12 -0.18,-0.13 -0.52,-1.08 -0.74,-1.74 -0.09,-0.25 -0.16,-0.46 -0.19,-0.56 -0.1,-0.29 -0.04,-0.63 -0.19,-0.86"
   style="fill:#6dac82;fill-rule:nonzero"
   id="path68" />
            <path
   d="m 2333.18,3837.39 c -0.11,0.26 -0.27,0.04 -0.25,-0.12 0.14,0.04 0.14,0.06 0.25,0.12"
   style="fill:#6dac82;fill-rule:nonzero"
   id="path70" />
            <path
   d="m 2332.02,3834.59 c 0.13,0.37 0.32,0.6 0.47,0.94 0.05,0.12 -0.05,0.38 0,0.49 0.07,0.04 0.13,0.08 0.19,0.13 0.16,0.33 0.06,0.63 0.31,0.86 -0.04,0.11 -0.02,0.06 -0.06,0.12 -0.07,0.05 -0.02,0.03 -0.12,0.07 -0.23,-0.59 -0.39,-1.2 -0.57,-1.55 -0.05,-0.12 0.09,-0.21 0.07,-0.25 -0.07,-0.02 -0.13,-0.04 -0.19,-0.06 -0.06,-0.13 -0.14,-0.74 -0.12,-0.74 z"
   style="fill:#6dac82;fill-rule:nonzero"
   id="path72" />
            <path
   d="m 2332,3834.54 c 0.01,0.02 0.02,0.03 0.02,0.05 l -0.02,0.01 c -0.14,-0.26 -0.44,-0.69 -0.25,-1.18 0.11,0.05 0.06,0.01 0.13,0.06 0.21,0.35 0.04,0.83 0.12,1.06"
   style="fill:#6dac82;fill-rule:nonzero"
   id="path74" />
            <path
   d="m 2331.39,3841.35 c -0.47,-0.69 -0.99,-1.61 -1.3,-2.42 -0.12,-0.3 -0.04,-0.9 -0.25,-1.11 0.02,-0.14 0.03,-0.15 0.06,-0.25 0.24,0.01 0.27,0 0.37,0.12 0.08,-0.08 0.15,-0.19 0.19,-0.3 h 0.25 c 0,-0.17 0,-0.28 -0.07,-0.37 0.05,-0.29 0.17,-0.33 0.44,-0.38 0.18,0.38 0.1,0.92 0.24,1.43 0.26,0.91 0.78,2.37 0.25,3.16 -0.02,0.03 -0.04,0.08 -0.06,0.12 z"
   style="fill:#6dac82;fill-rule:nonzero"
   id="path76" />
            <path
   d="m 2329.15,3843.58 c -0.18,-0.5 -0.46,-1.09 -0.61,-1.61 v -1.92 c -0.03,-0.26 -0.1,-0.66 0,-0.93 0.6,0.22 0.65,1.36 0.92,1.93 0.63,1.26 0.92,2.64 1.49,3.95 0.21,0.51 0.19,1.61 0.49,1.99 -0.02,0.12 -0.02,0.11 -0.06,0.18 -0.06,0.05 -0.02,0.02 -0.12,0.07 -0.36,-0.57 -0.7,-1.13 -1.06,-1.68 -0.2,-0.14 -0.3,0.03 -0.49,-0.12 -0.37,-0.47 -0.34,-1.24 -0.56,-1.86"
   style="fill:#6dac82;fill-rule:nonzero"
   id="path78" />
            <path
   d="m 2328.04,3842.09 c -0.22,-0.74 -0.73,-2.89 -0.49,-3.96 0.08,-0.36 0.23,-0.73 0.31,-0.99 0.11,-0.34 0,-0.94 0.06,-1.11 0.02,-0.06 0.22,-0.2 0.25,-0.25 0.13,-0.33 0.03,-0.69 0.19,-0.99 0.34,-0.68 0.98,-1.26 1.42,-1.86 0.14,-0.2 0.16,-0.41 0.3,-0.62 l 0.63,-0.55 c 0.2,-0.29 0.23,-0.64 0.43,-0.93 0.16,-0.15 0.33,-0.29 0.49,-0.43 0.22,-0.37 0.33,-0.94 0.44,-1.37 v -0.92 c 0.09,-0.35 0.33,-0.5 0.49,-0.75 0.1,-0.15 0.03,-0.31 0.12,-0.49 0.17,-0.29 0.68,-0.46 0.88,-0.75 0.15,-0.22 0.13,-0.47 0.36,-0.61 0.3,-0.18 0.56,-0.23 0.75,-0.5 0.1,-0.16 0.12,-0.35 0.24,-0.49 0.15,-0.16 0.45,-0.2 0.56,-0.37 0.17,-0.26 0.27,-0.78 0.31,-0.99 v -0.63 c 0.1,-0.25 0.45,-0.7 0.56,-0.92 -0.02,-0.06 -0.05,-0.13 -0.07,-0.19 0.39,-0.67 1.41,-0.9 1.8,-1.54 0.14,-0.23 0.17,-0.46 0.31,-0.69 0.1,-0.16 0.36,-0.29 0.43,-0.49 0.06,-0.14 -0.08,-0.26 -0.06,-0.31 0.09,-0.29 0.65,-1.08 0.87,-1.3 0.32,-0.33 0.79,-0.48 1.17,-0.74 0.14,-0.09 0.23,-0.34 0.38,-0.44 0.17,0.01 0.5,-0.04 0.74,-0.18 0.21,-0.12 0.23,-0.35 0.37,-0.56 0.16,-0.1 0.33,-0.21 0.49,-0.31 0.44,-0.4 0.66,-0.83 1.18,-1.17 0.24,-0.16 0.27,-0.57 0.43,-0.81 l 0.62,-0.56 c 0.09,-0.15 0.32,-0.84 0.37,-0.98 v -0.38 c 0.24,-0.59 0.65,-0.97 0.87,-1.54 0.08,-0.22 -0.06,-0.61 0.06,-0.93 0.33,-0.85 0.7,-1.56 1.61,-1.98 -0.01,-0.98 0.71,-2.4 1.17,-2.97 0.07,-0.08 0.26,-0.09 0.31,-0.19 v -0.43 c 0.08,-0.22 0.32,-0.52 0.44,-0.75 0.1,0.06 0.11,0.17 0.18,0.07 0.21,-0.15 0.21,-0.37 0.18,-0.74 0.26,-0.43 -0.11,-0.89 0,-1.3 0.2,-0.72 0.33,-1.73 0.5,-2.54 v -1.24 c 0.24,-1.05 0.32,-2.38 0.56,-3.34 -0.02,-0.31 -0.04,-0.62 -0.06,-0.93 0.13,-0.55 0.19,-1.34 0.37,-1.92 0.12,-0.36 0.38,-0.9 0.43,-1.3 0.03,-0.16 -0.16,-0.32 -0.12,-0.56 0.07,-0.42 0.2,-1.12 0.31,-1.54 0.01,-0.06 0.03,-0.12 0.04,-0.19 l 1.06,0.18 c -0.08,0.74 0.38,1.59 0.2,2.43 -0.23,1.07 -0.12,2.12 -0.12,3.27 v 5.76 c 0,1.35 -0.14,2.95 0.37,3.78 0.1,-0.05 0.06,-0.02 0.12,-0.07 0.41,-0.14 0.84,-0.8 1.42,-0.99 0.34,-0.11 1.14,-0.16 1.55,-0.06 0.03,0.01 0.12,0.13 0.19,0.12 0.06,-0.01 0.32,-0.19 0.37,-0.24 0.13,0.04 0.23,0.2 0.37,0.24 0.53,0.15 0.97,-0.37 1.29,-0.49 0.33,-0.12 0.59,-0.04 0.75,-0.13 0.24,-0.17 0.26,-0.38 0.43,-0.62 0.19,-0.16 0.37,-0.32 0.56,-0.49 0.46,-0.63 0.76,-1.3 1.18,-1.98 0.06,-0.1 0.26,-0.27 0.31,-0.37 0.12,-0.28 0.02,-0.61 0.18,-0.87 0.13,-0.21 0.43,-0.36 0.56,-0.55 0.19,-0.29 0.22,-0.61 0.49,-0.81 0.31,-0.23 0.72,-0.49 0.93,-0.8 0.06,-0.17 0.13,-0.34 0.19,-0.5 0.09,-0.12 0.34,-0.12 0.43,-0.25 0.21,-0.31 0.16,-0.75 0.43,-0.99 0.09,-0.06 0.13,0.01 0.25,-0.12 0.15,-0.24 0.09,-0.56 0.19,-0.87 0.11,-0.34 0.35,-0.78 0.49,-1.11 0.13,-0.29 0.06,-0.51 0.19,-0.81 0.22,-0.5 0.53,-1.12 0.74,-1.6 0.25,-0.57 0.25,-1.1 0.49,-1.68 0.36,-0.82 0.8,-1.74 0.75,-2.78 0.72,-0.44 1.44,-0.92 2.16,-1.36 0.03,0.28 -0.01,0.25 0.25,0.31 0.48,-0.74 1.12,-1.05 1.86,-1.55 0.16,-0.18 0.33,-0.37 0.49,-0.56 0.4,-0.3 0.79,-0.56 1.18,-0.86 0.41,-0.32 0.3,-1.21 0.86,-1.36 0.1,0.1 0.05,0.06 0.13,0.06 0.4,-0.31 0.51,-1.07 0.8,-1.49 0.34,-0.48 0.9,-0.83 1.24,-1.3 0.23,-0.31 0.33,-0.67 0.56,-0.99 0.16,-0.14 0.33,-0.28 0.5,-0.43 0.2,-0.33 0.02,-0.97 0.18,-1.36 0.1,-0.26 0.46,-0.35 0.62,-0.56 0.22,-0.31 0.18,-0.68 0.37,-1.05 0.17,-0.33 0.53,-0.54 0.68,-0.93 0.1,-0.26 0.5,-1.44 0.43,-1.67 -0.01,-0.06 -0.22,-0.23 -0.25,-0.31 -0.07,-0.22 0.13,-1.77 0.19,-1.98 0.19,-0.59 0.44,-1.39 0.62,-1.92 l 0.18,-1.23 c 0.13,-0.38 0.34,-0.63 0.38,-1.12 -0.08,-0.06 -0.1,-0.12 -0.19,-0.19 -0.51,0.59 -1.06,1.2 -1.48,1.86 -0.25,0.38 -0.31,1.06 -0.75,1.24 v 0.06 h -0.06 v -0.13 c 0.27,-0.26 0.41,-0.72 0.56,-1.11 -0.07,-0.05 -0.01,0.01 -0.06,-0.06 -0.07,0.06 -0.01,0 -0.06,0.06 -0.24,0.24 -0.41,0.68 -0.56,1 -0.15,-0.07 -0.3,-0.11 -0.5,-0.13 -0.15,0.23 -0.37,0.36 -0.55,0.55 -0.1,-0.05 -0.19,-0.22 -0.25,-0.11 -0.28,0.2 -0.81,0.57 -0.99,0.86 -0.03,0.1 -0.04,0.2 -0.06,0.31 -0.23,0.23 -0.63,0.27 -0.93,0.43 -0.24,0.13 -0.5,0.36 -0.75,0.5 -0.47,0.25 -1.15,0.35 -1.58,0.71 l -0.9,-0.91 c 0.19,-0.14 0.37,-0.29 0.57,-0.42 0.95,-0.69 1.71,-1.65 2.66,-2.36 0.14,-0.1 0.26,-0.35 0.43,-0.43 0.51,-0.24 1.27,-0.08 1.73,-0.36 0.57,-0.36 0.79,-1.19 1.12,-1.81 0.18,-0.32 1.65,-1.78 1.98,-2.03 0.89,-0.67 1.83,-1.26 2.72,-1.92 0.5,-0.37 0.92,-0.95 1.42,-1.3 0.66,-0.46 1.39,-0.83 2.05,-1.24 0.27,-0.17 0.58,-0.22 0.8,-0.43 0.16,0.28 -0.44,2.11 -0.56,2.47 -0.2,0.6 -0.14,1.07 -0.36,1.61 -0.18,0.41 -0.57,0.72 -0.75,1.17 -0.23,0.58 -0.28,1.11 -0.55,1.61 -0.14,0.25 -0.4,0.54 -0.5,0.81 -0.13,0.36 -0.05,0.62 -0.19,0.93 -0.09,0.2 -0.34,0.45 -0.31,0.74 0.11,1.03 -1.13,1.53 -1.3,2.48 -0.02,0.15 0.16,0.6 0.06,0.86 -0.5,1.38 -0.35,3.08 -0.92,4.46 -0.24,0.57 -0.13,1.22 -0.31,1.85 -0.2,0.67 -0.73,1.15 -0.93,1.8 -0.19,0.63 -0.07,1.33 -0.31,1.92 -0.67,1.67 -1.01,3.95 -1.67,5.63 l -0.19,1.67 c -0.25,0.82 -0.49,1.65 -0.74,2.48 l -0.18,1.23 c -0.2,0.68 -0.44,1.46 -0.63,2.11 v 0.8 c -0.08,0.06 -0.16,0.12 -0.24,0.18 v 0.88 c -0.15,0.6 -0.19,1.25 -0.37,1.91 -0.38,1.39 -0.71,2.89 -1.17,4.15 -0.22,0.56 -0.24,1.05 -0.57,1.49 -0.26,0.35 -0.91,0.41 -1.3,0.67 -0.12,0.09 -0.14,0.26 -0.24,0.38 -0.01,0.01 -0.93,0.67 -0.93,0.67 -0.15,-0.19 -0.09,-0.13 -0.37,-0.12 -0.32,0.43 -1.02,0.71 -1.43,1.06 -0.08,0.16 -0.16,0.33 -0.24,0.49 -0.41,0.3 -0.77,0.51 -1.18,0.8 -0.18,0.21 -0.37,0.41 -0.56,0.62 -0.21,0.13 -0.4,0.12 -0.61,0.25 l -0.62,0.68 c -0.48,0.3 -0.78,0.57 -1.24,0.87 -0.46,0.29 -1.01,1.08 -1.49,1.42 -0.17,0.13 -0.35,0.12 -0.55,0.25 l -0.69,0.8 c -1.63,1.05 -2.81,2.61 -3.96,4.15 -0.24,0.33 -0.84,0.37 -1.05,0.75 -0.12,0.21 -0.04,0.42 -0.24,0.55 -0.22,0.14 -0.55,0.16 -0.68,0.37 -0.12,0.18 -0.08,0.31 -0.19,0.5 -0.16,0.25 -0.59,0.31 -0.74,0.55 -0.41,0.63 -0.91,1.15 -1.43,1.67 -0.26,0.27 -0.71,0.45 -0.93,0.74 -0.56,0.8 -1.13,1.59 -1.73,2.36 -0.1,0.13 -0.38,0.17 -0.5,0.31 -0.08,0.11 -0.03,0.29 -0.12,0.43 -0.18,0.29 -0.6,0.52 -0.74,0.87 v 0.55 c -0.09,0.25 -0.14,0.82 -0.25,1.06 0.01,0.09 0.13,0.31 0.06,0.49 -0.21,0.62 -0.41,1.27 -0.74,1.8 -0.1,0.06 -0.21,0.12 -0.31,0.18 -0.13,0.19 -0.06,0.42 -0.18,0.62 -0.14,0.23 -0.44,0.22 -0.68,0.37 l -0.44,0.5 c -0.66,0.39 -1.55,0.43 -1.91,1.05 -0.09,0.15 -0.4,0.86 -0.31,1.11 0.07,0.22 0.26,0.97 0.12,1.36 -0.12,0.32 -0.73,1.19 -0.99,1.36 -0.09,0.06 -0.18,-0.02 -0.25,0.07 -0.21,0.27 -0.16,0.71 -0.37,0.99 -0.13,0.18 -0.34,0.12 -0.56,0.25 -0.14,0.08 -0.09,0.22 -0.18,0.36 -0.15,0.11 -0.29,0.21 -0.43,0.31 -0.28,0.42 -0.34,0.92 -0.63,1.3 -0.24,0.33 -0.7,0.58 -0.92,0.93 -0.14,0.22 -0.14,0.39 -0.32,0.56 -0.2,0.16 -0.41,0.33 -0.61,0.49 -0.15,0.26 -0.16,0.51 -0.37,0.69 -0.98,0.83 -1.88,1.63 -2.66,2.66 -0.21,0.26 -0.49,0.31 -0.62,0.68 0.08,0.04 0.13,0.07 0.19,0.12 -0.53,0.09 -0.52,0.43 -0.75,0.8 -0.2,0.32 -0.71,0.51 -0.86,0.87 v 0.44 c -0.05,0.13 -0.21,0.55 -0.31,0.8 v 0.31 c -0.09,0.17 -0.39,0.34 -0.5,0.49 -0.29,0.46 -0.45,0.88 -0.74,1.36 -0.1,0.17 -0.39,0.33 -0.5,0.5 -0.24,0.39 -0.34,1.19 -0.49,1.49 -0.18,0.34 -0.56,0.65 -0.75,0.99 v 0.31 c -0.18,0.41 -0.76,1.14 -1.23,1.29 V 3851 c -0.11,-0.22 0.09,-0.39 -0.37,-0.43 -0.16,0.1 -0.39,0.04 -0.56,0 -1.14,-2.47 -2.25,-4.77 -3.28,-7.36 -0.16,-0.41 -0.05,-0.69 -0.19,-1.12 m 0.5,-2.97 c -0.1,0.26 -0.02,0.66 0,0.93 v 1.92 c 0.15,0.51 0.44,1.11 0.62,1.61 0.22,0.62 0.18,1.39 0.56,1.85 0.19,0.16 0.29,-0.01 0.49,0.13 0.35,0.55 0.7,1.11 1.05,1.67 0.11,-0.04 0.06,-0.01 0.13,-0.07 0.04,-0.06 0.03,-0.05 0.05,-0.18 -0.3,-0.38 -0.27,-1.47 -0.48,-1.98 -0.57,-1.32 -0.87,-2.69 -1.49,-3.96 -0.28,-0.56 -0.33,-1.71 -0.93,-1.92 m 2.1,-2.1 c 0.07,0.09 0.07,0.2 0.07,0.37 h -0.25 c -0.05,0.11 -0.11,0.23 -0.19,0.31 -0.11,-0.13 -0.13,-0.12 -0.37,-0.13 -0.03,0.1 -0.04,0.11 -0.06,0.25 0.21,0.21 0.13,0.81 0.24,1.11 0.32,0.82 0.84,1.73 1.31,2.42 h 0.12 c 0.02,-0.04 0.04,-0.09 0.06,-0.12 0.52,-0.79 0.01,-2.25 -0.25,-3.16 -0.14,-0.51 -0.06,-1.05 -0.24,-1.42 -0.28,0.05 -0.39,0.08 -0.44,0.37 m 1.68,-2.05 c 0.02,0.1 0.1,0.31 0.18,0.56 -0.14,-0.34 -0.34,-0.57 -0.48,-0.93 0,-0.02 -0.01,-0.04 -0.01,-0.05 -0.08,-0.23 0.08,-0.72 -0.13,-1.06 -0.06,-0.05 -0.01,-0.02 -0.12,-0.06 -0.19,0.49 0.11,0.92 0.25,1.17 -0.03,0.01 0.05,0.61 0.12,0.75 0.06,0.02 0.12,0.03 0.19,0.06 0.02,0.04 -0.13,0.13 -0.07,0.25 0.18,0.34 0.34,0.95 0.56,1.55 0.11,-0.05 0.06,-0.02 0.12,-0.07 0.05,-0.06 0.03,-0.02 0.06,-0.12 -0.23,-0.24 -0.14,-0.53 -0.31,-0.87 -0.06,-0.04 -0.12,-0.08 -0.18,-0.12 -0.05,-0.11 0.05,-0.38 0,-0.5 0.22,0.66 0.57,1.61 0.74,1.73 0.09,0.06 0.32,-0.08 0.43,0.13 0.15,0.24 0.11,0.89 0.56,0.99 0.04,-0.1 0.04,-0.11 0.06,-0.25 -0.1,-0.08 -0.07,-0.03 -0.12,-0.18 0.28,-0.06 0.26,-0.12 0.25,-0.44 -0.26,-0.34 -0.1,-0.65 -0.25,-1.18 -0.06,-0.23 -0.29,-0.48 -0.38,-0.73 -0.01,-0.32 -0.03,-0.63 -0.05,-0.94 -0.07,-0.23 -0.3,-0.57 -0.38,-0.8 -0.1,-0.31 -0.07,-0.62 -0.18,-0.86 h -0.19 c -0.43,0.58 -0.89,-0.1 -0.86,1.11 0.15,0.22 0.09,0.57 0.19,0.86 m 0.61,2.29 c -0.02,0.17 0.14,0.38 0.25,0.13 -0.11,-0.06 -0.1,-0.08 -0.25,-0.13 m 6.5,-18.44 c 0.14,0.3 0.14,0.5 0.19,0.93 -0.16,0.08 -0.18,0.07 -0.25,0.25 0.16,0.09 0.35,0.19 0.43,0.37 -0.27,-0.01 -0.38,-0.01 -0.49,0.13 -0.08,0.1 -0.1,0.19 -0.13,0.36 0.65,0.32 1.41,0.18 2.17,0.44 0.44,0.15 0.96,0.41 1.36,0.62 v 0.06 h -0.12 c -0.42,-0.37 -1.42,-0.56 -2.23,-0.56 v 0.06 h -0.07 v 0.07 h 0.07 c 0.31,0.18 0.63,0.01 0.93,0.12 0.1,0.04 0.21,0.2 0.31,0.25 0.94,0.43 1.87,0.6 2.66,1.18 0.39,0.27 0.7,0.72 0.98,1.11 0.18,0.22 0.52,0.34 0.69,0.55 0.18,0.22 0.13,0.39 0.43,0.5 v -0.06 c 0.06,-0.08 0.06,-0.15 0.06,-0.31 -0.38,-0.41 -0.58,-0.92 -1.05,-1.24 v -0.8 h 0.31 v 0.06 h 0.06 v 0.55 c 0.25,0.17 0.33,0.43 0.68,0.5 0.25,-0.12 0.37,0.21 0.62,0.31 v -0.06 c 0.07,-0.06 0.01,0 0.07,-0.06 -0.26,-0.19 -0.57,-0.83 -0.63,-1.18 0.13,-0.1 0.19,-0.15 0.25,-0.31 -0.34,-0.2 -0.84,-0.45 -0.86,-0.99 0.15,-0.11 0.1,-0.15 0.37,-0.19 0.21,0.32 0.53,0.32 0.8,0.56 0.4,0.37 0.81,0.78 1.18,1.18 l 0.19,-0.06 c 0.03,-0.1 0.04,-0.15 0.06,-0.31 -0.22,-0.18 -0.27,-0.47 -0.38,-0.75 -0.2,-0.11 -0.58,-0.16 -0.8,-0.3 -0.4,-0.27 -0.66,-0.83 -1.05,-1.12 -0.2,-0.14 -0.38,-0.12 -0.62,-0.25 -0.25,-0.13 -0.45,-0.41 -0.68,-0.55 -0.25,-0.08 -0.5,-0.17 -0.75,-0.25 -0.26,-0.11 -0.49,-0.38 -0.73,-0.5 -0.19,-0.04 -0.38,-0.08 -0.57,-0.12 -1.05,-0.46 -2.27,-0.86 -3.46,-0.19 m 2.1,12.5 c 0.05,-0.06 0.03,-0.01 0.07,-0.12 -0.22,-0.22 -0.37,-0.43 -0.38,-0.87 0.07,-0.06 0.01,0 0.07,-0.06 0.1,0.04 0.06,0.01 0.12,0.06 l 0.31,0.38 c 0.07,-0.06 0.01,0 0.06,-0.07 0.05,-0.06 0.04,-0.06 0.06,-0.18 -0.15,-0.11 -0.16,-0.11 -0.18,-0.38 h 0.49 c 0.11,0.38 0.49,0.77 0.93,0.81 0.02,-0.06 0.04,-0.12 0.06,-0.18 -0.23,-0.27 -0.41,-0.59 -0.5,-0.93 h 0.13 c 0.12,0.12 0.22,0.08 0.37,0.18 0.14,0.09 0.14,0.31 0.25,0.44 0.05,0.05 0.19,0.07 0.25,0.12 0.11,-0.04 0.06,-0.01 0.13,-0.06 0.04,-0.07 0.01,-0.02 0.06,-0.13 -0.21,-0.13 -0.56,-0.55 -0.62,-0.8 -0.05,-0.07 -0.04,-0.06 -0.07,-0.18 0.44,0 0.53,0.12 0.87,0.18 0.17,-0.16 0.42,-0.18 0.56,-0.37 -0.16,-0.13 -0.23,-0.29 -0.25,-0.56 h 0.31 c 0.1,0.15 0.2,0.29 0.31,0.43 0.07,-0.05 0,0.01 0.06,-0.06 0.05,-0.06 0.02,-0.01 0.06,-0.12 -0.26,-0.2 -0.63,-0.9 -0.3,-1.3 0.1,0.16 0.2,0.33 0.3,0.5 0.07,-0.07 0.01,0 0.06,-0.07 0.12,-0.09 0.09,-0.06 0.12,-0.25 -0.21,-0.22 -0.52,-0.6 -0.61,-0.92 h 0.13 c 0.15,0.16 0.86,0.95 0.98,0.86 0.12,-0.09 0.09,-0.05 0.13,-0.24 -0.1,-0.1 -0.14,-0.29 -0.25,-0.38 -0.23,-0.17 -0.53,-0.25 -0.68,-0.49 -0.12,-0.19 -0.08,-0.42 -0.25,-0.56 -0.25,-0.2 -1.17,-0.84 -1.3,-1.05 -0.02,-0.14 -0.04,-0.29 -0.06,-0.43 -0.14,-0.26 -0.57,-0.37 -0.74,-0.62 -0.68,0.3 -1.29,-0.27 -1.86,-0.56 -0.25,-0.13 -0.46,-0.07 -0.74,-0.18 -0.94,-0.37 -0.92,-0.82 -2.36,-0.56 -0.07,0.27 0.06,0.71 -0.12,0.99 -0.06,0.04 -0.17,0.09 -0.24,0.12 v 0.12 c 0.12,0.09 0.22,0.19 0.3,0.32 -0.34,0 -0.46,0.05 -0.55,0.3 -0.05,0.08 -0.05,0.11 -0.06,0.25 0.25,0.14 0.32,0.21 0.31,0.62 -0.17,0.26 -0.36,0.96 -0.44,1.3 v 0.93 c -0.13,0.5 -0.41,1.02 -0.56,1.55 0.07,0.05 0.07,0.05 0.13,0.12 0.06,-0.04 0.12,-0.08 0.18,-0.12 0,0.37 0,0.38 0,0.74 0.23,0.16 0.39,0.49 0.62,0.62 h 0.25 c 0.02,0.06 0.04,0.12 0.06,0.18 0.09,0.09 0.35,0.26 0.43,0.31 0.28,0.18 0.58,0.2 0.87,0.37 0.11,0.06 0.18,0.28 0.31,0.31 0.16,0.04 0.34,-0.1 0.43,-0.12 0.82,-0.19 1.4,0.21 1.98,-0.19 m 0.31,-0.61 c -0.01,0.21 0.08,0.33 0.19,0.55 0.04,-0.01 0.08,-0.03 0.12,-0.06 l 0.07,-0.18 c -0.13,-0.11 -0.25,-0.21 -0.38,-0.31 m 2.85,-15.29 c 0.88,0.47 2.76,0.74 3.28,1.49 0.06,0.05 0.01,-0.01 0.06,0.06 h -0.12 c -0.29,-0.24 -1.33,-0.84 -1.73,-0.87 -0.12,-0.08 -0.29,-0.04 -0.5,0.06 v 0.06 h 0.06 c 0.17,0.1 0.5,0.03 0.68,0.13 0.24,0.11 0.46,0.41 0.69,0.56 1,0.61 1.72,0.71 2.35,1.73 h 0.18 c 0.01,0.26 0.05,0.38 0.12,0.55 l 0.2,0.07 v -0.07 c 0.08,-0.14 0.01,-0.33 0.18,-0.43 v 0.12 c 0.07,0.13 0.08,0.49 0.12,0.62 l 0.18,0.07 v -0.07 c 0.08,-0.1 0.07,-0.3 0.07,-0.49 -0.29,-0.31 -0.77,-1.38 -0.8,-1.92 h 0.43 c 0.17,0.31 0.14,0.67 0.55,0.81 v -0.07 c 0.05,-0.07 0.05,-0.1 0.07,-0.25 -0.3,-0.22 -0.49,-0.56 -0.57,-0.98 0.08,-0.06 0.01,0 0.07,-0.07 0.11,0.04 0.06,0.02 0.12,0.07 0.31,0.11 0.31,0.37 0.62,0.49 v -0.06 h 0.07 v -0.06 H 2351 c -0.16,-0.44 -0.53,-0.44 -0.56,-1.06 0.12,-0.04 0.25,-0.05 0.44,-0.05 0.15,0.23 0.45,0.33 0.62,0.55 0.24,0.33 0.32,0.71 0.74,0.87 v -0.06 c 0.05,-0.07 0.03,-0.02 0.07,-0.13 -0.14,-0.18 -0.13,-0.49 -0.25,-0.68 -0.22,-0.3 -0.62,-0.4 -0.93,-0.62 -0.19,-0.2 -0.38,-0.41 -0.56,-0.62 -0.24,-0.16 -0.49,-0.16 -0.74,-0.31 -0.26,-0.14 -0.45,-0.46 -0.69,-0.62 -0.32,-0.12 -0.65,-0.24 -0.98,-0.37 -0.23,-0.13 -0.45,-0.45 -0.68,-0.56 -0.59,-0.26 -1.74,-0.13 -2.24,0.07 -0.02,0.09 -0.03,0.1 -0.05,0.24 0.15,0.19 0.05,0.42 0.05,0.75 l -0.3,0.18 c 0.13,0.18 0.28,0.21 0.37,0.43 -0.27,0 -0.38,0 -0.5,0.13 -0.06,0.09 -0.1,0.2 -0.12,0.31 m 7.86,-14.85 c 0.23,-0.22 0.13,-1.96 0.12,-2.48 l -0.12,-0.06 c -0.27,0.62 -0.42,1.5 -0.43,2.29 0.14,0.1 0.3,0.33 0.43,0.25 m -0.12,1.49 c 0.29,-0.11 0.26,-0.35 0.24,-0.75 l -0.12,-0.06 c -0.14,0.24 -0.32,0.41 -0.37,0.74 0.07,0.06 0.07,0.05 0.13,0.13 0.1,-0.05 0.05,-0.02 0.12,-0.06 m 15.47,-6.13 c -0.07,-0.06 -0.02,-0.02 -0.12,-0.06 -0.26,0.61 0.24,2.04 0.61,2.71 0.07,-0.05 0,0.01 0.07,-0.05 0.14,-0.1 0.14,-0.1 0.18,-0.31 -0.45,-0.59 -0.28,-1.72 -0.74,-2.29 m -0.43,2.65 c 0.04,-0.06 0.04,-0.05 0.05,-0.18 -0.04,-0.02 -0.08,-0.04 -0.12,-0.06 -0.03,0.09 -0.04,0.11 -0.06,0.24 0.07,0.07 0,0 0.06,0.07 0.07,-0.06 0.01,0.01 0.07,-0.07 m 1.6,-3.52 c -0.21,-0.43 -0.2,-1.08 -0.55,-1.36 -0.07,-0.05 -0.06,-0.04 -0.19,-0.07 -0.1,0.19 -0.12,0.37 -0.12,0.69 0.33,0.46 0.35,0.99 0.55,1.61 0.08,0.23 0.3,0.55 0.37,0.8 0.05,0.31 0.09,0.62 0.13,0.93 0.18,0.51 0.52,0.95 0.81,1.36 0.06,-0.05 0,0 0.06,-0.06 0.24,-0.17 0.35,-0.41 0.55,-0.62 -0.12,-0.59 -0.48,-0.99 -0.74,-1.42 -0.22,-0.37 -0.23,-0.79 -0.43,-1.18 -0.1,-0.2 -0.33,-0.48 -0.44,-0.68 m -0.06,-3.46 c -0.31,0.77 0.13,1.41 0.37,1.97 0.63,1.48 1.12,2.79 1.86,4.09 0.07,-0.06 0,0 0.06,-0.06 0.12,-0.1 0.11,-0.09 0.12,-0.31 -0.48,-0.64 -0.68,-1.84 -0.99,-2.66 -0.36,-0.98 -0.94,-1.85 -1.24,-2.97 -0.06,-0.02 -0.12,-0.04 -0.18,-0.06 m -0.12,7.48 c -0.1,0.2 -0.16,0.41 -0.19,0.62 0.07,0.06 0.01,0 0.06,0.06 h 0.13 c 0.13,-0.19 0.21,-0.18 0.24,-0.49 -0.05,-0.06 -0.01,-0.02 -0.06,-0.12 l -0.18,-0.07 m 0.68,-9.52 c -0.6,1.41 0.89,3.32 1.36,4.51 0.39,0.99 0.61,1.99 1.11,2.85 0.07,-0.06 0.01,0 0.07,-0.06 0.12,-0.09 0.22,-0.19 0.31,-0.31 -0.45,-0.58 -0.47,-1.34 -0.75,-2.11 -0.1,-0.29 -0.37,-0.64 -0.49,-0.93 -0.3,-0.68 -0.47,-1.45 -0.75,-2.1 -0.23,-0.55 -0.31,-1.44 -0.74,-1.8 -0.06,-0.04 -0.02,-0.02 -0.12,-0.05 m 1.17,-2.61 c -0.18,0.31 -0.53,0.55 -0.61,0.93 0.19,0.37 -0.15,0.86 0.05,1.3 0.72,1.53 1.39,3.33 2.05,4.89 0.23,0.53 0.21,1.72 0.8,1.86 0.2,-0.45 0.39,-0.57 0.87,-0.75 v -0.06 h -0.06 c -0.08,-0.28 -0.32,-0.5 -0.43,-0.74 -0.22,-0.47 -0.34,-1 -0.5,-1.42 -0.29,-0.77 -0.52,-1.56 -0.74,-2.29 -0.13,-0.4 -0.05,-0.67 -0.19,-1.06 -0.15,-0.4 -0.49,-0.85 -0.68,-1.24 -0.22,-0.44 -0.14,-1 -0.43,-1.36 -0.06,-0.04 -0.02,-0.02 -0.13,-0.06 m 0.62,-0.43 c 0.37,0.49 0.4,1.24 0.68,1.8 0.13,0.23 0.39,0.55 0.5,0.8 0.12,0.51 0.24,1.03 0.37,1.55 0.4,1.16 0.78,2.65 1.3,3.77 0.07,-0.06 0.01,0.01 0.06,-0.06 0.26,-0.26 0.05,-0.5 0.19,-0.93 0.07,-0.24 0.35,-0.57 0.43,-0.8 0.22,-0.69 -0.12,-1.09 -0.25,-1.55 v -0.62 c -0.13,-0.45 -0.45,-0.9 -0.62,-1.3 l -0.18,-0.81 c -0.16,-0.32 -0.57,-0.66 -0.75,-0.98 -0.3,-0.55 -0.33,-1.54 -0.8,-1.92 -0.06,-0.05 -0.02,-0.02 -0.12,-0.06 -0.25,0.36 -0.74,0.59 -0.81,1.11 m 1.55,-1.48 c 0.34,0.42 0.37,1 0.62,1.54 0.25,0.56 0.77,0.99 0.99,1.55 0.26,0.67 0.41,1.63 0.81,2.17 0.06,0.04 0.05,0.03 0.18,0.06 0.27,-0.63 0.49,-1.27 0.68,-1.92 0.14,-0.56 -0.19,-1.23 -0.31,-1.61 -0.27,-0.88 -0.37,-1.8 -0.62,-2.6 -0.18,-0.55 -0.09,-1.61 -0.37,-2.04 -0.06,-0.05 -0.02,-0.02 -0.12,-0.06 -0.18,0.21 -0.29,0.42 -0.56,0.55 0.05,0.18 0.08,0.16 0.12,0.38 -0.16,0.17 -0.22,0.42 -0.37,0.61 -0.38,0.49 -0.97,0.52 -1.05,1.37 m 2.53,-3.34 c 0.34,0.32 0.15,1.08 0.32,1.6 0.3,0.97 0.45,2.1 0.8,3.1 0.11,-0.04 0.06,-0.02 0.12,-0.07 0.28,-0.35 0.05,-1.02 -0.06,-1.36 -0.18,-0.6 0.01,-1.16 -0.18,-1.79 -0.22,-0.74 -0.63,-1.6 -0.56,-2.23 -0.06,-0.02 -0.12,-0.04 -0.19,-0.06 -0.12,0.29 -0.23,0.37 -0.25,0.81 m 0.82,-1.18 h 0.11 c 0.07,-0.11 0.16,-0.22 0.25,-0.31 v -0.13 c -0.06,-0.01 -0.12,-0.04 -0.18,-0.06 l -0.25,0.44 h 0.07 z m 0.42,-0.12 c -0.07,0.16 -0.18,0.3 -0.31,0.42 0,0.82 0.36,1.45 0.56,2.11 0.18,0.58 0.07,1.11 0.25,1.61 0.11,-0.04 0.06,-0.01 0.12,-0.06 0.65,-0.71 -0.34,-2.86 -0.37,-3.96 -0.11,-0.06 -0.1,-0.08 -0.25,-0.12 m 1.24,1.66 c 0.06,0.02 0.12,0.05 0.19,0.07 v -0.07 c 0.41,-0.56 0.04,-2.36 -0.25,-2.59 -0.06,-0.03 -0.15,-0.04 -0.31,-0.07 -0.09,0.18 -0.12,0.31 -0.12,0.62 0.25,0.31 0.32,1.61 0.49,2.04"
   style="fill:#521628;fill-rule:nonzero"
   id="path80" />
        </g>
    </g>
</svg>
