<?xml version="1.0" encoding="UTF-8" standalone="no"?>
<!DOCTYPE svg PUBLIC "-//W3C//DTD SVG 1.1//EN" "http://www.w3.org/Graphics/SVG/1.1/DTD/svg11.dtd">
<svg width="100%" height="100%" viewBox="0 0 111 112" version="1.1" xmlns="http://www.w3.org/2000/svg" xmlns:xlink="http://www.w3.org/1999/xlink" xml:space="preserve" xmlns:serif="http://www.serif.com/" style="fill-rule:evenodd;clip-rule:evenodd;stroke-linejoin:round;stroke-miterlimit:2;">
    <g transform="matrix(1.0698,0,0,1.0698,-2467.01,-4012.03)">
        <g id="Spear-Trap" serif:id="Spear Trap">
            <g transform="matrix(3.53294,0,0,3.53294,2064.08,3687.96)">
                <rect x="68.544" y="17.754" width="29.26" height="29.4" style="fill:rgb(109,172,130);"/>
            </g>
            <path d="M2377.86,3779.47C2378.15,3779.71 2378.51,3781.5 2378.11,3782.06L2378.11,3782.13C2378.04,3782.11 2377.99,3782.09 2377.92,3782.06C2377.75,3781.64 2377.68,3780.33 2377.42,3780.03C2377.42,3779.71 2377.45,3779.58 2377.55,3779.4C2377.71,3779.44 2377.8,3779.44 2377.86,3779.47" style="fill:rgb(109,172,130);fill-rule:nonzero;"/>
            <path d="M2376.37,3780.82C2376.5,3780.7 2376.61,3780.55 2376.68,3780.39C2376.83,3780.43 2376.82,3780.45 2376.93,3780.51C2376.96,3781.62 2377.95,3783.77 2377.3,3784.48C2377.24,3784.53 2377.29,3784.49 2377.18,3784.54C2377,3784.03 2377.11,3783.5 2376.93,3782.93C2376.73,3782.27 2376.37,3781.64 2376.37,3780.82" style="fill:rgb(109,172,130);fill-rule:nonzero;"/>
            <path d="M2376.37,3780.51L2376.25,3780.51L2376.25,3780.45L2376.19,3780.45C2376.27,3780.3 2376.36,3780.16 2376.44,3780.02C2376.5,3780.04 2376.56,3780.06 2376.62,3780.08L2376.62,3780.2C2376.53,3780.3 2376.45,3780.4 2376.37,3780.51" style="fill:rgb(109,172,130);fill-rule:nonzero;"/>
            <path d="M2375.44,3781.69C2375.46,3781.25 2375.57,3781.17 2375.69,3780.89C2375.76,3780.91 2375.82,3780.92 2375.88,3780.95C2375.81,3781.57 2376.21,3782.44 2376.44,3783.18C2376.63,3783.81 2376.44,3784.37 2376.62,3784.97C2376.72,3785.3 2376.95,3785.98 2376.68,3786.33C2376.62,3786.38 2376.67,3786.35 2376.56,3786.39C2376.21,3785.39 2376.06,3784.26 2375.76,3783.3C2375.59,3782.78 2375.78,3782.02 2375.44,3781.69" style="fill:rgb(109,172,130);fill-rule:nonzero;"/>
            <path d="M2372.91,3785.04C2372.99,3784.2 2373.57,3784.16 2373.96,3783.68C2374.11,3783.48 2374.17,3783.23 2374.33,3783.06C2374.29,3782.85 2374.26,3782.87 2374.21,3782.68C2374.47,3782.55 2374.59,3782.34 2374.76,3782.13C2374.87,3782.17 2374.82,3782.15 2374.89,3782.19C2375.17,3782.62 2375.08,3783.68 2375.26,3784.23C2375.51,3785.03 2375.6,3785.95 2375.88,3786.83C2376,3787.21 2376.33,3787.89 2376.19,3788.45C2376,3789.1 2375.77,3789.73 2375.51,3790.36C2375.38,3790.33 2375.39,3790.34 2375.32,3790.3C2374.93,3789.77 2374.77,3788.81 2374.51,3788.13C2374.3,3787.57 2373.77,3787.14 2373.52,3786.58C2373.28,3786.04 2373.25,3785.46 2372.91,3785.04" style="fill:rgb(109,172,130);fill-rule:nonzero;"/>
            <path d="M2372.04,3788.31C2371.76,3787.75 2371.72,3787 2371.36,3786.52C2371.42,3785.99 2371.92,3785.76 2372.16,3785.4C2372.27,3785.44 2372.22,3785.42 2372.29,3785.46C2372.76,3785.84 2372.79,3786.83 2373.1,3787.38C2373.27,3787.7 2373.68,3788.04 2373.84,3788.37C2373.9,3788.64 2373.96,3788.91 2374.02,3789.17C2374.2,3789.57 2374.51,3790.03 2374.64,3790.48L2374.64,3791.09C2374.77,3791.55 2375.11,3791.96 2374.89,3792.64C2374.81,3792.88 2374.54,3793.2 2374.46,3793.44C2374.32,3793.88 2374.53,3794.12 2374.27,3794.37C2374.21,3794.44 2374.27,3794.38 2374.21,3794.43C2373.69,3793.31 2373.31,3791.83 2372.91,3790.66C2372.79,3790.14 2372.66,3789.63 2372.54,3789.11C2372.43,3788.86 2372.16,3788.55 2372.04,3788.31" style="fill:rgb(109,172,130);fill-rule:nonzero;"/>
            <path d="M2370.12,3787.88C2370.21,3787.49 2370.56,3787.26 2370.74,3786.95C2370.85,3786.99 2370.8,3786.96 2370.87,3787.01C2371.16,3787.37 2371.08,3787.92 2371.3,3788.37C2371.48,3788.75 2371.83,3789.2 2371.98,3789.61C2372.12,3789.99 2372.04,3790.27 2372.16,3790.66C2372.39,3791.4 2372.62,3792.19 2372.91,3792.95C2373.07,3793.37 2373.19,3793.9 2373.4,3794.38C2373.51,3794.62 2373.75,3794.84 2373.83,3795.12L2373.89,3795.12L2373.89,3795.18C2373.42,3795.35 2373.23,3795.48 2373.03,3795.92C2372.43,3795.79 2372.45,3794.6 2372.23,3794.07C2371.57,3792.51 2370.89,3790.7 2370.18,3789.18C2369.98,3788.74 2370.32,3788.24 2370.12,3787.88" style="fill:rgb(109,172,130);fill-rule:nonzero;"/>
            <path d="M2370.92,3794.07C2370.46,3792.88 2368.96,3790.97 2369.56,3789.55C2369.67,3789.59 2369.62,3789.56 2369.68,3789.61C2370.11,3789.98 2370.19,3790.86 2370.43,3791.41C2370.71,3792.06 2370.88,3792.83 2371.17,3793.51C2371.29,3793.8 2371.56,3794.14 2371.67,3794.44C2371.94,3795.21 2371.97,3795.96 2372.41,3796.55C2372.33,3796.67 2372.22,3796.77 2372.1,3796.85C2372.04,3796.92 2372.11,3796.86 2372.03,3796.91C2371.53,3796.06 2371.31,3795.06 2370.92,3794.07" style="fill:rgb(109,172,130);fill-rule:nonzero;"/>
            <path d="M2369.38,3793.57C2369.14,3793 2368.7,3792.36 2369.01,3791.59C2369.07,3791.61 2369.13,3791.63 2369.2,3791.65C2369.5,3792.78 2370.07,3793.64 2370.43,3794.63C2370.74,3795.44 2370.94,3796.64 2371.42,3797.29C2371.4,3797.5 2371.42,3797.49 2371.3,3797.59C2371.24,3797.66 2371.31,3797.6 2371.23,3797.65C2370.5,3796.35 2370.01,3795.04 2369.38,3793.57" style="fill:rgb(109,172,130);fill-rule:nonzero;"/>
            <path d="M2369.13,3799.27C2369.1,3799.59 2369.01,3799.57 2368.88,3799.76L2368.76,3799.76C2368.71,3799.7 2368.76,3799.75 2368.7,3799.7C2368.73,3799.45 2368.81,3799.27 2368.88,3799.08C2368.94,3799.1 2369.01,3799.13 2369.07,3799.15C2369.11,3799.25 2369.08,3799.21 2369.13,3799.27" style="fill:rgb(109,172,130);fill-rule:nonzero;"/>
            <path d="M2368.51,3793.7C2368.87,3793.98 2368.85,3794.63 2369.07,3795.06C2369.17,3795.27 2369.4,3795.54 2369.5,3795.74C2369.7,3796.14 2369.71,3796.55 2369.94,3796.92C2370.2,3797.36 2370.55,3797.75 2370.68,3798.34C2370.48,3798.54 2370.37,3798.79 2370.12,3798.96C2370.06,3799.03 2370.13,3798.97 2370.06,3799.02C2369.78,3798.61 2369.44,3798.17 2369.25,3797.66C2369.21,3797.35 2369.17,3797.04 2369.13,3796.73C2369.06,3796.48 2368.84,3796.16 2368.76,3795.93C2368.55,3795.31 2368.54,3794.78 2368.2,3794.32C2368.2,3793.99 2368.23,3793.82 2368.33,3793.64C2368.45,3793.66 2368.45,3793.66 2368.51,3793.7" style="fill:rgb(109,172,130);fill-rule:nonzero;"/>
            <path d="M2368.7,3771.98C2368.76,3771.9 2368.82,3771.82 2368.88,3771.74L2369.01,3771.74C2368.98,3771.77 2368.8,3772.07 2368.7,3771.98" style="fill:rgb(109,172,130);fill-rule:nonzero;"/>
            <path d="M2368.39,3798.59C2368.01,3797.91 2367.52,3796.48 2367.77,3795.87C2367.88,3795.91 2367.83,3795.88 2367.89,3795.93C2368.35,3796.5 2368.19,3797.63 2368.63,3798.22C2368.59,3798.44 2368.59,3798.43 2368.45,3798.53C2368.39,3798.6 2368.45,3798.53 2368.39,3798.59" style="fill:rgb(109,172,130);fill-rule:nonzero;"/>
            <path d="M2367.4,3798.34C2367.44,3798.36 2367.48,3798.38 2367.52,3798.4C2367.5,3798.53 2367.51,3798.52 2367.47,3798.58C2367.41,3798.66 2367.47,3798.59 2367.4,3798.65C2367.34,3798.58 2367.41,3798.64 2367.34,3798.58C2367.36,3798.45 2367.37,3798.43 2367.4,3798.34" style="fill:rgb(109,172,130);fill-rule:nonzero;"/>
            <path d="M2364.61,3775.25C2364.93,3774.78 2365.53,3774.55 2365.85,3774.08L2365.97,3774.08L2365.97,3774.14L2365.91,3774.14C2365.74,3774.4 2364.87,3775.25 2364.55,3775.31L2364.55,3775.25L2364.61,3775.25Z" style="fill:rgb(109,172,130);fill-rule:nonzero;"/>
            <path d="M2360.96,3778.47L2360.71,3778.65L2360.96,3778.47Z" style="fill:rgb(109,172,130);"/>
            <path d="M2360.59,3778.78C2360.47,3778.98 2360.32,3779.16 2360.03,3779.21L2360.03,3779.15L2360.09,3779.15C2360.22,3778.97 2360.41,3778.9 2360.53,3778.72L2360.66,3778.72L2360.66,3778.78L2360.59,3778.78Z" style="fill:rgb(109,172,130);fill-rule:nonzero;"/>
            <path d="M2353.47,3789.24C2353.65,3788.41 2353.2,3787.56 2353.27,3786.82C2353.3,3786.63 2353.36,3786.45 2353.47,3786.27C2353.57,3786.26 2353.6,3786.26 2353.66,3786.46C2353.82,3786.27 2353.78,3786.08 2353.91,3785.83C2354.01,3785.76 2354.11,3785.67 2354.22,3785.58C2354.52,3784.94 2353.9,3784.3 2354.47,3783.8L2354.34,3783.67C2354.6,3782.93 2355.23,3782.72 2355.64,3782.18C2355.75,3782.04 2355.8,3781.85 2355.95,3781.75C2356.07,3781.73 2356.2,3781.71 2356.32,3781.69C2356.47,3781.61 2356.61,3781.35 2356.76,3781.26C2356.88,3781.22 2357,3781.17 2357.13,3781.13C2357.62,3780.8 2358.01,3780.24 2358.49,3779.89C2359.02,3779.51 2359.56,3779.22 2360.1,3778.85C2361.79,3777.65 2363.15,3776.07 2364.8,3774.82C2365.2,3774.52 2365.51,3774.01 2365.91,3773.71C2366.81,3773.05 2367.64,3772.39 2368.51,3771.73C2368.78,3771.52 2368.99,3771.18 2369.26,3770.98C2369.63,3770.71 2370.09,3770.48 2370.37,3770.12L2370.49,3770.12C2370.55,3770.18 2370.49,3770.12 2370.56,3770.18C2370.37,3770.68 2369.45,3771.07 2369.14,3771.6L2369.07,3771.6L2369.07,3771.66C2369.54,3771.5 2369.79,3770.97 2370.19,3770.73C2370.85,3770.35 2371.37,3769.94 2371.98,3769.5C2372.16,3769.29 2372.35,3769.08 2372.54,3768.88C2372.9,3768.61 2373.28,3768.4 2373.59,3768.07C2373.6,3767.99 2373.6,3767.99 2373.47,3767.89C2373.54,3767.7 2373.65,3767.55 2373.8,3767.42C2374.22,3767.06 2374.91,3766.96 2375.39,3766.71C2375.62,3766.58 2375.89,3766.35 2376.12,3766.22C2376.43,3766.06 2376.82,3766.02 2377.05,3765.78C2377.07,3765.68 2377.1,3765.58 2377.11,3765.47C2377.3,3765.18 2377.83,3764.81 2378.11,3764.61C2378.17,3764.51 2378.26,3764.67 2378.35,3764.73C2378.54,3764.54 2378.76,3764.41 2378.91,3764.18C2379.11,3764.2 2379.25,3764.24 2379.4,3764.3C2379.56,3763.99 2379.72,3763.55 2379.96,3763.31C2380.02,3763.25 2379.96,3763.31 2380.02,3763.25C2380.08,3763.31 2380.02,3763.25 2380.09,3763.31C2379.94,3763.69 2379.8,3764.16 2379.53,3764.42L2379.53,3764.55L2379.59,3764.55L2379.59,3764.48C2380.03,3764.31 2380.1,3763.63 2380.34,3763.25C2380.75,3762.58 2381.3,3761.98 2381.82,3761.39C2381.9,3761.45 2381.94,3761.51 2382.01,3761.58C2381.96,3762.06 2381.76,3762.32 2381.63,3762.69C2381.57,3763.1 2381.51,3763.52 2381.45,3763.93C2381.26,3764.46 2381.02,3765.26 2380.83,3765.85C2380.76,3766.06 2380.57,3767.61 2380.64,3767.82C2380.67,3767.91 2380.87,3768.08 2380.89,3768.13C2380.95,3768.37 2380.56,3769.55 2380.46,3769.81C2380.3,3770.19 2379.95,3770.41 2379.77,3770.73C2379.59,3771.11 2379.63,3771.48 2379.4,3771.79C2379.25,3772 2378.89,3772.09 2378.79,3772.35C2378.62,3772.73 2378.81,3773.37 2378.6,3773.71C2378.44,3773.85 2378.27,3774 2378.11,3774.14C2377.88,3774.45 2377.77,3774.82 2377.55,3775.13C2377.21,3775.6 2376.65,3775.95 2376.31,3776.43C2376.02,3776.85 2375.91,3777.61 2375.51,3777.92C2375.43,3777.92 2375.48,3777.96 2375.39,3777.85C2374.81,3778.01 2374.93,3778.9 2374.51,3779.21C2374.12,3779.52 2373.74,3779.78 2373.34,3780.08C2373.17,3780.27 2373.01,3780.45 2372.85,3780.63C2372.11,3781.13 2371.47,3781.45 2370.99,3782.18C2370.73,3782.13 2370.76,3782.15 2370.74,3781.87C2370.02,3782.31 2369.3,3782.8 2368.57,3783.23C2368.63,3784.28 2368.2,3785.19 2367.84,3786.02C2367.59,3786.59 2367.59,3787.12 2367.34,3787.69C2367.12,3788.18 2366.81,3788.8 2366.6,3789.3C2366.47,3789.6 2366.54,3789.81 2366.41,3790.1C2366.27,3790.43 2366.02,3790.87 2365.91,3791.22C2365.82,3791.53 2365.88,3791.84 2365.73,3792.08C2365.61,3792.22 2365.56,3792.15 2365.48,3792.21C2365.21,3792.45 2365.25,3792.88 2365.05,3793.2C2364.96,3793.33 2364.71,3793.32 2364.61,3793.45C2364.55,3793.61 2364.49,3793.78 2364.43,3793.94C2364.22,3794.26 2363.81,3794.51 2363.5,3794.75C2363.24,3794.95 2363.2,3795.27 2363.01,3795.55C2362.87,3795.75 2362.57,3795.9 2362.45,3796.11C2362.29,3796.37 2362.39,3796.69 2362.26,3796.97C2362.21,3797.08 2362.02,3797.24 2361.95,3797.35C2361.54,3798.03 2361.24,3798.7 2360.78,3799.33C2360.59,3799.49 2360.41,3799.66 2360.22,3799.82C2360.05,3800.06 2360.03,3800.27 2359.79,3800.44C2359.62,3800.53 2359.37,3800.45 2359.05,3800.56C2358.72,3800.68 2358.27,3801.21 2357.75,3801.06C2357.6,3801.02 2357.51,3800.86 2357.37,3800.81C2357.33,3800.87 2357.07,3801.05 2357,3801.06C2356.94,3801.07 2356.85,3800.94 2356.82,3800.93C2356.4,3800.83 2355.61,3800.88 2355.27,3801C2354.69,3801.19 2354.26,3801.85 2353.85,3801.98C2353.79,3802.04 2353.83,3802.01 2353.72,3802.05C2353.22,3801.23 2353.35,3799.62 2353.35,3798.27L2353.35,3792.52C2353.35,3791.37 2353.25,3790.32 2353.47,3789.24M2360.53,3778.72C2360.41,3778.9 2360.22,3778.97 2360.1,3779.15L2360.04,3779.15L2360.04,3779.21C2360.32,3779.16 2360.46,3778.98 2360.59,3778.78L2360.66,3778.78L2360.66,3778.72L2360.53,3778.72ZM2360.71,3778.66C2360.78,3778.64 2360.84,3778.62 2360.9,3778.6C2360.92,3778.55 2360.94,3778.51 2360.96,3778.47L2360.84,3778.47C2360.8,3778.53 2360.76,3778.6 2360.71,3778.66M2365.85,3774.08C2365.54,3774.55 2364.94,3774.78 2364.61,3775.25L2364.55,3775.25L2364.55,3775.32C2364.87,3775.25 2365.75,3774.4 2365.91,3774.14L2365.97,3774.14L2365.97,3774.08L2365.85,3774.08ZM2369.01,3771.73L2368.89,3771.73C2368.82,3771.81 2368.76,3771.89 2368.7,3771.97C2368.81,3772.06 2368.99,3771.77 2369.01,3771.73" style="fill:rgb(109,172,130);fill-rule:nonzero;"/>
            <path d="M2352.22,3786.64C2352.53,3785.2 2352.01,3783.33 2352.8,3782.18C2353.01,3781.88 2353.36,3781.74 2353.67,3781.51C2353.71,3781.41 2353.75,3781.3 2353.78,3781.2C2354.02,3780.93 2354.3,3780.86 2354.6,3780.64C2354.82,3780.37 2355.05,3780.11 2355.27,3779.83C2356.03,3779.37 2356.61,3778.82 2357.32,3778.35C2357.58,3778.17 2357.86,3778.11 2358.12,3777.92C2358.74,3777.47 2359.28,3776.81 2359.92,3776.37C2360.67,3775.84 2361.57,3775.49 2362.33,3774.95C2362.64,3774.62 2362.95,3774.29 2363.26,3773.96L2363.63,3773.96C2363.85,3773.85 2364.02,3773.47 2364.25,3773.34C2364.61,3773.13 2364.96,3773.07 2365.3,3772.85C2365.41,3772.77 2365.34,3772.62 2365.42,3772.53C2365.65,3772.29 2366.03,3772.19 2366.23,3771.92C2366.57,3771.45 2367.01,3771.13 2367.34,3770.68C2367.44,3770.55 2367.47,3770.35 2367.59,3770.25C2368.21,3769.67 2369.16,3769.48 2369.88,3769.01C2370.38,3768.68 2370.77,3768.12 2371.24,3767.77C2371.8,3767.35 2372.35,3766.93 2372.9,3766.51L2373.8,3767.43C2373.65,3767.55 2373.54,3767.72 2373.47,3767.9C2373.61,3767.99 2373.6,3767.99 2373.59,3768.08C2373.28,3768.4 2372.9,3768.61 2372.54,3768.88C2372.35,3769.09 2372.17,3769.3 2371.98,3769.5C2371.37,3769.95 2370.85,3770.35 2370.18,3770.74C2369.78,3770.97 2369.54,3771.5 2369.07,3771.67L2369.07,3771.61L2369.13,3771.61C2369.46,3771.08 2370.37,3770.68 2370.56,3770.18C2370.49,3770.12 2370.56,3770.19 2370.5,3770.12L2370.37,3770.12C2370.09,3770.48 2369.63,3770.71 2369.26,3770.99C2368.99,3771.18 2368.78,3771.53 2368.52,3771.73C2367.64,3772.4 2366.81,3773.06 2365.92,3773.71C2365.51,3774.01 2365.21,3774.52 2364.81,3774.82C2363.16,3776.07 2361.8,3777.65 2360.1,3778.85C2359.56,3779.23 2359.02,3779.52 2358.49,3779.9C2358.01,3780.25 2357.62,3780.8 2357.13,3781.13C2357.01,3781.18 2356.88,3781.22 2356.76,3781.26C2356.62,3781.36 2356.47,3781.62 2356.33,3781.7C2356.2,3781.72 2356.08,3781.73 2355.95,3781.75C2355.81,3781.85 2355.76,3782.05 2355.65,3782.18C2355.23,3782.73 2354.6,3782.93 2354.35,3783.67L2354.47,3783.8C2353.9,3784.3 2354.52,3784.94 2354.22,3785.59C2354.12,3785.67 2354.02,3785.76 2353.91,3785.84C2353.78,3786.08 2353.82,3786.27 2353.67,3786.46C2353.6,3786.26 2353.57,3786.27 2353.48,3786.27C2353.37,3786.44 2353.3,3786.63 2353.28,3786.82L2352.22,3786.64Z" style="fill:rgb(82,22,40);fill-rule:nonzero;"/>
            <path d="M2352.12,3800.31C2352.12,3799.53 2352.29,3798.64 2352.54,3798.02C2352.59,3798.04 2352.63,3798.07 2352.67,3798.08C2352.69,3798.6 2352.78,3800.34 2352.55,3800.56C2352.42,3800.64 2352.26,3800.42 2352.12,3800.31" style="fill:rgb(109,172,130);fill-rule:nonzero;"/>
            <path d="M2352.18,3801.99C2352.23,3801.66 2352.4,3801.49 2352.54,3801.25C2352.59,3801.27 2352.63,3801.29 2352.67,3801.31C2352.69,3801.71 2352.72,3801.95 2352.43,3802.05C2352.36,3802.1 2352.41,3802.08 2352.3,3802.11C2352.24,3802.04 2352.25,3802.05 2352.18,3801.99" style="fill:rgb(109,172,130);fill-rule:nonzero;"/>
            <path d="M2348.59,3817.33C2348.8,3817.39 2348.92,3817.48 2349.08,3817.58L2349.08,3817.7L2349.02,3817.7C2348.89,3817.55 2348.71,3817.49 2348.59,3817.33" style="fill:rgb(109,172,130);fill-rule:nonzero;"/>
            <path d="M2348.59,3817.28L2348.59,3817.34C2348.49,3817.3 2348.53,3817.33 2348.47,3817.28L2348.59,3817.28Z" style="fill:rgb(109,172,130);fill-rule:nonzero;"/>
            <path d="M2344.94,3814.55L2345.25,3814.37C2345.25,3814.04 2345.34,3813.81 2345.19,3813.62C2345.21,3813.48 2345.22,3813.47 2345.25,3813.38C2345.75,3813.18 2346.89,3813.04 2347.48,3813.31C2347.71,3813.42 2347.93,3813.74 2348.15,3813.87C2348.49,3813.99 2348.82,3814.12 2349.14,3814.24C2349.38,3814.39 2349.58,3814.72 2349.83,3814.86C2350.09,3815.01 2350.34,3815.01 2350.57,3815.17C2350.75,3815.38 2350.94,3815.58 2351.13,3815.79C2351.44,3816 2351.84,3816.11 2352.05,3816.41C2352.18,3816.59 2352.18,3816.91 2352.3,3817.09C2352.27,3817.2 2352.29,3817.15 2352.24,3817.22L2352.24,3817.27C2351.82,3817.12 2351.74,3816.74 2351.5,3816.41C2351.34,3816.19 2351.04,3816.09 2350.88,3815.85C2350.69,3815.85 2350.57,3815.87 2350.45,3815.91C2350.47,3816.53 2350.84,3816.53 2351,3816.97L2351.07,3816.97L2351.07,3817.02L2351,3817.02L2351,3817.09C2350.69,3816.97 2350.69,3816.71 2350.38,3816.59C2350.32,3816.54 2350.37,3816.57 2350.27,3816.53C2350.2,3816.6 2350.27,3816.53 2350.2,3816.59C2350.27,3817.02 2350.46,3817.36 2350.75,3817.58C2350.74,3817.73 2350.74,3817.76 2350.69,3817.83L2350.69,3817.89C2350.28,3817.75 2350.3,3817.39 2350.14,3817.09L2349.7,3817.09C2349.74,3817.63 2350.22,3818.69 2350.51,3819.01C2350.52,3819.2 2350.52,3819.4 2350.45,3819.5L2350.45,3819.57C2350.39,3819.55 2350.33,3819.52 2350.27,3819.5C2350.22,3819.37 2350.21,3819.01 2350.14,3818.88L2350.14,3818.76C2349.98,3818.86 2350.04,3819.04 2349.95,3819.19L2349.95,3819.26C2349.89,3819.24 2349.83,3819.21 2349.77,3819.19C2349.68,3819.02 2349.64,3818.83 2349.64,3818.64L2349.45,3818.64C2348.83,3817.62 2348.1,3817.52 2347.1,3816.91C2346.88,3816.76 2346.66,3816.46 2346.43,3816.34C2346.24,3816.25 2345.91,3816.32 2345.74,3816.22L2345.68,3816.22L2345.68,3816.16C2345.89,3816.06 2346.05,3816.02 2346.18,3816.1C2346.58,3816.13 2347.62,3816.73 2347.91,3816.97L2348.03,3816.97C2347.98,3816.89 2348.04,3816.96 2347.97,3816.91C2347.45,3816.15 2345.57,3815.89 2344.69,3815.42C2344.73,3815.28 2344.75,3815.19 2344.82,3815.11C2344.93,3814.97 2345.04,3814.97 2345.32,3814.98C2345.22,3814.75 2345.07,3814.73 2344.94,3814.55M2348.59,3817.33C2348.71,3817.5 2348.9,3817.55 2349.03,3817.71L2349.09,3817.71L2349.09,3817.58C2348.92,3817.48 2348.81,3817.39 2348.59,3817.33L2348.59,3817.27L2348.47,3817.27C2348.53,3817.33 2348.49,3817.29 2348.59,3817.33" style="fill:rgb(109,172,130);fill-rule:nonzero;"/>
            <g transform="matrix(2.48452,4.96905,4.96905,-2.48452,2343.68,3822.49)">
                <ellipse cx="-0.022" cy="-0.015" rx="0.038" ry="0.027" style="fill:rgb(109,172,130);"/>
            </g>
            <path d="M2343.33,3822.23L2343.33,3822.29C2343.23,3822.25 2343.27,3822.28 2343.21,3822.23L2343.33,3822.23Z" style="fill:rgb(109,172,130);fill-rule:nonzero;"/>
            <path d="M2342.02,3831.26C2341.91,3831.05 2341.82,3830.92 2341.84,3830.71C2341.96,3830.81 2342.09,3830.91 2342.21,3831.02C2342.19,3831.08 2342.16,3831.14 2342.14,3831.2C2342.11,3831.23 2342.07,3831.25 2342.02,3831.26" style="fill:rgb(109,172,130);fill-rule:nonzero;"/>
            <path d="M2340.36,3821.42C2341.17,3821.41 2342.17,3821.6 2342.59,3821.98L2342.71,3821.98L2342.71,3821.91C2342.31,3821.71 2341.79,3821.45 2341.35,3821.3C2340.6,3821.04 2339.83,3821.18 2339.18,3820.86C2339.21,3820.69 2339.23,3820.59 2339.31,3820.49C2339.43,3820.36 2339.54,3820.36 2339.8,3820.36C2339.72,3820.19 2339.54,3820.09 2339.37,3820C2339.45,3819.81 2339.46,3819.83 2339.62,3819.75C2339.57,3819.33 2339.57,3819.12 2339.43,3818.82C2340.62,3818.14 2341.85,3818.55 2342.9,3819C2343.08,3819.05 2343.27,3819.09 2343.46,3819.13C2343.7,3819.24 2343.93,3819.51 2344.2,3819.63C2344.45,3819.7 2344.7,3819.79 2344.94,3819.87C2345.17,3820.01 2345.37,3820.3 2345.62,3820.43C2345.86,3820.55 2346.05,3820.54 2346.24,3820.68C2346.64,3820.96 2346.9,3821.53 2347.29,3821.79C2347.51,3821.94 2347.89,3821.99 2348.1,3822.1C2348.2,3822.38 2348.25,3822.67 2348.47,3822.84C2348.46,3823 2348.44,3823.05 2348.41,3823.15C2348.35,3823.17 2348.28,3823.19 2348.22,3823.21C2347.84,3822.81 2347.45,3822.41 2347.05,3822.04C2346.77,3821.79 2346.45,3821.8 2346.24,3821.48C2345.97,3821.51 2346.03,3821.55 2345.87,3821.66C2345.89,3822.2 2346.39,3822.45 2346.73,3822.66C2346.67,3822.82 2346.61,3822.86 2346.48,3822.96C2346.54,3823.31 2346.85,3823.96 2347.11,3824.14C2347.05,3824.21 2347.11,3824.15 2347.05,3824.2L2347.05,3824.26C2346.8,3824.16 2346.67,3823.84 2346.43,3823.95C2346.07,3823.89 2346,3823.63 2345.75,3823.46L2345.75,3822.9L2345.68,3822.9L2345.68,3822.84L2345.37,3822.84L2345.37,3823.65C2345.85,3823.96 2346.05,3824.48 2346.43,3824.88C2346.42,3825.04 2346.42,3825.11 2346.36,3825.19L2346.36,3825.26C2346.06,3825.14 2346.11,3824.98 2345.93,3824.76C2345.76,3824.54 2345.42,3824.43 2345.25,3824.2C2344.96,3823.81 2344.65,3823.37 2344.26,3823.09C2343.47,3822.52 2342.54,3822.34 2341.6,3821.91C2341.5,3821.87 2341.39,3821.7 2341.29,3821.66C2340.99,3821.55 2340.68,3821.73 2340.36,3821.54L2340.3,3821.54L2340.3,3821.48L2340.36,3821.48L2340.36,3821.42ZM2343.21,3822.22C2343.27,3822.28 2343.22,3822.25 2343.33,3822.28C2343.42,3822.4 2343.54,3822.43 2343.64,3822.53L2343.77,3822.53L2343.77,3822.48C2343.62,3822.4 2343.52,3822.33 2343.33,3822.28L2343.33,3822.22L2343.21,3822.22Z" style="fill:rgb(109,172,130);fill-rule:nonzero;"/>
            <path d="M2337.69,3825.01L2337.69,3825.26L2337.57,3825.26L2337.57,3825.19C2337.53,3825.13 2337.53,3825.14 2337.51,3825.01L2337.69,3825.01Z" style="fill:rgb(109,172,130);fill-rule:nonzero;"/>
            <path d="M2337.26,3825.32C2337.28,3824.9 2337.21,3824.84 2336.95,3824.7C2336.96,3824.56 2336.96,3824.53 2337.01,3824.45C2337.1,3824.19 2337.23,3824.14 2337.58,3824.14C2337.49,3824.02 2337.39,3823.91 2337.26,3823.83L2337.26,3823.71C2337.34,3823.68 2337.45,3823.64 2337.51,3823.59C2337.69,3823.3 2337.56,3822.86 2337.63,3822.6C2339.07,3822.34 2339.05,3822.79 2339.99,3823.15C2340.27,3823.26 2340.48,3823.21 2340.73,3823.34C2341.3,3823.63 2341.91,3824.19 2342.58,3823.9C2342.76,3824.15 2343.19,3824.25 2343.33,3824.51C2343.35,3824.66 2343.36,3824.8 2343.39,3824.95C2343.52,3825.15 2344.44,3825.8 2344.69,3826C2344.86,3826.14 2344.81,3826.37 2344.94,3826.56C2345.09,3826.79 2345.39,3826.88 2345.62,3827.05C2345.73,3827.14 2345.77,3827.33 2345.86,3827.43C2345.83,3827.61 2345.85,3827.58 2345.74,3827.67C2345.61,3827.76 2344.9,3826.98 2344.75,3826.81L2344.63,3826.81C2344.72,3827.13 2345.03,3827.51 2345.24,3827.74C2345.21,3827.93 2345.24,3827.89 2345.12,3827.98C2345.06,3828.05 2345.13,3827.99 2345.06,3828.04C2344.96,3827.88 2344.85,3827.71 2344.75,3827.55C2344.43,3827.94 2344.8,3828.64 2345.06,3828.85C2345.02,3828.95 2345.05,3828.91 2345,3828.98C2344.94,3829.04 2345,3828.98 2344.94,3829.03C2344.83,3828.89 2344.73,3828.75 2344.63,3828.6L2344.31,3828.6C2344.34,3828.86 2344.4,3829.03 2344.56,3829.16C2344.43,3829.35 2344.18,3829.37 2344.01,3829.53C2343.66,3829.46 2343.58,3829.34 2343.14,3829.34C2343.16,3829.47 2343.15,3829.46 2343.2,3829.53C2343.27,3829.78 2343.62,3830.2 2343.82,3830.33C2343.78,3830.44 2343.81,3830.39 2343.76,3830.45C2343.7,3830.51 2343.74,3830.48 2343.64,3830.52C2343.58,3830.46 2343.44,3830.45 2343.39,3830.39C2343.28,3830.27 2343.28,3830.05 2343.14,3829.96C2342.98,3829.86 2342.89,3829.9 2342.77,3829.78L2342.64,3829.78C2342.73,3830.12 2342.93,3830.48 2343.14,3830.7L2343.08,3830.89C2342.64,3830.85 2342.26,3830.46 2342.15,3830.09L2341.66,3830.09C2341.68,3830.34 2341.69,3830.35 2341.84,3830.45C2341.82,3830.59 2341.83,3830.58 2341.78,3830.64C2341.73,3830.71 2341.79,3830.65 2341.72,3830.7C2341.61,3830.58 2341.51,3830.45 2341.41,3830.33C2341.35,3830.28 2341.39,3830.31 2341.29,3830.27C2341.23,3830.34 2341.29,3830.28 2341.22,3830.33C2341.23,3830.76 2341.38,3830.98 2341.6,3831.2C2341.55,3831.31 2341.58,3831.26 2341.53,3831.33C2340.95,3831.72 2340.36,3831.31 2339.55,3831.51C2339.46,3831.53 2339.28,3831.67 2339.12,3831.63C2338.99,3831.6 2338.91,3831.39 2338.81,3831.33C2338.53,3831.15 2338.22,3831.13 2337.94,3830.95C2337.86,3830.89 2337.59,3830.73 2337.51,3830.64C2337.49,3830.58 2337.47,3830.52 2337.45,3830.45L2337.2,3830.45C2336.96,3830.33 2336.8,3829.99 2336.58,3829.84C2336.58,3829.59 2336.58,3829.34 2336.58,3829.09C2336.52,3829.14 2336.45,3829.18 2336.4,3829.22C2336.34,3829.14 2336.34,3829.15 2336.27,3829.09C2336.41,3828.57 2336.7,3828.04 2336.83,3827.55L2336.83,3826.62C2336.9,3826.28 2337.1,3825.58 2337.26,3825.32M2337.51,3825.01C2337.53,3825.14 2337.53,3825.13 2337.58,3825.2L2337.58,3825.26L2337.69,3825.26L2337.69,3825.01L2337.51,3825.01Z" style="fill:rgb(109,172,130);fill-rule:nonzero;"/>
            <path d="M2332.12,3834.11C2332.09,3832.9 2332.55,3833.58 2332.99,3833L2333.18,3833C2333.29,3833.24 2333.25,3833.55 2333.36,3833.86C2333.44,3834.09 2333.66,3834.43 2333.73,3834.67C2333.75,3834.97 2333.77,3835.28 2333.79,3835.59C2333.88,3835.84 2334.1,3836.1 2334.16,3836.34C2334.32,3836.86 2334.15,3837.17 2334.41,3837.52C2334.42,3837.84 2334.45,3837.89 2334.16,3837.95C2334.21,3838.09 2334.19,3838.04 2334.29,3838.13C2334.27,3838.28 2334.26,3838.29 2334.23,3838.38C2333.78,3838.28 2333.81,3837.63 2333.67,3837.39C2333.55,3837.19 2333.33,3837.33 2333.24,3837.27C2333.06,3837.14 2332.72,3836.19 2332.5,3835.53C2332.41,3835.28 2332.34,3835.07 2332.31,3834.97C2332.21,3834.68 2332.27,3834.34 2332.12,3834.11" style="fill:rgb(109,172,130);fill-rule:nonzero;"/>
            <path d="M2333.18,3837.39C2333.07,3837.65 2332.91,3837.43 2332.93,3837.27C2333.07,3837.31 2333.07,3837.33 2333.18,3837.39" style="fill:rgb(109,172,130);fill-rule:nonzero;"/>
            <path d="M2332.02,3834.59C2332.15,3834.96 2332.34,3835.19 2332.49,3835.53C2332.54,3835.65 2332.44,3835.91 2332.49,3836.02C2332.56,3836.06 2332.62,3836.1 2332.68,3836.15C2332.84,3836.48 2332.74,3836.78 2332.99,3837.01C2332.95,3837.12 2332.97,3837.07 2332.93,3837.13C2332.86,3837.18 2332.91,3837.16 2332.81,3837.2C2332.58,3836.61 2332.42,3836 2332.24,3835.65C2332.19,3835.53 2332.33,3835.44 2332.31,3835.4C2332.24,3835.38 2332.18,3835.36 2332.12,3835.34C2332.06,3835.21 2331.98,3834.6 2332,3834.6L2332.02,3834.59Z" style="fill:rgb(109,172,130);fill-rule:nonzero;"/>
            <path d="M2332,3834.54C2332.01,3834.56 2332.02,3834.57 2332.02,3834.59L2332,3834.6C2331.86,3834.34 2331.56,3833.91 2331.75,3833.42C2331.86,3833.47 2331.81,3833.43 2331.88,3833.48C2332.09,3833.83 2331.92,3834.31 2332,3834.54" style="fill:rgb(109,172,130);fill-rule:nonzero;"/>
            <path d="M2331.39,3841.35C2330.92,3840.66 2330.4,3839.74 2330.09,3838.93C2329.97,3838.63 2330.05,3838.03 2329.84,3837.82C2329.86,3837.68 2329.87,3837.67 2329.9,3837.57C2330.14,3837.58 2330.17,3837.57 2330.27,3837.69C2330.35,3837.61 2330.42,3837.5 2330.46,3837.39L2330.71,3837.39C2330.71,3837.22 2330.71,3837.11 2330.64,3837.02C2330.69,3836.73 2330.81,3836.69 2331.08,3836.64C2331.26,3837.02 2331.18,3837.56 2331.32,3838.07C2331.58,3838.98 2332.1,3840.44 2331.57,3841.23C2331.55,3841.26 2331.53,3841.31 2331.51,3841.35L2331.39,3841.35Z" style="fill:rgb(109,172,130);fill-rule:nonzero;"/>
            <path d="M2329.15,3843.58C2328.97,3843.08 2328.69,3842.49 2328.54,3841.97L2328.54,3840.05C2328.51,3839.79 2328.44,3839.39 2328.54,3839.12C2329.14,3839.34 2329.19,3840.48 2329.46,3841.05C2330.09,3842.31 2330.38,3843.69 2330.95,3845C2331.16,3845.51 2331.14,3846.61 2331.44,3846.99C2331.42,3847.11 2331.42,3847.1 2331.38,3847.17C2331.32,3847.22 2331.36,3847.19 2331.26,3847.24C2330.9,3846.67 2330.56,3846.11 2330.2,3845.56C2330,3845.42 2329.9,3845.59 2329.71,3845.44C2329.34,3844.97 2329.37,3844.2 2329.15,3843.58" style="fill:rgb(109,172,130);fill-rule:nonzero;"/>
            <path d="M2328.04,3842.09C2327.82,3841.35 2327.31,3839.2 2327.55,3838.13C2327.63,3837.77 2327.78,3837.4 2327.86,3837.14C2327.97,3836.8 2327.86,3836.2 2327.92,3836.03C2327.94,3835.97 2328.14,3835.83 2328.17,3835.78C2328.3,3835.45 2328.2,3835.09 2328.36,3834.79C2328.7,3834.11 2329.34,3833.53 2329.78,3832.93C2329.92,3832.73 2329.94,3832.52 2330.08,3832.31L2330.71,3831.76C2330.91,3831.47 2330.94,3831.12 2331.14,3830.83C2331.3,3830.68 2331.47,3830.54 2331.63,3830.4C2331.85,3830.03 2331.96,3829.46 2332.07,3829.03L2332.07,3828.11C2332.16,3827.76 2332.4,3827.61 2332.56,3827.36C2332.66,3827.21 2332.59,3827.05 2332.68,3826.87C2332.85,3826.58 2333.36,3826.41 2333.56,3826.12C2333.71,3825.9 2333.69,3825.65 2333.92,3825.51C2334.22,3825.33 2334.48,3825.28 2334.67,3825.01C2334.77,3824.85 2334.79,3824.66 2334.91,3824.52C2335.06,3824.36 2335.36,3824.32 2335.47,3824.15C2335.64,3823.89 2335.74,3823.37 2335.78,3823.16L2335.78,3822.53C2335.88,3822.28 2336.23,3821.83 2336.34,3821.61C2336.32,3821.55 2336.29,3821.48 2336.27,3821.42C2336.66,3820.75 2337.68,3820.52 2338.07,3819.88C2338.21,3819.65 2338.24,3819.42 2338.38,3819.19C2338.48,3819.03 2338.74,3818.9 2338.81,3818.7C2338.87,3818.56 2338.73,3818.44 2338.75,3818.39C2338.84,3818.1 2339.4,3817.31 2339.62,3817.09C2339.94,3816.76 2340.41,3816.61 2340.79,3816.35C2340.93,3816.26 2341.02,3816.01 2341.17,3815.91C2341.34,3815.92 2341.67,3815.87 2341.91,3815.73C2342.12,3815.61 2342.14,3815.38 2342.28,3815.17C2342.44,3815.07 2342.61,3814.96 2342.77,3814.86C2343.21,3814.46 2343.43,3814.03 2343.95,3813.69C2344.19,3813.53 2344.22,3813.12 2344.38,3812.88L2345,3812.32C2345.09,3812.17 2345.32,3811.48 2345.37,3811.34L2345.37,3810.96C2345.61,3810.37 2346.02,3809.99 2346.24,3809.42C2346.32,3809.2 2346.18,3808.81 2346.3,3808.49C2346.63,3807.64 2347,3806.93 2347.91,3806.51C2347.9,3805.53 2348.62,3804.11 2349.08,3803.54C2349.15,3803.46 2349.34,3803.45 2349.39,3803.35L2349.39,3802.92C2349.47,3802.7 2349.71,3802.4 2349.83,3802.17C2349.93,3802.23 2349.94,3802.34 2350.01,3802.24C2350.22,3802.09 2350.22,3801.87 2350.19,3801.5C2350.45,3801.07 2350.08,3800.61 2350.19,3800.2C2350.39,3799.48 2350.52,3798.47 2350.69,3797.66L2350.69,3796.42C2350.93,3795.37 2351.01,3794.04 2351.25,3793.08C2351.23,3792.77 2351.21,3792.46 2351.19,3792.15C2351.32,3791.6 2351.38,3790.81 2351.56,3790.23C2351.68,3789.87 2351.94,3789.33 2351.99,3788.93C2352.02,3788.77 2351.83,3788.61 2351.87,3788.37C2351.94,3787.95 2352.07,3787.25 2352.18,3786.83C2352.19,3786.77 2352.21,3786.71 2352.22,3786.64L2353.28,3786.82C2353.2,3787.56 2353.66,3788.41 2353.48,3789.25C2353.25,3790.32 2353.36,3791.37 2353.36,3792.52L2353.36,3798.28C2353.36,3799.63 2353.22,3801.23 2353.73,3802.06C2353.83,3802.01 2353.79,3802.04 2353.85,3801.99C2354.26,3801.85 2354.69,3801.19 2355.27,3801C2355.61,3800.89 2356.41,3800.84 2356.82,3800.94C2356.85,3800.95 2356.94,3801.07 2357.01,3801.06C2357.07,3801.05 2357.33,3800.87 2357.38,3800.82C2357.51,3800.86 2357.61,3801.02 2357.75,3801.06C2358.28,3801.21 2358.72,3800.69 2359.04,3800.57C2359.37,3800.45 2359.63,3800.53 2359.79,3800.44C2360.03,3800.27 2360.05,3800.06 2360.22,3799.82C2360.41,3799.66 2360.59,3799.5 2360.78,3799.33C2361.24,3798.7 2361.54,3798.03 2361.96,3797.35C2362.02,3797.25 2362.22,3797.08 2362.27,3796.98C2362.39,3796.7 2362.29,3796.37 2362.45,3796.11C2362.58,3795.9 2362.88,3795.75 2363.01,3795.56C2363.2,3795.27 2363.23,3794.95 2363.5,3794.75C2363.81,3794.52 2364.22,3794.26 2364.43,3793.95C2364.49,3793.78 2364.56,3793.61 2364.62,3793.45C2364.71,3793.33 2364.96,3793.33 2365.05,3793.2C2365.26,3792.89 2365.21,3792.45 2365.48,3792.21C2365.57,3792.15 2365.61,3792.22 2365.73,3792.09C2365.88,3791.85 2365.82,3791.53 2365.92,3791.22C2366.03,3790.88 2366.27,3790.44 2366.41,3790.11C2366.54,3789.82 2366.47,3789.6 2366.6,3789.3C2366.82,3788.8 2367.13,3788.18 2367.34,3787.7C2367.59,3787.13 2367.59,3786.6 2367.83,3786.02C2368.19,3785.2 2368.63,3784.28 2368.58,3783.24C2369.3,3782.8 2370.02,3782.32 2370.74,3781.88C2370.77,3782.16 2370.73,3782.13 2370.99,3782.19C2371.47,3781.45 2372.11,3781.14 2372.85,3780.64C2373.01,3780.46 2373.18,3780.27 2373.34,3780.08C2373.74,3779.78 2374.13,3779.52 2374.52,3779.22C2374.93,3778.9 2374.82,3778.01 2375.38,3777.86C2375.48,3777.96 2375.43,3777.92 2375.51,3777.92C2375.91,3777.61 2376.02,3776.85 2376.31,3776.43C2376.65,3775.95 2377.21,3775.6 2377.55,3775.13C2377.78,3774.82 2377.88,3774.46 2378.11,3774.14C2378.27,3774 2378.44,3773.86 2378.61,3773.71C2378.81,3773.38 2378.63,3772.74 2378.79,3772.35C2378.89,3772.09 2379.25,3772 2379.41,3771.79C2379.63,3771.48 2379.59,3771.11 2379.78,3770.74C2379.95,3770.41 2380.31,3770.2 2380.46,3769.81C2380.56,3769.55 2380.96,3768.37 2380.89,3768.14C2380.88,3768.08 2380.67,3767.91 2380.64,3767.83C2380.57,3767.61 2380.77,3766.06 2380.83,3765.85C2381.02,3765.26 2381.27,3764.46 2381.45,3763.93L2381.63,3762.7C2381.76,3762.32 2381.97,3762.07 2382.01,3761.58C2381.93,3761.52 2381.91,3761.46 2381.82,3761.39C2381.31,3761.98 2380.76,3762.59 2380.34,3763.25C2380.09,3763.63 2380.03,3764.31 2379.59,3764.49L2379.59,3764.55L2379.53,3764.55L2379.53,3764.42C2379.8,3764.16 2379.94,3763.7 2380.09,3763.31C2380.02,3763.26 2380.08,3763.32 2380.03,3763.25C2379.96,3763.31 2380.02,3763.25 2379.97,3763.31C2379.73,3763.55 2379.56,3763.99 2379.41,3764.31C2379.26,3764.24 2379.11,3764.2 2378.91,3764.18C2378.76,3764.41 2378.54,3764.54 2378.36,3764.73C2378.26,3764.68 2378.17,3764.51 2378.11,3764.62C2377.83,3764.82 2377.3,3765.19 2377.12,3765.48C2377.09,3765.58 2377.08,3765.68 2377.06,3765.79C2376.83,3766.02 2376.43,3766.06 2376.13,3766.22C2375.89,3766.35 2375.63,3766.58 2375.38,3766.72C2374.91,3766.97 2374.23,3767.07 2373.8,3767.43L2372.9,3766.52C2373.09,3766.38 2373.27,3766.23 2373.47,3766.1C2374.42,3765.41 2375.18,3764.45 2376.13,3763.74C2376.27,3763.64 2376.39,3763.39 2376.56,3763.31C2377.07,3763.07 2377.83,3763.23 2378.29,3762.95C2378.86,3762.59 2379.08,3761.76 2379.41,3761.14C2379.59,3760.82 2381.06,3759.36 2381.39,3759.11C2382.28,3758.44 2383.22,3757.85 2384.11,3757.19C2384.61,3756.82 2385.03,3756.24 2385.53,3755.89C2386.19,3755.43 2386.92,3755.06 2387.58,3754.65C2387.85,3754.48 2388.16,3754.43 2388.38,3754.22C2388.54,3754.5 2387.94,3756.33 2387.82,3756.69C2387.62,3757.29 2387.68,3757.76 2387.46,3758.3C2387.28,3758.71 2386.89,3759.02 2386.71,3759.47C2386.48,3760.05 2386.43,3760.58 2386.16,3761.08C2386.02,3761.33 2385.76,3761.62 2385.66,3761.89C2385.53,3762.25 2385.61,3762.51 2385.47,3762.82C2385.38,3763.02 2385.13,3763.27 2385.16,3763.56C2385.27,3764.59 2384.03,3765.09 2383.86,3766.04C2383.84,3766.19 2384.02,3766.64 2383.92,3766.9C2383.42,3768.28 2383.57,3769.98 2383,3771.36C2382.76,3771.93 2382.87,3772.58 2382.69,3773.21C2382.49,3773.88 2381.96,3774.36 2381.76,3775.01C2381.57,3775.64 2381.69,3776.34 2381.45,3776.93C2380.78,3778.6 2380.44,3780.88 2379.78,3782.56L2379.59,3784.23C2379.34,3785.05 2379.1,3785.88 2378.85,3786.71L2378.67,3787.94C2378.47,3788.62 2378.23,3789.4 2378.04,3790.05L2378.04,3790.85C2377.96,3790.91 2377.88,3790.97 2377.8,3791.03L2377.8,3791.91C2377.65,3792.51 2377.61,3793.16 2377.43,3793.82C2377.05,3795.21 2376.72,3796.71 2376.26,3797.97C2376.04,3798.53 2376.02,3799.02 2375.69,3799.46C2375.43,3799.81 2374.78,3799.87 2374.39,3800.13C2374.27,3800.22 2374.25,3800.39 2374.15,3800.51C2374.14,3800.52 2373.22,3801.18 2373.22,3801.18C2373.07,3800.99 2373.13,3801.05 2372.85,3801.06C2372.53,3801.49 2371.83,3801.77 2371.42,3802.12C2371.34,3802.28 2371.26,3802.45 2371.18,3802.61C2370.77,3802.91 2370.41,3803.12 2370,3803.41C2369.82,3803.62 2369.63,3803.82 2369.44,3804.03C2369.23,3804.16 2369.04,3804.15 2368.83,3804.28L2368.21,3804.96C2367.73,3805.26 2367.43,3805.53 2366.97,3805.83C2366.51,3806.12 2365.96,3806.91 2365.48,3807.25C2365.31,3807.38 2365.13,3807.37 2364.93,3807.5L2364.24,3808.3C2362.61,3809.35 2361.43,3810.91 2360.28,3812.45C2360.04,3812.78 2359.44,3812.82 2359.23,3813.2C2359.11,3813.41 2359.19,3813.62 2358.99,3813.75C2358.77,3813.89 2358.44,3813.91 2358.31,3814.12C2358.19,3814.3 2358.23,3814.43 2358.12,3814.62C2357.96,3814.87 2357.53,3814.93 2357.38,3815.17C2356.97,3815.8 2356.47,3816.32 2355.95,3816.84C2355.69,3817.11 2355.24,3817.29 2355.02,3817.58C2354.46,3818.38 2353.89,3819.17 2353.29,3819.94C2353.19,3820.07 2352.91,3820.11 2352.79,3820.25C2352.71,3820.36 2352.76,3820.54 2352.67,3820.68C2352.49,3820.97 2352.07,3821.2 2351.93,3821.55L2351.93,3822.1C2351.84,3822.35 2351.79,3822.92 2351.68,3823.16C2351.69,3823.25 2351.81,3823.47 2351.74,3823.65C2351.53,3824.27 2351.33,3824.92 2351,3825.45C2350.9,3825.51 2350.79,3825.57 2350.69,3825.63C2350.56,3825.82 2350.63,3826.05 2350.51,3826.25C2350.37,3826.48 2350.07,3826.47 2349.83,3826.62L2349.39,3827.12C2348.73,3827.51 2347.84,3827.55 2347.48,3828.17C2347.39,3828.32 2347.08,3829.03 2347.17,3829.28C2347.24,3829.5 2347.43,3830.25 2347.29,3830.64C2347.17,3830.96 2346.56,3831.83 2346.3,3832C2346.21,3832.06 2346.12,3831.98 2346.05,3832.07C2345.84,3832.34 2345.89,3832.78 2345.68,3833.06C2345.55,3833.24 2345.34,3833.18 2345.12,3833.31C2344.98,3833.39 2345.03,3833.53 2344.94,3833.67C2344.79,3833.78 2344.65,3833.88 2344.51,3833.98C2344.23,3834.4 2344.17,3834.9 2343.88,3835.28C2343.64,3835.61 2343.18,3835.86 2342.96,3836.21C2342.82,3836.43 2342.82,3836.6 2342.64,3836.77C2342.44,3836.93 2342.23,3837.1 2342.03,3837.26C2341.88,3837.52 2341.87,3837.77 2341.66,3837.95C2340.68,3838.78 2339.78,3839.58 2339,3840.61C2338.79,3840.87 2338.51,3840.92 2338.38,3841.29C2338.46,3841.33 2338.51,3841.36 2338.57,3841.41C2338.04,3841.5 2338.05,3841.84 2337.82,3842.21C2337.62,3842.53 2337.11,3842.72 2336.96,3843.08L2336.96,3843.52C2336.91,3843.65 2336.75,3844.07 2336.65,3844.32L2336.65,3844.63C2336.56,3844.8 2336.26,3844.97 2336.15,3845.12C2335.86,3845.58 2335.7,3846 2335.41,3846.48C2335.31,3846.65 2335.02,3846.81 2334.91,3846.98C2334.67,3847.37 2334.57,3848.17 2334.42,3848.47C2334.24,3848.81 2333.86,3849.12 2333.67,3849.46L2333.67,3849.77C2333.49,3850.18 2332.91,3850.91 2332.44,3851.06L2332.44,3851C2332.33,3850.78 2332.53,3850.61 2332.07,3850.57C2331.91,3850.67 2331.68,3850.61 2331.51,3850.57C2330.37,3848.1 2329.26,3845.8 2328.23,3843.21C2328.07,3842.8 2328.18,3842.52 2328.04,3842.09M2328.54,3839.12C2328.44,3839.38 2328.52,3839.78 2328.54,3840.05L2328.54,3841.97C2328.69,3842.48 2328.98,3843.08 2329.16,3843.58C2329.38,3844.2 2329.34,3844.97 2329.72,3845.43C2329.91,3845.59 2330.01,3845.42 2330.21,3845.56C2330.56,3846.11 2330.91,3846.67 2331.26,3847.23C2331.37,3847.19 2331.32,3847.22 2331.39,3847.16C2331.43,3847.1 2331.42,3847.11 2331.44,3846.98C2331.14,3846.6 2331.17,3845.51 2330.96,3845C2330.39,3843.68 2330.09,3842.31 2329.47,3841.04C2329.19,3840.48 2329.14,3839.33 2328.54,3839.12M2330.64,3837.02C2330.71,3837.11 2330.71,3837.22 2330.71,3837.39L2330.46,3837.39C2330.41,3837.5 2330.35,3837.62 2330.27,3837.7C2330.16,3837.57 2330.14,3837.58 2329.9,3837.57C2329.87,3837.67 2329.86,3837.68 2329.84,3837.82C2330.05,3838.03 2329.97,3838.63 2330.08,3838.93C2330.4,3839.75 2330.92,3840.66 2331.39,3841.35L2331.51,3841.35C2331.53,3841.31 2331.55,3841.26 2331.57,3841.23C2332.09,3840.44 2331.58,3838.98 2331.32,3838.07C2331.18,3837.56 2331.26,3837.02 2331.08,3836.65C2330.8,3836.7 2330.69,3836.73 2330.64,3837.02M2332.32,3834.97C2332.34,3835.07 2332.42,3835.28 2332.5,3835.53C2332.36,3835.19 2332.16,3834.96 2332.02,3834.6C2332.02,3834.58 2332.01,3834.56 2332.01,3834.55C2331.93,3834.32 2332.09,3833.83 2331.88,3833.49C2331.82,3833.44 2331.87,3833.47 2331.76,3833.43C2331.57,3833.92 2331.87,3834.35 2332.01,3834.6C2331.98,3834.61 2332.06,3835.21 2332.13,3835.35C2332.19,3835.37 2332.25,3835.38 2332.32,3835.41C2332.34,3835.45 2332.19,3835.54 2332.25,3835.66C2332.43,3836 2332.59,3836.61 2332.81,3837.21C2332.92,3837.16 2332.87,3837.19 2332.93,3837.14C2332.98,3837.08 2332.96,3837.12 2332.99,3837.02C2332.76,3836.78 2332.85,3836.49 2332.68,3836.15C2332.62,3836.11 2332.56,3836.07 2332.5,3836.03C2332.45,3835.92 2332.55,3835.65 2332.5,3835.53C2332.72,3836.19 2333.07,3837.14 2333.24,3837.26C2333.33,3837.32 2333.56,3837.18 2333.67,3837.39C2333.82,3837.63 2333.78,3838.28 2334.23,3838.38C2334.27,3838.28 2334.27,3838.27 2334.29,3838.13C2334.19,3838.05 2334.22,3838.1 2334.17,3837.95C2334.45,3837.89 2334.43,3837.83 2334.42,3837.51C2334.16,3837.17 2334.32,3836.86 2334.17,3836.33C2334.11,3836.1 2333.88,3835.85 2333.79,3835.6C2333.78,3835.28 2333.76,3834.97 2333.74,3834.66C2333.67,3834.43 2333.44,3834.09 2333.36,3833.86C2333.26,3833.55 2333.29,3833.24 2333.18,3833L2332.99,3833C2332.56,3833.58 2332.1,3832.9 2332.13,3834.11C2332.28,3834.33 2332.22,3834.68 2332.32,3834.97M2332.93,3837.26C2332.91,3837.43 2333.07,3837.64 2333.18,3837.39C2333.07,3837.33 2333.08,3837.31 2332.93,3837.26M2339.43,3818.82C2339.57,3819.12 2339.57,3819.32 2339.62,3819.75C2339.46,3819.83 2339.44,3819.82 2339.37,3820C2339.53,3820.09 2339.72,3820.19 2339.8,3820.37C2339.53,3820.36 2339.42,3820.36 2339.31,3820.5C2339.23,3820.6 2339.21,3820.69 2339.18,3820.86C2339.83,3821.18 2340.59,3821.04 2341.35,3821.3C2341.79,3821.45 2342.31,3821.71 2342.71,3821.92L2342.71,3821.98L2342.59,3821.98C2342.17,3821.61 2341.17,3821.42 2340.36,3821.42L2340.36,3821.48L2340.29,3821.48L2340.29,3821.55L2340.36,3821.55C2340.67,3821.73 2340.99,3821.56 2341.29,3821.67C2341.39,3821.71 2341.5,3821.87 2341.6,3821.92C2342.54,3822.35 2343.47,3822.52 2344.26,3823.1C2344.65,3823.37 2344.96,3823.82 2345.24,3824.21C2345.42,3824.43 2345.76,3824.55 2345.93,3824.76C2346.11,3824.98 2346.06,3825.15 2346.36,3825.26L2346.36,3825.2C2346.42,3825.12 2346.42,3825.05 2346.42,3824.89C2346.04,3824.48 2345.84,3823.97 2345.37,3823.65L2345.37,3822.85L2345.68,3822.85L2345.68,3822.91L2345.74,3822.91L2345.74,3823.46C2345.99,3823.63 2346.07,3823.89 2346.42,3823.96C2346.67,3823.84 2346.79,3824.17 2347.04,3824.27L2347.04,3824.21C2347.11,3824.15 2347.05,3824.21 2347.11,3824.15C2346.85,3823.96 2346.54,3823.32 2346.48,3822.97C2346.61,3822.87 2346.67,3822.82 2346.73,3822.66C2346.39,3822.46 2345.89,3822.21 2345.87,3821.67C2346.02,3821.56 2345.97,3821.52 2346.24,3821.48C2346.45,3821.8 2346.77,3821.8 2347.04,3822.04C2347.44,3822.41 2347.85,3822.82 2348.22,3823.22L2348.41,3823.16C2348.44,3823.06 2348.45,3823.01 2348.47,3822.85C2348.25,3822.67 2348.2,3822.38 2348.09,3822.1C2347.89,3821.99 2347.51,3821.94 2347.29,3821.8C2346.89,3821.53 2346.63,3820.97 2346.24,3820.68C2346.04,3820.54 2345.86,3820.56 2345.62,3820.43C2345.37,3820.3 2345.17,3820.02 2344.94,3819.88C2344.69,3819.8 2344.44,3819.71 2344.19,3819.63C2343.93,3819.52 2343.7,3819.25 2343.46,3819.13C2343.27,3819.09 2343.08,3819.05 2342.89,3819.01C2341.84,3818.55 2340.62,3818.15 2339.43,3818.82M2341.53,3831.32C2341.58,3831.26 2341.56,3831.31 2341.6,3831.2C2341.38,3830.98 2341.23,3830.77 2341.22,3830.33C2341.29,3830.27 2341.23,3830.33 2341.29,3830.27C2341.39,3830.31 2341.35,3830.28 2341.41,3830.33L2341.72,3830.71C2341.79,3830.65 2341.73,3830.71 2341.78,3830.64C2341.83,3830.58 2341.82,3830.58 2341.84,3830.46C2341.69,3830.35 2341.68,3830.35 2341.66,3830.08L2342.15,3830.08C2342.26,3830.46 2342.64,3830.85 2343.08,3830.89C2343.1,3830.83 2343.12,3830.77 2343.14,3830.71C2342.91,3830.44 2342.73,3830.12 2342.64,3829.78L2342.77,3829.78C2342.89,3829.9 2342.99,3829.86 2343.14,3829.96C2343.28,3830.05 2343.28,3830.27 2343.39,3830.4C2343.44,3830.45 2343.58,3830.47 2343.64,3830.52C2343.75,3830.48 2343.7,3830.51 2343.77,3830.46C2343.81,3830.39 2343.78,3830.44 2343.83,3830.33C2343.62,3830.2 2343.27,3829.78 2343.21,3829.53C2343.16,3829.46 2343.17,3829.47 2343.14,3829.35C2343.58,3829.35 2343.67,3829.47 2344.01,3829.53C2344.18,3829.37 2344.43,3829.35 2344.57,3829.16C2344.41,3829.03 2344.34,3828.87 2344.32,3828.6L2344.63,3828.6C2344.73,3828.75 2344.83,3828.89 2344.94,3829.03C2345.01,3828.98 2344.94,3829.04 2345,3828.97C2345.05,3828.91 2345.02,3828.96 2345.06,3828.85C2344.8,3828.65 2344.43,3827.95 2344.76,3827.55C2344.86,3827.71 2344.96,3827.88 2345.06,3828.05C2345.13,3827.98 2345.07,3828.05 2345.12,3827.98C2345.24,3827.89 2345.21,3827.92 2345.24,3827.73C2345.03,3827.51 2344.72,3827.13 2344.63,3826.81L2344.76,3826.81C2344.91,3826.97 2345.62,3827.76 2345.74,3827.67C2345.86,3827.58 2345.83,3827.62 2345.87,3827.43C2345.77,3827.33 2345.73,3827.14 2345.62,3827.05C2345.39,3826.88 2345.09,3826.8 2344.94,3826.56C2344.82,3826.37 2344.86,3826.14 2344.69,3826C2344.44,3825.8 2343.52,3825.16 2343.39,3824.95C2343.37,3824.81 2343.35,3824.66 2343.33,3824.52C2343.19,3824.26 2342.76,3824.15 2342.59,3823.9C2341.91,3824.2 2341.3,3823.63 2340.73,3823.34C2340.48,3823.21 2340.27,3823.27 2339.99,3823.16C2339.05,3822.79 2339.07,3822.34 2337.63,3822.6C2337.56,3822.87 2337.69,3823.31 2337.51,3823.59C2337.45,3823.63 2337.34,3823.68 2337.27,3823.71L2337.27,3823.83C2337.39,3823.92 2337.49,3824.02 2337.57,3824.15C2337.23,3824.15 2337.11,3824.2 2337.02,3824.45C2336.97,3824.53 2336.97,3824.56 2336.96,3824.7C2337.21,3824.84 2337.28,3824.91 2337.27,3825.32C2337.1,3825.58 2336.91,3826.28 2336.83,3826.62L2336.83,3827.55C2336.7,3828.05 2336.42,3828.57 2336.27,3829.1C2336.34,3829.15 2336.34,3829.15 2336.4,3829.22C2336.46,3829.18 2336.52,3829.14 2336.58,3829.1C2336.58,3829.47 2336.58,3829.48 2336.58,3829.84C2336.81,3830 2336.97,3830.33 2337.2,3830.46L2337.45,3830.46C2337.47,3830.52 2337.49,3830.58 2337.51,3830.64C2337.6,3830.73 2337.86,3830.9 2337.94,3830.95C2338.22,3831.13 2338.52,3831.15 2338.81,3831.32C2338.92,3831.38 2338.99,3831.6 2339.12,3831.63C2339.28,3831.67 2339.46,3831.53 2339.55,3831.51C2340.37,3831.32 2340.95,3831.72 2341.53,3831.32M2341.84,3830.71C2341.83,3830.92 2341.92,3831.04 2342.03,3831.26C2342.07,3831.25 2342.11,3831.23 2342.15,3831.2L2342.22,3831.02C2342.09,3830.91 2341.97,3830.81 2341.84,3830.71M2344.69,3815.42C2345.57,3815.89 2347.45,3816.16 2347.97,3816.91C2348.03,3816.96 2347.98,3816.9 2348.03,3816.97L2347.91,3816.97C2347.62,3816.73 2346.58,3816.13 2346.18,3816.1C2346.06,3816.02 2345.89,3816.06 2345.68,3816.16L2345.68,3816.22L2345.74,3816.22C2345.91,3816.32 2346.24,3816.25 2346.42,3816.35C2346.66,3816.46 2346.88,3816.76 2347.11,3816.91C2348.11,3817.52 2348.83,3817.62 2349.46,3818.64L2349.64,3818.64C2349.65,3818.9 2349.69,3819.02 2349.76,3819.19L2349.96,3819.26L2349.96,3819.19C2350.04,3819.05 2349.97,3818.86 2350.14,3818.76L2350.14,3818.88C2350.21,3819.01 2350.22,3819.37 2350.26,3819.5L2350.44,3819.57L2350.44,3819.5C2350.52,3819.4 2350.51,3819.2 2350.51,3819.01C2350.22,3818.7 2349.74,3817.63 2349.71,3817.09L2350.14,3817.09C2350.31,3817.4 2350.28,3817.76 2350.69,3817.9L2350.69,3817.83C2350.74,3817.76 2350.74,3817.73 2350.76,3817.58C2350.46,3817.36 2350.27,3817.02 2350.19,3816.6C2350.27,3816.54 2350.2,3816.6 2350.26,3816.53C2350.37,3816.57 2350.32,3816.55 2350.38,3816.6C2350.69,3816.71 2350.69,3816.97 2351,3817.09L2351,3817.03L2351.07,3817.03L2351.07,3816.97L2351,3816.97C2350.84,3816.53 2350.47,3816.53 2350.44,3815.91C2350.56,3815.87 2350.69,3815.86 2350.88,3815.86C2351.03,3816.09 2351.33,3816.19 2351.5,3816.41C2351.74,3816.74 2351.82,3817.12 2352.24,3817.28L2352.24,3817.22C2352.29,3817.15 2352.27,3817.2 2352.31,3817.09C2352.17,3816.91 2352.18,3816.6 2352.06,3816.41C2351.84,3816.11 2351.44,3816.01 2351.13,3815.79C2350.94,3815.59 2350.75,3815.38 2350.57,3815.17C2350.33,3815.01 2350.08,3815.01 2349.83,3814.86C2349.57,3814.72 2349.38,3814.4 2349.14,3814.24C2348.82,3814.12 2348.49,3814 2348.16,3813.87C2347.93,3813.74 2347.71,3813.42 2347.48,3813.31C2346.89,3813.05 2345.74,3813.18 2345.24,3813.38C2345.22,3813.47 2345.21,3813.48 2345.19,3813.62C2345.34,3813.81 2345.24,3814.04 2345.24,3814.37L2344.94,3814.55C2345.07,3814.73 2345.22,3814.76 2345.31,3814.98C2345.04,3814.98 2344.93,3814.98 2344.81,3815.11C2344.75,3815.2 2344.71,3815.31 2344.69,3815.42M2352.55,3800.57C2352.78,3800.35 2352.68,3798.61 2352.67,3798.09L2352.55,3798.03C2352.28,3798.65 2352.13,3799.53 2352.12,3800.32C2352.26,3800.42 2352.42,3800.65 2352.55,3800.57M2352.43,3802.06C2352.72,3801.95 2352.69,3801.71 2352.67,3801.31L2352.55,3801.25C2352.41,3801.49 2352.23,3801.66 2352.18,3801.99C2352.25,3802.05 2352.25,3802.04 2352.31,3802.12C2352.41,3802.07 2352.36,3802.1 2352.43,3802.06M2367.9,3795.93C2367.83,3795.87 2367.88,3795.91 2367.78,3795.87C2367.52,3796.48 2368.02,3797.91 2368.39,3798.58C2368.46,3798.53 2368.39,3798.59 2368.46,3798.53C2368.6,3798.43 2368.6,3798.43 2368.64,3798.22C2368.19,3797.63 2368.36,3796.5 2367.9,3795.93M2367.47,3798.58C2367.51,3798.52 2367.51,3798.53 2367.52,3798.4C2367.48,3798.38 2367.44,3798.36 2367.4,3798.34C2367.37,3798.43 2367.36,3798.45 2367.34,3798.58C2367.41,3798.65 2367.34,3798.58 2367.4,3798.65C2367.47,3798.59 2367.41,3798.66 2367.47,3798.58M2369.07,3795.06C2368.86,3794.63 2368.87,3793.98 2368.52,3793.7C2368.45,3793.65 2368.46,3793.66 2368.33,3793.63C2368.23,3793.82 2368.21,3794 2368.21,3794.32C2368.54,3794.78 2368.56,3795.31 2368.76,3795.93C2368.84,3796.16 2369.06,3796.48 2369.13,3796.73C2369.18,3797.04 2369.22,3797.35 2369.26,3797.66C2369.44,3798.17 2369.78,3798.61 2370.07,3799.02C2370.13,3798.97 2370.07,3799.02 2370.13,3798.96C2370.37,3798.79 2370.48,3798.55 2370.68,3798.34C2370.56,3797.75 2370.2,3797.35 2369.94,3796.92C2369.72,3796.55 2369.71,3796.13 2369.51,3795.74C2369.41,3795.54 2369.18,3795.26 2369.07,3795.06M2369.01,3791.6C2368.7,3792.37 2369.14,3793.01 2369.38,3793.57C2370.01,3795.05 2370.5,3796.36 2371.24,3797.66C2371.31,3797.6 2371.24,3797.66 2371.3,3797.6C2371.42,3797.5 2371.41,3797.51 2371.42,3797.29C2370.94,3796.65 2370.74,3795.45 2370.43,3794.63C2370.07,3793.65 2369.49,3792.78 2369.19,3791.66C2369.13,3791.64 2369.07,3791.62 2369.01,3791.6M2368.89,3799.08C2368.79,3799.28 2368.73,3799.49 2368.7,3799.7C2368.77,3799.76 2368.71,3799.7 2368.76,3799.76L2368.89,3799.76C2369.02,3799.57 2369.1,3799.58 2369.13,3799.27C2369.08,3799.21 2369.12,3799.25 2369.07,3799.15L2368.89,3799.08M2369.57,3789.56C2368.97,3790.97 2370.46,3792.88 2370.93,3794.07C2371.32,3795.06 2371.54,3796.06 2372.04,3796.92C2372.11,3796.86 2372.05,3796.92 2372.11,3796.86C2372.23,3796.77 2372.33,3796.67 2372.42,3796.55C2371.97,3795.97 2371.95,3795.21 2371.67,3794.44C2371.57,3794.15 2371.3,3793.8 2371.18,3793.51C2370.88,3792.83 2370.71,3792.06 2370.43,3791.41C2370.2,3790.86 2370.12,3789.97 2369.69,3789.61C2369.63,3789.57 2369.67,3789.59 2369.57,3789.56M2370.74,3786.95C2370.56,3787.26 2370.21,3787.5 2370.13,3787.88C2370.32,3788.25 2369.98,3788.74 2370.18,3789.18C2370.9,3790.71 2371.57,3792.51 2372.23,3794.07C2372.46,3794.6 2372.44,3795.79 2373.03,3795.93C2373.23,3795.48 2373.42,3795.36 2373.9,3795.18L2373.9,3795.12L2373.84,3795.12C2373.76,3794.84 2373.52,3794.62 2373.41,3794.38C2373.19,3793.91 2373.07,3793.38 2372.91,3792.96C2372.62,3792.19 2372.39,3791.4 2372.17,3790.67C2372.04,3790.27 2372.12,3790 2371.98,3789.61C2371.83,3789.21 2371.49,3788.76 2371.3,3788.37C2371.08,3787.93 2371.16,3787.37 2370.87,3787.01C2370.81,3786.97 2370.85,3786.99 2370.74,3786.95M2371.36,3786.52C2371.73,3787.01 2371.76,3787.76 2372.04,3788.32C2372.17,3788.55 2372.43,3788.87 2372.54,3789.12C2372.66,3789.63 2372.78,3790.15 2372.91,3790.67C2373.31,3791.83 2373.69,3793.32 2374.21,3794.44C2374.28,3794.38 2374.22,3794.45 2374.27,3794.38C2374.53,3794.12 2374.32,3793.88 2374.46,3793.45C2374.53,3793.21 2374.81,3792.88 2374.89,3792.65C2375.11,3791.96 2374.77,3791.56 2374.64,3791.1L2374.64,3790.48C2374.51,3790.03 2374.19,3789.58 2374.02,3789.18L2373.84,3788.37C2373.68,3788.05 2373.27,3787.71 2373.09,3787.39C2372.79,3786.84 2372.76,3785.85 2372.29,3785.47C2372.23,3785.42 2372.27,3785.45 2372.17,3785.41C2371.92,3785.77 2371.43,3786 2371.36,3786.52M2372.91,3785.04C2373.25,3785.46 2373.28,3786.04 2373.53,3786.58C2373.78,3787.14 2374.3,3787.57 2374.52,3788.13C2374.78,3788.8 2374.93,3789.76 2375.33,3790.3C2375.39,3790.34 2375.38,3790.33 2375.51,3790.36C2375.78,3789.73 2376,3789.09 2376.19,3788.44C2376.33,3787.88 2376,3787.21 2375.88,3786.83C2375.61,3785.95 2375.51,3785.03 2375.26,3784.23C2375.08,3783.68 2375.17,3782.62 2374.89,3782.19C2374.83,3782.14 2374.87,3782.17 2374.77,3782.13C2374.59,3782.34 2374.48,3782.55 2374.21,3782.68C2374.26,3782.86 2374.29,3782.84 2374.33,3783.06C2374.17,3783.23 2374.11,3783.48 2373.96,3783.67C2373.58,3784.16 2372.99,3784.19 2372.91,3785.04M2375.44,3781.7C2375.78,3782.02 2375.59,3782.78 2375.76,3783.3C2376.06,3784.27 2376.21,3785.4 2376.56,3786.4C2376.67,3786.36 2376.62,3786.38 2376.68,3786.33C2376.96,3785.98 2376.73,3785.31 2376.62,3784.97C2376.44,3784.37 2376.63,3783.81 2376.44,3783.18C2376.22,3782.44 2375.81,3781.58 2375.88,3780.95C2375.82,3780.93 2375.76,3780.91 2375.69,3780.89C2375.57,3781.18 2375.46,3781.26 2375.44,3781.7M2376.26,3780.52L2376.37,3780.52C2376.44,3780.41 2376.53,3780.3 2376.62,3780.21L2376.62,3780.08C2376.56,3780.07 2376.5,3780.04 2376.44,3780.02L2376.19,3780.46L2376.26,3780.46L2376.26,3780.52ZM2376.68,3780.4C2376.61,3780.56 2376.5,3780.7 2376.37,3780.82C2376.37,3781.64 2376.73,3782.27 2376.93,3782.93C2377.11,3783.51 2377,3784.04 2377.18,3784.54C2377.29,3784.5 2377.24,3784.53 2377.3,3784.48C2377.95,3783.77 2376.96,3781.62 2376.93,3780.52C2376.82,3780.46 2376.83,3780.44 2376.68,3780.4M2377.92,3782.06C2377.98,3782.08 2378.04,3782.11 2378.11,3782.13L2378.11,3782.06C2378.52,3781.5 2378.15,3779.7 2377.86,3779.47C2377.8,3779.44 2377.71,3779.43 2377.55,3779.4C2377.46,3779.58 2377.43,3779.71 2377.43,3780.02C2377.68,3780.33 2377.75,3781.63 2377.92,3782.06" style="fill:rgb(82,22,40);fill-rule:nonzero;"/>
        </g>
    </g>
</svg>
