<?xml version="1.0" encoding="UTF-8" standalone="no"?>
<svg
   width="19.657"
   height="20.038267"
   viewBox="0 0 19.657 20.038267"
   version="1.1"
   xml:space="preserve"
   style="clip-rule:evenodd;fill-rule:evenodd;stroke-linejoin:round;stroke-miterlimit:2"
   id="svg11"
   sodipodi:docname="hq21-fh-stalactite_undetectable.svg"
   inkscape:version="1.1.1 (3bf5ae0d25, 2021-09-20)"
   xmlns:inkscape="http://www.inkscape.org/namespaces/inkscape"
   xmlns:sodipodi="http://sodipodi.sourceforge.net/DTD/sodipodi-0.dtd"
   xmlns="http://www.w3.org/2000/svg"
   xmlns:svg="http://www.w3.org/2000/svg"><defs
   id="defs15" /><sodipodi:namedview
   id="namedview13"
   pagecolor="#ffffff"
   bordercolor="#666666"
   borderopacity="1.0"
   inkscape:pageshadow="2"
   inkscape:pageopacity="0.0"
   inkscape:pagecheckerboard="0"
   showgrid="false"
   inkscape:zoom="39.333333"
   inkscape:cx="9.7881356"
   inkscape:cy="9.6864407"
   inkscape:window-width="1920"
   inkscape:window-height="1012"
   inkscape:window-x="-8"
   inkscape:window-y="-8"
   inkscape:window-maximized="1"
   inkscape:current-layer="svg11" />
    <g
   id="g9">
        <g
   id="Page-1">
            <g
   id="stalactite">
                <g
   id="fh-stalactiteHQ21">
                    <g
   id="Group-9872"
   transform="rotate(90,9.828,9.828)">
                        <path
   id="Fill-9870"
   d="M 0,19.656 H 19.657 V -0.001 H 0 Z"
   style="fill:#6dac82" />
                    </g>
                    <g
   id="Group-9875"
   transform="rotate(90,8.22465,9.85425)">
                        <path
   id="Fill-9873"
   d="m 5.653,11.322 c 0.495,0.059 0.672,0.407 0.478,0.857 -0.386,0.892 -1.119,1.46 -2.023,1.738 C 3.934,13.971 3.44,13.61 3.414,13.4 3.327,12.716 4.884,11.304 5.653,11.322 Z M 7.403,10.69 C 7.22,10.647 6.974,10.276 6.993,10.078 7.045,9.541 8.569,8.427 9.281,8.457 9.357,8.61 9.576,8.843 9.567,9.065 9.538,9.748 8.084,10.848 7.403,10.69 Z M 13.16,5.298 C 12.647,6.691 11.36,6.709 10.219,7.47 10.833,5.805 11.611,5.264 13.16,5.298 Z M 0,13.075 c 0.004,0.927 0.008,2.453 0.014,3.38 0.002,0.373 10e-4,0.816 0.457,0.903 0.397,0.076 0.427,-0.344 0.543,-0.611 0.04,-0.093 0.073,-0.197 0.138,-0.268 0.514,-0.559 1.035,-1.11 2.113,-1.113 -0.311,0.662 -0.542,1.155 -0.813,1.732 0.775,0.517 1.562,0.115 2.331,0.268 -0.085,-0.877 0.318,-1.455 0.964,-1.903 0.222,-0.153 0.429,-0.335 0.667,-0.454 0.639,-0.32 1.059,-0.816 1.31,-1.474 0.39,-1.02 1.063,-1.789 2.052,-2.266 0.72,-0.348 1.166,-0.898 1.278,-1.701 0.145,-1.043 0.793,-1.639 1.707,-2.083 0.562,-0.273 1.178,-0.623 1.524,-1.112 0.827,-1.17 1.585,-2.375 2.514,-3.485 0.515,-0.614 0.814,-1.45 1.382,-2.083 C 18.376,0.588 18.555,0.302 18.227,0 17.687,0.25 17.17,0.585 16.603,0.731 15.498,1.016 14.693,1.639 13.997,2.52 13.636,2.977 13.114,3.329 12.613,3.645 12.132,3.948 11.573,4.124 11.066,4.39 9.83,5.037 8.679,5.813 7.932,7.024 7.158,8.28 6.117,9.169 4.73,9.656 4.05,9.895 3.532,10.351 3.33,11.021 2.881,12.519 1.574,12.551 0.474,12.969 Z"
   style="fill:#521628" />
                    </g>
                </g>
            </g>
        </g>
    </g>
</svg>
