<?xml version="1.0" encoding="UTF-8" standalone="no"?>
<svg
   width="19.15"
   height="18.700001"
   viewBox="0 0 19.149999 18.700001"
   version="1.1"
   xml:space="preserve"
   style="clip-rule:evenodd;fill-rule:evenodd;stroke-linejoin:round;stroke-miterlimit:2"
   id="svg14"
   sodipodi:docname="hq21-motm-pittrap_double_undetectable-right.svg"
   inkscape:version="1.1.1 (3bf5ae0d25, 2021-09-20)"
   xmlns:inkscape="http://www.inkscape.org/namespaces/inkscape"
   xmlns:sodipodi="http://sodipodi.sourceforge.net/DTD/sodipodi-0.dtd"
   xmlns="http://www.w3.org/2000/svg"
   xmlns:svg="http://www.w3.org/2000/svg"><defs
   id="defs18"><clipPath
     clipPathUnits="userSpaceOnUse"
     id="clipPath1257"><rect
       style="fill:#000000;stroke:none;stroke-width:1.86219"
       id="rect1259"
       width="19.15"
       height="18.725899"
       x="19.15"
       y="0" /></clipPath></defs><sodipodi:namedview
   id="namedview16"
   pagecolor="#ffffff"
   bordercolor="#666666"
   borderopacity="1.0"
   inkscape:pageshadow="2"
   inkscape:pageopacity="0.0"
   inkscape:pagecheckerboard="0"
   showgrid="false"
   inkscape:zoom="27.128205"
   inkscape:cx="0.66351607"
   inkscape:cy="9.510397"
   inkscape:window-width="1920"
   inkscape:window-height="1012"
   inkscape:window-x="-8"
   inkscape:window-y="-8"
   inkscape:window-maximized="1"
   inkscape:current-layer="svg14" />
    <g
   id="g12"
   clip-path="url(#clipPath1257)"
   transform="translate(-19.15)">
        <rect
   x="0"
   y="0"
   width="38.299999"
   height="18.700001"
   style="fill:#6dac82"
   id="rect2" />
        <g
   id="g10">
            <path
   d="M 6,4.8 V 4.5 L 5,3.1 H 4.6 Z M 26,3.2 c -0.4,0 -0.5,0 -0.6,0.2 l -1,1.2 c 0,0.5 0,0.5 -0.2,0.9 -0.1,0.3 -0.3,0.3 -0.5,0.4 -0.4,0.1 -0.6,0.4 -0.6,0.8 h 0.4 c 0.7,0 0.9,0 1,-0.8 l 0.3,-0.5 1,-1.7 z M 12.2,15 h 1.3 c 0.2,0 0.4,0 0.5,-0.3 0.2,-0.4 0.5,-0.6 0.8,-0.9 l 0.3,-0.4 c -0.5,0 -0.7,0.3 -1,0.4 -0.1,-0.3 0.4,-0.3 0.1,-0.7 h -1.5 l 0.2,0.8 V 14 c -0.2,0 -0.2,-0.3 -0.4,-0.3 -0.3,0.4 -0.4,0.8 -0.3,1.3 z m 8,-3 0.2,0.1 0.3,0.2 c 0.1,-0.1 0.1,-0.3 0,-0.4 l -0.1,-0.1 c 0.2,-0.2 0.4,0 0.5,0.1 v 0.6 l 1.3,-0.1 c 0.3,-0.1 0.8,0 1.2,0.1 h 4 c 0.5,0 0.9,-0.3 1.2,-0.6 L 29,11.5 V 9.7 C 29,9.5 28.8,9.4 28.5,9.3 28.9,8.8 29,8.6 28.9,8 L 28.7,7.4 C 28.5,7.2 28.2,7.1 27.9,7.1 H 19 C 18.557,7.07 18.113,7.138 17.7,7.3 17.3,7.1 16.7,7.1 16.3,7.2 h -1.6 c -0.5,0.5 -1,0 -1.5,0 H 8.4 v 1.3 c 0,0.4 0.2,0.8 0,1.3 v 2.6 H 20 l 0.2,-0.6 z M 10.4,3.6 10.2,3.4 C 10,3.2 9.9,3.2 9.6,3.3 c 0,0.4 0.2,0.8 0.3,1.1 0.3,0 0.4,0.2 0.6,0.1 v -1 c 0.4,0.6 0.9,1.1 1.7,1.4 0.4,0 0.7,0.4 0.7,0.9 l 0.2,0.5 c 0,0.1 0.2,0.2 0.4,0 V 6 L 13.1,5 c 0,0 -0.2,-0.2 0,-0.3 0.4,0.3 0.6,0.6 0.8,1 0.4,0.8 0.8,1 1.6,0.8 l 0.7,-0.1 c 0.1,-0.4 0.1,-0.7 0.4,-1 v 1 c 0.6,0 1,0.7 1.7,0.3 v -1 c 0.3,0 0.4,-0.2 0.5,-0.4 0,-0.5 0,-1 -0.3,-1.3 L 18,3.3 c -0.989,-0.205 -2.011,-0.205 -3,0 l 0.6,1.2 C 15,4.2 14.8,3.6 14.3,3.3 c -1,0.1 -2,0.2 -3,0 -0.271,-0.184 -0.629,-0.184 -0.9,0 z M 21.5,3.5 V 4.8 L 21.7,5 22.3,4.7 c 0.2,0.5 0,0.8 -0.4,1 L 21.1,6.4 21,6.8 h 1.4 c 0.3,-0.5 0.7,-0.8 1.2,-1 0.3,-0.2 0.5,-0.5 0.5,-0.8 0,-0.3 0,-0.5 0.3,-0.7 l 0.4,-0.6 0.1,-0.5 h -2 c -0.7,0 -0.7,0 -1.4,0.5 V 3 H 21 C 20.8,3 20.6,3.3 20.5,3.2 L 19.9,3 h -1.1 l -0.4,0.1 0.7,1 c 0,0.4 0,1 0.4,1.3 l 1,1.2 0.8,-1.2 -0.2,-0.9 c 0,-0.4 0,-0.8 0.4,-1 z m -10.3,10.1 0.2,-0.5 h -0.8 c -0.1,0.3 -0.4,0.6 -0.7,0.8 L 9.1,14.4 C 9,14.5 8.9,14.6 8.7,14.5 L 9,14 9.3,13.3 c -0.8,0 -0.8,0 -1.2,0.2 l -1,0.4 C 6.7,14 6.3,14.4 5.9,14.6 L 5.8,15 c 0.5,0.2 1,-0.1 1.4,-0.3 0,0.3 0.1,0.4 0.3,0.3 0.2,0 0.3,-0.2 0.4,-0.4 L 8.1,15 H 12 l 0.4,-1.8 -0.1,-0.2 -0.7,0.4 -0.3,0.1 z m 15.9,0.9 c -0.3,-0.1 -0.5,0 -0.8,0 L 25.6,13.8 25.1,13.2 C 24.9,13 24.7,13 24.5,13.2 v 0.4 H 24.2 C 23.9,12.9 23.7,12.9 22.8,13.2 L 23.1,14 H 23 l -0.7,-1 c -0.523,0.145 -1.077,0.145 -1.6,0 h -0.8 c -0.2,0 -0.2,0.2 -0.2,0.4 H 19.6 V 13 c -0.4,-0.2 -0.6,0 -0.8,0.2 -0.4,0.4 -1,0.5 -1.6,0.6 0.5,-0.6 0.5,-0.6 1.3,-0.9 h -2.2 v 0.6 l -0.2,-0.4 -0.4,-0.2 -0.5,1 c -0.2,0.5 -0.6,0.6 -0.8,0.9 1,0.4 2,-0.3 2,-1.3 0.1,0.1 0.2,0.3 0,0.5 0,0.3 -0.3,0.5 -0.3,0.9 h 1 l 1.2,-0.2 h 1 l 0.2,-0.8 0.2,0.7 c 0.1,0.3 0.2,0.3 0.5,0.3 h 2.6 c 0.4,-0.2 0.7,0.1 1.1,0 h 0.5 c 0,-0.6 -0.5,-1 -0.5,-1.5 h 0.3 c 0.1,0.6 0.5,1 0.8,1.5 h 2 l 0.2,-0.2 c 0.3,0 0.1,-0.3 0.2,-0.5 l 0.5,0.5 c 0.5,0 1,0 1.4,-0.2 v -0.3 c 0.7,0.4 0.7,0.3 1.5,0.4 h 1.9 c 0,0 0.2,0 0.2,-0.2 L 32.4,14 c 0.3,0 0.6,0 0.9,0.3 0.2,0.2 0.5,0.3 1,0.2 -0.3,-0.5 -0.8,-0.5 -1,-1 l 1,0.5 v -1.2 l -0.7,-0.4 c -0.2,0 -0.4,-0.1 -0.5,-0.4 0.4,0 0.8,0.4 1.2,0 V 10.2 C 34.1,9.4 34.1,8.6 34.3,7.9 V 7.2 c -0.6,0 -1,0.6 -1.5,0.6 L 33,7.6 33.5,7.2 34.2,6.8 34.3,6.5 c -0.6,0 -0.6,0 -1.1,-0.3 L 33.7,5.7 34.4,5.1 V 3.3 C 33.7,3.6 33.2,3.8 33,4.3 33,4.6 32.8,4.8 32.5,4.9 32.2,5 32,5.3 32,5.7 32,5.9 31.9,6 31.7,6.1 l -0.5,0.3 -1,0.7 c 0.5,0.2 0.7,-0.2 1.2,-0.3 L 30.6,7.6 30.1,8 c 0,0.2 -0.3,0.2 -0.3,0.4 L 30.2,8.6 29.9,9 c 0.5,0 0.8,-0.3 1.3,-0.1 l -0.8,0.7 c 0,0.3 0.5,0.2 0.6,0.5 0,0.3 0.2,0.4 0.4,0.5 l 0.8,0.4 1,1 c -0.4,0 -0.8,-0.3 -1,-0.6 -0.4,-0.4 -1,-0.5 -1.5,-0.6 L 30.4,11 c 0.1,0.3 -0.3,0.2 -0.3,0.4 l 0.5,0.8 c -0.2,0.1 -0.4,-0.3 -0.7,-0.2 0,0.3 0.2,0.4 0.4,0.6 l 2.1,1.4 c -0.7,0 -1.2,-0.3 -1.8,-0.6 -0.2,-0.1 -0.4,-0.3 -0.7,-0.2 l 0.2,0.4 c 0,0 0.2,0.2 0,0.4 l -1,-0.9 c -0.4,-0.2 -0.6,-0.3 -1,0 v 0.4 l -0.6,-0.6 c -0.6,0 -1.2,-0.1 -1.6,0.3 0,0.4 0.2,0.5 0.5,0.7 0.2,0.1 0.5,0.2 0.7,0.5 z M 8,4.5 6.9,3.3 H 6.3 L 5.6,3 6.6,5 H 6.8 L 6.7,4.4 7.2,5 7.8,5.5 C 7.9,5.7 7.9,6 8.2,6 L 8.3,5.6 9,6.4 9.3,6.2 c 0.7,0.6 1.4,0.5 2.2,0.1 -0.1,-1 -1,-1.4 -1.7,-1.9 L 9.3,3.3 C 9,3 8.4,3 8,3.2 l 0.2,0.7 c 0.2,0.2 -0.1,0.4 0,0.6 z m 21.6,1.6 -0.2,0.1 h 0.2 c 1.084,-0.324 2.055,-0.948 2.8,-1.8 l 1.2,-1.2 c -0.4,-0.1 -0.8,0 -1,0.2 L 32,4 31.3,4.5 c 0.3,-0.5 0.8,-0.7 1,-1.3 h -1.7 l -0.5,1 c -0.6,-0.1 -0.7,0.5 -1.2,0.6 0.3,-0.6 0.4,-0.7 0.9,-1 0.3,-0.1 0.4,-0.3 0.3,-0.7 h -1 c -0.7,0 -0.7,0 -1.3,0.5 V 3 H 27 l -0.4,0.3 c -0.949,0.881 -1.669,1.979 -2.1,3.2 0.6,0.4 0.9,-0.3 1.2,-0.4 l 0.4,0.4 h 0.2 C 27.1,6.7 27.9,6.7 28.6,6 28.8,5.7 29.1,5.5 29.4,5.4 30,5.2 30.4,4.8 30.9,4.5 L 31.3,4.4 30.6,5 c -0.3,0.4 -0.8,0.6 -1,1 z M 7,6.5 6.7,6.3 C 6.2,5.3 5.5,4.5 4.6,3.9 L 4.2,3.7 v 1.2 c 0,0.3 0.2,0.6 0.4,0.8 V 6 H 4.2 v 1.8 c 0.2,0.2 0.2,0.4 0,0.6 -0.178,0.309 -0.178,0.691 0,1 H 5 c 0.5,0.1 0.9,0 1.3,-0.2 L 6.1,9.4 5.2,9.7 c -0.4,0 -0.7,0.3 -1,0.6 0.3,0.5 0,1 0,1.7 0.4,0 0.7,-0.2 1,-0.3 L 5,12 4.4,12.5 c -0.3,0.1 -0.3,0.4 -0.2,0.6 0.2,0.3 0.1,0.5 0,0.8 0,0.2 0,0.3 0.2,0.4 l -0.2,0.5 c 0,0.1 0,0.2 0.2,0.2 0.3,0 0.6,-0.1 0.8,-0.5 0.1,-0.3 0.4,-0.4 0.7,-0.6 0.5,-0.2 1,-0.6 1.4,-1.1 L 7.5,12.5 H 7.2 l -1,0.6 c -0.5,0.4 -1,0.6 -1.5,0.8 0.1,-0.5 0.5,-1 1,-1.2 L 6.1,12.3 C 6.5,12 6.9,11.7 7.1,11.2 L 6.5,10.9 C 6.3,10.9 6.1,10.8 5.9,11 6,10.6 6.1,10.5 6.3,10.6 6.688,10.609 7.07,10.505 7.4,10.3 7.8,10.3 7.9,9.9 7.9,9.6 L 7.7,8.6 7.5,8.2 7.1,7.9 V 7.8 C 7.3,7.8 7.4,8 7.6,7.8 7.6,7.4 7.1,7.3 7.1,6.9 L 7.6,7.1 7,6.6 Z M 30.3,1 c 0.2,0 0.4,0.2 0.4,0.4 0.1,0.3 0.2,0.6 0,1 -0.5,0.1 -1.1,0 -1.9,0.2 h 5.8 c 0.2,0.3 0.1,0.6 0.1,1 v 11.7 c -0.4,0.2 -0.7,0.1 -1,0.1 -6.833,0.008 -13.667,0.008 -20.5,0 H 5 L 4,15.3 3.9,14.6 V 2.8 L 4.7,2.7 H 21 C 21,2.5 21,2.4 20.8,2.4 h -0.4 c -0.2,0 -0.3,-0.2 -0.3,-0.4 0,-0.2 0.2,-0.2 0.4,-0.2 h 0.1 l 0.7,0.5 C 21.8,2.2 21.7,1.8 21.8,1.5 L 21.5,1.3 C 21.8,1.1 22,1.1 22,1.3 L 22.2,2 c 0,0.4 -0.4,0.3 -0.4,0.7 h 6 c 0.3,-0.5 0,-1 0,-1.4 0.7,-0.2 1.2,-0.6 1.9,-0.7 0.3,0 0.4,0.1 0.4,0.3 -0.3,0 -0.7,0 -0.9,0.2 -0.5,-0.1 -0.7,0.3 -1,0.4 v 1 c 0.7,-0.2 1.3,0 2,-0.2 L 30,1.8 30.6,2 C 30.7,1.6 30.3,1.4 30.3,1 Z M 36.2,5.4 36.3,5 37.1,4.6 c 0.2,-0.2 0.5,0 0.6,0.3 V 7 C 37,7.5 36.3,7.7 35.4,7.6 L 35,6.6 c 0.1,-0.4 0.3,-0.7 0.6,-0.8 l 0.2,0.3 C 35.1,6.5 35.1,6.5 35.5,7.3 35.9,7.3 36,7 36.2,6.7 l 0.5,0.1 c -0.4,0 -0.6,0.3 -0.9,0.7 0.5,0 0.9,0 1.3,-0.3 L 36.6,6.8 H 37 L 37.2,6.1 V 4.8 c -0.5,0 -0.7,0.4 -1,0.6 z M 2.2,3.2 2.9,3.4 V 3.9 L 2.6,4.4 C 2.3,4.9 1.8,5.2 1.1,5.3 L 0.5,4.3 C 0.5,3.8 0.7,3.5 0.8,3.1 1,2.8 1.3,2.7 1.6,2.8 1.9,2.8 2.1,3 2.2,3.2 h -1 L 1.6,4.4 1.3,4.8 C 1.9,4.9 2.1,4.6 2.4,4.3 2.2,4 2.5,3.8 2.5,3.5 L 2.2,3.2 M 21,17.2 C 21,17 20.8,16.9 20.7,16.7 l -0.3,0.2 v 0.9 l 0.6,0.5 c 0.3,-0.4 0.3,-0.4 0.3,-0.9 l 0.4,-0.1 V 16.9 C 21.5,16.6 21.3,16.5 20.9,16.6 V 17 l 0.2,0.2 m 0.4,-0.9 c 0.7,0.6 0.5,1.2 0.5,1.8 -0.3,0.4 -0.7,0.5 -1.2,0.4 -0.147,-0.036 -0.283,-0.104 -0.4,-0.2 -0.4,-0.4 -0.3,-1.5 0.3,-1.8 l 0.8,-0.2 M 3.3,15.7 c 0.3,0.1 0.4,0.3 0.2,0.4 L 2.6,16.9 1.6,16.5 1.3,16.1 1.4,15.7 H 1.8 C 2.1,16 2.4,16 2.8,16 H 3.3 Z M 35,17.6 c -0.1,0.4 -0.4,0.6 -0.8,0.6 -0.373,0.012 -0.707,-0.239 -0.8,-0.6 v -0.4 0.2 c 0.1,0.2 0.3,0.4 0.5,0.4 0.2,0 0.4,-0.2 0.5,-0.4 v -0.7 l 0.1,0.4 c 0,0.3 0.2,0.4 0.4,0.5 m -0.1,-1.1 c -0.2,0 -0.4,0 -0.4,0.2 -0.2,-0.2 -0.4,-0.2 -0.6,0 l -0.1,0.2 c 0.2,-0.7 0.4,-0.7 1,-0.4"
   style="fill:#521628"
   id="path4" />
            <path
   d="m 35.1,17.1 -0.4,-0.6 c 0.3,0.1 0.4,0.3 0.4,0.6 M 35.6,5.8 C 35.8,5.6 35.9,5.4 36.2,5.4 36.1,5.7 35.9,5.8 35.6,5.8 Z M 21,1.7 C 21,1.4 21.2,1.3 21.5,1.3 21.4,1.5 21.2,1.6 20.9,1.6 Z M 1.6,15.4 v -0.1 z m 31.9,1.8 c 0,0 0,-0.3 0.2,-0.3 0,0.1 0,0.3 -0.2,0.3 z M 20.6,1.8 C 20.6,1.6 20.8,1.7 21,1.7 Z M 35,17.6 35.1,17.1 c 0,0.2 0,0.4 -0.2,0.5 M 7.1,6.5 V 6.9 C 7,6.8 7.1,6.6 7.1,6.5 Z M 29.6,1.3 29.2,1.1 29.6,1.3 m -1.2,9.4 0.2,0.3 c 0,0.2 -0.2,0.3 -0.4,0.3 -0.1,0 -0.2,-0.1 -0.2,-0.3 0,-0.1 0.2,-0.3 0.4,-0.3 M 23.5,11 c 0.3,0.3 0.3,0.4 0.2,0.5 -0.1,0.1 -0.4,0.1 -0.4,0 -0.2,-0.1 0,-0.3 0,-0.4 h 0.2 m -2.9,0.6 -0.4,0.2 0.4,-0.2 M 32.1,8.2 h 0.1 V 8.3 H 32 V 8.2 M 6.4,9 h 1 C 6.9,9.2 6.9,9.2 6.4,9 M 6,7.7 V 8 7.8 m 0,3.1 H 5.8 6 m 25,1.5 c 0.3,0 0.6,0 0.9,0.4 -0.4,0 -0.7,-0.1 -0.9,-0.4 m -0.4,-0.2 0.4,0.2 c -0.1,0 -0.3,0 -0.4,-0.2 m 1.3,0.6 H 32 31.9 M 11.2,13.4 V 14 13.4 m 16.2,0.3 c -0.3,0 -0.5,0 -0.5,-0.3 l 0.5,0.3 m 2,0.5 -0.4,-0.3 v -0.1 h 0.2 l 0.2,0.4 m -2.2,0.5 -0.2,-0.4 0.2,0.4 m 0.2,-0.5 c -0.3,-0.2 -0.2,-0.3 0,-0.5 v 0.5 M 8.8,5.4 C 8.5,5.2 8.2,4.9 8,4.5 L 8.6,5 8.8,5.4 M 9.3,6.3 C 9,6.1 8.8,5.8 8.8,5.3 9.1,5.6 9.3,5.9 9.3,6.3 M 36,6.5 35.8,6.1 36,6.5 M 1.3,15.1 1,14.8 V 14 c 0,-0.3 0.4,-0.4 0.6,-0.3 l 1,0.5 1,0.7 C 3.579,15.731 3.299,16.535 2.8,17.2 L 1.6,16.9 C 1.4,16.6 1.2,16.3 1.3,15.9 h 0.4 c -0.1,0.8 -0.1,0.8 0.8,1 0.1,-0.4 0,-0.7 -0.2,-1 l 0.4,-0.3 c -0.2,0.3 0,0.7 0.1,1 0.3,-0.3 0.4,-0.7 0.4,-1.1 L 2.7,15.6 2.8,15.2 C 2.8,15 2.6,14.8 2.4,14.8 2.1,14.8 1.8,14.5 1.6,14.3 L 1.3,14 c -0.2,0.5 0,0.9 0,1.2 z"
   style="fill:#521628"
   id="path6" />
            <path
   d="M 1.3,15.8 C 1.175,15.584 1.175,15.316 1.3,15.1 Z M 2,15.9 H 1.6 2"
   style="fill:#521628"
   id="path8" />
        </g>
    </g>
</svg>
