<?xml version="1.0" encoding="UTF-8" standalone="no"?>
<!DOCTYPE svg PUBLIC "-//W3C//DTD SVG 1.1//EN" "http://www.w3.org/Graphics/SVG/1.1/DTD/svg11.dtd">
<svg width="100%" height="100%" viewBox="0 0 20 21" version="1.1" xmlns="http://www.w3.org/2000/svg" xmlns:xlink="http://www.w3.org/1999/xlink" xml:space="preserve" xmlns:serif="http://www.serif.com/" style="fill-rule:evenodd;clip-rule:evenodd;stroke-linejoin:round;stroke-miterlimit:2;">
    <g transform="matrix(1,0,0,1,0.19098,0.80902)">
        <g id="Page-1">
            <g id="stalactite">
                <g id="fh-stalactiteHQ21">
                    <g id="Group-9872" transform="matrix(-3.82857e-16,1,-1,-3.82857e-16,19.656,4.16355e-15)">
                        <path id="Fill-9870" d="M0,19.656L19.657,19.656L19.657,-0.001L0,-0.001L0,19.656Z" style="fill:rgb(205,124,95);"/>
                    </g>
                    <g id="Group-9875" transform="matrix(-3.82857e-16,1,-1,-3.82857e-16,18.0789,1.6296)">
                        <path id="Fill-9873" d="M5.653,11.322C6.148,11.381 6.325,11.729 6.131,12.179C5.745,13.071 5.012,13.639 4.108,13.917C3.934,13.971 3.44,13.61 3.414,13.4C3.327,12.716 4.884,11.304 5.653,11.322ZM7.403,10.69C7.22,10.647 6.974,10.276 6.993,10.078C7.045,9.541 8.569,8.427 9.281,8.457C9.357,8.61 9.576,8.843 9.567,9.065C9.538,9.748 8.084,10.848 7.403,10.69ZM13.16,5.298C12.647,6.691 11.36,6.709 10.219,7.47C10.833,5.805 11.611,5.264 13.16,5.298ZM-0,13.075C0.004,14.002 0.008,15.528 0.014,16.455C0.016,16.828 0.015,17.271 0.471,17.358C0.868,17.434 0.898,17.014 1.014,16.747C1.054,16.654 1.087,16.55 1.152,16.479C1.666,15.92 2.187,15.369 3.265,15.366C2.954,16.028 2.723,16.521 2.452,17.098C3.227,17.615 4.014,17.213 4.783,17.366C4.698,16.489 5.101,15.911 5.747,15.463C5.969,15.31 6.176,15.128 6.414,15.009C7.053,14.689 7.473,14.193 7.724,13.535C8.114,12.515 8.787,11.746 9.776,11.269C10.496,10.921 10.942,10.371 11.054,9.568C11.199,8.525 11.847,7.929 12.761,7.485C13.323,7.212 13.939,6.862 14.285,6.373C15.112,5.203 15.87,3.998 16.799,2.888C17.314,2.274 17.613,1.438 18.181,0.805C18.376,0.588 18.555,0.302 18.227,0C17.687,0.25 17.17,0.585 16.603,0.731C15.498,1.016 14.693,1.639 13.997,2.52C13.636,2.977 13.114,3.329 12.613,3.645C12.132,3.948 11.573,4.124 11.066,4.39C9.83,5.037 8.679,5.813 7.932,7.024C7.158,8.28 6.117,9.169 4.73,9.656C4.05,9.895 3.532,10.351 3.33,11.021C2.881,12.519 1.574,12.551 0.474,12.969L-0,13.075Z" style="fill:rgb(82,22,40);"/>
                    </g>
                </g>
            </g>
        </g>
    </g>
</svg>
