<?xml version="1.0" encoding="UTF-8" standalone="no"?>
<!DOCTYPE svg PUBLIC "-//W3C//DTD SVG 1.1//EN" "http://www.w3.org/Graphics/SVG/1.1/DTD/svg11.dtd">
<svg width="100%" height="100%" viewBox="0 0 20 18" version="1.1" xmlns="http://www.w3.org/2000/svg" xmlns:xlink="http://www.w3.org/1999/xlink" xml:space="preserve" xmlns:serif="http://www.serif.com/" style="fill-rule:evenodd;clip-rule:evenodd;stroke-linejoin:round;stroke-miterlimit:2;">
    <g transform="matrix(1,0,0,1,-0.365605,-0.5)">
        <g>
            <g transform="matrix(0.994452,0,-5.55112e-17,0.921017,0.4,0.5)">
                <path d="M0,19.326L19.106,19.326L19.106,0L0,0L0,19.326Z" style="fill:rgb(109,172,130);"/>
            </g>
            <path d="M5.189,18.262L5.278,18.262L5.29,18.229L5.346,18.217L5.38,18.172L5.434,18.172L5.446,18.14C5.467,18.125 5.501,18.143 5.526,18.127C5.528,18.116 5.532,18.106 5.536,18.095L5.59,18.095C5.598,18.082 5.607,18.073 5.614,18.061L5.671,18.061C5.678,18.056 5.681,18.021 5.692,18.016L5.759,18.016C5.796,18 5.881,17.984 5.919,17.967C5.963,17.947 6.01,17.955 6.053,17.933C6.079,17.92 6.128,17.869 6.154,17.856L6.219,17.856C6.223,17.845 6.227,17.834 6.232,17.823L6.309,17.823L6.331,17.777L6.398,17.777L6.442,17.722L6.499,17.722C6.522,17.712 6.565,17.666 6.589,17.655L6.643,17.655C6.671,17.642 6.718,17.592 6.745,17.577L6.802,17.577C6.831,17.561 6.852,17.504 6.88,17.487L6.923,17.487C6.952,17.473 6.995,17.427 7.024,17.409L7.069,17.409L7.081,17.377L7.169,17.377C7.182,17.361 7.191,17.347 7.204,17.332L7.282,17.332C7.366,17.281 7.442,17.182 7.526,17.132C7.575,17.102 7.64,17.088 7.683,17.053C7.708,17.032 7.723,16.981 7.749,16.963L7.794,16.963C7.816,16.948 7.837,16.903 7.86,16.886L8.173,16.652C8.21,16.625 8.236,16.569 8.273,16.542C8.335,16.492 8.407,16.459 8.462,16.407C8.552,16.321 8.622,16.205 8.72,16.129C8.804,16.061 8.89,16.004 8.963,15.929C9.45,15.442 9.916,14.929 10.436,14.478C10.469,14.452 10.481,14.394 10.516,14.366C10.644,14.26 10.756,14.142 10.883,14.032L10.927,13.953C11.445,13.519 11.915,13.018 12.389,12.537C12.514,12.411 12.651,12.295 12.779,12.17C12.837,12.113 12.881,12.03 12.946,11.98C12.966,11.965 12.996,11.965 13.013,11.946C13.133,11.828 13.225,11.67 13.359,11.568C13.479,11.477 13.556,11.345 13.672,11.254C13.747,11.196 13.836,11.129 13.894,11.055L13.906,10.996C13.922,10.973 13.967,10.963 13.984,10.942L13.984,10.897C14,10.871 14.039,10.873 14.062,10.853L14.106,10.773L14.152,10.773C14.214,10.731 14.257,10.652 14.319,10.607C14.36,10.577 14.415,10.564 14.453,10.529C14.538,10.447 14.611,10.317 14.709,10.252C14.735,10.232 14.762,10.238 14.787,10.217C14.829,10.183 14.854,10.116 14.899,10.084C14.999,10.008 15.1,9.937 15.189,9.849C15.21,9.829 15.22,9.789 15.244,9.772C15.306,9.727 15.387,9.672 15.434,9.615C15.744,9.236 16.088,8.885 16.46,8.567C16.485,8.547 16.528,8.474 16.55,8.444L16.583,8.433L16.594,8.399C16.683,8.333 16.762,8.254 16.828,8.165C16.849,8.141 16.881,8.142 16.906,8.121C16.917,8.111 16.917,8.086 16.929,8.076C16.962,8.051 17.006,8.032 17.029,7.998L17.029,7.965C17.067,7.913 17.15,7.889 17.197,7.843C17.245,7.793 17.274,7.718 17.331,7.676C17.471,7.57 17.57,7.434 17.698,7.318C17.771,7.253 17.852,7.188 17.921,7.118C18.018,7.021 18.111,6.921 18.201,6.817C18.231,6.781 18.279,6.761 18.312,6.727C18.352,6.686 18.379,6.627 18.423,6.594C18.606,6.443 18.782,6.283 18.948,6.114C19.073,5.989 19.185,5.817 19.338,5.724C19.334,5.623 19.316,5.48 19.382,5.444C19.372,5.409 19.347,5.391 19.338,5.367C19.303,5.279 19.351,5.016 19.36,4.954C19.372,4.881 19.327,4.764 19.371,4.698L19.371,1.04C19.355,1.003 19.287,0.971 19.262,0.939C19.25,0.927 19.252,0.928 19.247,0.906C19.189,0.892 19.142,0.842 19.082,0.816C19.086,0.795 19.084,0.796 19.093,0.783C19.093,0.642 19,0.633 18.936,0.56L18.936,0.558L18.847,0.558C18.84,0.584 18.84,0.61 18.847,0.636L18.837,0.636L18.837,0.646C18.645,0.646 18.411,0.641 18.222,0.646L17.944,0.646L17.899,0.703L17.364,0.703C17.165,0.703 16.95,0.7 16.736,0.697L16.337,0.694C16.241,0.694 16.101,0.674 16.027,0.684C15.909,0.701 15.788,0.701 15.67,0.684L15.536,0.696C15.349,0.662 15.188,0.711 15.034,0.685L13.316,0.674C12.258,0.674 11.252,0.651 10.182,0.651L6.837,0.651C6.704,0.651 6.53,0.64 6.434,0.674L6.134,0.674C5.904,0.674 5.626,0.664 5.44,0.692L4.759,0.702C4.653,0.702 4.551,0.704 4.448,0.705C4.376,0.725 4.245,0.705 4.146,0.726C4.016,0.743 3.886,0.754 3.755,0.759C3.749,0.748 3.741,0.738 3.735,0.726L3.463,0.726C3.334,0.71 3.205,0.703 3.075,0.705L2.395,0.705C2.31,0.73 2.111,0.785 2.081,0.772C2.075,0.757 2.067,0.743 2.059,0.727C1.979,0.685 1.863,0.729 1.759,0.706C1.559,0.66 1.276,0.694 1.056,0.693C0.952,0.693 0.753,0.666 0.689,0.715C0.653,0.74 0.655,0.77 0.632,0.805C0.599,0.825 0.53,0.817 0.499,0.838C0.473,0.874 0.497,0.923 0.476,0.972C0.452,1.026 0.394,1.082 0.376,1.15C0.344,1.26 0.396,1.379 0.397,1.463C0.403,1.69 0.385,1.946 0.385,2.188L0.387,4.24C0.387,4.507 0.352,4.87 0.431,5.066L0.443,5.322C0.466,5.39 0.54,5.434 0.565,5.489L0.565,5.546C0.583,5.583 0.628,5.626 0.645,5.668L4.927,5.668C5.023,5.668 5.185,5.645 5.228,5.701L6.065,5.701L6.142,5.79C6.169,5.806 6.2,5.789 6.222,5.802C6.263,5.827 6.312,5.884 6.355,5.902L6.477,5.902C6.507,5.917 6.544,5.968 6.579,5.982L6.669,5.982C6.699,5.995 6.735,6.056 6.769,6.07L6.879,6.07L6.915,6.116C6.954,6.135 6.988,6.123 7.025,6.149C7.04,6.16 7.081,6.262 7.102,6.283C7.171,6.352 7.263,6.41 7.314,6.495C7.366,6.578 7.394,6.658 7.45,6.74L7.482,6.762L7.482,6.806C7.523,6.868 7.596,6.923 7.637,6.985L7.649,7.042C7.759,7.192 7.835,7.322 7.929,7.498C7.965,7.572 8.055,7.651 8.083,7.733L8.083,7.902C8.088,7.917 8.112,7.956 8.116,7.968L8.116,8.08C8.128,8.12 8.161,8.16 8.172,8.19L8.172,8.28L8.206,8.3L8.206,8.38C8.216,8.4 8.274,8.469 8.284,8.491L8.284,8.602C8.299,8.677 8.296,8.765 8.317,8.848C8.376,9.057 8.407,9.316 8.485,9.506L8.485,9.627C8.491,9.653 8.512,9.713 8.518,9.729C8.521,9.778 8.526,9.827 8.53,9.873C8.552,9.967 8.583,10.155 8.65,10.209C8.645,10.312 8.368,10.529 8.296,10.6C8.19,10.702 8.099,10.819 7.995,10.922C7.788,11.127 7.573,11.321 7.37,11.526C7.01,11.886 6.158,12.774 6.107,12.83C5.913,13.041 5.687,13.22 5.505,13.443C5.452,13.511 5.349,13.551 5.305,13.623L5.305,13.652C5.288,13.678 5.251,13.676 5.226,13.697C5.2,13.722 5.186,13.77 5.159,13.797C5.131,13.827 5.05,13.869 5.025,13.899C4.84,14.116 4.635,14.301 4.435,14.502C4.256,14.68 4.082,14.862 3.913,15.049C3.84,15.129 3.736,15.191 3.667,15.273C3.598,15.356 3.357,15.643 3.267,15.673L3.267,16.325C3.287,16.373 3.385,16.418 3.422,16.457C3.538,16.582 3.633,16.722 3.745,16.849C3.761,16.866 3.797,16.862 3.812,16.881C3.827,16.901 3.808,16.938 3.822,16.959C3.837,16.979 3.859,16.959 3.88,16.971C3.935,17.012 3.984,17.062 4.024,17.118C4.051,17.155 4.055,17.193 4.092,17.218C4.106,17.227 4.124,17.21 4.135,17.22L4.135,17.254C4.2,17.35 4.321,17.416 4.391,17.51C4.405,17.529 4.407,17.558 4.424,17.577C4.462,17.613 4.516,17.636 4.547,17.677C4.637,17.795 4.722,17.917 4.825,18.023C4.845,18.045 4.847,18.017 4.865,18.039C4.932,18.125 4.995,18.229 5.09,18.284L5.09,18.317L5.167,18.317C5.172,18.291 5.171,18.273 5.189,18.262Z" style="fill:rgb(82,22,40);fill-rule:nonzero;"/>
            <path d="M6.745,5.748C6.766,5.718 6.785,5.718 6.8,5.681L6.79,5.681C6.755,5.648 6.702,5.667 6.634,5.669C6.628,5.687 6.626,5.689 6.622,5.715C6.663,5.725 6.704,5.736 6.745,5.748M8.439,14.469L8.439,14.424C8.387,14.419 8.335,14.424 8.284,14.437C8.288,14.461 8.288,14.463 8.296,14.481C8.346,14.481 8.405,14.481 8.44,14.469L8.439,14.469ZM8.897,3.504C8.872,3.491 8.849,3.458 8.831,3.448L8.451,3.448C8.407,3.51 8.314,3.493 8.296,3.582C8.331,3.64 8.304,3.811 8.296,3.872C8.307,3.876 8.318,3.879 8.329,3.882C8.422,3.726 8.876,3.684 8.897,3.504M8.775,8.914C8.751,8.846 8.696,8.772 8.663,8.703C8.644,8.71 8.653,8.706 8.64,8.713C8.63,8.731 8.63,8.76 8.63,8.793C8.67,8.836 8.643,8.875 8.663,8.948C8.703,9.098 8.761,9.282 8.765,9.461C8.771,9.466 8.778,9.47 8.785,9.473C8.829,9.392 8.809,9.211 8.807,9.094C8.77,9.042 8.799,8.99 8.775,8.914M8.975,4.23C8.95,4.222 8.923,4.218 8.897,4.22C8.861,4.275 8.776,4.229 8.719,4.263C8.704,4.286 8.706,4.336 8.706,4.373C8.741,4.399 8.737,4.433 8.751,4.475C8.809,4.493 8.833,4.491 8.876,4.52C8.93,4.432 8.976,4.38 8.976,4.23M8.954,4.074L8.954,4.084L8.987,4.084C9.025,4.038 9.088,4.063 9.099,3.984C9.067,3.975 9.033,3.971 8.999,3.973C8.973,4.015 8.949,4.011 8.942,4.074L8.954,4.074ZM9.042,6.874C9.012,6.854 8.983,6.862 8.954,6.84C8.948,6.829 8.944,6.818 8.942,6.806C8.903,6.77 8.862,6.736 8.819,6.706L8.786,6.706C8.746,6.676 8.708,6.618 8.665,6.596L8.618,6.595C8.53,6.534 8.458,6.409 8.328,6.394L8.328,6.404L8.318,6.404L8.318,6.417L8.328,6.417C8.35,6.472 8.407,6.475 8.44,6.518C8.456,6.547 8.47,6.578 8.485,6.606C8.505,6.624 8.535,6.618 8.551,6.64C8.715,6.887 8.941,7.03 9.21,7.176C9.296,7.222 9.366,7.32 9.477,7.343C9.475,7.282 9.311,7.142 9.253,7.086C9.189,7.022 9.116,6.923 9.042,6.874M9.332,8.334C9.219,8.262 9.046,8.037 8.965,7.921C8.785,7.67 8.56,7.444 8.374,7.197C8.306,7.107 8.092,6.831 7.997,6.795L7.997,6.806C7.986,6.818 7.988,6.816 7.983,6.839C8.081,6.909 8.153,7.038 8.229,7.129C8.263,7.169 8.32,7.198 8.351,7.242C8.515,7.459 8.689,7.659 8.843,7.888C8.858,7.912 8.902,7.93 8.919,7.955C8.94,7.987 8.932,8.023 8.954,8.056C8.965,8.076 9.021,8.084 9.042,8.1C9.088,8.135 9.259,8.326 9.288,8.379L9.321,8.379C9.327,8.362 9.329,8.359 9.333,8.334M9.533,8.748C9.462,8.646 9.34,8.568 9.256,8.478C9.155,8.377 9.085,8.26 8.999,8.144C8.965,8.098 8.9,8.075 8.866,8.034C8.764,7.913 8.68,7.782 8.586,7.653C8.536,7.587 8.467,7.523 8.421,7.453L8.407,7.453L8.407,7.463C8.398,7.475 8.403,7.466 8.397,7.485C8.468,7.548 8.503,7.685 8.552,7.775C8.564,7.781 8.572,7.785 8.585,7.788C8.638,7.854 8.672,7.978 8.72,8.056C8.747,8.102 8.808,8.152 8.83,8.201C8.907,8.357 8.963,8.521 9.044,8.67C9.088,8.759 9.182,9.05 9.277,9.07C9.281,9.058 9.289,9.047 9.299,9.039C9.303,9.116 9.337,9.094 9.354,9.139C9.387,9.22 9.334,9.25 9.399,9.295C9.442,9.193 9.417,9.03 9.411,8.915C9.439,8.895 9.557,8.771 9.534,8.748M9.454,4.532C9.333,4.438 9.417,4.381 9.164,4.387C9.105,4.473 9.105,4.513 9.109,4.666C9.167,4.696 9.284,4.689 9.376,4.686C9.396,4.715 9.397,4.716 9.443,4.72C9.46,4.675 9.456,4.595 9.453,4.532M9.879,5.412C9.916,5.448 9.981,5.448 10.059,5.447C10.059,5.429 10.035,5.414 10.001,5.4C9.908,5.366 9.81,5.348 9.711,5.346L9.689,5.38C9.737,5.409 9.792,5.415 9.879,5.413M10.08,4.91L10.069,4.91C10.072,4.983 10.025,5.044 10.08,5.122C10.091,5.131 10.083,5.126 10.102,5.132C10.136,5.075 10.187,5.028 10.247,4.999C10.236,4.97 10.235,4.939 10.225,4.921C10.199,4.891 10.137,4.896 10.08,4.899L10.08,4.91ZM10.827,5.011C10.809,4.961 10.727,4.877 10.67,4.865C10.641,4.903 10.6,4.885 10.56,4.91C10.55,4.92 10.556,4.91 10.548,4.932C10.632,4.982 10.688,5.057 10.782,5.099C10.792,5.092 10.807,5.086 10.816,5.077C10.832,5.056 10.836,5.027 10.827,5.011M10.581,6.037C10.571,6.049 10.575,6.047 10.57,6.07C10.626,6.107 10.581,6.19 10.614,6.25C10.644,6.268 10.698,6.244 10.737,6.261C10.825,6.296 10.929,6.408 11.027,6.417C11.033,6.399 11.035,6.397 11.039,6.371C10.885,6.291 10.73,6.083 10.581,6.026L10.581,6.037ZM11.094,5.401C11.104,5.389 11.102,5.39 11.105,5.368C10.916,5.266 10.713,5.194 10.502,5.155C10.438,5.227 10.356,5.182 10.358,5.322C10.378,5.334 10.389,5.361 10.402,5.368C10.435,5.385 10.476,5.364 10.502,5.38C10.51,5.391 10.518,5.4 10.525,5.412L10.648,5.412C10.655,5.424 10.663,5.434 10.669,5.446L10.782,5.446C10.81,5.458 10.804,5.474 10.86,5.479C10.908,5.418 11.028,5.442 11.094,5.401M11.106,8.669C11.134,8.624 11.172,8.585 11.217,8.557L11.217,8.546L11.207,8.546C11.168,8.505 11.014,8.521 10.939,8.524C10.914,8.502 10.882,8.49 10.849,8.49C10.83,8.536 10.806,8.572 10.782,8.612C10.824,8.648 10.874,8.675 10.927,8.691C10.945,8.637 10.941,8.623 11.017,8.624C11.031,8.666 11.05,8.669 11.107,8.669M11.864,4.966C11.846,4.944 11.848,4.946 11.808,4.942L11.808,4.954L11.797,4.954C11.798,4.987 11.807,4.983 11.797,4.998C11.778,5.011 11.742,5.01 11.708,5.01C11.685,4.993 11.62,4.992 11.608,4.998C11.598,5.013 11.598,5.026 11.596,5.054L11.563,5.054C11.513,4.974 11.471,4.968 11.362,4.943L11.262,4.943C11.223,4.929 11.185,4.903 11.128,4.898C11.085,4.894 10.983,4.87 10.972,4.876C10.954,4.89 10.959,4.884 10.949,4.91C11.027,4.952 11.059,5.042 11.129,5.088C11.276,5.2 11.456,5.259 11.641,5.255C11.652,5.235 11.655,5.235 11.663,5.212C11.624,5.188 11.627,5.152 11.63,5.088L11.853,5.088C11.863,5.075 11.862,5.077 11.875,5.066C11.868,5.042 11.867,4.97 11.865,4.966M11.819,5.312C11.811,5.352 11.807,5.393 11.809,5.434L11.819,5.434L11.819,5.446L11.964,5.446C11.984,5.405 11.997,5.387 11.998,5.323C11.955,5.308 11.879,5.311 11.819,5.312M12.801,6.539C12.776,6.525 12.776,6.519 12.734,6.516L12.734,6.528L12.724,6.528L12.724,6.561C12.701,6.566 12.702,6.565 12.69,6.571C12.681,6.585 12.683,6.583 12.68,6.606C12.697,6.612 12.705,6.615 12.734,6.617C12.758,6.585 12.786,6.581 12.801,6.539M7.37,12.506C7.361,12.518 7.366,12.508 7.36,12.526C7.347,12.531 7.337,12.536 7.325,12.539C7.317,12.545 7.301,12.553 7.292,12.56C7.268,12.523 7.294,12.485 7.303,12.452C7.322,12.442 7.314,12.448 7.325,12.438C7.345,12.445 7.337,12.44 7.347,12.452C7.376,12.467 7.367,12.463 7.37,12.506M7.557,12.161C7.561,12.172 7.567,12.183 7.569,12.194C7.577,12.205 7.577,12.205 7.581,12.227C7.487,12.239 7.454,12.289 7.391,12.328L7.391,12.306C7.444,12.246 7.45,12.166 7.557,12.161M8.296,14.481C8.29,14.463 8.288,14.461 8.284,14.436C8.334,14.424 8.386,14.42 8.438,14.424L8.438,14.469C8.404,14.482 8.346,14.481 8.296,14.481M10.782,9.161C10.748,9.144 10.705,9.059 10.704,9.005C10.722,8.998 10.741,8.994 10.76,8.995C10.785,9.04 10.804,9.049 10.805,9.127C10.796,9.137 10.788,9.149 10.782,9.161M13.793,8.814C13.733,8.788 13.704,8.769 13.605,8.77C13.586,8.76 13.569,8.765 13.548,8.78C13.506,8.85 13.53,8.917 13.415,8.916L13.415,8.904L13.404,8.904C13.402,8.798 13.396,8.647 13.348,8.582C13.33,8.569 13.303,8.569 13.27,8.569C13.245,8.611 13.197,8.619 13.158,8.615C13.138,8.552 13.063,8.523 13.036,8.469C12.988,8.376 13.016,8.335 12.922,8.326C12.903,8.326 12.878,8.324 12.846,8.326C12.816,8.362 12.778,8.342 12.734,8.369L12.724,8.401L12.634,8.401C12.59,8.421 12.52,8.474 12.478,8.492L12.422,8.492C12.415,8.503 12.407,8.514 12.399,8.524L12.311,8.524C12.299,8.529 12.296,8.563 12.287,8.569L12.198,8.569C12.186,8.576 12.009,8.66 12.009,8.66L12.009,8.893L12.02,8.893L12.02,8.903C12.073,8.888 12.11,8.871 12.198,8.871C12.205,8.889 12.209,8.908 12.209,8.928C12.105,9.035 12.036,9.394 11.863,9.407C11.828,9.196 11.745,8.663 11.584,8.604L11.574,8.627C11.548,8.663 11.542,8.741 11.517,8.771C11.46,8.851 11.389,8.919 11.307,8.972C11.295,8.979 11.293,9.01 11.283,9.017C11.223,9.061 11.066,9.06 11.038,9.127C11.07,9.172 11.052,9.34 11.027,9.373C11.006,9.387 10.963,9.386 10.927,9.383L10.927,9.373C10.958,9.317 10.907,9.297 10.905,9.228C10.899,9.079 10.902,8.93 10.915,8.781C10.899,8.776 10.896,8.774 10.871,8.77C10.821,8.865 10.622,9.028 10.525,9.082L10.325,9.082L10.291,9.127C10.241,9.149 10.201,9.136 10.157,9.161C9.992,9.254 9.857,9.426 9.745,9.575C9.675,9.665 9.565,9.703 9.477,9.773C9.463,9.786 9.477,9.805 9.465,9.817C9.448,9.84 9.403,9.851 9.387,9.875C9.296,10.016 9.197,10.131 9.108,10.275C9.087,10.307 9.04,10.332 9.019,10.365C8.962,10.459 8.927,10.534 8.874,10.633C8.851,10.676 8.808,10.693 8.796,10.756C8.84,10.787 8.819,10.834 8.829,10.877C8.905,10.881 8.913,10.918 8.962,10.934C8.997,10.944 9.042,10.938 9.064,10.944C9.067,10.981 9.074,10.981 9.064,11.002C9.036,11.058 8.974,11.062 8.884,11.058C8.855,11.018 8.528,10.926 8.46,10.912C8.417,10.975 8.333,11.01 8.271,11.058C8.247,11.077 8.237,11.114 8.215,11.138C8.204,11.139 8.194,11.143 8.181,11.147L8.181,11.181L8.161,11.181C8.121,11.217 8.096,11.267 8.059,11.304C8.047,11.314 8.025,11.312 8.014,11.327C7.962,11.393 7.898,11.452 7.846,11.514C7.833,11.532 7.831,11.566 7.813,11.58C7.801,11.592 7.779,11.58 7.768,11.592C7.748,11.615 7.755,11.646 7.735,11.67C7.723,11.674 7.713,11.676 7.702,11.681C7.669,11.724 7.65,11.777 7.613,11.815C7.593,11.836 7.553,11.849 7.533,11.871C7.499,11.924 7.483,11.965 7.446,12.017C7.398,12.087 7.302,12.137 7.255,12.207L7.255,12.24C7.204,12.322 7.107,12.38 7.044,12.453C7.034,12.465 7.024,12.498 7.011,12.508L6.965,12.508C6.943,12.522 6.913,12.575 6.888,12.586L6.821,12.586C6.812,12.588 6.788,12.616 6.777,12.619C6.702,12.625 6.627,12.633 6.554,12.641L6.542,12.674L6.486,12.674C6.462,12.689 6.44,12.707 6.421,12.728C6.357,12.799 6.291,12.912 6.253,12.976C6.236,13 6.189,13.019 6.173,13.041L6.173,13.086C6.155,13.102 6.137,13.117 6.118,13.131C6.077,13.2 6.054,13.28 6.006,13.342C5.995,13.347 5.984,13.351 5.972,13.355L5.972,13.411C5.96,13.439 5.911,13.463 5.896,13.49C5.87,13.53 5.866,13.594 5.838,13.635L5.806,13.645C5.802,13.668 5.797,13.69 5.796,13.711C5.743,13.799 5.659,13.9 5.628,14.002C5.706,14.03 5.733,14.045 5.728,14.159C5.616,14.196 5.488,14.291 5.36,14.269L5.36,14.225C5.406,14.184 5.444,14.135 5.472,14.08L5.46,14.08C5.445,14.069 5.432,14.069 5.404,14.068C5.361,14.106 5.311,14.136 5.258,14.158L5.192,14.158C5.182,14.164 5.177,14.198 5.171,14.203L5.091,14.203L5.081,14.235L5.015,14.235C4.989,14.248 4.96,14.297 4.937,14.314C4.894,14.338 4.855,14.345 4.814,14.369L4.802,14.402L4.756,14.402C4.661,14.459 4.583,14.562 4.501,14.637C4.476,14.659 4.443,14.681 4.415,14.707C4.386,14.733 4.365,14.766 4.355,14.804C4.404,14.881 4.299,14.944 4.277,14.993L4.277,15.072C4.27,15.084 4.247,15.129 4.233,15.149C4.151,15.276 4.016,15.368 3.965,15.528C4.002,15.539 4.037,15.558 4.066,15.584C4.217,15.584 4.206,15.539 4.299,15.518C4.331,15.51 4.497,15.577 4.534,15.584C4.694,15.334 4.948,15.106 5.081,14.836L5.113,14.836C5.113,14.963 5.068,15.016 5.036,15.094L5.036,15.205L5.003,15.217L5.003,15.317C4.991,15.321 4.981,15.327 4.969,15.33L4.969,15.418C4.94,15.494 4.876,15.548 4.868,15.652C4.903,15.687 4.958,15.742 4.969,15.797C4.893,15.806 4.794,15.821 4.713,15.797C4.659,15.784 4.559,15.743 4.467,15.764C4.398,15.784 4.239,15.821 4.177,15.853C4.172,15.866 4.171,15.875 4.165,15.887L4.133,15.887C4.11,15.902 4.097,15.952 4.075,15.965C4.061,15.975 4.008,15.973 3.999,15.975L3.999,16.008C3.902,16.006 3.9,15.97 3.809,15.965C3.786,16.008 3.715,16.085 3.663,16.099C3.645,16.089 3.635,16.096 3.596,16.099L3.563,16.144C3.588,16.166 3.566,16.174 3.587,16.211C3.598,16.235 3.704,16.311 3.719,16.332L3.719,16.379C3.769,16.467 3.85,16.536 3.921,16.602C3.967,16.649 3.982,16.736 4.066,16.748C4.083,16.722 4.083,16.724 4.098,16.725C4.124,16.768 4.088,16.851 4.11,16.904C4.116,16.916 4.15,16.932 4.155,16.95L4.155,17.016C4.161,17.036 4.192,17.054 4.2,17.071L4.2,17.118C4.219,17.15 4.242,17.179 4.268,17.205C4.337,17.277 4.43,17.355 4.478,17.405C4.616,17.551 4.737,17.709 4.88,17.852C4.944,17.918 4.972,18.016 5.075,18.037C5.118,17.993 5.295,18.031 5.37,18.008C5.472,17.963 5.569,17.907 5.659,17.842C5.731,17.786 5.779,17.688 5.839,17.619C5.857,17.596 5.899,17.584 5.917,17.562L5.917,17.529C5.997,17.432 6.116,17.359 6.195,17.261C6.431,16.963 6.855,16.534 7.232,16.39C7.23,16.342 7.235,16.293 7.245,16.246C7.441,16.145 7.654,15.868 7.812,15.709C7.921,15.609 8.037,15.516 8.159,15.432C8.189,15.409 8.209,15.358 8.236,15.332C8.338,15.227 8.445,15.129 8.549,15.028C8.661,14.924 8.952,14.731 8.984,14.572L8.952,14.56C8.88,14.517 8.737,14.584 8.65,14.55L8.628,14.516L8.562,14.516C8.546,14.508 8.519,14.483 8.495,14.471L8.495,14.426C8.635,14.428 8.753,14.431 8.875,14.426L9.008,14.426C9.368,14.28 9.575,14.068 9.822,13.813C9.854,13.78 9.905,13.76 9.933,13.723C9.993,13.65 10.036,13.565 10.101,13.5C10.173,13.428 10.456,13.217 10.469,13.121C10.449,13.1 10.374,13.016 10.391,12.998C10.441,12.942 10.541,12.932 10.603,12.888C10.693,12.825 10.755,12.702 10.826,12.619C10.857,12.584 10.891,12.599 10.938,12.575C10.973,12.555 10.962,12.512 10.982,12.474C11.022,12.397 11.136,12.324 11.194,12.25C11.268,12.157 11.455,12.075 11.462,11.926C11.47,11.914 11.468,11.916 11.473,11.894L11.517,11.894C11.535,11.936 11.542,11.961 11.597,11.972C11.617,11.942 11.657,11.924 11.684,11.905C11.667,11.859 11.751,11.665 11.796,11.604L11.83,11.592C11.98,11.317 12.237,11.151 12.477,10.967C12.509,10.944 12.54,10.955 12.577,10.934C12.589,10.916 12.599,10.898 12.611,10.877C12.681,10.834 12.787,10.807 12.833,10.744L12.845,10.744C12.856,10.732 12.835,10.733 12.833,10.732C12.823,10.725 12.823,10.726 12.8,10.722C12.783,10.742 12.79,10.736 12.756,10.744C12.748,10.724 12.754,10.733 12.744,10.722C12.751,10.703 12.747,10.712 12.756,10.7C12.777,10.664 12.79,10.648 12.846,10.643L12.846,10.709C12.864,10.715 12.882,10.719 12.901,10.721C12.959,10.631 13.151,10.547 13.246,10.486C13.31,10.448 13.362,10.371 13.414,10.319C13.499,10.233 13.588,10.152 13.681,10.075C13.717,10.045 13.738,9.995 13.771,9.963C13.828,9.906 13.987,9.799 14.005,9.717C13.937,9.667 13.995,9.537 13.972,9.439C13.966,9.414 13.933,9.375 13.927,9.349L13.927,9.138C13.871,9.112 13.843,9.053 13.838,8.981L13.838,8.891C13.826,8.889 13.815,8.885 13.804,8.881C13.796,8.867 13.797,8.826 13.794,8.814M13.76,7.398C13.753,7.376 13.75,7.353 13.75,7.33L13.682,7.275L13.66,7.275C13.605,7.194 13.532,7.126 13.448,7.075C13.418,7.055 13.385,7.062 13.359,7.041C13.31,6.999 13.304,6.931 13.236,6.906L13.236,6.916C13.218,6.933 13.224,6.925 13.213,6.951C13.251,7.004 13.193,7.137 13.158,7.163C13.145,7.172 13.148,7.17 13.124,7.173C13.115,7.128 13.092,7.135 13.079,7.108L13.079,6.928L13.046,6.906C13.042,6.85 13.038,6.795 13.036,6.739C13.022,6.731 13.01,6.719 13.002,6.705C12.887,6.725 12.682,6.685 12.578,6.671C12.432,6.894 12.201,7.041 11.976,7.186C11.961,7.194 11.964,7.219 11.954,7.231C11.925,7.256 11.883,7.263 11.854,7.286L11.842,7.32C11.785,7.364 11.707,7.385 11.651,7.43C11.598,7.476 11.558,7.548 11.507,7.599C11.41,7.694 11.245,7.822 11.217,7.978C11.245,8.002 11.235,8.004 11.228,8.044C11.286,8.075 11.404,8.068 11.496,8.066C11.522,8.122 11.577,8.085 11.63,8.111C11.637,8.123 11.645,8.131 11.651,8.144L11.741,8.144C11.749,8.156 11.756,8.164 11.763,8.177C11.839,8.209 12.245,8.317 12.377,8.267C12.383,8.265 12.402,8.236 12.41,8.233L12.5,8.233C12.511,8.219 12.522,8.204 12.533,8.189C12.556,8.186 12.578,8.182 12.6,8.177C12.648,8.152 12.672,8.107 12.745,8.1C12.785,8.175 12.848,8.209 12.937,8.225C12.993,8.234 13.059,8.235 13.137,8.233C13.168,8.186 13.184,8.206 13.236,8.177C13.313,8.113 13.384,8.042 13.448,7.965C13.461,7.942 13.53,7.755 13.538,7.752L13.648,7.752C13.668,7.777 13.676,7.78 13.715,7.786L13.715,7.775L13.727,7.775C13.707,7.727 13.692,7.728 13.705,7.664L13.849,7.643L13.815,7.397L13.76,7.397M13.682,5.156C13.68,5.149 13.676,5.141 13.672,5.135C13.647,5.126 13.62,5.123 13.593,5.124C13.531,5.174 13.39,5.141 13.326,5.189C13.317,5.201 13.322,5.191 13.314,5.212L13.326,5.212L13.326,5.223C13.412,5.226 13.452,5.255 13.548,5.256C13.585,5.199 13.611,5.18 13.682,5.156M14.173,4.843C14.113,4.816 14.1,4.781 14.017,4.777C13.998,4.827 14.001,4.845 13.928,4.844C13.835,4.941 13.458,4.901 13.426,5.046C13.477,5.063 13.568,5.056 13.638,5.056C13.66,5.078 13.708,5.076 13.76,5.078C13.756,5.123 13.75,5.122 13.738,5.155C13.794,5.188 13.815,5.219 13.869,5.234L13.883,5.178L13.883,5.134C13.926,5.117 14.164,4.89 14.173,4.843M14.044,9.131C14.034,9.118 14.019,9.101 14.006,9.081C13.986,9.088 13.996,9.082 13.984,9.092C13.957,9.101 13.965,9.097 13.95,9.115C13.96,9.121 13.97,9.127 13.978,9.135C14.006,9.155 14.03,9.176 14.061,9.194C14.064,9.172 14.058,9.149 14.044,9.131M17.106,6.66L17.139,6.66C17.181,6.6 17.264,6.573 17.307,6.515C17.382,6.409 17.464,6.308 17.552,6.213C17.564,6.202 17.588,6.205 17.597,6.192C17.625,6.147 17.633,6.107 17.664,6.068C17.708,6.016 17.781,5.958 17.798,5.878C17.744,5.86 17.648,5.867 17.574,5.868C17.545,5.805 17.48,5.855 17.407,5.834C17.387,5.828 17.367,5.796 17.352,5.789L17.196,5.789C17.164,5.781 17.126,5.743 17.096,5.734L16.928,5.734C16.923,5.732 16.902,5.703 16.894,5.7L16.66,5.7C16.627,5.69 16.617,5.669 16.56,5.667C16.467,5.664 16.324,5.649 16.281,5.7C16.264,5.728 16.276,5.76 16.248,5.779C16.175,5.823 16.142,5.749 16.102,5.734L16.002,5.734L15.98,5.7L15.79,5.7L15.768,5.667L15.444,5.667C15.414,5.659 15.368,5.63 15.344,5.622L14.864,5.622C14.852,5.628 14.85,5.662 14.842,5.667C14.792,5.697 14.586,5.7 14.507,5.7C14.497,5.72 14.47,5.73 14.462,5.745L14.462,5.802L14.44,5.802C14.42,5.827 14.4,5.866 14.385,5.891L14.373,5.891L14.373,5.969L14.228,6.236C14.205,6.254 14.129,6.266 14.118,6.27L14.106,6.292C14.132,6.321 14.13,6.368 14.128,6.427C14.053,6.421 14.049,6.395 13.96,6.393C13.934,6.436 13.87,6.483 13.85,6.527L13.85,6.694C13.791,6.831 13.786,6.872 13.603,6.872L13.514,6.997C13.597,7.055 13.694,7.125 13.704,7.241C13.695,7.251 13.687,7.262 13.682,7.275L13.748,7.33L13.815,7.343L13.815,7.398L13.849,7.644C13.849,7.737 13.849,7.797 13.815,7.854L13.782,7.877L13.782,7.954C13.776,7.974 13.744,7.992 13.738,8.012L13.738,8.157L13.704,8.167L13.704,8.291C13.693,8.296 13.682,8.305 13.671,8.313L13.671,8.348C13.673,8.358 13.829,8.493 13.849,8.515C13.879,8.545 13.87,8.576 13.893,8.616C13.903,8.631 13.939,8.643 13.95,8.661C13.982,8.714 13.987,8.755 14.017,8.817C14.032,8.848 14.08,8.904 14.094,8.939L14.094,9.017C14.108,9.047 14.129,9.078 14.147,9.11C14.168,9.142 14.18,9.179 14.184,9.217C14.171,9.23 14.16,9.246 14.151,9.263C14.174,9.273 14.171,9.278 14.206,9.283C14.238,9.248 14.26,9.181 14.296,9.15L14.329,9.15L14.385,9.072C14.411,9.053 14.433,9.058 14.462,9.039C14.513,9.006 14.556,8.936 14.608,8.904C14.941,8.703 15.321,8.568 15.556,8.269C15.641,8.161 15.703,7.797 15.857,7.789C15.878,7.845 15.908,7.829 15.969,7.822C16.019,7.735 16.113,7.712 16.181,7.645C16.36,7.459 16.547,7.281 16.727,7.098C16.818,7.003 16.983,6.931 16.984,6.751C17.012,6.734 17.031,6.71 17.062,6.695C17.074,6.732 17.078,6.73 17.095,6.729C17.106,6.712 17.106,6.693 17.106,6.662L17.106,6.66ZM13.838,5.668C13.83,5.662 13.83,5.628 13.815,5.623L13.425,5.623C13.391,5.693 13.377,5.787 13.325,5.869C13.206,6.052 12.983,6.188 12.979,6.482C13.059,6.538 13.119,6.63 13.18,6.705C13.228,6.766 13.312,6.808 13.37,6.862L13.38,6.895L13.414,6.895C13.437,6.912 13.457,6.955 13.48,6.974L13.514,6.996L13.604,6.871L13.57,6.871L13.57,6.85C13.551,6.82 13.542,6.714 13.537,6.683C13.568,6.688 13.568,6.697 13.593,6.683C13.601,6.669 13.601,6.663 13.604,6.638C13.561,6.605 13.533,6.556 13.526,6.503C13.558,6.489 13.689,6.286 13.726,6.247C13.796,6.174 13.878,6.119 13.96,6.059C13.968,6.044 13.975,6.029 13.983,6.014C13.998,6.001 14.029,6.008 14.039,5.992L14.039,5.924C14.05,5.921 14.061,5.918 14.072,5.914L14.084,5.869C14.135,5.815 14.23,5.799 14.251,5.713L14.241,5.713L14.241,5.701C14.164,5.702 13.878,5.697 13.838,5.668M14.519,5.468C14.516,5.475 14.512,5.481 14.508,5.488L14.519,5.488L14.519,5.5L14.609,5.5C14.609,5.46 14.586,5.465 14.519,5.468M15.065,5.189L15.065,5.178L15.055,5.178C14.978,5.14 14.894,5.118 14.808,5.112C14.788,5.167 14.779,5.18 14.696,5.178C14.668,5.136 14.443,4.984 14.386,4.978C14.31,4.942 14.234,5.041 14.184,5.067C14.144,5.087 14.077,5.091 14.039,5.112C13.987,5.138 13.969,5.172 13.883,5.178L13.869,5.234C13.903,5.242 13.937,5.246 13.972,5.245C14.047,5.294 14.146,5.248 14.252,5.279C14.358,5.309 14.594,5.333 14.719,5.334C14.787,5.334 14.859,5.362 14.875,5.356C14.889,5.335 14.893,5.271 14.898,5.245C14.914,5.239 15.043,5.202 15.054,5.189L15.065,5.189ZM14.72,4.464L14.731,4.432L14.742,4.432L14.748,4.385C14.706,4.382 14.68,4.339 14.641,4.331C14.588,4.321 14.411,4.418 14.396,4.454C14.428,4.472 14.436,4.471 14.441,4.52L14.429,4.52L14.429,4.532C14.339,4.528 14.197,4.544 14.173,4.608L14.185,4.608C14.205,4.667 14.258,4.681 14.295,4.72C14.325,4.75 14.348,4.835 14.385,4.854L14.753,4.854C14.783,4.811 14.829,4.807 14.903,4.809L14.903,4.621C14.837,4.575 14.776,4.522 14.72,4.464M4.202,5.313L4.145,5.313L4.145,5.213C4.175,5.209 4.205,5.203 4.235,5.2C4.231,5.265 4.212,5.258 4.202,5.312L4.202,5.313ZM6.366,3.617C6.354,3.627 6.35,3.637 6.342,3.651L6.276,3.651C6.258,3.614 6.246,3.607 6.243,3.551C6.257,3.545 6.272,3.54 6.288,3.538C6.304,3.552 6.337,3.557 6.354,3.571C6.362,3.586 6.362,3.591 6.366,3.617M19.162,1.978C19.162,1.874 19.159,1.766 19.159,1.668C19.13,1.655 19.072,1.648 19.036,1.635L19.036,1.602L19.103,1.602C19.109,1.584 19.113,1.565 19.114,1.546C19.065,1.508 19.064,1.438 19.025,1.39C18.988,1.343 18.913,1.344 18.88,1.31C18.845,1.278 18.822,1.166 18.768,1.134C18.742,1.128 18.716,1.123 18.69,1.121C18.663,1.107 18.62,1.057 18.589,1.044L18.523,1.044L18.513,1.01C18.366,0.936 18.117,1.163 17.965,1.066C17.922,1.046 17.933,1.025 17.865,1.022C17.792,1.084 17.608,1.017 17.497,1.044C17.404,1.064 17.292,1.099 17.196,1.121L16.996,1.121C16.831,1.157 16.581,1.223 16.437,1.109C16.428,1.096 16.428,1.091 16.425,1.065L16.459,1.054C16.552,0.994 16.777,1.033 16.85,0.953L16.86,0.953L16.86,0.941L16.85,0.941C16.813,0.925 16.773,0.918 16.733,0.921C16.668,0.921 16.595,0.931 16.549,0.931L15.778,0.93C14.969,0.93 14.305,0.952 13.392,0.952L11.183,0.962C10.806,0.962 10.32,0.914 10.001,0.996L9.599,0.996L9.075,1.008C9.042,1.016 8.969,1.06 8.919,1.042C8.893,1.031 8.889,0.992 8.852,0.985C8.822,1 8.775,1.032 8.751,1.042L8.471,1.042C8.34,1.044 8.208,1.028 8.081,0.996L7.847,0.996C7.797,0.98 7.784,0.963 7.691,0.963C6.894,0.962 6.154,0.942 5.402,0.933C5.189,0.932 4.974,0.93 4.756,0.93C4.753,0.94 4.751,0.952 4.746,0.963C4.831,1.014 4.969,1.133 5.003,1.231L4.991,1.231C4.978,1.259 4.997,1.238 4.969,1.254C4.933,1.23 4.861,1.262 4.814,1.241L4.792,1.209L4.659,1.209C4.642,1.202 4.626,1.169 4.613,1.163L4.445,1.163C4.428,1.156 4.396,1.127 4.368,1.119L4.189,1.119C4.179,1.114 4.144,1.078 4.133,1.074L3.887,1.074C3.877,1.071 3.849,1.044 3.843,1.042L3.497,1.042C3.482,1.037 3.443,1.012 3.43,1.008C3.38,0.992 3.29,1.005 3.253,0.996L2.917,0.996C2.729,0.955 2.536,0.943 2.345,0.959C2.289,0.962 2.234,0.971 2.18,0.985L1.924,1.007C1.899,1.002 1.831,0.963 1.778,0.985C1.76,0.993 1.745,1.032 1.723,1.042L1.612,1.042C1.552,1.057 1.497,1.101 1.432,1.119C1.332,1.149 1.149,1.096 1.065,1.131C1.059,1.142 1.052,1.153 1.044,1.163C0.952,1.205 0.854,1.19 0.765,1.241C0.735,1.271 0.708,1.306 0.687,1.343L0.687,1.443C0.609,1.586 0.626,1.737 0.622,1.956C0.618,2.063 0.602,2.069 0.577,2.146L0.577,2.581C0.536,2.761 0.536,2.947 0.577,3.127L0.577,4.075C0.603,4.147 0.62,4.124 0.622,4.254L0.622,4.667C0.63,4.692 0.675,4.724 0.687,4.756C0.71,4.823 0.712,4.996 0.753,5.034C0.816,5.081 0.931,5.028 1.021,5.056C1.047,5.065 1.058,5.084 1.099,5.089L1.099,5.257C1.062,5.254 1.039,5.236 1.032,5.245C1.022,5.262 1.022,5.291 1.022,5.322L1.032,5.322L1.032,5.335C1.062,5.325 1.068,5.308 1.088,5.302C1.148,5.28 1.241,5.307 1.29,5.29C1.288,5.244 1.284,5.229 1.312,5.213C1.37,5.172 1.483,5.248 1.501,5.29C1.514,5.313 1.514,5.387 1.522,5.412C1.628,5.342 1.626,5.399 1.756,5.368C1.848,5.346 2.032,5.304 2.169,5.335C2.22,5.347 2.28,5.366 2.349,5.368L2.85,5.38C2.967,5.416 3.372,5.449 3.518,5.4L3.518,5.38C3.495,5.366 3.444,5.347 3.429,5.322C3.419,5.308 3.419,5.296 3.419,5.267C3.493,5.232 3.539,5.191 3.641,5.212C3.657,5.268 3.698,5.393 3.719,5.435C3.764,5.463 3.887,5.445 3.954,5.445L4.544,5.445C4.571,5.464 4.635,5.459 4.678,5.457L4.678,5.446L4.69,5.446L4.69,5.424C4.583,5.364 4.44,5.313 4.335,5.245C4.355,5.22 4.358,5.232 4.365,5.189C4.348,5.182 4.332,5.17 4.321,5.155L4.29,5.155C4.282,5.11 4.271,5.109 4.267,5.055C4.224,5.028 4.204,4.989 4.144,4.978L4.144,4.933C4.184,4.93 4.192,4.922 4.21,4.933C4.329,4.971 4.38,5.083 4.478,5.133C4.527,5.156 4.575,5.145 4.624,5.167C4.69,5.193 4.774,5.259 4.848,5.277C4.893,5.289 4.893,5.239 4.948,5.256C4.979,5.265 4.981,5.291 5.026,5.301C5.047,5.258 5.066,5.214 5.104,5.189L5.116,5.279C5.066,5.295 5.044,5.291 5.038,5.356C5.075,5.378 5.116,5.411 5.158,5.423L5.428,5.411L6.388,5.411C6.408,5.416 6.421,5.44 6.433,5.445C6.46,5.454 6.835,5.467 6.835,5.467C6.887,5.454 7.047,5.359 7.112,5.377C7.147,5.387 7.217,5.431 7.247,5.444C7.34,5.482 7.725,5.428 7.782,5.41L8.251,5.41C8.256,5.399 8.266,5.388 8.272,5.378L8.618,5.366C8.624,5.364 8.643,5.336 8.651,5.333L8.885,5.333C8.891,5.331 8.911,5.303 8.919,5.3L9.087,5.3C9.098,5.295 9.12,5.26 9.131,5.255C9.172,5.234 9.238,5.265 9.288,5.243C9.325,5.228 9.408,5.181 9.443,5.166C9.501,5.141 9.549,5.151 9.581,5.136C9.606,5.126 9.62,5.099 9.621,5.032C9.558,4.997 9.547,4.892 9.488,4.865L9.276,4.865C9.229,4.805 9.141,4.853 9.066,4.82C9.05,4.814 9.029,4.782 9.008,4.775L8.885,4.775C8.874,4.77 8.858,4.737 8.84,4.731L8.73,4.731C8.724,4.72 8.715,4.709 8.71,4.697L8.607,4.697C8.374,4.602 8.12,4.515 7.883,4.419L7.637,4.419L7.626,4.452L7.503,4.452C7.487,4.459 7.473,4.492 7.458,4.498L7.381,4.498C7.333,4.518 7.253,4.57 7.201,4.587L7.124,4.587C7.118,4.598 7.109,4.607 7.104,4.619L6.812,4.619L6.802,4.587L6.722,4.587C6.665,4.56 6.669,4.505 6.577,4.498C6.495,4.548 6.385,4.528 6.276,4.553C6.133,4.587 5.954,4.636 5.797,4.642L5.797,4.632L5.786,4.632L5.786,4.608L5.807,4.597C5.842,4.573 5.88,4.593 5.93,4.574C6.024,4.54 6.163,4.504 6.266,4.474C6.374,4.441 6.469,4.462 6.567,4.43C6.491,4.139 6.309,4.018 6.131,3.838C5.961,3.671 5.797,3.478 5.606,3.336C5.52,3.272 5.226,3.068 5.194,2.98L5.206,2.98C5.219,2.97 5.224,2.971 5.251,2.968C5.348,3.062 5.469,3.113 5.585,3.191C5.721,3.284 5.833,3.415 5.963,3.515C6.055,3.584 6.118,3.73 6.233,3.771C6.273,3.73 6.318,3.773 6.355,3.793C6.458,3.849 6.635,3.913 6.657,4.039C6.648,4.049 6.652,4.041 6.644,4.061C6.691,4.095 6.73,4.167 6.779,4.195L6.825,4.195C6.838,4.201 6.845,4.232 6.857,4.239L6.915,4.239C6.92,4.251 6.926,4.262 6.935,4.272L7.035,4.283C7.047,4.29 7.065,4.323 7.081,4.329L7.249,4.329C7.282,4.339 7.301,4.358 7.359,4.362C7.566,4.001 8.335,3.837 8.339,3.312C8.677,3.309 9.034,3.311 9.299,3.369C9.315,3.438 9.363,3.473 9.389,3.525L9.389,3.582C9.394,3.592 9.427,3.594 9.433,3.602L9.433,3.67C9.473,3.746 9.549,3.83 9.588,3.903L9.6,3.981L9.634,3.993L9.634,4.071C9.651,4.113 9.698,4.175 9.712,4.217L9.712,4.282C9.749,4.365 9.797,4.456 9.79,4.551C9.851,4.585 9.904,4.634 9.991,4.64L9.996,4.635C10.032,4.584 10.121,4.625 10.203,4.63L10.214,4.607C10.231,4.59 10.206,4.602 10.225,4.586C10.238,4.576 10.243,4.576 10.269,4.573C10.384,4.687 10.567,4.668 10.749,4.719C10.935,4.769 11.166,4.803 11.351,4.852L11.518,4.864C11.639,4.897 11.757,4.907 11.921,4.92L11.988,4.932C12.018,4.924 12.038,4.902 12.088,4.898L12.088,4.943C12.016,4.976 11.966,5.044 11.954,5.122C12.005,5.14 12.097,5.134 12.166,5.132C12.176,5.12 12.176,5.121 12.188,5.111C12.158,5.064 12.142,5.032 12.155,4.966L12.289,4.966C12.313,5.017 12.329,4.985 12.389,4.999C12.56,5.037 12.799,4.986 12.946,5.019C13.029,4.948 13.119,4.886 13.214,4.832L13.359,4.843C13.458,4.853 13.558,4.838 13.649,4.799C13.66,4.782 13.672,4.769 13.682,4.754C13.735,4.721 13.784,4.718 13.839,4.687C13.932,4.634 14.022,4.54 14.119,4.486C14.321,4.377 14.529,4.281 14.742,4.196C14.804,4.173 14.857,4.186 14.922,4.163C15.042,4.115 15.283,4.017 15.423,4.041L15.434,4.074L15.423,4.074L15.423,4.086C15.27,4.086 15.09,4.17 14.966,4.22C14.901,4.244 14.838,4.228 14.787,4.265C14.779,4.275 14.781,4.275 14.776,4.298C14.799,4.316 14.812,4.328 14.821,4.364L14.787,4.374C14.775,4.381 14.762,4.385 14.748,4.385L14.742,4.432L14.742,4.442C14.788,4.472 14.812,4.524 14.854,4.554C14.964,4.634 15.089,4.703 15.2,4.777C15.286,4.837 15.375,4.837 15.411,4.945C15.321,4.931 15.292,4.874 15.234,4.834C15.111,4.75 15.005,4.693 14.903,4.622L14.903,4.81L14.91,4.81C14.936,4.898 14.987,5.03 15.055,5.079C15.098,5.107 15.145,5.091 15.2,5.112C15.316,5.157 15.425,5.242 15.58,5.246L15.58,5.303C15.561,5.308 15.552,5.311 15.523,5.313C15.503,5.29 15.491,5.292 15.445,5.292L15.435,5.324C15.473,5.342 15.489,5.368 15.513,5.388C15.528,5.402 15.547,5.411 15.568,5.413C15.59,5.382 15.605,5.372 15.658,5.369C15.676,5.413 15.655,5.439 15.724,5.447C15.792,5.347 16.085,5.325 16.104,5.19C16.071,5.173 16.067,5.178 16.059,5.134C16.103,5.103 16.114,5.068 16.182,5.056C16.193,5.066 16.185,5.06 16.204,5.066L16.226,5.134L16.416,5.134C16.42,5.146 16.423,5.154 16.426,5.168L16.606,5.168L16.627,5.2L16.794,5.213L16.806,5.245L16.94,5.245C16.971,5.255 17.001,5.292 17.03,5.302L17.163,5.302C17.17,5.312 17.178,5.322 17.185,5.335L17.342,5.335C17.35,5.346 17.358,5.357 17.365,5.368L17.488,5.368C17.515,5.376 17.545,5.405 17.566,5.412L17.756,5.412L17.767,5.446L17.967,5.446C18.179,5.506 18.647,5.571 18.859,5.49C18.869,5.472 18.872,5.473 18.882,5.448C18.762,5.358 18.913,5.297 18.658,5.303L18.658,5.291C18.709,5.231 18.689,5.157 18.715,5.067C18.746,4.955 18.825,4.901 18.826,4.743C18.791,4.715 18.771,4.663 18.737,4.633L18.737,4.621L18.747,4.621C18.773,4.55 18.858,4.541 18.903,4.521C18.923,4.495 18.934,4.464 18.936,4.432C18.922,4.426 18.903,4.419 18.892,4.408C19.017,4.32 19.049,4.087 19.048,3.874L19.038,3.874L19.038,3.861C18.878,3.861 18.848,3.759 18.714,3.751L18.714,3.673C18.677,3.655 18.674,3.658 18.669,3.606C18.818,3.604 18.893,3.669 19.015,3.684C19.03,3.663 19.072,3.649 19.082,3.628L19.082,2.97C19.152,2.883 19.083,2.712 19.115,2.579C19.153,2.381 19.168,2.179 19.162,1.978M6.042,2.69C6.054,2.682 6.062,2.682 6.087,2.679C6.107,2.727 6.126,2.711 6.131,2.779C6.121,2.791 6.126,2.782 6.12,2.802L6.087,2.802C6.078,2.767 6.058,2.735 6.029,2.712C6.038,2.692 6.032,2.702 6.042,2.69M19.104,4.754L19.092,4.754L19.092,4.765C19.027,4.831 18.977,4.911 18.946,4.999L18.98,5.011C19.007,4.988 19.037,4.981 19.059,4.955C19.083,4.897 19.101,4.837 19.114,4.775C19.11,4.768 19.107,4.761 19.104,4.754Z" style="fill:rgb(109,172,130);fill-rule:nonzero;"/>
        </g>
    </g>
</svg>
