<?xml version="1.0" encoding="UTF-8" standalone="no"?>
<!DOCTYPE svg PUBLIC "-//W3C//DTD SVG 1.1//EN" "http://www.w3.org/Graphics/SVG/1.1/DTD/svg11.dtd">
<svg width="100%" height="100%" viewBox="0 0 83 83" version="1.1" xmlns="http://www.w3.org/2000/svg" xmlns:xlink="http://www.w3.org/1999/xlink" xml:space="preserve" xmlns:serif="http://www.serif.com/" style="fill-rule:evenodd;clip-rule:evenodd;stroke-linejoin:round;stroke-miterlimit:2;">
    <g>
        <g transform="matrix(0.746835,0,0,0.742806,-0.149367,-0.297122)">
            <rect x="0.2" y="0.4" width="110.6" height="111.2" style="fill:rgb(205,124,95);"/>
        </g>
        <g transform="matrix(2.11641,0,0,2.11641,-159.656,-187.805)">
            <path d="M101.255,89.364C101.401,89.358 101.587,89.409 101.783,89.51C101.98,89.611 102.148,89.751 102.261,89.92C102.407,90.128 102.508,90.448 102.845,91.774C103.064,92.656 103.373,93.853 103.53,94.443C103.682,95.033 103.935,95.988 104.087,96.578C104.238,97.162 104.379,97.735 104.396,97.842C104.418,97.973 104.384,98.198 104.295,98.516C104.222,98.78 103.89,99.814 103.559,100.819C103.227,101.825 102.884,102.865 102.632,103.629L102.39,103.595C102.188,103.567 102.126,103.584 101.969,103.707C101.817,103.831 101.789,103.887 101.789,104.095C101.789,104.224 101.823,104.37 101.862,104.421C101.901,104.466 102.002,104.556 102.087,104.617C102.199,104.696 102.289,104.853 102.412,105.202C102.508,105.466 102.632,105.758 102.688,105.848C102.738,105.938 102.828,106.033 102.879,106.061C102.929,106.084 103.07,106.101 103.193,106.101C103.373,106.101 103.441,106.067 103.536,105.943C103.62,105.831 103.643,105.741 103.626,105.595C103.609,105.488 103.525,105.207 103.283,104.556L103.839,103.713C104.143,103.247 104.682,102.415 105.671,100.848L105.637,100.539C105.615,100.37 105.581,99.522 105.514,97.083L105.272,96.269C105.07,95.572 105.031,95.358 105.008,94.78C104.986,94.257 104.997,94.033 105.07,93.78C105.126,93.572 105.233,93.381 105.368,93.229C105.486,93.1 105.682,92.948 105.806,92.886C105.946,92.813 106.143,92.768 106.34,92.768C106.508,92.768 106.739,92.808 106.845,92.853C106.952,92.898 107.126,93.021 107.233,93.128C107.34,93.235 107.458,93.392 107.497,93.488C107.536,93.583 107.615,93.948 107.677,94.302C107.739,94.656 107.935,95.729 108.109,96.69C108.284,97.651 108.525,98.954 108.649,99.6C108.767,100.241 108.868,100.876 108.868,101.016C108.868,101.185 108.812,101.381 108.694,101.623C108.593,101.814 107.952,102.909 107.267,104.05C106.576,105.196 105.924,106.297 105.609,106.887L105.609,109.977C105.609,112.337 105.592,113.101 105.536,113.213C105.503,113.292 105.407,113.399 105.328,113.444C105.25,113.494 105.098,113.528 104.991,113.528C104.856,113.522 104.75,113.478 104.654,113.376C104.514,113.236 104.514,113.225 104.486,111.983C104.463,111.005 104.441,110.708 104.373,110.607C104.328,110.539 104.205,110.455 104.104,110.427C103.969,110.387 103.884,110.393 103.766,110.449C103.682,110.489 103.581,110.601 103.542,110.685C103.48,110.814 103.469,111.32 103.48,113.124C103.491,115.303 103.486,115.41 103.379,115.68C103.311,115.837 102.941,116.629 102.547,117.45C102.154,118.27 101.727,119.18 101.592,119.472C101.457,119.764 101.311,120.158 101.261,120.343C101.193,120.59 101.171,120.956 101.171,121.748C101.171,122.338 101.143,122.854 101.115,122.899C101.075,122.967 100.98,122.978 100.626,122.95C100.384,122.933 100.154,122.899 100.115,122.883C100.064,122.854 100.047,122.461 100.047,119.585L99.879,119.444C99.789,119.366 99.654,119.304 99.581,119.304C99.513,119.304 99.373,119.354 99.272,119.416C99.103,119.523 99.092,119.545 99.086,119.882C99.081,120.073 99.058,120.753 99.008,122.551L98.643,122.428C98.44,122.354 98.064,122.192 97.8,122.057C97.536,121.922 97.109,121.68 96.845,121.523C96.581,121.366 95.648,120.753 94.766,120.163C93.884,119.573 92.912,118.955 92.603,118.781C92.294,118.613 91.828,118.377 91.563,118.264C91.299,118.146 90.856,117.972 90.58,117.871C90.305,117.77 89.732,117.607 89.316,117.506C88.9,117.405 88.417,117.287 88.249,117.236C88.074,117.191 87.872,117.09 87.794,117.006C87.709,116.927 87.603,116.719 87.546,116.551C87.473,116.326 87.445,115.995 87.428,115.315C87.417,114.803 87.395,113.871 87.383,113.236C87.367,112.601 87.305,111.388 87.243,110.539C87.176,109.629 87.08,108.764 87.013,108.432C86.951,108.123 86.81,107.516 86.709,107.084C86.602,106.651 86.428,105.988 86.316,105.612C86.198,105.207 86.114,104.797 86.114,104.629C86.114,104.466 86.192,104.016 86.462,102.926L86.423,101.016C86.389,99.235 86.395,99.095 86.49,98.909C86.546,98.802 86.681,98.656 86.788,98.583C86.94,98.488 87.063,98.46 87.333,98.46C87.558,98.46 87.805,98.505 88.007,98.583C88.237,98.668 88.428,98.797 88.648,99.016C88.855,99.224 89.041,99.494 89.198,99.808C89.327,100.072 89.496,100.488 89.569,100.735C89.642,100.982 89.749,101.398 89.799,101.662C89.861,101.949 89.9,102.409 89.9,102.814C89.906,103.28 89.872,103.623 89.698,104.387L90.159,105.764C90.417,106.522 90.67,107.202 90.721,107.281C90.771,107.359 90.929,107.477 91.063,107.545C91.238,107.634 91.412,107.674 91.648,107.674C91.833,107.674 92.108,107.629 92.266,107.578C92.429,107.516 92.665,107.365 92.839,107.196C93.08,106.972 93.187,106.814 93.356,106.41C93.474,106.134 93.839,105.123 94.165,104.162C94.485,103.202 94.794,102.32 94.845,102.196C94.912,102.039 94.991,101.381 95.283,97.926L94.861,96.662C94.631,95.965 94.373,95.173 94.288,94.892C94.204,94.611 93.934,93.993 93.698,93.516C93.457,93.038 93.198,92.471 93.131,92.252C93.035,91.965 93.002,91.729 93.002,91.381C93.002,90.987 93.024,90.853 93.142,90.628C93.215,90.476 93.367,90.274 93.474,90.173C93.597,90.06 93.783,89.97 93.979,89.926C94.232,89.864 94.345,89.864 94.597,89.92C94.845,89.976 94.957,90.049 95.154,90.251C95.367,90.465 95.659,91.027 98.446,96.746L98.48,101.466L98.21,101.617C98.036,101.718 97.789,101.791 97.519,101.825C97.289,101.859 96.963,101.887 96.8,101.887C96.642,101.887 96.457,101.915 96.395,101.943C96.333,101.977 96.244,102.089 96.199,102.196C96.126,102.37 96.126,102.415 96.199,102.589C96.255,102.713 96.35,102.814 96.463,102.865C96.614,102.932 96.777,102.932 97.35,102.893C97.738,102.859 98.176,102.803 98.334,102.758C98.485,102.713 98.744,102.584 98.907,102.466C99.07,102.348 99.339,102.151 99.508,102.027C99.676,101.904 99.834,101.763 99.856,101.718C99.873,101.673 100.154,100.853 101.064,98.151L101.008,97.757C100.974,97.544 100.895,96.937 100.834,96.409C100.777,95.887 100.699,95.139 100.665,94.752C100.615,94.156 100.564,93.926 100.334,93.235C100.182,92.785 100.013,92.257 99.957,92.055C99.895,91.813 99.856,91.487 99.856,91.1C99.856,90.594 99.873,90.465 99.991,90.206C100.075,90.021 100.227,89.819 100.384,89.684C100.525,89.566 100.727,89.448 100.834,89.42C100.94,89.392 101.131,89.364 101.255,89.364Z" style="fill:rgb(82,22,40);"/>
            <path d="M95.047,105.37C95.013,105.432 94.991,105.55 94.991,105.64C94.991,105.724 95.03,105.848 95.075,105.921C95.12,105.988 95.266,106.101 95.395,106.168C95.53,106.236 95.76,106.404 95.912,106.545C96.064,106.685 96.311,106.994 96.463,107.224C96.62,107.466 96.8,107.837 96.884,108.095C96.98,108.41 97.036,108.724 97.053,109.135C97.075,109.562 97.058,109.865 96.985,110.23C96.935,110.511 96.828,110.916 96.749,111.129C96.671,111.348 96.502,111.713 96.378,111.944C96.255,112.174 96.008,112.55 95.839,112.781C95.665,113.011 95.249,113.455 94.906,113.764C94.569,114.079 94.075,114.545 93.811,114.809C93.541,115.073 93.187,115.489 93.024,115.736C92.861,115.983 92.693,116.264 92.653,116.354C92.614,116.45 92.603,116.596 92.62,116.686C92.642,116.775 92.721,116.899 92.799,116.955C92.878,117.011 93.019,117.062 93.108,117.056C93.198,117.056 93.328,117.023 93.389,116.983C93.451,116.938 93.603,116.731 93.721,116.517C93.861,116.275 94.125,115.95 94.423,115.652C94.693,115.388 95.182,114.921 95.519,114.612C95.856,114.303 96.294,113.848 96.491,113.601C96.687,113.354 96.963,112.961 97.097,112.73C97.232,112.5 97.423,112.135 97.519,111.916C97.614,111.702 97.755,111.32 97.828,111.073C97.895,110.826 97.985,110.382 98.025,110.09C98.069,109.769 98.086,109.342 98.064,109.022C98.047,108.73 97.98,108.286 97.912,108.039C97.85,107.792 97.716,107.415 97.614,107.196C97.513,106.983 97.345,106.679 97.238,106.522C97.131,106.37 96.929,106.118 96.788,105.966C96.648,105.814 96.373,105.578 96.17,105.438C95.968,105.297 95.727,105.162 95.625,105.14C95.519,105.117 95.384,105.134 95.277,105.179C95.182,105.224 95.081,105.308 95.047,105.37Z" style="fill:rgb(82,22,40);"/>
            <path d="M110.104,102.786C110.199,102.786 110.329,102.814 110.396,102.853C110.469,102.887 110.553,102.954 110.593,103.005C110.638,103.061 110.66,103.32 110.666,103.73C110.666,104.241 110.649,104.387 110.565,104.505C110.514,104.584 110.379,104.674 110.272,104.707C110.115,104.752 110.036,104.747 109.89,104.674C109.778,104.617 109.677,104.505 109.621,104.376C109.553,104.213 109.536,104.044 109.559,103.64C109.587,103.145 109.598,103.106 109.761,102.949C109.874,102.842 109.997,102.786 110.104,102.786Z" style="fill:rgb(82,22,40);"/>
            <path d="M108.053,104.921C108.098,104.921 108.177,104.932 108.222,104.949C108.295,104.971 108.306,105.235 108.306,106.848C108.306,108.696 108.306,108.713 108.177,108.876C108.081,109 107.997,109.039 107.772,109.062C107.531,109.09 107.469,109.073 107.154,108.809L107.121,106.41L107.357,105.96C107.486,105.713 107.677,105.376 107.778,105.219C107.885,105.056 108.008,104.921 108.053,104.921Z" style="fill:rgb(82,22,40);"/>
            <path d="M105.311,115.995C105.323,115.989 105.413,116.023 105.508,116.062C105.609,116.101 105.738,116.197 105.795,116.275C105.873,116.388 105.89,116.54 105.89,118.068L105.677,118.242C105.497,118.399 105.441,118.416 105.244,118.388C105.109,118.365 104.963,118.292 104.879,118.208C104.744,118.073 104.738,118.034 104.722,117.264C104.705,116.523 104.716,116.455 104.828,116.287C104.896,116.186 105.031,116.084 105.126,116.051C105.222,116.023 105.306,115.995 105.311,115.995Z" style="fill:rgb(82,22,40);"/>
            <path d="M84.67,116.18C85.074,116.186 85.125,116.197 85.248,116.343C85.321,116.427 85.383,116.545 85.383,116.607C85.383,116.669 85.321,116.787 85.248,116.865C85.125,117 85.052,117.023 84.529,117.062C84.209,117.09 83.72,117.152 83.445,117.197C83.164,117.247 82.76,117.337 82.546,117.399C82.327,117.461 81.889,117.601 81.563,117.714C81.22,117.837 80.934,117.905 80.872,117.882C80.821,117.86 80.743,117.781 80.703,117.702C80.647,117.585 80.653,117.528 80.731,117.365C80.81,117.214 80.922,117.129 81.237,116.978C81.462,116.871 81.922,116.697 82.265,116.59C82.602,116.478 83.097,116.354 83.361,116.304C83.625,116.259 83.928,116.208 84.035,116.191C84.142,116.18 84.428,116.174 84.67,116.18Z" style="fill:rgb(82,22,40);"/>
            <path d="M108.008,117.506C108.194,117.506 108.284,117.54 108.39,117.646C108.486,117.742 108.531,117.849 108.531,117.983C108.531,118.09 108.486,118.242 108.43,118.321C108.379,118.399 108.272,118.489 108.194,118.512C108.115,118.54 107.991,118.551 107.913,118.54C107.834,118.523 107.711,118.45 107.632,118.371C107.531,118.27 107.491,118.163 107.491,118.012C107.491,117.86 107.531,117.753 107.626,117.652C107.733,117.54 107.817,117.506 108.008,117.506Z" style="fill:rgb(82,22,40);"/>
            <path d="M78.9,117.674C79.007,117.674 79.141,117.702 79.203,117.731C79.265,117.764 79.349,117.871 79.394,117.972C79.433,118.068 79.462,118.203 79.45,118.264C79.439,118.326 79.36,118.444 79.282,118.534C79.175,118.641 79.074,118.686 78.945,118.686C78.81,118.686 78.703,118.635 78.585,118.517C78.478,118.41 78.417,118.287 78.411,118.186C78.405,118.079 78.456,117.955 78.557,117.849C78.669,117.719 78.754,117.674 78.9,117.674Z" style="fill:rgb(82,22,40);"/>
            <path d="M112.649,118.028C113.003,118.04 113.048,118.051 113.2,118.225C113.289,118.321 113.363,118.467 113.363,118.545C113.363,118.624 113.318,118.759 113.261,118.854C113.211,118.944 113.104,119.045 113.025,119.079C112.947,119.107 112.66,119.158 112.379,119.191C112.098,119.219 111.722,119.298 111.537,119.354C111.351,119.41 111.065,119.523 110.902,119.607C110.744,119.686 110.351,119.927 110.031,120.141C109.716,120.354 109.351,120.579 109.216,120.646C109.087,120.708 108.761,120.826 108.486,120.905C108.211,120.989 107.767,121.062 107.463,121.085C107.166,121.102 106.227,121.073 105.328,121.023C104.446,120.972 103.615,120.911 103.474,120.894C103.3,120.871 103.182,120.815 103.092,120.714C103.025,120.635 102.952,120.5 102.941,120.416C102.924,120.321 102.952,120.18 103.014,120.079C103.075,119.961 103.188,119.871 103.311,119.826C103.457,119.776 103.738,119.781 104.542,119.843C105.115,119.888 106.076,119.939 106.677,119.955C107.396,119.978 107.885,119.972 108.109,119.927C108.295,119.894 108.598,119.793 108.784,119.697C108.969,119.607 109.362,119.349 109.654,119.13C109.947,118.91 110.329,118.658 110.497,118.573C110.666,118.489 110.969,118.365 111.171,118.298C111.374,118.231 111.7,118.141 111.902,118.096C112.104,118.051 112.441,118.023 112.649,118.028Z" style="fill:rgb(82,22,40);"/>
            <path d="M85.973,118.259C86.861,118.276 87.316,118.309 87.827,118.399C88.198,118.467 88.704,118.568 88.951,118.635C89.198,118.697 89.664,118.837 89.99,118.944C90.316,119.057 90.856,119.276 91.198,119.439C91.535,119.596 92.108,119.905 92.462,120.113C92.816,120.326 93.502,120.77 93.979,121.096C94.457,121.422 95.064,121.832 95.328,122.006C95.592,122.175 96.081,122.478 96.423,122.675C96.76,122.871 97.317,123.164 97.659,123.326C97.996,123.484 98.48,123.68 98.727,123.759C98.974,123.838 99.452,123.944 99.794,123.995C100.221,124.057 100.682,124.079 102.137,124.051L102.3,123.871C102.418,123.737 102.463,123.63 102.463,123.478C102.463,123.36 102.435,123.164 102.401,123.04C102.356,122.86 102.362,122.765 102.429,122.579C102.485,122.422 102.587,122.298 102.699,122.225C102.839,122.147 102.985,122.118 103.278,122.118C103.497,122.113 103.974,122.141 104.345,122.169C104.716,122.197 105.486,122.248 106.059,122.281C106.812,122.326 107.261,122.326 107.688,122.281C108.014,122.253 108.441,122.18 108.643,122.13C108.845,122.079 109.199,121.961 109.43,121.866C109.66,121.77 110.154,121.489 110.525,121.248C110.896,121.006 111.312,120.748 111.452,120.68C111.593,120.607 111.846,120.512 112.014,120.461C112.183,120.411 112.436,120.371 112.576,120.371C112.75,120.366 112.891,120.411 113.025,120.5C113.132,120.568 113.256,120.691 113.289,120.764C113.34,120.866 113.363,121.298 113.363,122.27C113.363,123.366 113.346,123.664 113.278,123.798C113.233,123.894 113.11,124.017 113.009,124.079C112.885,124.158 112.728,124.192 112.52,124.192C112.351,124.192 111.677,124.253 111.031,124.332C110.385,124.411 109.121,124.562 108.222,124.669C107.323,124.77 105.913,124.905 105.076,124.956C104.154,125.018 102.873,125.057 101.817,125.057C100.856,125.057 99.609,125.023 99.036,124.989C98.463,124.95 97.704,124.894 97.35,124.86C96.996,124.832 96.339,124.753 95.89,124.692C95.44,124.63 94.772,124.512 94.401,124.433C94.03,124.355 93.434,124.209 93.08,124.107C92.726,124.006 91.99,123.753 91.451,123.546C90.912,123.338 90.103,123.034 89.653,122.871C89.204,122.703 88.546,122.495 88.192,122.399C87.839,122.31 87.316,122.192 87.041,122.141C86.76,122.09 86.08,122.034 85.524,122.017C84.895,121.995 84.271,122.012 83.866,122.051C83.512,122.09 82.967,122.169 82.658,122.236C82.349,122.298 81.81,122.433 81.462,122.54C81.119,122.647 80.31,122.956 79.664,123.231C79.023,123.506 78.259,123.838 77.967,123.967C77.675,124.102 77.355,124.225 77.265,124.253C77.152,124.282 77.04,124.276 76.928,124.225C76.832,124.186 76.714,124.096 76.658,124.017C76.607,123.944 76.563,123.793 76.563,123.686C76.563,123.579 76.596,123.428 76.636,123.349C76.669,123.276 76.782,123.164 76.872,123.096C76.967,123.034 77.304,122.877 77.63,122.748C77.956,122.619 78.585,122.371 79.035,122.192C79.484,122.017 80.141,121.776 80.495,121.658C80.849,121.534 81.355,121.371 81.619,121.298C81.883,121.225 82.4,121.113 82.771,121.045C83.142,120.984 83.799,120.916 84.232,120.894C84.687,120.877 85.293,120.888 85.664,120.927C86.018,120.961 86.788,121.073 87.378,121.186C87.962,121.293 88.507,121.366 88.586,121.343C88.664,121.326 88.782,121.259 88.855,121.191C88.923,121.13 88.996,121 89.013,120.905C89.035,120.804 89.013,120.663 88.957,120.557C88.906,120.455 88.81,120.332 88.737,120.287C88.67,120.242 88.159,120.118 87.603,120.012C87.046,119.905 86.35,119.787 86.057,119.748C85.765,119.708 85.108,119.68 84.597,119.68C84.035,119.68 83.4,119.719 82.996,119.776C82.625,119.826 82.108,119.922 81.844,119.984C81.58,120.045 81.074,120.186 80.72,120.298C80.366,120.405 79.439,120.736 78.669,121.023C77.894,121.315 77.186,121.551 77.096,121.551C77.001,121.557 76.86,121.506 76.77,121.439C76.686,121.377 76.607,121.253 76.591,121.158C76.574,121.068 76.602,120.905 76.647,120.809C76.692,120.708 76.799,120.585 76.883,120.529C76.973,120.478 77.636,120.259 78.36,120.045C79.085,119.826 80.096,119.495 80.608,119.304C81.119,119.113 81.81,118.877 82.153,118.77C82.49,118.669 82.962,118.545 83.192,118.495C83.423,118.444 83.878,118.365 84.203,118.321C84.602,118.27 85.181,118.247 85.973,118.259Z" style="fill:rgb(82,22,40);"/>
            <path d="M110.919,123.124C110.941,123.203 111.008,123.321 111.076,123.394C111.16,123.484 111.261,123.517 111.407,123.517C111.576,123.517 111.649,123.484 111.733,123.366C111.801,123.276 111.851,123.147 111.851,123.068C111.851,122.989 111.801,122.86 111.733,122.776C111.643,122.652 111.576,122.619 111.402,122.619C111.222,122.619 111.155,122.652 111.031,122.804C110.919,122.939 110.89,123.017 110.919,123.124Z" style="fill:rgb(82,22,40);"/>
            <path d="M103.469,123.349C103.469,123.394 103.514,123.489 103.559,123.562C103.609,123.641 103.699,123.686 103.795,123.686C103.884,123.692 103.997,123.647 104.047,123.59C104.104,123.534 104.148,123.433 104.148,123.366C104.148,123.293 104.12,123.186 104.092,123.124C104.053,123.046 103.98,123.012 103.839,123.012C103.705,123.012 103.62,123.051 103.559,123.135C103.502,123.203 103.463,123.298 103.469,123.349Z" style="fill:rgb(82,22,40);"/>
            <path d="M106.149,123.534C106.132,123.585 106.154,123.72 106.199,123.826C106.25,123.944 106.334,124.034 106.407,124.057C106.48,124.074 106.609,124.079 106.705,124.068C106.834,124.057 106.901,124.001 106.986,123.843L107.098,123.63C106.89,123.237 106.845,123.208 106.649,123.192C106.469,123.18 106.396,123.203 106.306,123.304C106.239,123.377 106.171,123.478 106.149,123.534Z" style="fill:rgb(82,22,40);"/>
            <path d="M85.299,123.259C86.26,123.276 86.591,123.298 87.069,123.399C87.395,123.473 87.934,123.613 88.277,123.714C88.619,123.815 89.552,124.147 90.356,124.444C91.159,124.748 92.131,125.091 92.519,125.209C92.906,125.327 93.496,125.489 93.839,125.563C94.182,125.641 94.76,125.754 95.131,125.815C95.502,125.877 96.019,125.956 96.283,125.99C96.547,126.018 97.204,126.085 97.744,126.13C98.283,126.175 99.423,126.237 100.272,126.27C101.12,126.304 102.182,126.321 102.632,126.304C103.081,126.282 103.778,126.254 104.177,126.237C104.575,126.22 105.385,126.169 105.974,126.124C106.564,126.079 107.418,126.006 107.885,125.956C108.345,125.911 109.52,125.77 110.48,125.652C111.447,125.529 112.346,125.428 112.475,125.428C112.61,125.428 112.806,125.473 112.913,125.529C113.02,125.591 113.166,125.72 113.239,125.827C113.323,125.95 113.363,126.102 113.363,126.259C113.363,126.388 113.318,126.585 113.261,126.697C113.211,126.81 113.076,126.956 112.773,127.141L94.991,127.158C77.748,127.169 77.203,127.169 77.012,127.068C76.905,127.006 76.759,126.877 76.686,126.77C76.607,126.652 76.563,126.495 76.563,126.372C76.563,126.254 76.602,126.085 76.647,125.99C76.692,125.9 76.799,125.787 76.883,125.742C76.973,125.697 77.254,125.585 77.518,125.484C77.782,125.383 78.613,125.023 79.372,124.68C80.13,124.343 81.074,123.956 81.479,123.821C81.877,123.692 82.473,123.529 82.799,123.461C83.125,123.399 83.552,123.321 83.754,123.293C83.956,123.265 84.647,123.253 85.299,123.259Z" style="fill:rgb(82,22,40);"/>
            <path d="M85.232,124.95C85.159,125.046 85.08,125.22 85.046,125.343C85.012,125.484 85.018,125.652 85.052,125.793C85.08,125.916 85.187,126.102 85.288,126.203C85.383,126.304 85.557,126.417 85.664,126.45C85.771,126.484 85.968,126.495 86.097,126.473C86.243,126.45 86.411,126.377 86.513,126.287C86.614,126.197 86.726,126.063 86.765,125.978C86.81,125.888 86.844,125.703 86.844,125.557C86.844,125.372 86.81,125.225 86.72,125.091C86.647,124.984 86.479,124.838 86.338,124.765C86.198,124.697 86.007,124.641 85.917,124.641C85.822,124.647 85.659,124.675 85.552,124.714C85.445,124.753 85.299,124.86 85.232,124.95Z" style="fill:rgb(82,22,40);"/>
            <path d="M81.226,125.579C81.226,125.697 81.276,125.815 81.366,125.905C81.456,125.995 81.568,126.046 81.675,126.046C81.788,126.046 81.894,125.995 81.99,125.894C82.108,125.765 82.13,125.703 82.102,125.54C82.08,125.433 82.024,125.298 81.967,125.242C81.911,125.18 81.793,125.141 81.664,125.147C81.524,125.147 81.417,125.186 81.338,125.27C81.265,125.343 81.22,125.467 81.226,125.579Z" style="fill:rgb(82,22,40);"/>
            <path d="M88.979,125.973C88.979,126.057 89.024,126.197 89.091,126.287C89.176,126.405 89.249,126.439 89.412,126.439C89.563,126.439 89.664,126.405 89.749,126.315C89.827,126.237 89.878,126.113 89.878,126.006C89.878,125.883 89.833,125.776 89.737,125.681C89.648,125.591 89.535,125.54 89.428,125.54C89.316,125.54 89.204,125.591 89.119,125.681C89.046,125.754 88.985,125.888 88.979,125.973Z" style="fill:rgb(82,22,40);"/>
        </g>
    </g>
</svg>
