<?xml version="1.0" encoding="UTF-8" standalone="no"?>
<!DOCTYPE svg PUBLIC "-//W3C//DTD SVG 1.1//EN" "http://www.w3.org/Graphics/SVG/1.1/DTD/svg11.dtd">
<svg width="100%" height="100%" viewBox="0 0 20 21" version="1.1" xmlns="http://www.w3.org/2000/svg" xmlns:xlink="http://www.w3.org/1999/xlink" xml:space="preserve" xmlns:serif="http://www.serif.com/" style="fill-rule:evenodd;clip-rule:evenodd;stroke-linejoin:round;stroke-miterlimit:2;">
    <g transform="matrix(-3.82857e-16,1,-1,-3.82857e-16,19.037,0.981)">
        <g id="Page-1">
            <g id="swingingaxe">
                <g id="fh-swingingaxeHQ21">
                    <path id="Fill-7699" d="M-0,0L19.056,0L19.056,19.018L-0,19.018L-0,0Z" style="fill:rgb(109,172,130);"/>
                    <path id="Fill-7701" d="M2.657,6.167C3.058,6.186 3.343,6.215 3.627,6.211C6.312,6.18 7.974,8.675 6.772,10.937C6.055,12.284 4.756,12.959 3.101,12.853C3.016,12.848 2.926,12.929 2.841,12.969C3.67,15.601 6.404,17.64 9.338,17.654C12.529,17.67 15.705,15.613 16.281,13.044C14.976,12.965 13.778,12.695 12.827,11.714C11.873,10.731 11.562,9.659 12.102,8.428C12.662,7.151 13.595,6.281 15.148,6.222C15.383,6.213 15.623,6.27 15.857,6.252C16.375,6.213 16.549,5.86 16.257,5.441C16.09,5.201 15.836,5.008 15.704,4.755C15.187,3.767 14.395,3.038 13.427,2.463C11.006,1.023 8.182,1.01 5.819,2.353C4.316,3.208 3.427,4.492 2.657,6.167" style="fill:rgb(82,22,40);"/>
                </g>
            </g>
        </g>
    </g>
</svg>
