<?xml version="1.0" encoding="UTF-8" standalone="no"?>
<svg
   width="111"
   height="112"
   viewBox="0 0 111 112"
   version="1.1"
   xml:space="preserve"
   style="clip-rule:evenodd;fill-rule:evenodd;stroke-linejoin:round;stroke-miterlimit:2"
   id="svg17"
   sodipodi:docname="HQBuilder_HQUS_MagicStatueTrap.svg"
   inkscape:version="1.1.1 (3bf5ae0d25, 2021-09-20)"
   xmlns:inkscape="http://www.inkscape.org/namespaces/inkscape"
   xmlns:sodipodi="http://sodipodi.sourceforge.net/DTD/sodipodi-0.dtd"
   xmlns="http://www.w3.org/2000/svg"
   xmlns:svg="http://www.w3.org/2000/svg"><defs
   id="defs21"><clipPath
   clipPathUnits="userSpaceOnUse"
   id="clipPath255"><rect
     style="clip-rule:evenodd;fill:#691c2d;fill-rule:evenodd;stroke-width:0.344644;stroke-linejoin:round;stroke-miterlimit:2"
     id="rect257"
     width="38.255455"
     height="38.600101"
     x="34.859493"
     y="23.873997" /></clipPath>
        
        
    </defs><sodipodi:namedview
   id="namedview19"
   pagecolor="#ffffff"
   bordercolor="#666666"
   borderopacity="1.0"
   inkscape:pageshadow="2"
   inkscape:pageopacity="0.0"
   inkscape:pagecheckerboard="0"
   showgrid="false"
   inkscape:zoom="5.6568542"
   inkscape:cx="14.407301"
   inkscape:cy="73.008776"
   inkscape:window-width="1920"
   inkscape:window-height="1012"
   inkscape:window-x="-8"
   inkscape:window-y="-8"
   inkscape:window-maximized="1"
   inkscape:current-layer="svg17" />
    <g
   id="g33"><g
     id="rect312"
     transform="matrix(0.50909091,0,0,0.50909091,-104.97359,-245.50858)"
     style="fill:#ff7542;fill-opacity:1">
            <rect
   x="205.216"
   y="482.24899"
   width="220"
   height="220"
   style="fill:#ff7542;fill-opacity:1"
   id="rect2" />
        </g><g
     id="g9178"
     transform="matrix(0.50909091,0,0,0.50909091,-104.97359,-245.50858)"
     style="fill:#994263;fill-opacity:1">
            <g
   id="g5339"
   style="fill:#994263;fill-opacity:1">
                <g
   id="path3074"
   transform="matrix(5.69948,0,0,5.69948,7.52142,346.177)"
   style="fill:#994263;fill-opacity:1">
                    <path
   id="path3"
   d="m 40.985,48.336 c -0.847,-0.223 -1.263,-0.422 -2.004,-0.96 -1.182,-0.858 -1.849,-2.062 -1.872,-3.383 -0.019,-1.093 0.493,-2.05 1.473,-2.756 1.135,-0.818 2.226,-1.077 4.09,-0.973 2.361,0.132 3.641,-0.084 3.729,-0.63 0.024,-0.151 0.041,-0.158 0.094,-0.039 0.115,0.257 -0.041,0.88 -0.349,1.397 -0.166,0.278 -0.304,0.518 -0.306,0.533 -0.006,0.041 0.457,-0.165 1.157,-0.517 0.71,-0.356 1.131,-0.467 1.912,-0.502 0.298,-0.014 0.817,-0.063 1.154,-0.109 0.337,-0.047 0.701,-0.058 0.81,-0.025 0.173,0.052 0.139,0.084 -0.259,0.242 -0.598,0.238 -1.114,0.572 -1.319,0.854 -0.28,0.384 -0.213,0.441 0.2,0.169 0.484,-0.319 1.278,-0.585 2.115,-0.709 0.808,-0.119 0.863,-0.106 0.492,0.12 -0.309,0.188 -0.571,0.468 -0.513,0.547 0.017,0.024 0.202,0.011 0.411,-0.028 0.209,-0.04 0.693,-0.067 1.077,-0.062 0.879,0.014 1.525,-0.185 2.307,-0.711 0.352,-0.237 0.573,-0.342 0.519,-0.248 -0.052,0.091 -0.208,0.369 -0.347,0.619 -0.139,0.25 -0.37,0.57 -0.514,0.711 -0.144,0.142 -0.249,0.272 -0.235,0.289 0.015,0.018 0.293,0.04 0.618,0.049 0.781,0.023 1.597,-0.137 1.946,-0.383 0.381,-0.266 0.337,-0.097 -0.053,0.21 l -0.311,0.243 0.955,0.147 c 1.08,0.166 1.361,0.137 2.112,-0.214 0.53,-0.248 1.385,-0.477 1.449,-0.389 0.019,0.025 -0.237,0.18 -0.57,0.344 -0.958,0.473 -1.442,0.778 -1.398,0.882 0.023,0.054 0.236,0.107 0.489,0.122 0.41,0.023 0.428,0.032 0.213,0.106 -0.13,0.044 -0.512,0.102 -0.849,0.127 -0.682,0.052 -0.971,0.13 -0.992,0.268 -0.009,0.058 0.153,0.107 0.42,0.129 0.239,0.02 0.414,0.059 0.389,0.088 -0.134,0.157 -1.042,0.207 -2.07,0.114 -1.075,-0.097 -2.028,-0.048 -2.164,0.111 -0.072,0.085 1.182,0.523 2.123,0.742 0.608,0.142 1.238,0.18 1.998,0.12 0.161,-0.013 0.121,0.021 -0.136,0.116 -0.576,0.212 -1.639,0.276 -2.944,0.176 -1.589,-0.12 -2.563,-0.1 -3.519,0.073 -0.888,0.161 -2.703,0.674 -2.717,0.768 -0.033,0.214 2.81,0.788 3.608,0.728 l 0.362,-0.027 -0.244,0.133 c -0.856,0.465 -2.159,0.628 -3.884,0.485 -2.861,-0.237 -3.378,-0.265 -3.644,-0.2 -0.271,0.066 -0.256,0.076 0.485,0.347 0.42,0.153 0.783,0.285 0.806,0.292 0.094,0.03 -0.641,0.188 -1.927,0.415 -1.96,0.345 -3.196,0.359 -4.373,0.049 z m 4.929,-7.879 c -0.02,-0.006 -0.074,0.012 -0.192,0.066 -0.593,0.269 -1.12,0.349 -2.087,0.31 -0.512,-0.021 -0.878,-0.016 -1.392,0.019 -0.797,0.053 -1.629,0.165 -1.999,0.27 -0.852,0.24 -1.807,1.032 -2.16,1.791 -0.223,0.481 -0.312,1.087 -0.229,1.567 0.156,0.907 0.908,1.833 2.004,2.467 0.423,0.245 0.746,0.364 1.243,0.463 0.534,0.106 1.011,0.148 1.595,0.138 0.821,-0.014 2.617,-0.251 2.601,-0.343 -0.002,-0.015 -0.059,-0.073 -0.126,-0.128 -0.066,-0.055 -0.12,-0.113 -0.117,-0.13 0.011,-0.071 0.652,-0.142 1.276,-0.14 0.593,10e-4 1.152,0.029 2.526,0.132 2.293,0.173 3.172,0.215 3.335,0.154 0.045,-0.017 -0.134,-0.064 -0.658,-0.166 -0.49,-0.095 -0.941,-0.229 -1.441,-0.428 -0.454,-0.181 -0.881,-0.409 -0.984,-0.526 -0.091,-0.104 -0.067,-0.152 0.102,-0.206 0.201,-0.065 1.999,-0.464 2.378,-0.528 0.873,-0.148 2.058,-0.248 2.993,-0.252 0.203,-0.001 1.14,0.046 1.293,0.064 0.165,0.019 -0.147,-0.083 -0.977,-0.318 -1.678,-0.476 -1.833,-0.543 -1.462,-0.653 0.274,-0.082 0.596,-0.117 1.281,-0.134 0.397,-0.01 0.722,-0.047 0.901,-0.105 0.137,-0.045 0.14,-0.059 0.032,-0.116 -0.099,-0.052 -0.12,-0.109 -0.057,-0.16 0.067,-0.055 0.226,-0.1 0.594,-0.166 0.406,-0.074 0.476,-0.092 0.54,-0.144 0.046,-0.037 0.049,-0.049 0.023,-0.073 -0.018,-0.014 -0.058,-0.031 -0.093,-0.036 -0.063,-0.01 -0.128,-0.074 -0.122,-0.12 0.003,-0.013 0.044,-0.054 0.093,-0.089 0.119,-0.088 0.53,-0.142 1.021,-0.137 0.12,0.001 0.096,-0.007 -0.203,-0.065 -0.479,-0.094 -0.612,-0.093 -1.163,0.003 -0.612,0.107 -0.98,0.126 -1.429,0.075 -0.4,-0.045 -0.441,-0.064 -0.432,-0.195 l 0.005,-0.086 -0.272,0.092 c -0.379,0.131 -0.607,0.166 -0.889,0.138 -0.267,-0.026 -0.363,-0.068 -0.372,-0.166 -0.015,-0.155 0.32,-0.427 0.787,-0.641 0.147,-0.067 0.264,-0.127 0.259,-0.134 -0.013,-0.017 0.046,-0.023 -1.798,0.2 -0.867,0.105 -1.588,0.188 -1.603,0.185 -0.04,-0.006 -0.025,-0.056 0.049,-0.171 0.107,-0.169 0.098,-0.173 -0.222,-0.141 -0.39,0.039 -1.251,0.187 -1.528,0.264 -0.127,0.035 -0.245,0.063 -0.264,0.06 -0.049,-0.007 -0.073,-0.055 -0.086,-0.172 -0.025,-0.231 0.182,-0.586 0.46,-0.79 0.094,-0.068 0.232,-0.152 0.303,-0.186 0.072,-0.034 0.117,-0.069 0.102,-0.076 -0.038,-0.02 -0.546,0.039 -0.821,0.095 -0.502,0.101 -0.765,0.201 -1.453,0.558 -1.052,0.546 -1.466,0.595 -1.578,0.189 -0.03,-0.11 -0.031,-0.169 0,-0.367 0.041,-0.259 0.083,-0.366 0.295,-0.733 0.072,-0.125 0.132,-0.244 0.131,-0.266 -10e-4,-0.007 -0.006,-0.011 -0.012,-0.013 z m 15.03,3.273 c 0.207,-0.284 0.43,-0.352 1.35,-0.413 0.362,-0.023 0.885,-0.139 1.183,-0.262 0.592,-0.243 0.682,-0.143 0.229,0.253 -0.48,0.42 -1.023,0.572 -1.859,0.521 -0.416,-0.026 -0.828,-0.002 -0.92,0.053 -0.154,0.092 -0.153,0.082 0.017,-0.152 z m 4.821,-1.219 c 0.004,-0.023 0.243,-0.071 0.532,-0.108 0.289,-0.037 0.614,-0.118 0.723,-0.181 0.108,-0.063 0.038,0.012 -0.156,0.166 -0.301,0.24 -0.405,0.272 -0.728,0.222 -0.208,-0.031 -0.374,-0.076 -0.371,-0.099 z m -6.254,-1.317 c 0.131,-0.103 0.387,-0.211 0.569,-0.24 0.182,-0.03 0.462,-0.119 0.622,-0.197 l 0.291,-0.143 -0.356,0.332 c -0.365,0.341 -0.517,0.402 -1.054,0.422 l -0.31,0.012 z m 4.296,-0.45 c 0.181,-0.21 0.568,-0.286 1.064,-0.21 0.209,0.032 0.6,0.012 0.868,-0.045 l 0.487,-0.104 -0.352,0.244 c -0.511,0.355 -0.672,0.391 -1.482,0.335 z"
   style="fill:#994263;fill-rule:nonzero;fill-opacity:1" />
                </g>
                <path
   id="path3121"
   d="m 326.817,575.953 c -0.504,0.343 -1.691,1.199 -3.07,2.211 1.379,-1.012 2.564,-1.869 3.07,-2.211 z m 32.213,8.633 c -0.212,0.14 -0.532,0.34 -0.932,0.56 0.407,-0.223 0.721,-0.42 0.932,-0.56 z m -34.394,-4.422 c -0.519,0.84 -1.037,1.659 -1.516,2.385 0.48,-0.728 0.995,-1.542 1.516,-2.385 z m -21.059,-1.126 c -0.748,0.058 -1.58,0.171 -2.46,0.324 0.88,-0.152 1.712,-0.266 2.46,-0.324 z m 18.062,5.567 c -0.528,0.524 -0.872,0.872 -1.036,1.134 0.162,-0.263 0.501,-0.603 1.036,-1.134 z m -1.137,1.373 c -0.015,0.077 -0.005,0.141 0.034,0.197 -0.038,-0.056 -0.05,-0.12 -0.034,-0.197 z m 4.786,0.751 c -0.594,0.024 -1.185,0.027 -1.741,0.004 0.556,0.023 1.147,0.02 1.741,-0.004 z m -4.399,-0.356 c 0.245,0.075 0.608,0.143 1.084,0.214 -0.476,-0.071 -0.839,-0.138 -1.084,-0.214 z m -19.656,2.841 c -0.541,0.017 -2.622,0.449 -5.03,1.047 -5.472,1.359 -13.563,2.547 -15.401,2.265 l -1.155,-0.177 1.527,-1.937 c 2.092,-2.631 2.189,-3.801 0.165,-2.114 -2.184,1.822 -4.922,2.867 -8.478,3.232 -3.135,0.323 -12.502,-0.223 -11.914,-0.695 0.186,-0.149 2.961,-0.44 6.166,-0.65 5.92,-0.387 8.799,-1.199 10.441,-2.915 1.498,-1.566 1.164,-1.713 -1.882,-0.847 -2.387,0.678 -3.675,0.707 -7.318,0.153 -2.434,-0.369 -5.035,-1.007 -5.783,-1.43 -2.255,-1.278 -8.654,-2.547 -13.201,-2.602 -10.637,-0.129 -17.247,2.735 -20.743,8.979 -4.223,7.544 -0.943,15.142 8.585,19.884 3.529,1.757 6.286,2.179 13.604,2.057 3.312,-0.056 8.28,-0.439 11.033,-0.845 2.753,-0.405 6.686,-0.82 8.746,-0.924 4.341,-0.218 19.094,0.103 22.036,0.478 l 2.004,0.26 -1.925,-0.774 c -1.059,-0.421 -3.634,-1.614 -5.72,-2.666 -3.795,-1.914 -5.338,-3.055 -3.829,-2.823 2.697,0.414 21.532,-4.354 21.708,-5.495 0.043,-0.28 -0.872,-0.465 -2.227,-0.47 -3.559,-0.012 -3.203,-0.378 3.636,-3.719 3.384,-1.654 8.285,-4.902 6.825,-4.524 -0.293,0.076 -1.872,0.538 -3.513,1.041 -3.298,1.014 -13.423,2.226 -13.839,1.659 -0.145,-0.198 1.1,-1.45 2.758,-2.785 1.659,-1.336 2.936,-2.525 2.848,-2.644 -0.011,-0.015 -0.047,-0.022 -0.124,-0.019 z m 43.979,6.864 c 0.065,0.016 0.117,0.04 0.151,0.055 -0.031,-0.019 -0.067,-0.035 -0.151,-0.055 z m -3.012,1.116 c -0.455,0.086 -0.964,0.144 -1.528,0.18 0.565,-0.036 1.071,-0.093 1.528,-0.18 z m -18.212,-0.226 c -1.137,0.127 -1.957,0.33 -2.374,0.593 0.415,-0.262 1.245,-0.465 2.374,-0.593 z m -2.574,0.754 c -0.023,0.028 -0.018,0.058 0.001,0.096 -0.014,-0.034 -0.023,-0.07 -0.001,-0.096 z m 23.41,4.839 c 0.005,0.011 0.015,0.021 0.011,0.034 0.007,-0.018 0.002,-0.021 -0.011,-0.034 z m -0.084,0.131 c -0.1,0.07 -0.279,0.16 -0.536,0.269 0.264,-0.111 0.435,-0.198 0.536,-0.269 z m -5.236,1.559 c -0.826,0.117 -1.74,0.198 -2.752,0.248 1.013,-0.05 1.925,-0.13 2.752,-0.248 z m -18.175,-0.252 c -1.944,-0.072 -3.709,-0.1 -5.403,-0.064 1.69,-0.035 3.464,-0.009 5.403,0.064 z m -12.321,11.343 c -0.927,0.273 -1.932,0.524 -2.972,0.742 1.036,-0.218 2.047,-0.47 2.972,-0.742 z m -5.318,1.166 c -0.625,0.096 -1.265,0.183 -1.891,0.252 0.633,-0.069 1.259,-0.154 1.891,-0.252 z m -3.752,0.414 c -0.762,0.047 -1.675,0.071 -2.707,0.063 1.031,0.009 1.945,-0.016 2.707,-0.063 z m -2.707,0.063 c -1.032,-0.008 -2.179,-0.051 -3.447,-0.114 1.267,0.064 2.416,0.105 3.447,0.114 z m -24.401,0.356 c 1.648,0.527 3.179,1.07 3.938,1.386 -0.757,-0.314 -2.29,-0.859 -3.938,-1.386 z m -45.395,-2.74 c 0.611,0.537 1.249,1.056 1.917,1.555 -0.664,-0.497 -1.31,-1.02 -1.917,-1.555 z m 30.221,8.119 c -0.892,0.09 -1.783,0.163 -2.667,0.213 0.884,-0.049 1.775,-0.123 2.667,-0.213 z m -2.669,0.213 c -0.883,0.05 -1.764,0.082 -2.632,0.091 0.868,-0.009 1.749,-0.041 2.632,-0.091 z m -3.924,0.084 c -0.856,-0.01 -1.696,-0.034 -2.525,-0.084 0.829,0.05 1.669,0.073 2.525,0.084 z"
   style="fill:#994263;fill-rule:nonzero;fill-opacity:1" />
                <g
   id="path3074-1"
   transform="matrix(5.69948,0,0,5.69948,7.52142,346.177)"
   style="fill:#994263;fill-opacity:1">
                    <path
   id="path7"
   d="m 67.34,36.93 c 0.145,0.217 0.498,0.334 0.971,0.321 0.2,-0.005 0.563,0.059 0.807,0.144 l 0.444,0.154 -0.301,-0.27 c -0.437,-0.391 -0.583,-0.444 -1.348,-0.486 z m -3.967,-0.924 c 0.111,0.111 0.338,0.242 0.505,0.291 0.167,0.049 0.418,0.165 0.558,0.257 l 0.256,0.168 -0.294,-0.352 C 64.097,36.008 63.961,35.933 63.461,35.851 L 63.173,35.804 Z M 46.877,27.152 c -0.819,0.11 -1.231,0.247 -1.987,0.663 -1.207,0.665 -1.971,1.713 -2.148,2.947 -0.146,1.02 0.221,1.975 1.055,2.751 0.966,0.898 1.957,1.269 3.713,1.389 2.224,0.153 3.396,0.505 3.414,1.027 0.005,0.143 0.02,0.152 0.084,0.047 0.138,-0.227 0.066,-0.828 -0.163,-1.348 -0.122,-0.28 -0.223,-0.52 -0.224,-0.534 -0.001,-0.04 0.408,0.208 1.023,0.619 0.623,0.416 1.003,0.569 1.73,0.694 0.277,0.047 0.757,0.154 1.067,0.237 0.309,0.083 0.649,0.136 0.755,0.118 0.167,-0.028 0.14,-0.062 -0.214,-0.256 -0.532,-0.294 -0.976,-0.667 -1.135,-0.954 -0.217,-0.392 -0.147,-0.437 0.207,-0.135 0.416,0.355 1.128,0.697 1.896,0.911 0.742,0.207 0.795,0.201 0.475,-0.054 -0.267,-0.212 -0.48,-0.505 -0.416,-0.573 0.019,-0.02 0.19,0.014 0.381,0.076 0.191,0.061 0.641,0.144 1,0.183 0.824,0.091 1.406,0.353 2.075,0.936 0.302,0.263 0.497,0.387 0.457,0.293 -0.038,-0.091 -0.151,-0.37 -0.252,-0.62 -0.101,-0.25 -0.28,-0.577 -0.398,-0.726 -0.117,-0.149 -0.201,-0.283 -0.185,-0.297 0.015,-0.015 0.278,-0.003 0.583,0.026 0.734,0.07 1.478,0.316 1.776,0.586 0.325,0.295 0.304,0.131 -0.025,-0.202 l -0.262,-0.264 0.91,-0.025 c 1.03,-0.029 1.29,0.031 1.951,0.447 0.467,0.294 1.24,0.609 1.311,0.534 0.02,-0.021 -0.202,-0.197 -0.493,-0.389 -0.841,-0.554 -1.259,-0.897 -1.205,-0.989 0.027,-0.048 0.233,-0.072 0.471,-0.056 0.387,0.026 0.405,0.02 0.212,-0.075 -0.116,-0.056 -0.467,-0.155 -0.779,-0.218 -0.632,-0.128 -0.893,-0.235 -0.897,-0.367 -0.002,-0.055 0.156,-0.082 0.408,-0.072 0.226,0.01 0.394,-0.006 0.375,-0.036 -0.108,-0.163 -0.951,-0.316 -1.924,-0.35 -1.017,-0.035 -1.903,-0.192 -2.011,-0.357 -0.058,-0.088 1.167,-0.351 2.072,-0.446 0.586,-0.061 1.18,-0.023 1.884,0.123 0.149,0.03 0.116,-0.006 -0.113,-0.125 -0.514,-0.265 -1.502,-0.45 -2.734,-0.51 -1.501,-0.073 -2.41,-0.206 -3.284,-0.481 -0.812,-0.254 -2.45,-0.947 -2.452,-1.036 -0.006,-0.205 2.721,-0.408 3.46,-0.259 l 0.337,0.068 -0.214,-0.153 c -0.746,-0.535 -1.946,-0.84 -3.576,-0.909 -2.705,-0.113 -3.192,-0.147 -3.433,-0.239 -0.246,-0.094 -0.231,-0.102 0.494,-0.269 0.411,-0.094 0.766,-0.174 0.789,-0.179 0.091,-0.016 -0.578,-0.25 -1.755,-0.613 C 49.17,27.158 48.015,27 46.877,27.152 Z m 22.503,8.354 c 0,0.022 0.218,0.095 0.485,0.164 0.266,0.068 0.56,0.182 0.654,0.253 0.094,0.072 0.038,-0.006 -0.125,-0.173 -0.254,-0.26 -0.348,-0.302 -0.656,-0.293 -0.198,0.005 -0.359,0.027 -0.358,0.049 z M 50.566,35.101 c -0.02,0.004 -0.068,-0.02 -0.172,-0.084 -0.524,-0.321 -1.007,-0.458 -1.916,-0.534 -0.482,-0.041 -0.824,-0.088 -1.3,-0.181 -0.74,-0.143 -1.505,-0.346 -1.839,-0.487 -0.769,-0.325 -1.57,-1.177 -1.811,-1.929 -0.153,-0.476 -0.165,-1.053 -0.031,-1.493 0.252,-0.831 1.065,-1.609 2.165,-2.073 0.424,-0.18 0.74,-0.253 1.216,-0.287 0.512,-0.037 0.963,-0.021 1.509,0.057 0.767,0.11 2.419,0.542 2.393,0.626 -0.004,0.014 -0.064,0.062 -0.132,0.105 -0.069,0.044 -0.126,0.092 -0.125,0.108 0.002,0.068 0.593,0.209 1.177,0.281 0.555,0.068 1.081,0.107 2.379,0.171 2.165,0.108 2.993,0.172 3.138,0.248 0.04,0.021 -0.133,0.043 -0.635,0.077 -0.47,0.032 -0.907,0.104 -1.399,0.232 -0.445,0.116 -0.871,0.28 -0.982,0.378 -0.097,0.086 -0.08,0.133 0.071,0.204 0.181,0.084 1.816,0.668 2.163,0.773 0.8,0.241 1.897,0.473 2.772,0.586 0.19,0.025 1.071,0.091 1.216,0.092 0.157,0.001 -0.147,0.06 -0.95,0.183 -1.626,0.248 -1.779,0.293 -1.445,0.44 0.247,0.108 0.544,0.179 1.182,0.275 0.371,0.056 0.671,0.128 0.831,0.204 0.123,0.058 0.125,0.071 0.016,0.112 -0.098,0.037 -0.124,0.088 -0.071,0.143 0.056,0.059 0.2,0.12 0.536,0.225 0.371,0.117 0.435,0.142 0.489,0.198 0.038,0.04 0.04,0.052 0.012,0.07 -0.018,0.012 -0.058,0.023 -0.091,0.024 -0.06,0.002 -0.129,0.054 -0.128,0.097 10e-4,0.013 0.035,0.056 0.076,0.095 0.102,0.096 0.479,0.195 0.939,0.248 0.113,0.013 0.09,0.017 -0.197,0.037 -0.459,0.031 -0.583,0.015 -1.088,-0.14 -0.56,-0.171 -0.902,-0.232 -1.328,-0.237 -0.379,-0.005 -0.42,0.008 -0.427,0.132 L 58.774,34.158 58.53,34.04 c -0.339,-0.167 -0.548,-0.226 -0.816,-0.234 -0.253,-0.007 -0.347,0.022 -0.367,0.112 -0.032,0.143 0.249,0.437 0.661,0.692 0.13,0.08 0.232,0.15 0.226,0.156 -0.013,0.015 0.041,0.027 -1.658,-0.398 -0.799,-0.2 -1.464,-0.362 -1.478,-0.361 -0.038,0.001 -0.03,0.049 0.025,0.166 0.081,0.17 0.072,0.173 -0.224,0.106 -0.36,-0.083 -1.148,-0.322 -1.398,-0.426 -0.115,-0.048 -0.222,-0.088 -0.24,-0.088 -0.047,0.002 -0.075,0.044 -0.101,0.152 -0.05,0.212 0.101,0.569 0.338,0.792 0.08,0.076 0.199,0.17 0.262,0.21 0.063,0.04 0.101,0.078 0.086,0.084 -0.038,0.013 -0.506,-0.101 -0.757,-0.186 -0.458,-0.153 -0.692,-0.278 -1.294,-0.692 -0.92,-0.634 -1.302,-0.729 -1.454,-0.362 -0.041,0.1 -0.049,0.155 -0.043,0.343 0.008,0.248 0.035,0.353 0.19,0.721 0.053,0.125 0.094,0.244 0.091,0.264 -10e-4,0.007 -0.006,0.009 -0.013,0.01 z M 65.012,33.8 c 0.16,0.29 0.361,0.38 1.215,0.545 0.335,0.065 0.811,0.234 1.076,0.384 0.525,0.297 0.621,0.214 0.244,-0.21 -0.4,-0.449 -0.891,-0.655 -1.679,-0.705 C 65.476,33.789 65.093,33.719 65.014,33.657 64.88,33.552 64.88,33.561 65.012,33.8 Z"
   style="fill:#994263;fill-rule:nonzero;fill-opacity:1" />
                </g>
                <path
   id="path3121-2"
   d="m 349.525,553.746 c -0.431,-0.381 -1.441,-1.321 -2.612,-2.428 1.171,1.107 2.179,2.049 2.612,2.428 z m 31.152,-4.303 c -0.183,-0.155 -0.458,-0.38 -0.807,-0.632 0.354,0.256 0.625,0.477 0.807,0.632 z m -32.699,0.107 c -0.387,-0.846 -0.775,-1.673 -1.138,-2.409 0.363,0.738 0.75,1.559 1.138,2.409 z m -19.834,-1.414 c -0.694,-0.142 -1.459,-0.346 -2.264,-0.592 0.805,0.246 1.57,0.45 2.264,0.592 z m 17.551,-3.092 c -0.433,-0.553 -0.714,-0.918 -0.837,-1.182 0.121,0.265 0.399,0.623 0.837,1.182 z m -0.903,-1.418 c -0.006,-0.074 0.012,-0.133 0.055,-0.181 -0.043,0.049 -0.061,0.107 -0.055,0.181 z m 4.566,-0.142 c -0.553,-0.092 -1.105,-0.164 -1.628,-0.208 0.523,0.044 1.075,0.116 1.628,0.208 z m -4.158,-0.182 c 0.239,-0.042 0.586,-0.063 1.04,-0.074 -0.454,0.011 -0.802,0.032 -1.04,0.074 z m -18.058,-4.962 c -0.504,-0.08 -2.4,-0.728 -4.583,-1.569 -4.96,-1.913 -12.391,-3.973 -14.144,-3.924 l -1.101,0.03 1.202,1.991 c 1.649,2.707 1.602,3.813 -0.094,1.997 -1.83,-1.96 -4.269,-3.258 -7.553,-4.017 -2.895,-0.669 -11.723,-1.256 -11.228,-0.745 0.156,0.161 2.719,0.758 5.693,1.33 5.493,1.056 8.091,2.153 9.426,3.951 1.219,1.641 0.888,1.739 -1.859,0.572 -2.154,-0.915 -3.356,-1.092 -6.83,-1.001 -2.32,0.06 -4.829,0.352 -5.578,0.661 -2.259,0.931 -8.395,1.368 -12.656,0.887 -9.967,-1.126 -15.815,-4.58 -18.355,-10.832 -3.067,-7.554 0.893,-14.278 10.362,-17.598 3.509,-1.23 6.137,-1.302 12.97,-0.33 3.092,0.44 7.695,1.381 10.223,2.083 2.529,0.702 6.16,1.551 8.075,1.89 4.036,0.713 17.876,2.141 20.673,2.135 l 1.905,-0.008 -1.891,0.499 c -1.04,0.269 -3.59,1.084 -5.665,1.824 -3.775,1.346 -5.351,2.232 -3.913,2.192 2.573,-0.071 19.636,6.597 19.667,7.685 0.007,0.267 -0.87,0.333 -2.139,0.179 -3.331,-0.406 -3.041,-0.022 2.966,3.906 2.972,1.944 7.178,5.557 5.855,5.032 -0.265,-0.105 -1.688,-0.722 -3.164,-1.386 -2.967,-1.334 -12.298,-3.655 -12.754,-3.173 -0.159,0.168 0.859,1.485 2.254,2.929 1.395,1.444 2.451,2.706 2.355,2.807 -0.012,0.013 -0.047,0.015 -0.119,0.003 z m 41.952,-1.268 c 0.064,-0.007 0.115,-0.023 0.148,-0.034 -0.031,0.015 -0.067,0.025 -0.148,0.034 z m -2.687,-1.397 c -0.416,-0.134 -0.885,-0.247 -1.408,-0.348 0.524,0.101 0.991,0.213 1.408,0.348 z m -17.065,-1.923 c -1.049,-0.252 -1.793,-0.538 -2.152,-0.833 0.357,0.294 1.11,0.581 2.152,0.833 z m -2.32,-1.007 c -0.019,-0.029 -0.01,-0.056 0.012,-0.09 -0.018,0.031 -0.03,0.063 -0.012,0.09 z m 22.469,-1.784 c 0.006,-0.009 0.017,-0.018 0.014,-0.031 0.004,0.018 0,0.02 -0.014,0.031 z m -0.063,-0.133 c -0.085,-0.076 -0.243,-0.182 -0.47,-0.314 0.234,0.135 0.384,0.236 0.47,0.314 z m -4.716,-2.072 c -0.759,-0.206 -1.605,-0.389 -2.546,-0.554 0.942,0.165 1.786,0.347 2.546,0.554 z m -17.035,-1.894 c -1.827,-0.16 -3.481,-0.341 -5.062,-0.574 1.577,0.231 3.24,0.415 5.062,0.574 z m -10.198,-12.057 c -0.836,-0.364 -1.746,-0.716 -2.693,-1.042 0.943,0.325 1.86,0.679 2.693,1.042 z m -4.839,-1.714 c -0.573,-0.163 -1.161,-0.32 -1.739,-0.458 0.584,0.14 1.159,0.293 1.739,0.458 z m -3.461,-0.827 c -0.708,-0.133 -1.56,-0.263 -2.526,-0.376 0.965,0.113 1.818,0.243 2.526,0.376 z m -2.526,-0.376 c -0.966,-0.113 -2.045,-0.207 -3.238,-0.297 1.192,0.089 2.272,0.184 3.238,0.297 z m -22.788,-3.192 c 1.603,-0.301 3.1,-0.629 3.846,-0.836 -0.745,0.205 -2.243,0.535 -3.846,0.836 z m -42.793,-2.757 c 0.634,-0.431 1.292,-0.842 1.975,-1.231 -0.679,0.388 -1.345,0.802 -1.975,1.231 z m 29.226,-4.054 c -0.824,-0.19 -1.649,-0.362 -2.47,-0.512 0.821,0.149 1.646,0.322 2.47,0.512 z m -2.472,-0.513 c -0.821,-0.15 -1.641,-0.283 -2.452,-0.393 0.811,0.11 1.631,0.243 2.452,0.393 z m -3.661,-0.538 c -0.803,-0.091 -1.591,-0.167 -2.373,-0.217 0.782,0.05 1.57,0.126 2.373,0.217 z"
   style="fill:#994263;fill-rule:nonzero;fill-opacity:1" />
                <g
   id="path3074-8"
   transform="matrix(5.69948,0,0,5.69948,7.52142,346.177)"
   style="fill:#994263;fill-opacity:1">
                    <path
   id="path11"
   d="m 49.284,60.286 c -0.827,0.029 -1.257,-0.038 -2.073,-0.322 -1.304,-0.454 -2.234,-1.362 -2.615,-2.55 -0.315,-0.983 -0.113,-1.988 0.58,-2.893 0.804,-1.049 1.72,-1.581 3.435,-1.995 2.17,-0.523 3.269,-1.068 3.199,-1.586 -0.019,-0.142 -0.006,-0.153 0.075,-0.061 0.174,0.202 0.203,0.808 0.065,1.359 -0.074,0.297 -0.134,0.551 -0.132,0.565 0.006,0.04 0.368,-0.274 0.906,-0.783 0.546,-0.515 0.896,-0.73 1.592,-0.975 0.266,-0.093 0.722,-0.279 1.014,-0.413 0.292,-0.133 0.619,-0.243 0.726,-0.243 0.17,0 0.149,0.038 -0.168,0.29 -0.476,0.378 -0.852,0.821 -0.961,1.131 -0.148,0.424 -0.072,0.457 0.227,0.099 0.351,-0.421 0.997,-0.878 1.72,-1.218 0.698,-0.328 0.752,-0.331 0.478,-0.025 -0.229,0.254 -0.39,0.579 -0.315,0.635 0.022,0.016 0.185,-0.046 0.364,-0.139 0.178,-0.092 0.608,-0.249 0.956,-0.348 0.799,-0.228 1.33,-0.584 1.893,-1.272 0.254,-0.31 0.425,-0.466 0.402,-0.366 -0.022,0.096 -0.088,0.391 -0.145,0.655 -0.058,0.263 -0.18,0.616 -0.271,0.783 -0.092,0.167 -0.152,0.313 -0.134,0.325 0.018,0.012 0.276,-0.044 0.572,-0.124 0.713,-0.192 1.407,-0.56 1.656,-0.877 0.271,-0.345 0.278,-0.179 0.009,0.204 l -0.215,0.305 0.903,-0.127 c 1.022,-0.145 1.269,-0.247 1.852,-0.769 0.412,-0.369 1.122,-0.809 1.205,-0.747 0.024,0.018 -0.166,0.228 -0.422,0.467 -0.737,0.688 -1.092,1.096 -1.024,1.178 0.035,0.043 0.243,0.033 0.475,-0.023 0.378,-0.091 0.396,-0.088 0.221,0.038 -0.105,0.075 -0.434,0.231 -0.732,0.346 -0.603,0.233 -0.843,0.382 -0.824,0.513 0.007,0.054 0.167,0.055 0.414,0.002 0.222,-0.047 0.391,-0.059 0.377,-0.027 -0.079,0.179 -0.886,0.472 -1.841,0.668 -0.999,0.205 -1.848,0.509 -1.927,0.69 -0.042,0.096 1.212,0.151 2.122,0.093 0.588,-0.038 1.168,-0.175 1.839,-0.437 0.142,-0.055 0.116,-0.014 -0.091,0.142 -0.463,0.349 -1.407,0.696 -2.614,0.962 -1.47,0.324 -2.345,0.607 -3.163,1.025 -0.759,0.387 -2.26,1.345 -2.248,1.435 0.029,0.202 2.756,-0.054 3.461,-0.325 l 0.321,-0.123 -0.185,0.186 c -0.647,0.654 -1.781,1.156 -3.38,1.497 -2.652,0.565 -3.127,0.681 -3.35,0.812 -0.227,0.134 -0.211,0.139 0.533,0.182 0.422,0.024 0.786,0.044 0.809,0.045 0.093,0.001 -0.528,0.344 -1.63,0.899 -1.678,0.846 -2.792,1.196 -3.941,1.237 z m 2.311,-8.468 c -0.02,0 -0.064,0.031 -0.156,0.111 -0.463,0.406 -0.918,0.621 -1.803,0.849 -0.469,0.121 -0.798,0.225 -1.253,0.396 -0.707,0.266 -1.429,0.594 -1.735,0.789 -0.705,0.45 -1.353,1.426 -1.465,2.209 -0.071,0.496 0.014,1.068 0.22,1.479 0.388,0.778 1.321,1.411 2.485,1.685 0.449,0.106 0.773,0.126 1.249,0.08 0.512,-0.049 0.955,-0.141 1.48,-0.309 0.739,-0.237 2.299,-0.941 2.26,-1.019 -0.007,-0.014 -0.074,-0.051 -0.149,-0.082 -0.076,-0.032 -0.14,-0.07 -0.142,-0.086 -0.009,-0.067 0.551,-0.306 1.116,-0.474 0.536,-0.16 1.05,-0.287 2.32,-0.568 2.121,-0.47 2.927,-0.671 3.058,-0.77 0.036,-0.028 -0.139,-0.021 -0.64,0.029 -0.469,0.048 -0.914,0.05 -1.42,0.006 -0.46,-0.04 -0.908,-0.13 -1.033,-0.208 -0.111,-0.069 -0.102,-0.119 0.036,-0.214 0.164,-0.114 1.681,-0.964 2.006,-1.126 0.75,-0.372 1.794,-0.785 2.639,-1.043 0.183,-0.056 1.042,-0.269 1.186,-0.295 0.155,-0.027 -0.155,-0.035 -0.97,-0.021 -1.647,0.027 -1.806,0.009 -1.5,-0.192 0.225,-0.149 0.507,-0.268 1.121,-0.47 0.357,-0.117 0.641,-0.239 0.787,-0.341 0.111,-0.078 0.111,-0.091 -0.003,-0.113 -0.103,-0.02 -0.137,-0.066 -0.095,-0.129 0.046,-0.068 0.178,-0.152 0.492,-0.313 0.347,-0.177 0.406,-0.213 0.449,-0.277 0.032,-0.046 0.031,-0.058 0.001,-0.071 -0.02,-0.009 -0.061,-0.013 -0.094,-0.008 -0.06,0.008 -0.136,-0.032 -0.142,-0.075 -0.002,-0.013 0.025,-0.061 0.059,-0.106 0.084,-0.112 0.44,-0.273 0.886,-0.403 0.109,-0.031 0.086,-0.032 -0.201,-0.003 -0.459,0.046 -0.579,0.083 -1.051,0.32 -0.525,0.264 -0.852,0.38 -1.272,0.457 -0.374,0.068 -0.416,0.063 -0.444,-0.059 l -0.019,-0.079 -0.22,0.158 c -0.308,0.221 -0.504,0.315 -0.767,0.367 -0.249,0.049 -0.347,0.037 -0.382,-0.049 -0.055,-0.136 0.173,-0.474 0.538,-0.794 0.114,-0.101 0.204,-0.187 0.197,-0.192 -0.016,-0.012 0.035,-0.033 -1.572,0.671 -0.754,0.331 -1.384,0.602 -1.398,0.604 -0.038,0.005 -0.038,-0.044 -0.003,-0.168 0.052,-0.182 0.042,-0.183 -0.239,-0.067 -0.342,0.142 -1.08,0.51 -1.31,0.655 -0.105,0.066 -0.204,0.124 -0.222,0.126 -0.047,0.007 -0.081,-0.03 -0.125,-0.132 -0.085,-0.202 0.005,-0.58 0.201,-0.84 0.067,-0.087 0.168,-0.2 0.224,-0.25 0.055,-0.051 0.086,-0.095 0.071,-0.097 -0.04,-0.008 -0.483,0.184 -0.717,0.309 -0.426,0.228 -0.637,0.391 -1.162,0.901 -0.802,0.78 -1.164,0.938 -1.375,0.601 -0.058,-0.092 -0.074,-0.145 -0.1,-0.332 -0.034,-0.246 -0.025,-0.354 0.067,-0.743 0.031,-0.133 0.052,-0.257 0.045,-0.276 -0.002,-0.007 -0.007,-0.009 -0.014,-0.009 z m 14.483,-1.136 c 0.11,-0.313 0.293,-0.436 1.109,-0.741 0.321,-0.12 0.762,-0.368 0.998,-0.56 0.469,-0.381 0.578,-0.315 0.276,0.166 -0.32,0.511 -0.769,0.797 -1.539,0.978 -0.383,0.09 -0.75,0.224 -0.818,0.299 -0.114,0.126 -0.116,0.116 -0.026,-0.142 z m -1.987,-1.903 c 0.09,-0.129 0.292,-0.296 0.449,-0.372 0.157,-0.077 0.386,-0.233 0.509,-0.348 l 0.224,-0.208 -0.231,0.397 c -0.237,0.407 -0.358,0.504 -0.838,0.669 l -0.277,0.095 z m 6.015,-0.513 c -0.003,-0.022 0.2,-0.131 0.452,-0.243 0.251,-0.112 0.523,-0.274 0.604,-0.36 0.08,-0.087 0.038,0 -0.095,0.192 -0.208,0.299 -0.293,0.356 -0.599,0.4 -0.196,0.027 -0.359,0.032 -0.362,0.011 z m -2.252,-1.064 c 0.106,-0.239 0.435,-0.414 0.905,-0.48 0.198,-0.028 0.545,-0.153 0.772,-0.278 l 0.412,-0.226 -0.251,0.316 c -0.366,0.46 -0.502,0.537 -1.25,0.707 z"
   style="fill:#994263;fill-rule:nonzero;fill-opacity:1" />
                </g>
                <path
   id="path3121-7"
   d="m 353.46,625.081 c -0.362,0.448 -1.202,1.545 -2.173,2.835 0.971,-1.29 1.809,-2.388 2.173,-2.835 z m 31.484,-0.97 c -0.154,0.184 -0.388,0.452 -0.69,0.76 0.306,-0.313 0.537,-0.576 0.69,-0.76 z m -32.309,5.372 c -0.24,0.901 -0.485,1.783 -0.72,2.57 0.235,-0.789 0.48,-1.665 0.72,-2.57 z m -19.35,4.72 c -0.661,0.257 -1.383,0.586 -2.136,0.964 0.754,-0.378 1.475,-0.707 2.136,-0.964 z m 17.851,0.113 c -0.335,0.618 -0.552,1.026 -0.628,1.307 0.075,-0.282 0.289,-0.681 0.628,-1.307 z m -0.654,1.552 c 0.007,0.073 0.034,0.128 0.084,0.169 -0.05,-0.041 -0.078,-0.095 -0.084,-0.169 z m 4.532,-0.625 c -0.53,0.183 -1.064,0.347 -1.573,0.478 0.509,-0.131 1.043,-0.295 1.573,-0.478 z m -4.075,0.876 c 0.242,10e-4 0.589,-0.036 1.039,-0.101 -0.45,0.065 -0.797,0.103 -1.039,0.101 z m -17.001,7.925 c -0.485,0.164 -2.249,1.121 -4.263,2.318 -4.579,2.72 -11.572,5.999 -13.311,6.245 l -1.092,0.154 0.853,-2.167 c 1.175,-2.95 0.943,-4.034 -0.427,-1.957 -1.479,2.242 -3.67,3.934 -6.786,5.233 -2.747,1.146 -11.367,3.204 -10.963,2.617 0.127,-0.185 2.557,-1.205 5.398,-2.267 5.249,-1.964 7.631,-3.482 8.648,-5.481 0.928,-1.825 0.585,-1.867 -1.933,-0.254 -1.973,1.264 -3.131,1.641 -6.576,2.133 -2.302,0.329 -4.828,0.461 -5.619,0.282 -2.387,-0.541 -8.52,0.055 -12.647,1.244 -9.654,2.782 -14.851,7.173 -16.311,13.772 -1.764,7.974 3.273,13.95 13.181,15.642 3.67,0.627 6.278,0.258 12.863,-1.846 2.98,-0.953 7.367,-2.653 9.747,-3.77 2.379,-1.117 5.823,-2.564 7.657,-3.219 3.866,-1.38 17.295,-5.11 20.058,-5.572 l 1.883,-0.311 -1.952,-0.176 c -1.072,-0.092 -3.726,-0.469 -5.899,-0.852 -3.954,-0.697 -5.659,-1.308 -4.232,-1.51 2.553,-0.36 18.286,-9.804 18.134,-10.884 -0.038,-0.265 -0.915,-0.183 -2.142,0.182 -3.222,0.959 -2.999,0.531 2.275,-4.355 2.609,-2.417 6.157,-6.69 4.939,-5.95 -0.244,0.149 -1.547,0.996 -2.893,1.899 -2.706,1.815 -11.533,5.67 -12.063,5.271 -0.185,-0.14 0.599,-1.611 1.735,-3.27 1.136,-1.66 1.967,-3.083 1.856,-3.167 -0.014,-0.011 -0.049,-0.007 -0.119,0.016 z m 41.641,-5.776 c 0.064,-0.003 0.117,0.004 0.151,0.009 -0.032,-0.009 -0.07,-0.013 -0.151,-0.009 z m -2.42,1.83 c -0.388,0.202 -0.833,0.393 -1.332,0.58 0.501,-0.188 0.943,-0.377 1.332,-0.58 z m -16.53,4.758 c -0.994,0.424 -1.681,0.832 -1.985,1.183 0.303,-0.35 0.999,-0.759 1.985,-1.183 z m -2.123,1.383 c -0.013,0.032 0,0.058 0.028,0.087 -0.023,-0.027 -0.04,-0.058 -0.028,-0.087 z m 22.489,-2.002 c 0.007,0.008 0.02,0.015 0.019,0.027 10e-4,-0.017 -0.004,-0.019 -0.019,-0.027 z m -0.041,0.141 c -0.071,0.09 -0.209,0.221 -0.411,0.389 0.208,-0.173 0.339,-0.298 0.411,-0.389 z m -4.31,2.836 c -0.715,0.332 -1.519,0.654 -2.421,0.974 0.903,-0.321 1.705,-0.642 2.421,-0.974 z m -16.505,4.725 c -1.777,0.464 -3.381,0.92 -4.902,1.414 1.518,-0.492 3.13,-0.951 4.902,-1.414 z m -8.051,13.615 c -0.764,0.5 -1.604,1 -2.485,1.48 0.877,-0.479 1.723,-0.982 2.485,-1.48 z m -4.491,2.503 c -0.539,0.258 -1.094,0.511 -1.641,0.744 0.553,-0.236 1.096,-0.483 1.641,-0.744 z m -3.28,1.397 c -0.676,0.251 -1.496,0.521 -2.431,0.795 0.934,-0.273 1.755,-0.544 2.431,-0.795 z m -2.431,0.795 c -0.935,0.273 -1.985,0.547 -3.148,0.836 1.162,-0.288 2.213,-0.563 3.148,-0.836 z m -21.969,6.97 c 1.633,0.028 3.167,0.102 3.938,0.181 -0.77,-0.078 -2.305,-0.153 -3.938,-0.181 z m -41.798,9.892 c 0.698,0.32 1.417,0.615 2.157,0.884 -0.736,-0.268 -1.462,-0.566 -2.157,-0.884 z m 29.541,-0.893 c -0.782,0.325 -1.568,0.634 -2.353,0.92 0.785,-0.286 1.571,-0.595 2.353,-0.92 z m -2.355,0.92 c -0.785,0.286 -1.573,0.555 -2.355,0.8 0.782,-0.245 1.57,-0.514 2.355,-0.8 z m -3.525,1.146 c -0.778,0.223 -1.544,0.431 -2.307,0.611 0.763,-0.18 1.529,-0.388 2.307,-0.611 z"
   style="fill:#994263;fill-rule:nonzero;fill-opacity:1" />
            </g>
        </g></g>
</svg>
