<?xml version="1.0" encoding="UTF-8" standalone="no"?>
<!DOCTYPE svg PUBLIC "-//W3C//DTD SVG 1.1//EN" "http://www.w3.org/Graphics/SVG/1.1/DTD/svg11.dtd">
<svg width="100%" height="100%" viewBox="0 0 649 697" version="1.1" xmlns="http://www.w3.org/2000/svg" xmlns:xlink="http://www.w3.org/1999/xlink" xml:space="preserve" xmlns:serif="http://www.serif.com/" style="fill-rule:evenodd;clip-rule:evenodd;stroke-linejoin:round;stroke-miterlimit:2;">
    <g transform="matrix(1,0,0,1,-36.875,-15.4458)">
        <g>
            <path d="M352.8,710.9C350.1,709.9 348,705.8 348,701.6C348,699.5 347.3,699.3 333.8,698.2C271.6,693.1 211.5,669.4 160.6,630.1C140.3,614.5 111.8,584.7 97.7,564.4C93.5,558.3 92.1,557 90.5,557.5C82.4,560 77.6,558.6 74.7,553C73.2,550.1 73,547.7 73.3,539.2C73.6,533.5 74,528.6 74.3,528.3C74.6,528 72.6,523.3 69.9,517.8C53.2,484.5 41.8,444.6 38,405.5C36.5,391.4 36.5,358.6 38,344.5C47.7,246.7 100.1,159.3 181.5,105.1C197,94.8 222.3,81.2 236.5,75.5C243.3,72.8 244.9,71.6 250,65.1C259.1,53.7 281.4,35.3 290.7,31.6C293.4,30.5 296.6,28.9 298,28C300.7,26.1 322.3,19.1 327,18.5C328.6,18.3 331.8,17.6 334.2,16.9C340.7,15.1 372,14.9 380,16.7C383.6,17.5 387.6,18.3 389,18.5C395,19.5 416.9,27.4 421,30.1C421.8,30.6 423.6,31.6 425,32.3C432.2,35.9 445,45.5 451,51.9C452.9,54 455,55.9 455.5,56.1C456.1,56.3 458.8,59.2 461.7,62.4C466.5,67.8 467.7,68.6 477.2,72.1C482.9,74.2 495.7,80 505.6,85C605.6,134.6 672.9,232.5 684,344.5C684.6,350.6 685.1,364.3 685.1,375C685.1,385.7 684.6,399.5 684,405.5C680.1,445.3 668.8,484.7 651.4,519.1L645.7,530.5L645.9,540.7C646.1,553.2 644.9,556.4 639.1,558.1C636.3,558.9 634.3,559 632.2,558.2C629.3,557.2 629.1,557.3 625.7,562.5C615.3,578 589.8,606.2 573.9,619.7C569.4,623.5 565.2,628 563.9,630.6C561.6,634.8 558.3,637 554.2,637C553.3,637 546.5,641.1 538.9,646C505.8,667.8 468.6,683.5 430,692C424.6,693.2 419.2,695 417.5,696.3C415.2,698 413.4,698.4 409.5,698.2C401.4,697.8 393.4,697.9 379,698.7L365.5,699.5L365.3,703.4C365.1,709.8 359.2,713.3 352.8,710.9ZM413.6,675.9C416,662.1 417.5,657.9 422.3,653C424.7,650.5 427.2,646.9 427.9,645C429.1,641.3 428.4,630.4 426.9,629.4C426.4,629.1 426,627.3 426,625.4C426,622.1 426.1,622 429.9,622C434,622 440,625.8 440,628.5C440,629.2 440.4,630 441,630.2C441.5,630.4 442.3,632.8 442.6,635.5C443,638.3 443.7,640.7 444.1,641C444.9,641.6 445.8,654.4 445.9,666.5C446,674.9 447.8,672.4 450.1,660.8C451.7,652.9 451.9,646.2 452,617C452,598 451.7,571.4 451.3,557.8C450.7,534.2 450.6,533.2 448.8,534.3C446.9,535.6 446.3,538 448,538C448.6,538 449,539.6 449,541.6C449,545.1 449,545.2 444.9,544.9C442.7,544.7 440.6,545.1 440.2,545.7C439.8,546.3 436.8,547.1 433.5,547.5C423.1,548.6 423.4,548.4 423.8,553L424.2,557L419.6,557C415.4,557 415,557.2 415,559.5C415,561.7 414.6,562 411.5,562C409.1,562 408,561.5 408,560.5C408,559.5 407,559 405.2,559C403.6,559 401.8,558.2 401,557C400.2,555.8 398.4,555 396.8,555C394.7,555 394,555.5 394,557C394,558.1 393.6,559 393,559C392.5,559 392,560.4 392,562.1C392,565.4 390.1,568 387.6,568C386.7,568 386,568.8 386,570C386,571.3 386.7,572 388,572C389.3,572 390,572.7 390,574C390,575.1 390.4,576 390.9,576C392.2,576 394,581.7 394,585.6C394,587.5 394.4,589 394.9,589C395.7,589 396.8,599.4 397.6,615.5C397.8,620.1 397.3,628.1 396.4,634.3L394.7,645.2L399.2,649.8C408.1,659.1 410,664 410,677.6C410,688.5 411.5,687.8 413.6,675.9ZM331.1,656.7C331.7,651.3 332,646.7 331.7,646.4C331.4,646.1 330.9,648.5 330.5,651.7C330.2,654.9 329.2,660.8 328.4,664.9C327.6,668.9 327,673.4 327.1,674.9C327.2,679.2 329.8,667.5 331.1,656.7ZM285,655C285.7,653.1 287.1,650.3 288.1,648.9C290.1,646 296.5,643 300.4,643C304.2,643 306.6,638.9 307.8,630.8C308.4,626.8 309.4,623.4 310,623.2C310.5,623 311,622.2 311,621.4C311,620.6 311.5,620 312,620C312.6,620 313,618.4 313,616.5C313,613.2 313.2,613 316.3,612.9C318.6,612.8 318.9,612.6 317.3,612.3C315.4,611.9 315,611.2 315,608.4C315,605.7 315.4,605 317,605C318.5,605 319,604.3 319,602.5C319,600.4 318.5,600 316,600C313.2,600 313,599.7 313,596.5C313,593.7 313.4,593 315,593C316.5,593 317,592.3 317,590.5C317,588.5 317.5,588 319.5,588C321.5,588 322,587.4 322.4,584.8C322.7,583 323.2,579.9 323.5,578C325.3,566.3 325.3,566 323.6,566C322.4,566 322,565.1 322,562.5C322,559.4 321.7,559 319.5,559C317.3,559 317,558.6 317,555.5C317,553.5 317.5,552 318.2,552C318.8,552 319.1,551.7 318.7,551.4C317.9,550.6 314,552 314,553.1C314,555.1 309,559 306.5,559C304.9,559 304,559.6 304,560.5C304,561.5 302.9,562 300.5,562C298.1,562 297,561.5 297,560.5C297,559.6 296.1,559 294.5,559C292.3,559 292,558.6 292,555.5C292,552.3 291.8,552 289,552C286.3,552 286,551.7 286,549C286,547.4 285.6,546 285,546C284.5,546 284,547.4 284,549C284,551.8 283.7,552 280.5,552C278.2,552 277,551.5 277,550.6C277,549 274.9,548 271.4,548C269.3,548 269,547.5 269,544.5C269,541.5 268.7,541 266.6,541C264.5,541 264.1,540.5 263.7,537.3C263.5,535.2 263.3,552.1 263.2,574.9C263,604.7 263.3,617.4 264.2,620.3C264.9,622.5 267.3,626.2 269.7,628.6C272,631 274.6,634.2 275.4,635.8C277.5,639.8 279.7,649.4 280.4,657.5C280.8,661.4 281.4,666.3 281.7,668.5C282.4,672.3 282.5,672.1 283.1,665.5C283.5,661.7 284.3,656.9 285,655ZM348.3,634.8C347.7,634.1 347,631.8 346.6,629.8C346.2,627.7 345.5,626 344.9,626C344.4,626 344.2,627.2 344.6,628.8C345.3,631.7 347.7,636 348.6,636C349,636 348.8,635.4 348.3,634.8ZM370,606.3L370,583L368,585C366.3,586.7 364.7,587 356.2,587C349.9,587 346,586.6 345.2,585.8C344.3,584.9 344,587.4 344,597.3C344,604.3 344.3,610 344.8,610C345.2,610 345.7,605.4 345.8,599.7C346,594.1 346.4,589.3 346.6,589C347.5,588.2 360.9,587.8 364.5,588.4L368,589.1L368,610.8C368,625.2 368.4,632 369,631C369.6,630.1 370,619.5 370,606.3ZM509.2,615.8C508.8,604 510.2,592.6 512.1,591.4C512.6,591.1 513,590 513,589C513,588 515.2,584.8 517.8,581.8C523.8,575.2 525.3,571.9 524,568.4C523.4,567 523,563.2 523,559.9L523,554L526.3,554C528.9,554 529.9,554.6 531.5,557.2C533.8,561.1 537.5,565 539,565C539.5,565 540,565.5 540,566C540,566.6 540.6,567 541.3,567C543.6,567 547,576.7 547,583.6L547,590L550.5,590C553.8,590 554,590.2 554,593.5C554,596.3 553.6,597 552,597C549.3,597 549.3,601.8 552,606.2C553.5,608.6 554,611.4 554.1,616.5L554.1,623.5L555.9,619.5C561.1,607.7 563,588.4 560.6,572.5C557.6,553.1 549,520.1 542.9,504.6C541.9,501.9 541,499.3 541,498.9C541,497.2 536.8,489 535.9,489C535.4,489 535,489.9 535,491C535,492.1 535.7,493 536.5,493C537.5,493 538,494.1 538,496.5C538,499.7 537.8,500 535,500C532.2,500 532,500.3 532,503.5C532,506.8 531.8,507 528.5,507C525.2,507 525,506.8 524.8,503.3L524.7,499.5L524.3,503.3C523.9,506.3 523.5,507 521.7,507C520.4,507 518.8,507.9 518,509C517.2,510.1 515.8,511 514.8,511C513.5,511 513,511.8 513,513.5C513,515.3 512.5,516 511,516C509.8,516 509,516.7 509,517.6C509,520.3 506.2,522.2 502.6,521.8L499.3,521.4L499.8,525.7C500.2,529.7 500.1,530 497.9,530C492.8,530 488,528.7 488,527.4C488,526.6 487.3,526 486.5,526C485.5,526 485,527 485,528.9C485,531.7 484.7,531.9 480.3,532.6C475.2,533.3 474,534.2 474,537.6C474,538.8 473.3,540 472.5,540.4C471.3,540.8 471,542.7 471,548.5C471,556.1 470.3,558 467,559.3C465.8,559.7 465.9,559.9 467.3,559.9C469.5,560 469.7,565.5 467.5,567.6C466.7,568.5 466,570.7 466,572.6C466,575 466.5,576 467.5,576C468.5,576 469,577 469,579.4C469,581.3 468.6,583.1 468.2,583.4C467.8,583.7 467.6,585.5 467.8,587.4C468.1,590.1 468.7,591 470.1,591C471.8,591 472,590.2 472,584.8C472,575.8 474.3,568.3 478.1,564.4C481.2,561.2 481.8,561 488.3,561C496.4,561 498.7,562 500.5,566.4C502.4,570.8 503.7,590 502.1,590C500.6,590 500.7,593.7 502.2,594.2C503.1,594.5 503.8,600 504,608.8C504,610.1 504.6,611 505.6,611C506.9,611 507.1,611.8 506.7,615.3C506.3,619.3 507.8,628 509,628C509.3,628 509.3,622.5 509.2,615.8ZM159.8,605.7C161.5,598.4 161.4,594 159.5,594C158.5,594 158,592.9 158,590.5C158,588.6 158.5,587 159,587C159.6,587 160,586 160,584.9C160,583.7 160.7,582.2 161.6,581.5C162.5,580.9 163.4,578.3 163.8,575.4C164.1,572.7 164.8,570.1 165.5,569.5C166.1,569 167.3,566.6 168,564.3C168.7,561.9 169.6,560 170.1,560C170.5,560 171.1,558.9 171.4,557.5C171.9,555.4 172.6,555 175.5,555C180.7,555 185.6,549.7 185.2,544.7C184.9,541.2 185,541 187.9,541C190.6,541 190.9,540.6 192,535.8C194.9,523.2 194.9,523 192.8,523C191.2,523 190.9,522.4 191,519.3C191.3,512.6 191.1,511.9 188,510.9C185.5,510 185,509.3 185,506.4C185,503.4 184.7,503 182.5,503C180.7,503 180,502.5 180,501.1C180,500 179.5,499 179,498.8C178.4,498.6 177.6,496.5 177.1,494C176.5,490.3 176.1,489.9 175.5,491.5C167.5,511.2 166.5,513.9 161.9,528.7C153.1,557 149.9,577.5 151.9,591.6C153.2,600.4 156.5,611 157.8,611C158.2,611 159.1,608.6 159.8,605.7ZM214.6,587.5C215.2,571.7 216.9,564.4 220.9,560.6C223.1,558.5 224.6,558 230.5,557.8L237.4,557.5L239.7,561.5C242,565.3 242.1,566.3 241.8,580.7C241.6,590.4 241.8,595.1 242.4,593.7C242.9,592.5 243.4,587.7 243.5,583C243.9,563.6 243.6,565 247.1,565C250.1,565 250.2,564.9 249.5,561.8C249.1,560 248.7,556.6 248.6,554.3C248.5,550.9 248.1,550 246.8,550C245.8,550 245,549.3 245,548.4C245,547.5 244.1,546.6 243,546.3C241.7,546 241,544.9 241,543.5C241,539 239.7,534.8 238.1,534.2C237.2,533.9 235.8,532.8 234.9,531.8C234,530.8 232,530 230.6,530C227.8,530 225,528 225,526.1C225,525.5 224.6,525 224,525C223.5,525 223,526.6 223,528.5C223,531.8 222.8,532 219.5,532C216,532 216,532 216,527.5C216,523.9 215.4,522.3 213.5,520.4C211.8,518.7 210.9,518.3 210.6,519.2C203.1,544.6 200.6,576.3 204.8,593.6C205.9,598 207.8,603.6 209.1,606.1L211.4,610.5L212.7,606C213.5,603.5 214.3,595.2 214.6,587.5ZM474.5,598.9C473.8,596.5 473.1,595.3 473.1,596.3C473,597.3 472.2,598 471,598C468.7,598 468.4,600.3 470.1,604.7C471.7,608.9 473.3,609.4 474.7,606.1C475.6,603.9 475.6,602.4 474.5,598.9ZM394,550.3C394,549.1 393.7,548.9 393.2,549.6C392.8,550.3 391.6,551 390.5,551.3C389,551.7 389.1,551.8 391.3,551.9C393.3,552 394,551.5 394,550.3ZM124.9,544.3C123.7,538.8 123.8,530.5 125.2,527.3C125.9,525.8 127.7,523 129.2,521.2C130.7,519.4 132.2,516.7 132.6,515.2C134.4,507 136.3,502.9 139.8,500C143,497.4 144.2,497 149.7,497C153.1,497 156.2,496.6 156.5,496C156.9,495.4 155.8,495 154.1,495C151.1,495 151,494.9 151,490.5C151,486.4 150.8,486 148.5,486C146.7,486 146,485.5 146,484C146,482.7 145.3,482 144,482C142.9,482 142,482.5 142,483C142,483.6 140.4,484 138.5,484C135.2,484 135,483.8 135,480.5C135,477.6 135.4,477 137.3,476.9C139.4,476.7 139.4,476.7 137.1,476.3C134.8,475.8 134.7,475.7 135.3,467.7C135.6,463.2 136.2,458.7 136.5,457.8C137.2,456 107.3,486 102.8,491.5C94.4,501.9 88.4,516 85,533.3C82.8,544.2 82.6,546 83.8,546C84.5,546 89.4,536.2 92,529.5C95.4,520.9 97.5,517.7 101.6,514.9C104,513.3 107.5,510.4 109.3,508.5C111.8,505.9 113.6,505 116,505C119.1,505 119.2,505.1 118.7,508.8C118.4,510.8 117.6,514.7 117,517.3C115.4,523.7 116.8,529.6 123.1,543.8C125.4,549 126.1,549.2 124.9,544.3ZM634.5,535.2C633.6,531 631.8,524.4 630.5,520.5C624,501 621,496.7 596.9,472.9C585.4,461.5 576.5,453 577,454C577.6,455 578,456.8 578,457.9C578,459.1 578.5,460 579,460C579.6,460 580,463 580,467C580,472.6 579.7,474 578.5,474C577.6,474 577,474.9 577,476.5C577,478.4 576.5,479 574.9,479C573.8,479 572.3,479.6 571.6,480.3C570.8,480.9 569.3,482.2 568.1,483C566.8,483.9 566,485.5 566,487.2C566,489 565.5,490 564.5,490C563.7,490 563,490.7 563,491.5C563,492.3 562.6,493 562,493C561.5,493 561,493.6 561,494.4C561,495.2 560.6,496 560.1,496.2C558.6,496.7 558.6,501.2 560.1,506.4C561.6,511.7 565.7,516.6 569.5,517.6C571.4,518.1 572.1,519.4 573.5,524.8C575.3,532.1 576.9,536.5 577.4,535.9C577.6,535.7 577.3,531.7 576.8,527C576,519.9 576.1,518 577.6,514.8C580,509.5 582.8,508 590.4,508C596.6,508 597,508.2 599.3,511.3C600.6,513 602.9,517.1 604.5,520.3C608.8,529 612.7,531.5 608.9,523.1C607.9,520.7 607,517.5 607,515.9C607,513.3 607.3,513 610.3,513C613.2,513 614.9,514.2 622.2,521.4C629.6,528.7 631.1,530.7 632.9,536.1C634,539.6 635.1,543.3 635.1,544.4C635.2,546.2 635.3,546.3 635.7,544.7C636,543.7 635.4,539.4 634.5,535.2ZM358,509C358,508.4 355.7,508.1 352.8,508.1L347.5,508.3L351.5,509C357.5,510.1 358,510.1 358,509ZM331.2,498.5C332.7,497.1 335.1,496 336.5,496C338.6,496 339,495.5 339,493C339,490.2 339.3,490 342.5,490C344.4,490 346,490.4 346,491C346,491.5 348.1,491.7 351,491.3C353.8,491 356,491.1 356,491.6C356,492.2 359.1,492.4 363,492.2C369.4,491.8 370,491.9 370,493.8C370,495.4 370.9,495.9 375,496.4C377.7,496.8 380.2,497.5 380.5,498C380.8,498.6 382.4,499 384,499C385.5,499 387,499.5 387.2,500.1C387.5,500.9 388.5,500.8 390.5,499.7C392.6,498.6 392.9,498.1 391.8,498C390.4,498 390,497.2 390,494.5C390,491.2 390.2,491 393.4,491C396.5,491 396.9,491.3 397.2,494C397.5,496.9 397.5,496.9 400.6,495.4C404.3,493.6 404.4,493.1 406,465C406.6,455.4 407.5,444.8 408,441.5C408.5,438.2 409.4,428.9 409.9,420.7C410.5,412.6 411.6,400 412.4,392.7C414.6,372.9 416.1,353.3 416.7,335.8L417.3,320L424.3,320L423.6,347.8C423.2,363.1 422.7,383 422.5,392C422.2,401.1 421.6,414.4 421.1,421.5C420.5,428.7 419.8,443.3 419.5,454C419.2,464.7 418.7,475.6 418.4,478.1C417.8,483.9 419.2,484.5 427.6,481.9C431.3,480.7 436.6,480 441.8,480L450.1,480L449.5,288L452.6,288C456.7,288 456.3,285.1 459.9,337.5C460.5,345.2 461.2,362.8 461.5,376.5C462,400.9 463.4,428.5 464.8,442.5C465.5,449.2 465.6,449.5 468.3,449.8C470.9,450.1 471,450.3 471,456.7L471,463.2L473.8,461.4C478,458.6 484,455.6 489.3,453.6C491.9,452.6 494,451.2 494,450.4C494,449.5 495.1,449 497.5,449C501.4,449 501.4,448.9 500,444C499.4,442.1 498.5,437.8 498,434.5C497.6,431.2 496.2,422.9 495.1,416C493.9,409.1 492.5,399.7 492,395C491.4,390.3 490.3,382 489.4,376.5C488.6,371 487.6,360.1 487.3,352.3L486.8,338L490.3,338C493.7,338 493.8,338.1 494.3,342.8C496.7,362.3 500.9,382 502.6,382C503.5,382 504,383.2 504,385.5C504,387.4 503.6,389 503.1,389C502.7,389 502.6,390.9 503.1,393.3C503.5,395.6 504.3,399.5 504.7,402C505.4,405.9 505.8,406.5 508.3,406.8C510.4,407.1 511,407.7 511,409.6C511,411.1 511.6,412 512.5,412C513.5,412 514,413.1 514,415.5C514,418.3 513.6,419 512,419C510.9,419 510,419.5 510,420C510,420.6 510.5,421 511.1,421C513.1,421 515,423.9 515,426.9C515,428.6 514.6,430 514,430C513.5,430 513.3,430.7 513.6,431.5C514,432.3 515.1,433 516.1,433C517.4,433 518,433.7 518,435.1C518,437 518.4,436.9 522.8,433.6C525.4,431.6 529.7,428.5 532.3,426.8C536.2,424.2 537,423.2 536.5,421.6C528.3,396.1 518.1,350.8 514.5,324.5C513.6,317.9 512,307.3 511,301C509.2,290.4 507,272.2 507,268.6C507,267.5 508,267 510.4,267C514,267 515,268.2 515,272.5C515,273.7 515.6,277 516.4,279.6C517.2,282.3 518.8,289 519.9,294.5C521,300 522.8,308.6 523.9,313.5C524.9,318.5 526.5,326.3 527.4,331C531.8,352.9 538.9,382.2 540.1,383.5C540.6,384 541,385.6 541,387C541,388.5 541.6,391.9 542.4,394.6C543.2,397.3 544.1,400.7 544.4,402.3C544.8,403.8 545.7,405 546.5,405C547.6,405 548,406.1 548,409.1C548,411.4 548.7,413.8 549.5,414.6C550.3,415.5 551,417.2 551,418.6C551,420.3 551.6,421 553,421C556.9,421 557,418 553.4,407C548.5,392.3 542.8,370.9 539.7,355.5C538.8,351.1 537.2,343.2 536.1,338C534.2,328.6 531.3,313 528.5,297.5C527.7,293.1 526.2,284.6 525.1,278.5C524,272.5 522.4,263.2 521.5,258C520.6,252.8 519,244.7 518,240C517,235.3 515.4,227.7 514.5,223C511.3,206.5 505.5,181.5 503.5,175C502.7,172.5 500.4,165.1 498.4,158.5C496.4,151.9 493.8,144.3 492.8,141.5C491.7,138.8 489.9,134.3 488.8,131.5C487.8,128.8 486.3,125.2 485.5,123.5C484.7,121.9 483.1,118.3 481.9,115.5C480.6,112.8 478.8,109.2 477.7,107.5L475.8,104.5L476.3,107.5C476.6,109.2 478,113.7 479.5,117.5C483.7,128.2 486,137.5 486,143L486,148L482.7,148C479.5,148 479.2,147.7 477.7,143.3C475.9,137.9 473.1,130.1 470,122C468.8,119 467.4,115.2 466.9,113.5C466,110.4 463.5,104.7 462,101.8C460.4,98.9 460.8,93 462.5,93C464,93 464.5,90.4 463.4,87.6C463,86.4 461.4,86 457.9,86L453,86L453,82.6C453,79.4 453.3,79.1 456.3,78.7C459.2,78.3 459.3,78.2 457.3,77.5C456,77.1 455,76 455,75C455,72 452.2,70 447.9,70C444.1,70 444,69.9 444,66.3C444,61.8 442.2,59.5 432.5,51.9C423.3,44.6 416.9,40.8 405.6,36C370.4,21 334.5,22.6 298.4,40.9C285.9,47.2 270,59.7 270,63.2C270,64.5 269.2,65 267.5,65C265.6,65 265,65.5 265,67.1C265,69.4 263.7,70.9 259.7,72.9C258.2,73.7 257,74.9 257,75.7C257,76.4 256.6,77 256.1,77C255.6,77 255,77.9 254.7,79C254.4,80.1 254.6,81 255.1,81C256.1,81 256.3,86 255.4,88.4C255.1,89.3 254.2,90 253.4,90C252.6,90 252,90.5 252,91C252,91.6 251.1,92 250,92C248.7,92 248,92.7 248,94C248,95.1 248.5,96 249,96C250.6,96 250.1,101.8 248.1,106.8C245.3,113.8 242.5,121.1 237.6,135L233.2,147.5L229.6,147.8C226.2,148.1 226,148 226,145C226,138.5 236.3,106.9 239,105C239.4,104.7 240,103.2 240.4,101.7C242,95.2 238.3,101.1 229.4,119.4C218.7,141.5 209.6,167.9 204.5,192C203.6,196.1 202,203.3 201,208C200,212.7 198.4,220.6 197.5,225.5C196.6,230.5 195,239 194,244.5C193,250 191.4,258.8 190.6,264C187.8,282.1 184.9,299.5 182.9,311.5C181.8,318.1 180.2,327.6 179.4,332.5C178.6,337.5 177,346 175.9,351.5C174.8,357 173.2,365.1 172.3,369.5C171.5,373.9 169.9,380.7 168.9,384.5C167.8,388.4 166.2,394.2 165.3,397.5C163.3,405 160.1,415 159,417C158,419.1 160.2,422 162.7,422C164.8,422 166,418.8 166,412.9C166,411 166.5,410 167.5,410C168.3,410 169.2,408.6 169.6,406.5C169.9,404.6 170.6,402.7 171.1,402.4C171.6,402.1 172,400.9 172,399.6C172,398.4 172.9,394.4 173.9,390.9C178.2,376.3 186,343.2 186,339.5C186,338.6 186.9,334.2 187.9,329.7C189,325.2 190.8,316.3 192,310C193.2,303.7 194.8,295.6 195.5,292C196.3,288.4 197.4,282.7 198.1,279.3C199.3,273.1 199.3,273 202.6,273L206,273L206,278.8C206,281.9 205.5,287.2 205,290.5C204.4,293.8 203.5,300.3 203,305C199.7,334.9 192.9,372.9 185.9,400.5C182.7,413.3 180.6,420.8 179.6,423.2C179,424.5 180.2,425.9 184.7,429.2C188,431.6 192.7,435.2 195.1,437.2C197.5,439.1 201,441 202.8,441.3C206,441.9 206,441.9 206,438C206,435.8 205.6,434 205,434C204.5,434 204,432.4 204,430.5C204,427.3 204.2,427 207,427C209.6,427 210,426.6 210.5,423.3C211.5,417 211.8,415.7 213.3,410C214.1,407 215.5,400.5 216.4,395.5C217.3,390.6 218.7,382.1 219.7,376.8L221.4,367L228.3,367L227.6,380.8C226.6,402.4 224.2,423.8 220.8,441.8C220,445.7 219.7,449 220.2,449C220.6,449 221,449.8 221,450.8C221,452 222.3,453.1 224.8,453.9C226.8,454.7 231.7,457.3 235.7,459.6C239.6,462 243.1,464 243.4,464C243.7,464 244,462 244,459.5C244,456.2 244.4,455 245.5,455C246.3,455 247,454.3 247,453.5C247,452.7 247.8,451.9 248.8,451.9C250.4,451.8 250.4,451.7 248.8,451.3C246.5,450.7 246.2,443 248.4,443C250.4,443 251,435.6 251,410C251.1,388.9 252.1,352.8 253.6,316.8L254.3,301L260.8,301L261.4,317.8C261.7,327 262.3,367 262.6,406.6L263.2,478.8L268.9,479.3C272,479.5 274.7,479.3 274.8,478.9C275.4,477.4 282,477.8 282,479.3C282,480.9 286.1,483 289,483C290.1,483 291,482.6 291,482C291,481.5 292.1,481 293.5,481C295.8,481 296,480.6 296,476.8C296,474.4 295.4,463.5 294.5,452.5C292.3,423.4 290,378 289.3,351.3L288.7,328L295.7,328L296.9,347.3C298.2,368.1 301.2,400.4 303.5,419.5C304.4,426.1 305.5,436.9 306,443.5C306.6,450.1 307.4,459.1 307.9,463.5C308.5,467.9 309.2,476.6 309.6,482.9C310.2,492.8 310.5,494.3 312.1,494.7C313.2,495 314,495.6 314,496.1C314,496.6 316,497 318.4,497C321.9,497 322.9,497.4 323.3,499C324,501.8 327.9,501.6 331.2,498.5ZM124,431.5C124,430.7 123.3,430 122.4,430C121,430 121,430.3 122,431.5C122.7,432.3 123.4,433 123.6,433C123.8,433 124,432.3 124,431.5ZM116.3,422C116,420.9 115.4,420 114.9,420C114.4,420 114,419.3 114,418.5C114,417.7 113.6,417 113,417C111.5,417 111.8,417.7 114.2,421C116.8,424.5 117,424.6 116.3,422ZM604.9,411.5L604.8,408.5L604,411.5C603.6,413.2 602.9,415.4 602.5,416.5L601.7,418.5L603.3,416.5C604.2,415.4 604.9,413.2 604.9,411.5ZM591.7,391.3C591.5,389.7 591.3,391 591.3,394C591.3,397 591.5,398.3 591.7,396.8C591.9,395.2 591.9,392.8 591.7,391.3ZM474,101.5C474,100.1 470.8,95 470,95C468.5,95 468.8,96.9 470.8,99.5C472.4,101.8 474,102.7 474,101.5Z" style="fill:rgb(45,95,47);fill-rule:nonzero;"/>
            <path d="M311,490.5C311,487.2 311.2,487 314.5,487C317.8,487 318,487.2 318,490.5C318,493.8 317.8,494 314.5,494C311.2,494 311,493.8 311,490.5Z" style="fill:rgb(45,95,47);fill-rule:nonzero;"/>
            <path d="M345.4,471.7C339.6,470.2 332.4,466.2 329.8,463.1C328.8,461.9 328,459.6 328,458C328,455.2 328.3,455 331.6,455C333.9,455 336.6,456 339.4,457.9C341.7,459.5 346.4,461.6 349.8,462.5C355.3,463.9 356.6,463.9 361.6,462.6C364.7,461.8 367.5,460.8 367.8,460.4C368.2,460 367.6,460 366.5,460.4C362.4,461.9 354.1,462.2 348.9,461C343,459.6 337.3,456.1 332.1,450.6C329.7,448.2 327.7,447 325.8,447C323.5,447 322.6,446.2 320.5,442C318,437 317.2,431.4 318.9,430.8C319.5,430.7 318.6,426.5 317.1,421.5C310.2,399.5 307.7,382.1 307.8,356.5C307.9,320.6 314.6,292.2 327,275.4C329.2,272.5 332,269.4 333.2,268.6C334.4,267.7 334.9,267 334.2,267C333.3,267 333,265.8 333.2,263.3C333.5,259.8 333.9,259.3 339.5,256.6C344.5,254.1 347,253.5 354.5,253.2C365.6,252.8 372.9,254.8 380.1,260.6C384.6,264.1 385.1,264.8 384.8,268.2C384.6,271.2 385.4,272.8 389.2,277.7C395.7,286 401,296.2 401,300.5C401,302.4 400.6,304 400.2,304C399.7,304 400.5,309.1 401.9,315.3C404.3,326 404.4,327.9 404.5,357C404.5,389.2 404.4,390 399,411C394.6,427.8 388.1,442.3 381.7,449.6L377.8,454L380.9,454C383.8,454 384,454.3 384,457.4C384,461.4 379.2,466.3 371.9,469.8C366.2,472.6 352.7,473.5 345.4,471.7Z" style="fill:rgb(45,95,47);fill-rule:nonzero;"/>
            <path d="M277.3,288.3C277.6,280.1 278.3,271.4 279,268.8C280.1,264.2 280.3,264 283.6,264C286.8,264 287,264.2 287,267.3C287,269 286.3,275.9 285.5,282.5C284.7,289 284,296.4 284,298.7C284,303 284,303 280.4,303L276.8,303L277.3,288.3Z" style="fill:rgb(45,95,47);fill-rule:nonzero;"/>
            <path d="M292.3,285.3C292.9,269.9 294.3,263.4 299.1,254C303.4,245.5 304.8,244 308.6,244C311.7,244 312,244.3 312,246.9C312,248.5 310.8,252.4 309.4,255.6C305.1,265.3 303,272.8 301,286.3C299.9,293.4 299,299.4 299,299.6C299,299.8 297.4,300 295.4,300L291.7,300L292.3,285.3Z" style="fill:rgb(45,95,47);fill-rule:nonzero;"/>
            <path d="M414,284.8C411.4,271.6 407.7,261.7 402.9,254.8C401.8,253.4 401,250.8 401,249.1C401,246.3 401.3,246 404.3,246C408,246 411,248.6 415.4,255.7C419.8,262.8 421.9,270.6 422.2,281L422.5,290.5L415.3,291.1L414,284.8Z" style="fill:rgb(45,95,47);fill-rule:nonzero;"/>
            <path d="M249.4,259.9C243.1,258.1 236.7,252.8 233.7,246.9C230.5,240.6 229.1,229 230.4,218.6C231.1,213.5 231.4,213 233.6,213C235.5,213 236,212.5 236,210.6C236,206.3 240.8,192.7 244.4,186.8L247.9,181L245.4,181C243.4,181 243,180.5 243,178C243,175.7 244.8,172.9 250.3,166.2C260,154.7 264.4,147.7 271.6,132.6C277.4,120.3 277.6,120 280.8,120C283.9,120 284,120.1 284,124.1L284,128.2L285.9,125.9C287,124.6 287.4,123.4 286.9,123.2C286.4,123 286,121.4 286,119.6C286,115.8 288.3,113.3 295,109.9C301.7,106.5 313.8,106.5 320,110C322.4,111.4 325.5,114 326.7,115.9C329.1,119.5 329.8,125.6 327.8,126.2C327,126.5 327.1,128 328.3,131.5C329.5,135 330.1,140.4 330.2,150.9C330.4,161.9 330.5,163.2 330.7,156.3L331.1,147L338.3,147L337.7,167.8C337.2,186.8 337,189.2 334.5,196.5C331.1,206.8 324.6,219.7 320,225.4C305.3,243.8 291.3,255 282.9,255C279.8,255 279.8,254.9 280.1,250.6C280.3,248.2 280.1,246.4 279.6,246.7C277.6,248 264.1,251 260,251.1C253.2,251.3 258.8,252.8 266.8,252.9L273,253L273,256.4C273,259.4 272.6,259.8 269.9,260.4C265.4,261.3 253.1,261 249.4,259.9Z" style="fill:rgb(45,95,47);fill-rule:nonzero;"/>
            <path d="M436.5,259.5C423.9,256 410.6,247.5 398.9,235.4C384.9,220.9 380.5,211 376.9,186C374.3,168.1 374.6,141.2 377.4,129.2C381,114.4 389,107.5 402.5,107.5C410.6,107.6 415.8,109.1 420.1,112.7C422.7,115 423.1,115.9 422.9,119.6C422.7,122 422.9,124.2 423.3,124.6C423.7,125 424,124.6 424,123.6C424,122.2 424.7,121.9 427.6,122.2C431.2,122.5 431.4,122.8 437.1,133.8C440.3,140 444.1,147.2 445.6,149.8C449.2,155.9 458.9,168.7 462.9,172.4C466.8,176.1 467.3,181.7 463.8,182.2C461.7,182.5 461.7,182.6 463.3,184.2C466.3,187.1 471.1,198.6 472.3,205.5C473.3,211.2 473.7,212 475.6,212C478.5,212 479,214.2 479,227.5C479,235.5 478.5,239.9 477.3,243.5C474.8,250.4 468,257.1 461.1,259.3C454.8,261.3 443.6,261.4 436.5,259.5ZM452.9,251.6C452.7,251.4 449.8,251 446.5,250.7C442.8,250.4 441.4,250.5 443,251C445.5,251.8 453.7,252.3 452.9,251.6Z" style="fill:rgb(45,95,47);fill-rule:nonzero;"/>
            <path d="M501.7,245.3C500.8,239.9 499.1,230.6 498,224.5C495.4,211 494.1,202.5 493.3,194.3L492.7,188L496.4,188C499.2,188 500,188.4 500,189.8C500,190.8 500.7,194.3 501.6,197.5C505.8,213.4 509.5,233.6 510.5,246.3L511.1,255L503.3,255L501.7,245.3Z" style="fill:rgb(45,95,47);fill-rule:nonzero;"/>
            <path d="M367.4,248.1C365.7,247.1 362.7,243.9 360.7,241.1C358.7,238.3 356.6,236 356.1,236C355.6,236 353.8,238.3 352,241C347.8,247.5 345.6,249 340,249C333.4,249 332.5,248.1 332.5,241.2C332.5,236.4 333.4,233.2 337.3,223.9C348.1,198.4 348.4,198 356.8,198C361.6,198 364.4,200 366.8,205.3C379.5,232.9 380.9,236.4 380.9,241.8C381,249.3 374.5,252.4 367.4,248.1Z" style="fill:rgb(45,95,47);fill-rule:nonzero;"/>
            <path d="M201,231.3C201,220.1 207.4,185.9 212.7,168.8C214.1,164.3 214.4,164 217.6,164C220.7,164 221,164.2 221,167.1C221,168.8 220.1,174.1 219.1,178.9C218,183.6 216.2,192.2 215,198C213.9,203.8 212.2,211.7 211.4,215.5C210.6,219.4 210,223.7 210,225.2C210,226.6 209.5,230.1 208.8,232.9C207.7,237.8 207.5,238 204.3,238L201,238L201,231.3Z" style="fill:rgb(45,95,47);fill-rule:nonzero;"/>
            <path d="M356,677.5C356,659.8 356.4,650 357,650C357.6,650 358,659.8 358,677.5C358,695.2 357.6,705 357,705C356.4,705 356,695.2 356,677.5Z" style="fill:white;fill-rule:nonzero;"/>
            <path d="M407.6,690.5C406.4,689.2 406.2,687.4 406.7,681C407.6,668.6 404.6,660.7 395.5,652C392,648.6 391.9,648.3 392.1,642C392.2,638.4 392.7,634.2 393.2,632.5C394.3,628.7 394.3,607.4 393.1,599.5C392.6,596.2 392.4,593.2 392.7,592.8C392.9,592.3 392.6,592 392.1,592C391.5,592 391,590.3 390.9,588.3C390.9,584.7 389.3,579.4 389,581.5C388.7,583.2 389,592.3 389.6,599.7C390.2,606.3 390,606.9 388.1,607.5C385.7,608.2 380.2,603.6 382.1,602.4C382.7,602.1 383.6,602.4 384.1,603.1C384.7,604.1 385,604.2 385,603.2C385,602.5 384.1,601.2 383.1,600.3C381.2,598.8 381.2,598.6 382.8,597.4C384,596.4 384.1,596.1 383.1,596C382.3,596 382,595.3 382.3,594C382.6,593 382.3,591.9 381.6,591.6C380.9,591.3 381.1,590.6 382.2,589.7C383.2,588.9 383.7,588 383.4,587.7C382.8,587.1 382.1,583.9 381.6,579.5C381.5,578.4 380.9,576.5 380.2,575.3C379.3,573.6 379.3,573 380.3,572.6C380.9,572.3 380.5,572.3 379.3,572.6C376.8,573.2 376.3,572.1 378.3,570.1C379.3,569.1 379.2,568.9 378,569.2C377.1,569.4 376.6,568.8 376.6,567.7C376.7,566.5 376.4,566.2 375.6,566.9C374.9,567.5 373.8,567.4 372.6,566.5C370.9,565.2 370.9,565 372.3,563.5C373.3,562.6 374.1,562.4 374.5,563C374.8,563.5 374.6,564 374.1,564C373.5,564 373,564.5 373,565C373,566.7 374.5,566.1 375.9,563.8C376.9,562.2 376.9,561.5 376.1,561.2C375.5,561 375,560 375,559C375,557.6 375.9,557 378.3,556.7C381.4,556.3 381.4,556.3 377.8,556.2C374.3,556 372.2,554 375.5,554C376.3,554 377,553.4 377,552.8C377,551.9 377.4,552 378,553C378.6,553.9 379,554 379,553.3C379,551.5 375.3,549.7 374.7,551.3C374.5,551.9 374,552.3 373.7,552C373.4,551.7 373.8,550.6 374.6,549.5C375.9,547.8 376.2,547.7 377.1,549C377.9,550.2 378,550 377.5,548.3C377,546.6 377.3,546.1 378.9,546.3C380.3,546.4 380.6,546.8 380,548C379.5,548.9 379.7,550.5 380.7,552C381.5,553.4 381.9,553.7 381.6,552.8C381.2,551.6 381.6,551 382.8,550.9C383.9,550.8 383.6,550.5 382,550C380.1,549.4 380,549.2 381.4,549.1C382.6,549 383,548.5 382.6,547.5C381.9,545.5 383,545.6 384.7,547.8C386,549.3 386,549.3 385.1,547.3C383.6,544.2 383.6,542.2 385.2,543.8C387,545.6 388.4,545.2 386.9,543.4C385.7,541.9 385.8,541.8 388,542.3C389.4,542.7 389.9,542.7 389.3,542.4C388.6,542.1 388,541.2 388,540.5C388,538.9 392.4,537.6 392.9,539.1C393,539.6 393.9,539.3 394.7,538.3C396,536.6 396.1,536.7 395.6,539C395.2,541.1 395.3,541.2 396.3,540C397.8,538.1 402.1,537.6 401.4,539.4C401.1,540.1 401.6,540.7 402.5,540.7C403.3,540.7 404,540.3 404,539.8C404,539.4 404.5,539 405,539C405.6,539 406,540.8 406,543C406,546.3 405.7,546.8 404.3,546.3C403.1,545.8 403.2,546.2 404.8,547.8C407.5,550.5 408,550.5 407.3,548C407,546.9 407.3,546 407.9,546C408.5,546 409,546.6 409,547.4C409,548.2 409.6,549.1 410.3,549.3C411.2,549.7 411.1,550.1 410,550.9C409.2,551.5 409,552 409.6,552C410.2,552 411.3,551.4 411.9,550.6C412.8,549.5 412.7,548.8 411.5,547.6C410,546.2 410,546 411.4,546C412.3,546 413,545.3 413,544.5C413,543.7 413.4,543 413.9,543C414.4,543 415.5,542.7 416.3,542.4C417.1,542.1 418.8,542.9 420,544.2C422.4,546.6 421.8,544.7 419.2,541.7C417.2,539.5 418.4,538.3 420.5,540.4C422.5,542.4 423.1,542.4 422.4,540.6C422.1,539.8 422.3,538.9 422.9,538.5C423.5,538.2 424,538.7 424,539.7C424.1,541.4 424.1,541.4 425.5,539.6C426.8,537.9 427.2,537.9 428.7,539.1C430.3,540.4 430.4,540.3 429.2,538.8C428.4,537.8 428.3,536.9 428.9,536.6C429.4,536.2 430.4,536.8 431,537.7C431.9,539.2 432,539.1 431.4,537.1C430.9,535.2 431.1,534.8 432.4,535.3C433.3,535.7 434,535.5 434,534.9C434,534.4 434.6,534 435.3,534.1C435.9,534.2 437.8,533.8 439.3,533.2C440.9,532.5 442.8,532 443.6,532C444.4,532 446.8,530.8 449,529.4C451.2,527.9 453.3,526.9 453.6,527.2C453.9,527.5 454.4,555.6 454.7,589.6C455.3,646.4 455.2,652.3 453.5,661.7C451.6,672.8 449.2,678 446.1,678C444.6,678 444,677.1 443.6,674.8C442.7,668.7 441.7,659.5 441.5,654.7C441.3,652.1 441,649.6 440.6,649.3C439.6,648.3 439.9,645 441.1,645C441.7,645 441.4,644.3 440.5,643.3C439.5,642.4 439,640.7 439.3,639.3C439.5,638 439.3,636.7 438.8,636.4C438.3,636.1 438.1,635.2 438.4,634.4C438.7,633.6 438.5,633 438,633C437.4,633 437,632.4 437,631.6C437,630 431.5,625 429.8,625C429.1,625 429.1,625.4 429.8,626.3C431.6,628.5 432.4,643.1 431,647.6C430.3,649.7 429.4,651.7 429.1,652C428.8,652.3 426.7,654.6 424.4,657.1C420.3,661.7 417.9,668.4 416.6,679.5C416,684.8 415.1,687 412.7,689.8C410.3,692.4 409.6,692.5 407.6,690.5ZM418.5,545.4C417.6,544.5 416.6,544.1 416.2,544.4C415.9,544.8 416.2,545.5 417,546C419.4,547.5 420.3,547.1 418.5,545.4Z" style="fill:white;fill-rule:nonzero;"/>
            <path d="M363,672.5C363,660.8 363.4,654 364,654C364.6,654 365,660.8 365,672.5C365,684.2 364.6,691 364,691C363.4,691 363,684.2 363,672.5Z" style="fill:white;fill-rule:nonzero;"/>
            <path d="M349.4,688.7C349.2,688 349.1,678.5 349.2,667.6C349.4,653.4 349.8,647.6 350.7,647.3C351.5,647 351.9,652.2 352.2,667.2C352.4,678.4 352.4,688.1 352.2,688.8C351.7,690.4 350.1,690.4 349.4,688.7Z" style="fill:white;fill-rule:nonzero;"/>
            <path d="M325,684C323.1,682.8 323.2,673.9 325.4,662C330.4,634.3 330.5,632.5 330.5,598.8C330.5,576.8 330.1,565.7 329.4,565C328.7,564.3 328.3,565.6 328.1,569.7C328,572.8 327.7,575.7 327.4,576.2C326.7,577.2 325.9,585.9 325.8,593.8C325.7,597.2 325.3,600 324.8,600C324.3,600 324.4,600.9 325,601.9C326.2,604.2 325.3,607.3 323.6,606.3C322.8,605.8 322.8,606 323.6,607.1C324.1,607.9 324.6,609.2 324.5,610C324.4,610.8 324.2,612.7 324.2,614.3C324.1,616 323.4,617 322.4,617C321.1,617 321.1,617.2 322.6,618.8C324.3,620.4 324.3,620.5 322.2,620.8C319.8,621.2 319.6,621.8 321,624C321.6,625 322,625.1 322,624.3C322,623.6 322.5,623 323,623C323.6,623 323.3,624.1 322.4,625.5C321.5,626.9 320,628 319.1,627.9C317.8,627.9 317.9,627.7 319.4,627.1C320.5,626.7 320.9,626.1 320.4,625.7C318.6,624.7 316.7,626.6 317.4,628.8C317.8,629.9 317.6,631.1 317,631.5C316.4,631.9 315.7,630.9 315.4,629.2C315.1,627.6 314.2,626.3 313.4,626.3C311.8,626.3 311.5,627.6 313,628.5C313.6,628.8 313.9,629.9 313.9,630.8C313.8,632.3 313.7,632.3 313.3,630.8C312.4,627.3 311.2,629.1 310.6,634.9C309.8,641.7 307.1,646 303.4,646C299.5,646 293.1,649 291.1,651.9C287.4,657.2 285.8,664.4 286.5,672.8C287.2,679.8 287,680.8 285.5,681.4C284.5,681.7 283.1,681.5 282.4,680.9C280.5,679.3 278.3,671 277.5,662.3C276,645 273.8,638.9 266.7,631.6C264.3,629.2 261.9,625.5 261.2,623.3C260.3,620.4 260,606.3 260,573.5C260,532.2 260.2,527.8 261.6,528.4C262.5,528.7 263.5,529 263.9,529C264.3,529 265.6,529.9 266.8,531C268,532.2 269,532.6 269,532C269,531.4 269.5,531.2 270,531.5C270.6,531.9 270.7,532.7 270.3,533.3C269.9,534.1 270.1,534.1 271.2,533.2C272.9,531.9 278,533.1 278,534.9C278,535.4 278.9,535.6 280,535.3C281.2,535 282,535.3 282,535.9C282,536.6 281.5,536.8 280.8,536.4C280.1,535.9 280,536.1 280.5,536.9C281,537.8 281.5,537.9 282.3,537.1C283.9,535.5 285.3,535.8 284.6,537.6C284,539.1 284.2,539.1 285.6,537.9C286.9,536.8 287.4,536.8 287.7,537.8C288,538.4 289.3,539 290.7,539C292.9,539 293.1,539.2 292,540.5C290.9,541.8 291,541.9 292.6,541.4C293.6,541 295.1,540.2 295.9,539.6C297,538.7 297.2,538.9 296.6,540.8C296,542.5 296.2,542.9 297.4,542.4C298.3,542.1 299,542.3 299,542.9C299,543.5 299.7,543.7 300.5,543.4C301.3,543 302,543.3 302,543.9C302,544.6 300.7,544.9 298.5,544.7C296.6,544.4 295,544.7 295,545.1C295,545.6 295.5,546 296.1,546C296.7,546 297,546.7 296.6,547.5C296.3,548.3 296.5,549 297,549C297.6,549 298,548.3 298,547.5C298,546.4 298.9,546 301,546.2C302.7,546.3 304,547 304,547.6C304,548.3 303.1,548.6 301.8,548.4C300.5,548.2 300.2,548.3 301,548.6C301.8,549 302.8,549.8 303.2,550.4C303.7,551.1 304,551 304,550.1C304,549.3 304.7,549 306,549.3C307.1,549.6 308,549.4 308,548.9C308,548.4 307.6,548 307,548C306.5,548 306,547.5 306,546.9C306,546.3 306.7,546 307.5,546.4C309.3,547 309.4,546.5 308,543.9C307.2,542.4 307.3,542 308.4,542C309.2,542 310,542.6 310.3,543.3C310.5,543.9 310.5,543.5 310.3,542.3C309.7,538.4 318.3,536.3 319.5,540.1C320.1,542 322.7,541.7 324.3,539.6C324.8,539 324.8,539.5 324.5,540.7C324,542.5 324.2,542.9 325.4,542.4C326.6,541.9 327,542.4 326.8,544.1C326.6,546 327.3,546.9 330.7,548.4C335.1,550.4 336.4,552.6 334.7,555.5C334.1,556.7 334.1,557.1 334.8,556.6C335.4,556.3 336.2,556.5 336.6,557.1C336.9,557.7 336.6,558.6 335.9,559.1C334.8,559.8 334.8,560 335.8,560C336.5,560 337,560.8 336.8,561.8C336.4,564.4 338.3,564.6 339.6,562C340.4,560.5 341,560.2 341.5,561C341.9,561.7 341.6,562.6 340.9,563.1C339.8,563.8 339.7,564.3 340.8,566C341.5,567.2 341.6,568 341,568C340.5,568 340,567.6 340,567C340,566.5 339.2,566 338.3,566C337.3,566 336.9,566.4 337.5,566.8C338.9,567.8 339,571.2 337.7,570.7C336.1,570.1 336.1,570 335.1,619.5C334.4,657.9 334,664.6 332.2,672.4C330.1,681.7 327.7,685.7 325,684Z" style="fill:white;fill-rule:nonzero;"/>
            <path d="M347.2,639.9C341.3,636.1 341.1,635.1 341,605.2L340.9,578L343.4,575.5C344.8,574.1 346.6,573 347.5,573C349.2,573 349.6,575.5 348,576.5C346.6,577.4 346.7,581.3 348.2,582.8C349.9,584.5 362.1,584.4 364.5,582.7C366,581.6 366.2,580.5 365.6,577.2C364.9,572.7 365.1,572.5 368.1,574C372.6,576.4 373,579.4 373,606.5C373,634.5 372.8,635.9 367.1,639.9C363,642.9 351.9,642.8 347.2,639.9ZM362.8,633.4C364.9,631 365,630.2 365,611.5L365,592.1L361.4,591.4C358,590.8 350.3,591.3 349.4,592.3C348.9,592.7 348.9,615.9 349.3,622.5C349.4,624.2 350,626.1 350.7,626.8C352.3,628.5 352.4,630 350.8,630C350.2,630 350.4,630.7 351.3,631.8C352.3,632.8 353,634.1 353,634.7C353,637.9 359.6,637 362.8,633.4Z" style="fill:white;fill-rule:nonzero;"/>
            <path d="M511,639C511,638.4 510.3,638 509.5,638C508.7,638 508,637.5 508,636.9C508,636.3 507.3,635.2 506.5,634.4C505.7,633.5 505,632 505,630.8C505,629.7 504.1,625.6 503.1,621.7C500.8,613.3 498.9,604.4 498.7,601.3C498.6,600 498.2,599 497.9,599C496.6,599 497.9,582.7 499.2,581.9C500,581.4 500.1,581 499.4,581C498.7,581 498.5,580 498.8,578.5C499.5,574.5 498,568.9 495.5,566.4C493.7,564.6 492,564 488.7,564C482.4,564 477.9,569 476,578C474.7,583.9 474.8,585 477,593.6C479.8,604.7 479.4,607.3 473.8,616.6C468.8,625 469.1,624.7 468.1,623.1C467.5,622.2 467,622.1 466.6,622.9C466.2,623.5 466.4,624 466.9,624C467.5,624 468,624.5 468,625C468,626.8 465.8,626 465.3,624C465,622.9 464.3,622 463.7,622C462.9,622 463,621.6 463.8,620.8C464.5,620.1 464.6,619.1 463.9,617.8C463.1,616.4 463.5,615.4 465.5,613.3C466.9,611.8 468,610.1 467.9,609.5C467.9,609 467.6,609.1 467.3,609.8C467.1,610.4 466.2,611 465.4,611C464.6,611 464.1,611.5 464.2,612.1C464.4,612.7 463.9,613.5 463.2,613.7C461.7,614.3 461.9,607.9 463.5,606.8C464.1,606.3 464,605.7 463.1,605.1C461.8,604.3 461.8,603.9 463.1,602.4C464.2,601.1 464.2,600.6 463.3,600.3C461.8,599.8 461.6,597 463,597C463.6,597 463.5,596.2 462.8,595C461.7,593.3 461.8,592.8 463,592C464,591.4 464.1,591 463.3,591C462.6,591 462,590.3 462,589.4C462,588.3 462.5,588 463.7,588.4C465.3,589 465.3,588.9 463.8,587.3C462.4,585.8 462.2,582.1 462.1,561.8C462.1,547.2 462.4,538 463,538C463.6,538 464,537.5 464,536.9C464,536.4 463.6,536.2 463,536.5C462.5,536.8 462,536.6 462,536.1C462,535.5 462.8,535 463.8,534.9C464.8,534.9 465,534.6 464.3,534.3C463.6,534.1 463,533.4 463,532.9C463,531.5 466.8,531.8 467.3,533.3C467.7,534 467.9,533.9 467.9,532.8C468,531.9 468.5,531 469.2,530.8C470.1,530.5 470.1,530.2 469.2,529.6C468.5,529.2 468,529.4 468,529.9C468,531.8 465.5,531 463.7,528.5C462.2,526.5 462.2,526 463.4,526C464.2,526 465,525.4 465.3,524.8C465.5,524.1 466.1,523.9 466.6,524.3C467.1,524.7 466.8,525.5 466.1,525.9C465.4,526.4 464.9,527.3 465.2,528C465.5,528.9 466.1,528.8 467.3,527.5C468.7,526.2 468.8,525.5 467.9,524.4C465.9,522 467.9,521.5 470.3,523.8C471.6,525 473,526 473.6,526C474.1,526 473.7,525.3 472.6,524.5C471.6,523.7 471,522.4 471.3,521.6C471.7,520.6 471.4,520.3 470.4,520.7C469.7,521 469,520.9 469,520.5C469,519.4 471.7,517.1 472.4,517.7C472.7,518 473.6,517.7 474.5,517C475.4,516.3 476.3,516 476.6,516.3C477.5,517.2 476.1,519 474.4,519C473.6,519 473,519.7 473,520.6C473,522 473.2,522.1 474.7,520.9C478.1,518.3 478.7,517.5 478.2,516.2C478,515.5 478.7,515 479.9,515C481.1,515 482,515.6 482,516.6C482,517.4 482.4,517.9 483,517.5C483.5,517.2 483.6,516.2 483.3,515.2C482.7,513.7 482.8,513.6 484.5,515C485.5,515.8 486.1,516 485.7,515.3C485.3,514.6 486.1,513.8 487.9,513.2C490.2,512.4 491.1,512.5 492.5,513.8C494.1,515.4 494.2,515.4 493.1,513.3C491.5,510.2 491.7,509.5 493.7,511.1C495.1,512.3 495.3,512.3 494.5,511.1C493.9,510 494.1,509.8 495.4,510.3C496.4,510.7 497.3,510.4 497.6,509.5C498,508.7 498.7,508 499.2,508C499.8,508 500,508.7 499.6,509.5C499.2,510.7 499.4,510.8 501,509.7C502.1,509.1 503,508.2 503,507.7C503,507.3 503.5,507.2 504,507.5C504.6,507.8 505,507.6 505,507C505,506.4 505.6,505.2 506.4,504.5C507.4,503.4 508,503.4 509,504.3C510,505.3 510.2,505.1 509.7,503.8C509,501.7 510.1,501.5 511.9,503.3C512.9,504.3 513,504.2 512.5,502.8C512.1,501.7 512.3,501 512.9,501C513.5,501 514,501.6 514,502.3C514,503.1 514.3,503 515,502C515.6,501.1 515.5,500.3 514.7,499.7C514,499.2 514.3,499.1 515.6,499.5C517.7,500 519.9,497.7 518.2,496.7C517.8,496.5 518,496.5 518.7,496.6C519.4,496.8 520.2,496.5 520.6,495.9C520.9,495.3 521.7,495.1 522.3,495.3C524.7,496.1 525.8,493.7 524.3,491.3C523,489.4 523,489 524.1,488.9C524.9,488.8 526.2,488.6 527,488.5C527.8,488.4 529.1,488.2 529.7,488.1C530.4,488.1 530.9,487.5 530.7,486.9C530.6,486.2 532.4,485.6 535,485.3C539.2,484.9 539.6,485.1 540.9,488C542.9,492.7 547.1,504.1 548,507.5C548.5,509.2 550.2,514.8 551.8,520C557.3,537.7 561.2,554.1 563.6,569.5C566.4,588 564.3,610.3 558.4,623.8C556.5,628.1 555.7,629 553.6,629C551,629 551,628.9 551,621C551,613.9 550.6,612.3 547.6,606.5C544.4,600.4 544.2,599.3 544.1,590C544,582.1 543.5,579 541.7,575C540.5,572.3 538.9,570 538.3,570C537.6,570 537,569.6 537,569C537,568.5 536.3,568 535.5,568C534.4,568 534.1,568.7 534.6,570.5C535,572 534.8,573 534.2,573C533.6,573 533.2,571.5 533.4,569.6C533.6,567 533.3,566.3 532.1,566.8C531.1,567.2 530.8,566.9 531.3,565.7C531.6,564.9 531.6,564 531.2,563.8C530.8,563.6 529.4,561.9 528.2,560L525.9,556.5L526.4,561C526.8,563.5 527.3,567.2 527.6,569.3C528.4,574.3 526.7,578.4 520.8,584.8C518.2,587.8 516,590.9 516,591.9C516,592.8 515.6,594 515.1,594.6C511.9,598.1 511.1,616 513.5,627.9C514.4,631.9 514.8,636 514.5,637C513.9,639 511,640.6 511,639ZM469.3,617.8C469.6,617 468.9,616.5 467.5,616.5C465.7,616.5 465.4,616.8 466.2,617.8C466.8,618.4 467.6,619 468,619C468.4,619 469,618.4 469.3,617.8Z" style="fill:white;fill-rule:nonzero;"/>
            <path d="M383,622.7C383,622 384.1,620.6 385.5,619.6C387.6,618 387.7,617.6 386.5,616.4C384.8,614.7 383.3,614.6 382.7,616.3C382.5,616.9 381.9,617.1 381.4,616.7C380.9,616.3 381.2,615.5 382,614.9C383.3,614.2 383.3,613.9 382.1,613.1C381.4,612.6 381.1,611.7 381.5,611C382,610.2 382.8,610.5 384.2,611.9C385.9,613.8 388,614 388,612.3C388,611.9 387.7,611.9 387.4,612.3C386.7,612.9 384,610.6 384,609.5C384,609.1 384.7,609 385.5,609.3C386.3,609.7 387.2,609.5 387.5,609C388.5,607.4 390.3,607.9 389.7,609.5C389.3,610.3 389.5,611.2 390.1,611.5C390.6,611.9 390.7,612.7 390.3,613.3C389.9,613.9 389.5,615.4 389.4,616.6C389.2,618.6 385,624 383.6,624C383.3,624 383,623.4 383,622.7Z" style="fill:white;fill-rule:nonzero;"/>
            <path d="M387.2,622.9C387.4,622.2 388.2,621.4 388.9,621.2C389.7,620.9 390.1,621.3 389.8,622.1C389.6,622.8 388.8,623.6 388.1,623.8C387.3,624.1 386.9,623.7 387.2,622.9Z" style="fill:white;fill-rule:nonzero;"/>
            <path d="M382.2,618.8C382.5,618.1 383.5,617.3 384.6,617.1C386.2,616.8 386.3,617 385.1,618.4C383.5,620.3 381.7,620.5 382.2,618.8Z" style="fill:white;fill-rule:nonzero;"/>
            <path d="M155.6,615.8C151.2,609 148,594.8 148,582C148.1,561.9 155.4,532.2 168.3,499C173.7,485 174,484.8 179.6,486.7C182,487.5 184,488.6 184,489.2C184,489.8 183.3,490 182.5,489.6C181.3,489.2 181.2,489.4 182.2,490.9C182.9,492 184.1,492.5 185.2,492.2C187.4,491.7 187.5,492.4 185.4,494.4C184.1,495.8 184.1,496 185.3,496C186.1,496 187.1,494.9 187.4,493.5C188,491 190.2,489.8 189.7,492.3C189.6,492.9 190.3,493.4 191.2,493.2C192.4,493 192.8,493.4 192.4,494.5C192.1,495.3 192.3,496 192.9,496C193.5,496 194,496.5 194,497.1C194,497.6 193.5,497.8 193,497.5C191.9,496.8 190.4,499.7 191.4,500.7C191.7,501 192.6,500.7 193.5,500C195.4,498.4 196.7,499.4 195.2,501.3C194.4,502.2 194.4,503 195.2,504C196,505.2 196.1,505.1 195.6,503.7C195.2,502.5 195.4,502 196.2,502.3C196.9,502.5 197.4,503.7 197.3,504.9C197.1,506.7 197.2,506.8 198.4,505.8C199.1,505.1 199.5,503.8 199.2,503C198.8,501.9 199.1,502 200.4,503.3C202.2,505 202.2,505.2 200.4,506.6C198.6,508 198.6,508 200.4,507.3C202,506.8 202.2,507 201.6,508.6C201.2,509.6 200.6,512.1 200.4,514C200,517.3 199.2,520.7 195.5,536.4C193,546.8 192.4,547.9 186.2,553.9C183,557 179.8,561 179.1,562.7C178,565.4 177.3,565.9 175.5,565.4C171.8,564.5 169.2,568.3 169.9,573.8C170,574.4 169.7,575 169.2,575C168.2,575 166.6,580.6 166.9,582.8C167,583.4 166.6,584 166,584C164.7,584 164.7,587.7 166,588.5C166.6,588.8 166.6,590 166,591.4C165.5,592.7 165.4,594 165.7,594.3C166,594.6 165.9,595.4 165.4,596.1C165,596.8 164.5,598.9 164.3,600.9C164.1,602.9 163.2,607.4 162.2,611C160.3,618.1 158.2,619.7 155.6,615.8Z" style="fill:white;fill-rule:nonzero;"/>
            <path d="M208.3,612.8C205.9,609.8 203.7,604.2 201.8,596.6C199.1,585.8 198.9,558.2 201.5,544C203.9,530.3 209,509.8 210.6,507.2C211.2,506.2 215,508.3 215,509.6C215,510.4 215.4,510.9 215.9,510.5C217.6,509.5 222.1,512.2 221.5,513.9C221,515.2 221.1,515.3 222.1,514.3C223.7,512.7 225.4,512.6 224.4,514.2C223.9,514.9 224.1,515 224.9,514.6C225.6,514.1 226.7,514.6 227.5,515.6C228.8,517.4 228.9,517.4 229,515.8C229,514.8 229.5,514 230,514C230.6,514 231,514.8 231,515.8C231,517.2 231.2,517.3 232,516C232.8,514.7 233,514.8 233,516.3C233,517.4 234.4,518.7 236.6,519.6C239.9,521 240.4,521 242.1,519.4C243.6,518 244,518 244,519.1C244,519.9 243.5,521.1 242.8,521.8C241.9,522.7 241.9,523 242.8,523C243.5,523 244.3,522.3 244.6,521.5C245,520.7 245.7,520.3 246.2,520.6C246.8,521 246.7,521.6 245.9,522.1C244.7,522.9 244.7,523.1 245.9,523.9C246.6,524.4 247,525.4 246.8,526.1C246.5,526.9 247.1,528.2 248.1,529.1C249.3,530.2 250,532.3 250.1,535.3C250.3,538.3 250.7,539.7 251.5,539.4C252.2,539.1 252.7,540.2 252.8,542.5C252.9,544.6 252.5,546 251.7,546C250.9,546 250.9,546.3 251.9,546.9C252.6,547.4 253,548.4 252.8,549.1C252.5,549.9 252.7,551.6 253.2,552.9C253.9,554.8 253.7,555.1 252.5,554.6C251.3,554.2 251.2,554.4 251.9,555.9C252.5,556.9 252.9,560.4 252.9,563.6L252.9,573.8C253,576.2 252.6,579 252,580C251.3,581.4 251.3,582 252,582C252.5,582 253,582.7 253,583.6C253,584.6 252.5,585 251.5,584.6C250.2,584.2 250.1,584.4 251,586C251.6,587.2 251.7,588 251.1,588C250.6,588 249.9,589.4 249.5,591C249.1,592.7 248.2,594 247.5,594C246.8,594 245.7,595.5 245.1,597.3C244.5,599 243,601.1 241.8,601.9C239.9,603.1 239.5,603 238.3,601.4C237.4,600.2 237.1,598.3 237.5,596.5C237.8,594.9 238.3,587.9 238.6,581C239.1,569.2 239,568.3 236.8,564.5C234.6,560.8 234.2,560.5 230.5,560.8C222,561.5 217.9,569.9 218,586.1C218.1,597.5 217.5,603 215.8,609C214.7,612.6 213.9,613.6 211.9,613.8C210.5,614 208.9,613.5 208.3,612.8ZM248.4,531.5C248,530.7 247.4,530 246.9,530C246.4,530 246,530.7 246,531.5C246,532.3 246.7,533 247.5,533C248.4,533 248.7,532.4 248.4,531.5Z" style="fill:white;fill-rule:nonzero;"/>
            <path d="M352,551.3C352,536 352.4,522.9 352.8,522.2C353.4,521.4 354.7,521.2 356.8,521.6C361,522.5 361.1,523.3 360.8,553.5L360.5,578.5L356.3,578.8L352,579.1L352,551.3ZM357.6,566C357.6,564.9 357.2,564 356.8,564C356.4,564 356,564.9 356,566C356,567.1 356.4,568 356.8,568C357.2,568 357.6,567.1 357.6,566ZM357.1,557.8C357.3,555.2 357.1,552.8 356.7,552.4C356.3,552 356,554.3 356,557.5C356,564.4 356.7,564.5 357.1,557.8Z" style="fill:white;fill-rule:nonzero;"/>
            <path d="M174.6,568.4C174.2,567.5 174.2,566.5 174.4,566.3C175.2,565.5 177,567.1 177,568.6C177,570.5 175.4,570.4 174.6,568.4Z" style="fill:white;fill-rule:nonzero;"/>
            <path d="M337.7,560.4C337.4,560 337.8,559 338.7,558.2C339.7,557.1 339.9,556.5 339.1,556.2C337.7,555.7 337.6,553 339,553C339.6,553 340,553.6 340,554.4C340,555.2 340.5,556 341.1,556.2C341.7,556.4 341.3,557.5 340.2,558.8C339.2,560 338,560.7 337.7,560.4Z" style="fill:white;fill-rule:nonzero;"/>
            <path d="M370,560C370,558.8 372.8,557.5 373.6,558.3C373.9,558.6 373.2,559.3 372.1,560C370.6,560.7 370,560.7 370,560Z" style="fill:white;fill-rule:nonzero;"/>
            <path d="M121.3,549.3C114.7,537.5 111.7,523.2 113.9,513.8C114.9,509.5 114,509 111.3,512.3C110.3,513.6 107.4,516 104.8,517.8C100.5,520.7 98.5,523.8 95,532.5C91.3,541.8 86.4,550.9 84.8,551.3C79.7,552.7 78.8,546.1 82,530.3C86.9,505.2 92.5,495.7 116,471.5C125.6,461.6 135.1,451.4 137,448.8C140.9,443.6 141.9,443.1 144.3,445.8C145.9,447.5 145.8,448 143,453.1C141.4,456.2 139.8,460.4 139.4,462.6C139.1,464.7 138.6,466.8 138.3,467.3C138.1,467.7 138.4,467.9 139.2,467.8C139.9,467.6 140.4,468.1 140.3,468.8C140.1,469.4 140.5,470 141,470C142.3,470 142.3,468.3 141,467.5C140.5,467.2 140.2,465.9 140.4,464.7C140.7,463.5 140.9,462.2 140.9,461.8C141,461.3 141.5,461 142,461C142.6,461 142.8,462.2 142.4,463.8C142,466 142.1,466.2 143,465C144,463.8 144.1,463.9 143.7,465.7C143.4,467.1 143.7,467.8 144.4,467.7C145,467.6 145.4,468.1 145.3,468.8C145.1,469.4 145.5,470 146,470C146.6,470 147,469.5 147,468.8C147,468.2 147.3,467.9 147.6,468.2C147.9,468.6 147.6,469.8 147,471.1C146,472.9 146,473.2 147.1,472.7C147.9,472.4 149.3,471.9 150.3,471.5C151.3,471.1 152,471.2 152,471.9C152,472.5 151.6,473 151.1,473C150.6,473 149.9,473.7 149.6,474.6C149.2,475.8 149.5,476 151,475.5C152.5,475 152.8,475.2 152.4,476.3C151.9,477.8 154.4,479.5 158.1,479.9C158.8,480 159,481 158.6,482.6C158.1,484.4 158.3,485 159.1,484.5C159.7,484.1 160.6,484.4 161.1,485.1C162.5,487.3 162.2,488 160.3,487.3C158.7,486.7 158.7,486.8 159.8,488.3C160.6,489.2 160.9,490.4 160.5,491C160.2,491.5 160.4,492 160.9,492C161.5,492 162,492.5 162,493.1C162,493.6 161.5,493.8 160.8,493.4C160,492.9 159.9,493.2 160.4,494.5C160.7,495.5 160.4,497.2 159.6,498.5C158.4,500.4 157.5,500.6 152.3,500.2C147,499.9 146.2,500.1 142.8,502.9C139.4,505.8 137.4,510 135.6,518.2C135.2,519.7 133.7,522.4 132.2,524.2C127.3,529.9 126.5,533.1 127.9,541.1C129.5,549.7 128.8,553 125.7,553C124.1,553 122.7,551.9 121.3,549.3Z" style="fill:white;fill-rule:nonzero;"/>
            <path d="M336.6,551.2C336.3,550.6 336.9,550 338.1,549.7C339.3,549.4 340,549.6 339.7,550.3C339.2,551.8 337.3,552.3 336.6,551.2Z" style="fill:white;fill-rule:nonzero;"/>
            <path d="M633.2,549.8C632.5,549.1 632,547.9 632,547C632,546.1 631.1,542.6 629.9,539.2C628.2,534 626.5,531.7 620.6,525.7C609.8,515 609.8,515 612.5,521.6C615.1,528 614.6,531.3 611.1,531.8C607.6,532.3 604.7,529.7 601.6,523.4C596.6,513.4 594.4,511 590.2,511C581.1,511.1 577.4,520.8 581.4,534C584.5,544.1 584.2,546.8 579.9,545.7C576.9,544.9 572.8,537.1 570.5,528C569,522 568.6,521.4 564.9,519.7C562.8,518.7 560.4,516.9 559.8,515.7C557.4,511.5 553.1,497.3 553.4,494.8C553.6,492.8 553.3,492.3 552.2,492.7C551,493.2 551,492.9 552,490.9C553.2,488.7 553.2,488.6 551.7,489.9C550.2,491.1 550,491 550,489.6C550,488.7 550.6,488 551.3,488C551.9,488 551.3,486.9 549.8,485.6C548.3,484.4 547.3,483 547.7,482.7C548,482.3 549,482.8 549.9,483.8C551.8,485.8 554,486.5 554,485C554,484.4 553.3,484 552.5,484C551.7,484 551,483.6 551,483C551,481.4 552.8,481.8 555,484C556.6,485.6 557,485.7 557,484.5C557,483.7 556.6,483 556,483C555.5,483 555,482.5 555,481.9C555,481.3 555.7,481 556.5,481.4C558.7,482.2 558.3,481.1 555.8,478.9L553.5,476.9L555.8,477.5C557,477.9 558,477.7 558,477.1C558,476.6 559.6,475.6 561.5,474.9C564.2,473.9 564.9,473.2 564.4,471.8C564.1,470.8 564.4,470 565,470C565.6,470 565.8,470.5 565.5,471C565.2,471.6 565.4,472 565.9,472C567.3,472 567.3,470.7 565.8,469.2C564.9,468.3 565,468 566.3,468C567.2,468 568,468.5 568,469.2C568,469.8 568.3,470 568.6,469.7C569,469.3 568.7,468.4 568,467.5C567,466.3 567,466 568.3,466C569.2,466 570.4,466.8 570.9,467.8C571.5,468.7 572,469 572,468.3C572,467.7 571.3,466.5 570.5,465.6C568.4,463.5 568.6,462.9 571.4,463.6C573,464 573.9,463.7 574.4,462.5C574.7,461.6 574.6,461.2 574.1,461.5C573.6,461.8 572.9,461.6 572.5,461C572.2,460.4 572.6,459.7 573.4,459.4C574.8,458.9 574.5,457.9 571.9,453C568.8,447.2 568.8,447.1 570.6,444.6C571.7,443.2 572.7,442.1 573,442.1C573.3,442.1 576.2,445.2 579.5,449C582.8,452.9 592.4,462.6 600.8,470.7C617.7,486.8 622.1,492 627.4,502.5C636.2,519.9 642.2,548.6 637.4,550.4C635.2,551.2 634.6,551.2 633.2,549.8Z" style="fill:white;fill-rule:nonzero;"/>
            <path d="M364.7,539.3C364.3,539 364,537.6 364,536.3C364,534.7 364.6,534 365.9,534C367,534 369.9,533.1 372.5,532C377.6,529.8 381,529.4 381,531.1C381,533.2 378.9,536 376.2,537.4C373,539 365.6,540.2 364.7,539.3Z" style="fill:white;fill-rule:nonzero;"/>
            <path d="M337,537.7C334.2,536.3 331.2,531.5 332.3,530.3C332.8,529.9 335.3,530.3 337.9,531.3C340.6,532.2 344.2,533 345.9,533C348.7,533 349,533.3 349,536C349,538.9 348.9,539 344.3,539C341.6,539 338.4,538.4 337,537.7Z" style="fill:white;fill-rule:nonzero;"/>
            <path d="M290.5,529.9C284.9,528.9 272,524.6 267.2,522.1C261.9,519.4 259,515.6 259,511.4C259,506.8 262.1,506.8 264.8,511.4C267.5,516 269.6,517.2 282,521.5C291.4,524.8 292.9,525 295.8,524C299.7,522.6 301.5,523.7 300.6,526.8C299.7,529.5 295.4,530.8 290.5,529.9Z" style="fill:white;fill-rule:nonzero;"/>
            <path d="M414.8,529.5C412.1,528 411.1,524.7 412.9,523.6C413.3,523.3 415,523.6 416.7,524.2C419.2,525.1 420.9,524.8 428.6,522.1C433.5,520.3 438.9,518.4 440.5,517.9C444.6,516.6 446.4,515.1 448.4,511.2C449.7,508.7 450.7,508 452.3,508.2C455.2,508.6 455.5,511.1 453.4,515.5C451.4,519.7 446.1,522.7 433.1,527C421.4,530.9 418.1,531.3 414.8,529.5Z" style="fill:white;fill-rule:nonzero;"/>
            <path d="M328,525.9C306.9,524.4 290,518.8 293,514.1C293.7,512.8 294.7,512.9 300.2,514.4C308.7,516.8 321.6,518.8 332.5,519.5C345.1,520.4 346,520.6 346,523.4C346,525.7 344.1,527.2 341.7,526.9C341,526.8 334.9,526.3 328,525.9Z" style="fill:white;fill-rule:nonzero;"/>
            <path d="M367.4,525.7C365.8,521.5 367.2,520.5 375.5,519.8C391.8,518.5 403.7,516.8 410.1,514.9C418.4,512.5 420,512.5 420,514.9C420,517.5 415.2,520.8 410.4,521.6C408.4,521.9 405.5,522.6 404.1,523.2C401.5,524.2 391.7,525.4 376.3,526.6C369.3,527.2 367.9,527 367.4,525.7Z" style="fill:white;fill-rule:nonzero;"/>
            <path d="M236.8,518.8C234.1,517.9 232.9,516 235,516C235.6,516 236,516.4 236,516.9C236,517.3 237,517.7 238.2,517.6C239.3,517.6 240.5,518.1 240.7,518.8C241.2,520.2 240.5,520.2 236.8,518.8Z" style="fill:white;fill-rule:nonzero;"/>
            <path d="M284,516.9C282.1,515.9 279.7,515.1 278.8,515C276.5,515 276.5,512.3 278.8,510.9C280.1,510.1 280.4,508.8 280.2,505.8C279.8,502 279.9,501.8 282.1,502.5C285.3,503.5 286.9,505 284.7,505C283.8,505 283,505.5 283,506C283,506.7 283.6,506.7 284.9,506.1C286.1,505.4 287.7,505.4 289.9,506.3C293.7,507.7 293.7,508.3 290.5,510.4C289.1,511.3 288.2,512.5 288.5,513C288.8,513.4 288.4,514 287.8,514.3C286.8,514.6 286.8,515 287.8,516.2C289.7,518.6 288,518.9 284,516.9Z" style="fill:white;fill-rule:nonzero;"/>
            <path d="M424,516.6C424,515.8 424.5,514.8 425.1,514.5C425.7,514.1 424.8,512.6 422.9,510.9C419.5,507.8 419.5,507 422.9,506.7C424,506.6 425,506.3 425,505.9C425,505.3 432.2,502 433.5,502C435.1,502 433.6,504.2 431.5,505C428.7,506.1 428.2,506.9 430.4,506.6C431.2,506.6 431.9,506.9 431.9,507.4C431.8,507.9 432.3,508.6 433,509C434.9,510.2 432.4,514.6 428.9,516.4C424.9,518.4 424,518.4 424,516.6ZM429.7,509.3C429.7,508.6 429.3,508 429,508C428.6,508 427.8,508.6 427.2,509.3C426.4,510.3 426.6,510.6 427.9,510.6C428.9,510.6 429.7,510 429.7,509.3Z" style="fill:white;fill-rule:nonzero;"/>
            <path d="M332,515.1C332,514 333.1,511.8 334.5,510.2C337.7,506.4 343.6,505 357.1,505C372.9,505 378.8,507.4 380.5,514.3C381.2,516.8 381,517 378,517C375.8,517 374.2,516.2 372.9,514.6C371.4,512.8 369.8,512.1 366,511.8C363.3,511.7 361,511.8 361,512.2C361,512.7 357.4,512.9 353,512.8C348.6,512.7 345,512.3 345,511.8C345,510.2 343,511 339.7,514C335.7,517.5 332,518 332,515.1Z" style="fill:white;fill-rule:nonzero;"/>
            <path d="M300.1,509C297.8,504.9 295.4,503.2 286.4,499.5C277.4,495.7 272.4,494.7 269.1,495.8C263.1,497.9 260,495 264,491C267.3,487.7 274.2,488.4 286.8,493.1C298.4,497.4 305.3,502.5 306.6,507.5C308.2,513.9 303.5,515 300.1,509Z" style="fill:white;fill-rule:nonzero;"/>
            <path d="M405.3,509.3C406.1,504.4 410,500.6 418.5,496.5C434.7,488.7 443.8,487 447.8,491.3C449,492.5 449.6,494 449.2,494.6C448,496.4 445,497 443,495.8C440.7,494.3 433.2,496.4 422.2,501.6C416.7,504.3 414.4,506 412.5,509C410.6,512 409.3,513 407.4,513C404.9,513 404.8,512.8 405.3,509.3Z" style="fill:white;fill-rule:nonzero;"/>
            <path d="M315.2,509.5C311.1,507.7 311.8,505.9 316.3,506.9C319.7,507.7 324,509.7 324,510.5C324,511.5 318.3,510.9 315.2,509.5Z" style="fill:white;fill-rule:nonzero;"/>
            <path d="M388,510.5C388,509.8 392.6,508 396.8,507C401.5,505.9 401.7,507.5 397,509.4C393.1,510.9 388,511.6 388,510.5Z" style="fill:white;fill-rule:nonzero;"/>
            <path d="M218.8,502.1C206.7,496.1 202.8,493.1 200.5,488.4C199.2,485.6 199,484.2 199.9,482.4C201.4,479 202.7,479.4 205,483.9C207.5,488.9 209.4,490.2 227,499.7C230,501.2 234.2,501.4 235.6,500C237.1,498.5 240,499.9 240,502C240,505.1 237.2,507 232.7,507C229.7,507 225.8,505.6 218.8,502.1Z" style="fill:white;fill-rule:nonzero;"/>
            <path d="M264,505.2C253.9,501.8 248.1,499.5 240.3,495.8C232.6,492.2 232,491.7 232,489C232,485.2 233,485.2 241.7,489.5C245.6,491.4 249.5,493 250.2,493C251,493 252,493.4 252.6,493.9C253.1,494.3 257.6,495.9 262.5,497.5C272.8,500.6 274,501.3 274,504.6C274,506.6 273.5,507 271.3,506.9C269.7,506.8 266.5,506.1 264,505.2Z" style="fill:white;fill-rule:nonzero;"/>
            <path d="M327.4,506.1C326.9,505.6 324.1,504.5 321.3,503.5C318.4,502.6 315.8,501.4 315.5,500.9C315.1,500.4 314,500 312.9,500C311.9,500 311,499.6 311,499C311,498.5 310.4,498 309.6,498C307.4,498 307.2,497.3 306.5,486C306.2,480.2 305.7,473.7 305.5,471.5C305.2,469.3 304.8,465.3 304.5,462.5C304.2,459.8 303.7,455.7 303.5,453.5C303.2,451.3 302.8,446.1 302.5,442C302.2,437.9 301.3,429.1 300.5,422.5C298.7,407.7 295.5,373.6 293.6,349L292.1,330.5L292.6,353C292.8,365.4 293.5,382 294,390C294.5,398 295.1,409.2 295.4,415C296.7,440.2 297.2,447.1 297.5,449.7C298.6,458.5 300.1,491 299.5,491C299.3,491 296.8,489.9 293.8,488.5C290.9,487.1 287.5,486 286.2,486C284.9,486 282.9,485.5 281.8,484.9C280.6,484.3 276.7,483.4 273.1,483C267.8,482.3 266,482.4 263.8,483.8C262.3,484.7 260.9,485.2 260.6,484.9C260.4,484.7 259.9,451.7 259.6,411.5C259.3,371.4 258.8,337.2 258.6,335.5C258.4,333.9 258.1,326 257.9,318L257.7,303.5L256.9,319C256.5,327.5 255.9,338.1 255.6,342.5C255.3,346.9 254.8,366.7 254.5,386.5C254,421 253.1,455.1 252.7,457.4C252.6,458 251.8,458.8 251,459.2C249.8,459.7 249.8,459.9 251.3,459.9C253.2,460 253.7,462 251.8,462C250.9,462 250.9,462.3 251.8,463.2C253.8,465.2 253.3,467.3 251,466.7C249.7,466.4 249.2,466.6 249.7,467.3C250.1,468 249.7,468.1 248.6,467.7C247.6,467.3 247.1,467.4 247.5,468.1C247.9,468.6 249.1,468.8 250.3,468.4C252.1,467.8 252.2,467.9 251,469.2C248.5,471.6 244.8,470.7 238.4,466.3C231.4,461.5 221.8,456.5 217.8,455.5C216.2,455.1 215,454.5 215,454.1C215,453.5 218.7,433 219.5,429.5C220.8,423 223.8,393.8 224.4,380.5L224.9,369.5L223,379C222,384.2 220.4,392.8 219.5,398C218.6,403.2 217.2,410 216.4,413C215.6,416 214.7,419.9 214.5,421.5C213.6,427.7 210.7,436.9 209.8,436.4C209.2,436 209.4,436.8 210,438.1C210.8,439.5 210.9,440.5 210.3,440.7C209.7,440.9 209.5,442.3 209.8,443.7C210.2,445.9 210,446.2 208.5,445.6C206.9,445 206.9,445.2 208.1,446.7C209.3,448.1 209.3,448.3 208,447.8C206.7,447.3 206.5,447.9 206.8,450.6C207.1,452.7 206.8,454 206.1,454C205.5,454 205,454.9 205,456.1C205,457.2 204.6,457.9 204.1,457.6C203.6,457.3 203.3,455.9 203.3,454.5C203.3,452.6 203.7,452 204.8,452.5C206,452.9 206.1,452.8 205.1,451.6C204.4,450.8 203.3,450.3 202.6,450.6C201.8,450.9 200.8,449.9 200.1,448.3C198.9,445.5 193.4,440.8 181.5,432.1C178.2,429.7 175.1,427.4 174.7,427C174.2,426.6 174.8,424.1 175.9,421.5C177.1,418.9 178.2,415.6 178.5,414.1C178.7,412.7 179.4,410.4 179.9,409C180.8,406.7 184.5,392 185.5,387C185.8,385.7 186.6,381.7 187.4,378.1C190.9,362.4 195.6,336 196.5,328C196.8,325 197.5,320 198,317C198.5,314 199.4,307.5 200,302.5C200.5,297.6 201.4,290.8 202,287.5C203.5,278.3 203.1,274.3 201.3,282C199.1,292 197.3,300.4 195,313C193.8,319.3 192.2,327.2 191.5,330.5C190.7,333.8 189.8,338.1 189.5,340C187.9,350.9 181.2,379.2 176.9,393.9C175.9,397.4 175,401.2 175,402.2C175,403.2 174.6,404.8 174.1,405.8C173.2,407.5 170.9,414 168.7,421.1C167.8,424.3 167.1,424.9 164.1,425.4C158.2,426.4 157.6,426.1 155.6,422.1C153.9,418.5 153.9,417.9 155.3,415.3C157,412.2 159.9,403.6 162.3,394.5C163.2,391.2 164.8,385.4 165.9,381.5C166.9,377.7 168.5,370.9 169.3,366.5C170.2,362.1 171.8,354 172.9,348.5C174,343 175.6,334.5 176.4,329.5C177.2,324.6 178.8,315.1 179.9,308.5C181,301.9 182.6,292.2 183.5,287C184.4,281.8 185.2,275.9 185.4,274C185.7,270.6 187.2,261.8 191,241.5C192,236 193.6,227.5 194.5,222.5C195.4,217.6 197,209.7 198,205C199,200.3 200.6,193.1 201.5,189C206.4,165.9 215.8,138.4 225.6,118C233,102.8 238,93.8 240.1,92C240.4,91.7 241.3,90.1 242,88.3C242.8,86.6 243.7,85.3 244.1,85.5C244.4,85.8 245.2,84.8 245.8,83.5C246.6,81.9 247.5,81.2 248.5,81.6C249.6,82.1 249.9,81.8 249.4,80.6C249.1,79.7 249.3,79 250,79C250.6,79 250.8,78.6 250.5,78C250.2,77.5 250.4,77 250.9,77C251.5,77 252,76.3 252,75.5C252,74.7 252.5,74 253,74C253.6,74 254,73.6 254,73C254,71.4 258,67.9 259,68.5C259.6,68.9 259.7,68.4 259.3,67.4C258.8,66.1 259,65.8 260.3,66.3C261.4,66.7 261.7,66.5 261.4,65.6C260.9,64.2 263.1,61.8 271.7,54.2C294.7,33.9 325.8,22.5 358.5,22.6C380.4,22.6 405.3,29.4 423.2,40.2C433,46 447,57.9 447,60.3C447,60.8 447.5,60.8 448,60.5C448.6,60.2 449,60.4 449,60.9C449,61.5 449.7,62 450.5,62C451.3,62 452,62.5 452,63C452,63.6 453.6,65.7 455.5,67.7C457.5,69.7 458.8,72 458.5,72.7C458.2,73.5 458.5,73.8 459.1,73.5C460.4,72.7 463.1,76 462.5,77.7C462.3,78.4 462.6,78.7 463.3,78.5C465.1,77.8 479.5,100.6 484.9,112.5C486.1,115.3 487.7,118.9 488.5,120.5C489.3,122.2 490.8,125.9 491.9,128.8C493.1,131.6 494.8,136.1 495.9,138.8C496.9,141.4 499.4,148.9 501.4,155.5C503.4,162.1 505.7,169.5 506.5,172C508.5,178.5 514.3,203.5 517.5,220C518.4,224.7 520,232.3 521,237C523.5,249 526.2,263.1 526.5,266C526.7,268.3 527.9,275 531.5,294C532.3,298.1 533.2,303.1 533.5,305C534.4,311.4 536.8,323.9 542.7,352.5C546.6,372 555,401.8 560.1,414.5C561.1,417.1 561,418.1 559.1,421.9C557.4,425.1 556.5,426 555.2,425.5C554.3,425.1 552,424.6 550.2,424.3C547.3,423.8 546.9,423.4 547.3,421.4C547.5,420.1 547.3,419 546.8,419C546.3,419 546.2,418.6 546.5,418C546.8,417.5 546.7,417 546.2,417C544.6,417 543.1,410.3 544.4,408.9C545.2,408 545.2,407.9 544.3,408.4C542.9,409.1 541.3,406.6 540.6,402.6C540.3,401.1 539.4,397.4 538.5,394.3C537.6,391.3 537.1,388.5 537.4,388.2C537.7,387.9 537.6,387.2 537.1,386.6C536.1,385.4 533.8,377.7 533.4,374.4C533.3,373.2 532.4,369.6 531.4,366.4C530.5,363.2 529.6,359.6 529.5,358.4C529.3,357.3 528.5,353.2 527.7,349.4C524.7,336 522.9,327.5 522.5,324.5C522.2,322.9 521.4,318.6 520.6,315C519.8,311.4 518.2,303.8 517,298C515.8,292.2 514.2,285.3 513.4,282.5C512.7,279.8 511.9,276.2 511.6,274.5C511.4,272.9 511.4,275.1 511.6,279.5C511.9,283.9 512.9,292.5 514,298.5C516.3,312.3 518.1,324.3 518.7,329.5C519.5,337.3 524.3,360.6 530.2,385C534.3,402.2 535.6,406.8 539.7,418.4C541,422.2 541.9,425.4 541.8,425.5C541.6,425.6 539,427.3 536,429.3C533,431.3 527.9,435 524.7,437.5C521.6,440 518.6,442 518.1,442C517.6,442 516.3,444.3 515.1,447.1C513.8,449.9 512.7,452 512.5,451.8C512.2,451.6 511.8,449.6 511.4,447.5C511.1,445.4 510.4,442.6 509.9,441.3C509.4,440 509.1,438.6 509.1,438.2C509.2,437.8 509.1,437.3 509,437C508.1,434.6 508.1,430.5 509.2,429.2C510.4,427.6 510.3,427.6 508.6,429C506.8,430.4 506.7,430.3 507.2,428.3C507.6,427 507.4,426 506.8,426C506.2,426 506,425.4 506.3,424.6C506.6,423.9 506.5,422.9 506,422.4C505.5,421.9 504.9,420.2 504.6,418.5C504.3,416.9 503.4,412.2 502.5,408.3C501.7,404.3 500.3,397.7 499.5,393.8C498.6,389.8 497.7,384.8 497.5,382.8C497.2,380.7 496.6,377.1 496.1,374.8C495.5,372.4 494.4,365.8 493.4,360C490.3,340.3 490.2,340.1 490.6,351.5C491,361.9 493.3,381.8 496.5,403C497.3,408.2 498.2,414.5 498.5,417C498.9,419.5 499.5,422.9 500,424.5C500.5,426.2 501.1,429.5 501.4,432C501.7,434.5 502.6,439.4 503.4,443C505.6,452.9 506.1,458 505.1,458C504.5,458 503.9,457.6 503.6,457.1C502.4,455.3 496.3,455 492.4,456.5C484.6,459.7 480.4,461.9 475.5,465.4C470.1,469.3 468.5,469.8 469.3,467.6C469.7,466.6 469.4,466.3 468.4,466.7C467.7,467 467,467.6 467,468.2C467,469.5 464,472.4 463.3,471.7C463,471.4 463.5,470.4 464.4,469.5C466.4,467.5 466.4,466.9 464.5,467.6C463.7,468 463,467.7 463,467.1C463,466.5 463.6,466 464.3,465.9C464.9,465.9 464.6,465.5 463.5,465C462.2,464.4 462,464.1 463,464.1C464.1,464 464.2,463.8 463.2,463.2C462.5,462.7 461.8,460.2 461.5,457.6C461.2,454.6 461.4,453.1 462,453.5C462.6,453.8 463,453.6 463,453.1C463,452.5 462.5,452 461.9,452C461.2,452 460.9,450.8 461.2,449C461.4,447.4 461.2,445.9 460.6,445.7C459.9,445.5 460,444.8 460.9,443.7C461.6,442.7 461.8,442 461.3,442C460.7,442 460.2,439.2 460.2,435.8C460.1,432.3 459.9,425.5 459.6,420.5C459.3,415.6 458.8,398.9 458.5,383.5C458.2,368.1 457.4,349 456.9,341C455,312.2 453.9,298.4 453.2,294.6C452.8,292.4 452.6,334.6 452.8,388.3C453,442.1 452.7,486 452.2,486C451.8,486 450.5,485.3 449.4,484.5C446.1,482 437.3,482.7 427.4,486.1C416.7,489.8 413.5,490.6 414.2,489.4C414.5,488.9 415.1,480.6 415.4,471C416.1,451.7 416.6,442.1 418,419C419,403.7 419.5,385.6 420.4,344.5C420.7,326.4 420.7,325.5 420,338C419.1,356.8 417.3,379.1 415.4,395.7C414.6,403 413.5,415.6 412.9,423.7C412.4,431.9 411.5,441.2 411,444.5C410.5,447.8 409.8,455.2 409.5,461C408.6,477.3 408.1,485 407.4,491.2C406.7,497.5 407.3,497 394,502.5C390.4,504 387.1,505.6 386.6,506C386.2,506.5 383.7,505.3 381.1,503.5C378.6,501.7 374.8,499.9 372.6,499.5C367.6,498.5 342,498.3 342,499.2C342,499.6 340.8,499.8 339.3,499.7C336.7,499.5 334.1,501 330,505.2C329.1,506.2 328,506.6 327.4,506.1ZM369.7,466.3C372.5,464.9 376.3,462.2 378.2,460.2C381.7,456.5 381.1,456.7 374.3,461.3C369.9,464.4 361.5,467 356.1,467C350.6,467 340.9,464 336.4,460.9C334.1,459.3 331.9,458 331.6,458C330.2,458 334.9,462.4 338.9,464.8C348.4,470.4 360.2,471 369.7,466.3ZM361.8,457.8C376.9,454.1 388.4,437.4 396,408C401.3,387.3 401.5,385.8 401.5,357.5C401.5,333.1 401.3,329.5 399.2,320C396.7,308.4 395.6,304.8 392.8,297.7C390.8,292.5 391.2,290.2 393.6,293.4C395.8,296.4 395.3,294.2 392.8,290.1C381.2,270.9 366.8,262.1 351.3,264.7C337.4,267.1 328.1,277 320.1,297.7C309.8,324.2 307.9,369 315.7,402.5C323.1,435 334.6,453.1 350.5,457.7C355.8,459.2 356.3,459.2 361.8,457.8ZM282.5,279.6C283.3,273 283.8,267.4 283.6,267.2C282.5,266.2 280.8,277.9 280.5,288.5C280.4,295.1 280.4,298.5 280.6,296C280.9,293.5 281.7,286.1 282.5,279.6ZM298,283.4C300,269.8 302.1,262.4 306.4,252.6C309.7,245.2 307.4,247 303.1,255.2C297.8,265.3 296,272.3 295.3,285.5C295,292.1 295,297.2 295.4,296.9C295.7,296.6 296.9,290.5 298,283.4ZM419.3,280.7C418.4,269.6 412.4,256.1 406,250.5L403.6,248.5L405.7,251.5C410.2,258 414.9,269.7 416.3,278C417.8,286.3 418.3,287.9 419,287.5C419.5,287.2 419.6,284.2 419.3,280.7ZM380.4,266.2C370.5,258.1 363.3,255.4 354.1,256.3C348.4,256.8 341.1,259.5 337.5,262.4C336.1,263.5 337,263.4 340.5,261.9C347.9,258.7 361.6,258.2 369.3,260.9C372.5,262 376.5,264.1 378.1,265.5C379.8,266.9 381.5,268 381.8,268C382.2,268 381.5,267.2 380.4,266.2ZM268,257.1C269.7,256.6 268.1,256.2 262.5,255.8C249.9,255 241.5,249.8 237.1,240C235.5,236.5 235,233.2 234.9,225.5C234.8,216.8 234.7,216 233.8,219.5C232.1,226.3 233.5,237.6 236.7,243.9C239.7,249.8 246.1,255.1 252.4,256.9C256.1,258 264.5,258.1 268,257.1ZM458.1,256.3C461.8,255.1 464.9,253.1 468,250C474.1,243.9 476.1,238 475.8,226.5C475.7,221.6 475.5,219.8 475.3,222.5C474.5,235.8 470.7,245.9 465.2,249.6C456.3,255.7 447.9,256.7 437,253.1C425.8,249.4 416.5,243.4 405.2,232.6C387.1,215.3 380.7,195.7 380.6,157.5C380.5,137.2 381.5,131.4 386.3,122.6C391.1,114.1 403.8,111.5 414.4,116.8C420.4,119.9 421.4,119.7 417.7,116.2C408.5,107.5 392.5,109.5 385.3,120.2C378.4,130.7 376.1,156.8 379.9,183C383.5,208 387.9,217.9 401.9,232.4C416.7,247.6 434.9,257.6 448.6,257.9C450.9,258 455.2,257.2 458.1,256.3ZM297.8,242.7C303.2,238.5 309.7,231.6 317,222.4C321.6,216.6 328.1,203.8 331.5,193.5C333.9,186.3 334.2,183.8 334.5,167.5C334.8,151.4 334.8,150.7 334,161.1C332.5,183.1 329.6,195.3 323.1,207.5C315.3,222.1 304.5,234.6 291.3,244.2C286.7,247.5 283,250.6 283,251.1C283,252.6 291,248.1 297.8,242.7ZM507.5,250.8C507.3,250.1 506.9,246.4 506.6,242.5C505.9,232.6 501.2,208.3 499.1,202.9C498.2,200.6 498.1,200.7 498.1,203.7C498,205.4 498.7,209.9 499.6,213.7C500.4,217.4 501.3,222 501.6,224C501.8,225.9 502.7,230.9 503.5,235C504.3,239.1 505.2,244.6 505.6,247.3C505.9,249.9 506.6,252 507.1,252C507.6,252 507.8,251.4 507.5,250.8ZM268.6,246.1C282.7,242.5 295.3,233.7 305.9,220.2C321.6,200.3 327,183.8 327,155.6C327,136.6 325.7,130.9 319.8,125.1C314.7,120 309.6,118.5 302.2,120.1C293.8,122 288.4,127.9 278.7,145.9C271.6,159 264,169.7 252.1,183.3C243.3,193.5 239,206.1 239,221.6C239,230.8 239.3,232.7 241.5,237C244.2,242.3 246.7,244.4 252.8,246.6C257.8,248.4 260.2,248.3 268.6,246.1ZM460.1,244.9C467,241.4 471,233 471,222.3C470.9,209.4 465.7,193.3 459.4,185.9C457.8,184.1 454.9,180.8 453,178.6C443.5,167.7 439.1,161 431.4,146C422.6,128.8 416.4,122 408,120.1C397.7,117.8 390.8,122.7 387.4,134.8C383.9,147 385.9,181.6 390.9,197.5C396.1,214 404.1,225 418.5,235.2C426.7,241 437.7,245.9 446,247.3C449.9,248 456.1,246.9 460.1,244.9ZM377.5,243.1C378.2,240.9 376.9,237.1 370.5,223C362.8,205.9 361.5,203.6 359,202.2C354.7,199.8 351.5,202 348.1,209.2C336.8,233.5 333.9,243 337,245.1C340.9,247.5 344.3,245.1 350.7,235.7C355.2,229.1 357.3,229.4 363,237.2C369.8,246.6 375.6,249 377.5,243.1ZM207,222.5C207,220.9 207.6,216.4 208.4,212.5C209.2,208.7 210.9,200.8 212,195C213.8,185.9 216.1,175.3 217.6,168.5C218,166.8 217.9,166.7 217.1,168.1C214,173 203.9,222.3 204.1,231.6L204.2,235.5L205.6,230.5C206.3,227.8 207,224.2 207,222.5ZM458.9,174.3C449.8,164.8 444.4,156.8 435.4,139.2C431.8,132.2 428.4,126.1 427.8,125.5C425.9,123.5 437.2,147.7 441.8,155.5C446.1,162.7 460.5,179 462.6,179C463,179 461.4,176.9 458.9,174.3ZM258.3,166.6C263.4,160.5 270.7,149.3 273.5,143.3C276.2,137.7 281,124.8 281,123.4C281,122.9 278,128.5 274.5,135.9C266.8,151.8 263.2,157.5 253.1,169.5C246.4,177.5 246.1,178.1 250.2,174.6C252.7,172.5 256.3,168.9 258.3,166.6ZM234.8,131.5C237.2,124.9 240,117.1 241.1,114.2C242.3,111.3 243,108.6 242.6,108.3C242.3,107.9 241.8,107.9 241.6,108.1C240.5,109.3 232.9,129.7 231.6,135.1C230.7,138.6 229.7,142.4 229.4,143.5C229,144.8 229.1,145.1 229.7,144.5C230.2,144 232.5,138.1 234.8,131.5ZM481.5,135.6C477.8,122.3 469.8,103.2 467,101.5C465.9,100.8 466.5,102.9 468.7,107C469.4,108.4 470,110 470,110.7C470,111.4 470.7,113.6 471.6,115.7C475.6,125 476.2,126.6 476.5,128C476.7,128.8 478.1,133 479.7,137.4C482.8,146.2 484.1,145 481.5,135.6ZM324.6,120.2C321.6,114.5 314.7,110.6 307.5,110.7C302.1,110.7 293.9,114.2 290.6,117.9C288.2,120.6 288.4,120.6 295.4,117C305.4,111.9 316.2,113.2 322.9,120.4C326,123.7 326.4,123.7 324.6,120.2ZM245.4,102C244.7,101.4 243,104.2 243.1,106C243.1,106.9 243.7,106.5 244.5,105C245.2,103.6 245.6,102.3 245.4,102Z" style="fill:white;fill-rule:nonzero;"/>
            <path d="M255.6,239C243.2,231.1 244.6,205.6 258.5,188.5C262.5,183.6 262.2,186.1 257.6,195.3C248.1,214.5 249,232.2 260,237.8C262.4,239 265.7,240 267.2,240C268.7,240 270,240.5 270,241C270,243.2 260,241.7 255.6,239Z" style="fill:white;fill-rule:nonzero;"/>
            <path d="M443,241.5C443,241.2 444.7,240.3 446.7,239.5C455.4,235.8 457.9,231.3 458.1,218.8C458.2,208.7 457.4,205.6 451.3,193.6C449.4,189.9 448.1,186.6 448.3,186.3C449.4,185.3 456.9,196.2 459.5,202.7C463,211.3 464,224.5 461.6,230.1C459.3,235.7 455.3,239.8 451.2,241C447.3,242 443,242.3 443,241.5Z" style="fill:white;fill-rule:nonzero;"/>
            <path d="M439.3,505.4C439,504.5 439.1,503 439.7,502.2C440.5,500.9 449.6,497.1 462,493C464.8,492.1 470.8,489.3 473,487.9C478.4,484.6 482,484.3 482,487.3C482,490.8 472,496.3 451,504.2C442.4,507.4 440.2,507.6 439.3,505.4Z" style="fill:white;fill-rule:nonzero;"/>
            <path d="M475.2,505.4C474,504.6 473,503.1 473,502.1C473,499.9 475.8,498.6 477.5,500C479.2,501.4 483.1,500 493.5,494.5C505.6,488.1 506.2,487.6 508.5,483.3C510.9,478.8 513.4,478.3 513.8,482.4C514.6,489.3 509.7,493.8 491.9,502.5C482,507.3 478.7,507.9 475.2,505.4Z" style="fill:white;fill-rule:nonzero;"/>
            <path d="M225.2,492.8C224.5,492.1 224,491 224,490.3C224,489.5 223.3,488.7 222.5,488.4C221.7,488 221,487.3 221,486.8C221,486.2 221.7,486 222.4,486.3C223.4,486.7 223.7,486.4 223.3,485.4C223,484.7 223.3,484 223.9,484C224.7,484 224.8,483.5 224,482.1C221.7,477.6 223.4,475.5 226.7,478.8C227.7,479.9 229.4,481 230.5,481.4C232.4,482.1 232.4,482.2 230.1,484C228.7,485 226.9,485.5 226.1,485.2C224.7,484.7 224.7,484.8 225.9,486.4C227.1,487.8 227.1,488.3 226.1,488.9C225.1,489.5 225.4,490.3 227.1,491.9C228.7,493.4 229,494 227.9,494C227.1,494 225.9,493.5 225.2,492.8Z" style="fill:white;fill-rule:nonzero;"/>
            <path d="M488.2,490.9C488.4,490.2 489.2,489.4 489.9,489.2C490.7,488.9 491.1,489.3 490.8,490.1C490.6,490.8 489.8,491.6 489.1,491.8C488.3,492.1 487.9,491.7 488.2,490.9Z" style="fill:white;fill-rule:nonzero;"/>
            <path d="M238,482.2C230.9,474.7 219.5,468.5 214.1,469.3C210.4,469.8 207,468.3 207,466.3C207,465.7 208.6,464.5 210.5,463.6C213.8,462 214.5,462 219.3,463.4C226.3,465.5 238.9,473 242.8,477.5C246.1,481.2 247.4,488 244.8,488C244.1,488 241,485.4 238,482.2Z" style="fill:white;fill-rule:nonzero;"/>
            <path d="M466,484.2C466,481.1 466.7,479.7 469.8,476.8C471.8,474.8 474.9,472.5 476.5,471.6C478.2,470.7 481.3,468.9 483.5,467.5C485.7,466.2 489.7,464.3 492.4,463.4C496.6,462 497.9,461.9 500.9,463C506.5,465 507.5,467.5 503.5,469C501.7,469.7 500.4,469.6 499.1,468.8C497.6,467.9 495.7,468.4 488.6,472C480.8,475.9 476,479.7 470.8,485.9C467.9,489.3 466,488.6 466,484.2Z" style="fill:white;fill-rule:nonzero;"/>
            <path d="M486,486.9C486,486.4 486.3,486.1 486.8,486.3C487.2,486.6 488.1,486.1 488.9,485.2C490.2,483.9 490.1,483.8 487.9,484.3C486.1,484.8 484.9,484.4 483.6,482.9C481.6,480.5 481.4,480.7 486.4,478.6C491.1,476.6 491.1,476.6 490.4,478.5C490,479.3 489.2,480 488.5,480C487.8,480 486.9,480.7 486.6,481.6C486.1,483 486.2,483.1 487.5,482C489.3,480.5 489.5,480.7 490.4,483.7C490.9,485.3 490.6,486.2 489.1,486.9C486.6,488.3 486,488.3 486,486.9Z" style="fill:white;fill-rule:nonzero;"/>
            <path d="M206.3,477.7C200.7,474.6 196.9,471.9 196.6,470.7C196.3,469.4 195.6,468.9 194.5,469.4C192.6,470.1 188,467.3 188,465.4C188,464.6 187.6,463.9 187,463.9C186.5,463.8 185.6,463.6 185,463.5C184.5,463.4 183.5,463.2 182.9,463.1C182.3,463.1 182,462.4 182.3,461.6C182.6,460.8 182.2,459.9 181.4,459.6C179.9,459 179.5,455.5 180.8,454.6C181.3,454.3 185.9,456.9 191.1,460.3C196.3,463.7 203,467.8 206,469.4C216.6,475 220.2,479.1 216.8,481.7C215.9,482.4 212.6,481.1 206.3,477.7Z" style="fill:white;fill-rule:nonzero;"/>
            <path d="M496.1,481.7C493.6,479.2 495.1,476.9 502,472.5C505.9,470 509.2,468 509.4,468C509.7,468 514.6,464.9 520.4,461C526.2,457.2 531.9,454 533,454C539.2,454 529.7,465 519.1,470.1C515.5,471.9 511.7,474.1 510.6,475.2C507,478.5 497.3,482.9 496.1,481.7Z" style="fill:white;fill-rule:nonzero;"/>
            <path d="M168,472.8C155.2,464.3 150,459.2 150,455.3C150,453.6 150.6,451.7 151.4,451.1C152.5,450.2 153.5,450.9 156.2,454.8C159.8,459.7 176.3,472 179.4,472C180.3,472 181.9,471.4 183,470.8C184.6,469.8 185.3,469.8 186.7,471.3C188.3,472.9 188.3,473.1 186.4,475.7C182.7,480.7 178.9,480 168,472.8Z" style="fill:white;fill-rule:nonzero;"/>
            <path d="M528.2,475.7C527,474.4 526,472.6 526,471.7C526,469.4 528.6,468.5 530.6,470.1C531.5,470.8 532.8,471.5 533.6,471.6C535.4,471.9 556.1,458 557.2,455.7C557.6,454.8 558.4,453.2 558.9,452.3C559.3,451.3 560.6,450.5 561.6,450.5C563,450.5 563.6,451.3 563.8,453.9C564.1,456.9 563.5,457.9 558.7,462.4C552.2,468.6 536.6,478 533,478C531.5,478 529.4,477 528.2,475.7Z" style="fill:white;fill-rule:nonzero;"/>
            <path d="M172.1,462.4C170.3,460.5 169,458.7 169.3,458.3C169.9,457.7 177,464.3 177,465.4C177,466.8 175.3,465.7 172.1,462.4Z" style="fill:white;fill-rule:nonzero;"/>
            <path d="M537,464.6C537,463.9 537.9,463 539,462.7C540.1,462.4 541,462.5 541,462.9C541,463.2 540.1,464.1 539,464.8C537.4,465.8 537,465.8 537,464.6Z" style="fill:white;fill-rule:nonzero;"/>
            <path d="M543.5,459.3C543.9,457.9 543.7,457 543.1,457C542.5,457 542,456.6 542,456C542,454.2 543.9,455 544.5,457.1C544.9,458.3 544.7,459.7 544,460.4C543,461.2 542.9,461 543.5,459.3Z" style="fill:white;fill-rule:nonzero;"/>
            <path d="M173,456.7C173,455.8 172.5,455 171.9,455C171.4,455 171.2,454.5 171.6,453.9C172,453.2 172.3,451.4 172.2,449.9C172.1,446.8 173.7,446 174.6,448.5C175,449.3 175.9,450 176.8,450C178.1,450 178,450.3 176.5,452C175.5,453.1 174.2,453.7 173.6,453.3C173,452.9 173.1,453.4 173.9,454.4C175,455.7 175,456.4 174.2,457.2C173.3,458.1 173,458 173,456.7Z" style="fill:white;fill-rule:nonzero;"/>
            <path d="M186.4,452.2C183.2,448.6 178.4,444.9 173.7,442.1C166.7,438.2 165.8,437.9 162.9,438.9C157.6,440.7 154.8,436.7 159.2,433.6C162.3,431.4 167.8,431.7 172.5,434.3C187,442.3 195,449.7 195,455.1C195,459.6 192.2,458.7 186.4,452.2Z" style="fill:white;fill-rule:nonzero;"/>
            <path d="M519.7,457.3C518.4,456.1 519,452.5 520.9,449.4C522.9,446.1 531.5,439.2 539.3,434.7C543.2,432.4 545,432 549.7,432.2C553.8,432.4 555.6,433 556.4,434.3C557.3,435.8 557.1,436.4 555.6,437.6C554.4,438.4 552.8,438.7 551.6,438.3C547.9,437.1 546,437.8 537.2,443.7C531.8,447.3 527.5,451.1 525.7,453.8C523,457.8 521.2,458.9 519.7,457.3Z" style="fill:white;fill-rule:nonzero;"/>
            <path d="M538.4,451.5C536.5,449.8 536,449 537.1,449C537.9,449 539.2,449.6 540,450.3C541.2,451.3 541.2,451.2 540.1,449.7C538.5,447.6 539,446.7 541.4,447.6C543.3,448.3 543.6,452 541.8,452C540.9,452 541,452.4 542,453C542.8,453.5 543,454 542.4,454C541.8,454 540,452.9 538.4,451.5Z" style="fill:white;fill-rule:nonzero;"/>
            <path d="M162.5,451.8C156.5,448.5 141.2,434.4 135.9,427.2C132.6,422.9 132.1,421.7 133,420C133.6,418.9 134.4,418 134.8,418.1C135.2,418.1 138.2,421.1 141.5,424.8C146.9,430.9 154.8,438 163.9,444.9C167.1,447.3 167.9,450 165.7,451.8C164.9,452.5 163.9,452.5 162.5,451.8Z" style="fill:white;fill-rule:nonzero;"/>
            <path d="M548.1,450.6C546.3,448.5 547.7,446.5 553.8,441.9C557,439.6 564.2,432.9 569.9,427.1C579.6,417.3 580.3,416.7 581.6,418.5C582.4,419.5 583,421 583,421.7C583,425.1 553.7,452 550,452C549.6,452 548.7,451.4 548.1,450.6Z" style="fill:white;fill-rule:nonzero;"/>
            <path d="M541,446.2C541,445.7 541.7,444.9 542.6,444.6C543.6,444.2 544,444.5 543.8,445.2C543.3,446.7 541,447.5 541,446.2Z" style="fill:white;fill-rule:nonzero;"/>
            <path d="M121.4,436.8C115.9,431 109.2,421.6 107.4,417.5C105.6,413.1 105.6,409.6 107.5,406C108.9,403.3 114.8,398 116.3,398C117.8,398 116.9,403.4 115,406C113.5,408.1 113.3,409 114.2,409.3C115.2,409.7 115.2,410 114.3,410.7C113.5,411.3 113.4,412.1 114,413C114.8,414.3 115,414.2 115,412.7C115,410.3 118.4,410.9 118.8,413.4C119,414.4 118.8,415 118.3,414.7C117.8,414.3 117.3,414.7 117.3,415.4C117.3,416.2 117.9,416.6 118.5,416.3C119.2,416.1 120.2,417.2 120.8,418.9C121.4,420.6 123.5,423.5 125.4,425.5C128.8,428.9 130.2,433 127.9,433C127.4,433 127.2,433.5 127.5,434.1C127.9,434.6 129.5,435 131.2,434.8C133.3,434.6 134.6,435.1 135.4,436.3C136.9,438.8 133.9,441 129,441C126.1,441 124.7,440.2 121.4,436.8Z" style="fill:white;fill-rule:nonzero;"/>
            <path d="M582.1,440.1C578.8,439.2 577,436.3 579,435C579.8,434.4 581.2,434.1 582,434.1C584.9,434.3 587.5,433.8 586.3,433.3C584.7,432.7 584.6,430 586,430C586.6,430 587.3,430.7 587.6,431.5C588,432.3 588.7,432.7 589.2,432.4C589.8,432 589.7,431.4 588.9,430.9C587.9,430.3 588,429.7 589.5,428C591.1,426.2 591.1,426 589.7,426.6C587.4,427.4 587.6,426.4 590,423.7C591.8,421.8 592.2,421.7 593.1,423C594,424.2 594.1,424.2 593.6,422.7C593.2,421.6 593.8,419.8 595,418.3C596.1,416.9 597,414.8 597,413.8C597,412.4 597.5,412 598.4,412.3C599.5,412.7 599.7,412.4 599.3,411.3C598.9,410.4 599.1,409.9 599.6,410.3C601.3,411.3 600.6,406.3 598.8,404.3C596.9,402.2 596.4,398.5 598,397.5C599.5,396.6 606.8,403.8 608,407.6C608.6,409.5 608.8,412.5 608.5,414.3C607.3,419.8 593.4,438.5 589.7,439.5C585.6,440.7 584.5,440.8 582.1,440.1Z" style="fill:white;fill-rule:nonzero;"/>
            <path d="M142.5,421.1C142.2,420.5 141.6,417 141.1,413.2C140.1,404.9 139,403.1 133.4,399.7C128.7,396.8 128.2,395.9 130.5,394C133.8,391.3 141.5,396.2 145.1,403.2C148.4,409.8 147.7,422 143.9,422C143.5,422 142.9,421.6 142.5,421.1Z" style="fill:white;fill-rule:nonzero;"/>
            <path d="M568,418.9C567.3,417.8 567.1,416.2 567.4,415.4C567.7,414.6 567.5,414 567.1,414C565.9,414 567.4,407.9 569.9,402.8C572.4,397.6 576.7,394.1 581.6,393.3C584.7,392.8 585,393 585,395.2C585,397 584,398.2 580.9,399.9C578,401.6 576.2,403.5 574.8,406.7C573.7,409.1 573.1,411.7 573.4,412.5C574.1,414.5 571.8,421 570.4,421C569.7,421 568.6,420.1 568,418.9Z" style="fill:white;fill-rule:nonzero;"/>
            <path d="M123.7,411.3C121.1,408.3 118.9,398.4 119.6,392.1C121.2,377.3 125.4,369.9 135.1,365.1C141.6,361.9 146.6,361.2 150.3,363.1C155.9,366.1 153.9,369.4 147.1,368.5C143.4,368 141.6,368.4 138,370.3C131.8,373.6 129.5,377.5 127.7,387.3C126.1,395.8 126.5,401.6 129.1,406.6C131.6,411.5 127.3,415.2 123.7,411.3Z" style="fill:white;fill-rule:nonzero;"/>
            <path d="M585.4,411.6C585.1,410.7 585.5,407.9 586.4,405.3C589.2,397.3 587.9,384.1 583.7,376.3C582.8,374.5 580,371.9 577.5,370.4C573.7,368.2 572.3,367.9 568.2,368.5C564.3,369 563.1,368.8 562,367.5C560.8,366 560.9,365.6 563,364C566.5,361.4 569.7,361 575.1,362.6C581.8,364.6 587.7,369.5 591.4,376C594.4,381.3 594.5,381.9 594.5,393.5C594.5,403.8 594.2,406 592.4,409C590.2,412.8 586.4,414.2 585.4,411.6Z" style="fill:white;fill-rule:nonzero;"/>
            <path d="M566,391.4C559.4,388.7 555,385 555,382.1C555,379.1 557.8,379.5 562,383C564.2,384.9 566.5,386 568.5,386C570.2,386 572.5,386.7 573.8,387.5C575.6,388.9 575.8,389.4 574.8,391C573,393.8 572.1,393.9 566,391.4Z" style="fill:white;fill-rule:nonzero;"/>
            <path d="M141,391.5C139.1,389.2 141.9,386.7 147.8,385.1C150.5,384.5 153.4,383 154.3,382C156.5,379.4 159,379.4 159,382.1C159,385.7 157,388.1 151.7,390.6C145.7,393.4 142.8,393.6 141,391.5Z" style="fill:white;fill-rule:nonzero;"/>
            <path d="M144.3,378.4C143.5,376.4 145.6,374.8 155.5,369.5C161.9,366.1 163.2,365.7 164,367C165.8,369.8 165.2,370.5 156.7,375.8C149.5,380.2 145.4,381.1 144.3,378.4Z" style="fill:white;fill-rule:nonzero;"/>
            <path d="M562.9,378.2C561.6,377.2 558.4,375.1 555.8,373.6C552.1,371.6 551,370.3 551,368.5C551,365 552.7,365.3 562.2,370.6C572.2,376.1 572.7,376.5 571,378.5C569.3,380.5 565.8,380.4 562.9,378.2Z" style="fill:white;fill-rule:nonzero;"/>
            <path d="M155.5,361.6C153.6,360.2 153.6,360.2 155.5,358C158.5,354.6 160.9,353.7 162.6,355.1C164.5,356.6 164.4,359.5 162.4,361.4C160.5,363.4 158,363.4 155.5,361.6Z" style="fill:white;fill-rule:nonzero;"/>
            <path d="M553.2,361.4C550.6,359.6 550.6,356.3 553.2,354.6C554.7,353.7 555.6,354.1 558.2,356.8C561.4,360 561.4,360.2 559.6,361.6C557.1,363.4 556,363.4 553.2,361.4Z" style="fill:white;fill-rule:nonzero;"/>
        </g>
    </g>
</svg>
