<?xml version="1.0" encoding="UTF-8" standalone="no"?>
<!DOCTYPE svg PUBLIC "-//W3C//DTD SVG 1.1//EN" "http://www.w3.org/Graphics/SVG/1.1/DTD/svg11.dtd">
<svg width="100%" height="100%" viewBox="0 0 95 73" version="1.1" xmlns="http://www.w3.org/2000/svg" xmlns:xlink="http://www.w3.org/1999/xlink" xml:space="preserve" xmlns:serif="http://www.serif.com/" style="fill-rule:evenodd;clip-rule:evenodd;stroke-linejoin:round;stroke-miterlimit:2;">
    <g transform="matrix(1,0,0,1,-878.797,-1130.97)">
        <g id="Goblin-ALLY" serif:id="Goblin ALLY" transform="matrix(2.55135e-16,4.16667,-4.16667,2.55135e-16,2634.07,-300.292)">
            <g transform="matrix(1,0,0,1,360.813,409.886)">
                <path d="M0,0.133C0.002,4.579 -3.37,8.305 -7.783,8.74C-8.94,8.854 -10.072,8.741 -11.183,8.406C-11.304,8.369 -11.403,8.328 -11.512,8.454C-11.966,8.982 -12.573,9.304 -13.197,9.561C-14.017,9.898 -14.75,10.344 -15.377,10.97C-15.514,11.106 -15.663,11.233 -15.838,11.319C-15.902,11.35 -15.973,11.426 -16.053,11.344C-16.125,11.27 -16.077,11.192 -16.047,11.123C-15.802,10.553 -15.486,10.025 -15.105,9.535C-14.916,9.292 -14.73,9.048 -14.481,8.858C-14.066,8.543 -13.831,8.13 -13.719,7.611C-13.654,7.308 -13.701,7.155 -13.948,6.966C-18.486,3.48 -18.419,-3.427 -13.819,-6.833C-13.647,-6.96 -13.585,-7.069 -13.672,-7.264C-13.711,-7.351 -13.743,-7.448 -13.751,-7.542C-13.801,-8.102 -14.177,-8.44 -14.556,-8.79C-15.227,-9.41 -15.689,-10.176 -16.057,-11.005C-16.091,-11.082 -16.11,-11.163 -16.043,-11.226C-15.972,-11.293 -15.915,-11.208 -15.857,-11.185C-15.674,-11.11 -15.527,-10.978 -15.392,-10.842C-14.773,-10.22 -14.05,-9.771 -13.24,-9.435C-12.573,-9.159 -11.929,-8.822 -11.454,-8.249C-11.34,-8.113 -11.233,-8.157 -11.103,-8.196C-6.746,-9.466 -2.18,-7.204 -0.558,-2.972C-0.174,-1.971 0,-1.003 0,0.133" style="fill:rgb(104,33,95);fill-rule:nonzero;"/>
            </g>
            <g transform="matrix(1,0,0,1,344.966,421.01)">
                <path d="M0,-22.129C0.098,-22.051 0.154,-22.02 0.192,-21.975C0.679,-21.4 1.324,-21.03 1.946,-20.632C2.079,-20.547 2.221,-20.467 2.37,-20.419C3.119,-20.175 3.737,-19.733 4.269,-19.166C4.529,-18.889 4.847,-18.71 5.187,-18.56C5.389,-18.471 5.578,-18.401 5.589,-18.113C5.597,-17.904 5.937,-17.741 6.108,-17.869C6.302,-18.014 6.399,-17.883 6.507,-17.794C7.137,-17.277 7.652,-16.657 8.105,-15.982C8.236,-15.786 8.373,-15.594 8.535,-15.382C8.389,-15.755 8.626,-15.704 8.823,-15.684C9.174,-15.649 9.526,-15.677 9.875,-15.658C10.468,-15.625 10.939,-15.323 11.338,-14.897C11.82,-14.382 12.178,-13.763 12.705,-13.286C12.94,-13.073 13.18,-12.866 13.411,-12.648C13.783,-12.297 13.982,-11.875 14.03,-11.353C14.111,-10.464 13.855,-9.75 13.126,-9.206C12.478,-8.722 12.037,-8.034 11.477,-7.462C10.977,-6.952 10.419,-6.592 9.687,-6.552C9.257,-6.529 8.839,-6.376 8.4,-6.437C8.328,-6.447 8.302,-6.349 8.261,-6.294C7.734,-5.591 7.213,-4.881 6.52,-4.325C6.405,-4.233 6.31,-4.086 6.108,-4.254C5.95,-4.386 5.591,-4.189 5.585,-3.97C5.578,-3.715 5.41,-3.639 5.236,-3.568C4.838,-3.407 4.49,-3.183 4.193,-2.868C3.684,-2.328 3.062,-1.971 2.375,-1.679C1.596,-1.349 0.897,-0.865 0.303,-0.248C0.224,-0.166 0.155,-0.073 0.001,0C0.225,-0.529 0.491,-0.979 0.85,-1.377C1.195,-1.761 1.592,-2.082 2.004,-2.383C2.288,-2.591 2.506,-2.845 2.671,-3.162C2.548,-3.054 2.426,-2.947 2.281,-2.82C2.253,-3.041 2.324,-3.227 2.371,-3.415C2.534,-4.066 2.785,-4.687 3.022,-5.313C3.064,-5.424 3.081,-5.524 3.037,-5.641C2.895,-6.016 3.002,-6.31 3.345,-6.519C3.374,-6.537 3.396,-6.565 3.42,-6.59C3.425,-6.595 3.425,-6.604 3.428,-6.615C3.324,-6.633 3.223,-6.593 3.155,-6.537C2.815,-6.258 2.512,-6.434 2.215,-6.606C0.834,-7.408 0.124,-8.665 -0.242,-10.176C-0.484,-11.18 -0.282,-12.097 0.09,-13.03C0.464,-13.97 1.103,-14.666 1.876,-15.273C2.1,-15.45 2.36,-15.561 2.601,-15.706C2.707,-15.771 2.788,-15.736 2.865,-15.673C3.03,-15.537 3.229,-15.52 3.468,-15.481C3.399,-15.531 3.366,-15.561 3.329,-15.58C2.968,-15.769 2.908,-15.858 2.994,-16.26C3.059,-16.558 3.027,-16.818 2.91,-17.101C2.667,-17.686 2.454,-18.285 2.318,-18.907C2.293,-19.024 2.278,-19.142 2.247,-19.321C2.421,-19.166 2.543,-19.057 2.666,-18.948C2.532,-19.208 2.375,-19.443 2.132,-19.622C1.326,-20.217 0.565,-20.857 0.136,-21.799C0.107,-21.863 0.075,-21.926 0.046,-21.99C0.036,-22.012 0.03,-22.037 0,-22.129" style="fill:white;fill-rule:nonzero;"/>
            </g>
            <g transform="matrix(1,0,0,1,351.427,403.289)">
                <path d="M0,-0.892C0.326,-0.894 0.619,-0.864 0.8,-0.563C0.896,-0.404 0.89,-0.247 0.816,-0.086C0.795,-0.039 0.77,0.02 0.706,0.005C0.652,-0.007 0.6,-0.018 0.571,-0.094C0.435,-0.456 -0.043,-0.602 -0.332,-0.356C-0.473,-0.235 -0.576,-0.239 -0.69,-0.353C-0.823,-0.483 -0.716,-0.605 -0.639,-0.7C-0.47,-0.912 -0.213,-0.87 0,-0.892" style="fill:white;fill-rule:nonzero;"/>
            </g>
            <g transform="matrix(1,0,0,1,351.438,416.607)">
                <path d="M0,0.91C-0.187,0.936 -0.392,0.844 -0.582,0.739C-0.695,0.677 -0.831,0.551 -0.722,0.397C-0.63,0.267 -0.509,0.231 -0.348,0.366C-0.027,0.634 0.442,0.474 0.553,0.076C0.566,0.03 0.564,-0.007 0.618,-0.016C0.678,-0.026 0.711,0.003 0.747,0.05C0.932,0.288 0.872,0.6 0.601,0.781C0.432,0.895 0.24,0.909 0,0.91" style="fill:white;fill-rule:nonzero;"/>
            </g>
            <g transform="matrix(1,0,0,1,348.946,418.031)">
                <path d="M0,-16.148C0.644,-15.452 1.195,-14.697 1.517,-13.792C1.583,-13.611 1.465,-13.559 1.359,-13.485C1.311,-13.451 1.236,-13.431 1.252,-13.353C1.268,-13.276 1.346,-13.28 1.404,-13.277C1.662,-13.261 1.82,-13.099 1.873,-12.879C1.957,-12.531 2.217,-12.454 2.5,-12.416C2.684,-12.391 2.797,-12.32 2.835,-12.142C2.866,-11.996 2.96,-11.924 3.093,-11.872C3.531,-11.699 3.907,-11.421 4.292,-11.154C4.649,-10.906 4.797,-10.561 4.855,-10.154C4.874,-10.024 4.896,-9.895 4.921,-9.74C5.241,-10.395 5.659,-10.435 6.176,-10.477C6.116,-10.725 5.988,-10.903 5.736,-10.986C5.51,-11.06 5.292,-11.158 5.067,-11.233C4.853,-11.306 4.633,-11.363 4.382,-11.437C4.609,-11.606 4.829,-11.701 5.067,-11.756C5.254,-11.8 5.396,-11.868 5.466,-12.077C5.535,-12.283 5.713,-12.382 5.972,-12.384C5.889,-12.323 5.831,-12.287 5.781,-12.242C5.691,-12.162 5.684,-12.047 5.71,-11.947C5.74,-11.834 5.853,-11.867 5.936,-11.879C6.271,-11.929 6.476,-11.77 6.695,-11.522C7.118,-11.04 7.636,-10.647 8.047,-10.148C8.228,-9.928 8.411,-9.706 8.508,-9.444C8.61,-9.166 8.802,-8.997 9.053,-8.825C9,-9.192 8.835,-9.499 8.728,-9.841C9.502,-9.364 9.6,-7.055 8.712,-6.258C8.876,-6.704 9.015,-7.085 9.169,-7.504C8.835,-7.234 8.622,-6.942 8.446,-6.596C8.127,-5.968 7.602,-5.498 7.09,-5.025C6.987,-4.929 6.863,-4.847 6.783,-4.735C6.548,-4.406 6.279,-4.171 5.836,-4.279C5.784,-4.292 5.72,-4.269 5.71,-4.21C5.694,-4.115 5.687,-4.011 5.761,-3.934C5.814,-3.878 5.882,-3.835 5.965,-3.771C5.689,-3.764 5.524,-3.894 5.444,-4.115C5.389,-4.268 5.296,-4.333 5.149,-4.368C4.884,-4.431 4.637,-4.534 4.355,-4.718C4.804,-4.819 5.179,-4.964 5.558,-5.096C5.989,-5.246 6.037,-5.287 6.182,-5.69C5.719,-5.816 5.15,-5.758 4.958,-6.423C4.882,-6.099 4.821,-5.838 4.759,-5.577C4.712,-5.381 4.605,-5.227 4.446,-5.101C3.991,-4.741 3.547,-4.366 2.979,-4.188C2.909,-4.166 2.883,-4.113 2.865,-4.054C2.756,-3.709 2.478,-3.594 2.16,-3.548C2.041,-3.531 1.993,-3.497 1.94,-3.378C1.834,-3.138 1.844,-2.791 1.393,-2.769C1.673,-2.599 1.564,-2.424 1.491,-2.255C1.13,-1.414 0.641,-0.656 0,0C-0.05,0.012 -0.073,-0.005 -0.059,-0.058C0.357,-0.779 0.91,-1.416 1.236,-2.196C1.337,-2.437 1.288,-2.563 1.107,-2.702C1.05,-2.746 0.965,-2.775 0.949,-2.87C1.175,-3.015 1.522,-2.925 1.632,-3.306C1.729,-3.637 1.447,-3.828 1.448,-4.121C1.525,-4.111 1.574,-4.053 1.626,-4.002C1.975,-3.661 2.454,-3.733 2.674,-4.174C2.922,-4.67 3.127,-5.189 3.444,-5.647C3.724,-6.053 4.017,-6.45 4.315,-6.843C4.41,-6.966 4.483,-7.099 4.498,-7.246C4.513,-7.401 4.579,-7.585 4.381,-7.693C4.185,-7.801 4.005,-7.904 3.775,-7.734C3.331,-7.403 2.841,-7.144 2.343,-6.895C2.799,-7.372 3.36,-7.712 3.919,-8.085C3.628,-8.319 3.33,-8.522 3.104,-8.814C3.206,-8.869 3.244,-8.784 3.296,-8.753C3.441,-8.669 3.575,-8.567 3.723,-8.489C3.927,-8.383 4.15,-8.272 4.355,-8.466C4.546,-8.647 4.541,-8.973 4.364,-9.217C4.219,-9.416 4.068,-9.611 3.915,-9.805C3.43,-10.416 3.044,-11.087 2.747,-11.807C2.584,-12.203 1.821,-12.435 1.525,-12.022C1.402,-11.851 1.187,-11.787 1.013,-11.673C1.168,-11.931 1.408,-12.117 1.556,-12.377C1.719,-12.662 1.56,-13.092 1.249,-13.18C1.149,-13.208 1.05,-13.237 0.954,-13.265C0.959,-13.297 0.955,-13.32 0.965,-13.328C1.359,-13.683 1.369,-13.688 1.138,-14.163C0.805,-14.845 0.385,-15.476 -0.058,-16.091C-0.072,-16.144 -0.05,-16.16 0,-16.148" style="fill:rgb(104,33,95);fill-rule:nonzero;"/>
            </g>
            <g transform="matrix(1,0,0,1,348.887,418.489)">
                <path d="M0,-0.515C0.02,-0.496 0.04,-0.476 0.059,-0.457C-0.08,-0.272 -0.248,-0.119 -0.448,0C-0.336,-0.205 -0.171,-0.363 0,-0.515" style="fill:rgb(104,33,95);fill-rule:nonzero;"/>
            </g>
            <g transform="matrix(1,0,0,1,348.946,401.482)">
                <path d="M0,0.401L-0.058,0.458C-0.232,0.309 -0.386,0.141 -0.506,-0.057C-0.304,0.06 -0.139,0.216 0,0.401" style="fill:rgb(104,33,95);fill-rule:nonzero;"/>
            </g>
            <g transform="matrix(1,0,0,1,355.123,410.453)">
                <path d="M0,-1.081C-0.211,-1.201 -0.386,-1.197 -0.553,-1.226C-0.813,-1.27 -1.001,-1.518 -1.054,-1.885C-1.097,-2.18 -1.003,-2.339 -0.734,-2.482C-0.177,-2.777 0.315,-2.721 0.788,-2.285C1.217,-1.889 1.735,-1.616 2.258,-1.359C2.626,-1.179 2.952,-0.912 2.95,-0.498C2.948,-0.073 2.615,0.197 2.236,0.376C1.611,0.671 1.043,1.054 0.527,1.511C0.317,1.696 0.074,1.684 -0.169,1.672C-0.281,1.667 -0.394,1.626 -0.499,1.584C-0.78,1.475 -1.078,1.381 -1.064,0.986C-1.05,0.584 -0.813,0.272 -0.439,0.147C-0.317,0.105 -0.173,0.139 -0.058,0.03C-0.418,-0.015 -0.763,0.009 -1.104,0.09C-1.245,0.123 -1.346,0.117 -1.432,-0.033C-1.535,-0.21 -1.7,-0.336 -1.941,-0.386C-1.748,-0.602 -1.531,-0.77 -1.4,-1.012C-1.355,-1.094 -1.254,-1.05 -1.179,-1.047C-0.805,-1.034 -0.432,-1.021 0,-1.081" style="fill:white;fill-rule:nonzero;"/>
            </g>
            <g transform="matrix(-0.861813,-0.507227,-0.507227,0.861813,351.918,412.699)">
                <path d="M-0.674,-2.376C-1.193,-1.844 -1.376,-0.954 -1.104,-0.32C-1.014,-0.108 -0.872,0.051 -0.674,0.16C-0.572,0.216 -0.479,0.248 -0.453,0.071C-0.394,-0.344 -0.537,-2.005 -0.674,-2.376" style="fill:white;fill-rule:nonzero;"/>
            </g>
            <g transform="matrix(1,0,0,1,353.741,406.749)">
                <path d="M0,2.284C-0.584,1.59 -1.083,0.935 -1.468,0.2C-1.563,0.016 -1.407,0 -1.297,0.016C-0.931,0.072 -0.611,0.231 -0.368,0.519C-0.238,0.674 -0.139,0.844 -0.103,1.053C-0.036,1.433 0.014,1.812 0,2.284" style="fill:white;fill-rule:nonzero;"/>
            </g>
            <g transform="matrix(1,0,0,1,353.73,406.819)">
                <path d="M0,-0.244C0.52,-0.522 1.002,-0.513 1.483,-0.471C1.613,-0.46 1.677,-0.341 1.7,-0.204C1.73,-0.03 1.645,0.074 1.526,0.179C1.413,0.278 1.33,0.207 1.243,0.155C0.882,-0.061 0.474,-0.137 0,-0.244" style="fill:white;fill-rule:nonzero;"/>
            </g>
            <g transform="matrix(1,0,0,1,353.737,413.107)">
                <path d="M0,0.24C0.269,0.169 0.476,0.113 0.683,0.06C0.881,0.009 1.065,-0.071 1.242,-0.172C1.418,-0.271 1.601,-0.201 1.68,-0.01C1.753,0.167 1.667,0.429 1.493,0.45C1.003,0.511 0.516,0.501 0,0.24" style="fill:white;fill-rule:nonzero;"/>
            </g>
            <g transform="matrix(-0.196334,-0.980537,-0.980537,0.196334,355.602,406.969)">
                <path d="M-0.597,-0.59C-0.631,-0.349 -0.654,-0.144 -0.748,0.048C-0.8,0.153 -0.684,0.251 -0.597,0.291C-0.466,0.352 -0.318,0.373 -0.145,0.421C-0.315,0.077 -0.315,-0.293 -0.597,-0.59" style="fill:white;fill-rule:nonzero;"/>
            </g>
            <g transform="matrix(0.315825,-0.948818,-0.948818,-0.315825,355.978,411.952)">
                <path d="M-0.387,-0.472C-0.651,-0.236 -0.781,0.021 -0.88,0.461C-0.681,0.484 -0.535,0.384 -0.387,0.272C-0.328,0.227 -0.309,0.19 -0.337,0.12C-0.406,-0.053 -0.395,-0.238 -0.387,-0.472" style="fill:white;fill-rule:nonzero;"/>
            </g>
            <g transform="matrix(1,0,0,1,356.921,407.503)">
                <path d="M0,0.625C-0.325,0.546 -0.644,0.468 -0.962,0.391C-0.657,0 -0.283,0.087 0,0.625" style="fill:white;fill-rule:nonzero;"/>
            </g>
            <g transform="matrix(1,0,0,1,355.917,412.208)">
                <path d="M0,-0.178C0.202,-0.206 0.358,-0.221 0.511,-0.25C0.656,-0.278 0.798,-0.321 0.945,-0.359C0.686,0.146 0.53,0.181 0,-0.178" style="fill:white;fill-rule:nonzero;"/>
            </g>
            <g transform="matrix(1,0,0,1,356.993,411.666)">
                <path d="M0,-0.107C-0.326,0.044 -0.624,0.127 -0.949,0.168C-0.62,-0.209 -0.405,-0.275 0,-0.107" style="fill:white;fill-rule:nonzero;"/>
            </g>
            <g transform="matrix(1,0,0,1,356.997,408.394)">
                <path d="M0,-0.043C-0.408,0.223 -0.596,-0.156 -0.863,-0.266C-0.568,-0.253 -0.292,-0.173 0,-0.043" style="fill:white;fill-rule:nonzero;"/>
            </g>
            <g transform="matrix(1,0,0,1,356.848,411.199)">
                <path d="M0,0.079C0.168,-0.004 0.307,-0.123 0.517,-0.181C0.484,0.005 0.406,0.148 0.285,0.221C0.219,0.26 0.074,0.191 0,0.079" style="fill:white;fill-rule:nonzero;"/>
            </g>
            <g transform="matrix(1,0,0,1,355.477,413.09)">
                <path d="M0,-0.267C0.178,-0.276 0.305,-0.283 0.453,-0.29C0.409,-0.141 0.306,-0.013 0.208,0.004C0.104,0.023 0.114,-0.164 0,-0.267" style="fill:white;fill-rule:nonzero;"/>
            </g>
            <g transform="matrix(1,0,0,1,355.966,406.786)">
                <path d="M0,0.349C-0.177,0.296 -0.309,0.358 -0.428,0.279C-0.286,-0.009 -0.286,-0.009 0,0.349" style="fill:white;fill-rule:nonzero;"/>
            </g>
            <g transform="matrix(1,0,0,1,353.929,409.131)">
                <path d="M0,-0.475C0.059,-0.324 0.119,-0.172 0.186,0C-0.168,-0.044 -0.024,-0.295 0,-0.475" style="fill:white;fill-rule:nonzero;"/>
            </g>
            <g transform="matrix(1,0,0,1,357.338,408.461)">
                <path d="M0,0.349C-0.169,0.309 -0.289,0.245 -0.409,0.17C-0.161,0 -0.161,0 0,0.349" style="fill:white;fill-rule:nonzero;"/>
            </g>
            <g transform="matrix(1,0,0,1,353.939,410.781)">
                <path d="M0,0.438C-0.005,0.279 -0.099,0.072 0.177,0C0.111,0.163 0.056,0.301 0,0.438" style="fill:white;fill-rule:nonzero;"/>
            </g>
        </g>
    </g>
</svg>
