<?xml version="1.0" encoding="UTF-8" standalone="no"?>
<!DOCTYPE svg PUBLIC "-//W3C//DTD SVG 1.1//EN" "http://www.w3.org/Graphics/SVG/1.1/DTD/svg11.dtd">
<svg width="100%" height="100%" viewBox="0 0 740 764" version="1.1" xmlns="http://www.w3.org/2000/svg" xmlns:xlink="http://www.w3.org/1999/xlink" xml:space="preserve" xmlns:serif="http://www.serif.com/" style="fill-rule:evenodd;clip-rule:evenodd;stroke-linejoin:round;stroke-miterlimit:2;">
    <g transform="matrix(1,0,0,1,-20.4862,-8.20633)">
        <g transform="matrix(1.27842,0,0,1.27842,18.7446,6.60786)">
            <path d="M254,597.9C186.3,591.1 129.6,558.8 87.7,503.1C34.2,432 19.9,353.4 46.3,275.5C51.3,260.8 56.2,249.4 65.1,231.8C69.5,223 73,214.8 73,213.1C73,210.1 69.1,196.2 63.4,178.7C61.4,172.7 60,167.6 60.4,167.3C60.7,167 66.5,172 73.2,178.5C80,185 86.6,190.8 87.9,191.3C90.1,192.3 91,191.7 100.2,181.7C105.7,175.8 114.4,167.4 119.6,162.9C130.4,153.6 130.6,153.1 126.6,141.4C122,127.9 109.6,98.7 107.4,96C103.3,91.2 89.3,82.7 61.5,68C46.7,60.2 33.5,52.8 32.2,51.6C27.5,47.4 15.2,31.3 11.7,25C7.5,17.4 0.8,1.9 1.4,1.3C1.6,1 3.7,2.1 6.1,3.5C21.1,13 39,17.8 69.9,20.5C123.9,25.3 140.8,27.6 147.8,31.2C152.8,33.8 170,44 179,49.8C182,51.7 191.6,58.4 200.3,64.8C217.3,77.2 217.2,77 223,91.8C224.8,96.3 227.3,101.1 228.6,102.5C231.4,105.6 234.5,105.7 250.2,103.3C258,102.1 268.1,101.6 283,101.6C304.6,101.5 315,102.5 332.3,106C337.2,107 342,107.5 343.1,107.3C345.1,106.7 348,102.3 348,99.8C348,99.1 349.4,95.6 351,92.1C359.1,75 372.8,63.8 416.5,38.7C428.9,31.5 432.8,29.8 439,28.6C443.1,27.8 463.4,25.7 484,24C533.9,19.9 541.5,18.3 563.7,7.1C569.4,4.3 574.2,2 574.4,2C575.3,2 562,29.1 558,35.4C552.7,43.8 540.3,55.4 530.5,61.2C526.1,63.7 514.2,70.2 504,75.6C493.8,80.9 482.4,87.4 478.5,89.9C466.7,97.7 465.3,99.6 457.7,118.8C448.9,141.1 445,152.6 445,156.6C445,159.4 446.1,160.9 453.1,167.2C457.5,171.2 465.2,179.1 470.2,184.8C475.6,190.9 479.9,195 481,195C483.4,195 493.2,187 504.4,175.8C509.9,170.2 513.8,167.1 514.7,167.4C515.7,167.8 515.8,168.4 515,169.9C513.2,173.3 499,219.4 499,221.9C499,223.2 501.2,228.4 503.9,233.4C515.4,254.9 524.4,280.3 528.9,304.2C532.3,321.9 533.2,334.2 532.8,355.5L532.5,375.8L534.8,374.9C538.1,373.6 564.1,373.8 567.8,375.1C571,376.2 573.4,380.6 572.4,383.8C572.1,384.7 568.9,391.7 565.2,399.3C559.3,411.5 558.2,413.2 555.3,414.2C551.6,415.6 551.1,416.6 553.9,417.5C556.3,418.2 558.3,423 557.5,426.1C557.2,427.4 554.2,432.2 551,436.8C546.6,443 545.4,445.2 546.5,445.6C547.9,446.2 556,440.4 556,438.8C556,438.3 557.4,437.3 559.2,436.6C563.5,434.7 566.1,435.9 573.9,442.9C579.6,448.1 580.2,449 580.2,452.5C580.2,455.9 579.5,457 573.8,462.3C563.7,471.7 561.6,471.9 553.3,463.8C549.5,460.1 547.7,458.9 546.4,459.4C545.3,459.8 545,460.4 545.6,460.8C547.2,461.9 556.7,476.2 557.4,478.6C558.3,481.7 556.4,485.8 553.5,487.2L551,488.3L554.8,490C558.1,491.5 559.2,493 563.4,501.6C573,521.3 573.1,521.4 572,524.7C570.4,529.3 567.5,530 550.9,530C539.4,530 535.2,529.6 533,528.5C531.3,527.6 530,526.5 530,525.9C530,525.3 529.1,525.8 528.1,527.1C526.3,529.3 525.3,529.5 515,529.8C504.7,530.2 503.8,530.3 503.1,532.3C502.4,534.2 503.1,534.8 511.1,538.3C522,543.1 522.6,544.2 519.9,555.6C517.4,565.6 516.4,567.6 512.8,569.1C510.2,570.2 509.1,569.9 500.5,565.4C488.2,559.1 487.5,557.4 491.9,546.9C494.2,541.4 494.7,539.4 493.8,538.8C493,538.4 492.1,538.8 491.6,539.8C491.1,540.7 489.8,542.4 488.8,543.5C487.7,544.6 485.4,547.4 483.7,549.7C481.9,552 479.6,554.3 478.6,554.7C477.6,555.2 476.6,556.7 476.4,558.1C476.1,561.3 459.6,591 456.9,593.3C454.5,595.3 452.1,595.5 448.8,593.9C446.2,592.7 429,562.6 428.6,558.5C428.4,557.1 428,555.7 427.7,555.4C427.4,555 423.1,557.3 418.3,560.4C390.5,578.5 352.2,592.2 316.5,597C305.3,598.5 265.4,599.1 254,597.9ZM459.5,566.6L464.3,557.7L461.1,550.1C459.4,545.9 458,541 458,539.3C458,536.3 458.3,536 461.1,536C462.8,536 466,537.3 468.5,539C470.9,540.7 473.3,542 473.9,542C474.4,542 475.8,540.7 476.9,539.2L478.9,536.4L468.4,529.6L458,522.8L458,481L461,481C462.7,481 466.3,482.5 469.5,484.5L475,488.1L475,473L478.3,473C480.5,473 485.7,475.5 495.3,481.1L509,489.2L509,519L513.9,519C518.5,519 518.8,518.8 519.4,516C519.7,514.3 519.7,510.3 519.3,507L518.7,501L522.6,501.1C526.3,501.1 526.8,501.5 532.9,510.1L539.4,519L558.9,519L554.5,509.8L550,500.5L540.7,496.8C531.7,493.2 531.5,493.1 531.2,489.6C530.9,486.2 531.1,486 537.2,482.9C540.7,481.2 543.7,479.6 543.9,479.4C544.1,479.3 543.2,477.5 542,475.5L539.8,471.9L530.5,477C517.2,484.1 516.5,484.1 498,473.3C483,464.5 483,464.5 483,460.9C483,457.6 483.4,457 487.5,454.9C490,453.6 492,452.3 492,452C492,451.7 489.7,450.2 487,448.7C482.6,446.2 482,445.5 482,442.7C482,439.6 482.6,439.2 497.4,430.8C516.5,419.9 517.2,419.8 530.1,427.2L539.3,432.4L541.6,429.4C542.9,427.8 544,426.2 544,425.9C544,425.5 541.1,423.7 537.5,421.9C531.3,418.7 531,418.3 531,414.9L531,411.3L540.3,407.8L549.5,404.4L554.2,395.4C556.8,390.5 558.9,386.2 559,385.8C559,385.3 554.7,385 549.5,385L540.1,385L533.3,393.9C526.9,402.4 526.3,402.9 522.7,402.9L518.9,403L520.3,385L509,385L509,414.5L494.9,422.8C486,428 479.7,431 477.9,431L475,431L475,415L470.1,418C467.1,419.9 463.9,421 461.6,421L458,421L458,381.3L468.6,374.3L479.1,367.3L476.5,364.1L473.8,361L468.9,364.5C465.9,366.6 462.8,368 461,368C458.2,368 458,367.7 458,364.4C458,362.4 459.5,357.4 461.3,353.2L464.6,345.5L452.4,323.1L440.2,345.3L443.1,352.3C444.7,356.1 446,361 446,363.1C446,366.8 445.8,367 442.9,367C441.1,367 437.9,365.7 435.3,364L430.9,361L428.5,363.8C427.2,365.3 426,366.7 426,367C426,367.3 430.7,370.6 436.5,374.4L447,381.2L447,421L443.3,421C441,421 437.9,420 435.5,418.5C433.3,417.2 431.2,416 430.8,416C430.3,416 430,419.4 430,423.5L430,431L426.9,431C424.9,431 419.2,428.2 409.9,422.8L396,414.6L396,385L385,385L385,403L381.7,403C378.8,403 377.8,402.1 371.7,394L365,385L355.5,385C350.3,385 346,385.2 346,385.5C346,387 355.6,405 356.4,405C357,405 361.2,406.5 365.7,408.3C373.9,411.5 374,411.5 374,415C374,418.4 373.7,418.7 367.5,421.8C363.9,423.5 361,425.3 361,425.7C361,426.2 362.1,427.8 363.3,429.4L365.7,432.3L374.8,427.2C387.8,419.8 388.8,419.9 407,430.5C421.4,438.8 421.5,438.9 421.8,442.7C422.1,446.4 421.9,446.7 417.5,448.8C415,450 413,451.3 413,451.8C413,452.2 415,453.6 417.5,455C421.6,457.2 422,457.8 422,461.1L422,464.8L407,473.4C388.3,484.1 387.5,484.2 374.6,476.9L365.6,471.9L363.4,474.7C362.1,476.2 361.1,478 361,478.5C361,479.1 363.9,481 367.5,482.8C373.6,485.8 374,486.2 374,489.4C374,492.8 373.9,492.8 364.4,496.6L354.8,500.4L350.4,509.2C348,514 346,518.2 346,518.5C346,518.8 350.4,519 355.8,519L365.5,518.9L372,510C377.9,501.9 378.8,501 381.8,501L385,501L385,519L396,519L396,489.2L409.7,481.1C419.4,475.4 424.4,473 426.7,473L430,473L430,480C430,483.9 430.2,487 430.5,487C430.8,487 433.2,485.7 435.8,484C438.5,482.3 442.1,481 443.9,481L447,481L447,522.5L436.5,529.4C426.6,535.9 426,536.4 427.3,538.3C429.9,542.2 431.4,542.5 435.6,539.6C438.1,537.9 440.8,537 443.2,537C446.7,537 447,537.2 447,539.9C447,541.6 445.5,546.2 443.6,550.3L440.3,557.7L446.3,568.4C453.1,580.6 451.8,580.8 459.5,566.6ZM332.1,554C334,550.4 338.4,544.5 342,540.9L348.5,534.2L341.3,533.8C337.2,533.5 333.3,532.7 332.4,531.9C330.9,530.7 330.6,530.8 329.6,532.4C325.6,539.1 322.8,542 319.3,542.9C313.5,544.5 310.7,544.3 300.8,541C290.6,537.6 286.2,537.4 276.2,539.5C266.9,541.4 256.7,542.4 253.7,541.6C252,541.2 249.8,538.8 247.1,534.5C242.4,527 240.6,525.9 232.6,524.9C226.2,524.1 222.7,522.1 219.2,517C217.4,514.3 217,512.3 217,506.5L217,499.3L209.8,498.7C204.7,498.3 201.8,497.5 199.7,495.9L196.7,493.7L197.3,496.6C197.7,498.2 198.3,503.7 198.6,508.8C199.1,515.5 199.8,518.8 201.1,520.4C202.1,521.7 210,526.7 218.7,531.5C237.7,542 240.4,544.4 242.9,552.5C244,555.8 246.1,561.7 247.7,565.7L250.6,572.9L255.8,567C259.5,562.8 263,560.1 267.7,557.8C274.4,554.5 274.7,554.5 288,554.5C299.7,554.6 302.1,554.9 306.2,556.7C311.7,559.2 319,565.7 322.1,570.7L324.3,574.2L326.5,567.3C327.7,563.5 330.2,557.5 332.1,554ZM400,554.3C402.5,552.9 402.7,552.3 401.8,550.6C401.2,549.4 400.6,548.4 400.5,548.2C400.4,548.1 399.1,548.5 397.6,549.1C396,549.9 395.1,550.9 395.5,551.8C395.8,552.5 396,553.8 396,554.6C396,556.4 396.6,556.4 400,554.3ZM509.2,552.6C509.6,550.7 509.1,549.9 507.1,549C505,548 504.4,548.1 503.3,549.6C501.5,552.1 501.6,552.8 504.7,554.4C508,556.1 508.6,555.8 509.2,552.6ZM266,526.3C267.1,522.7 267.9,519.6 267.7,519.4C267.1,518.8 257,527.4 257,528.6C257,530.2 261.9,534.2 263.1,533.4C263.6,533.2 264.9,529.9 266,526.3ZM316.7,530.4C318.5,527.5 318.8,527.9 310.6,521.8L307.7,519.6L308.4,522.6C310.7,532.1 311.1,533 313,533C314.1,533 315.7,531.8 316.7,530.4ZM415.1,524C417.1,522.9 417.8,519 415.9,519C413.6,519 411,521.2 411,523C411,525.2 412.2,525.5 415.1,524ZM493.5,522.9C493.9,521.8 494,520.7 493.8,520.6C493.7,520.5 492.3,519.9 490.8,519.2C488.2,518.1 488,518.2 488,520.5C488,521.8 488.8,523.4 489.8,523.9C492.3,525.4 492.8,525.2 493.5,522.9ZM479.5,508.8C480.7,505.9 485.7,504.8 489.8,506.6C498.8,510.4 498,510.8 498,503.1C498,496.3 498,496.2 494.4,494.1C492.5,492.9 490.5,492 490,492C489.6,492 487.1,494.9 484.5,498.5C482,502.1 477.7,507.5 474.9,510.7C472.2,513.8 470.2,516.5 470.5,516.8C470.8,517.1 472.2,518.1 473.7,519L476.5,520.7L477.6,515.6C478.2,512.8 479.1,509.7 479.5,508.8ZM237.6,511.4C239.3,508.9 243.3,497.9 242.7,497.4C242.2,496.9 228.6,504.1 227.9,505.2C226.8,506.9 228.1,509.9 230.8,512C234.1,514.6 235.6,514.5 237.6,511.4ZM335.3,498.4C332.5,496.3 332.1,496.7 333.3,501.1L334.3,505.3L335.7,502.5C337,500.1 337,499.7 335.3,498.4ZM215.9,486.3C219.1,483.6 220.6,473.1 219.1,463.8C217.9,456.8 213.3,443.7 210.6,439.9C209.5,438.2 209.2,439.2 208.6,447.7C208.2,454 207,460 205.4,464.8C203,471.6 202.9,472.7 204.1,476.2C205.3,479.9 211.4,488 213,488C213.4,488 214.7,487.2 215.9,486.3ZM271.4,475.7C272.7,473.4 274.1,470.5 274.5,469.3C275.1,467.2 274.8,467 271.2,467C266.5,467 265.8,468.5 266.7,476.1C267.4,481.6 268,481.6 271.4,475.7ZM306.8,466.9C305.7,466.2 301.3,466.7 300.2,467.5C299.8,467.9 303.6,475.4 305.9,479C307.5,481.4 307.5,481.3 307.8,474.6C308,469.7 307.7,467.4 306.8,466.9ZM248.1,463.4L250.9,459.3L242.3,450.9L241.7,457.7C241.3,461.4 241,466 241,467.9C241,471.3 241,471.3 243.1,469.4C244.3,468.4 246.5,465.7 248.1,463.4ZM524.4,466.7C526.2,465.4 526.1,465.1 521.2,461.5C515.3,457.1 513.6,453.5 515.1,449C515.7,447.4 516.5,446 516.9,446C517.3,446 519.8,444.3 522.4,442.3L527.1,438.6L523.8,436.9C522,435.9 520,435.1 519.4,435C518.8,435 517.2,437.8 515.9,441.3C514.7,444.7 511.9,451.3 509.8,455.9C507.7,460.5 506.1,464.4 506.2,464.5C506.4,464.6 508.9,466.1 511.9,467.8C517.7,471.1 518.7,471 524.4,466.7ZM192.9,460.5L195.1,455.6L192.5,458C190.9,459.5 190,461.4 190,463.3C190,467 190.2,466.8 192.9,460.5ZM344.4,450.9C342.9,449.2 342.6,449.2 340.4,450.8L338.1,452.5L340.2,454.3C342.2,455.9 342.4,455.9 344.2,454.4C345.9,452.8 345.9,452.5 344.4,450.9ZM565.9,453.3C566.1,453.1 565.5,452.1 564.5,451C562.8,449.1 562.6,449.1 560.8,450.7C559.1,452.2 559.1,452.4 560.6,454.2C562,455.6 562.6,455.8 563.9,454.8C564.8,454.1 565.7,453.4 565.9,453.3ZM288.3,454.3C286.5,454.1 283.5,454.1 281.8,454.3C280,454.5 281.4,454.7 285,454.7C288.6,454.7 290,454.5 288.3,454.3ZM374.4,450.9C372.8,449.2 372.5,449.1 371.2,450.4C369,452.6 371.4,455.4 374.2,453.9C376.1,452.9 376.1,452.8 374.4,450.9ZM534,450.5C532.8,449.1 532.5,449.1 530.8,450.7C529,452.3 529,452.5 530.6,453.7C532.1,454.8 532.7,454.8 533.9,453.6C535.1,452.4 535.1,451.8 534,450.5ZM276,453C272.6,451.9 270,451.9 272.5,453C273.6,453.5 275.4,453.8 276.5,453.8C278.1,453.8 278,453.6 276,453ZM268.4,450.7C264.2,448.3 261.2,445.2 249.5,431.5C234.5,413.9 218.7,398 209,390.8C197.1,381.9 180.2,371.7 178.9,372.6C178.3,373 174.8,375.5 171.3,378.1C166.2,382 164.1,383 160.9,383C157,383 157,383 157,379.2C157,376.5 157.9,374.1 159.9,371.3C166,362.9 171.6,360.5 182.7,361.3C190,361.8 190,361.8 190,359.3C190,357.9 189.1,355.7 188,354.3C186.8,352.7 186,350.2 186,347.9C186,344.1 186.1,344 189.8,344C193,344 194.3,344.7 198,348.6C200.5,351.1 204.3,354.6 206.5,356.3L210.5,359.4L207.4,355.9C202.4,350.2 197.5,343.8 193.6,337.8C190.2,332.4 189.7,332 186.1,332C183.5,332 181.7,331.3 180.3,329.8C177.3,326.4 170.3,315.8 168.6,311.9C167.8,310 167.1,309.1 167.1,309.8C166.9,311.9 160,311.2 155.3,308.5C153,307.1 151,306.1 151,306.3C151,306.6 151.7,308.7 152.6,311.1C155.3,318.9 157.1,329.2 157.7,340.5C158.6,358.2 156.2,368 148.5,377.5C142.9,384.4 142.7,385.4 145.1,390.2C153.9,407.6 162.5,410.4 173.7,399.7C177.5,396.1 177.7,395 175,392.5C173.8,391.4 173,389.4 173,387.3L173,384L178.8,384C185.8,384 191,386.3 203.7,395.1C215.7,403.4 231,417.1 239.8,427.3C250.2,439.4 256.8,445.5 263,448.9C268.2,451.8 272.9,453.3 268.4,450.7ZM328.3,434.6C334.3,428.5 340.3,422 341.7,420.2C344.1,417.1 344.2,416.8 342.7,415.3C341.2,413.8 340.9,413.8 339.1,416.1C332.1,424.9 324.5,434 318,441.1C311.4,448.3 310.9,449.1 314,447.5C315.9,446.6 322.4,440.7 328.3,434.6ZM298,439.9C303.1,437.6 305.1,436 309.3,430.5C312.1,426.9 311.9,427 306.9,431.8C302.5,436 300.8,437 298.1,437L294.7,437L295.3,431.5C296.3,421.7 308.6,402.8 314.4,402.2C318.5,401.7 321.4,402.6 324.8,405.5L327.8,408L334.8,399.6L331.8,393.5C330.1,390.2 328.3,387.2 327.7,386.9C327.2,386.5 324.4,387 321.6,387.9C317.2,389.4 316.5,390.1 316.2,392.6C315.8,396.2 313.7,398.6 308.5,401.4C304.8,403.3 303,403.5 287,403.5C272.6,403.5 269,403.2 266.5,401.9C262.1,399.4 260.2,396.9 259.8,393.1C259.5,390 259.1,389.6 253.5,387.9L247.5,386L245,388.9C243.6,390.5 241.7,393.2 240.8,394.8L239,397.8L243.2,403.4C246.5,407.9 247.6,408.7 248.2,407.5C249.7,405 254.6,403 259.7,403L264.5,403L269.7,410.8C277.2,422.1 280,428.2 280,433.5C280,437.8 279.9,438 277.1,438C274.9,438 272.8,436.6 268.5,432.3C265.3,429.1 263.7,427.9 264.8,429.5C273.2,441.9 285.1,445.6 298,439.9ZM195.9,437.8C198.1,437 198.2,436.6 197.6,431.7C195.9,419 195.7,412 196.9,412C198.6,412 197.5,410.5 194.1,408.1L191.2,406L187.4,409.1C180,415.1 175.7,416.4 164,416.3C151.5,416.1 140.8,413.6 131.4,408.6C127.9,406.8 125,405.6 125,405.9C125,406.3 126.4,408.8 128.1,411.4C135.6,422.6 155.8,434.7 172.5,437.8C175.8,438.5 179.4,439.2 180.5,439.4C183.1,439.9 192.9,439 195.9,437.8ZM416,404C416,402.9 415.4,402 414.6,402C413.8,402 412.5,401.7 411.6,401.4C409.4,400.5 409.5,403.6 411.8,404.9C414.5,406.5 416,406.2 416,404ZM301.3,392.1C303.6,391.2 304,390.5 304,387.1C304,384.9 304.5,383 305.3,382.7C305.9,382.4 303.7,382.5 300.3,382.8L294,383.3L294,379.8C294,376.9 294.7,375.7 297.6,373.5L301.2,370.8L296.4,367.4C293.7,365.5 290.4,364 288.8,364C286,364 275,368.8 275,370.1C275,370.5 276.2,371.5 277.6,372.5C282.4,375.6 284,377.9 284,381.5C284,384.8 283.8,385 280.5,385C278.6,385 274.7,384.1 271.8,383C265.6,380.7 265.2,380.6 266.8,382.2C267.5,382.9 268,384.8 268,386.6C268,389.6 268.4,390 273,391.5C282.8,394.8 293.7,395 301.3,392.1ZM244,374.8L248.5,373.6L245.1,372.8C242.6,372.1 240.3,372.4 235.7,373.9C231.9,375.2 227,376 222.8,376C219.1,376 216,376.3 216,376.7C216,377.1 218.4,379.7 221.2,382.6L226.5,387.7L233,381.8C237.6,377.7 240.8,375.6 244,374.8ZM494,381.8C494,380.9 493.6,379.9 493,379.5C491.4,378.5 488,381.3 488,383.7C488,385.7 488.2,385.7 491,384.7C492.7,384 494,382.8 494,381.8ZM416.8,383C416.9,382.2 415.7,380.7 414,379.8L411,378.1L411,381C411,382.5 411.6,384.1 412.3,384.3C414.3,385.2 416.5,384.6 416.8,383ZM267.7,355.9C269.5,354.7 272.1,352.2 273.4,350.4C275.6,347.1 275.7,346.7 274.4,340.7C273.7,337.3 272.4,332.3 271.6,329.5C270.7,326.8 270,323.3 270,321.8C270,319.2 270.3,319 274,319C277.8,319 278.2,319.3 282,325.1C284.2,328.5 286.2,332.1 286.5,333.1C287.4,335.8 288.2,335.5 290.8,331.5C292.7,328.4 293.5,328 297.2,328L301.3,328L300.7,337.7C300.2,345.6 300.4,347.9 301.7,350.1C303.5,353.1 311.6,358 314.7,358C317.2,358 320.3,354.6 327.8,343.5C331.2,338.6 338.7,329.1 344.5,322.5L355,310.5L351.3,310.2C346.6,309.8 335.3,306.4 332.4,304.5C330.8,303.5 330.1,301.8 329.8,297.7C329.2,289.9 327.3,287.7 317.6,283.2C313,281 308.7,278.3 308.1,277.2C306.6,274.4 306.8,259.1 308.4,250C310.2,240.2 311.8,236.5 318,228.4C320.8,224.8 324.7,218.6 326.7,214.7C331,206 331.2,206.2 315.6,202.3C305.4,199.7 303,199.5 285.5,199.5C265.2,199.5 253.4,201.3 247,205.1L244,207L247.7,213.7C249.7,217.5 253.7,224.1 256.6,228.5C259.5,232.9 262.8,238.5 263.9,241C266.2,246.2 268,258.2 268,268C268,276.8 266.2,279 254.9,284.5L246.5,288.5L245.2,294.5C242.5,306.3 240.2,308.1 226.7,308.8L217.8,309.3L223.3,314.9C232.4,324.3 241.2,335 247.9,344.7C254,353.7 258.6,357.9 262.4,358C263.4,358 265.8,357.1 267.7,355.9ZM401.4,354.8C402.3,351.5 402.2,351.4 399.4,350.1C396.3,348.7 396.4,348.7 395.5,352.1C395,354.1 395.3,354.9 397.2,355.8C400.5,357.3 400.7,357.3 401.4,354.8ZM509.2,351.9C508.7,348.6 507.4,348.3 504.3,350.5C502.4,351.8 502.2,352.4 503.1,354.4C504.1,356.5 504.5,356.6 506.9,355.7C509.1,354.9 509.5,354.2 509.2,351.9ZM383,338.9C383,336.2 383.4,335.8 376.5,345.5L370.9,353.5L376.9,347.3C380.8,343.5 383,340.4 383,338.9ZM233.6,350.9C235.4,347.9 215.4,325 210.9,325C209.9,325 208.7,324.9 208.4,324.8C208,324.6 207.3,325.2 206.7,326.1C205.4,328.1 214.1,341.3 219.9,346.1C225.4,350.8 232.2,353.1 233.6,350.9ZM349.7,348.8C358,344.7 370.1,330.4 368.6,326.5C367.2,322.6 360.3,325.7 353.3,333.4C348.7,338.4 341,349.1 341,350.4C341,351.7 345.6,350.9 349.7,348.8ZM145,339.8C145,329.2 143.2,319.5 139.1,307.6C137.9,304.3 137,299.3 137,296.3C137,291.6 136.8,291 134.9,291C132.9,291 132.8,290.6 133.3,285.8C133.7,282.7 134.9,279.2 136.4,277.1C138.8,273.7 138.9,273.6 137.2,270.6C136.3,268.9 131.9,264.1 127.6,260C108.3,241.8 106,239.1 106,234.9C106,231.1 106.1,231 109.4,231C112.2,231 115.5,233 128,242.7C136.4,249.1 144.2,256 145.5,257.9C146.8,259.9 152,270.7 157.2,281.9C165.9,301.1 166.5,302.1 167.1,298.8C167.4,296.8 168.4,294.1 169.3,292.7C171.7,288.9 179.2,285 183.9,285C187.9,285 188,285.1 188,288.4C188,290.6 186.8,293.6 184.5,297C180.2,303.4 180,306.9 183.8,311.1L186.6,314.3L194.1,310.4C200.4,307.1 202.4,306.5 207.8,306.5C211.2,306.5 214,306.4 214,306.2C214,306.1 213.4,304.9 212.6,303.7C208.7,297.7 203,267.5 202.7,251.1C202.4,237.2 203.1,235 207.3,235C210.2,235 211.1,235.8 215.9,242.8L221.2,250.5L220.6,239C220.3,232.7 220,224.7 220,221.2L220,215L214.8,217.6C206,222 198.3,227.8 190.4,235.6C186.3,239.7 183,243.4 183,243.9C183,244.4 184.5,247.3 186.4,250.5C190.3,256.9 194,267 194,271.2C194,273.8 193.7,274 190.2,274C186.6,274 186,273.5 179.4,265.4C172.7,257 157.4,242.8 146,234.3C138.9,229.1 133.5,226.4 117.6,220.4C103.3,215.1 95.7,210.5 83.8,199.8L76.1,192.8L77.6,198.2C87.2,231.7 98.1,254 117.2,278.7C121.5,284.3 126.2,291.3 127.5,294.2C130.2,300.2 132,311.6 132,322.6C132,327.3 132.7,331.7 133.8,334.7C135.8,339.8 142.6,350 144.1,350C144.6,350 145,345.4 145,339.8ZM420.4,318.5C421.8,313.6 423.2,308.7 423.6,307.6C424.2,306.1 423.6,306.2 420.1,308.5C417.5,310.3 414.1,311.5 411,311.8C408.2,312 406,312.6 406,313C406,313.3 403.5,317.3 400.5,321.8C397.5,326.3 395,330.2 395,330.4C395,330.7 396.3,331.1 397.9,331.5C399.6,331.8 404.4,334.1 408.7,336.6L416.5,341L417.3,334.3C417.7,330.5 419.1,323.5 420.4,318.5ZM385.5,334C386.5,332.9 386.8,332 386.2,332C385.6,332 384.6,332.9 384,334C383.4,335.1 383.1,336 383.3,336C383.5,336 384.5,335.1 385.5,334ZM437.7,316.3C440.7,310.9 443.8,304.1 444.6,301.1C446.6,293.5 450.1,287.6 457.2,279.5C469.2,265.6 480.9,246.3 487.6,229C491,220.1 498.9,195.6 499,193.6C499,193.1 496.8,194.8 494.2,197.2C481,209.6 468.2,217.1 445.5,226C441.2,227.7 434.9,230.7 431.5,232.7C424.9,236.8 398.4,262.1 391.3,271.3C387.1,276.7 386.5,277.1 383.1,276.8C379.8,276.5 379.5,276.2 379.2,273.1C378.7,268.3 383.7,258.8 391.1,250.4L397.2,243.5L392.8,239.6C387,234.3 374.3,226.1 364.1,221.1C359.6,218.8 355.7,217 355.5,217.2C355.4,217.4 355,224.6 354.8,233.3L354.3,249.1L358.4,241.6C362.2,234.6 362.8,234 365.6,234C369.4,234 369.6,234.4 371.1,245.7C372.7,258.1 371.6,271.7 367.5,287.4C365.7,294.6 363.7,301.6 363.2,303C362.3,305.5 362.3,305.5 368,305.6C372.9,305.6 374.7,306.2 380.6,309.8L387.5,313.9L390.8,310.5C392.5,308.6 394,306 394,304.7C394,302.1 389.5,294.5 386.2,291.6C384.8,290.4 384,288.5 384,286.3C384,283.1 384.1,283 388.3,283C391.2,283 393.8,283.8 396.5,285.6C402.6,289.7 409,296.2 409,298.5C409.1,301.3 412.6,294.5 419.6,278C422.8,270.6 426.6,262.7 428.1,260.5C432,254.8 440,247.4 451,239.2C456.2,235.4 461.6,231 462.9,229.6C464.7,227.7 466.4,227 469,227C473.5,227 475,228.5 475,233C475,235.8 474.4,236.9 472.3,238.2C470.7,239.1 465.7,243.3 461,247.6C456.3,251.8 451,256.4 449.2,257.8C445.5,260.7 437,271.6 437,273.6C437,274.3 438.1,276.6 439.5,278.6C442.6,283.2 443.1,290.9 440.2,291.7C438.8,292 438.5,292.9 438.8,295.8C439,298 438.3,301.7 437,305C433.4,314 429.7,328.6 431.5,326.8C431.9,326.4 434.7,321.7 437.7,316.3ZM230.1,298C230.6,298 231,296.4 231,294.5C231,291.3 231.2,291 234,291C238.2,291 237.2,289.1 228,279.5C223.8,275.1 219.1,269.6 217.5,267.2C216,264.9 214.6,263.1 214.4,263.2C213.8,263.8 217.1,278.7 219.1,285C222.8,296.1 225,299.5 227.8,298.5C228.6,298.2 229.6,298 230.1,298ZM349.2,297.9C351.9,296.5 355.6,287.8 358.1,277.2C360.8,265.4 360.4,263.5 356.4,269.1C354.6,271.5 349.9,276.9 345.9,281L338.5,288.5L341.8,288.8C345,289.1 345.1,289.3 345,293.3C344.7,299.8 345.1,300.1 349.2,297.9ZM333.4,273.1C336.3,270.5 338.6,265.2 340.9,255C344.6,238.6 346,221.3 344.4,213.1C343.7,210 343.6,210.1 338.6,219.2C335.8,224.3 330,233.9 325.7,240.4C321.5,247 318,252.9 318,253.7C318,254.5 319.2,255 321,255C323.9,255 324,255.2 324,259.5C324,262 323.3,265.7 322.5,267.7C321.7,269.7 321.1,271.4 321.2,271.5C321.4,271.7 323,272.7 324.9,273.8C328.4,275.9 330.2,275.8 333.4,273.1ZM249,273.4C252.1,272.1 252.9,271.4 252.4,270.1C252,269.2 251.5,265.9 251.2,262.8L250.8,257L254,257C257.1,257 257.2,256.9 256.6,253.8C256.3,252.1 252,244.3 247.1,236.6C242.2,228.8 236.6,219.4 234.7,215.6L231.2,208.7L230.5,217.3C229.4,230.3 231.2,243.8 237.1,266.1C238.2,270.4 241.6,275 243.6,275C244.3,275 246.8,274.3 249,273.4ZM176.8,228.8C182.4,221.4 185,216.1 185,212C185,206.5 180.4,188.7 169.8,153C161.7,125.6 149.2,100.1 134.3,80.1C126.6,69.8 114.6,57.5 110.4,55.5C108.4,54.6 92.6,51.2 75.2,47.9C57.8,44.6 41.1,41.3 38.3,40.6C33.2,39.2 33.1,39.3 34.1,41.1C35.7,44.2 42,48.3 59.3,57.6C89,73.6 110.6,87.1 114.4,92.2C115.5,93.7 120.9,106.4 126.5,120.4L136.7,145.9L138.9,143C140.6,140.7 141.8,140 144.5,140C148,140 148,140.1 148,144.3C148,146.7 146.8,152 145.4,156.1C143.1,162.7 142.8,164.9 142.9,176C143.2,198.4 144.5,212.8 146.6,215.2C149.6,218.5 170.1,234 171.5,234C172.2,234 174.6,231.6 176.8,228.8ZM426.8,215.6L435,209.8L435,201.7C434.9,184.1 432.2,172.5 426.4,163.9C423.6,160 423,158.1 423.2,155.2C423.5,151.8 423.8,151.5 426.9,151.2C429.3,150.9 430.9,151.5 432.6,153.1C433.9,154.3 435.2,155.2 435.4,154.9C435.6,154.7 440.6,141.9 446.5,126.5C452.4,111.1 458.2,97 459.3,95.2C462.1,90.5 482.8,77.4 514.9,59.9C530.9,51.3 543.7,42.1 540,42C539.1,42 535.1,42.9 531.1,44C519.4,47.3 510.6,49 494.2,51.1C465.3,54.8 457.5,59.5 440,83.5C421.4,109.2 419.8,112.3 409.5,142.2C404,158.1 394.3,192.5 391.5,205.6C389.2,216.4 390.8,219.8 401.4,227.6L407.4,232L412.9,226.7C416,223.8 422.2,218.8 426.8,215.6ZM208,205.4C212.7,202.9 217.3,200.1 218.4,199.2C221,196.9 223,191.8 223,187.6C223,184.7 223.4,183.9 225.4,183.4C229.8,182.3 232.4,183.3 234.1,186.7C237.2,192.9 237.4,193 243.4,190.8L248.7,188.8L243.3,171.7C232,136.3 215.1,90.2 211.3,84.3C209.7,81.9 206.3,80.4 192,75.6L182.5,72.5L182.2,68.8C182,66 182.3,65.1 183.6,64.8C186.3,64.3 151.6,41.8 143.4,38.7C130.1,33.7 110.8,30.7 64,26.5C48.3,25 33.5,23.4 31.1,22.9C25.4,21.6 24.9,22.4 29.7,24.8C35.8,27.9 42,29.4 81,37.1L117.5,44.3L131.3,57.9C148.4,74.7 152.9,80.5 159.6,94.5C170.3,117 177.3,136.9 190.1,181.3C194.6,197.1 198.6,210 198.9,210C199.2,210 203.3,207.9 208,205.4ZM377.3,209.3C377.6,208.8 381.7,194.3 386.5,177C398.2,134.7 411.4,98.4 419.5,86C425.8,76.6 450,51.1 455.7,47.8C459.6,45.6 465,44.4 485.5,41C499.3,38.8 516.6,35.4 524,33.6C537.5,30.2 548.5,26.1 546.4,25.3C545.8,25.1 536.8,26.1 526.4,27.5C516,28.9 500.1,30.5 491,31C440.3,34 432.2,36.3 405.7,54.6C393.6,62.9 393,63.5 395.4,64.3C397.5,65 398,65.8 398,68.6C398,70.5 397.4,72.2 396.8,72.5C396.1,72.7 391,74.1 385.5,75.6C373.8,78.8 366.2,82 363.8,84.6C361.6,87.1 351.7,112.1 343.7,135.5C336.7,155.9 327,187 327,188.9C327,190.1 330.6,191.8 335.2,192.7C337.5,193.2 338.1,192.7 340,189.1C342,185.1 342.3,184.9 346.3,185.2L350.5,185.5L352.1,191.7C353.1,195.1 354.1,198.4 354.5,199C355.2,200.2 374.6,210 376.1,210C376.5,210 377.1,209.7 377.3,209.3Z" style="fill:rgb(45,95,47);fill-rule:nonzero;"/>
            <path d="M446,471C446,467.2 445.8,464 445.5,464C445.2,464 442.8,465.4 440.2,467C437.5,468.7 433.9,470 432.2,470C429.7,470 429,469.5 428.1,466.9C425.9,460.5 426.5,458.7 432.5,455.2C435.5,453.4 438,451.7 438,451.5C438,451.3 435.5,449.7 432.5,448C427.5,445.2 427,444.5 427,441.5C427,432.7 431.4,430.8 439.8,436C442.5,437.7 445,439 445.3,439C445.6,439 446,436 446.2,432.3L446.5,425.5L457.9,424.9L458.2,432.4L458.5,439.8L464.3,436.4C473.7,430.9 478,432.4 478,441.3C478,444.3 477.4,445 472.1,448L466.2,451.4L471.4,454.5C476,457.3 476.5,458 476.8,461.5C477,463.6 476.9,466.4 476.6,467.7C475.7,471.1 471.3,470.7 464.3,466.6L458.5,463.2L457.9,478L446,478L446,471Z" style="fill:rgb(45,95,47);fill-rule:nonzero;"/>
            <path d="M450.2,583.8C449.1,582 445.5,575.5 442.1,569.3L435.9,558.1L439.9,549C442.1,544.1 443.5,540 443.1,540C442.7,540 439.7,541.8 436.6,544C433.4,546.3 430.4,548 430,547.8C429.2,547.5 420,536.4 420,535.7C420,535.5 425.4,531.7 432,527.4L444,519.5L444,483.8L440.3,486.1C438.2,487.4 434.5,489.6 432,491.2L427.5,493.9L426.5,475.9L399.5,491.9L398.5,522.3L382.5,522.3L381.5,504.1L375.5,512.2C372.2,516.7 369.2,520.7 368.9,521.2C368.6,521.6 362,522.1 354.2,522.3C337.7,522.5 338.6,524.2 346.5,508.2L351.7,497.4L361.4,493.6C366.7,491.5 371,489.6 371,489.4C371,489.2 367.4,487.2 363,485C358.6,482.8 355,480.7 355,480.3C355,479 363.4,467 364.3,467C364.8,467 370,469.7 375.9,473C381.8,476.3 387.2,479 387.8,479C389.3,479 419,462 419,461.1C419,460.8 415.8,458.7 412,456.6C408.1,454.4 405,452.3 405,451.8C405,451.4 408.1,449.3 412,447.3C415.8,445.2 418.8,443.1 418.7,442.7C418.4,441.6 389.9,425.1 388.2,425C387.1,425 376.2,430.8 367.4,436.1L364.2,438L359.5,431.4L354.7,424.7L357.1,422.9C358.4,422 362,419.9 365.2,418.4C368.4,416.9 371,415.4 371,415.1C371,414.4 355,408 353.5,408C352.6,408 340,384 340,382.5C340,382.2 346.3,382 354,382L368,382L374.7,391L381.5,400.1L381.8,391L382.1,382L399,382L399,411.6L412.8,419.7L426.5,427.8L427.5,409L435,413.5C439.1,416 442.8,418 443.3,418C443.7,418 444,410.4 444,401.1L444,384.2L432,376.4C425.4,372.2 420,368.3 420,367.9C420,367.5 422.3,364.5 425.1,361.1L430.3,355L433.9,357.8C439.4,362 443,364.1 443,363.1C443,362.6 441.4,358.3 439.4,353.6L435.8,345L444,330C448.5,321.7 452.4,315 452.6,315.2C452.8,315.4 456.5,322.2 461,330.4L469,345.1L465,354.5C462.8,359.7 461,364.2 461,364.5C461,364.9 467.9,360.3 473.6,355.9C474.3,355.3 476.6,357.5 480,361.6C482.9,365.3 484.8,368.5 484.3,368.9C483.7,369.2 478.3,372.8 472.1,376.9L461,384.3L461,401.1C461,410.4 461.3,418 461.6,418C462,418 465.6,416 469.7,413.5C473.7,411 477.3,409 477.5,409C477.8,409 478,413.3 478,418.4L478,427.9L506,411.5L506,382L523.1,382L522.8,391C522.6,396 522.7,400 523,399.9C523.3,399.9 526.5,395.9 530.3,390.9L537.1,382L551,382C558.7,382 565,382.3 565,382.8C564.9,383.2 562.1,388.9 558.7,395.4L552.5,407.4L543.3,410.8C538.2,412.7 534,414.5 534,414.9C534,415.2 536.9,417 540.4,418.8C551,424.3 550.7,423.5 545.5,431.3L540.9,438L536.7,435.6C534.4,434.3 529.3,431.4 525.3,429.1C521.4,426.9 517.6,425 516.9,425C516,425 486.8,441.1 485.2,442.6C485,442.7 488.2,444.7 492.4,447C496.6,449.3 500,451.5 500,451.9C500,452.3 496.9,454.4 493,456.5C489.2,458.6 486,460.6 486,460.9C486,461.7 515.7,479 517.1,479C517.7,479 523.2,476.3 529.2,473C535.2,469.7 540.4,467 540.8,467C541.4,467 549,478 549.8,480.1C550,480.6 546.4,482.8 541.9,485C537.4,487.3 534.1,489.5 534.6,489.9C535.1,490.3 539.4,492.1 544.2,493.9L552.8,497.2L558.6,509C561.7,515.5 564.3,521.1 564.4,521.5C564.5,521.8 558.3,522.1 550.6,522.3L536.8,522.5L530.1,513.3C526.5,508.3 523.3,504.1 523,504.1C522.7,504 522.5,508.1 522.5,513.1L522.5,522.2L506.5,522.2L506,507.1L505.5,491.9L492,484L478.5,476L478.2,485C478.1,490 477.7,494 477.4,494C477.2,494 473.4,491.8 469,489L461,484.1L461,519.8L473,527.6C480.8,532.6 484.7,535.7 484.2,536.5C482.5,539.3 475.4,547.9 474.8,548C474.4,548 471.1,545.9 467.5,543.4C463.9,540.9 461,539.1 461,539.4C461,539.7 462.8,544 464.9,549L468.9,558.1L460.8,572.5C456.4,580.5 452.7,587 452.5,587C452.3,587 451.3,585.5 450.2,583.8ZM455,466C455,461.1 455.3,457 455.6,457C455.9,457 459.9,459.2 464.6,462L473,466.9L473.6,464.5C474.4,461.2 474.1,460.9 466,456.1C462.1,453.8 459.2,451.5 459.5,451C459.8,450.5 462.8,448.6 466.3,446.6C475.7,441.2 475.3,441.7 473.9,438.7L472.8,436.2L464.4,441.1C459.9,443.8 455.9,446 455.6,446C455.3,446 455,441.9 455,436.9L455,427.9L452.3,428.2L449.5,428.5L449.5,437.2C449.5,442.1 449.3,446 449,446C448.7,446 444.8,443.8 440.4,441.1L432.2,436.2L431.1,438.7C430.5,440 430,441.3 430,441.5C430,441.6 433.6,443.9 438,446.5C442.4,449.1 445.8,451.5 445.5,452C445.3,452.4 441.7,454.7 437.6,457C430.3,461.2 430.2,461.3 431.2,464.1L432.2,467L435.4,465.1C442.3,460.9 449.1,457 449.6,457C449.9,457 449.8,461.1 449.4,466L448.7,475L455,475L455,466Z" style="fill:white;fill-rule:nonzero;"/>
            <path d="M321.7,578.4C318,570.9 310.9,563.6 304.1,560.3C299.1,557.8 297.4,557.6 288,557.5C278.1,557.5 277.1,557.7 270.8,560.8C263.4,564.4 256.1,571.7 252.7,578.8C251.5,581.1 250.4,583 250.1,583C249.7,583 248.3,579.5 246.9,575.2C239.7,554.1 237.8,549.4 235.3,546.7C233.8,545.2 225.2,539.8 216.2,534.8C207.3,529.8 199,524.6 198,523.2C196.6,521.5 196,519.2 196,515.6C196,508.7 193.7,494.8 190,479.9C186.4,465.2 186,458.8 188.7,455.8C190.5,453.8 197.1,450 198.8,450C200.1,450 198.7,456.8 196,463.4C193.8,468.5 193.7,469.6 194.7,474.4C196.4,482.6 200.2,491.1 203.1,493.2C204.8,494.5 208,495.3 213.1,495.7L220.5,496.3L220.2,503.4C219.9,509.5 220.1,511 222.2,513.9C225.7,519.1 229.1,521.1 235.6,521.9C243.6,522.9 245.4,524 250.1,531.5C252.5,535.3 255.1,538.2 256.3,538.5C257.5,538.8 262.3,538.3 267,537.4C271.7,536.5 279.6,535.6 284.7,535.3C293.1,534.8 294.8,535 303.3,537.8C315,541.7 318.6,541.1 322.8,534.9C324.3,532.7 326.8,529.3 328.3,527.5L331.1,524.1L334,527.3L336.8,530.5L363,531.5L357.3,534.5C344,541.2 332.9,556.8 328,575.3C326.7,580.1 325.4,584 325.1,584C324.7,584 323.2,581.5 321.7,578.4Z" style="fill:white;fill-rule:nonzero;"/>
            <path d="M392.5,555C391.5,551.1 390.9,547.8 391.1,547.6C392.8,546.4 402.3,543 402.8,543.5C403.2,543.8 404.4,546.5 405.5,549.3L407.6,554.5L401.6,558.2C398.2,560.3 395.2,561.9 394.9,562C394.5,562 393.4,558.8 392.5,555Z" style="fill:white;fill-rule:nonzero;"/>
            <path d="M503.7,558.6C500.6,556.8 497.8,555.1 497.5,554.8C496.4,553.8 501.9,542.8 503.2,543.3C503.9,543.6 506.5,544.6 509,545.6C511.5,546.5 513.6,547.4 513.8,547.5C514.3,547.9 510.6,562 510.1,561.9C509.8,561.9 506.9,560.4 503.7,558.6Z" style="fill:white;fill-rule:nonzero;"/>
            <path d="M256,534.1C251.6,529.7 251.9,526.1 257.3,521.8C263.5,516.7 269.3,513 270.9,513C272.8,513 271.9,520.4 268.8,529.6C266.5,536.4 266.4,536.5 262.7,536.8C259.7,537.1 258.4,536.6 256,534.1Z" style="fill:white;fill-rule:nonzero;"/>
            <path d="M308.7,535.6C307.2,534.1 305,524.8 304.7,519C304.4,513.8 307.4,513.9 314.6,519.5C321.9,525.1 322.6,526.6 320.6,531.3C318.5,536.4 311.9,538.8 308.7,535.6Z" style="fill:white;fill-rule:nonzero;"/>
            <path d="M408,525.2C407.4,521.7 407,518.6 407.2,518.5C407.4,518.3 410.1,517.1 413.2,515.7L418.9,513.2L419.4,515.8C421.4,526 421.7,525.2 415.1,528.6L409.1,531.7L408,525.2Z" style="fill:white;fill-rule:nonzero;"/>
            <path d="M495.5,531.7L483.9,525.5L484.5,520C484.9,517 485.4,514.2 485.6,513.8C486,513.2 495.7,516.6 497.2,517.9C497.5,518.2 497.3,521.5 496.7,525.1L495.5,531.7Z" style="fill:white;fill-rule:nonzero;"/>
            <path d="M230,516.2C226,514.3 224,510.9 224,506.3C224,503.1 227.1,499 229.5,499C230.2,499 234.4,496.8 239,494L247.3,489L246.6,494.8C245.4,505.2 241.6,515.1 238.1,517C235.4,518.4 234,518.3 230,516.2Z" style="fill:white;fill-rule:nonzero;"/>
            <path d="M332.3,509.4C330.2,504.4 328,495.5 328,491.9C328,490 328.6,490.2 335,493.6C338.9,495.7 342,497.9 342,498.5C341.9,499 340.2,502.8 338.1,506.9L334.4,514.2L332.3,509.4Z" style="fill:white;fill-rule:nonzero;"/>
            <path d="M206.1,487.5C199.4,479.8 198.5,473 202.6,461.2C204.7,455.1 205.3,451 205.8,439.6L206.5,425.5L210.7,432.1C221.1,448.6 225,465.9 222,482.1C220.8,488.6 218.3,491 213,491C209.9,491 208.6,490.3 206.1,487.5Z" style="fill:white;fill-rule:nonzero;"/>
            <path d="M262.5,485.7C262.9,483.3 263.3,477.6 263.3,473.1C263.5,467.1 263.9,464.7 265,464C266.4,463.1 276.4,463.6 278.3,464.7C282.2,467 272.1,484.8 264.8,488.6L261.9,490.1L262.5,485.7Z" style="fill:white;fill-rule:nonzero;"/>
            <path d="M307.1,486.5C302.8,482.6 296,470.3 296,466.4C296,464.4 296.6,464.1 301.4,463.5C310.7,462.3 310.7,462.2 311.2,476.8C311.5,483.8 311.6,489.6 311.5,489.8C311.3,490 309.3,488.5 307.1,486.5Z" style="fill:white;fill-rule:nonzero;"/>
            <path d="M237.4,475.3C237.7,473.2 238.2,465.1 238.6,457.3C238.9,449.4 239.5,443 239.9,443C241.2,443 255,457.7 255,459.1C255,462.8 241,479 237.8,479C237.2,479 237.1,477.4 237.4,475.3Z" style="fill:white;fill-rule:nonzero;"/>
            <path d="M326.2,467.5C322.8,463.9 320,460.1 320,459.1C320,458.1 320.9,456.2 321.9,454.9L323.8,452.5L324.5,455.1C324.8,456.5 327.8,460 331.1,462.9C336,467.2 337.1,468.7 336.8,470.9C336.2,475.8 332.9,474.7 326.2,467.5Z" style="fill:white;fill-rule:nonzero;"/>
            <path d="M383.2,467.8C379.5,465.5 379.6,465.3 385,461C388.4,458.3 389.1,458.1 389.6,459.5C390.3,461.2 388.2,470.1 387.1,469.9C386.8,469.9 385,468.9 383.2,467.8Z" style="fill:white;fill-rule:nonzero;"/>
            <path d="M352.2,466.1C352.4,463.8 353.4,462 355.2,460.7C359.1,457.8 359.7,459.2 356.4,463.7C352,469.7 351.8,469.8 352.2,466.1Z" style="fill:white;fill-rule:nonzero;"/>
            <path d="M336.7,457.1L331.9,452.5L342.7,443.1L347.4,447.9L352,452.6L347.2,457.3C344.6,459.9 342.2,461.9 342,461.9C341.7,461.8 339.3,459.7 336.7,457.1Z" style="fill:white;fill-rule:nonzero;"/>
            <path d="M557.6,457.1L552.8,452.3L557.6,447.7L562.4,443.2L567.7,447.9L572.9,452.5L567.9,457.2C565.2,459.9 562.8,462 562.7,462C562.5,462 560.3,459.8 557.6,457.1Z" style="fill:white;fill-rule:nonzero;"/>
            <path d="M367.4,456.5L363.2,452.2L367.6,447.9L371.9,443.7L377.4,447.9L382.9,452.2L377.5,456.6C374.6,459 372,461 371.8,460.9C371.6,460.9 369.6,458.9 367.4,456.5Z" style="fill:white;fill-rule:nonzero;"/>
            <path d="M527.2,456.7L522,452.5L525.2,449.7C532.9,443.2 532.6,443.2 537.5,448L541.9,452.3L537.5,456.6C535.1,459 533,461 532.8,460.9C532.6,460.9 530.1,459 527.2,456.7Z" style="fill:white;fill-rule:nonzero;"/>
            <path d="M271.3,456.5C259.2,453.2 251.2,447.2 236.8,430.3C219.7,410.5 188.3,387 178.6,387L175.6,387L178.3,389.8C181.9,393.5 181.8,397.1 177.8,401.5C173.4,406.6 168.2,409 161.5,409C154.5,409 150.9,407.2 147.2,401.7C138.1,388.5 137.9,384 145.5,374.5C150.3,368.5 152.8,363.1 154.1,355.5C156.5,341.3 152.8,319.9 144.5,300.8C142.9,296.9 147,297.8 154.6,302.9C162.1,307.9 164,308.8 164,307.2C164,305.7 143.9,262.6 141.9,259.8C139.7,256.8 110,233.7 109.2,234.4C108.3,235.4 117.2,245 125.2,251.7C135.2,260 142,268.9 142,273.5C142,275.3 141.1,277.9 139.9,279.4C137.6,282.3 135.7,288 137,288C137.5,288 138.8,286.7 140,285C141.2,283.4 142.8,282 143.5,282C145.6,282 147.7,285.8 148.5,290.9C149.2,294.9 149.1,295.2 147.4,294.5C143.1,292.8 141,292.8 140.3,294.5C139.6,296.4 139.8,297.2 144.4,312.5C145.9,317.5 147.5,325.3 147.9,330C148.7,338.8 147.7,355.9 146.3,358.4C145.7,359.5 143.8,357.7 139.1,351.3C131.1,340.6 129,335.3 129,325.6C129,314.6 127.2,303.2 124.5,297.2C123.2,294.3 118.5,287.3 114.2,281.7C93.9,255.4 84.8,236.2 72.6,194.5C70.7,187.9 68.8,181.6 68.4,180.5C68,179.4 73.3,183.9 80.2,190.5C96.9,206.4 103.9,211.1 121,217.6C128.7,220.5 136.9,223.9 139.2,225.1C149.6,230.3 172.6,250.1 182.4,262.4C186.2,267.1 189.7,271 190.1,271C192.2,271 184.8,254.3 180.4,249.1C178,246.2 177.9,245.7 179.1,242.8C180.8,238.7 193.3,226.2 200.7,221.2C209.3,215.4 218.6,210.8 220.7,211.2C222.3,211.5 222.6,213.5 223.7,233C224.3,244.8 225.3,256.9 225.9,259.9C226.5,262.8 227,265.5 227,265.8C227,266.1 222.6,260 217.3,252.2C206.1,236 205.5,235.9 205.7,250.2C206,260.5 208.1,274.7 211.6,288.4C215.6,304.2 217.9,306.7 227.3,305.7C236.8,304.8 240.5,301.6 241.4,294C242.2,286.7 243.4,285.2 252.3,281.2C265.2,275.2 266.2,273 263.9,256.3C262.6,246.9 260.6,242.1 253.6,231.5C250.6,227.1 246.3,219.8 244,215.4C239.4,206.3 239.5,204.3 244.8,201.6C252.8,197.5 279.6,194.7 297.7,196.1C308.3,197 323.4,200 330.3,202.7C333.1,203.9 334,204.8 334,206.6C334,210.2 326.9,223.7 321,231.4C318.2,235.1 315.1,239.8 314.3,241.8C310.8,250.2 308.8,269.9 311.1,274.2C311.7,275.3 316,278 320.6,280.2C330.3,284.7 332.2,286.9 332.8,294.7C333.3,301.2 334.3,302 344.9,305.2C352,307.3 352.2,307.3 355.6,305.5C358.6,303.9 359.3,302.7 361.5,295.6C365.1,283.8 367.8,271.5 368.5,263.5C369.1,256.8 367.6,241 366.2,238.3C365.8,237.6 363.5,240.6 360.7,245.8C358.1,250.6 354.5,256.1 352.9,258L349.9,261.5L350.6,252.5C351,247.6 351.6,236.8 351.9,228.5C352.6,210.4 352.3,210.6 366.2,217.6C380.2,224.6 397.7,236.5 401.2,241.5C402.6,243.4 402,244.5 395,252.4C387.9,260.4 381.5,271.4 382.7,273.3C383.1,274 384.6,272.8 386.4,270.4C393,262 419.8,235.7 426.3,231.3C430,228.8 437,225.2 441.8,223.3C468.5,212.7 478.3,206.6 495.8,189.6C504.8,180.9 506.1,179.9 505.5,182.5C495.2,227.5 481.3,258.2 460.2,282.5C453.1,290.6 449.6,296.6 447.7,304.1C446.9,307.1 444.9,311.8 443.3,314.5C435.7,327.4 428,343 427.9,345.6L427.8,348.5L426.9,345.5C424.7,338.7 428.3,316.1 433.9,302.2C435.6,298 435.8,296.4 434.9,294.9C434,293.2 433.2,292.9 430.3,293.5L426.7,294.1L427.3,289.4C427.6,286.4 428.5,284.1 429.6,283.3C431.3,282 431.8,282.3 434.7,285.4C437.7,288.7 439,289 439,286.5C439,285.9 437.6,283.2 435.9,280.7C433.4,276.8 432.9,275.3 433.4,272.5C434.3,267.7 440.7,259.7 449.7,251.7C464.6,238.8 469,235.1 470.7,234.1C472.4,233.2 472.4,233 470.8,231.4C469.2,229.8 468.9,229.9 464.8,233.6C462.4,235.8 456.9,240.2 452.5,243.4C443,250.3 434.9,258 431.1,263.5C429.6,265.7 426.2,272.7 423.6,279C420.9,285.3 416.8,294.4 414.4,299.2C412,304 410,308.2 410,308.5C410,309.6 415.6,306.7 421.6,302.4C431,295.7 431.5,296.6 426.9,310.2C422,325 420,334.9 420,345.6C420,354.3 420,354.3 415.9,359.7C413.6,362.6 411.4,365 410.9,365C410.4,365 411.2,362.4 412.6,359.3C415.2,353.3 415.9,348.4 414.3,345.6C412.8,342.8 397.8,334.8 394.2,334.8C390.1,334.8 386,338.3 386,341.9C386,343.8 384,346.4 378.6,351.6C361.9,367.8 352.2,370.9 338.7,364.7L333.8,362.5L341.7,362.5C347.9,362.5 350.5,362 354.4,360.1C361.4,356.7 370,348 377.4,337C380.9,331.8 384.1,327.6 384.6,327.7C385.1,327.8 386.7,328.1 388.1,328.5C390.4,329.1 391.1,328.3 396.3,320.6C402.6,311.4 405.9,304.6 406,301.5C406,299.2 399.7,292.7 393.5,288.6C387.7,284.8 386.2,285.4 390.3,289.9C398.7,299.2 399.7,307.5 393.3,314.2C389.7,318 386.1,317.8 378.9,313.4C371.4,308.9 367.8,307.8 364,309.2C360.1,310.5 339.1,334.2 330.1,347.5C321.4,360.2 319.9,361.5 314.6,361.4C309.2,361.3 300.9,356.9 298.6,352.8C297,350.2 296.8,348.4 297.4,340.4C297.9,334.1 297.8,331 297.1,331C296.5,331 294.1,333.9 291.7,337.5L287.3,344L284.9,338.8C281.8,332.1 275.3,322 274.1,322C273.6,322 274,324.8 275.1,328.2C276.1,331.6 277.5,337.6 278.1,341.6C279.3,348.4 279.2,348.9 277,352.4C272,360.6 262,363.6 254.6,359.1C252.7,357.9 248.4,352.9 244.9,347.7C238,337.7 223.6,320.6 217,314.7C209.5,307.9 206.7,307.9 194.8,314.6C187.6,318.7 186.1,318.8 182.1,315.4C176,310.3 176,301.5 182.1,293.1C183.8,290.7 184.9,288.5 184.5,288.2C183.4,287 174.6,292.7 172.3,296C168.3,301.8 169.6,307 178,319.4C184,328.4 185.2,329.5 187.9,328.1C191.1,326.3 191.6,326.7 195.9,333.5C201.5,342.5 210,353 214.4,356.3C221.2,361.6 231.4,363.4 241.2,361.1C246.2,359.9 245.3,361 238.3,364.6C233.5,367 231.3,367.5 225.5,367.5C215.8,367.5 207.8,363.6 197.6,354C189.5,346.2 186.9,345.4 191.5,352C193.6,355 194.1,356.7 193.7,358.9C192.9,362.5 194.5,363.9 204.5,369C213.6,373.6 222.7,374.3 232.6,371C241.6,368 246.4,368.6 263,375.3C280.1,382.2 281.5,382.7 280.4,380.7C279.9,379.9 277.1,377.4 274.3,375.1C271.4,372.8 269,370.6 269,370.1C269,368.8 272.2,366.4 278,363.5C286.3,359.3 292.2,359.6 299.9,364.6C303.2,366.7 305.9,369.3 306,370.2C306,371.1 303.9,373.7 301.3,376L296.5,380.2L300,379.5C301.9,379.1 306.4,377.7 310,376.3C332.3,367.9 332.5,367.9 344.5,371.6L350.5,373.5L343.5,373.8C338.8,374 336,374.6 334.7,375.7C333.7,376.7 331,377.4 328.2,377.5C322.2,377.7 305.3,385.7 307.1,387.5C307.6,387.9 310.4,387.3 322.1,384C329.3,381.9 331,382.9 335.3,391.5C337.3,395.6 339,399.5 339,400C339,401.1 325.7,418 314.4,431.1C307.8,438.7 305.1,441.1 301,442.9C293.6,446.1 283.7,446.7 276.6,444.5C271.6,442.9 269.9,441.6 263.2,434.3C253.3,423.4 238.1,404.3 236.3,400.4C234.6,396.9 235.2,395.1 240.9,387.3C244.6,382.2 246.9,381.9 256.8,385C265.1,387.6 266.2,387.5 262.5,384.4C255,378.1 247.4,376.2 242.5,379.4C241.2,380.3 237.2,383.7 233.7,387C230.1,390.3 226.8,393 226.3,393C225.8,393 221.6,389 216.9,384C211.4,378.1 207.3,374.6 205,373.9C203.1,373.2 198.1,371 194,368.9C181.7,362.7 174.8,362.7 167.5,369.2C163.7,372.5 159.5,378.8 160.4,379.7C160.9,380.3 167.5,376.1 174.2,370.8C175.7,369.6 178.3,368.7 179.9,368.7C183.1,368.7 198.7,377.9 212,387.8C221.2,394.6 240,413.5 253.9,430.1C265.9,444.3 268.5,446.7 274.3,448.8C281,451.2 292.7,451.5 299.6,449.5C304.8,448 306.4,446.8 313.4,439.7C317.7,435.2 325.7,426 331.2,419.3C336.6,412.5 341.4,407 341.8,407C342.2,407.1 343.4,408.5 344.5,410.3C345.6,412.1 347.5,413.9 348.8,414.5C350,415 350.9,415.8 350.8,416.2C350,418.4 323,446.5 319.2,449C307.2,456.9 285.5,460.3 271.3,456.5ZM274.5,426.8C273,423.9 269.5,418 266.7,413.8C261,405.3 259.7,404.6 254.3,408C248.9,411.2 249.7,412.6 262,421.2C265.6,423.7 270.3,427.7 272.5,430.1C277.3,435.4 278.1,434.1 274.5,426.8ZM316,419C320.1,416.1 323.8,413.2 324.2,412.6C325.1,411.3 322.4,408.3 318.7,406.3C316.1,405 315.6,405 313.8,406.7C308.7,411.3 300,425.4 298.6,431.5C297.9,434.4 298,434.3 303.2,429.4C306.1,426.5 311.9,421.9 316,419ZM305.5,398.3C307.7,397.1 310.3,395.3 311.3,394.2C313.1,392.3 312.8,392.3 305.3,394.7C294.2,398.3 281.4,398.3 271,394.7C266.9,393.3 263.3,392.4 263.1,392.6C262.5,393.2 266.1,397 268.5,398.3C272.5,400.4 276.7,400.9 289,400.6C299.4,400.4 302.2,400 305.5,398.3Z" style="fill:white;fill-rule:nonzero;"/>
            <path d="M356.5,445C355.7,443.7 357.4,443 358.9,443.9C359.9,444.5 359.8,444.9 358.6,445.3C357.8,445.6 356.8,445.5 356.5,445Z" style="fill:white;fill-rule:nonzero;"/>
            <path d="M177.5,442.4C176.4,442.2 172.8,441.5 169.5,440.8C154,437.9 134.4,426.8 126.6,416.5C123.1,411.9 118.3,401.5 117.4,396.5L116.7,392.6L122.1,397.3C133,406.9 149.3,413 164,413.1C172.4,413.2 177.3,411.6 183,407.1C189.2,402.2 190.6,401.7 194.3,403.5C196,404.3 199.4,406.8 201.6,408.9C205.9,412.8 211.6,420.7 210.9,421.5C210.6,421.7 208.5,420.3 206.1,418.4C201.7,415 199,414.1 199,416C199,416.6 199.7,421.5 200.5,426.9C202.1,437.9 201.9,439.7 198.3,441.1C195.5,442.1 180.5,443.1 177.5,442.4Z" style="fill:white;fill-rule:nonzero;"/>
            <path d="M386,442.2C384.1,442 381.7,441.1 380.7,440.2C379,438.7 379.1,438.5 383.5,436.2L388.1,433.9L394.6,437.5C398.2,439.5 401,441.3 400.8,441.5C400.2,442 389.4,442.6 386,442.2Z" style="fill:white;fill-rule:nonzero;"/>
            <path d="M408.8,407.9C407.4,407.1 407,405.6 407,400.9L407,395L410.8,396.6C420.8,401.1 426.1,398.7 427.4,389.2C427.8,386.3 428.4,384 428.8,384C429.2,384 430.7,385 432.3,386.3L435,388.5L431.7,394.5C429.2,398.9 427.7,400.6 425.9,400.8C422.8,401.3 419,404.8 419,407.2C419,408.7 418.2,409 414.8,409C412.4,409 409.7,408.5 408.8,407.9Z" style="fill:white;fill-rule:nonzero;"/>
            <path d="M412.5,388.7C409.8,387.5 407.4,386.5 407.2,386.4C406.7,386.1 408.3,375.2 409,374C410.2,372.1 421.2,378.6 420.6,380.8C420.4,381.8 419.8,384.4 419.5,386.8C419.1,389.1 418.5,391 418.2,390.9C417.8,390.8 415.3,389.8 412.5,388.7Z" style="fill:white;fill-rule:nonzero;"/>
            <path d="M485.7,389.5C485.4,388.8 484.9,386.2 484.5,383.7L483.8,379.2L489.1,376.1C492.1,374.4 494.8,373 495.2,373C495.8,373 496.6,377.6 497.3,384.3C497.6,386.7 486.5,391.6 485.7,389.5Z" style="fill:white;fill-rule:nonzero;"/>
            <path d="M365,371.8C368,370.7 373.5,367.8 377.2,365.4C383.5,361.4 383.9,361.2 385.4,362.9C386.9,364.6 386.9,364.8 384.8,366.2C377.3,371.1 369.9,374 364.8,373.9L359.5,373.9L365,371.8Z" style="fill:white;fill-rule:nonzero;"/>
            <path d="M386,373.2C386,372.7 387.8,371.5 389.9,370.5C395,368.3 401,369.1 401,372C401,373.8 400.3,374 393.5,374C389.4,374 386,373.6 386,373.2Z" style="fill:white;fill-rule:nonzero;"/>
            <path d="M396.3,359.7C393.2,358.4 391,356.9 391,356C391,354.2 393.7,344 394.3,343.3C394.7,343 404.8,348.1 406.9,349.6C407.5,350.1 402.8,362 402.1,361.9C401.8,361.8 399.1,360.8 396.3,359.7Z" style="fill:white;fill-rule:nonzero;"/>
            <path d="M500.2,357.2C497.1,350 497.1,350 503.5,346.4C506.8,344.5 509.8,343 510.2,343C510.6,343 511.4,345.6 512,348.7C512.7,351.9 513.4,355 513.7,355.7C514,356.4 512.5,357.6 510.3,358.5C501.7,362.2 502.4,362.3 500.2,357.2Z" style="fill:white;fill-rule:nonzero;"/>
            <path d="M224.1,353.6C219,351.8 213.5,346.6 208,338.4C202.1,329.7 200.9,325.8 203.5,323C205.4,320.9 207.7,320.6 212.9,321.6C218.9,322.8 232.5,337.5 237.6,348.3C239.4,352.1 239.4,352.2 237.5,353.6C235.2,355.3 228.8,355.3 224.1,353.6Z" style="fill:white;fill-rule:nonzero;"/>
            <path d="M338.3,353.5C335.6,351.6 336.2,349.6 341.7,341.3C352.7,324.8 365.1,317.1 371.1,323.1C373.6,325.6 373.1,329.3 369.4,335.7C362.1,348.3 344.8,358.2 338.3,353.5Z" style="fill:white;fill-rule:nonzero;"/>
            <path d="M223.4,301.9C220.9,300.7 219.8,298.4 216.3,288.5C213.2,279.4 207.8,248 209.3,248C209.6,248 212.8,252.6 216.6,258.3C220.3,263.9 226.9,272.2 231.3,276.7C238.7,284.3 239.3,285.3 239.8,289.8C240.2,294.9 238.9,297.3 236.7,295.1C234.8,293.2 234,293.9 234.6,297C235.2,299.5 234.9,300.1 232.6,301C228,302.7 225.6,302.9 223.4,301.9Z" style="fill:white;fill-rule:nonzero;"/>
            <path d="M341,300.5C339.8,299 339.9,297.6 341.6,293.5C342.4,291.6 342.3,291.6 339.7,293.3C336.3,295.5 336.3,295.5 335.6,292.4C334.5,288 336.7,283.8 344,276.7C347.8,272.9 353.2,266.4 355.9,262.2C361.3,253.8 363.9,250.6 364.6,251.3C365.4,252 362.8,272.3 360.9,280.6C358.6,290.8 354.8,299.5 352.2,300.9C349.2,302.5 342.5,302.3 341,300.5Z" style="fill:white;fill-rule:nonzero;"/>
            <path d="M237.6,276C236.2,274.3 234.6,271.2 234.1,269.2C230.4,255 229,248.2 227.9,239C226.6,227.7 227.2,211 229.1,202C230.2,196.9 230.4,196.7 231.3,199C234.9,207.5 242.9,222.4 250.1,233.6C258.7,247.1 261,252.9 261,261.4L261,266.4L257.5,263C253.6,259.2 253.1,260.1 255.5,267C257.6,273 256.8,274.6 250.4,276.9C242.9,279.7 240.7,279.6 237.6,276Z" style="fill:white;fill-rule:nonzero;"/>
            <path d="M321.2,276.4C316.3,273.5 316.2,272.7 319.6,263.8C321.8,258.1 320.8,256.5 317.5,260.5L315.1,263.5L315,256.4L315,249.3L323.3,236.4C333.2,221.1 338,212.5 341.9,203.5L344.7,196.8L346,201.7C347.8,208.8 348.4,228.3 347.1,239.3C345.8,250.4 342.6,264.9 340.3,270.2C336.7,278.7 329,281.2 321.2,276.4Z" style="fill:white;fill-rule:nonzero;"/>
            <path d="M158.5,230.4C140.9,216.8 141.9,218.3 140.9,203.9C140.4,197.1 139.9,184.8 139.8,176.5C139.5,162.3 139.6,161.1 142.3,153.2C143.9,148.7 145,144.5 144.8,143.8C144.6,143.2 142.4,145.2 140,148.3L135.6,153.9L124.5,126C118.4,110.6 112.5,96.8 111.4,95.3C107.7,90.2 86.1,76.6 58,61.5C36.8,50.2 34.4,48.5 28.5,40.6C25.5,36.7 23.2,33.4 23.3,33.3C23.5,33.2 28.8,34.4 35.1,36C41.5,37.6 60.9,41.6 78.3,44.9C95.6,48.2 111.4,51.6 113.4,52.5C120.5,55.9 137.5,75.7 148,93C161.5,115.2 167.8,131.5 180.9,178C189.7,209.3 190.1,216.3 183.8,226.1C179.3,233.1 173.5,239 171.2,239C170.3,238.9 164.6,235.1 158.5,230.4Z" style="fill:white;fill-rule:nonzero;"/>
            <path d="M400,231.9C397,229.7 393.3,226.7 391.9,225.4C388.3,222 386.6,215.4 387.4,208.8C388.5,200.1 398.7,162.8 405.5,142.5C416.5,109.7 418,106.8 437,80.5C441.4,74.5 447.1,67.4 449.6,64.8C458.5,55.5 469.6,50.8 488.7,48.5C505.9,46.4 514.4,44.7 534.4,39.4C543.6,36.9 551.4,35.1 551.6,35.2C551.7,35.4 549,39 545.5,43.1C538.6,51.4 535.9,53.3 516,64C489,78.5 465.2,93.5 462.6,97.5C461.6,98.9 455.7,113.5 449.4,129.8C443.1,146.1 437.5,159.9 437,160.4C436.4,161 434.4,159.9 431.6,157.6C429.1,155.6 426.9,154.4 426.5,155C426.2,155.5 427.5,158.2 429.4,161C435.6,169.9 437.9,181.1 438,201.7L438,212.8L429.8,218.6C425.2,221.8 418.8,227 415.4,230.2C412.1,233.4 408.5,236 407.4,236C406.4,235.9 403,234.1 400,231.9Z" style="fill:white;fill-rule:nonzero;"/>
            <path d="M194.5,210.3C177.7,151.3 171.2,130.9 162.3,110C151.9,85.8 148.3,80.6 128.3,60.9L114.5,47.3L75.7,39.6C54.3,35.4 34.4,31 31.4,29.9C23.1,26.8 15.9,20.8 10.7,12.9L8.9,10.2L16.7,14.1C26.9,19.2 33,20.4 67,23.4C114,27.7 133.1,30.7 146.5,35.7C152.5,38 184.9,58.6 194,65.9L196.5,68L190.7,68C187.2,68 185.1,68.4 185.5,69C185.8,69.5 191,71.5 196.9,73.4C210.8,77.8 213.4,79.2 215.4,83.3C219.9,92.8 231.3,123.7 240,150C251.8,185.5 253,189.4 252.1,190.8C251.2,192.2 241,196 237.9,196C235.4,196 232,193.3 232,191.4C232,190.9 231.3,189.5 230.5,188.3C228.3,185.2 226,186.4 226,190.6C226,194.8 224,199.9 221.4,202.2C219.7,203.6 197.5,216 196.5,216C196.3,216 195.4,213.4 194.5,210.3Z" style="fill:white;fill-rule:nonzero;"/>
            <path d="M364.4,209.1C357.7,205.9 352,202.7 351.5,202.1C351.1,201.4 350.1,198.1 349.1,194.7C348.2,191.2 346.9,188.5 346.2,188.5C345.5,188.5 343.9,190.3 342.7,192.5C339.9,197.4 337.9,197.8 329.5,195C323.9,193.1 323,192.5 323,190.4C323,181.8 355.8,87.3 360.8,81.6C363.2,79 370.8,75.8 382.5,72.6C395.5,69 395.4,69.1 394.6,68.3C394.2,67.9 390.7,67.7 386.8,67.9L379.7,68.1L382.6,65.8C384.2,64.4 392.3,58.7 400.5,53C429.5,33.1 436.5,31.1 488,28C508.2,26.8 545.4,21.9 552,19.5C554.5,18.6 558.2,16.8 560.2,15.5C565.1,12.3 565.5,12.4 563.3,16.1C560.6,20.8 552.6,27.6 546.4,30.5C538.2,34.4 516.7,39.4 488.5,44C469,47.3 462.5,48.7 458.9,50.7C456.1,52.2 449.3,58.5 441.6,66.7C426.7,82.5 422.2,88.3 418.2,96.5C413,107.1 399.3,145 394.6,161.5C392.2,170.3 387.8,185.9 385,196.3C380.9,210.9 379.4,215 378.1,215C377.2,215 371.1,212.3 364.4,209.1Z" style="fill:white;fill-rule:nonzero;"/>
        </g>
    </g>
</svg>
