<?xml version="1.0" encoding="UTF-8" standalone="no"?>
<!DOCTYPE svg PUBLIC "-//W3C//DTD SVG 1.1//EN" "http://www.w3.org/Graphics/SVG/1.1/DTD/svg11.dtd">
<svg width="100%" height="100%" viewBox="0 0 75 76" version="1.1" xmlns="http://www.w3.org/2000/svg" xmlns:xlink="http://www.w3.org/1999/xlink" xml:space="preserve" xmlns:serif="http://www.serif.com/" style="fill-rule:evenodd;clip-rule:evenodd;stroke-linejoin:round;stroke-miterlimit:2;">
    <g transform="matrix(1,0,0,1,-885.492,-1021.97)">
        <g id="Orc-ALLY" serif:id="Orc ALLY" transform="matrix(2.55135e-16,4.16667,-4.16667,2.55135e-16,3128.53,342.8)">
            <g transform="matrix(1,0,0,1,181.062,528.58)">
                <path d="M0,0.663C0.001,5.745 -4.256,9.723 -9.241,9.369C-9.823,9.328 -10.413,9.273 -10.955,9.061C-11.504,8.845 -12.011,8.954 -12.549,9.06C-13.271,9.203 -13.936,9.526 -14.654,9.67C-14.865,9.712 -15.137,9.84 -15.268,9.638C-15.4,9.436 -15.145,9.269 -15.017,9.114C-14.659,8.678 -14.329,8.224 -14.062,7.723C-13.996,7.6 -13.996,7.538 -14.111,7.446C-14.916,6.797 -15.586,6.028 -16.104,5.134C-16.24,4.899 -16.495,4.809 -16.654,4.608C-17.181,3.941 -17.622,3.243 -17.843,2.397C-18.244,0.865 -18.078,-0.603 -17.481,-2.038C-17.24,-2.617 -16.815,-3.073 -16.336,-3.472C-16.212,-3.576 -16.111,-3.691 -16.027,-3.829C-15.528,-4.639 -14.914,-5.352 -14.175,-5.953C-14.045,-6.058 -14.035,-6.125 -14.125,-6.271C-14.298,-6.549 -14.49,-6.81 -14.704,-7.056C-14.902,-7.284 -15.029,-7.557 -15.156,-7.825C-15.261,-8.044 -15.192,-8.123 -14.946,-8.144C-14.69,-8.166 -14.456,-8.076 -14.228,-7.99C-13.517,-7.72 -12.773,-7.58 -12.037,-7.405C-11.877,-7.368 -11.734,-7.381 -11.577,-7.437C-6.633,-9.177 -1.359,-6.274 -0.2,-1.177C-0.056,-0.547 0.022,0.091 0,0.663" style="fill:rgb(104,33,95);fill-rule:nonzero;"/>
            </g>
            <g transform="matrix(1,0,0,1,171.262,523.327)">
                <path d="M0,12.012C-0.144,11.835 -0.342,11.851 -0.531,11.863C-1.167,11.904 -1.633,12.261 -2.025,12.719C-2.665,13.465 -3.388,14.098 -4.295,14.497C-4.583,14.624 -4.878,14.737 -5.201,14.746C-5.204,14.722 -5.209,14.709 -5.205,14.705C-4.498,14.053 -4.183,13.11 -3.515,12.428C-3.363,12.273 -3.288,12.07 -3.231,11.867C-3.189,11.719 -3.128,11.651 -2.962,11.654C-2.813,11.657 -2.652,11.656 -2.474,11.545C-2.844,11.486 -3.169,11.446 -3.491,11.381C-4.568,11.166 -5.509,10.681 -6.342,9.965C-7.252,9.183 -7.716,8.196 -7.86,7.011C-8.001,5.851 -7.923,4.72 -7.551,3.619C-7.229,2.664 -6.521,2.011 -5.716,1.462C-4.769,0.816 -3.731,0.443 -2.564,0.509C-2.473,0.514 -2.373,0.529 -2.254,0.437C-2.555,0.344 -2.835,0.317 -3.115,0.298C-3.255,0.289 -3.337,0.272 -3.332,0.091C-3.326,-0.107 -3.433,-0.295 -3.573,-0.425C-4.042,-0.858 -4.286,-1.447 -4.655,-1.949C-4.797,-2.14 -4.95,-2.321 -5.103,-2.503C-5.14,-2.547 -5.214,-2.592 -5.181,-2.656C-5.141,-2.734 -5.057,-2.707 -4.99,-2.688C-4.476,-2.543 -4.005,-2.31 -3.582,-1.983C-2.96,-1.502 -2.405,-0.946 -1.814,-0.431C-1.316,0.004 -0.749,0.204 -0.019,0.059C-0.3,-0.004 -0.52,-0.04 -0.731,-0.104C-1.201,-0.245 -1.271,-0.483 -0.971,-0.876C-1.311,-0.941 -1.379,-0.783 -1.349,-0.374C-2.061,-0.917 -2.665,-1.519 -3.375,-2.116C-3.113,-2.082 -2.919,-2.064 -2.727,-2.032C-1.778,-1.871 -0.827,-1.717 -0.077,-1.029C0.04,-0.922 0.195,-0.901 0.341,-0.883C0.869,-0.816 1.13,-0.464 1.303,-0.011C1.384,0.204 1.195,0.305 1.098,0.438C1.002,0.571 0.905,0.446 0.829,0.397C0.605,0.254 0.406,0.219 0.143,0.35C-0.279,0.561 -0.734,0.601 -1.186,0.399C-1.228,0.38 -1.278,0.338 -1.329,0.389C-1.082,0.732 -0.337,0.884 -0.014,0.662C0.175,0.532 0.38,0.519 0.587,0.616C0.835,0.733 1.087,0.838 1.312,0.998C1.402,1.062 1.499,1.125 1.643,1.138C1.609,0.964 1.425,0.91 1.363,0.732C1.938,0.735 2.482,0.647 3.028,0.573C3.186,0.551 3.346,0.536 3.497,0.493C4.705,0.151 6.022,0.967 6.493,1.764C6.942,2.523 7.448,3.223 8.177,3.737C8.293,3.818 8.34,3.924 8.38,4.059C8.631,4.918 8.517,5.771 8.358,6.624C8.342,6.708 8.291,6.789 8.328,6.88C8.383,6.885 8.407,6.853 8.426,6.809C8.442,6.771 8.464,6.734 8.498,6.702C8.45,7.137 8.394,7.568 8.291,7.993C8.266,8.097 8.192,8.166 8.113,8.214C7.414,8.642 6.972,9.294 6.557,9.974C6.382,10.261 6.151,10.504 5.902,10.731C5.622,10.985 5.31,11.136 4.919,11.088C4.807,11.074 4.692,11.086 4.55,11.086C4.64,11.238 4.81,11.171 4.895,11.265C4.661,11.431 4.126,11.466 3.719,11.335C4.468,11.017 5.156,10.613 5.785,10.11C5.826,10.078 5.875,10.05 5.924,10.036C6.655,9.831 6.871,9.167 7.199,8.604C7.234,8.544 7.232,8.473 7.196,8.402C6.657,7.341 6.623,6.216 6.796,5.073C6.867,4.604 6.958,4.133 7.135,3.688C7.214,3.488 7.155,3.314 7.083,3.13C6.844,2.527 6.52,1.948 5.858,1.807C5.245,1.677 4.683,1.403 4.07,1.292C3.759,1.235 3.457,1.137 3.139,1.102C2.795,1.063 2.473,1.124 2.156,1.246C2.019,1.3 1.882,1.366 1.905,1.54C1.926,1.695 2.043,1.787 2.193,1.813C2.643,1.891 3.044,2.093 3.443,2.302C3.702,2.44 3.71,2.448 3.487,2.647C3.31,2.804 3.222,3.065 2.941,3.113C3.29,3.746 3.429,4.449 3.647,5.119C3.559,5.196 3.522,5.048 3.423,5.128C3.816,5.789 4.004,6.448 3.114,6.932C3.317,6.996 3.45,6.867 3.627,6.863C3.54,7.288 3.437,7.686 2.97,7.855C3.059,7.971 3.162,7.888 3.238,7.946C3.236,7.966 3.24,7.994 3.231,8.016C2.98,8.628 3.082,8.992 3.656,9.364C3.851,9.491 3.856,9.559 3.701,9.719C3.315,10.115 2.876,10.436 2.39,10.692C2.178,10.804 1.941,10.813 1.673,10.832C1.789,10.611 1.949,10.451 2.001,10.163C1.603,10.567 1.22,10.885 0.826,11.192C0.606,11.363 0.396,11.45 0.129,11.302C-0.257,11.089 -0.631,11.185 -1,11.387C-0.491,11.335 -0.021,11.454 0.441,11.656C0.611,11.731 0.768,11.568 0.92,11.485C1.03,11.426 1.106,11.295 1.266,11.316C1.028,11.678 1.026,11.679 1.334,12.047C1.395,12.12 1.339,12.162 1.309,12.207C1.099,12.518 0.874,12.81 0.457,12.85C0.269,12.869 0.106,12.951 -0.044,13.067C-0.874,13.708 -1.847,13.968 -2.861,14.114C-2.968,14.129 -3.076,14.18 -3.233,14.129C-2.559,13.646 -2.074,13.005 -1.467,12.434C-1.411,12.633 -1.429,12.818 -1.274,12.92C-1.168,12.99 -1.051,13.022 -0.917,12.995C-1.208,12.617 -1.199,12.293 -0.877,12.139C-0.664,12.037 -0.429,11.974 -0.184,12.013C-0.126,12.022 -0.069,12.063 0,12.012" style="fill:white;fill-rule:nonzero;"/>
            </g>
            <g transform="matrix(1,0,0,1,177.522,534.919)">
                <path d="M0,-3.062C0.043,-2.185 -0.575,-1.66 -1.249,-1.2C-2.241,-0.523 -3.331,-0.054 -4.504,0.215C-4.521,0.219 -4.539,0.227 -4.556,0.226C-4.69,0.218 -4.874,0.299 -4.937,0.142C-5.001,-0.017 -4.811,-0.069 -4.709,-0.135C-4.131,-0.505 -3.525,-0.834 -2.984,-1.261C-2.318,-1.785 -1.776,-2.418 -1.374,-3.164C-1.294,-3.312 -1.216,-3.361 -1.047,-3.31C-0.756,-3.222 -0.453,-3.216 -0.157,-3.274C-0.001,-3.304 0.04,-3.265 0,-3.062" style="fill:white;fill-rule:nonzero;"/>
            </g>
            <g transform="matrix(1,0,0,1,174.252,526.774)">
                <path d="M0,-2.183C0.805,-2.073 1.676,-1.902 2.456,-1.441C2.857,-1.205 3.071,-0.826 3.16,-0.375C3.193,-0.204 3.152,-0.1 2.944,-0.13C2.712,-0.163 2.491,-0.084 2.27,-0.032C2.132,0 2.055,-0.028 1.959,-0.14C1.249,-0.973 0.382,-1.558 -0.702,-1.793C-0.777,-1.809 -0.884,-1.814 -0.898,-1.901C-0.914,-2.005 -0.805,-2.041 -0.728,-2.073C-0.522,-2.158 -0.302,-2.172 0,-2.183" style="fill:white;fill-rule:nonzero;"/>
            </g>
            <g transform="matrix(1,0,0,1,177.715,525.616)">
                <path d="M0,6.967C0.288,6.272 -0.055,5.643 -0.174,4.996C-0.361,3.977 -0.352,2.969 -0.065,1.966C0.195,1.056 0.166,0.912 -0.344,0C0.208,0.177 0.64,0.924 0.459,1.46C0.061,2.641 0.015,3.839 0.219,5.056C0.254,5.264 0.281,5.482 0.368,5.67C0.619,6.209 0.3,6.578 0,6.967" style="fill:white;fill-rule:nonzero;"/>
            </g>
            <g transform="matrix(1,0,0,1,177.01,530.685)">
                <path d="M0,0.827C-0.232,0.814 -0.538,0.738 -0.834,0.625C-0.9,0.599 -1.053,0.511 -0.924,0.453C-0.563,0.289 -0.228,0.05 0.184,0.009C0.323,-0.005 0.399,0.036 0.398,0.189C0.398,0.239 0.428,0.289 0.444,0.339C0.572,0.762 0.522,0.832 0,0.827" style="fill:white;fill-rule:nonzero;"/>
            </g>
            <g transform="matrix(1,0,0,1,177.252,527.535)">
                <path d="M0,-0.747C0.114,-0.73 0.281,-0.771 0.284,-0.651C0.289,-0.487 0.305,-0.273 0.151,-0.164C-0.117,0.024 -0.716,-0.02 -0.96,-0.215C-1.166,-0.379 -1.158,-0.451 -0.913,-0.555C-0.617,-0.68 -0.303,-0.723 0,-0.747" style="fill:white;fill-rule:nonzero;"/>
            </g>
            <g transform="matrix(1,0,0,1,175.48,531.179)">
                <path d="M0,-0.768C0.146,-0.757 0.295,-0.786 0.435,-0.703C0.54,-0.64 0.548,-0.575 0.468,-0.497C0.204,-0.236 -0.135,-0.116 -0.478,-0.009C-0.562,0.018 -0.591,-0.025 -0.569,-0.107C-0.542,-0.208 -0.515,-0.309 -0.489,-0.411C-0.397,-0.785 -0.397,-0.785 0,-0.768" style="fill:white;fill-rule:nonzero;"/>
            </g>
            <g transform="matrix(1,0,0,1,175.353,526.585)">
                <path d="M0,0.848L-0.026,0.848C-0.534,0.849 -0.705,0.666 -0.675,0.159C-0.669,0.058 -0.622,-0.003 -0.527,0.044C-0.187,0.21 0.104,0.449 0.376,0.709C0.44,0.77 0.422,0.842 0.315,0.847C0.21,0.851 0.105,0.848 0,0.848" style="fill:white;fill-rule:nonzero;"/>
            </g>
            <g transform="matrix(1,0,0,1,174.924,532.143)">
                <path d="M0,-0.721C0.14,-0.683 0.277,-0.649 0.411,-0.607C0.492,-0.582 0.608,-0.589 0.63,-0.489C0.656,-0.375 0.546,-0.316 0.466,-0.274C0.312,-0.191 0.148,-0.122 -0.017,-0.065C-0.207,0 -0.302,-0.108 -0.265,-0.278C-0.229,-0.444 -0.284,-0.692 0,-0.721" style="fill:white;fill-rule:nonzero;"/>
            </g>
            <g transform="matrix(1,0,0,1,176.382,527.843)">
                <path d="M0,0.066C0.283,-0.147 0.579,-0.224 0.882,-0.281C0.923,-0.288 0.991,-0.31 0.997,-0.259C1.016,-0.083 0.975,0.093 0.914,0.254C0.868,0.376 0.74,0.341 0.635,0.316C0.422,0.265 0.216,0.198 0,0.066" style="fill:white;fill-rule:nonzero;"/>
            </g>
            <g transform="matrix(1,0,0,1,177.186,529.81)">
                <path d="M0,0.702C-0.11,0.68 -0.214,0.664 -0.314,0.638C-0.43,0.608 -0.596,0.608 -0.613,0.471C-0.626,0.35 -0.487,0.266 -0.384,0.209C-0.246,0.133 -0.081,-0.053 0.054,0.064C0.199,0.19 0.141,0.438 0.156,0.633C0.166,0.755 0.046,0.659 0,0.702" style="fill:white;fill-rule:nonzero;"/>
            </g>
            <g transform="matrix(1,0,0,1,175.207,529.287)">
                <path d="M0,-0.63C-0.033,-0.732 0.026,-0.757 0.108,-0.741C0.257,-0.712 0.397,-0.66 0.516,-0.564C0.663,-0.444 0.66,-0.312 0.537,-0.178C0.501,-0.14 0.454,-0.112 0.41,-0.084C0.078,0.127 0.04,0.106 0.022,-0.289C0.017,-0.403 0.008,-0.516 0,-0.63" style="fill:white;fill-rule:nonzero;"/>
            </g>
            <g transform="matrix(1,0,0,1,174.91,528.39)">
                <path d="M0,-0.794C0.256,-0.737 0.461,-0.646 0.645,-0.509C0.737,-0.44 0.789,-0.352 0.743,-0.236C0.67,-0.051 0.486,-0.075 0.341,-0.033C0.227,0 0.192,-0.089 0.168,-0.18C0.116,-0.374 0.062,-0.567 0,-0.794" style="fill:white;fill-rule:nonzero;"/>
            </g>
            <g transform="matrix(-0.977458,-0.211131,-0.211131,0.977458,175.404,530.242)">
                <path d="M0.19,-0.609C0.008,-0.575 -0.192,-0.637 -0.252,-0.418C-0.283,-0.306 0.032,-0.01 0.19,0.031C0.292,0.057 0.304,-0.009 0.288,-0.066C0.233,-0.24 0.441,-0.478 0.19,-0.609" style="fill:white;fill-rule:nonzero;"/>
            </g>
            <g transform="matrix(-0.0501299,-0.998743,-0.998743,0.0501299,177.009,528.469)">
                <path d="M-0.186,-0.261C-0.29,-0.177 -0.463,-0.302 -0.494,-0.127C-0.515,-0.01 -0.255,0.296 -0.186,0.257C-0.022,0.165 0.075,-0.011 0.071,-0.177C0.064,-0.392 -0.119,-0.152 -0.186,-0.261" style="fill:white;fill-rule:nonzero;"/>
            </g>
            <g transform="matrix(1,0,0,1,177.318,529.18)">
                <path d="M0,0.543C-0.214,0.447 -0.425,0.421 -0.443,0.24C-0.453,0.13 -0.227,0 -0.151,0.032C0.039,0.114 -0.08,0.331 0,0.543" style="fill:white;fill-rule:nonzero;"/>
            </g>
            <g transform="matrix(1,0,0,1,171.585,525.606)">
                <path d="M0,7.409C0.371,6.794 0.232,6.207 -0.06,5.593C-0.165,5.714 -0.12,5.825 -0.097,5.927C0.055,6.596 -0.075,7.166 -0.679,7.565C-0.816,7.655 -0.911,7.776 -0.996,7.912C-1.141,8.143 -1.31,8.357 -1.484,8.569C-1.653,8.775 -1.831,8.819 -2.058,8.685C-2.279,8.554 -2.535,8.479 -2.713,8.259C-2.504,8.318 -2.283,8.352 -2.09,8.443C-1.867,8.547 -1.757,8.462 -1.672,8.278C-1.607,8.135 -1.541,7.99 -1.55,7.821C-1.691,7.787 -1.768,7.976 -1.908,7.919C-1.926,7.849 -1.875,7.816 -1.838,7.784C-1.598,7.583 -1.55,7.32 -1.635,7.041C-1.738,6.703 -1.608,6.471 -1.365,6.255C-1.16,6.073 -0.943,5.909 -0.718,5.754C-0.42,5.55 -0.325,5.089 -0.495,4.775C-0.638,4.509 -0.818,4.375 -1.141,4.417C-1.412,4.453 -1.671,4.519 -1.936,4.586C-1.657,4.338 -1.347,4.149 -0.974,4.084C-0.737,4.042 -0.549,3.972 -0.593,3.665C-0.607,3.566 -0.542,3.478 -0.723,3.473C-0.85,3.47 -0.974,3.37 -1.111,3.308C-1.006,3.201 -0.908,3.329 -0.79,3.243C-1.127,3.121 -1.466,3.046 -1.752,2.78C-1.535,2.762 -1.379,2.846 -1.219,2.893C-0.943,2.974 -0.716,2.919 -0.533,2.694C-0.511,2.666 -0.484,2.643 -0.461,2.617C-0.11,2.212 -0.143,1.856 -0.575,1.519C-0.79,1.352 -1.024,1.207 -1.239,1.04C-1.427,0.894 -1.585,1.055 -1.814,1.084C-1.509,0.721 -1.411,0.378 -1.786,0.041C-1.765,0.026 -1.747,0.007 -1.726,-0.002C-1.642,-0.038 -1.516,0.107 -1.473,-0.031C-1.428,-0.173 -1.312,-0.294 -1.375,-0.477C-1.565,-1.033 -1.935,-1.168 -2.493,-0.867C-2.556,-0.832 -2.6,-0.744 -2.739,-0.791C-2.462,-1.053 -2.195,-1.28 -1.844,-1.386C-1.763,-1.41 -1.712,-1.355 -1.663,-1.302C-1.409,-1.023 -1.108,-0.783 -0.946,-0.428C-0.865,-0.252 -0.671,-0.216 -0.536,-0.106C-0.117,0.237 0,0.676 -0.077,1.19C-0.095,1.305 -0.196,1.488 -0.074,1.521C0.087,1.564 0.121,1.357 0.157,1.231C0.246,0.918 0.256,0.606 0.092,0.308C0.041,0.217 0.007,0.117 -0.004,0.003C0.182,0.189 0.354,0.385 0.419,0.648C0.488,0.926 0.525,1.225 0.363,1.469C0.017,1.986 0.145,2.48 0.367,2.984C0.387,3.031 0.428,3.072 0.388,3.142C0.208,3.048 0.138,2.86 0.023,2.712C-0.414,3.157 -0.442,3.879 -0.045,4.338C0.035,4.431 0.035,4.431 0.241,4.242C0.301,4.359 0.228,4.467 0.24,4.572C0.248,4.636 0.255,4.707 0.32,4.724C0.382,4.741 0.397,4.668 0.425,4.625C0.511,4.489 0.586,4.343 0.769,4.241C0.751,4.423 0.667,4.537 0.611,4.662C0.582,4.726 0.52,4.792 0.525,4.852C0.553,5.229 0.91,5.32 1.134,5.527C1.259,5.642 1.396,5.605 1.52,5.513C1.631,5.429 1.737,5.338 1.893,5.212C1.843,5.48 1.717,5.637 1.599,5.793C1.512,5.906 1.515,5.984 1.615,6.084C1.883,6.351 2.142,6.626 2.449,6.943C1.508,6.389 0.665,5.813 0.099,4.898C0.022,5.135 0.016,5.329 0.174,5.522C0.353,5.741 0.449,6.013 0.567,6.269C0.645,6.439 0.624,6.61 0.536,6.777C0.408,7.023 0.24,7.233 0,7.409" style="fill:rgb(104,33,95);fill-rule:nonzero;"/>
            </g>
            <g transform="matrix(1,0,0,1,173.577,526.987)">
                <path d="M0,1.046C-0.176,0.896 -0.356,0.749 -0.527,0.593C-0.625,0.505 -0.708,0.481 -0.824,0.565C-1.043,0.725 -1.347,0.816 -1.45,1.072C-1.55,1.324 -1.322,1.565 -1.274,1.828C-1.429,1.739 -1.735,1.257 -1.727,1.075C-1.719,0.899 -1.577,0.788 -1.462,0.666C-1.034,0.212 -0.653,-0.289 -0.119,-0.633C-0.067,-0.666 -0.017,-0.702 0.099,-0.782C-0.105,-0.462 -0.255,-0.193 -0.44,0.048C-0.534,0.172 -0.506,0.23 -0.427,0.332C-0.26,0.546 -0.11,0.773 0.048,0.995C0.032,1.012 0.016,1.029 0,1.046" style="fill:rgb(104,33,95);fill-rule:nonzero;"/>
            </g>
            <g transform="matrix(1,0,0,1,173.977,530.852)">
                <path d="M0,-1.265C-0.21,-1.037 -0.408,-0.827 -0.598,-0.61C-0.672,-0.526 -0.744,-0.444 -0.599,-0.329C-0.466,-0.223 -0.628,-0.156 -0.684,-0.085C-0.751,0 -0.811,-0.03 -0.877,-0.103C-1.174,-0.434 -1.153,-0.667 -0.783,-0.897C-0.604,-1.008 -0.41,-1.096 -0.221,-1.188C-0.153,-1.222 -0.077,-1.239 0,-1.265" style="fill:rgb(104,33,95);fill-rule:nonzero;"/>
            </g>
            <g transform="matrix(1,0,0,1,173.919,527.975)">
                <path d="M0,1.237C-0.296,1.223 -0.462,1.081 -0.626,0.948C-0.741,0.854 -0.826,0.724 -0.942,0.632C-1.116,0.493 -1.08,0.358 -0.977,0.2C-0.9,0.081 -0.794,0 -0.678,0.094C-0.587,0.167 -0.39,0.256 -0.575,0.438C-0.649,0.511 -0.575,0.585 -0.547,0.654C-0.448,0.895 -0.223,1.028 0,1.237" style="fill:rgb(104,33,95);fill-rule:nonzero;"/>
            </g>
            <g transform="matrix(1,0,0,1,178.421,527.816)">
                <path d="M0,2.39C-0.309,1.848 -0.209,0.328 0.165,0C-0.053,0.796 -0.022,1.564 0,2.39" style="fill:rgb(104,33,95);fill-rule:nonzero;"/>
            </g>
            <g transform="matrix(1,0,0,1,168.192,530.871)">
                <path d="M0,1.331C-0.242,0.707 0.174,0.362 0.55,0C0.315,0.421 0.116,0.857 0,1.331" style="fill:rgb(104,33,95);fill-rule:nonzero;"/>
            </g>
            <g transform="matrix(1,0,0,1,176.566,524.899)">
                <path d="M0,0.013C0.373,-0.307 0.686,-0.234 1.012,0.32C0.722,0.06 0.37,0.016 0,0.013" style="fill:rgb(104,33,95);fill-rule:nonzero;"/>
            </g>
            <g transform="matrix(1,0,0,1,168.793,526.804)">
                <path d="M0,1.266C-0.161,0.856 -0.323,0.445 -0.498,0C-0.089,0.355 0.013,0.788 0,1.266" style="fill:rgb(104,33,95);fill-rule:nonzero;"/>
            </g>
            <g transform="matrix(1,0,0,1,171.314,532.385)">
                <path d="M0,-0.289C0.046,0.197 -0.314,0.37 -0.689,0.452C-0.792,0.475 -0.849,0.43 -0.889,0.332C-1.062,-0.09 -0.662,-0.736 -0.213,-0.759C-0.123,-0.764 -0.094,-0.707 -0.055,-0.647C0.02,-0.535 -0.015,-0.409 0,-0.289" style="fill:white;fill-rule:nonzero;"/>
            </g>
            <g transform="matrix(1,0,0,1,171.313,526.023)">
                <path d="M0,0.474C0.009,0.846 -0.053,0.887 -0.378,0.705C-0.568,0.6 -0.781,0.524 -0.897,0.316C-1.016,0.102 -0.968,-0.155 -0.763,-0.286C-0.564,-0.413 -0.413,-0.298 -0.28,-0.158C-0.099,0.033 -0.005,0.256 0,0.474" style="fill:white;fill-rule:nonzero;"/>
            </g>
        </g>
    </g>
</svg>
