<?xml version="1.0" encoding="UTF-8" standalone="no"?>
<!DOCTYPE svg PUBLIC "-//W3C//DTD SVG 1.1//EN" "http://www.w3.org/Graphics/SVG/1.1/DTD/svg11.dtd">
<svg width="100%" height="100%" viewBox="0 0 95 84" version="1.1" xmlns="http://www.w3.org/2000/svg" xmlns:xlink="http://www.w3.org/1999/xlink" xml:space="preserve" xmlns:serif="http://www.serif.com/" style="fill-rule:evenodd;clip-rule:evenodd;stroke-linecap:round;stroke-linejoin:round;">
    <g transform="matrix(1,0,0,1,-877.319,-884.525)">
        <g id="Sir-Ragnar-ALLY" serif:id="Sir Ragnar ALLY" transform="matrix(2.55135e-16,4.16667,-4.16667,2.55135e-16,2405.96,119.679)">
            <g transform="matrix(-1,0,0,1,193.928,364.912)">
                <ellipse cx="0" cy="-9.392" rx="9.392" ry="9.392" style="fill:none;stroke:rgb(104,33,95);stroke-width:0.35px;"/>
            </g>
            <g transform="matrix(1,0,0,1,201.783,355.854)">
                <path d="M0,-0.628C0.024,-0.623 0.049,-0.618 0.073,-0.613C0.106,-0.685 0.132,-0.699 0.132,-0.819C0.04,-0.837 0.067,-0.864 0,-0.628ZM-0.162,7.525C-0.191,7.496 -0.235,7.502 -0.235,7.584C-0.147,7.584 -0.162,7.599 -0.162,7.525ZM-1.264,-6.298C-1.317,-6.44 -1.289,-6.416 -1.381,-6.416C-1.328,-6.275 -1.355,-6.298 -1.264,-6.298ZM-2.498,3.676C-2.469,3.521 -2.228,3.178 -2.468,3.133C-2.522,3.298 -2.568,3.458 -2.571,3.676L-2.498,3.676ZM-0.94,-7.121C-1.101,-7.279 -2.091,-7.763 -2.512,-7.606C-2.863,-7.475 -3.017,-7.64 -2.997,-6.915C-2.529,-6.917 -2.343,-7.106 -1.984,-7.106C-1.873,-7.259 -1.984,-7.278 -2.086,-7.371L-2.116,-7.371C-1.867,-7.55 -1.058,-6.999 -0.999,-6.871C-0.799,-6.887 -0.899,-6.82 -0.691,-7.048C-0.573,-6.994 -0.443,-7.059 -0.235,-7.062C-0.268,-7.18 -0.32,-7.165 -0.485,-7.18C-0.671,-7.041 -0.643,-6.959 -0.588,-7.532C-0.647,-7.65 -0.705,-7.768 -0.764,-7.885C-0.791,-7.867 -0.898,-7.235 -0.896,-7.15C-0.911,-7.141 -0.925,-7.131 -0.94,-7.121ZM-2.586,1.297C-2.586,1.242 -2.743,1.318 -2.762,1.326C-2.752,1.35 -2.742,1.375 -2.733,1.399C-2.807,1.445 -2.868,1.462 -2.997,1.458C-3.013,1.57 -3.06,1.568 -3.1,1.649C-3.1,1.706 -2.801,1.621 -2.6,1.62C-2.575,1.443 -2.723,1.543 -2.586,1.297ZM-0.367,7.657C-0.723,7.867 -0.304,8.033 -1.528,8.612C-1.831,8.756 -2.289,8.703 -2.556,8.612C-2.63,8.627 -2.703,8.642 -2.776,8.656C-2.877,8.62 -2.978,8.541 -3.1,8.524C-3.097,8.635 -3.122,8.718 -3.188,8.759L-3.188,8.921C-3.144,8.91 -2.992,8.812 -2.894,8.862C-2.269,9.181 -2.304,8.883 -2.233,9.097C-1.98,9.097 -2.02,9.112 -1.984,9.038C-1.869,8.996 -1.646,9.028 -1.484,8.921C-1.013,8.61 -0.676,7.943 0.132,7.951C0.132,7.791 0.17,7.938 0.352,7.951C0.623,7.697 0.587,7.75 0.587,7.657C0.467,7.636 0.384,7.543 0.294,7.511C0.135,7.453 -0.023,7.625 -0.103,7.657C-0.219,7.705 -0.241,7.583 -0.367,7.657ZM-3.335,2.736C-3.202,2.918 -3.208,2.749 -3.158,2.442C-3.186,2.34 -3.257,2.229 -3.261,2.075C-3.411,2.075 -3.33,2.531 -3.335,2.736ZM-3.452,-10.133C-3.545,-10.133 -3.526,-10.147 -3.526,-10.059C-3.433,-10.059 -3.452,-10.044 -3.452,-10.133ZM-3.717,-10.015C-3.576,-10.015 -3.599,-9.996 -3.599,-10.089C-3.714,-10.089 -3.717,-10.103 -3.717,-10.015ZM-3.761,-1.26C-3.838,-1.066 -3.87,-0.876 -3.864,-0.584C-3.686,-0.433 -3.861,-0.253 -3.511,-0.231C-3.441,-1.31 -3.356,-1.183 -3.761,-1.26ZM-4.025,6.276C-4.07,6.291 -4.113,6.306 -4.157,6.321C-4.174,6.315 -4.246,6.239 -4.26,6.233C-4.295,6.242 -4.329,6.252 -4.363,6.262C-4.485,6.194 -4.626,6.094 -4.789,6.071C-4.865,6.223 -4.459,6.392 -4.349,6.497C-3.942,6.883 -3.996,6.801 -3.996,7.202C-3.917,7.371 -3.66,7.472 -3.614,7.672C-3.508,7.69 -3.526,7.668 -3.526,7.76C-3.036,8.139 -2.558,8.541 -1.704,8.407C-1.678,8.303 -1.678,8.333 -1.91,8.333C-2.039,8.28 -2.092,8.187 -2.292,8.186C-2.364,7.994 -2.566,7.991 -2.644,7.834C-2.711,7.7 -2.684,7.688 -2.776,7.599C-2.646,7.546 -2.286,7.637 -2.13,7.643C-2.048,7.478 -2.785,7.171 -2.968,7.04C-3.178,6.89 -2.972,6.677 -4.025,6.276ZM-4.789,0.694C-4.93,0.694 -4.907,0.675 -4.907,0.768C-4.792,0.768 -4.789,0.782 -4.789,0.694ZM-5.097,-10.97C-5.378,-11.095 -5.352,-11.107 -5.392,-11.029C-5.28,-10.96 -5.097,-10.824 -5.097,-10.97ZM-5.671,-10.838C-5.578,-10.838 -5.597,-10.817 -5.597,-10.941C-5.69,-10.941 -5.671,-10.961 -5.671,-10.838ZM-6.772,-7.503C-6.743,-7.479 -6.714,-7.454 -6.684,-7.43C-6.577,-7.43 -6.446,-7.625 -6.405,-7.723C-6.405,-7.745 -6.406,-7.738 -6.64,-7.723C-6.704,-7.577 -6.772,-7.676 -6.772,-7.503ZM-4.07,1.135C-4.167,0.907 -4.32,0.823 -4.319,0.459C-4.358,0.444 -4.397,0.43 -4.437,0.415C-4.437,0.568 -4.59,0.513 -4.716,0.826C-5.206,0.961 -5.544,0.914 -5.994,0.738C-6.158,0.674 -6.334,0.778 -6.464,0.782C-6.604,1.35 -6.558,0.767 -7.257,0.782C-7.493,1.058 -7.287,0.715 -7.757,0.738C-7.779,0.849 -7.755,0.989 -7.771,1.12C-7.722,1.18 -7.648,1.227 -7.551,1.238C-7.076,2.782 -7.609,2.569 -7.727,3.147C-7.616,3.147 -7.642,3.109 -7.625,3.339C-7.532,3.351 -7.373,3.425 -7.257,3.397C-7.056,3.349 -6.236,2.507 -6.126,2.325C-6.041,2.184 -5.96,1.889 -5.817,1.811C-5.734,1.765 -5.599,1.77 -5.524,1.722C-5.356,1.744 -5.305,1.852 -5.142,1.869C-5.137,1.83 -5.132,1.791 -5.127,1.752C-5.404,1.64 -5.533,1.317 -5.876,1.267C-5.955,0.894 -5.48,1.105 -5.142,1.105C-5.117,0.958 -5.14,0.995 -5.01,1.223C-4.938,1.348 -4.711,1.455 -4.584,1.532C-4.281,1.713 -4.107,2.106 -3.805,2.31C-3.801,2.902 -3.733,2.797 -3.996,2.898C-3.996,2.988 -4.008,3.019 -3.864,3.015C-3.694,2.862 -3.688,2.929 -3.688,2.868C-3.624,2.921 -3.614,3.021 -3.614,3.103L-3.57,3.103C-3.149,2.726 -3.971,1.652 -3.981,1.634C-4.068,1.487 -3.995,1.31 -4.07,1.135ZM-7.889,-1.671C-7.925,-2.307 -7.818,-2.303 -7.962,-2.303C-8.003,-1.544 -8.079,-1.6 -7.889,-1.671ZM-7.918,1.679C-7.777,1.679 -7.886,1.117 -7.889,0.988C-8.01,1.007 -8.013,1.091 -8.006,1.208C-8.258,1.25 -8.094,1.492 -8.094,1.532C-8.008,1.527 -8.008,1.52 -7.962,1.487C-7.962,1.689 -7.974,1.66 -7.918,1.679ZM-8.242,-2.068C-8.242,-1.873 -8.28,-1.906 -8.094,-1.906C-7.948,-2.255 -8.106,-2.088 -8.242,-2.068ZM-7.977,-2.993C-8.305,-3.345 -8.274,-3.264 -8.344,-2.964C-8.152,-2.862 -7.96,-2.551 -7.977,-2.993ZM-8.388,-2.67C-8.314,-2.67 -8.345,-2.652 -8.227,-2.787C-8.269,-2.916 -8.33,-2.883 -8.359,-2.875C-8.401,-2.875 -8.388,-2.88 -8.388,-2.67ZM-5.097,6.556C-5.472,6.556 -5.626,6.379 -5.626,6.512C-5.596,6.536 -5.598,6.535 -5.538,6.541C-5.655,6.583 -5.924,6.449 -6.053,6.409C-6.528,6.437 -6.23,6.365 -6.831,6.365C-8.162,6.365 -8.203,6.641 -8.624,6.658L-8.624,6.776C-8.507,6.769 -8.295,6.695 -8.197,6.658L-6.596,6.658C-6.083,6.988 -5.925,6.687 -5.083,7.29C-4.877,7.438 -4.651,7.539 -4.481,7.672C-4.205,7.888 -4.062,8.242 -3.849,8.524C-3.802,8.587 -3.689,8.675 -3.658,8.744C-3.574,8.934 -3.687,9.156 -3.585,9.347C-3.482,9.539 -3.37,9.648 -3.379,9.949C-3.325,9.919 -3.347,9.948 -3.335,9.876C-3.24,10.122 -3.438,10.498 -3.438,10.845L-3.35,10.845C-3.324,10.68 -3.007,9.998 -3.085,9.832C-3.194,9.598 -3.115,9.315 -3.217,9.097C-3.702,8.064 -4.017,6.984 -5.097,6.556ZM-10.592,2.722C-10.592,2.777 -10.607,2.765 -10.518,2.765C-10.518,2.723 -10.502,2.649 -10.592,2.722ZM-11.664,1.693L-11.767,1.693C-11.837,1.935 -11.943,1.974 -11.473,2.046C-11.29,1.609 -11.525,1.774 -11.62,1.796C-11.641,1.796 -11.633,1.801 -11.664,1.693ZM-3.423,-11.249C-3.458,-11.214 -3.449,-11.212 -3.467,-11.249C-3.467,-11.269 -3.467,-11.264 -3.423,-11.249ZM-3.173,-8.047C-3.167,-8.284 -3.094,-8.545 -3.173,-8.766C-3.021,-8.674 -3.063,-8.154 -3.173,-8.047ZM-6.156,-4.888C-6.219,-4.903 -6.209,-4.91 -6.258,-4.932L-6.258,-4.962C-6.195,-4.943 -6.189,-4.932 -6.156,-4.888ZM-5.289,-4.668C-5.289,-4.535 -5.967,-4.774 -6.067,-4.785C-5.287,-4.684 -5.355,-4.668 -5.289,-4.668ZM-0.544,-1.083C-0.525,-1.146 -0.514,-1.153 -0.47,-1.186C-0.411,-1.186 -0.403,-1.207 -0.544,-1.083ZM-2.086,0.224C-2.129,0.45 -2.291,0.423 -2.189,0.547C-2.326,0.657 -2.353,0.727 -2.542,0.591C-2.449,0.467 -2.17,0.058 -2.086,0.224ZM-2.38,0.885L-2.409,0.871C-2.409,0.818 -2.417,0.83 -2.38,0.812L-2.38,0.885ZM-14.265,-2.846C-14.213,-2.768 -14.147,-2.748 -14.118,-2.655C-14.171,-2.615 -14.175,-2.607 -14.118,-2.567C-14.118,-2.461 -14.412,-2.806 -14.47,-2.846C-14.47,-3.008 -14.423,-2.763 -14.265,-2.846ZM-14,-2.655L-14,-2.67C-13.961,-2.631 -13.961,-2.636 -14,-2.655ZM-13.956,-2.611L-13.956,-2.626C-13.917,-2.587 -13.917,-2.592 -13.956,-2.611ZM-13.603,-0.305L-13.603,-0.334C-13.531,-0.298 -13.522,-0.305 -13.603,-0.305ZM-14.088,1.311L-14.029,1.297C-14.07,1.328 -14.032,1.305 -14.088,1.311ZM-10.357,6.35C-10.283,6.498 -11,6.446 -11.194,6.365C-11.442,6.262 -11.409,6.567 -12.516,5.792C-12.605,5.73 -12.602,5.606 -12.663,5.513C-12.709,5.443 -13.019,5.12 -13.089,5.072C-13.089,4.644 -12.554,6.394 -10.357,6.35ZM-8.668,-6.651C-8.834,-6.708 -8.93,-6.642 -9.064,-6.695C-9.135,-6.723 -9.164,-6.784 -9.27,-6.798C-9.188,-6.852 -8.939,-6.801 -8.858,-6.768C-8.178,-6.768 -8.508,-6.817 -7.786,-6.445C-7.746,-6.365 -8.554,-6.612 -8.668,-6.651ZM-11.121,-7.15C-10.579,-7.153 -10.228,-7.346 -9.711,-7.15C-9.481,-7.064 -9.167,-7.278 -9.005,-7.062C-8.996,-7.057 -8.986,-7.053 -8.976,-7.048C-9.174,-6.969 -9.509,-7.129 -9.681,-7.136C-10.123,-7.153 -11.174,-6.937 -11.121,-7.15ZM-3.511,-11.293L-3.511,-11.308C-3.469,-11.29 -3.438,-11.269 -3.511,-11.293ZM-3.555,-11.337C-3.546,-11.342 -3.535,-11.347 -3.526,-11.352C-3.526,-11.315 -3.52,-11.32 -3.555,-11.337ZM-3.379,-11.278C-3.685,-11.473 -3.68,-11.44 -3.878,-11.44L-3.878,-11.381C-3.53,-11.246 -4.09,-10.935 -4.29,-10.705C-4.258,-10.548 -4.49,-10.488 -4.584,-10.133C-4.817,-9.938 -4.953,-9.664 -5.142,-9.428C-5.228,-9.32 -5.227,-9.16 -5.318,-9.06C-5.467,-8.896 -5.669,-8.72 -5.803,-8.59C-5.938,-8.46 -5.997,-8.208 -6.185,-8.135C-6.177,-8.076 -6.176,-8.08 -6.156,-8.047C-6.35,-7.949 -6.363,-7.972 -6.156,-7.811C-6.15,-7.37 -6.439,-6.488 -6.831,-6.46C-6.831,-6.516 -6.796,-6.57 -7.022,-6.563C-7.12,-6.487 -7.074,-6.467 -7.051,-6.343L-6.537,-6.343C-6.508,-6.329 -6.519,-6.273 -6.449,-6.284C-4.979,-6.52 -4.144,-7.679 -3.952,-7.679C-3.972,-7.402 -4.231,-7.35 -4.334,-7.165C-4.465,-6.93 -5.095,-6.363 -5.347,-6.269C-5.59,-6.179 -5.735,-6.225 -6.92,-6.225C-7.104,-6.285 -7.341,-6.364 -7.536,-6.357C-7.526,-6.392 -7.517,-6.426 -7.507,-6.46C-7.726,-6.551 -7.675,-6.433 -7.698,-6.636C-7.844,-6.697 -7.937,-6.816 -8.109,-6.842C-8.129,-6.867 -8.149,-6.891 -8.168,-6.915C-7.803,-7.079 -7.316,-7.297 -7.125,-7.635C-7.003,-7.851 -7.041,-8.514 -6.758,-8.531C-6.734,-8.603 -6.754,-8.615 -6.67,-8.634C-6.636,-8.9 -6.662,-8.869 -6.567,-8.869C-6.543,-8.939 -6.54,-9.01 -6.596,-9.046C-6.578,-9.125 -6.54,-9.115 -6.508,-9.163C-6.502,-9.172 -6.504,-9.454 -6.493,-9.545C-6.405,-9.634 -6.251,-9.874 -6.361,-9.956C-6.295,-10.016 -6.222,-10.023 -6.258,-10.147C-6.226,-10.154 -6.133,-10.156 -6.214,-10.235C-6.122,-10.254 -6.152,-10.218 -6.082,-10.412C-6.216,-10.447 -6.223,-10.338 -6.273,-10.338C-6.167,-10.617 -5.891,-11.055 -5.568,-11.058C-5.563,-11.092 -5.558,-11.127 -5.553,-11.161C-7.191,-11.182 -7.147,-8.467 -7.948,-7.4C-8.027,-7.294 -8.199,-7.318 -8.3,-7.268C-8.863,-6.986 -9.106,-7.318 -9.608,-7.356C-9.589,-7.387 -9.589,-7.377 -9.578,-7.43C-9.878,-7.422 -10.509,-7.572 -10.871,-7.4C-11.611,-7.4 -11.041,-7.477 -12.355,-7.018C-12.667,-7.018 -13.417,-6.921 -13.589,-6.842C-14.997,-6.192 -15.332,-5.386 -15.587,-5.064C-15.648,-4.987 -15.8,-4.99 -15.866,-4.918C-15.998,-4.773 -15.773,-4.827 -16.115,-4.609C-16.145,-4.569 -16.163,-4.413 -16.174,-4.403C-16.495,-4.323 -16.518,-3.802 -16.835,-3.639C-16.822,-3.573 -16.837,-3.596 -16.791,-3.566C-16.856,-3.526 -16.859,-3.515 -16.924,-3.507C-16.906,-3.12 -17.389,-2.714 -17.54,-2.347C-17.54,-1.922 -17.845,-1.11 -17.981,-0.878C-17.938,-0.58 -18.117,0.38 -18.01,0.591C-17.829,0.951 -17.957,1.685 -17.776,2.002C-17.612,2.286 -17.312,2.445 -17.144,2.736C-17.049,2.899 -17.225,3.155 -17.115,3.324C-17.013,3.479 -16.804,3.675 -16.776,3.882C-16.418,3.934 -16.292,4.228 -16.101,4.426C-15.942,4.589 -15.058,5.133 -14.838,5.16C-14.725,5.647 -14.192,6.247 -13.56,6.247C-13.57,6.1 -13.636,6.131 -13.574,6.1C-13.459,6.191 -13.209,6.22 -13.178,6.188C-13.178,6.102 -13.55,5.893 -13.618,5.777C-14.045,5.055 -13.99,3.752 -13.927,3.72C-13.932,6.271 -13.18,5.625 -12.869,6.247C-12.898,6.271 -12.889,6.267 -12.942,6.276C-12.863,6.408 -12.379,6.739 -12.223,6.806C-12.04,6.883 -12.182,6.62 -11.429,6.923C-11.114,7.05 -9.382,6.777 -8.902,6.497C-8.371,6.187 -8.056,5.712 -7.419,5.483C-7.323,4.907 -8.775,6.493 -9.931,6.556C-9.807,6.415 -9.847,6.438 -9.755,6.438C-9.755,6.268 -9.724,6.341 -10.122,6.321C-9.99,6.11 -10.188,6.228 -10.298,6.188C-10.48,6.124 -10.588,5.986 -10.827,5.997C-10.95,5.874 -10.284,6.034 -10.048,5.924C-9.912,5.86 -9.758,5.684 -9.637,5.63C-9.416,5.532 -9.131,5.568 -8.961,5.498C-8.847,5.451 -8.256,5.174 -8.183,5.101C-8.149,5.067 -8.165,4.997 -8.124,4.969C-7.969,4.865 -7.654,4.871 -7.595,4.675C-6.741,4.63 -6.764,4.644 -6.743,4.602C-6.743,4.543 -6.732,4.558 -6.92,4.558C-7.053,4.424 -6.268,4.484 -6.17,4.528C-6.146,4.563 -6.121,4.597 -6.097,4.631C-6.033,4.659 -5.81,4.601 -5.685,4.675C-5.607,4.722 -5.516,4.887 -5.465,4.925C-5.377,4.954 -5.289,4.984 -5.2,5.013C-4.347,5.601 -4.209,5.422 -3.908,5.645C-3.908,5.851 -3.897,5.687 -4.319,5.748C-4.441,5.991 -3.136,6.78 -2.747,6.776C-2.742,6.732 -2.737,6.688 -2.733,6.644C-2.62,6.621 -2.219,6.66 -2.013,6.688C-1.966,6.688 -1.929,6.593 -1.925,6.526C-2.032,6.521 -2.14,6.516 -2.248,6.512C-2.394,6.458 -2.52,6.342 -2.689,6.321C-2.55,6.233 -2.135,6.463 -1.939,6.394C-1.828,6.355 -1.683,6.272 -1.557,6.247C-1.517,6.19 -1.499,6.179 -1.499,6.071C-1.402,6.032 -1.328,5.984 -1.249,6.012C-1.065,5.983 -1.046,5.817 -0.925,5.733C-0.458,5.408 -0.225,5.007 0.587,5.013C0.592,4.989 0.597,4.964 0.602,4.94C-0.399,4.813 -1.293,5.613 -2.057,5.895C-2.458,6.043 -3.276,5.472 -3.54,5.645C-3.646,5.434 -2.905,5.559 -2.689,5.322C-2.752,5.202 -3.753,5.574 -4.584,5.087C-4.805,4.957 -5.009,4.643 -5.303,4.602C-5.499,4.341 -4.553,4.919 -4.275,4.822C-4.173,4.786 -2.896,4.8 -1.925,3.735C-1.779,3.575 -1.5,3.423 -1.454,3.177C-1.723,3.196 -1.734,3.408 -1.954,3.471L-1.954,3.603C-2.364,3.662 -2.526,4.138 -2.924,4.22C-2.871,4.166 -2.586,3.822 -2.586,3.75C-2.913,3.802 -3.082,4.2 -3.35,4.323C-3.494,4.389 -3.799,4.347 -3.908,4.455C-3.979,4.325 -4.765,4.441 -4.966,4.367C-5.166,4.293 -7.219,4.226 -7.565,4.367C-8.465,4.733 -9.222,5.322 -9.622,5.322C-9.839,5.405 -10.161,5.687 -10.548,5.557C-11.018,5.399 -11.476,5.372 -11.841,5.131C-12.049,4.992 -12.716,4.291 -12.898,4.264C-12.919,4.112 -13.031,4.115 -13.089,4.014C-13.203,3.817 -13.245,3.576 -13.324,3.353C-13.473,2.933 -13.166,2.425 -13.192,2.163C-13.014,2.209 -12.483,3.122 -10.9,3.103C-10.882,2.953 -10.842,3.052 -10.842,2.898C-11.936,2.609 -12.386,2.557 -13.045,1.811C-13.012,1.632 -12.968,1.554 -13.075,1.399C-12.938,1.146 -12.841,0.834 -12.619,0.665L-12.619,0.606C-12.644,0.582 -12.819,0.592 -12.883,0.636C-12.935,0.223 -13.184,0.829 -13.354,0.929C-13.499,1.014 -13.653,0.976 -13.692,1.164C-13.818,1.061 -13.814,1.151 -13.824,1.208C-13.948,1.173 -13.927,1.156 -13.927,1.267C-14.18,1.267 -13.618,1.031 -13.618,0.797C-13.996,0.703 -14.49,1.17 -14.955,1.179C-14.871,1.083 -14.706,0.952 -14.588,0.9C-14.3,0.929 -14.409,0.859 -14.132,0.724C-13.815,0.569 -12.752,0.184 -12.752,-0.143C-13.113,-0.425 -13.457,-0.306 -13.457,-0.364C-13.227,-0.455 -12.904,-0.357 -13.03,-0.51C-12.909,-0.578 -12.962,-0.666 -12.81,-0.716C-12.825,-0.77 -12.84,-0.824 -12.854,-0.878C-13.254,-0.897 -13.501,-1.245 -13.883,-1.304C-14.035,-1.609 -13.122,-0.957 -13.045,-1.142C-13.37,-1.574 -14.181,-1.997 -14.691,-2.258C-14.914,-2.373 -15.076,-2.607 -15.366,-2.64C-15.366,-2.79 -14.075,-2.392 -13.971,-2.244L-13.897,-2.244C-13.925,-2.363 -14.023,-2.398 -14.088,-2.479C-13.54,-2.371 -13.698,-2.244 -13.471,-2.244C-13.472,-2.648 -13.71,-2.744 -13.853,-2.993C-14.111,-3.441 -14.312,-3.865 -14.558,-4.33C-14.466,-4.376 -14.411,-4.048 -14.308,-3.875C-14.211,-3.709 -13.488,-2.567 -13.295,-2.567C-13.282,-2.607 -13.484,-3.242 -13.515,-3.301C-13.832,-3.555 -13.899,-4.115 -13.897,-4.521C-13.666,-4.257 -13.413,-2.983 -13.148,-2.905C-13.108,-3.022 -13.148,-3.249 -13.178,-3.272C-12.958,-3.316 -13.224,-3.92 -13.133,-4.139C-13.077,-4.275 -13.107,-4.498 -13.045,-4.653C-12.984,-4.805 -12.847,-4.955 -12.752,-5.094C-12.655,-5.234 -12.642,-5.106 -12.017,-5.681C-10.79,-6.168 -8.921,-6.033 -7.786,-5.579C-7.408,-5.427 -6.809,-4.879 -6.449,-4.815C-6.43,-4.79 -6.41,-4.766 -6.39,-4.741C-6.854,-4.861 -6.613,-5.096 -8.109,-4.653C-8.191,-4.629 -9.466,-4.607 -9.49,-4.565C-9.661,-4.679 -9.89,-4.694 -9.99,-4.653C-10.136,-4.594 -10.434,-4.58 -10.592,-4.506C-11.039,-4.506 -10.856,-4.417 -11.238,-4.359C-11.347,-4.204 -11.24,-4.227 -11.37,-4.227C-11.38,-4.193 -11.39,-4.158 -11.4,-4.124C-11.516,-4.104 -11.543,-4.062 -11.635,-4.124C-11.745,-4.111 -11.734,-4.075 -11.811,-4.036C-11.83,-3.944 -11.841,-3.974 -11.752,-3.904C-11.388,-3.944 -11.467,-4.166 -11.444,-3.683C-11.093,-3.408 -10.969,-3.616 -10.915,-3.507C-11.166,-3.481 -11.28,-3.251 -11.532,-3.213C-11.558,-3.058 -11.893,-2.716 -11.973,-2.479C-12.199,-1.804 -11.84,-1.589 -11.958,-1.245C-12.167,-0.635 -12.036,-0.61 -11.782,-0.275C-11.721,-0.111 -11.82,0.684 -11.87,0.768C-11.855,0.812 -11.841,0.856 -11.826,0.9C-11.597,0.917 -11.642,0.937 -11.606,0.826C-11.262,0.723 -11.181,0.925 -10.93,0.959C-10.925,0.988 -10.92,1.017 -10.915,1.047C-10.758,1.068 -10.735,1.234 -10.651,1.105C-10.48,1.131 -10.333,1.335 -10.063,1.341C-10.091,1.48 -10.176,1.548 -10.195,1.679C-10.235,1.698 -10.225,1.693 -10.225,1.62C-10.476,1.528 -10.542,1.763 -10.562,1.561C-10.621,1.547 -10.993,1.544 -11.106,1.605C-11.166,1.637 -11.133,1.677 -11.238,1.693C-11.256,1.799 -11.234,1.781 -11.326,1.781C-11.365,1.82 -11.297,1.867 -11.297,2.046C-10.902,2.151 -11.042,2.235 -10.783,2.148C-10.576,2.254 -10.311,2.153 -10.225,2.193C-10.123,2.16 -10.108,2.116 -10.048,2.046C-9.974,2.181 -10.191,2.557 -10.284,2.648C-10.325,2.697 -10.378,2.698 -10.474,2.692C-10.479,2.716 -10.484,2.741 -10.489,2.765C-10.307,2.822 -9.789,2.821 -9.755,2.604C-9.888,2.604 -9.868,2.608 -9.887,2.589C-9.867,2.533 -8.363,0.689 -8.77,0.165L-8.888,0.165C-8.98,0.239 -8.961,0.198 -8.961,0.356C-9.118,0.356 -9.079,0.391 -9.079,-0.04C-9.137,-0.116 -9.193,-0.202 -9.314,-0.217C-9.232,-0.338 -9.194,-0.495 -9.079,-0.584C-9.081,-0.709 -9.105,-0.994 -9.167,-1.083C-9.135,-1.123 -9.131,-1.111 -9.123,-1.186C-9,-1.157 -9.02,-1.144 -8.917,-0.775C-8.851,-0.742 -8.801,-0.784 -8.756,-0.804C-8.779,-0.984 -8.734,-1.199 -8.8,-1.377L-8.8,-1.686C-9.306,-2.98 -9.811,-3.137 -9.696,-3.375C-9.701,-3.784 -8.77,-4.254 -8.3,-4.242C-8.246,-3.751 -7.605,-3.643 -7.448,-3.199C-7.317,-2.829 -7.453,-2.01 -7.625,-1.7C-7.671,-1.616 -7.755,-1.584 -7.771,-1.465C-7.578,-1.272 -7.66,-1.48 -7.448,-1.48C-7.49,-1.369 -7.481,-1.166 -7.478,-1.01C-7.355,-0.956 -7.233,-0.902 -7.11,-0.848C-7.32,-0.738 -8.046,-0.866 -8.109,-0.554C-8.221,-0.536 -8.197,-0.584 -8.197,-0.305C-7.833,0.133 -7.062,-0.289 -6.185,0.048C-6.101,0.08 -6.048,0.012 -6.023,0.004C-5.95,-0.021 -5.697,0.111 -5.553,0.048C-5.454,0.004 -5.392,-0.038 -5.23,-0.04C-5.188,-0.118 -5.15,-0.206 -5.068,-0.246C-5.073,-0.697 -5.366,-0.774 -5.362,-1.274C-5.325,-1.293 -5.347,-1.298 -5.244,-1.23C-5.092,-1.23 -5.266,-1.536 -5.45,-1.553C-5.465,-1.573 -5.48,-1.593 -5.494,-1.612C-5.388,-1.634 -5.364,-1.672 -5.215,-1.671C-5.196,-1.629 -5.213,-1.541 -5.186,-1.48C-5.07,-1.215 -4.767,-1.026 -4.598,-0.804C-4.243,-0.855 -4.309,-0.833 -4.216,-0.907C-4.216,-1.084 -4.182,-1.05 -4.349,-1.069C-3.94,-1.707 -3.981,-1.598 -3.981,-1.847C-3.637,-2.138 -3.217,-2.84 -3.158,-3.287C-3.022,-3.237 -2.993,-2.864 -2.879,-3.14C-2.821,-3.16 -2.84,-3.166 -2.762,-2.964C-3.055,-2.506 -3.193,-1.981 -3.144,-1.304C-3.09,-1.28 -3.09,-1.284 -3.012,-1.289C-2.974,-1.177 -2.665,-0.908 -2.527,-0.907C-2.598,-0.75 -2.475,-0.067 -2.468,0.195C-2.632,0.257 -2.754,0.346 -2.85,0.474C-2.827,0.561 -2.703,0.634 -2.63,0.665C-2.663,0.735 -2.685,0.742 -2.791,0.738C-2.859,0.895 -2.829,0.902 -2.733,1.017C-2.818,1.086 -2.836,1.075 -2.747,1.194C-2.57,1.194 -2.6,1.224 -2.6,1.076C-2.496,1.046 -2.294,1.24 -2.174,1.297C-2.041,1.36 -1.874,1.276 -1.719,1.341C-1.105,1.595 -1.404,1.52 -0.691,1.194C-0.691,1.096 -0.674,1.12 -1.014,1.12L-1.014,1.047C-1.315,0.964 -1.646,0.881 -2.013,0.885C-1.905,0.754 -1.745,0.875 -1.557,0.812C-1.278,0.718 -1.048,0.531 -0.661,0.533C-0.515,0.404 -0.544,0.463 -0.544,0.268C-0.791,0.092 -0.719,0.121 -0.867,0.121C-0.917,0.095 -0.921,0.009 -0.97,-0.026C-0.903,-0.081 -0.734,-0.095 -0.647,-0.143C-0.628,-0.31 -0.679,-0.252 -0.397,-0.393C-0.423,-0.497 -0.463,-0.586 -0.588,-0.599C-0.566,-0.705 -0.55,-0.672 -0.353,-0.672C-0.353,-0.753 -0.348,-0.758 -0.397,-0.789C-0.363,-0.815 -0.356,-0.806 -0.28,-0.804C-0.267,-0.939 -0.229,-1.024 -0.441,-1.025C-0.412,-1.162 -0.301,-1.148 -0.221,-1.142C-0.203,-1.336 -0.183,-1.304 -0.294,-1.304C-0.377,-1.775 -1.548,-2.871 -2.013,-2.934C-2.027,-2.959 -2.042,-2.983 -2.057,-3.008C-1.691,-3.008 -2.502,-3.328 -2.63,-3.404C-2.78,-3.495 -2.885,-3.795 -2.997,-3.845C-3.264,-3.963 -3.902,-3.849 -4.172,-3.845C-4.245,-3.749 -4.295,-3.689 -4.29,-3.507C-4.234,-3.433 -4.28,-3.451 -4.07,-3.434C-4.052,-3.064 -4.082,-3.156 -3.952,-3.008C-3.816,-3.031 -3.792,-3.14 -3.761,-3.14C-3.901,-2.577 -4.478,-2.424 -4.936,-2.17C-4.98,-2.171 -5.112,-2.185 -5.112,-2.229C-5.084,-2.255 -4.771,-2.466 -4.745,-2.479L-4.745,-2.552C-5.044,-2.547 -5.198,-2.487 -5.392,-2.406C-5.565,-2.333 -5.688,-2.478 -5.759,-2.508C-6.607,-2.508 -6.57,-3.267 -6.934,-3.316C-6.957,-3.445 -7.334,-3.805 -7.169,-4.095C-7.123,-4.175 -6.987,-4.184 -6.934,-4.286C-6.686,-4.28 -6.509,-4.276 -6.42,-4.344C-6.327,-4.27 -6.373,-4.257 -6.17,-4.477C-6.039,-4.468 -5.358,-4.409 -5.186,-4.477C-5.015,-4.544 -4.787,-4.924 -4.554,-4.962C-4.518,-5.183 -4.239,-5.564 -4.452,-5.652C-5.068,-5.177 -6.266,-5.357 -6.846,-5.725L-6.787,-5.784C-6.774,-5.815 -6.535,-5.628 -6.42,-5.623C-6.01,-5.605 -5.408,-5.434 -4.995,-5.623C-3.514,-6.3 -3.1,-8.168 -3.1,-7.679C-2.869,-7.679 -3.008,-8.108 -2.556,-8.105C-2.49,-8.171 -2.718,-8.283 -2.644,-8.752C-2.724,-8.737 -2.748,-8.712 -2.776,-8.649C-2.844,-8.674 -2.837,-8.677 -2.835,-8.766C-2.554,-8.787 -2.652,-8.722 -2.542,-8.855C-2.576,-8.991 -2.523,-8.941 -2.733,-8.898C-2.784,-9.001 -2.869,-9.118 -3.012,-9.134C-3.03,-9.244 -3.038,-9.207 -2.968,-9.295C-2.847,-9.266 -2.975,-9.251 -2.689,-9.251C-2.689,-9.404 -2.839,-9.246 -2.835,-9.501C-2.934,-9.57 -2.947,-9.544 -3.07,-9.516C-3.065,-9.697 -2.995,-9.724 -2.982,-9.883C-3.373,-9.988 -3.776,-9.796 -3.864,-9.883C-3.775,-10.006 -3.79,-9.971 -3.79,-10.044C-3.936,-10.014 -3.85,-9.943 -3.937,-10.03C-2.941,-10.899 -2.541,-9.736 -2.218,-9.736C-2.261,-9.876 -2.391,-9.951 -2.468,-10.059C-2.725,-10.422 -2.899,-10.853 -3.291,-11.073C-3.254,-11.202 -3.241,-11.158 -3.364,-11.264C-3.191,-11.224 -3.056,-10.927 -3.203,-11.308C-3.302,-11.348 -3.352,-11.37 -3.379,-11.278Z" style="fill:none;fill-rule:nonzero;stroke:rgb(104,33,95);stroke-width:0.35px;"/>
            </g>
            <g transform="matrix(1,0,0,1,201.783,355.854)">
                <path d="M0,-0.628C0.024,-0.623 0.049,-0.618 0.073,-0.613C0.106,-0.685 0.132,-0.699 0.132,-0.819C0.04,-0.837 0.067,-0.864 0,-0.628ZM-0.162,7.525C-0.191,7.496 -0.235,7.502 -0.235,7.584C-0.147,7.584 -0.162,7.599 -0.162,7.525ZM-1.264,-6.298C-1.317,-6.44 -1.289,-6.416 -1.381,-6.416C-1.328,-6.275 -1.355,-6.298 -1.264,-6.298ZM-2.498,3.676C-2.469,3.521 -2.228,3.178 -2.468,3.133C-2.522,3.298 -2.568,3.458 -2.571,3.676L-2.498,3.676ZM-0.94,-7.121C-1.101,-7.279 -2.091,-7.763 -2.512,-7.606C-2.863,-7.475 -3.017,-7.64 -2.997,-6.915C-2.529,-6.917 -2.343,-7.106 -1.984,-7.106C-1.873,-7.259 -1.984,-7.278 -2.086,-7.371L-2.116,-7.371C-1.867,-7.55 -1.058,-6.999 -0.999,-6.871C-0.799,-6.887 -0.899,-6.82 -0.691,-7.048C-0.573,-6.994 -0.443,-7.059 -0.235,-7.062C-0.268,-7.18 -0.32,-7.165 -0.485,-7.18C-0.671,-7.041 -0.643,-6.959 -0.588,-7.532C-0.647,-7.65 -0.705,-7.768 -0.764,-7.885C-0.791,-7.867 -0.898,-7.235 -0.896,-7.15C-0.911,-7.141 -0.925,-7.131 -0.94,-7.121ZM-2.586,1.297C-2.586,1.242 -2.743,1.318 -2.762,1.326C-2.752,1.35 -2.742,1.375 -2.733,1.399C-2.807,1.445 -2.868,1.462 -2.997,1.458C-3.013,1.57 -3.06,1.568 -3.1,1.649C-3.1,1.706 -2.801,1.621 -2.6,1.62C-2.575,1.443 -2.723,1.543 -2.586,1.297ZM-0.367,7.657C-0.723,7.867 -0.304,8.033 -1.528,8.612C-1.831,8.756 -2.289,8.703 -2.556,8.612C-2.63,8.627 -2.703,8.642 -2.776,8.656C-2.877,8.62 -2.978,8.541 -3.1,8.524C-3.097,8.635 -3.122,8.718 -3.188,8.759L-3.188,8.921C-3.144,8.91 -2.992,8.812 -2.894,8.862C-2.269,9.181 -2.304,8.883 -2.233,9.097C-1.98,9.097 -2.02,9.112 -1.984,9.038C-1.869,8.996 -1.646,9.028 -1.484,8.921C-1.013,8.61 -0.676,7.943 0.132,7.951C0.132,7.791 0.17,7.938 0.352,7.951C0.623,7.697 0.587,7.75 0.587,7.657C0.467,7.636 0.384,7.543 0.294,7.511C0.135,7.453 -0.023,7.625 -0.103,7.657C-0.219,7.705 -0.241,7.583 -0.367,7.657ZM-3.335,2.736C-3.202,2.918 -3.208,2.749 -3.158,2.442C-3.186,2.34 -3.257,2.229 -3.261,2.075C-3.411,2.075 -3.33,2.531 -3.335,2.736ZM-3.452,-10.133C-3.545,-10.133 -3.526,-10.147 -3.526,-10.059C-3.433,-10.059 -3.452,-10.044 -3.452,-10.133ZM-3.717,-10.015C-3.576,-10.015 -3.599,-9.996 -3.599,-10.089C-3.714,-10.089 -3.717,-10.103 -3.717,-10.015ZM-3.761,-1.26C-3.838,-1.066 -3.87,-0.876 -3.864,-0.584C-3.686,-0.433 -3.861,-0.253 -3.511,-0.231C-3.441,-1.31 -3.356,-1.183 -3.761,-1.26ZM-4.025,6.276C-4.07,6.291 -4.113,6.306 -4.157,6.321C-4.174,6.315 -4.246,6.239 -4.26,6.233C-4.295,6.242 -4.329,6.252 -4.363,6.262C-4.485,6.194 -4.626,6.094 -4.789,6.071C-4.865,6.223 -4.459,6.392 -4.349,6.497C-3.942,6.883 -3.996,6.801 -3.996,7.202C-3.917,7.371 -3.66,7.472 -3.614,7.672C-3.508,7.69 -3.526,7.668 -3.526,7.76C-3.036,8.139 -2.558,8.541 -1.704,8.407C-1.678,8.303 -1.678,8.333 -1.91,8.333C-2.039,8.28 -2.092,8.187 -2.292,8.186C-2.364,7.994 -2.566,7.991 -2.644,7.834C-2.711,7.7 -2.684,7.688 -2.776,7.599C-2.646,7.546 -2.286,7.637 -2.13,7.643C-2.048,7.478 -2.785,7.171 -2.968,7.04C-3.178,6.89 -2.972,6.677 -4.025,6.276ZM-4.789,0.694C-4.93,0.694 -4.907,0.675 -4.907,0.768C-4.792,0.768 -4.789,0.782 -4.789,0.694ZM-5.097,-10.97C-5.378,-11.095 -5.352,-11.107 -5.392,-11.029C-5.28,-10.96 -5.097,-10.824 -5.097,-10.97ZM-5.671,-10.838C-5.578,-10.838 -5.597,-10.817 -5.597,-10.941C-5.69,-10.941 -5.671,-10.961 -5.671,-10.838ZM-6.772,-7.503C-6.743,-7.479 -6.714,-7.454 -6.684,-7.43C-6.577,-7.43 -6.446,-7.625 -6.405,-7.723C-6.405,-7.745 -6.406,-7.738 -6.64,-7.723C-6.704,-7.577 -6.772,-7.676 -6.772,-7.503ZM-4.07,1.135C-4.167,0.907 -4.32,0.823 -4.319,0.459C-4.358,0.444 -4.397,0.43 -4.437,0.415C-4.437,0.568 -4.59,0.513 -4.716,0.826C-5.206,0.961 -5.544,0.914 -5.994,0.738C-6.158,0.674 -6.334,0.778 -6.464,0.782C-6.604,1.35 -6.558,0.767 -7.257,0.782C-7.493,1.058 -7.287,0.715 -7.757,0.738C-7.779,0.849 -7.755,0.989 -7.771,1.12C-7.722,1.18 -7.648,1.227 -7.551,1.238C-7.076,2.782 -7.609,2.569 -7.727,3.147C-7.616,3.147 -7.642,3.109 -7.625,3.339C-7.532,3.351 -7.373,3.425 -7.257,3.397C-7.056,3.349 -6.236,2.507 -6.126,2.325C-6.041,2.184 -5.96,1.889 -5.817,1.811C-5.734,1.765 -5.599,1.77 -5.524,1.722C-5.356,1.744 -5.305,1.852 -5.142,1.869C-5.137,1.83 -5.132,1.791 -5.127,1.752C-5.404,1.64 -5.533,1.317 -5.876,1.267C-5.955,0.894 -5.48,1.105 -5.142,1.105C-5.117,0.958 -5.14,0.995 -5.01,1.223C-4.938,1.348 -4.711,1.455 -4.584,1.532C-4.281,1.713 -4.107,2.106 -3.805,2.31C-3.801,2.902 -3.733,2.797 -3.996,2.898C-3.996,2.988 -4.008,3.019 -3.864,3.015C-3.694,2.862 -3.688,2.929 -3.688,2.868C-3.624,2.921 -3.614,3.021 -3.614,3.103L-3.57,3.103C-3.149,2.726 -3.971,1.652 -3.981,1.634C-4.068,1.487 -3.995,1.31 -4.07,1.135ZM-7.889,-1.671C-7.925,-2.307 -7.818,-2.303 -7.962,-2.303C-8.003,-1.544 -8.079,-1.6 -7.889,-1.671ZM-7.918,1.679C-7.777,1.679 -7.886,1.117 -7.889,0.988C-8.01,1.007 -8.013,1.091 -8.006,1.208C-8.258,1.25 -8.094,1.492 -8.094,1.532C-8.008,1.527 -8.008,1.52 -7.962,1.487C-7.962,1.689 -7.974,1.66 -7.918,1.679ZM-8.242,-2.068C-8.242,-1.873 -8.28,-1.906 -8.094,-1.906C-7.948,-2.255 -8.106,-2.088 -8.242,-2.068ZM-7.977,-2.993C-8.305,-3.345 -8.274,-3.264 -8.344,-2.964C-8.152,-2.862 -7.96,-2.551 -7.977,-2.993ZM-8.388,-2.67C-8.314,-2.67 -8.345,-2.652 -8.227,-2.787C-8.269,-2.916 -8.33,-2.883 -8.359,-2.875C-8.401,-2.875 -8.388,-2.88 -8.388,-2.67ZM-5.097,6.556C-5.472,6.556 -5.626,6.379 -5.626,6.512C-5.596,6.536 -5.598,6.535 -5.538,6.541C-5.655,6.583 -5.924,6.449 -6.053,6.409C-6.528,6.437 -6.23,6.365 -6.831,6.365C-8.162,6.365 -8.203,6.641 -8.624,6.658L-8.624,6.776C-8.507,6.769 -8.295,6.695 -8.197,6.658L-6.596,6.658C-6.083,6.988 -5.925,6.687 -5.083,7.29C-4.877,7.438 -4.651,7.539 -4.481,7.672C-4.205,7.888 -4.062,8.242 -3.849,8.524C-3.802,8.587 -3.689,8.675 -3.658,8.744C-3.574,8.934 -3.687,9.156 -3.585,9.347C-3.482,9.539 -3.37,9.648 -3.379,9.949C-3.325,9.919 -3.347,9.948 -3.335,9.876C-3.24,10.122 -3.438,10.498 -3.438,10.845L-3.35,10.845C-3.324,10.68 -3.007,9.998 -3.085,9.832C-3.194,9.598 -3.115,9.315 -3.217,9.097C-3.702,8.064 -4.017,6.984 -5.097,6.556ZM-10.592,2.722C-10.592,2.777 -10.607,2.765 -10.518,2.765C-10.518,2.723 -10.502,2.649 -10.592,2.722ZM-11.664,1.693L-11.767,1.693C-11.837,1.935 -11.943,1.974 -11.473,2.046C-11.29,1.609 -11.525,1.774 -11.62,1.796C-11.641,1.796 -11.633,1.801 -11.664,1.693ZM-3.423,-11.249C-3.458,-11.214 -3.449,-11.212 -3.467,-11.249C-3.467,-11.269 -3.467,-11.264 -3.423,-11.249ZM-3.173,-8.047C-3.167,-8.284 -3.094,-8.545 -3.173,-8.766C-3.021,-8.674 -3.063,-8.154 -3.173,-8.047ZM-6.156,-4.888C-6.219,-4.903 -6.209,-4.91 -6.258,-4.932L-6.258,-4.962C-6.195,-4.943 -6.189,-4.932 -6.156,-4.888ZM-5.289,-4.668C-5.289,-4.535 -5.967,-4.774 -6.067,-4.785C-5.287,-4.684 -5.355,-4.668 -5.289,-4.668ZM-0.544,-1.083C-0.525,-1.146 -0.514,-1.153 -0.47,-1.186C-0.411,-1.186 -0.403,-1.207 -0.544,-1.083ZM-2.086,0.224C-2.129,0.45 -2.291,0.423 -2.189,0.547C-2.326,0.657 -2.353,0.727 -2.542,0.591C-2.449,0.467 -2.17,0.058 -2.086,0.224ZM-2.38,0.885L-2.409,0.871C-2.409,0.818 -2.417,0.83 -2.38,0.812L-2.38,0.885ZM-14.265,-2.846C-14.213,-2.768 -14.147,-2.748 -14.118,-2.655C-14.171,-2.615 -14.175,-2.607 -14.118,-2.567C-14.118,-2.461 -14.412,-2.806 -14.47,-2.846C-14.47,-3.008 -14.423,-2.763 -14.265,-2.846ZM-14,-2.655L-14,-2.67C-13.961,-2.631 -13.961,-2.636 -14,-2.655ZM-13.956,-2.611L-13.956,-2.626C-13.917,-2.587 -13.917,-2.592 -13.956,-2.611ZM-13.603,-0.305L-13.603,-0.334C-13.531,-0.298 -13.522,-0.305 -13.603,-0.305ZM-14.088,1.311L-14.029,1.297C-14.07,1.328 -14.032,1.305 -14.088,1.311ZM-10.357,6.35C-10.283,6.498 -11,6.446 -11.194,6.365C-11.442,6.262 -11.409,6.567 -12.516,5.792C-12.605,5.73 -12.602,5.606 -12.663,5.513C-12.709,5.443 -13.019,5.12 -13.089,5.072C-13.089,4.644 -12.554,6.394 -10.357,6.35ZM-8.668,-6.651C-8.834,-6.708 -8.93,-6.642 -9.064,-6.695C-9.135,-6.723 -9.164,-6.784 -9.27,-6.798C-9.188,-6.852 -8.939,-6.801 -8.858,-6.768C-8.178,-6.768 -8.508,-6.817 -7.786,-6.445C-7.746,-6.365 -8.554,-6.612 -8.668,-6.651ZM-11.121,-7.15C-10.579,-7.153 -10.228,-7.346 -9.711,-7.15C-9.481,-7.064 -9.167,-7.278 -9.005,-7.062C-8.996,-7.057 -8.986,-7.053 -8.976,-7.048C-9.174,-6.969 -9.509,-7.129 -9.681,-7.136C-10.123,-7.153 -11.174,-6.937 -11.121,-7.15ZM-3.511,-11.293L-3.511,-11.308C-3.469,-11.29 -3.438,-11.269 -3.511,-11.293ZM-3.555,-11.337C-3.546,-11.342 -3.535,-11.347 -3.526,-11.352C-3.526,-11.315 -3.52,-11.32 -3.555,-11.337ZM-3.379,-11.278C-3.685,-11.473 -3.68,-11.44 -3.878,-11.44L-3.878,-11.381C-3.53,-11.246 -4.09,-10.935 -4.29,-10.705C-4.258,-10.548 -4.49,-10.488 -4.584,-10.133C-4.817,-9.938 -4.953,-9.664 -5.142,-9.428C-5.228,-9.32 -5.227,-9.16 -5.318,-9.06C-5.467,-8.896 -5.669,-8.72 -5.803,-8.59C-5.938,-8.46 -5.997,-8.208 -6.185,-8.135C-6.177,-8.076 -6.176,-8.08 -6.156,-8.047C-6.35,-7.949 -6.363,-7.972 -6.156,-7.811C-6.15,-7.37 -6.439,-6.488 -6.831,-6.46C-6.831,-6.516 -6.796,-6.57 -7.022,-6.563C-7.12,-6.487 -7.074,-6.467 -7.051,-6.343L-6.537,-6.343C-6.508,-6.329 -6.519,-6.273 -6.449,-6.284C-4.979,-6.52 -4.144,-7.679 -3.952,-7.679C-3.972,-7.402 -4.231,-7.35 -4.334,-7.165C-4.465,-6.93 -5.095,-6.363 -5.347,-6.269C-5.59,-6.179 -5.735,-6.225 -6.92,-6.225C-7.104,-6.285 -7.341,-6.364 -7.536,-6.357C-7.526,-6.392 -7.517,-6.426 -7.507,-6.46C-7.726,-6.551 -7.675,-6.433 -7.698,-6.636C-7.844,-6.697 -7.937,-6.816 -8.109,-6.842C-8.129,-6.867 -8.149,-6.891 -8.168,-6.915C-7.803,-7.079 -7.316,-7.297 -7.125,-7.635C-7.003,-7.851 -7.041,-8.514 -6.758,-8.531C-6.734,-8.603 -6.754,-8.615 -6.67,-8.634C-6.636,-8.9 -6.662,-8.869 -6.567,-8.869C-6.543,-8.939 -6.54,-9.01 -6.596,-9.046C-6.578,-9.125 -6.54,-9.115 -6.508,-9.163C-6.502,-9.172 -6.504,-9.454 -6.493,-9.545C-6.405,-9.634 -6.251,-9.874 -6.361,-9.956C-6.295,-10.016 -6.222,-10.023 -6.258,-10.147C-6.226,-10.154 -6.133,-10.156 -6.214,-10.235C-6.122,-10.254 -6.152,-10.218 -6.082,-10.412C-6.216,-10.447 -6.223,-10.338 -6.273,-10.338C-6.167,-10.617 -5.891,-11.055 -5.568,-11.058C-5.563,-11.092 -5.558,-11.127 -5.553,-11.161C-7.191,-11.182 -7.147,-8.467 -7.948,-7.4C-8.027,-7.294 -8.199,-7.318 -8.3,-7.268C-8.863,-6.986 -9.106,-7.318 -9.608,-7.356C-9.589,-7.387 -9.589,-7.377 -9.578,-7.43C-9.878,-7.422 -10.509,-7.572 -10.871,-7.4C-11.611,-7.4 -11.041,-7.477 -12.355,-7.018C-12.667,-7.018 -13.417,-6.921 -13.589,-6.842C-14.997,-6.192 -15.332,-5.386 -15.587,-5.064C-15.648,-4.987 -15.8,-4.99 -15.866,-4.918C-15.998,-4.773 -15.773,-4.827 -16.115,-4.609C-16.145,-4.569 -16.163,-4.413 -16.174,-4.403C-16.495,-4.323 -16.518,-3.802 -16.835,-3.639C-16.822,-3.573 -16.837,-3.596 -16.791,-3.566C-16.856,-3.526 -16.859,-3.515 -16.924,-3.507C-16.906,-3.12 -17.389,-2.714 -17.54,-2.347C-17.54,-1.922 -17.845,-1.11 -17.981,-0.878C-17.938,-0.58 -18.117,0.38 -18.01,0.591C-17.829,0.951 -17.957,1.685 -17.776,2.002C-17.612,2.286 -17.312,2.445 -17.144,2.736C-17.049,2.899 -17.225,3.155 -17.115,3.324C-17.013,3.479 -16.804,3.675 -16.776,3.882C-16.418,3.934 -16.292,4.228 -16.101,4.426C-15.942,4.589 -15.058,5.133 -14.838,5.16C-14.725,5.647 -14.192,6.247 -13.56,6.247C-13.57,6.1 -13.636,6.131 -13.574,6.1C-13.459,6.191 -13.209,6.22 -13.178,6.188C-13.178,6.102 -13.55,5.893 -13.618,5.777C-14.045,5.055 -13.99,3.752 -13.927,3.72C-13.932,6.271 -13.18,5.625 -12.869,6.247C-12.898,6.271 -12.889,6.267 -12.942,6.276C-12.863,6.408 -12.379,6.739 -12.223,6.806C-12.04,6.883 -12.182,6.62 -11.429,6.923C-11.114,7.05 -9.382,6.777 -8.902,6.497C-8.371,6.187 -8.056,5.712 -7.419,5.483C-7.323,4.907 -8.775,6.493 -9.931,6.556C-9.807,6.415 -9.847,6.438 -9.755,6.438C-9.755,6.268 -9.724,6.341 -10.122,6.321C-9.99,6.11 -10.188,6.228 -10.298,6.188C-10.48,6.124 -10.588,5.986 -10.827,5.997C-10.95,5.874 -10.284,6.034 -10.048,5.924C-9.912,5.86 -9.758,5.684 -9.637,5.63C-9.416,5.532 -9.131,5.568 -8.961,5.498C-8.847,5.451 -8.256,5.174 -8.183,5.101C-8.149,5.067 -8.165,4.997 -8.124,4.969C-7.969,4.865 -7.654,4.871 -7.595,4.675C-6.741,4.63 -6.764,4.644 -6.743,4.602C-6.743,4.543 -6.732,4.558 -6.92,4.558C-7.053,4.424 -6.268,4.484 -6.17,4.528C-6.146,4.563 -6.121,4.597 -6.097,4.631C-6.033,4.659 -5.81,4.601 -5.685,4.675C-5.607,4.722 -5.516,4.887 -5.465,4.925C-5.377,4.954 -5.289,4.984 -5.2,5.013C-4.347,5.601 -4.209,5.422 -3.908,5.645C-3.908,5.851 -3.897,5.687 -4.319,5.748C-4.441,5.991 -3.136,6.78 -2.747,6.776C-2.742,6.732 -2.737,6.688 -2.733,6.644C-2.62,6.621 -2.219,6.66 -2.013,6.688C-1.966,6.688 -1.929,6.593 -1.925,6.526C-2.032,6.521 -2.14,6.516 -2.248,6.512C-2.394,6.458 -2.52,6.342 -2.689,6.321C-2.55,6.233 -2.135,6.463 -1.939,6.394C-1.828,6.355 -1.683,6.272 -1.557,6.247C-1.517,6.19 -1.499,6.179 -1.499,6.071C-1.402,6.032 -1.328,5.984 -1.249,6.012C-1.065,5.983 -1.046,5.817 -0.925,5.733C-0.458,5.408 -0.225,5.007 0.587,5.013C0.592,4.989 0.597,4.964 0.602,4.94C-0.399,4.813 -1.293,5.613 -2.057,5.895C-2.458,6.043 -3.276,5.472 -3.54,5.645C-3.646,5.434 -2.905,5.559 -2.689,5.322C-2.752,5.202 -3.753,5.574 -4.584,5.087C-4.805,4.957 -5.009,4.643 -5.303,4.602C-5.499,4.341 -4.553,4.919 -4.275,4.822C-4.173,4.786 -2.896,4.8 -1.925,3.735C-1.779,3.575 -1.5,3.423 -1.454,3.177C-1.723,3.196 -1.734,3.408 -1.954,3.471L-1.954,3.603C-2.364,3.662 -2.526,4.138 -2.924,4.22C-2.871,4.166 -2.586,3.822 -2.586,3.75C-2.913,3.802 -3.082,4.2 -3.35,4.323C-3.494,4.389 -3.799,4.347 -3.908,4.455C-3.979,4.325 -4.765,4.441 -4.966,4.367C-5.166,4.293 -7.219,4.226 -7.565,4.367C-8.465,4.733 -9.222,5.322 -9.622,5.322C-9.839,5.405 -10.161,5.687 -10.548,5.557C-11.018,5.399 -11.476,5.372 -11.841,5.131C-12.049,4.992 -12.716,4.291 -12.898,4.264C-12.919,4.112 -13.031,4.115 -13.089,4.014C-13.203,3.817 -13.245,3.576 -13.324,3.353C-13.473,2.933 -13.166,2.425 -13.192,2.163C-13.014,2.209 -12.483,3.122 -10.9,3.103C-10.882,2.953 -10.842,3.052 -10.842,2.898C-11.936,2.609 -12.386,2.557 -13.045,1.811C-13.012,1.632 -12.968,1.554 -13.075,1.399C-12.938,1.146 -12.841,0.834 -12.619,0.665L-12.619,0.606C-12.644,0.582 -12.819,0.592 -12.883,0.636C-12.935,0.223 -13.184,0.829 -13.354,0.929C-13.499,1.014 -13.653,0.976 -13.692,1.164C-13.818,1.061 -13.814,1.151 -13.824,1.208C-13.948,1.173 -13.927,1.156 -13.927,1.267C-14.18,1.267 -13.618,1.031 -13.618,0.797C-13.996,0.703 -14.49,1.17 -14.955,1.179C-14.871,1.083 -14.706,0.952 -14.588,0.9C-14.3,0.929 -14.409,0.859 -14.132,0.724C-13.815,0.569 -12.752,0.184 -12.752,-0.143C-13.113,-0.425 -13.457,-0.306 -13.457,-0.364C-13.227,-0.455 -12.904,-0.357 -13.03,-0.51C-12.909,-0.578 -12.962,-0.666 -12.81,-0.716C-12.825,-0.77 -12.84,-0.824 -12.854,-0.878C-13.254,-0.897 -13.501,-1.245 -13.883,-1.304C-14.035,-1.609 -13.122,-0.957 -13.045,-1.142C-13.37,-1.574 -14.181,-1.997 -14.691,-2.258C-14.914,-2.373 -15.076,-2.607 -15.366,-2.64C-15.366,-2.79 -14.075,-2.392 -13.971,-2.244L-13.897,-2.244C-13.925,-2.363 -14.023,-2.398 -14.088,-2.479C-13.54,-2.371 -13.698,-2.244 -13.471,-2.244C-13.472,-2.648 -13.71,-2.744 -13.853,-2.993C-14.111,-3.441 -14.312,-3.865 -14.558,-4.33C-14.466,-4.376 -14.411,-4.048 -14.308,-3.875C-14.211,-3.709 -13.488,-2.567 -13.295,-2.567C-13.282,-2.607 -13.484,-3.242 -13.515,-3.301C-13.832,-3.555 -13.899,-4.115 -13.897,-4.521C-13.666,-4.257 -13.413,-2.983 -13.148,-2.905C-13.108,-3.022 -13.148,-3.249 -13.178,-3.272C-12.958,-3.316 -13.224,-3.92 -13.133,-4.139C-13.077,-4.275 -13.107,-4.498 -13.045,-4.653C-12.984,-4.805 -12.847,-4.955 -12.752,-5.094C-12.655,-5.234 -12.642,-5.106 -12.017,-5.681C-10.79,-6.168 -8.921,-6.033 -7.786,-5.579C-7.408,-5.427 -6.809,-4.879 -6.449,-4.815C-6.43,-4.79 -6.41,-4.766 -6.39,-4.741C-6.854,-4.861 -6.613,-5.096 -8.109,-4.653C-8.191,-4.629 -9.466,-4.607 -9.49,-4.565C-9.661,-4.679 -9.89,-4.694 -9.99,-4.653C-10.136,-4.594 -10.434,-4.58 -10.592,-4.506C-11.039,-4.506 -10.856,-4.417 -11.238,-4.359C-11.347,-4.204 -11.24,-4.227 -11.37,-4.227C-11.38,-4.193 -11.39,-4.158 -11.4,-4.124C-11.516,-4.104 -11.543,-4.062 -11.635,-4.124C-11.745,-4.111 -11.734,-4.075 -11.811,-4.036C-11.83,-3.944 -11.841,-3.974 -11.752,-3.904C-11.388,-3.944 -11.467,-4.166 -11.444,-3.683C-11.093,-3.408 -10.969,-3.616 -10.915,-3.507C-11.166,-3.481 -11.28,-3.251 -11.532,-3.213C-11.558,-3.058 -11.893,-2.716 -11.973,-2.479C-12.199,-1.804 -11.84,-1.589 -11.958,-1.245C-12.167,-0.635 -12.036,-0.61 -11.782,-0.275C-11.721,-0.111 -11.82,0.684 -11.87,0.768C-11.855,0.812 -11.841,0.856 -11.826,0.9C-11.597,0.917 -11.642,0.937 -11.606,0.826C-11.262,0.723 -11.181,0.925 -10.93,0.959C-10.925,0.988 -10.92,1.017 -10.915,1.047C-10.758,1.068 -10.735,1.234 -10.651,1.105C-10.48,1.131 -10.333,1.335 -10.063,1.341C-10.091,1.48 -10.176,1.548 -10.195,1.679C-10.235,1.698 -10.225,1.693 -10.225,1.62C-10.476,1.528 -10.542,1.763 -10.562,1.561C-10.621,1.547 -10.993,1.544 -11.106,1.605C-11.166,1.637 -11.133,1.677 -11.238,1.693C-11.256,1.799 -11.234,1.781 -11.326,1.781C-11.365,1.82 -11.297,1.867 -11.297,2.046C-10.902,2.151 -11.042,2.235 -10.783,2.148C-10.576,2.254 -10.311,2.153 -10.225,2.193C-10.123,2.16 -10.108,2.116 -10.048,2.046C-9.974,2.181 -10.191,2.557 -10.284,2.648C-10.325,2.697 -10.378,2.698 -10.474,2.692C-10.479,2.716 -10.484,2.741 -10.489,2.765C-10.307,2.822 -9.789,2.821 -9.755,2.604C-9.888,2.604 -9.868,2.608 -9.887,2.589C-9.867,2.533 -8.363,0.689 -8.77,0.165L-8.888,0.165C-8.98,0.239 -8.961,0.198 -8.961,0.356C-9.118,0.356 -9.079,0.391 -9.079,-0.04C-9.137,-0.116 -9.193,-0.202 -9.314,-0.217C-9.232,-0.338 -9.194,-0.495 -9.079,-0.584C-9.081,-0.709 -9.105,-0.994 -9.167,-1.083C-9.135,-1.123 -9.131,-1.111 -9.123,-1.186C-9,-1.157 -9.02,-1.144 -8.917,-0.775C-8.851,-0.742 -8.801,-0.784 -8.756,-0.804C-8.779,-0.984 -8.734,-1.199 -8.8,-1.377L-8.8,-1.686C-9.306,-2.98 -9.811,-3.137 -9.696,-3.375C-9.701,-3.784 -8.77,-4.254 -8.3,-4.242C-8.246,-3.751 -7.605,-3.643 -7.448,-3.199C-7.317,-2.829 -7.453,-2.01 -7.625,-1.7C-7.671,-1.616 -7.755,-1.584 -7.771,-1.465C-7.578,-1.272 -7.66,-1.48 -7.448,-1.48C-7.49,-1.369 -7.481,-1.166 -7.478,-1.01C-7.355,-0.956 -7.233,-0.902 -7.11,-0.848C-7.32,-0.738 -8.046,-0.866 -8.109,-0.554C-8.221,-0.536 -8.197,-0.584 -8.197,-0.305C-7.833,0.133 -7.062,-0.289 -6.185,0.048C-6.101,0.08 -6.048,0.012 -6.023,0.004C-5.95,-0.021 -5.697,0.111 -5.553,0.048C-5.454,0.004 -5.392,-0.038 -5.23,-0.04C-5.188,-0.118 -5.15,-0.206 -5.068,-0.246C-5.073,-0.697 -5.366,-0.774 -5.362,-1.274C-5.325,-1.293 -5.347,-1.298 -5.244,-1.23C-5.092,-1.23 -5.266,-1.536 -5.45,-1.553C-5.465,-1.573 -5.48,-1.593 -5.494,-1.612C-5.388,-1.634 -5.364,-1.672 -5.215,-1.671C-5.196,-1.629 -5.213,-1.541 -5.186,-1.48C-5.07,-1.215 -4.767,-1.026 -4.598,-0.804C-4.243,-0.855 -4.309,-0.833 -4.216,-0.907C-4.216,-1.084 -4.182,-1.05 -4.349,-1.069C-3.94,-1.707 -3.981,-1.598 -3.981,-1.847C-3.637,-2.138 -3.217,-2.84 -3.158,-3.287C-3.022,-3.237 -2.993,-2.864 -2.879,-3.14C-2.821,-3.16 -2.84,-3.166 -2.762,-2.964C-3.055,-2.506 -3.193,-1.981 -3.144,-1.304C-3.09,-1.28 -3.09,-1.284 -3.012,-1.289C-2.974,-1.177 -2.665,-0.908 -2.527,-0.907C-2.598,-0.75 -2.475,-0.067 -2.468,0.195C-2.632,0.257 -2.754,0.346 -2.85,0.474C-2.827,0.561 -2.703,0.634 -2.63,0.665C-2.663,0.735 -2.685,0.742 -2.791,0.738C-2.859,0.895 -2.829,0.902 -2.733,1.017C-2.818,1.086 -2.836,1.075 -2.747,1.194C-2.57,1.194 -2.6,1.224 -2.6,1.076C-2.496,1.046 -2.294,1.24 -2.174,1.297C-2.041,1.36 -1.874,1.276 -1.719,1.341C-1.105,1.595 -1.404,1.52 -0.691,1.194C-0.691,1.096 -0.674,1.12 -1.014,1.12L-1.014,1.047C-1.315,0.964 -1.646,0.881 -2.013,0.885C-1.905,0.754 -1.745,0.875 -1.557,0.812C-1.278,0.718 -1.048,0.531 -0.661,0.533C-0.515,0.404 -0.544,0.463 -0.544,0.268C-0.791,0.092 -0.719,0.121 -0.867,0.121C-0.917,0.095 -0.921,0.009 -0.97,-0.026C-0.903,-0.081 -0.734,-0.095 -0.647,-0.143C-0.628,-0.31 -0.679,-0.252 -0.397,-0.393C-0.423,-0.497 -0.463,-0.586 -0.588,-0.599C-0.566,-0.705 -0.55,-0.672 -0.353,-0.672C-0.353,-0.753 -0.348,-0.758 -0.397,-0.789C-0.363,-0.815 -0.356,-0.806 -0.28,-0.804C-0.267,-0.939 -0.229,-1.024 -0.441,-1.025C-0.412,-1.162 -0.301,-1.148 -0.221,-1.142C-0.203,-1.336 -0.183,-1.304 -0.294,-1.304C-0.377,-1.775 -1.548,-2.871 -2.013,-2.934C-2.027,-2.959 -2.042,-2.983 -2.057,-3.008C-1.691,-3.008 -2.502,-3.328 -2.63,-3.404C-2.78,-3.495 -2.885,-3.795 -2.997,-3.845C-3.264,-3.963 -3.902,-3.849 -4.172,-3.845C-4.245,-3.749 -4.295,-3.689 -4.29,-3.507C-4.234,-3.433 -4.28,-3.451 -4.07,-3.434C-4.052,-3.064 -4.082,-3.156 -3.952,-3.008C-3.816,-3.031 -3.792,-3.14 -3.761,-3.14C-3.901,-2.577 -4.478,-2.424 -4.936,-2.17C-4.98,-2.171 -5.112,-2.185 -5.112,-2.229C-5.084,-2.255 -4.771,-2.466 -4.745,-2.479L-4.745,-2.552C-5.044,-2.547 -5.198,-2.487 -5.392,-2.406C-5.565,-2.333 -5.688,-2.478 -5.759,-2.508C-6.607,-2.508 -6.57,-3.267 -6.934,-3.316C-6.957,-3.445 -7.334,-3.805 -7.169,-4.095C-7.123,-4.175 -6.987,-4.184 -6.934,-4.286C-6.686,-4.28 -6.509,-4.276 -6.42,-4.344C-6.327,-4.27 -6.373,-4.257 -6.17,-4.477C-6.039,-4.468 -5.358,-4.409 -5.186,-4.477C-5.015,-4.544 -4.787,-4.924 -4.554,-4.962C-4.518,-5.183 -4.239,-5.564 -4.452,-5.652C-5.068,-5.177 -6.266,-5.357 -6.846,-5.725L-6.787,-5.784C-6.774,-5.815 -6.535,-5.628 -6.42,-5.623C-6.01,-5.605 -5.408,-5.434 -4.995,-5.623C-3.514,-6.3 -3.1,-8.168 -3.1,-7.679C-2.869,-7.679 -3.008,-8.108 -2.556,-8.105C-2.49,-8.171 -2.718,-8.283 -2.644,-8.752C-2.724,-8.737 -2.748,-8.712 -2.776,-8.649C-2.844,-8.674 -2.837,-8.677 -2.835,-8.766C-2.554,-8.787 -2.652,-8.722 -2.542,-8.855C-2.576,-8.991 -2.523,-8.941 -2.733,-8.898C-2.784,-9.001 -2.869,-9.118 -3.012,-9.134C-3.03,-9.244 -3.038,-9.207 -2.968,-9.295C-2.847,-9.266 -2.975,-9.251 -2.689,-9.251C-2.689,-9.404 -2.839,-9.246 -2.835,-9.501C-2.934,-9.57 -2.947,-9.544 -3.07,-9.516C-3.065,-9.697 -2.995,-9.724 -2.982,-9.883C-3.373,-9.988 -3.776,-9.796 -3.864,-9.883C-3.775,-10.006 -3.79,-9.971 -3.79,-10.044C-3.936,-10.014 -3.85,-9.943 -3.937,-10.03C-2.941,-10.899 -2.541,-9.736 -2.218,-9.736C-2.261,-9.876 -2.391,-9.951 -2.468,-10.059C-2.725,-10.422 -2.899,-10.853 -3.291,-11.073C-3.254,-11.202 -3.241,-11.158 -3.364,-11.264C-3.191,-11.224 -3.056,-10.927 -3.203,-11.308C-3.302,-11.348 -3.352,-11.37 -3.379,-11.278Z" style="fill:none;fill-rule:nonzero;stroke:rgb(104,33,95);stroke-width:0.35px;"/>
            </g>
            <g transform="matrix(1,0,0,1,201.783,355.854)">
                <path d="M0,-0.628C0.024,-0.623 0.049,-0.618 0.073,-0.613C0.106,-0.685 0.132,-0.699 0.132,-0.819C0.04,-0.837 0.067,-0.864 0,-0.628ZM-0.162,7.525C-0.191,7.496 -0.235,7.502 -0.235,7.584C-0.147,7.584 -0.162,7.599 -0.162,7.525ZM-1.264,-6.298C-1.317,-6.44 -1.289,-6.416 -1.381,-6.416C-1.328,-6.275 -1.355,-6.298 -1.264,-6.298ZM-2.498,3.676C-2.469,3.521 -2.228,3.178 -2.468,3.133C-2.522,3.298 -2.568,3.458 -2.571,3.676L-2.498,3.676ZM-0.94,-7.121C-1.101,-7.279 -2.091,-7.763 -2.512,-7.606C-2.863,-7.475 -3.017,-7.64 -2.997,-6.915C-2.529,-6.917 -2.343,-7.106 -1.984,-7.106C-1.873,-7.259 -1.984,-7.278 -2.086,-7.371L-2.116,-7.371C-1.867,-7.55 -1.058,-6.999 -0.999,-6.871C-0.799,-6.887 -0.899,-6.82 -0.691,-7.048C-0.573,-6.994 -0.443,-7.059 -0.235,-7.062C-0.268,-7.18 -0.32,-7.165 -0.485,-7.18C-0.671,-7.041 -0.643,-6.959 -0.588,-7.532C-0.647,-7.65 -0.705,-7.768 -0.764,-7.885C-0.791,-7.867 -0.898,-7.235 -0.896,-7.15C-0.911,-7.141 -0.925,-7.131 -0.94,-7.121ZM-2.586,1.297C-2.586,1.242 -2.743,1.318 -2.762,1.326C-2.752,1.35 -2.742,1.375 -2.733,1.399C-2.807,1.445 -2.868,1.462 -2.997,1.458C-3.013,1.57 -3.06,1.568 -3.1,1.649C-3.1,1.706 -2.801,1.621 -2.6,1.62C-2.575,1.443 -2.723,1.543 -2.586,1.297ZM-0.367,7.657C-0.723,7.867 -0.304,8.033 -1.528,8.612C-1.831,8.756 -2.289,8.703 -2.556,8.612C-2.63,8.627 -2.703,8.642 -2.776,8.656C-2.877,8.62 -2.978,8.541 -3.1,8.524C-3.097,8.635 -3.122,8.718 -3.188,8.759L-3.188,8.921C-3.144,8.91 -2.992,8.812 -2.894,8.862C-2.269,9.181 -2.304,8.883 -2.233,9.097C-1.98,9.097 -2.02,9.112 -1.984,9.038C-1.869,8.996 -1.646,9.028 -1.484,8.921C-1.013,8.61 -0.676,7.943 0.132,7.951C0.132,7.791 0.17,7.938 0.352,7.951C0.623,7.697 0.587,7.75 0.587,7.657C0.467,7.636 0.384,7.543 0.294,7.511C0.135,7.453 -0.023,7.625 -0.103,7.657C-0.219,7.705 -0.241,7.583 -0.367,7.657ZM-3.335,2.736C-3.202,2.918 -3.208,2.749 -3.158,2.442C-3.186,2.34 -3.257,2.229 -3.261,2.075C-3.411,2.075 -3.33,2.531 -3.335,2.736ZM-3.452,-10.133C-3.545,-10.133 -3.526,-10.147 -3.526,-10.059C-3.433,-10.059 -3.452,-10.044 -3.452,-10.133ZM-3.717,-10.015C-3.576,-10.015 -3.599,-9.996 -3.599,-10.089C-3.714,-10.089 -3.717,-10.103 -3.717,-10.015ZM-3.761,-1.26C-3.838,-1.066 -3.87,-0.876 -3.864,-0.584C-3.686,-0.433 -3.861,-0.253 -3.511,-0.231C-3.441,-1.31 -3.356,-1.183 -3.761,-1.26ZM-4.025,6.276C-4.07,6.291 -4.113,6.306 -4.157,6.321C-4.174,6.315 -4.246,6.239 -4.26,6.233C-4.295,6.242 -4.329,6.252 -4.363,6.262C-4.485,6.194 -4.626,6.094 -4.789,6.071C-4.865,6.223 -4.459,6.392 -4.349,6.497C-3.942,6.883 -3.996,6.801 -3.996,7.202C-3.917,7.371 -3.66,7.472 -3.614,7.672C-3.508,7.69 -3.526,7.668 -3.526,7.76C-3.036,8.139 -2.558,8.541 -1.704,8.407C-1.678,8.303 -1.678,8.333 -1.91,8.333C-2.039,8.28 -2.092,8.187 -2.292,8.186C-2.364,7.994 -2.566,7.991 -2.644,7.834C-2.711,7.7 -2.684,7.688 -2.776,7.599C-2.646,7.546 -2.286,7.637 -2.13,7.643C-2.048,7.478 -2.785,7.171 -2.968,7.04C-3.178,6.89 -2.972,6.677 -4.025,6.276ZM-4.789,0.694C-4.93,0.694 -4.907,0.675 -4.907,0.768C-4.792,0.768 -4.789,0.782 -4.789,0.694ZM-5.097,-10.97C-5.378,-11.095 -5.352,-11.107 -5.392,-11.029C-5.28,-10.96 -5.097,-10.824 -5.097,-10.97ZM-5.671,-10.838C-5.578,-10.838 -5.597,-10.817 -5.597,-10.941C-5.69,-10.941 -5.671,-10.961 -5.671,-10.838ZM-6.772,-7.503C-6.743,-7.479 -6.714,-7.454 -6.684,-7.43C-6.577,-7.43 -6.446,-7.625 -6.405,-7.723C-6.405,-7.745 -6.406,-7.738 -6.64,-7.723C-6.704,-7.577 -6.772,-7.676 -6.772,-7.503ZM-4.07,1.135C-4.167,0.907 -4.32,0.823 -4.319,0.459C-4.358,0.444 -4.397,0.43 -4.437,0.415C-4.437,0.568 -4.59,0.513 -4.716,0.826C-5.206,0.961 -5.544,0.914 -5.994,0.738C-6.158,0.674 -6.334,0.778 -6.464,0.782C-6.604,1.35 -6.558,0.767 -7.257,0.782C-7.493,1.058 -7.287,0.715 -7.757,0.738C-7.779,0.849 -7.755,0.989 -7.771,1.12C-7.722,1.18 -7.648,1.227 -7.551,1.238C-7.076,2.782 -7.609,2.569 -7.727,3.147C-7.616,3.147 -7.642,3.109 -7.625,3.339C-7.532,3.351 -7.373,3.425 -7.257,3.397C-7.056,3.349 -6.236,2.507 -6.126,2.325C-6.041,2.184 -5.96,1.889 -5.817,1.811C-5.734,1.765 -5.599,1.77 -5.524,1.722C-5.356,1.744 -5.305,1.852 -5.142,1.869C-5.137,1.83 -5.132,1.791 -5.127,1.752C-5.404,1.64 -5.533,1.317 -5.876,1.267C-5.955,0.894 -5.48,1.105 -5.142,1.105C-5.117,0.958 -5.14,0.995 -5.01,1.223C-4.938,1.348 -4.711,1.455 -4.584,1.532C-4.281,1.713 -4.107,2.106 -3.805,2.31C-3.801,2.902 -3.733,2.797 -3.996,2.898C-3.996,2.988 -4.008,3.019 -3.864,3.015C-3.694,2.862 -3.688,2.929 -3.688,2.868C-3.624,2.921 -3.614,3.021 -3.614,3.103L-3.57,3.103C-3.149,2.726 -3.971,1.652 -3.981,1.634C-4.068,1.487 -3.995,1.31 -4.07,1.135ZM-7.889,-1.671C-7.925,-2.307 -7.818,-2.303 -7.962,-2.303C-8.003,-1.544 -8.079,-1.6 -7.889,-1.671ZM-7.918,1.679C-7.777,1.679 -7.886,1.117 -7.889,0.988C-8.01,1.007 -8.013,1.091 -8.006,1.208C-8.258,1.25 -8.094,1.492 -8.094,1.532C-8.008,1.527 -8.008,1.52 -7.962,1.487C-7.962,1.689 -7.974,1.66 -7.918,1.679ZM-8.242,-2.068C-8.242,-1.873 -8.28,-1.906 -8.094,-1.906C-7.948,-2.255 -8.106,-2.088 -8.242,-2.068ZM-7.977,-2.993C-8.305,-3.345 -8.274,-3.264 -8.344,-2.964C-8.152,-2.862 -7.96,-2.551 -7.977,-2.993ZM-8.388,-2.67C-8.314,-2.67 -8.345,-2.652 -8.227,-2.787C-8.269,-2.916 -8.33,-2.883 -8.359,-2.875C-8.401,-2.875 -8.388,-2.88 -8.388,-2.67ZM-5.097,6.556C-5.472,6.556 -5.626,6.379 -5.626,6.512C-5.596,6.536 -5.598,6.535 -5.538,6.541C-5.655,6.583 -5.924,6.449 -6.053,6.409C-6.528,6.437 -6.23,6.365 -6.831,6.365C-8.162,6.365 -8.203,6.641 -8.624,6.658L-8.624,6.776C-8.507,6.769 -8.295,6.695 -8.197,6.658L-6.596,6.658C-6.083,6.988 -5.925,6.687 -5.083,7.29C-4.877,7.438 -4.651,7.539 -4.481,7.672C-4.205,7.888 -4.062,8.242 -3.849,8.524C-3.802,8.587 -3.689,8.675 -3.658,8.744C-3.574,8.934 -3.687,9.156 -3.585,9.347C-3.482,9.539 -3.37,9.648 -3.379,9.949C-3.325,9.919 -3.347,9.948 -3.335,9.876C-3.24,10.122 -3.438,10.498 -3.438,10.845L-3.35,10.845C-3.324,10.68 -3.007,9.998 -3.085,9.832C-3.194,9.598 -3.115,9.315 -3.217,9.097C-3.702,8.064 -4.017,6.984 -5.097,6.556ZM-10.592,2.722C-10.592,2.777 -10.607,2.765 -10.518,2.765C-10.518,2.723 -10.502,2.649 -10.592,2.722ZM-11.664,1.693L-11.767,1.693C-11.837,1.935 -11.943,1.974 -11.473,2.046C-11.29,1.609 -11.525,1.774 -11.62,1.796C-11.641,1.796 -11.633,1.801 -11.664,1.693ZM-3.423,-11.249C-3.458,-11.214 -3.449,-11.212 -3.467,-11.249C-3.467,-11.269 -3.467,-11.264 -3.423,-11.249ZM-3.173,-8.047C-3.167,-8.284 -3.094,-8.545 -3.173,-8.766C-3.021,-8.674 -3.063,-8.154 -3.173,-8.047ZM-6.156,-4.888C-6.219,-4.903 -6.209,-4.91 -6.258,-4.932L-6.258,-4.962C-6.195,-4.943 -6.189,-4.932 -6.156,-4.888ZM-5.289,-4.668C-5.289,-4.535 -5.967,-4.774 -6.067,-4.785C-5.287,-4.684 -5.355,-4.668 -5.289,-4.668ZM-0.544,-1.083C-0.525,-1.146 -0.514,-1.153 -0.47,-1.186C-0.411,-1.186 -0.403,-1.207 -0.544,-1.083ZM-2.086,0.224C-2.129,0.45 -2.291,0.423 -2.189,0.547C-2.326,0.657 -2.353,0.727 -2.542,0.591C-2.449,0.467 -2.17,0.058 -2.086,0.224ZM-2.38,0.885L-2.409,0.871C-2.409,0.818 -2.417,0.83 -2.38,0.812L-2.38,0.885ZM-14.265,-2.846C-14.213,-2.768 -14.147,-2.748 -14.118,-2.655C-14.171,-2.615 -14.175,-2.607 -14.118,-2.567C-14.118,-2.461 -14.412,-2.806 -14.47,-2.846C-14.47,-3.008 -14.423,-2.763 -14.265,-2.846ZM-14,-2.655L-14,-2.67C-13.961,-2.631 -13.961,-2.636 -14,-2.655ZM-13.956,-2.611L-13.956,-2.626C-13.917,-2.587 -13.917,-2.592 -13.956,-2.611ZM-13.603,-0.305L-13.603,-0.334C-13.531,-0.298 -13.522,-0.305 -13.603,-0.305ZM-14.088,1.311L-14.029,1.297C-14.07,1.328 -14.032,1.305 -14.088,1.311ZM-10.357,6.35C-10.283,6.498 -11,6.446 -11.194,6.365C-11.442,6.262 -11.409,6.567 -12.516,5.792C-12.605,5.73 -12.602,5.606 -12.663,5.513C-12.709,5.443 -13.019,5.12 -13.089,5.072C-13.089,4.644 -12.554,6.394 -10.357,6.35ZM-8.668,-6.651C-8.834,-6.708 -8.93,-6.642 -9.064,-6.695C-9.135,-6.723 -9.164,-6.784 -9.27,-6.798C-9.188,-6.852 -8.939,-6.801 -8.858,-6.768C-8.178,-6.768 -8.508,-6.817 -7.786,-6.445C-7.746,-6.365 -8.554,-6.612 -8.668,-6.651ZM-11.121,-7.15C-10.579,-7.153 -10.228,-7.346 -9.711,-7.15C-9.481,-7.064 -9.167,-7.278 -9.005,-7.062C-8.996,-7.057 -8.986,-7.053 -8.976,-7.048C-9.174,-6.969 -9.509,-7.129 -9.681,-7.136C-10.123,-7.153 -11.174,-6.937 -11.121,-7.15ZM-3.511,-11.293L-3.511,-11.308C-3.469,-11.29 -3.438,-11.269 -3.511,-11.293ZM-3.555,-11.337C-3.546,-11.342 -3.535,-11.347 -3.526,-11.352C-3.526,-11.315 -3.52,-11.32 -3.555,-11.337ZM-3.379,-11.278C-3.685,-11.473 -3.68,-11.44 -3.878,-11.44L-3.878,-11.381C-3.53,-11.246 -4.09,-10.935 -4.29,-10.705C-4.258,-10.548 -4.49,-10.488 -4.584,-10.133C-4.817,-9.938 -4.953,-9.664 -5.142,-9.428C-5.228,-9.32 -5.227,-9.16 -5.318,-9.06C-5.467,-8.896 -5.669,-8.72 -5.803,-8.59C-5.938,-8.46 -5.997,-8.208 -6.185,-8.135C-6.177,-8.076 -6.176,-8.08 -6.156,-8.047C-6.35,-7.949 -6.363,-7.972 -6.156,-7.811C-6.15,-7.37 -6.439,-6.488 -6.831,-6.46C-6.831,-6.516 -6.796,-6.57 -7.022,-6.563C-7.12,-6.487 -7.074,-6.467 -7.051,-6.343L-6.537,-6.343C-6.508,-6.329 -6.519,-6.273 -6.449,-6.284C-4.979,-6.52 -4.144,-7.679 -3.952,-7.679C-3.972,-7.402 -4.231,-7.35 -4.334,-7.165C-4.465,-6.93 -5.095,-6.363 -5.347,-6.269C-5.59,-6.179 -5.735,-6.225 -6.92,-6.225C-7.104,-6.285 -7.341,-6.364 -7.536,-6.357C-7.526,-6.392 -7.517,-6.426 -7.507,-6.46C-7.726,-6.551 -7.675,-6.433 -7.698,-6.636C-7.844,-6.697 -7.937,-6.816 -8.109,-6.842C-8.129,-6.867 -8.149,-6.891 -8.168,-6.915C-7.803,-7.079 -7.316,-7.297 -7.125,-7.635C-7.003,-7.851 -7.041,-8.514 -6.758,-8.531C-6.734,-8.603 -6.754,-8.615 -6.67,-8.634C-6.636,-8.9 -6.662,-8.869 -6.567,-8.869C-6.543,-8.939 -6.54,-9.01 -6.596,-9.046C-6.578,-9.125 -6.54,-9.115 -6.508,-9.163C-6.502,-9.172 -6.504,-9.454 -6.493,-9.545C-6.405,-9.634 -6.251,-9.874 -6.361,-9.956C-6.295,-10.016 -6.222,-10.023 -6.258,-10.147C-6.226,-10.154 -6.133,-10.156 -6.214,-10.235C-6.122,-10.254 -6.152,-10.218 -6.082,-10.412C-6.216,-10.447 -6.223,-10.338 -6.273,-10.338C-6.167,-10.617 -5.891,-11.055 -5.568,-11.058C-5.563,-11.092 -5.558,-11.127 -5.553,-11.161C-7.191,-11.182 -7.147,-8.467 -7.948,-7.4C-8.027,-7.294 -8.199,-7.318 -8.3,-7.268C-8.863,-6.986 -9.106,-7.318 -9.608,-7.356C-9.589,-7.387 -9.589,-7.377 -9.578,-7.43C-9.878,-7.422 -10.509,-7.572 -10.871,-7.4C-11.611,-7.4 -11.041,-7.477 -12.355,-7.018C-12.667,-7.018 -13.417,-6.921 -13.589,-6.842C-14.997,-6.192 -15.332,-5.386 -15.587,-5.064C-15.648,-4.987 -15.8,-4.99 -15.866,-4.918C-15.998,-4.773 -15.773,-4.827 -16.115,-4.609C-16.145,-4.569 -16.163,-4.413 -16.174,-4.403C-16.495,-4.323 -16.518,-3.802 -16.835,-3.639C-16.822,-3.573 -16.837,-3.596 -16.791,-3.566C-16.856,-3.526 -16.859,-3.515 -16.924,-3.507C-16.906,-3.12 -17.389,-2.714 -17.54,-2.347C-17.54,-1.922 -17.845,-1.11 -17.981,-0.878C-17.938,-0.58 -18.117,0.38 -18.01,0.591C-17.829,0.951 -17.957,1.685 -17.776,2.002C-17.612,2.286 -17.312,2.445 -17.144,2.736C-17.049,2.899 -17.225,3.155 -17.115,3.324C-17.013,3.479 -16.804,3.675 -16.776,3.882C-16.418,3.934 -16.292,4.228 -16.101,4.426C-15.942,4.589 -15.058,5.133 -14.838,5.16C-14.725,5.647 -14.192,6.247 -13.56,6.247C-13.57,6.1 -13.636,6.131 -13.574,6.1C-13.459,6.191 -13.209,6.22 -13.178,6.188C-13.178,6.102 -13.55,5.893 -13.618,5.777C-14.045,5.055 -13.99,3.752 -13.927,3.72C-13.932,6.271 -13.18,5.625 -12.869,6.247C-12.898,6.271 -12.889,6.267 -12.942,6.276C-12.863,6.408 -12.379,6.739 -12.223,6.806C-12.04,6.883 -12.182,6.62 -11.429,6.923C-11.114,7.05 -9.382,6.777 -8.902,6.497C-8.371,6.187 -8.056,5.712 -7.419,5.483C-7.323,4.907 -8.775,6.493 -9.931,6.556C-9.807,6.415 -9.847,6.438 -9.755,6.438C-9.755,6.268 -9.724,6.341 -10.122,6.321C-9.99,6.11 -10.188,6.228 -10.298,6.188C-10.48,6.124 -10.588,5.986 -10.827,5.997C-10.95,5.874 -10.284,6.034 -10.048,5.924C-9.912,5.86 -9.758,5.684 -9.637,5.63C-9.416,5.532 -9.131,5.568 -8.961,5.498C-8.847,5.451 -8.256,5.174 -8.183,5.101C-8.149,5.067 -8.165,4.997 -8.124,4.969C-7.969,4.865 -7.654,4.871 -7.595,4.675C-6.741,4.63 -6.764,4.644 -6.743,4.602C-6.743,4.543 -6.732,4.558 -6.92,4.558C-7.053,4.424 -6.268,4.484 -6.17,4.528C-6.146,4.563 -6.121,4.597 -6.097,4.631C-6.033,4.659 -5.81,4.601 -5.685,4.675C-5.607,4.722 -5.516,4.887 -5.465,4.925C-5.377,4.954 -5.289,4.984 -5.2,5.013C-4.347,5.601 -4.209,5.422 -3.908,5.645C-3.908,5.851 -3.897,5.687 -4.319,5.748C-4.441,5.991 -3.136,6.78 -2.747,6.776C-2.742,6.732 -2.737,6.688 -2.733,6.644C-2.62,6.621 -2.219,6.66 -2.013,6.688C-1.966,6.688 -1.929,6.593 -1.925,6.526C-2.032,6.521 -2.14,6.516 -2.248,6.512C-2.394,6.458 -2.52,6.342 -2.689,6.321C-2.55,6.233 -2.135,6.463 -1.939,6.394C-1.828,6.355 -1.683,6.272 -1.557,6.247C-1.517,6.19 -1.499,6.179 -1.499,6.071C-1.402,6.032 -1.328,5.984 -1.249,6.012C-1.065,5.983 -1.046,5.817 -0.925,5.733C-0.458,5.408 -0.225,5.007 0.587,5.013C0.592,4.989 0.597,4.964 0.602,4.94C-0.399,4.813 -1.293,5.613 -2.057,5.895C-2.458,6.043 -3.276,5.472 -3.54,5.645C-3.646,5.434 -2.905,5.559 -2.689,5.322C-2.752,5.202 -3.753,5.574 -4.584,5.087C-4.805,4.957 -5.009,4.643 -5.303,4.602C-5.499,4.341 -4.553,4.919 -4.275,4.822C-4.173,4.786 -2.896,4.8 -1.925,3.735C-1.779,3.575 -1.5,3.423 -1.454,3.177C-1.723,3.196 -1.734,3.408 -1.954,3.471L-1.954,3.603C-2.364,3.662 -2.526,4.138 -2.924,4.22C-2.871,4.166 -2.586,3.822 -2.586,3.75C-2.913,3.802 -3.082,4.2 -3.35,4.323C-3.494,4.389 -3.799,4.347 -3.908,4.455C-3.979,4.325 -4.765,4.441 -4.966,4.367C-5.166,4.293 -7.219,4.226 -7.565,4.367C-8.465,4.733 -9.222,5.322 -9.622,5.322C-9.839,5.405 -10.161,5.687 -10.548,5.557C-11.018,5.399 -11.476,5.372 -11.841,5.131C-12.049,4.992 -12.716,4.291 -12.898,4.264C-12.919,4.112 -13.031,4.115 -13.089,4.014C-13.203,3.817 -13.245,3.576 -13.324,3.353C-13.473,2.933 -13.166,2.425 -13.192,2.163C-13.014,2.209 -12.483,3.122 -10.9,3.103C-10.882,2.953 -10.842,3.052 -10.842,2.898C-11.936,2.609 -12.386,2.557 -13.045,1.811C-13.012,1.632 -12.968,1.554 -13.075,1.399C-12.938,1.146 -12.841,0.834 -12.619,0.665L-12.619,0.606C-12.644,0.582 -12.819,0.592 -12.883,0.636C-12.935,0.223 -13.184,0.829 -13.354,0.929C-13.499,1.014 -13.653,0.976 -13.692,1.164C-13.818,1.061 -13.814,1.151 -13.824,1.208C-13.948,1.173 -13.927,1.156 -13.927,1.267C-14.18,1.267 -13.618,1.031 -13.618,0.797C-13.996,0.703 -14.49,1.17 -14.955,1.179C-14.871,1.083 -14.706,0.952 -14.588,0.9C-14.3,0.929 -14.409,0.859 -14.132,0.724C-13.815,0.569 -12.752,0.184 -12.752,-0.143C-13.113,-0.425 -13.457,-0.306 -13.457,-0.364C-13.227,-0.455 -12.904,-0.357 -13.03,-0.51C-12.909,-0.578 -12.962,-0.666 -12.81,-0.716C-12.825,-0.77 -12.84,-0.824 -12.854,-0.878C-13.254,-0.897 -13.501,-1.245 -13.883,-1.304C-14.035,-1.609 -13.122,-0.957 -13.045,-1.142C-13.37,-1.574 -14.181,-1.997 -14.691,-2.258C-14.914,-2.373 -15.076,-2.607 -15.366,-2.64C-15.366,-2.79 -14.075,-2.392 -13.971,-2.244L-13.897,-2.244C-13.925,-2.363 -14.023,-2.398 -14.088,-2.479C-13.54,-2.371 -13.698,-2.244 -13.471,-2.244C-13.472,-2.648 -13.71,-2.744 -13.853,-2.993C-14.111,-3.441 -14.312,-3.865 -14.558,-4.33C-14.466,-4.376 -14.411,-4.048 -14.308,-3.875C-14.211,-3.709 -13.488,-2.567 -13.295,-2.567C-13.282,-2.607 -13.484,-3.242 -13.515,-3.301C-13.832,-3.555 -13.899,-4.115 -13.897,-4.521C-13.666,-4.257 -13.413,-2.983 -13.148,-2.905C-13.108,-3.022 -13.148,-3.249 -13.178,-3.272C-12.958,-3.316 -13.224,-3.92 -13.133,-4.139C-13.077,-4.275 -13.107,-4.498 -13.045,-4.653C-12.984,-4.805 -12.847,-4.955 -12.752,-5.094C-12.655,-5.234 -12.642,-5.106 -12.017,-5.681C-10.79,-6.168 -8.921,-6.033 -7.786,-5.579C-7.408,-5.427 -6.809,-4.879 -6.449,-4.815C-6.43,-4.79 -6.41,-4.766 -6.39,-4.741C-6.854,-4.861 -6.613,-5.096 -8.109,-4.653C-8.191,-4.629 -9.466,-4.607 -9.49,-4.565C-9.661,-4.679 -9.89,-4.694 -9.99,-4.653C-10.136,-4.594 -10.434,-4.58 -10.592,-4.506C-11.039,-4.506 -10.856,-4.417 -11.238,-4.359C-11.347,-4.204 -11.24,-4.227 -11.37,-4.227C-11.38,-4.193 -11.39,-4.158 -11.4,-4.124C-11.516,-4.104 -11.543,-4.062 -11.635,-4.124C-11.745,-4.111 -11.734,-4.075 -11.811,-4.036C-11.83,-3.944 -11.841,-3.974 -11.752,-3.904C-11.388,-3.944 -11.467,-4.166 -11.444,-3.683C-11.093,-3.408 -10.969,-3.616 -10.915,-3.507C-11.166,-3.481 -11.28,-3.251 -11.532,-3.213C-11.558,-3.058 -11.893,-2.716 -11.973,-2.479C-12.199,-1.804 -11.84,-1.589 -11.958,-1.245C-12.167,-0.635 -12.036,-0.61 -11.782,-0.275C-11.721,-0.111 -11.82,0.684 -11.87,0.768C-11.855,0.812 -11.841,0.856 -11.826,0.9C-11.597,0.917 -11.642,0.937 -11.606,0.826C-11.262,0.723 -11.181,0.925 -10.93,0.959C-10.925,0.988 -10.92,1.017 -10.915,1.047C-10.758,1.068 -10.735,1.234 -10.651,1.105C-10.48,1.131 -10.333,1.335 -10.063,1.341C-10.091,1.48 -10.176,1.548 -10.195,1.679C-10.235,1.698 -10.225,1.693 -10.225,1.62C-10.476,1.528 -10.542,1.763 -10.562,1.561C-10.621,1.547 -10.993,1.544 -11.106,1.605C-11.166,1.637 -11.133,1.677 -11.238,1.693C-11.256,1.799 -11.234,1.781 -11.326,1.781C-11.365,1.82 -11.297,1.867 -11.297,2.046C-10.902,2.151 -11.042,2.235 -10.783,2.148C-10.576,2.254 -10.311,2.153 -10.225,2.193C-10.123,2.16 -10.108,2.116 -10.048,2.046C-9.974,2.181 -10.191,2.557 -10.284,2.648C-10.325,2.697 -10.378,2.698 -10.474,2.692C-10.479,2.716 -10.484,2.741 -10.489,2.765C-10.307,2.822 -9.789,2.821 -9.755,2.604C-9.888,2.604 -9.868,2.608 -9.887,2.589C-9.867,2.533 -8.363,0.689 -8.77,0.165L-8.888,0.165C-8.98,0.239 -8.961,0.198 -8.961,0.356C-9.118,0.356 -9.079,0.391 -9.079,-0.04C-9.137,-0.116 -9.193,-0.202 -9.314,-0.217C-9.232,-0.338 -9.194,-0.495 -9.079,-0.584C-9.081,-0.709 -9.105,-0.994 -9.167,-1.083C-9.135,-1.123 -9.131,-1.111 -9.123,-1.186C-9,-1.157 -9.02,-1.144 -8.917,-0.775C-8.851,-0.742 -8.801,-0.784 -8.756,-0.804C-8.779,-0.984 -8.734,-1.199 -8.8,-1.377L-8.8,-1.686C-9.306,-2.98 -9.811,-3.137 -9.696,-3.375C-9.701,-3.784 -8.77,-4.254 -8.3,-4.242C-8.246,-3.751 -7.605,-3.643 -7.448,-3.199C-7.317,-2.829 -7.453,-2.01 -7.625,-1.7C-7.671,-1.616 -7.755,-1.584 -7.771,-1.465C-7.578,-1.272 -7.66,-1.48 -7.448,-1.48C-7.49,-1.369 -7.481,-1.166 -7.478,-1.01C-7.355,-0.956 -7.233,-0.902 -7.11,-0.848C-7.32,-0.738 -8.046,-0.866 -8.109,-0.554C-8.221,-0.536 -8.197,-0.584 -8.197,-0.305C-7.833,0.133 -7.062,-0.289 -6.185,0.048C-6.101,0.08 -6.048,0.012 -6.023,0.004C-5.95,-0.021 -5.697,0.111 -5.553,0.048C-5.454,0.004 -5.392,-0.038 -5.23,-0.04C-5.188,-0.118 -5.15,-0.206 -5.068,-0.246C-5.073,-0.697 -5.366,-0.774 -5.362,-1.274C-5.325,-1.293 -5.347,-1.298 -5.244,-1.23C-5.092,-1.23 -5.266,-1.536 -5.45,-1.553C-5.465,-1.573 -5.48,-1.593 -5.494,-1.612C-5.388,-1.634 -5.364,-1.672 -5.215,-1.671C-5.196,-1.629 -5.213,-1.541 -5.186,-1.48C-5.07,-1.215 -4.767,-1.026 -4.598,-0.804C-4.243,-0.855 -4.309,-0.833 -4.216,-0.907C-4.216,-1.084 -4.182,-1.05 -4.349,-1.069C-3.94,-1.707 -3.981,-1.598 -3.981,-1.847C-3.637,-2.138 -3.217,-2.84 -3.158,-3.287C-3.022,-3.237 -2.993,-2.864 -2.879,-3.14C-2.821,-3.16 -2.84,-3.166 -2.762,-2.964C-3.055,-2.506 -3.193,-1.981 -3.144,-1.304C-3.09,-1.28 -3.09,-1.284 -3.012,-1.289C-2.974,-1.177 -2.665,-0.908 -2.527,-0.907C-2.598,-0.75 -2.475,-0.067 -2.468,0.195C-2.632,0.257 -2.754,0.346 -2.85,0.474C-2.827,0.561 -2.703,0.634 -2.63,0.665C-2.663,0.735 -2.685,0.742 -2.791,0.738C-2.859,0.895 -2.829,0.902 -2.733,1.017C-2.818,1.086 -2.836,1.075 -2.747,1.194C-2.57,1.194 -2.6,1.224 -2.6,1.076C-2.496,1.046 -2.294,1.24 -2.174,1.297C-2.041,1.36 -1.874,1.276 -1.719,1.341C-1.105,1.595 -1.404,1.52 -0.691,1.194C-0.691,1.096 -0.674,1.12 -1.014,1.12L-1.014,1.047C-1.315,0.964 -1.646,0.881 -2.013,0.885C-1.905,0.754 -1.745,0.875 -1.557,0.812C-1.278,0.718 -1.048,0.531 -0.661,0.533C-0.515,0.404 -0.544,0.463 -0.544,0.268C-0.791,0.092 -0.719,0.121 -0.867,0.121C-0.917,0.095 -0.921,0.009 -0.97,-0.026C-0.903,-0.081 -0.734,-0.095 -0.647,-0.143C-0.628,-0.31 -0.679,-0.252 -0.397,-0.393C-0.423,-0.497 -0.463,-0.586 -0.588,-0.599C-0.566,-0.705 -0.55,-0.672 -0.353,-0.672C-0.353,-0.753 -0.348,-0.758 -0.397,-0.789C-0.363,-0.815 -0.356,-0.806 -0.28,-0.804C-0.267,-0.939 -0.229,-1.024 -0.441,-1.025C-0.412,-1.162 -0.301,-1.148 -0.221,-1.142C-0.203,-1.336 -0.183,-1.304 -0.294,-1.304C-0.377,-1.775 -1.548,-2.871 -2.013,-2.934C-2.027,-2.959 -2.042,-2.983 -2.057,-3.008C-1.691,-3.008 -2.502,-3.328 -2.63,-3.404C-2.78,-3.495 -2.885,-3.795 -2.997,-3.845C-3.264,-3.963 -3.902,-3.849 -4.172,-3.845C-4.245,-3.749 -4.295,-3.689 -4.29,-3.507C-4.234,-3.433 -4.28,-3.451 -4.07,-3.434C-4.052,-3.064 -4.082,-3.156 -3.952,-3.008C-3.816,-3.031 -3.792,-3.14 -3.761,-3.14C-3.901,-2.577 -4.478,-2.424 -4.936,-2.17C-4.98,-2.171 -5.112,-2.185 -5.112,-2.229C-5.084,-2.255 -4.771,-2.466 -4.745,-2.479L-4.745,-2.552C-5.044,-2.547 -5.198,-2.487 -5.392,-2.406C-5.565,-2.333 -5.688,-2.478 -5.759,-2.508C-6.607,-2.508 -6.57,-3.267 -6.934,-3.316C-6.957,-3.445 -7.334,-3.805 -7.169,-4.095C-7.123,-4.175 -6.987,-4.184 -6.934,-4.286C-6.686,-4.28 -6.509,-4.276 -6.42,-4.344C-6.327,-4.27 -6.373,-4.257 -6.17,-4.477C-6.039,-4.468 -5.358,-4.409 -5.186,-4.477C-5.015,-4.544 -4.787,-4.924 -4.554,-4.962C-4.518,-5.183 -4.239,-5.564 -4.452,-5.652C-5.068,-5.177 -6.266,-5.357 -6.846,-5.725L-6.787,-5.784C-6.774,-5.815 -6.535,-5.628 -6.42,-5.623C-6.01,-5.605 -5.408,-5.434 -4.995,-5.623C-3.514,-6.3 -3.1,-8.168 -3.1,-7.679C-2.869,-7.679 -3.008,-8.108 -2.556,-8.105C-2.49,-8.171 -2.718,-8.283 -2.644,-8.752C-2.724,-8.737 -2.748,-8.712 -2.776,-8.649C-2.844,-8.674 -2.837,-8.677 -2.835,-8.766C-2.554,-8.787 -2.652,-8.722 -2.542,-8.855C-2.576,-8.991 -2.523,-8.941 -2.733,-8.898C-2.784,-9.001 -2.869,-9.118 -3.012,-9.134C-3.03,-9.244 -3.038,-9.207 -2.968,-9.295C-2.847,-9.266 -2.975,-9.251 -2.689,-9.251C-2.689,-9.404 -2.839,-9.246 -2.835,-9.501C-2.934,-9.57 -2.947,-9.544 -3.07,-9.516C-3.065,-9.697 -2.995,-9.724 -2.982,-9.883C-3.373,-9.988 -3.776,-9.796 -3.864,-9.883C-3.775,-10.006 -3.79,-9.971 -3.79,-10.044C-3.936,-10.014 -3.85,-9.943 -3.937,-10.03C-2.941,-10.899 -2.541,-9.736 -2.218,-9.736C-2.261,-9.876 -2.391,-9.951 -2.468,-10.059C-2.725,-10.422 -2.899,-10.853 -3.291,-11.073C-3.254,-11.202 -3.241,-11.158 -3.364,-11.264C-3.191,-11.224 -3.056,-10.927 -3.203,-11.308C-3.302,-11.348 -3.352,-11.37 -3.379,-11.278Z" style="fill:none;fill-rule:nonzero;stroke:rgb(104,33,95);stroke-width:0.35px;"/>
            </g>
            <g transform="matrix(-1,0,0,1,193.928,364.912)">
                <path d="M0,-18.785C-5.187,-18.785 -9.392,-14.58 -9.392,-9.393C-9.392,-4.205 -5.187,0 0,0C5.188,0 9.392,-4.205 9.392,-9.393C9.392,-14.58 5.188,-18.785 0,-18.785" style="fill:rgb(104,33,95);fill-rule:nonzero;"/>
            </g>
            <g transform="matrix(1,0,0,1,201.783,355.854)">
                <path d="M0,-0.628C0.024,-0.623 0.049,-0.618 0.073,-0.613C0.106,-0.685 0.132,-0.699 0.132,-0.819C0.04,-0.837 0.067,-0.864 0,-0.628M-0.162,7.525C-0.191,7.496 -0.235,7.502 -0.235,7.584C-0.147,7.584 -0.162,7.599 -0.162,7.525M-1.264,-6.298C-1.317,-6.44 -1.289,-6.416 -1.381,-6.416C-1.328,-6.275 -1.355,-6.298 -1.264,-6.298M-2.498,3.676C-2.469,3.521 -2.228,3.178 -2.468,3.133C-2.522,3.298 -2.568,3.458 -2.571,3.676L-2.498,3.676ZM-0.94,-7.121C-1.101,-7.279 -2.091,-7.763 -2.512,-7.606C-2.863,-7.475 -3.017,-7.64 -2.997,-6.915C-2.529,-6.917 -2.343,-7.106 -1.984,-7.106C-1.873,-7.259 -1.984,-7.278 -2.086,-7.371L-2.116,-7.371C-1.867,-7.55 -1.058,-6.999 -0.999,-6.871C-0.799,-6.887 -0.899,-6.82 -0.691,-7.048C-0.573,-6.994 -0.443,-7.059 -0.235,-7.062C-0.268,-7.18 -0.32,-7.165 -0.485,-7.18C-0.671,-7.041 -0.643,-6.959 -0.588,-7.532C-0.647,-7.65 -0.705,-7.768 -0.764,-7.885C-0.791,-7.867 -0.898,-7.235 -0.896,-7.15C-0.911,-7.141 -0.925,-7.131 -0.94,-7.121M-2.586,1.297C-2.586,1.242 -2.743,1.318 -2.762,1.326C-2.752,1.35 -2.742,1.375 -2.733,1.399C-2.807,1.445 -2.868,1.462 -2.997,1.458C-3.013,1.57 -3.06,1.568 -3.1,1.649C-3.1,1.706 -2.801,1.621 -2.6,1.62C-2.575,1.443 -2.723,1.543 -2.586,1.297M-0.367,7.657C-0.723,7.867 -0.304,8.033 -1.528,8.612C-1.831,8.756 -2.289,8.703 -2.556,8.612C-2.63,8.627 -2.703,8.642 -2.776,8.656C-2.877,8.62 -2.978,8.541 -3.1,8.524C-3.097,8.635 -3.122,8.718 -3.188,8.759L-3.188,8.921C-3.144,8.91 -2.992,8.812 -2.894,8.862C-2.269,9.181 -2.304,8.883 -2.233,9.097C-1.98,9.097 -2.02,9.112 -1.984,9.038C-1.869,8.996 -1.646,9.028 -1.484,8.921C-1.013,8.61 -0.676,7.943 0.132,7.951C0.132,7.791 0.17,7.938 0.352,7.951C0.623,7.697 0.587,7.75 0.587,7.657C0.467,7.636 0.384,7.543 0.294,7.511C0.135,7.453 -0.023,7.625 -0.103,7.657C-0.219,7.705 -0.241,7.583 -0.367,7.657M-3.335,2.736C-3.202,2.918 -3.208,2.749 -3.158,2.442C-3.186,2.34 -3.257,2.229 -3.261,2.075C-3.411,2.075 -3.33,2.531 -3.335,2.736M-3.452,-10.133C-3.545,-10.133 -3.526,-10.147 -3.526,-10.059C-3.433,-10.059 -3.452,-10.044 -3.452,-10.133M-3.717,-10.015C-3.576,-10.015 -3.599,-9.996 -3.599,-10.089C-3.714,-10.089 -3.717,-10.103 -3.717,-10.015M-3.761,-1.26C-3.838,-1.066 -3.87,-0.876 -3.864,-0.584C-3.686,-0.433 -3.861,-0.253 -3.511,-0.231C-3.441,-1.31 -3.356,-1.183 -3.761,-1.26M-4.025,6.276C-4.07,6.291 -4.113,6.306 -4.157,6.321C-4.174,6.315 -4.246,6.239 -4.26,6.233C-4.295,6.242 -4.329,6.252 -4.363,6.262C-4.485,6.194 -4.626,6.094 -4.789,6.071C-4.865,6.223 -4.459,6.392 -4.349,6.497C-3.942,6.883 -3.996,6.801 -3.996,7.202C-3.917,7.371 -3.66,7.472 -3.614,7.672C-3.508,7.69 -3.526,7.668 -3.526,7.76C-3.036,8.139 -2.558,8.541 -1.704,8.407C-1.678,8.303 -1.678,8.333 -1.91,8.333C-2.039,8.28 -2.092,8.187 -2.292,8.186C-2.364,7.994 -2.566,7.991 -2.644,7.834C-2.711,7.7 -2.684,7.688 -2.776,7.599C-2.646,7.546 -2.286,7.637 -2.13,7.643C-2.048,7.478 -2.785,7.171 -2.968,7.04C-3.178,6.89 -2.972,6.677 -4.025,6.276M-4.789,0.694C-4.93,0.694 -4.907,0.675 -4.907,0.768C-4.792,0.768 -4.789,0.782 -4.789,0.694M-5.097,-10.97C-5.378,-11.095 -5.352,-11.107 -5.392,-11.029C-5.28,-10.96 -5.097,-10.824 -5.097,-10.97M-5.671,-10.838C-5.578,-10.838 -5.597,-10.817 -5.597,-10.941C-5.69,-10.941 -5.671,-10.961 -5.671,-10.838M-6.772,-7.503C-6.743,-7.479 -6.714,-7.454 -6.684,-7.43C-6.577,-7.43 -6.446,-7.625 -6.405,-7.723C-6.405,-7.745 -6.406,-7.738 -6.64,-7.723C-6.704,-7.577 -6.772,-7.676 -6.772,-7.503M-4.07,1.135C-4.167,0.907 -4.32,0.823 -4.319,0.459C-4.358,0.444 -4.397,0.43 -4.437,0.415C-4.437,0.568 -4.59,0.513 -4.716,0.826C-5.206,0.961 -5.544,0.914 -5.994,0.738C-6.158,0.674 -6.334,0.778 -6.464,0.782C-6.604,1.35 -6.558,0.767 -7.257,0.782C-7.493,1.058 -7.287,0.715 -7.757,0.738C-7.779,0.849 -7.755,0.989 -7.771,1.12C-7.722,1.18 -7.648,1.227 -7.551,1.238C-7.076,2.782 -7.609,2.569 -7.727,3.147C-7.616,3.147 -7.642,3.109 -7.625,3.339C-7.532,3.351 -7.373,3.425 -7.257,3.397C-7.056,3.349 -6.236,2.507 -6.126,2.325C-6.041,2.184 -5.96,1.889 -5.817,1.811C-5.734,1.765 -5.599,1.77 -5.524,1.722C-5.356,1.744 -5.305,1.852 -5.142,1.869C-5.137,1.83 -5.132,1.791 -5.127,1.752C-5.404,1.64 -5.533,1.317 -5.876,1.267C-5.955,0.894 -5.48,1.105 -5.142,1.105C-5.117,0.958 -5.14,0.995 -5.01,1.223C-4.938,1.348 -4.711,1.455 -4.584,1.532C-4.281,1.713 -4.107,2.106 -3.805,2.31C-3.801,2.902 -3.733,2.797 -3.996,2.898C-3.996,2.988 -4.008,3.019 -3.864,3.015C-3.694,2.862 -3.688,2.929 -3.688,2.868C-3.624,2.921 -3.614,3.021 -3.614,3.103L-3.57,3.103C-3.149,2.726 -3.971,1.652 -3.981,1.634C-4.068,1.487 -3.995,1.31 -4.07,1.135M-7.889,-1.671C-7.925,-2.307 -7.818,-2.303 -7.962,-2.303C-8.003,-1.544 -8.079,-1.6 -7.889,-1.671M-7.918,1.679C-7.777,1.679 -7.886,1.117 -7.889,0.988C-8.01,1.007 -8.013,1.091 -8.006,1.208C-8.258,1.25 -8.094,1.492 -8.094,1.532C-8.008,1.527 -8.008,1.52 -7.962,1.487C-7.962,1.689 -7.974,1.66 -7.918,1.679M-8.242,-2.068C-8.242,-1.873 -8.28,-1.906 -8.094,-1.906C-7.948,-2.255 -8.106,-2.088 -8.242,-2.068M-7.977,-2.993C-8.305,-3.345 -8.274,-3.264 -8.344,-2.964C-8.152,-2.862 -7.96,-2.551 -7.977,-2.993M-8.388,-2.67C-8.314,-2.67 -8.345,-2.652 -8.227,-2.787C-8.269,-2.916 -8.33,-2.883 -8.359,-2.875C-8.401,-2.875 -8.388,-2.88 -8.388,-2.67M-5.097,6.556C-5.472,6.556 -5.626,6.379 -5.626,6.512C-5.596,6.536 -5.598,6.535 -5.538,6.541C-5.655,6.583 -5.924,6.449 -6.053,6.409C-6.528,6.437 -6.23,6.365 -6.831,6.365C-8.162,6.365 -8.203,6.641 -8.624,6.658L-8.624,6.776C-8.507,6.769 -8.295,6.695 -8.197,6.658L-6.596,6.658C-6.083,6.988 -5.925,6.687 -5.083,7.29C-4.877,7.438 -4.651,7.539 -4.481,7.672C-4.205,7.888 -4.062,8.242 -3.849,8.524C-3.802,8.587 -3.689,8.675 -3.658,8.744C-3.574,8.934 -3.687,9.156 -3.585,9.347C-3.482,9.539 -3.37,9.648 -3.379,9.949C-3.325,9.919 -3.347,9.948 -3.335,9.876C-3.24,10.122 -3.438,10.498 -3.438,10.845L-3.35,10.845C-3.324,10.68 -3.007,9.998 -3.085,9.832C-3.194,9.598 -3.115,9.315 -3.217,9.097C-3.702,8.064 -4.017,6.984 -5.097,6.556M-10.592,2.722C-10.592,2.777 -10.607,2.765 -10.518,2.765C-10.518,2.723 -10.502,2.649 -10.592,2.722M-11.664,1.693L-11.767,1.693C-11.837,1.935 -11.943,1.974 -11.473,2.046C-11.29,1.609 -11.525,1.774 -11.62,1.796C-11.641,1.796 -11.633,1.801 -11.664,1.693M-3.423,-11.249C-3.458,-11.214 -3.449,-11.212 -3.467,-11.249C-3.467,-11.269 -3.467,-11.264 -3.423,-11.249M-3.173,-8.047C-3.167,-8.284 -3.094,-8.545 -3.173,-8.766C-3.021,-8.674 -3.063,-8.154 -3.173,-8.047M-6.156,-4.888C-6.219,-4.903 -6.209,-4.91 -6.258,-4.932L-6.258,-4.962C-6.195,-4.943 -6.189,-4.932 -6.156,-4.888M-5.289,-4.668C-5.289,-4.535 -5.967,-4.774 -6.067,-4.785C-5.287,-4.684 -5.355,-4.668 -5.289,-4.668M-0.544,-1.083C-0.525,-1.146 -0.514,-1.153 -0.47,-1.186C-0.411,-1.186 -0.403,-1.207 -0.544,-1.083M-2.086,0.224C-2.129,0.45 -2.291,0.423 -2.189,0.547C-2.326,0.657 -2.353,0.727 -2.542,0.591C-2.449,0.467 -2.17,0.058 -2.086,0.224M-2.38,0.885L-2.409,0.871C-2.409,0.818 -2.417,0.83 -2.38,0.812L-2.38,0.885ZM-14.265,-2.846C-14.213,-2.768 -14.147,-2.748 -14.118,-2.655C-14.171,-2.615 -14.175,-2.607 -14.118,-2.567C-14.118,-2.461 -14.412,-2.806 -14.47,-2.846C-14.47,-3.008 -14.423,-2.763 -14.265,-2.846M-14,-2.655L-14,-2.67C-13.961,-2.631 -13.961,-2.636 -14,-2.655M-13.956,-2.611L-13.956,-2.626C-13.917,-2.587 -13.917,-2.592 -13.956,-2.611M-13.603,-0.305L-13.603,-0.334C-13.531,-0.298 -13.522,-0.305 -13.603,-0.305M-14.088,1.311L-14.029,1.297C-14.07,1.328 -14.032,1.305 -14.088,1.311M-10.357,6.35C-10.283,6.498 -11,6.446 -11.194,6.365C-11.442,6.262 -11.409,6.567 -12.516,5.792C-12.605,5.73 -12.602,5.606 -12.663,5.513C-12.709,5.443 -13.019,5.12 -13.089,5.072C-13.089,4.644 -12.554,6.394 -10.357,6.35M-8.668,-6.651C-8.834,-6.708 -8.93,-6.642 -9.064,-6.695C-9.135,-6.723 -9.164,-6.784 -9.27,-6.798C-9.188,-6.852 -8.939,-6.801 -8.858,-6.768C-8.178,-6.768 -8.508,-6.817 -7.786,-6.445C-7.746,-6.365 -8.554,-6.612 -8.668,-6.651M-11.121,-7.15C-10.579,-7.153 -10.228,-7.346 -9.711,-7.15C-9.481,-7.064 -9.167,-7.278 -9.005,-7.062C-8.996,-7.057 -8.986,-7.053 -8.976,-7.048C-9.174,-6.969 -9.509,-7.129 -9.681,-7.136C-10.123,-7.153 -11.174,-6.937 -11.121,-7.15M-3.511,-11.293L-3.511,-11.308C-3.469,-11.29 -3.438,-11.269 -3.511,-11.293M-3.555,-11.337C-3.546,-11.342 -3.535,-11.347 -3.526,-11.352C-3.526,-11.315 -3.52,-11.32 -3.555,-11.337M-3.379,-11.278C-3.685,-11.473 -3.68,-11.44 -3.878,-11.44L-3.878,-11.381C-3.53,-11.246 -4.09,-10.935 -4.29,-10.705C-4.258,-10.548 -4.49,-10.488 -4.584,-10.133C-4.817,-9.938 -4.953,-9.664 -5.142,-9.428C-5.228,-9.32 -5.227,-9.16 -5.318,-9.06C-5.467,-8.896 -5.669,-8.72 -5.803,-8.59C-5.938,-8.46 -5.997,-8.208 -6.185,-8.135C-6.177,-8.076 -6.176,-8.08 -6.156,-8.047C-6.35,-7.949 -6.363,-7.972 -6.156,-7.811C-6.15,-7.37 -6.439,-6.488 -6.831,-6.46C-6.831,-6.516 -6.796,-6.57 -7.022,-6.563C-7.12,-6.487 -7.074,-6.467 -7.051,-6.343L-6.537,-6.343C-6.508,-6.329 -6.519,-6.273 -6.449,-6.284C-4.979,-6.52 -4.144,-7.679 -3.952,-7.679C-3.972,-7.402 -4.231,-7.35 -4.334,-7.165C-4.465,-6.93 -5.095,-6.363 -5.347,-6.269C-5.59,-6.179 -5.735,-6.225 -6.92,-6.225C-7.104,-6.285 -7.341,-6.364 -7.536,-6.357C-7.526,-6.392 -7.517,-6.426 -7.507,-6.46C-7.726,-6.551 -7.675,-6.433 -7.698,-6.636C-7.844,-6.697 -7.937,-6.816 -8.109,-6.842C-8.129,-6.867 -8.149,-6.891 -8.168,-6.915C-7.803,-7.079 -7.316,-7.297 -7.125,-7.635C-7.003,-7.851 -7.041,-8.514 -6.758,-8.531C-6.734,-8.603 -6.754,-8.615 -6.67,-8.634C-6.636,-8.9 -6.662,-8.869 -6.567,-8.869C-6.543,-8.939 -6.54,-9.01 -6.596,-9.046C-6.578,-9.125 -6.54,-9.115 -6.508,-9.163C-6.502,-9.172 -6.504,-9.454 -6.493,-9.545C-6.405,-9.634 -6.251,-9.874 -6.361,-9.956C-6.295,-10.016 -6.222,-10.023 -6.258,-10.147C-6.226,-10.154 -6.133,-10.156 -6.214,-10.235C-6.122,-10.254 -6.152,-10.218 -6.082,-10.412C-6.216,-10.447 -6.223,-10.338 -6.273,-10.338C-6.167,-10.617 -5.891,-11.055 -5.568,-11.058C-5.563,-11.092 -5.558,-11.127 -5.553,-11.161C-7.191,-11.182 -7.147,-8.467 -7.948,-7.4C-8.027,-7.294 -8.199,-7.318 -8.3,-7.268C-8.863,-6.986 -9.106,-7.318 -9.608,-7.356C-9.589,-7.387 -9.589,-7.377 -9.578,-7.43C-9.878,-7.422 -10.509,-7.572 -10.871,-7.4C-11.611,-7.4 -11.041,-7.477 -12.355,-7.018C-12.667,-7.018 -13.417,-6.921 -13.589,-6.842C-14.997,-6.192 -15.332,-5.386 -15.587,-5.064C-15.648,-4.987 -15.8,-4.99 -15.866,-4.918C-15.998,-4.773 -15.773,-4.827 -16.115,-4.609C-16.145,-4.569 -16.163,-4.413 -16.174,-4.403C-16.495,-4.323 -16.518,-3.802 -16.835,-3.639C-16.822,-3.573 -16.837,-3.596 -16.791,-3.566C-16.856,-3.526 -16.859,-3.515 -16.924,-3.507C-16.906,-3.12 -17.389,-2.714 -17.54,-2.347C-17.54,-1.922 -17.845,-1.11 -17.981,-0.878C-17.938,-0.58 -18.117,0.38 -18.01,0.591C-17.829,0.951 -17.957,1.685 -17.776,2.002C-17.612,2.286 -17.312,2.445 -17.144,2.736C-17.049,2.899 -17.225,3.155 -17.115,3.324C-17.013,3.479 -16.804,3.675 -16.776,3.882C-16.418,3.934 -16.292,4.228 -16.101,4.426C-15.942,4.589 -15.058,5.133 -14.838,5.16C-14.725,5.647 -14.192,6.247 -13.56,6.247C-13.57,6.1 -13.636,6.131 -13.574,6.1C-13.459,6.191 -13.209,6.22 -13.178,6.188C-13.178,6.102 -13.55,5.893 -13.618,5.777C-14.045,5.055 -13.99,3.752 -13.927,3.72C-13.932,6.271 -13.18,5.625 -12.869,6.247C-12.898,6.271 -12.889,6.267 -12.942,6.276C-12.863,6.408 -12.379,6.739 -12.223,6.806C-12.04,6.883 -12.182,6.62 -11.429,6.923C-11.114,7.05 -9.382,6.777 -8.902,6.497C-8.371,6.187 -8.056,5.712 -7.419,5.483C-7.323,4.907 -8.775,6.493 -9.931,6.556C-9.807,6.415 -9.847,6.438 -9.755,6.438C-9.755,6.268 -9.724,6.341 -10.122,6.321C-9.99,6.11 -10.188,6.228 -10.298,6.188C-10.48,6.124 -10.588,5.986 -10.827,5.997C-10.95,5.874 -10.284,6.034 -10.048,5.924C-9.912,5.86 -9.758,5.684 -9.637,5.63C-9.416,5.532 -9.131,5.568 -8.961,5.498C-8.847,5.451 -8.256,5.174 -8.183,5.101C-8.149,5.067 -8.165,4.997 -8.124,4.969C-7.969,4.865 -7.654,4.871 -7.595,4.675C-6.741,4.63 -6.764,4.644 -6.743,4.602C-6.743,4.543 -6.732,4.558 -6.92,4.558C-7.053,4.424 -6.268,4.484 -6.17,4.528C-6.146,4.563 -6.121,4.597 -6.097,4.631C-6.033,4.659 -5.81,4.601 -5.685,4.675C-5.607,4.722 -5.516,4.887 -5.465,4.925C-5.377,4.954 -5.289,4.984 -5.2,5.013C-4.347,5.601 -4.209,5.422 -3.908,5.645C-3.908,5.851 -3.897,5.687 -4.319,5.748C-4.441,5.991 -3.136,6.78 -2.747,6.776C-2.742,6.732 -2.737,6.688 -2.733,6.644C-2.62,6.621 -2.219,6.66 -2.013,6.688C-1.966,6.688 -1.929,6.593 -1.925,6.526C-2.032,6.521 -2.14,6.516 -2.248,6.512C-2.394,6.458 -2.52,6.342 -2.689,6.321C-2.55,6.233 -2.135,6.463 -1.939,6.394C-1.828,6.355 -1.683,6.272 -1.557,6.247C-1.517,6.19 -1.499,6.179 -1.499,6.071C-1.402,6.032 -1.328,5.984 -1.249,6.012C-1.065,5.983 -1.046,5.817 -0.925,5.733C-0.458,5.408 -0.225,5.007 0.587,5.013C0.592,4.989 0.597,4.964 0.602,4.94C-0.399,4.813 -1.293,5.613 -2.057,5.895C-2.458,6.043 -3.276,5.472 -3.54,5.645C-3.646,5.434 -2.905,5.559 -2.689,5.322C-2.752,5.202 -3.753,5.574 -4.584,5.087C-4.805,4.957 -5.009,4.643 -5.303,4.602C-5.499,4.341 -4.553,4.919 -4.275,4.822C-4.173,4.786 -2.896,4.8 -1.925,3.735C-1.779,3.575 -1.5,3.423 -1.454,3.177C-1.723,3.196 -1.734,3.408 -1.954,3.471L-1.954,3.603C-2.364,3.662 -2.526,4.138 -2.924,4.22C-2.871,4.166 -2.586,3.822 -2.586,3.75C-2.913,3.802 -3.082,4.2 -3.35,4.323C-3.494,4.389 -3.799,4.347 -3.908,4.455C-3.979,4.325 -4.765,4.441 -4.966,4.367C-5.166,4.293 -7.219,4.226 -7.565,4.367C-8.465,4.733 -9.222,5.322 -9.622,5.322C-9.839,5.405 -10.161,5.687 -10.548,5.557C-11.018,5.399 -11.476,5.372 -11.841,5.131C-12.049,4.992 -12.716,4.291 -12.898,4.264C-12.919,4.112 -13.031,4.115 -13.089,4.014C-13.203,3.817 -13.245,3.576 -13.324,3.353C-13.473,2.933 -13.166,2.425 -13.192,2.163C-13.014,2.209 -12.483,3.122 -10.9,3.103C-10.882,2.953 -10.842,3.052 -10.842,2.898C-11.936,2.609 -12.386,2.557 -13.045,1.811C-13.012,1.632 -12.968,1.554 -13.075,1.399C-12.938,1.146 -12.841,0.834 -12.619,0.665L-12.619,0.606C-12.644,0.582 -12.819,0.592 -12.883,0.636C-12.935,0.223 -13.184,0.829 -13.354,0.929C-13.499,1.014 -13.653,0.976 -13.692,1.164C-13.818,1.061 -13.814,1.151 -13.824,1.208C-13.948,1.173 -13.927,1.156 -13.927,1.267C-14.18,1.267 -13.618,1.031 -13.618,0.797C-13.996,0.703 -14.49,1.17 -14.955,1.179C-14.871,1.083 -14.706,0.952 -14.588,0.9C-14.3,0.929 -14.409,0.859 -14.132,0.724C-13.815,0.569 -12.752,0.184 -12.752,-0.143C-13.113,-0.425 -13.457,-0.306 -13.457,-0.364C-13.227,-0.455 -12.904,-0.357 -13.03,-0.51C-12.909,-0.578 -12.962,-0.666 -12.81,-0.716C-12.825,-0.77 -12.84,-0.824 -12.854,-0.878C-13.254,-0.897 -13.501,-1.245 -13.883,-1.304C-14.035,-1.609 -13.122,-0.957 -13.045,-1.142C-13.37,-1.574 -14.181,-1.997 -14.691,-2.258C-14.914,-2.373 -15.076,-2.607 -15.366,-2.64C-15.366,-2.79 -14.075,-2.392 -13.971,-2.244L-13.897,-2.244C-13.925,-2.363 -14.023,-2.398 -14.088,-2.479C-13.54,-2.371 -13.698,-2.244 -13.471,-2.244C-13.472,-2.648 -13.71,-2.744 -13.853,-2.993C-14.111,-3.441 -14.312,-3.865 -14.558,-4.33C-14.466,-4.376 -14.411,-4.048 -14.308,-3.875C-14.211,-3.709 -13.488,-2.567 -13.295,-2.567C-13.282,-2.607 -13.484,-3.242 -13.515,-3.301C-13.832,-3.555 -13.899,-4.115 -13.897,-4.521C-13.666,-4.257 -13.413,-2.983 -13.148,-2.905C-13.108,-3.022 -13.148,-3.249 -13.178,-3.272C-12.958,-3.316 -13.224,-3.92 -13.133,-4.139C-13.077,-4.275 -13.107,-4.498 -13.045,-4.653C-12.984,-4.805 -12.847,-4.955 -12.752,-5.094C-12.655,-5.234 -12.642,-5.106 -12.017,-5.681C-10.79,-6.168 -8.921,-6.033 -7.786,-5.579C-7.408,-5.427 -6.809,-4.879 -6.449,-4.815C-6.43,-4.79 -6.41,-4.766 -6.39,-4.741C-6.854,-4.861 -6.613,-5.096 -8.109,-4.653C-8.191,-4.629 -9.466,-4.607 -9.49,-4.565C-9.661,-4.679 -9.89,-4.694 -9.99,-4.653C-10.136,-4.594 -10.434,-4.58 -10.592,-4.506C-11.039,-4.506 -10.856,-4.417 -11.238,-4.359C-11.347,-4.204 -11.24,-4.227 -11.37,-4.227C-11.38,-4.193 -11.39,-4.158 -11.4,-4.124C-11.516,-4.104 -11.543,-4.062 -11.635,-4.124C-11.745,-4.111 -11.734,-4.075 -11.811,-4.036C-11.83,-3.944 -11.841,-3.974 -11.752,-3.904C-11.388,-3.944 -11.467,-4.166 -11.444,-3.683C-11.093,-3.408 -10.969,-3.616 -10.915,-3.507C-11.166,-3.481 -11.28,-3.251 -11.532,-3.213C-11.558,-3.058 -11.893,-2.716 -11.973,-2.479C-12.199,-1.804 -11.84,-1.589 -11.958,-1.245C-12.167,-0.635 -12.036,-0.61 -11.782,-0.275C-11.721,-0.111 -11.82,0.684 -11.87,0.768C-11.855,0.812 -11.841,0.856 -11.826,0.9C-11.597,0.917 -11.642,0.937 -11.606,0.826C-11.262,0.723 -11.181,0.925 -10.93,0.959C-10.925,0.988 -10.92,1.017 -10.915,1.047C-10.758,1.068 -10.735,1.234 -10.651,1.105C-10.48,1.131 -10.333,1.335 -10.063,1.341C-10.091,1.48 -10.176,1.548 -10.195,1.679C-10.235,1.698 -10.225,1.693 -10.225,1.62C-10.476,1.528 -10.542,1.763 -10.562,1.561C-10.621,1.547 -10.993,1.544 -11.106,1.605C-11.166,1.637 -11.133,1.677 -11.238,1.693C-11.256,1.799 -11.234,1.781 -11.326,1.781C-11.365,1.82 -11.297,1.867 -11.297,2.046C-10.902,2.151 -11.042,2.235 -10.783,2.148C-10.576,2.254 -10.311,2.153 -10.225,2.193C-10.123,2.16 -10.108,2.116 -10.048,2.046C-9.974,2.181 -10.191,2.557 -10.284,2.648C-10.325,2.697 -10.378,2.698 -10.474,2.692C-10.479,2.716 -10.484,2.741 -10.489,2.765C-10.307,2.822 -9.789,2.821 -9.755,2.604C-9.888,2.604 -9.868,2.608 -9.887,2.589C-9.867,2.533 -8.363,0.689 -8.77,0.165L-8.888,0.165C-8.98,0.239 -8.961,0.198 -8.961,0.356C-9.118,0.356 -9.079,0.391 -9.079,-0.04C-9.137,-0.116 -9.193,-0.202 -9.314,-0.217C-9.232,-0.338 -9.194,-0.495 -9.079,-0.584C-9.081,-0.709 -9.105,-0.994 -9.167,-1.083C-9.135,-1.123 -9.131,-1.111 -9.123,-1.186C-9,-1.157 -9.02,-1.144 -8.917,-0.775C-8.851,-0.742 -8.801,-0.784 -8.756,-0.804C-8.779,-0.984 -8.734,-1.199 -8.8,-1.377L-8.8,-1.686C-9.306,-2.98 -9.811,-3.137 -9.696,-3.375C-9.701,-3.784 -8.77,-4.254 -8.3,-4.242C-8.246,-3.751 -7.605,-3.643 -7.448,-3.199C-7.317,-2.829 -7.453,-2.01 -7.625,-1.7C-7.671,-1.616 -7.755,-1.584 -7.771,-1.465C-7.578,-1.272 -7.66,-1.48 -7.448,-1.48C-7.49,-1.369 -7.481,-1.166 -7.478,-1.01C-7.355,-0.956 -7.233,-0.902 -7.11,-0.848C-7.32,-0.738 -8.046,-0.866 -8.109,-0.554C-8.221,-0.536 -8.197,-0.584 -8.197,-0.305C-7.833,0.133 -7.062,-0.289 -6.185,0.048C-6.101,0.08 -6.048,0.012 -6.023,0.004C-5.95,-0.021 -5.697,0.111 -5.553,0.048C-5.454,0.004 -5.392,-0.038 -5.23,-0.04C-5.188,-0.118 -5.15,-0.206 -5.068,-0.246C-5.073,-0.697 -5.366,-0.774 -5.362,-1.274C-5.325,-1.293 -5.347,-1.298 -5.244,-1.23C-5.092,-1.23 -5.266,-1.536 -5.45,-1.553C-5.465,-1.573 -5.48,-1.593 -5.494,-1.612C-5.388,-1.634 -5.364,-1.672 -5.215,-1.671C-5.196,-1.629 -5.213,-1.541 -5.186,-1.48C-5.07,-1.215 -4.767,-1.026 -4.598,-0.804C-4.243,-0.855 -4.309,-0.833 -4.216,-0.907C-4.216,-1.084 -4.182,-1.05 -4.349,-1.069C-3.94,-1.707 -3.981,-1.598 -3.981,-1.847C-3.637,-2.138 -3.217,-2.84 -3.158,-3.287C-3.022,-3.237 -2.993,-2.864 -2.879,-3.14C-2.821,-3.16 -2.84,-3.166 -2.762,-2.964C-3.055,-2.506 -3.193,-1.981 -3.144,-1.304C-3.09,-1.28 -3.09,-1.284 -3.012,-1.289C-2.974,-1.177 -2.665,-0.908 -2.527,-0.907C-2.598,-0.75 -2.475,-0.067 -2.468,0.195C-2.632,0.257 -2.754,0.346 -2.85,0.474C-2.827,0.561 -2.703,0.634 -2.63,0.665C-2.663,0.735 -2.685,0.742 -2.791,0.738C-2.859,0.895 -2.829,0.902 -2.733,1.017C-2.818,1.086 -2.836,1.075 -2.747,1.194C-2.57,1.194 -2.6,1.224 -2.6,1.076C-2.496,1.046 -2.294,1.24 -2.174,1.297C-2.041,1.36 -1.874,1.276 -1.719,1.341C-1.105,1.595 -1.404,1.52 -0.691,1.194C-0.691,1.096 -0.674,1.12 -1.014,1.12L-1.014,1.047C-1.315,0.964 -1.646,0.881 -2.013,0.885C-1.905,0.754 -1.745,0.875 -1.557,0.812C-1.278,0.718 -1.048,0.531 -0.661,0.533C-0.515,0.404 -0.544,0.463 -0.544,0.268C-0.791,0.092 -0.719,0.121 -0.867,0.121C-0.917,0.095 -0.921,0.009 -0.97,-0.026C-0.903,-0.081 -0.734,-0.095 -0.647,-0.143C-0.628,-0.31 -0.679,-0.252 -0.397,-0.393C-0.423,-0.497 -0.463,-0.586 -0.588,-0.599C-0.566,-0.705 -0.55,-0.672 -0.353,-0.672C-0.353,-0.753 -0.348,-0.758 -0.397,-0.789C-0.363,-0.815 -0.356,-0.806 -0.28,-0.804C-0.267,-0.939 -0.229,-1.024 -0.441,-1.025C-0.412,-1.162 -0.301,-1.148 -0.221,-1.142C-0.203,-1.336 -0.183,-1.304 -0.294,-1.304C-0.377,-1.775 -1.548,-2.871 -2.013,-2.934C-2.027,-2.959 -2.042,-2.983 -2.057,-3.008C-1.691,-3.008 -2.502,-3.328 -2.63,-3.404C-2.78,-3.495 -2.885,-3.795 -2.997,-3.845C-3.264,-3.963 -3.902,-3.849 -4.172,-3.845C-4.245,-3.749 -4.295,-3.689 -4.29,-3.507C-4.234,-3.433 -4.28,-3.451 -4.07,-3.434C-4.052,-3.064 -4.082,-3.156 -3.952,-3.008C-3.816,-3.031 -3.792,-3.14 -3.761,-3.14C-3.901,-2.577 -4.478,-2.424 -4.936,-2.17C-4.98,-2.171 -5.112,-2.185 -5.112,-2.229C-5.084,-2.255 -4.771,-2.466 -4.745,-2.479L-4.745,-2.552C-5.044,-2.547 -5.198,-2.487 -5.392,-2.406C-5.565,-2.333 -5.688,-2.478 -5.759,-2.508C-6.607,-2.508 -6.57,-3.267 -6.934,-3.316C-6.957,-3.445 -7.334,-3.805 -7.169,-4.095C-7.123,-4.175 -6.987,-4.184 -6.934,-4.286C-6.686,-4.28 -6.509,-4.276 -6.42,-4.344C-6.327,-4.27 -6.373,-4.257 -6.17,-4.477C-6.039,-4.468 -5.358,-4.409 -5.186,-4.477C-5.015,-4.544 -4.787,-4.924 -4.554,-4.962C-4.518,-5.183 -4.239,-5.564 -4.452,-5.652C-5.068,-5.177 -6.266,-5.357 -6.846,-5.725L-6.787,-5.784C-6.774,-5.815 -6.535,-5.628 -6.42,-5.623C-6.01,-5.605 -5.408,-5.434 -4.995,-5.623C-3.514,-6.3 -3.1,-8.168 -3.1,-7.679C-2.869,-7.679 -3.008,-8.108 -2.556,-8.105C-2.49,-8.171 -2.718,-8.283 -2.644,-8.752C-2.724,-8.737 -2.748,-8.712 -2.776,-8.649C-2.844,-8.674 -2.837,-8.677 -2.835,-8.766C-2.554,-8.787 -2.652,-8.722 -2.542,-8.855C-2.576,-8.991 -2.523,-8.941 -2.733,-8.898C-2.784,-9.001 -2.869,-9.118 -3.012,-9.134C-3.03,-9.244 -3.038,-9.207 -2.968,-9.295C-2.847,-9.266 -2.975,-9.251 -2.689,-9.251C-2.689,-9.404 -2.839,-9.246 -2.835,-9.501C-2.934,-9.57 -2.947,-9.544 -3.07,-9.516C-3.065,-9.697 -2.995,-9.724 -2.982,-9.883C-3.373,-9.988 -3.776,-9.796 -3.864,-9.883C-3.775,-10.006 -3.79,-9.971 -3.79,-10.044C-3.936,-10.014 -3.85,-9.943 -3.937,-10.03C-2.941,-10.899 -2.541,-9.736 -2.218,-9.736C-2.261,-9.876 -2.391,-9.951 -2.468,-10.059C-2.725,-10.422 -2.899,-10.853 -3.291,-11.073C-3.254,-11.202 -3.241,-11.158 -3.364,-11.264C-3.191,-11.224 -3.056,-10.927 -3.203,-11.308C-3.302,-11.348 -3.352,-11.37 -3.379,-11.278" style="fill:white;fill-rule:nonzero;"/>
            </g>
        </g>
    </g>
</svg>
