<?xml version="1.0" encoding="UTF-8" standalone="no"?>
<!DOCTYPE svg PUBLIC "-//W3C//DTD SVG 1.1//EN" "http://www.w3.org/Graphics/SVG/1.1/DTD/svg11.dtd">
<svg width="100%" height="100%" viewBox="0 0 17 18" version="1.1" xmlns="http://www.w3.org/2000/svg" xmlns:xlink="http://www.w3.org/1999/xlink" xml:space="preserve" xmlns:serif="http://www.serif.com/" style="fill-rule:evenodd;clip-rule:evenodd;stroke-linecap:round;stroke-linejoin:round;stroke-miterlimit:2;">
    <g transform="matrix(1,0,0,1,-4.30355,-4.1787)">
        <g transform="matrix(0.722056,0,0,0.722056,3.34466,0.454271)">
            <g transform="matrix(1.38493,0,0,1.38493,-4.63213,-0.629136)">
                <circle cx="12.43" cy="12.496" r="8.127" style="fill:rgb(45,95,47);"/>
            </g>
            <g transform="matrix(0.771569,0,0,0.771569,2.99769,12.1522)">
                <path d="M22.457,9.873C22.437,9.939 22.424,9.983 22.414,10.028C22.33,10.355 22.24,10.682 22.166,11.011C22,11.749 21.633,12.368 21.094,12.894C20.301,13.668 19.363,13.885 18.305,13.631C18.002,13.558 17.707,13.457 17.408,13.371C17.359,13.357 17.307,13.353 17.258,13.345C17.252,13.359 17.248,13.375 17.244,13.39C17.34,13.446 17.434,13.512 17.533,13.56C17.916,13.742 18.322,13.858 18.742,13.901C19.016,13.929 19.293,13.942 19.566,13.922C20.045,13.886 20.465,13.677 20.857,13.413C21.494,12.983 21.891,12.369 22.187,11.679C22.328,11.351 22.377,10.999 22.441,10.652C22.488,10.402 22.523,10.151 22.457,9.873M17.26,9.499C17.471,9.602 17.68,9.703 17.889,9.807C17.988,9.856 18.088,9.911 18.187,9.963C18.197,9.95 18.207,9.936 18.217,9.923C18.162,9.877 18.109,9.826 18.051,9.788C17.754,9.595 17.453,9.407 17.156,9.215C16.971,9.094 16.961,9.063 17.047,8.858C17.084,8.766 17.143,8.681 17.207,8.594C17.248,8.742 17.359,8.811 17.469,8.883C17.902,9.169 18.336,9.457 18.771,9.743C19.037,9.917 19.307,10.085 19.502,10.354C19.836,10.245 20.164,10.149 20.297,9.783C20.33,9.691 20.359,9.593 20.363,9.497C20.369,9.323 20.291,9.196 20.133,9.103C19.43,8.689 18.728,8.268 18.029,7.847C17.826,7.725 17.822,7.609 18.01,7.456C18.033,7.436 18.061,7.421 18.098,7.396C18.531,7.626 18.965,7.857 19.4,8.088L19.418,8.061C19.019,7.772 18.588,7.528 18.184,7.244C18.287,7.144 18.295,7.143 18.408,7.218C18.656,7.382 18.894,7.558 19.148,7.712C19.855,8.142 20.559,8.577 21.279,8.98C21.752,9.244 22.277,9.36 22.814,9.411C22.93,9.422 23.043,9.433 23.156,9.443C23.283,9.454 23.318,9.477 23.318,9.603C23.318,9.743 23.307,9.884 23.287,10.022C23.178,10.763 23.043,11.497 22.789,12.205C22.578,12.788 22.293,13.323 21.871,13.786C21.412,14.293 20.85,14.567 20.172,14.637C18.98,14.758 17.902,14.452 16.916,13.797C16.584,13.576 16.6,13.578 16.758,13.219C16.871,12.962 16.988,12.707 17.105,12.452C17.145,12.367 17.186,12.284 17.234,12.186C17.277,12.216 17.311,12.235 17.342,12.259C17.514,12.394 17.684,12.53 17.857,12.665C18.152,12.894 18.502,12.98 18.861,13.009C19.197,13.036 19.449,12.892 19.605,12.576C19.811,12.163 19.771,11.761 19.586,11.358C19.416,10.988 19.143,10.701 18.809,10.481C18.422,10.228 18.018,10.001 17.621,9.76C17.494,9.682 17.373,9.594 17.25,9.511L17.26,9.499ZM7.946,14.196C7.941,14.187 7.936,14.177 7.931,14.169C7.903,14.175 7.874,14.18 7.847,14.189C7.606,14.27 7.366,14.355 7.125,14.433C6.602,14.602 6.069,14.658 5.525,14.573C4.956,14.485 4.48,14.208 4.056,13.833C3.452,13.299 3.09,12.614 2.874,11.85C2.788,11.547 2.746,11.23 2.681,10.921C2.666,10.849 2.637,10.781 2.615,10.712C2.603,10.716 2.591,10.718 2.579,10.721C2.544,10.856 2.555,10.994 2.577,11.131C2.612,11.345 2.649,11.561 2.691,11.775C2.843,12.551 3.153,13.252 3.7,13.834C4.306,14.477 5.04,14.844 5.937,14.833C6.617,14.825 7.247,14.634 7.829,14.282C7.87,14.257 7.907,14.224 7.946,14.196M6.974,10.761C7.124,10.692 7.275,10.624 7.425,10.555L7.423,10.553C7.371,10.615 7.33,10.693 7.265,10.737C6.912,10.976 6.552,11.206 6.197,11.443C5.709,11.768 5.43,12.224 5.365,12.808C5.326,13.162 5.433,13.467 5.69,13.714C5.846,13.863 6.041,13.915 6.251,13.896C6.792,13.849 7.25,13.627 7.625,13.232C7.681,13.174 7.741,13.117 7.822,13.038C8.049,13.506 8.265,13.951 8.486,14.407C8.454,14.44 8.423,14.483 8.383,14.514C8.129,14.715 7.863,14.894 7.57,15.034C7.136,15.241 6.696,15.424 6.217,15.497C5.51,15.605 4.816,15.558 4.138,15.333C3.783,15.215 3.508,14.97 3.257,14.704C2.819,14.237 2.541,13.674 2.31,13.085C2.062,12.452 1.92,11.794 1.838,11.122C1.815,10.93 1.788,10.74 1.779,10.549C1.772,10.385 1.81,10.358 1.966,10.346C2.706,10.292 3.414,10.124 4.052,9.731C4.872,9.226 5.687,8.714 6.504,8.205C6.596,8.148 6.691,8.093 6.786,8.037C6.854,8.107 6.836,8.155 6.772,8.197C6.663,8.268 6.554,8.34 6.445,8.41C6.252,8.533 6.058,8.655 5.865,8.779C5.818,8.809 5.774,8.843 5.737,8.891C5.967,8.848 6.148,8.7 6.351,8.599C6.561,8.497 6.767,8.386 6.969,8.281C7.133,8.367 7.169,8.413 7.221,8.603C7.175,8.639 7.126,8.685 7.07,8.719C6.376,9.141 5.681,9.561 4.987,9.982C4.938,10.011 4.888,10.04 4.842,10.074C4.719,10.168 4.67,10.284 4.715,10.443C4.807,10.765 4.966,11.024 5.304,11.136C5.397,11.167 5.484,11.216 5.586,11.261C5.616,11.226 5.653,11.196 5.673,11.156C5.738,11.024 5.847,10.94 5.966,10.861C6.457,10.538 6.947,10.213 7.436,9.885C7.518,9.831 7.599,9.772 7.672,9.706C7.738,9.646 7.791,9.573 7.86,9.494C7.909,9.569 7.972,9.657 8.023,9.751C8.097,9.885 8.083,9.953 7.954,10.043C7.72,10.208 7.48,10.364 7.243,10.525C7.17,10.575 7.097,10.625 7.029,10.68C7.004,10.7 6.994,10.737 6.977,10.765C6.972,10.765 6.968,10.764 6.964,10.763C6.967,10.762 6.971,10.762 6.974,10.761M11.01,14.173C11.14,14.28 11.256,14.387 11.382,14.478C11.508,14.569 11.645,14.643 11.794,14.735C11.755,14.799 11.712,14.868 11.671,14.938C11.498,15.228 11.305,15.508 11.156,15.81C10.781,16.573 10.273,17.219 9.574,17.709C9.157,18 8.794,18.35 8.456,18.727C8.022,19.212 7.585,19.694 7.15,20.178C7.125,20.205 7.1,20.232 7.073,20.256C6.913,20.403 6.791,20.431 6.608,20.319C6.382,20.181 6.16,20.032 5.953,19.868C5.719,19.682 5.711,19.429 5.91,19.198C6.471,18.548 7.111,17.983 7.82,17.5C8.314,17.164 8.752,16.767 9.178,16.354C9.486,16.056 9.789,15.755 10.028,15.398C10.109,15.277 10.183,15.152 10.259,15.027C10.333,14.904 10.423,14.802 10.553,14.735C10.701,14.657 10.801,14.53 10.883,14.388C10.931,14.302 10.983,14.219 11.01,14.173M13.311,15.577C13.571,15.409 13.881,15.317 13.981,14.998C14.094,14.973 14.155,15.024 14.186,15.11C14.268,15.325 14.42,15.475 14.616,15.588C14.752,15.668 14.87,15.774 14.94,15.917C15.129,16.296 15.407,16.607 15.698,16.904C16.034,17.246 16.379,17.577 16.733,17.899C16.891,18.043 17.073,18.16 17.249,18.28C17.905,18.726 18.51,19.234 19.077,19.789C19.168,19.879 19.252,19.981 19.319,20.092C19.448,20.309 19.397,20.541 19.19,20.682C18.989,20.821 18.78,20.947 18.569,21.069C18.391,21.172 18.215,21.156 18.069,21.008C17.823,20.762 17.577,20.514 17.338,20.26C17.034,19.932 16.739,19.596 16.44,19.263C16.194,18.991 15.922,18.75 15.622,18.542C14.983,18.099 14.459,17.55 14.079,16.869C14.02,16.765 13.977,16.652 13.916,16.549C13.782,16.316 13.639,16.087 13.497,15.857C13.44,15.765 13.377,15.678 13.311,15.577M15.193,8.494C15.486,8.561 15.963,8.922 16.173,9.234C16.127,9.309 16.078,9.394 16.021,9.473C15.672,9.96 15.314,10.439 14.972,10.931C14.818,11.152 14.683,11.389 14.556,11.627C14.197,12.3 13.718,12.882 13.193,13.426C12.959,13.668 12.692,13.879 12.443,14.108C12.325,14.217 12.213,14.333 12.099,14.448C11.933,14.615 11.86,14.631 11.642,14.535C11.472,14.461 11.319,14.368 11.238,14.187C11.174,14.047 11.181,13.923 11.277,13.794C11.516,13.473 11.751,13.147 11.982,12.82C12.05,12.723 12.103,12.614 12.159,12.509C12.263,12.314 12.408,12.163 12.612,12.074C12.845,11.972 13.021,11.806 13.141,11.585C13.295,11.304 13.494,11.062 13.714,10.83C13.884,10.649 14.039,10.448 14.17,10.236C14.476,9.734 14.761,9.221 15.058,8.713C15.101,8.637 15.15,8.564 15.193,8.494M8.875,10.084C9.184,9.797 9.457,9.511 9.848,9.336C9.899,9.403 9.958,9.467 10.001,9.54C10.312,10.063 10.623,10.587 10.925,11.114C11.075,11.376 11.291,11.579 11.485,11.803C11.631,11.971 11.756,12.156 11.892,12.334C11.948,12.409 11.948,12.482 11.908,12.566C11.745,12.901 11.537,13.203 11.255,13.469C11.226,13.452 11.189,13.442 11.169,13.418C11.092,13.327 11.013,13.237 10.948,13.138C10.551,12.522 10.167,11.896 9.76,11.286C9.538,10.954 9.277,10.647 9.036,10.328C8.98,10.254 8.934,10.174 8.875,10.084M18.082,5.617C17.988,5.599 17.893,5.588 17.801,5.562C17.713,5.538 17.629,5.516 17.541,5.555C17.736,5.69 17.922,5.822 18.111,5.947C18.141,5.967 18.195,5.976 18.225,5.963C18.301,5.928 18.371,5.877 18.441,5.833C18.252,5.488 17.836,5.169 17.572,5.273C17.742,5.388 17.912,5.504 18.082,5.62L18.082,5.617ZM18.061,6.699C17.58,6.558 17.158,6.316 16.818,5.938C16.773,5.888 16.768,5.839 16.805,5.783C16.971,5.526 17.137,5.269 17.309,5.014C17.324,4.991 17.369,4.972 17.4,4.974C17.461,4.978 17.523,4.99 17.582,5.011C17.82,5.099 18.057,5.194 18.295,5.282C18.437,5.335 18.529,5.426 18.559,5.581C18.57,5.646 18.598,5.712 18.633,5.768C18.689,5.858 18.691,5.941 18.631,6.026C18.572,6.106 18.518,6.189 18.453,6.263C18.332,6.405 18.203,6.542 18.061,6.699M6.604,6.704C6.747,6.859 6.891,6.92 7.055,6.759C7.117,6.698 7.197,6.654 7.268,6.602C7.341,6.55 7.414,6.496 7.505,6.429C7.269,6.378 7.113,6.513 6.916,6.583C7.046,6.318 7.327,6.288 7.506,6.128C7.101,6.158 6.8,6.345 6.604,6.704M7.713,5.856C7.881,6.114 8.045,6.36 8.201,6.612C8.276,6.732 8.263,6.782 8.164,6.889C8.002,7.06 7.823,7.207 7.605,7.307C7.417,7.394 7.236,7.498 7.038,7.601C6.988,7.558 6.929,7.516 6.882,7.463C6.73,7.292 6.582,7.118 6.435,6.943C6.37,6.866 6.352,6.781 6.402,6.684C6.431,6.63 6.453,6.569 6.467,6.51C6.508,6.338 6.615,6.231 6.777,6.172C7.025,6.081 7.272,5.987 7.521,5.897C7.573,5.879 7.631,5.873 7.713,5.856M13.129,13.781C13.16,13.805 13.184,13.818 13.199,13.839C13.414,14.112 13.631,14.385 13.842,14.662C13.9,14.738 13.926,14.827 13.887,14.926C13.789,15.178 13.621,15.354 13.352,15.425C13.246,15.452 13.16,15.433 13.08,15.358C12.843,15.134 12.6,14.914 12.361,14.691C12.255,14.592 12.253,14.567 12.348,14.461C12.576,14.204 12.825,13.969 13.129,13.781M18.047,8.268C18.006,8.208 17.93,8.204 17.85,8.24C17.772,8.275 17.729,8.388 17.748,8.497C17.764,8.579 17.801,8.641 17.897,8.632C17.945,8.514 17.992,8.402 18.047,8.268M19.92,9.217L19.582,9.217C19.586,9.188 19.592,9.157 19.596,9.126C19.52,9.077 19.297,9.17 19.236,9.291C19.176,9.416 19.137,9.551 19.078,9.705C18.506,9.423 17.985,9.063 17.475,8.669C17.533,8.392 17.746,8.225 17.895,7.998C18.305,8.189 18.678,8.422 19.026,8.705C18.863,8.74 18.713,8.759 18.598,8.6C18.541,8.525 18.459,8.469 18.387,8.405C18.373,8.414 18.361,8.422 18.348,8.431C18.371,8.525 18.395,8.618 18.418,8.711C18.299,8.803 18.129,8.712 18.022,8.866C18.076,8.885 18.123,8.912 18.172,8.916C18.256,8.925 18.34,8.925 18.422,8.918C18.52,8.911 18.58,8.954 18.621,9.037C18.668,9.129 18.713,9.223 18.76,9.316C18.805,9.405 18.867,9.477 18.975,9.529C19.031,9.313 18.844,9.163 18.856,8.952C19.037,8.935 19.217,8.919 19.395,8.904C19.404,8.903 19.418,8.905 19.426,8.91C19.59,9.013 19.752,9.118 19.916,9.222L19.92,9.217ZM7.05,9.162C7.084,9.279 7.117,9.394 7.151,9.51C7.304,9.454 7.351,9.345 7.282,9.199C7.235,9.097 7.18,9.089 7.05,9.162M6.024,10.569C5.952,10.43 5.888,10.293 5.813,10.164C5.733,10.025 5.586,9.999 5.427,9.97C5.549,9.849 5.657,9.763 5.832,9.807C5.946,9.835 6.069,9.831 6.19,9.841C6.265,10.057 6.038,10.199 6.074,10.394C6.16,10.432 6.192,10.372 6.223,10.319C6.285,10.212 6.354,10.105 6.403,9.992C6.463,9.855 6.565,9.813 6.701,9.818C6.758,9.82 6.817,9.825 6.872,9.816C6.935,9.806 6.995,9.78 7.06,9.76C6.972,9.578 6.781,9.689 6.671,9.577C6.694,9.49 6.717,9.401 6.744,9.295C6.706,9.3 6.667,9.293 6.645,9.309C6.592,9.349 6.529,9.391 6.501,9.447C6.409,9.631 6.261,9.633 6.059,9.593C6.393,9.27 6.774,9.071 7.174,8.882C7.321,9.093 7.46,9.293 7.596,9.488C7.452,9.704 6.289,10.504 6.024,10.569M15.393,5.994C15.477,6.015 15.545,6.033 15.653,6.059C15.549,5.909 15.463,5.785 15.377,5.661C15.385,5.653 15.393,5.645 15.401,5.637C15.616,5.723 15.717,5.948 15.907,6.05C15.913,6.171 15.858,6.246 15.791,6.313C15.643,6.468 15.506,6.627 15.45,6.844C15.432,6.911 15.381,6.971 15.34,7.03C15.196,7.246 15.047,7.461 14.901,7.676C14.877,7.71 14.854,7.743 14.827,7.775C14.766,7.849 14.694,7.871 14.608,7.815C14.497,7.741 14.385,7.666 14.27,7.59C14.289,7.538 14.303,7.5 14.315,7.469C14.325,7.46 14.329,7.453 14.332,7.453C14.555,7.482 14.59,7.278 14.672,7.155C14.905,6.805 15.116,6.439 15.334,6.08C15.35,6.054 15.37,6.029 15.393,5.994M9.11,6.967C9.288,6.815 9.456,6.67 9.623,6.527C9.622,6.715 9.438,6.793 9.392,6.979C9.481,6.949 9.551,6.926 9.645,6.895C9.683,6.944 9.731,6.995 9.769,7.054C10.003,7.409 10.233,7.768 10.468,8.123C10.519,8.199 10.585,8.266 10.644,8.337C10.677,8.314 10.696,8.299 10.726,8.278C10.757,8.332 10.787,8.384 10.823,8.449C10.666,8.554 10.516,8.653 10.355,8.759C10.306,8.706 10.258,8.666 10.224,8.617C10.059,8.384 9.899,8.148 9.737,7.911C9.716,7.882 9.692,7.853 9.679,7.82C9.559,7.521 9.359,7.277 9.152,7.036C9.138,7.022 9.131,7.002 9.11,6.967M16.682,9.267C16.543,9.267 16.496,9.236 16.473,9.139C16.469,9.114 16.467,9.087 16.469,9.061C16.498,8.559 16.393,8.066 16.368,7.567C16.356,7.375 16.362,7.183 16.35,6.991C16.334,6.7 16.311,6.41 16.289,6.119C16.286,6.078 16.28,6.036 16.282,5.995C16.284,5.935 16.262,5.854 16.352,5.848C16.434,5.841 16.491,5.893 16.506,5.974C16.52,6.05 16.526,6.129 16.528,6.206C16.532,6.597 16.534,6.988 16.536,7.378C16.536,7.574 16.561,7.761 16.647,7.94C16.672,7.995 16.688,8.059 16.69,8.12C16.696,8.474 16.694,8.829 16.694,9.182C16.694,9.207 16.688,9.232 16.682,9.267M8.753,6.731C8.757,6.789 8.772,6.84 8.763,6.887C8.683,7.321 8.701,7.757 8.701,8.194C8.701,8.496 8.676,8.794 8.636,9.094C8.598,9.377 8.608,9.665 8.596,9.95C8.589,10.099 8.558,10.131 8.396,10.154C8.39,10.137 8.378,10.119 8.378,10.1C8.385,9.71 8.386,9.321 8.404,8.932C8.41,8.799 8.456,8.668 8.486,8.537C8.546,8.275 8.527,8.01 8.518,7.745C8.51,7.511 8.51,7.278 8.51,7.043C8.51,6.987 8.523,6.929 8.538,6.875C8.564,6.78 8.62,6.72 8.753,6.731M8.144,9.51C7.796,9.098 7.475,8.695 7.231,8.183C7.408,8.21 7.551,8.221 7.688,8.256C7.853,8.299 8.013,8.364 8.175,8.418C8.262,8.448 8.311,8.517 8.28,8.599C8.175,8.872 8.184,9.157 8.174,9.443C8.174,9.456 8.162,9.47 8.144,9.51M16.861,8.673C16.898,8.307 16.863,7.979 16.744,7.64C17.052,7.44 17.384,7.342 17.752,7.339C17.722,7.594 17.185,8.4 16.861,8.673M15.363,8.307C15.613,8.118 15.851,7.968 16.142,7.873C16.316,8.218 16.283,8.577 16.269,8.969C15.916,8.798 15.675,8.525 15.363,8.307M8.886,9.818C8.805,9.734 8.789,9.643 8.792,9.55C8.796,9.405 8.802,9.26 8.82,9.117C8.835,8.996 8.87,8.879 8.894,8.77C9.104,8.733 9.338,8.927 9.703,9.172C9.429,9.389 9.159,9.602 8.886,9.818M8.955,7.143C9.12,7.245 9.239,7.372 9.33,7.522C9.454,7.725 9.569,7.934 9.686,8.141C9.713,8.19 9.733,8.243 9.772,8.33C9.661,8.291 9.581,8.263 9.5,8.236C9.339,8.179 9.176,8.126 9.017,8.065C8.975,8.048 8.92,8.006 8.913,7.968C8.862,7.696 8.878,7.425 8.955,7.143M16.084,6.296C16.111,6.408 16.148,6.5 16.154,6.595C16.164,6.749 16.16,6.906 16.148,7.061C16.145,7.104 16.109,7.165 16.072,7.18C15.828,7.277 15.578,7.364 15.33,7.453C15.322,7.456 15.311,7.448 15.301,7.444C15.367,7.177 15.855,6.442 16.084,6.296M16.133,7.407C16.143,7.479 16.153,7.544 16.164,7.628C16.008,7.717 15.854,7.811 15.694,7.893C15.498,7.991 15.299,8.078 15.102,8.169C15.028,8.203 14.951,8.225 14.893,8.143C14.852,8.088 14.877,7.984 14.947,7.92C14.973,7.894 15.004,7.875 15.035,7.856C15.229,7.744 15.42,7.631 15.613,7.52C15.772,7.43 15.942,7.396 16.133,7.407M8.93,8.295C9.119,8.271 9.29,8.304 9.448,8.395C9.637,8.504 9.823,8.617 10.009,8.732C10.058,8.761 10.11,8.793 10.143,8.836C10.171,8.873 10.196,8.937 10.182,8.973C10.167,9.011 10.107,9.045 10.061,9.053C10.014,9.062 9.956,9.049 9.911,9.027C9.682,8.918 9.454,8.804 9.227,8.69C9.158,8.655 9.09,8.616 9.022,8.577C8.896,8.504 8.883,8.465 8.93,8.295M16.775,6.222C17.043,6.379 17.295,6.529 17.568,6.691C17.318,6.848 17.037,6.848 16.767,6.939C16.697,6.689 16.695,6.459 16.775,6.222M7.514,7.578C7.763,7.41 8.011,7.242 8.276,7.063C8.358,7.314 8.302,7.545 8.267,7.802C8.01,7.739 7.763,7.68 7.516,7.619C7.515,7.605 7.514,7.592 7.514,7.578M8.305,8.234C7.892,8.148 7.494,8.066 7.097,7.98C7.065,7.973 7.039,7.943 7.013,7.925C7.051,7.783 7.082,7.753 7.202,7.773C7.508,7.828 7.813,7.889 8.118,7.949C8.262,7.977 8.305,8.079 8.305,8.234M16.734,7.373C16.72,7.191 16.795,7.093 16.982,7.049C17.166,7.006 17.349,6.976 17.533,6.941C17.621,6.925 17.707,6.912 17.795,6.901C17.83,6.896 17.873,6.889 17.9,6.903C17.941,6.925 17.972,6.965 18.007,6.998C17.974,7.024 17.945,7.064 17.908,7.075C17.627,7.151 17.345,7.222 17.064,7.293C16.955,7.32 16.845,7.347 16.734,7.373M5.399,10.027C5.374,10.051 5.353,10.085 5.322,10.099C5.067,10.215 5.033,10.503 5.263,10.663C5.332,10.711 5.423,10.729 5.507,10.753C5.555,10.765 5.608,10.762 5.659,10.767C5.629,10.989 5.534,11.042 5.344,10.972C5.049,10.865 4.903,10.663 4.899,10.347C4.898,10.243 4.935,10.176 5.024,10.137C5.137,10.087 5.253,10.042 5.368,9.995L5.399,10.027ZM19.916,9.222C19.996,9.254 20.078,9.287 20.15,9.317C20.217,9.688 20.092,9.954 19.805,10.086C19.588,10.184 19.51,10.151 19.41,9.905C19.467,9.894 19.521,9.882 19.576,9.872C19.895,9.813 19.998,9.656 19.93,9.337C19.922,9.298 19.924,9.257 19.92,9.217L19.916,9.222ZM7.69,10.443C7.798,10.296 7.959,10.245 8.127,10.21C8.002,10.326 7.873,10.434 7.688,10.44L7.69,10.443ZM17.15,9.477C17.08,9.445 17.007,9.413 16.937,9.379C16.943,9.367 16.949,9.355 16.955,9.343C17.052,9.316 17.113,9.371 17.168,9.44L17.15,9.477ZM7.425,10.556L7.603,10.516L7.425,10.556ZM7.688,10.44L7.587,10.499L7.688,10.44ZM17.25,9.511C17.242,9.505 17.236,9.499 17.229,9.493C17.24,9.495 17.25,9.497 17.26,9.499L17.25,9.511ZM18.082,5.62L18.074,5.624L18.082,5.617L18.082,5.62Z" style="fill:none;stroke:rgb(45,95,47);stroke-width:0.75px;"/>
            </g>
            <g transform="matrix(0.771269,0,0,0.771269,20.3186,21.4306)">
                <path d="M0,-2.155C-0.02,-2.089 -0.033,-2.045 -0.043,-2C-0.127,-1.673 -0.217,-1.346 -0.291,-1.017C-0.457,-0.279 -0.824,0.34 -1.363,0.866C-2.156,1.64 -3.094,1.857 -4.152,1.603C-4.455,1.53 -4.75,1.429 -5.049,1.343C-5.098,1.329 -5.15,1.325 -5.199,1.317C-5.205,1.331 -5.209,1.347 -5.213,1.362C-5.117,1.418 -5.023,1.484 -4.924,1.532C-4.541,1.714 -4.135,1.83 -3.715,1.873C-3.441,1.901 -3.164,1.914 -2.891,1.894C-2.412,1.858 -1.992,1.649 -1.6,1.385C-0.963,0.955 -0.566,0.341 -0.27,-0.349C-0.129,-0.677 -0.08,-1.029 -0.016,-1.376C0.031,-1.626 0.066,-1.877 0,-2.155M-5.197,-2.529C-4.986,-2.426 -4.777,-2.325 -4.568,-2.221C-4.469,-2.172 -4.369,-2.117 -4.27,-2.065C-4.26,-2.078 -4.25,-2.092 -4.24,-2.105C-4.295,-2.151 -4.348,-2.202 -4.406,-2.24C-4.703,-2.433 -5.004,-2.621 -5.301,-2.813C-5.486,-2.934 -5.496,-2.965 -5.41,-3.17C-5.373,-3.262 -5.314,-3.347 -5.25,-3.434C-5.209,-3.286 -5.098,-3.217 -4.988,-3.145C-4.555,-2.859 -4.121,-2.571 -3.686,-2.285C-3.42,-2.111 -3.15,-1.943 -2.955,-1.674C-2.621,-1.783 -2.293,-1.879 -2.16,-2.245C-2.127,-2.337 -2.098,-2.435 -2.094,-2.531C-2.088,-2.705 -2.166,-2.832 -2.324,-2.925C-3.027,-3.339 -3.729,-3.76 -4.428,-4.181C-4.631,-4.303 -4.635,-4.419 -4.447,-4.572C-4.424,-4.592 -4.396,-4.607 -4.359,-4.632C-3.926,-4.402 -3.492,-4.171 -3.057,-3.94L-3.039,-3.967C-3.438,-4.256 -3.869,-4.5 -4.273,-4.784C-4.17,-4.884 -4.162,-4.885 -4.049,-4.81C-3.801,-4.646 -3.563,-4.47 -3.309,-4.316C-2.602,-3.886 -1.898,-3.451 -1.178,-3.048C-0.705,-2.784 -0.18,-2.668 0.357,-2.617C0.473,-2.606 0.586,-2.595 0.699,-2.585C0.826,-2.574 0.861,-2.551 0.861,-2.425C0.861,-2.285 0.85,-2.144 0.83,-2.006C0.721,-1.265 0.586,-0.531 0.332,0.177C0.121,0.76 -0.164,1.295 -0.586,1.758C-1.045,2.265 -1.607,2.539 -2.285,2.609C-3.477,2.73 -4.555,2.424 -5.541,1.769C-5.873,1.548 -5.857,1.55 -5.699,1.191C-5.586,0.934 -5.469,0.679 -5.352,0.424C-5.312,0.339 -5.271,0.256 -5.223,0.158C-5.18,0.188 -5.146,0.207 -5.115,0.231C-4.943,0.366 -4.773,0.502 -4.6,0.637C-4.305,0.866 -3.955,0.952 -3.596,0.981C-3.26,1.008 -3.008,0.864 -2.852,0.548C-2.646,0.135 -2.686,-0.267 -2.871,-0.67C-3.041,-1.04 -3.314,-1.327 -3.648,-1.547C-4.035,-1.8 -4.439,-2.027 -4.836,-2.268C-4.963,-2.346 -5.084,-2.434 -5.207,-2.517L-5.197,-2.529Z" style="fill:white;"/>
            </g>
            <g transform="matrix(0.771269,0,0,0.771269,9.12696,19.4394)">
                <path d="M0,4.75C-0.005,4.741 -0.01,4.731 -0.015,4.723C-0.043,4.729 -0.072,4.734 -0.099,4.743C-0.34,4.824 -0.58,4.909 -0.821,4.987C-1.344,5.156 -1.877,5.212 -2.421,5.127C-2.99,5.039 -3.466,4.762 -3.89,4.387C-4.494,3.853 -4.856,3.168 -5.072,2.404C-5.158,2.101 -5.2,1.784 -5.265,1.475C-5.28,1.403 -5.309,1.335 -5.331,1.266C-5.343,1.27 -5.355,1.272 -5.367,1.275C-5.402,1.41 -5.391,1.548 -5.369,1.685C-5.334,1.899 -5.297,2.115 -5.255,2.329C-5.103,3.105 -4.793,3.806 -4.246,4.388C-3.64,5.031 -2.906,5.398 -2.009,5.387C-1.329,5.379 -0.699,5.188 -0.117,4.836C-0.076,4.811 -0.039,4.778 0,4.75M-0.972,1.315C-0.822,1.246 -0.671,1.178 -0.521,1.109L-0.523,1.107C-0.575,1.169 -0.616,1.247 -0.681,1.291C-1.034,1.53 -1.394,1.76 -1.749,1.997C-2.237,2.322 -2.516,2.778 -2.581,3.362C-2.62,3.716 -2.513,4.021 -2.256,4.268C-2.1,4.417 -1.905,4.469 -1.695,4.45C-1.154,4.403 -0.696,4.181 -0.321,3.786C-0.265,3.728 -0.205,3.671 -0.124,3.592C0.103,4.06 0.319,4.505 0.54,4.961C0.508,4.994 0.477,5.037 0.437,5.068C0.183,5.269 -0.083,5.448 -0.376,5.588C-0.81,5.795 -1.25,5.978 -1.729,6.051C-2.436,6.159 -3.13,6.112 -3.808,5.887C-4.163,5.769 -4.438,5.524 -4.689,5.258C-5.127,4.791 -5.405,4.228 -5.636,3.639C-5.884,3.006 -6.026,2.348 -6.108,1.676C-6.131,1.484 -6.158,1.294 -6.167,1.103C-6.174,0.939 -6.136,0.912 -5.98,0.9C-5.24,0.846 -4.532,0.678 -3.894,0.285C-3.074,-0.22 -2.259,-0.732 -1.442,-1.241C-1.35,-1.298 -1.255,-1.353 -1.16,-1.409C-1.092,-1.339 -1.11,-1.291 -1.174,-1.249C-1.283,-1.178 -1.392,-1.106 -1.501,-1.036C-1.694,-0.913 -1.888,-0.791 -2.081,-0.667C-2.128,-0.637 -2.172,-0.603 -2.209,-0.555C-1.979,-0.598 -1.798,-0.746 -1.595,-0.847C-1.385,-0.949 -1.179,-1.06 -0.977,-1.165C-0.813,-1.079 -0.777,-1.033 -0.725,-0.843C-0.771,-0.807 -0.82,-0.761 -0.876,-0.727C-1.57,-0.305 -2.265,0.115 -2.959,0.536C-3.008,0.565 -3.058,0.594 -3.104,0.628C-3.227,0.722 -3.276,0.838 -3.231,0.997C-3.139,1.319 -2.98,1.578 -2.642,1.69C-2.549,1.721 -2.462,1.77 -2.36,1.815C-2.33,1.78 -2.293,1.75 -2.273,1.71C-2.208,1.578 -2.099,1.494 -1.98,1.415C-1.489,1.092 -0.999,0.767 -0.51,0.439C-0.428,0.385 -0.347,0.326 -0.274,0.26C-0.208,0.2 -0.155,0.127 -0.086,0.048C-0.037,0.123 0.026,0.211 0.077,0.305C0.151,0.439 0.137,0.507 0.008,0.597C-0.226,0.762 -0.466,0.918 -0.703,1.079C-0.776,1.129 -0.849,1.179 -0.917,1.234C-0.942,1.254 -0.952,1.291 -0.969,1.319C-0.974,1.319 -0.978,1.318 -0.982,1.317C-0.979,1.316 -0.975,1.316 -0.972,1.315" style="fill:white;"/>
            </g>
            <g transform="matrix(0.771269,0,0,0.771269,11.4901,27.9115)">
                <path d="M0,-6.258C0.13,-6.151 0.246,-6.044 0.372,-5.953C0.498,-5.862 0.635,-5.788 0.784,-5.696C0.745,-5.632 0.702,-5.563 0.661,-5.493C0.488,-5.203 0.295,-4.923 0.146,-4.621C-0.229,-3.858 -0.737,-3.212 -1.436,-2.722C-1.853,-2.431 -2.216,-2.081 -2.554,-1.704C-2.988,-1.219 -3.425,-0.737 -3.86,-0.253C-3.885,-0.226 -3.91,-0.199 -3.937,-0.175C-4.097,-0.028 -4.219,0 -4.402,-0.112C-4.628,-0.25 -4.85,-0.399 -5.057,-0.563C-5.291,-0.749 -5.299,-1.002 -5.1,-1.233C-4.539,-1.883 -3.899,-2.448 -3.19,-2.931C-2.696,-3.267 -2.258,-3.664 -1.832,-4.077C-1.524,-4.375 -1.221,-4.676 -0.982,-5.033C-0.901,-5.154 -0.827,-5.279 -0.751,-5.404C-0.677,-5.527 -0.587,-5.629 -0.457,-5.696C-0.309,-5.774 -0.209,-5.901 -0.127,-6.043C-0.079,-6.129 -0.027,-6.212 0,-6.258" style="fill:white;"/>
            </g>
            <g transform="matrix(0.771269,0,0,0.771269,13.2642,28.0173)">
                <path d="M0,-4.991C0.26,-5.159 0.57,-5.251 0.67,-5.57C0.783,-5.595 0.844,-5.544 0.875,-5.458C0.957,-5.243 1.109,-5.093 1.305,-4.98C1.441,-4.9 1.559,-4.794 1.629,-4.651C1.818,-4.272 2.096,-3.961 2.387,-3.664C2.723,-3.322 3.068,-2.991 3.422,-2.669C3.58,-2.525 3.762,-2.408 3.938,-2.288C4.594,-1.842 5.199,-1.334 5.766,-0.779C5.857,-0.689 5.941,-0.587 6.008,-0.476C6.137,-0.259 6.086,-0.027 5.879,0.114C5.678,0.253 5.469,0.379 5.258,0.501C5.08,0.604 4.904,0.588 4.758,0.44C4.512,0.194 4.266,-0.054 4.027,-0.308C3.723,-0.636 3.428,-0.972 3.129,-1.305C2.883,-1.577 2.611,-1.818 2.311,-2.026C1.672,-2.469 1.148,-3.018 0.768,-3.699C0.709,-3.803 0.666,-3.916 0.605,-4.019C0.471,-4.252 0.328,-4.481 0.186,-4.711C0.129,-4.803 0.066,-4.89 0,-4.991" style="fill:white;"/>
            </g>
            <g transform="matrix(0.771269,0,0,0.771269,14.7164,23.4382)">
                <path d="M0,-6.137C0.293,-6.07 0.77,-5.709 0.98,-5.397C0.934,-5.322 0.885,-5.237 0.828,-5.158C0.479,-4.671 0.121,-4.192 -0.221,-3.7C-0.375,-3.479 -0.51,-3.242 -0.637,-3.004C-0.996,-2.331 -1.475,-1.749 -2,-1.205C-2.234,-0.963 -2.501,-0.752 -2.75,-0.523C-2.868,-0.414 -2.98,-0.298 -3.094,-0.183C-3.26,-0.016 -3.333,0 -3.551,-0.096C-3.721,-0.17 -3.874,-0.263 -3.955,-0.444C-4.019,-0.584 -4.012,-0.708 -3.916,-0.837C-3.677,-1.158 -3.442,-1.484 -3.211,-1.811C-3.143,-1.908 -3.09,-2.017 -3.034,-2.122C-2.93,-2.317 -2.785,-2.468 -2.581,-2.557C-2.348,-2.659 -2.172,-2.825 -2.052,-3.046C-1.898,-3.327 -1.699,-3.569 -1.479,-3.801C-1.309,-3.982 -1.154,-4.183 -1.023,-4.395C-0.717,-4.897 -0.432,-5.41 -0.135,-5.918C-0.092,-5.994 -0.043,-6.067 0,-6.137" style="fill:white;"/>
            </g>
            <g transform="matrix(0.771269,0,0,0.771269,9.84324,21.965)">
                <path d="M0,-2.637C0.309,-2.924 0.582,-3.21 0.973,-3.385C1.024,-3.318 1.083,-3.254 1.126,-3.181C1.437,-2.658 1.748,-2.134 2.05,-1.607C2.2,-1.345 2.416,-1.142 2.61,-0.918C2.756,-0.75 2.881,-0.565 3.017,-0.387C3.073,-0.312 3.073,-0.239 3.033,-0.155C2.87,0.18 2.662,0.482 2.38,0.748C2.351,0.731 2.314,0.721 2.294,0.697C2.217,0.606 2.138,0.516 2.073,0.417C1.676,-0.199 1.292,-0.825 0.885,-1.435C0.663,-1.767 0.402,-2.074 0.161,-2.393C0.105,-2.467 0.059,-2.547 0,-2.637" style="fill:white;"/>
            </g>
            <g transform="matrix(0.771269,0,0,0.771269,16.9443,16.8231)">
                <path d="M0,-0.437C-0.094,-0.455 -0.189,-0.466 -0.281,-0.492C-0.369,-0.516 -0.453,-0.538 -0.541,-0.499C-0.346,-0.364 -0.16,-0.232 0.029,-0.107C0.059,-0.087 0.113,-0.078 0.143,-0.091C0.219,-0.126 0.289,-0.177 0.359,-0.221C0.17,-0.566 -0.246,-0.885 -0.51,-0.781C-0.34,-0.666 -0.17,-0.55 0,-0.434L0,-0.437ZM-0.021,0.645C-0.502,0.504 -0.924,0.262 -1.264,-0.116C-1.309,-0.166 -1.314,-0.215 -1.277,-0.271C-1.111,-0.528 -0.945,-0.785 -0.773,-1.04C-0.758,-1.063 -0.713,-1.082 -0.682,-1.08C-0.621,-1.076 -0.559,-1.064 -0.5,-1.043C-0.262,-0.955 -0.025,-0.86 0.213,-0.772C0.355,-0.719 0.447,-0.628 0.477,-0.473C0.488,-0.408 0.516,-0.342 0.551,-0.286C0.607,-0.196 0.609,-0.113 0.549,-0.028C0.49,0.052 0.436,0.135 0.371,0.209C0.25,0.351 0.121,0.488 -0.021,0.645" style="fill:white;"/>
            </g>
            <g transform="matrix(0.771269,0,0,0.771269,8.09168,17.3622)">
                <path d="M0,-0.049C0.143,0.106 0.287,0.167 0.451,0.006C0.513,-0.055 0.593,-0.099 0.664,-0.151C0.737,-0.203 0.81,-0.257 0.901,-0.324C0.665,-0.375 0.509,-0.24 0.312,-0.17C0.442,-0.435 0.723,-0.465 0.902,-0.625C0.497,-0.595 0.196,-0.408 0,-0.049M1.109,-0.897C1.277,-0.639 1.441,-0.393 1.597,-0.141C1.672,-0.021 1.659,0.029 1.56,0.136C1.398,0.307 1.219,0.454 1.001,0.554C0.813,0.641 0.632,0.745 0.434,0.848C0.384,0.805 0.325,0.763 0.278,0.71C0.126,0.539 -0.022,0.365 -0.169,0.19C-0.234,0.113 -0.252,0.028 -0.202,-0.069C-0.173,-0.123 -0.151,-0.184 -0.137,-0.243C-0.096,-0.415 0.011,-0.522 0.173,-0.581C0.421,-0.672 0.668,-0.766 0.917,-0.856C0.969,-0.874 1.027,-0.88 1.109,-0.897" style="fill:white;"/>
            </g>
            <g transform="matrix(0.771269,0,0,0.771269,13.1241,24.0716)">
                <path d="M0,-1.671C0.031,-1.647 0.055,-1.634 0.07,-1.613C0.285,-1.34 0.502,-1.067 0.713,-0.79C0.771,-0.714 0.797,-0.625 0.758,-0.526C0.66,-0.274 0.492,-0.098 0.223,-0.027C0.117,0 0.031,-0.019 -0.049,-0.094C-0.286,-0.318 -0.529,-0.538 -0.768,-0.761C-0.874,-0.86 -0.876,-0.885 -0.781,-0.991C-0.553,-1.248 -0.304,-1.483 0,-1.671" style="fill:white;"/>
            </g>
            <g transform="matrix(0.771269,0,0,0.771269,16.9172,19.4303)">
                <path d="M0,-1.167C-0.041,-1.227 -0.117,-1.231 -0.197,-1.195C-0.275,-1.16 -0.318,-1.047 -0.299,-0.938C-0.283,-0.856 -0.246,-0.794 -0.15,-0.803C-0.102,-0.921 -0.055,-1.033 0,-1.167M1.873,-0.218L1.535,-0.218C1.539,-0.247 1.545,-0.278 1.549,-0.309C1.473,-0.358 1.25,-0.265 1.189,-0.144C1.129,-0.019 1.09,0.116 1.031,0.27C0.459,-0.012 -0.062,-0.372 -0.572,-0.766C-0.514,-1.043 -0.301,-1.21 -0.152,-1.437C0.258,-1.246 0.631,-1.013 0.979,-0.73C0.816,-0.695 0.666,-0.676 0.551,-0.835C0.494,-0.91 0.412,-0.966 0.34,-1.03C0.326,-1.021 0.314,-1.013 0.301,-1.004C0.324,-0.91 0.348,-0.817 0.371,-0.724C0.252,-0.632 0.082,-0.723 -0.025,-0.569C0.029,-0.55 0.076,-0.523 0.125,-0.519C0.209,-0.51 0.293,-0.51 0.375,-0.517C0.473,-0.524 0.533,-0.481 0.574,-0.398C0.621,-0.306 0.666,-0.212 0.713,-0.119C0.758,-0.03 0.82,0.042 0.928,0.094C0.984,-0.122 0.797,-0.272 0.809,-0.483C0.99,-0.5 1.17,-0.516 1.348,-0.531C1.357,-0.532 1.371,-0.53 1.379,-0.525C1.543,-0.422 1.705,-0.317 1.869,-0.213L1.873,-0.218Z" style="fill:white;"/>
            </g>
            <g transform="matrix(0.771269,0,0,0.771269,8.4359,20.0894)">
                <path d="M0,-1.127C0.034,-1.01 0.067,-0.895 0.101,-0.779C0.254,-0.835 0.301,-0.944 0.232,-1.09C0.185,-1.192 0.13,-1.2 0,-1.127M-1.026,0.28C-1.098,0.141 -1.162,0.004 -1.237,-0.125C-1.317,-0.264 -1.464,-0.29 -1.623,-0.319C-1.501,-0.44 -1.393,-0.526 -1.218,-0.482C-1.104,-0.454 -0.981,-0.458 -0.86,-0.448C-0.785,-0.232 -1.012,-0.09 -0.976,0.105C-0.89,0.143 -0.858,0.083 -0.827,0.03C-0.765,-0.077 -0.696,-0.184 -0.647,-0.297C-0.587,-0.434 -0.485,-0.476 -0.349,-0.471C-0.292,-0.469 -0.233,-0.464 -0.178,-0.473C-0.115,-0.483 -0.055,-0.509 0.01,-0.529C-0.078,-0.711 -0.269,-0.6 -0.379,-0.712C-0.356,-0.799 -0.333,-0.888 -0.306,-0.994C-0.344,-0.989 -0.383,-0.996 -0.405,-0.98C-0.458,-0.94 -0.521,-0.898 -0.549,-0.842C-0.641,-0.658 -0.789,-0.656 -0.991,-0.696C-0.657,-1.019 -0.276,-1.218 0.124,-1.407C0.271,-1.196 0.41,-0.996 0.546,-0.801C0.402,-0.585 -0.761,0.215 -1.026,0.28" style="fill:white;"/>
            </g>
            <g transform="matrix(0.771269,0,0,0.771269,14.8701,17.9491)">
                <path d="M0,-1.52C0.084,-1.499 0.152,-1.481 0.26,-1.455C0.156,-1.605 0.07,-1.729 -0.016,-1.853C-0.008,-1.861 0,-1.869 0.008,-1.877C0.223,-1.791 0.324,-1.566 0.514,-1.464C0.52,-1.343 0.465,-1.268 0.398,-1.201C0.25,-1.046 0.113,-0.887 0.057,-0.67C0.039,-0.603 -0.012,-0.543 -0.053,-0.484C-0.197,-0.268 -0.346,-0.053 -0.492,0.162C-0.516,0.196 -0.539,0.229 -0.566,0.261C-0.627,0.335 -0.699,0.357 -0.785,0.301C-0.896,0.227 -1.008,0.152 -1.123,0.076C-1.104,0.024 -1.09,-0.014 -1.078,-0.045C-1.068,-0.054 -1.064,-0.061 -1.061,-0.061C-0.838,-0.032 -0.803,-0.236 -0.721,-0.359C-0.488,-0.709 -0.277,-1.075 -0.059,-1.434C-0.043,-1.46 -0.023,-1.485 0,-1.52" style="fill:white;"/>
            </g>
            <g transform="matrix(0.771269,0,0,0.771269,10.0248,18.5698)">
                <path d="M0,-1.352C0.178,-1.504 0.346,-1.649 0.513,-1.792C0.512,-1.604 0.328,-1.526 0.282,-1.34C0.371,-1.37 0.441,-1.393 0.535,-1.424C0.573,-1.375 0.621,-1.324 0.659,-1.265C0.893,-0.91 1.123,-0.551 1.358,-0.196C1.409,-0.12 1.475,-0.053 1.534,0.018C1.567,-0.005 1.586,-0.02 1.616,-0.041C1.647,0.013 1.677,0.065 1.713,0.13C1.556,0.235 1.406,0.334 1.245,0.44C1.196,0.387 1.148,0.347 1.114,0.298C0.949,0.065 0.789,-0.171 0.627,-0.408C0.606,-0.437 0.582,-0.466 0.569,-0.499C0.449,-0.798 0.249,-1.042 0.042,-1.283C0.028,-1.297 0.021,-1.317 0,-1.352" style="fill:white;"/>
            </g>
            <g transform="matrix(0.771269,0,0,0.771269,15.8642,16.6584)">
                <path d="M0,3.426C-0.139,3.426 -0.186,3.395 -0.209,3.298C-0.213,3.273 -0.215,3.246 -0.213,3.22C-0.184,2.718 -0.289,2.225 -0.314,1.726C-0.326,1.534 -0.32,1.342 -0.332,1.15C-0.348,0.859 -0.371,0.569 -0.393,0.278C-0.396,0.237 -0.402,0.195 -0.4,0.154C-0.398,0.094 -0.42,0.013 -0.33,0.007C-0.248,0 -0.191,0.052 -0.176,0.133C-0.162,0.209 -0.156,0.288 -0.154,0.365C-0.15,0.756 -0.148,1.147 -0.146,1.537C-0.146,1.733 -0.121,1.92 -0.035,2.099C-0.01,2.154 0.006,2.218 0.008,2.279C0.014,2.633 0.012,2.988 0.012,3.341C0.012,3.366 0.006,3.391 0,3.426" style="fill:white;"/>
            </g>
            <g transform="matrix(0.771269,0,0,0.771269,9.74945,19.9763)">
                <path d="M0,-3.412C0.004,-3.354 0.019,-3.303 0.01,-3.256C-0.07,-2.822 -0.052,-2.386 -0.052,-1.949C-0.052,-1.647 -0.077,-1.349 -0.117,-1.049C-0.155,-0.766 -0.145,-0.478 -0.157,-0.193C-0.164,-0.044 -0.195,-0.012 -0.357,0.011C-0.363,-0.006 -0.375,-0.024 -0.375,-0.043C-0.368,-0.433 -0.367,-0.822 -0.349,-1.211C-0.343,-1.344 -0.297,-1.475 -0.267,-1.606C-0.207,-1.868 -0.226,-2.133 -0.235,-2.398C-0.243,-2.632 -0.243,-2.865 -0.243,-3.1C-0.243,-3.156 -0.23,-3.214 -0.215,-3.268C-0.189,-3.363 -0.133,-3.423 0,-3.412" style="fill:white;"/>
            </g>
            <g transform="matrix(0.771269,0,0,0.771269,9.27913,18.4649)">
                <path d="M0,1.327C-0.348,0.915 -0.669,0.512 -0.913,0C-0.736,0.027 -0.593,0.038 -0.456,0.073C-0.291,0.116 -0.131,0.181 0.031,0.235C0.118,0.265 0.167,0.334 0.136,0.416C0.031,0.689 0.04,0.974 0.03,1.26C0.03,1.273 0.018,1.287 0,1.327" style="fill:white;"/>
            </g>
            <g transform="matrix(0.771269,0,0,0.771269,16.0028,17.814)">
                <path d="M0,1.334C0.037,0.968 0.002,0.64 -0.117,0.301C0.191,0.101 0.523,0.003 0.891,0C0.861,0.255 0.324,1.061 0,1.334" style="fill:white;"/>
            </g>
            <g transform="matrix(0.771269,0,0,0.771269,14.8475,18.7362)">
                <path d="M0,-0.228C0.25,-0.417 0.488,-0.567 0.779,-0.662C0.953,-0.317 0.92,0.042 0.906,0.434C0.553,0.263 0.312,-0.01 0,-0.228" style="fill:white;"/>
            </g>
            <g transform="matrix(0.771269,0,0,0.771269,9.85188,18.8895)">
                <path d="M0,1.085C-0.081,1.001 -0.097,0.91 -0.094,0.817C-0.09,0.672 -0.084,0.527 -0.066,0.384C-0.051,0.263 -0.016,0.146 0.008,0.037C0.218,0 0.452,0.194 0.817,0.439C0.543,0.656 0.273,0.869 0,1.085" style="fill:white;"/>
            </g>
            <g transform="matrix(0.771269,0,0,0.771269,9.90463,18.5781)">
                <path d="M0,-1.187C0.165,-1.085 0.284,-0.958 0.375,-0.808C0.499,-0.605 0.614,-0.396 0.731,-0.189C0.758,-0.14 0.778,-0.087 0.817,0C0.706,-0.039 0.626,-0.067 0.545,-0.094C0.384,-0.151 0.221,-0.204 0.062,-0.265C0.02,-0.282 -0.035,-0.324 -0.042,-0.362C-0.093,-0.634 -0.077,-0.905 0,-1.187" style="fill:white;"/>
            </g>
            <g transform="matrix(0.771269,0,0,0.771269,15.4033,17.9042)">
                <path d="M0,-1.16C0.027,-1.048 0.064,-0.956 0.07,-0.861C0.08,-0.707 0.076,-0.55 0.064,-0.395C0.061,-0.352 0.025,-0.291 -0.012,-0.276C-0.256,-0.179 -0.506,-0.092 -0.754,-0.003C-0.762,0 -0.773,-0.008 -0.783,-0.012C-0.717,-0.279 -0.229,-1.014 0,-1.16" style="fill:white;"/>
            </g>
            <g transform="matrix(0.771269,0,0,0.771269,15.441,18.4891)">
                <path d="M0,-0.807C0.01,-0.735 0.02,-0.67 0.031,-0.586C-0.125,-0.497 -0.279,-0.403 -0.439,-0.321C-0.635,-0.223 -0.834,-0.136 -1.031,-0.045C-1.105,-0.011 -1.182,0.011 -1.24,-0.071C-1.281,-0.126 -1.256,-0.23 -1.186,-0.294C-1.16,-0.32 -1.129,-0.339 -1.098,-0.358C-0.904,-0.47 -0.713,-0.583 -0.52,-0.694C-0.361,-0.784 -0.191,-0.818 0,-0.807" style="fill:white;"/>
            </g>
            <g transform="matrix(0.771269,0,0,0.771269,9.88543,19.1244)">
                <path d="M0,-0.743C0.189,-0.767 0.36,-0.734 0.518,-0.643C0.707,-0.534 0.893,-0.421 1.079,-0.306C1.128,-0.277 1.18,-0.245 1.213,-0.202C1.241,-0.165 1.266,-0.101 1.252,-0.065C1.237,-0.027 1.177,0.007 1.131,0.015C1.084,0.024 1.026,0.011 0.981,-0.011C0.752,-0.12 0.524,-0.234 0.297,-0.348C0.228,-0.383 0.16,-0.422 0.092,-0.461C-0.034,-0.534 -0.047,-0.573 0,-0.743" style="fill:white;"/>
            </g>
            <g transform="matrix(0.771269,0,0,0.771269,15.9366,17.5053)">
                <path d="M0,-0.717C0.268,-0.56 0.52,-0.41 0.793,-0.248C0.543,-0.091 0.262,-0.091 -0.008,0C-0.078,-0.25 -0.08,-0.48 0,-0.717" style="fill:white;"/>
            </g>
            <g transform="matrix(-0.219911,0.739254,0.739254,0.219911,9.10402,17.5423)">
                <path d="M0.682,-0.217C0.45,-0.027 0.218,0.163 -0.029,0.366C0.188,0.516 0.425,0.528 0.682,0.568C0.695,0.304 0.709,0.05 0.721,-0.204C0.707,-0.209 0.695,-0.214 0.682,-0.217" style="fill:white;"/>
            </g>
            <g transform="matrix(0.771269,0,0,0.771269,9.40338,18.1337)">
                <path d="M0,0.481C-0.413,0.395 -0.811,0.313 -1.208,0.227C-1.24,0.22 -1.266,0.19 -1.292,0.172C-1.254,0.03 -1.223,0 -1.103,0.02C-0.797,0.075 -0.492,0.136 -0.187,0.196C-0.043,0.224 0,0.326 0,0.481" style="fill:white;"/>
            </g>
            <g transform="matrix(0.771269,0,0,0.771269,15.905,17.467)">
                <path d="M0,0.484C-0.014,0.302 0.061,0.204 0.248,0.16C0.432,0.117 0.615,0.087 0.799,0.052C0.887,0.036 0.973,0.023 1.061,0.012C1.096,0.007 1.139,0 1.166,0.014C1.207,0.036 1.238,0.076 1.273,0.109C1.24,0.135 1.211,0.175 1.174,0.186C0.893,0.262 0.611,0.333 0.33,0.404C0.221,0.431 0.111,0.458 0,0.484" style="fill:white;"/>
            </g>
            <g transform="matrix(0.771269,0,0,0.771269,7.16261,20.6456)">
                <path d="M0,-0.983C-0.025,-0.959 -0.046,-0.925 -0.077,-0.911C-0.332,-0.795 -0.366,-0.507 -0.136,-0.347C-0.067,-0.299 0.024,-0.281 0.108,-0.257C0.156,-0.245 0.209,-0.248 0.26,-0.243C0.23,-0.021 0.135,0.032 -0.055,-0.038C-0.35,-0.145 -0.496,-0.347 -0.5,-0.663C-0.501,-0.767 -0.464,-0.834 -0.375,-0.873C-0.262,-0.923 -0.146,-0.968 -0.031,-1.015L0,-0.983Z" style="fill:white;"/>
            </g>
            <g transform="matrix(0.771269,0,0,0.771269,18.3588,20.0042)">
                <path d="M0,-0.957C0.08,-0.925 0.162,-0.892 0.234,-0.862C0.301,-0.491 0.176,-0.225 -0.111,-0.093C-0.328,0.005 -0.406,-0.028 -0.506,-0.274C-0.449,-0.285 -0.395,-0.297 -0.34,-0.307C-0.021,-0.366 0.082,-0.523 0.014,-0.842C0.006,-0.881 0.008,-0.922 0.004,-0.962L0,-0.957Z" style="fill:white;"/>
            </g>
            <g transform="matrix(0.771269,0,0,0.771269,8.92959,20.0287)">
                <path d="M0,0.233C0.108,0.086 0.269,0.035 0.437,0C0.312,0.116 0.183,0.224 -0.002,0.23L0,0.233Z" style="fill:white;"/>
            </g>
            <g transform="matrix(0.439014,-0.634132,-0.634132,-0.439014,16.2448,19.3747)">
                <path d="M-0.109,-0.045C-0.122,0.03 -0.137,0.109 -0.148,0.186C-0.135,0.188 -0.122,0.19 -0.109,0.192C-0.031,0.128 -0.042,0.046 -0.067,-0.038L-0.109,-0.045Z" style="fill:white;"/>
            </g>
            <g transform="matrix(0.169102,0.752503,0.752503,-0.169102,8.77021,20.2228)">
                <path d="M0.078,-0.078L0.078,0.104L0.078,-0.078Z" style="fill:white;"/>
            </g>
            <g transform="matrix(-0.38903,-0.665967,-0.665967,0.38903,8.84533,20.2166)">
                <path d="M-0.042,-0.099L-0.042,0.018L-0.042,-0.099Z" style="fill:white;"/>
            </g>
            <g transform="matrix(0.771269,0,0,0.771269,16.3026,19.4752)">
                <path d="M0,0.018C-0.008,0.012 -0.014,0.006 -0.021,0C-0.01,0.002 0,0.004 0.01,0.006L0,0.018Z" style="fill:white;"/>
            </g>
            <g transform="matrix(0.771269,0,0,0.771269,20.3186,22.9068)">
                <path d="M0,-4.069C0.066,-3.791 0.031,-3.54 -0.016,-3.29C-0.08,-2.943 -0.129,-2.591 -0.27,-2.263C-0.566,-1.573 -0.963,-0.959 -1.6,-0.529C-1.992,-0.265 -2.412,-0.056 -2.891,-0.02C-3.164,0 -3.441,-0.013 -3.715,-0.041C-4.135,-0.084 -4.541,-0.2 -4.924,-0.382C-5.023,-0.43 -5.117,-0.496 -5.213,-0.552C-5.209,-0.567 -5.205,-0.583 -5.199,-0.597C-5.15,-0.589 -5.098,-0.585 -5.049,-0.571C-4.75,-0.485 -4.455,-0.384 -4.152,-0.311C-3.094,-0.057 -2.156,-0.274 -1.363,-1.048C-0.824,-1.574 -0.457,-2.193 -0.291,-2.931C-0.217,-3.26 -0.127,-3.587 -0.043,-3.914C-0.033,-3.959 -0.02,-4.003 0,-4.069" style="fill:rgb(45,95,47);"/>
            </g>
            <g transform="matrix(0.771269,0,0,0.771269,9.12696,20.9156)">
                <path d="M0,2.836C-0.039,2.864 -0.076,2.897 -0.117,2.922C-0.699,3.274 -1.329,3.465 -2.009,3.473C-2.906,3.484 -3.64,3.117 -4.246,2.474C-4.793,1.892 -5.103,1.191 -5.255,0.415C-5.297,0.201 -5.334,-0.015 -5.369,-0.229C-5.391,-0.366 -5.402,-0.504 -5.367,-0.639C-5.355,-0.642 -5.343,-0.644 -5.331,-0.648C-5.309,-0.579 -5.28,-0.511 -5.265,-0.439C-5.2,-0.13 -5.158,0.187 -5.072,0.49C-4.856,1.254 -4.494,1.939 -3.89,2.473C-3.466,2.848 -2.99,3.125 -2.421,3.213C-1.877,3.298 -1.344,3.242 -0.821,3.073C-0.58,2.995 -0.34,2.91 -0.099,2.829C-0.072,2.82 -0.043,2.815 -0.015,2.809C-0.01,2.817 -0.005,2.827 0,2.836" style="fill:rgb(45,95,47);"/>
            </g>
            <g transform="matrix(0.771269,0,0,0.771269,8.37752,20.457)">
                <path d="M0,-0.004C-0.003,-0.003 -0.007,-0.003 -0.01,-0.002C-0.006,-0.001 -0.002,0 0.002,0L0,-0.004Z" style="fill:rgb(45,95,47);"/>
            </g>
            <g transform="matrix(0.771269,0,0,0.771269,16.9443,16.4151)">
                <path d="M0,0.095C-0.17,-0.021 -0.34,-0.136 -0.51,-0.252C-0.246,-0.356 0.17,-0.037 0.359,0.308C0.289,0.352 0.219,0.403 0.143,0.438C0.113,0.451 0.059,0.442 0.029,0.422C-0.16,0.297 -0.346,0.165 -0.541,0.03C-0.453,-0.009 -0.369,0.013 -0.281,0.037C-0.189,0.063 -0.094,0.074 0,0.092L-0.008,0.099L0,0.095Z" style="fill:rgb(45,95,47);"/>
            </g>
            <g transform="matrix(0.771269,0,0,0.771269,8.09168,17.0467)">
                <path d="M0,0.36C0.196,0.001 0.497,-0.186 0.902,-0.216C0.723,-0.056 0.442,-0.026 0.312,0.239C0.509,0.169 0.665,0.034 0.901,0.085C0.81,0.152 0.737,0.206 0.664,0.258C0.593,0.31 0.513,0.354 0.451,0.415C0.287,0.576 0.143,0.515 0,0.36" style="fill:rgb(45,95,47);"/>
            </g>
            <g transform="matrix(-0.468964,-0.612315,-0.612315,0.468964,16.6254,18.6245)">
                <path d="M-0.133,-0.375C-0.206,-0.25 -0.266,-0.144 -0.331,-0.034C-0.28,0.047 -0.208,0.039 -0.133,0.002C-0.035,-0.049 0.029,-0.152 0.009,-0.235C-0.011,-0.321 -0.06,-0.379 -0.133,-0.375" style="fill:rgb(45,95,47);"/>
            </g>
            <g transform="matrix(0.771269,0,0,0.771269,8.4359,19.4323)">
                <path d="M0,-0.275C0.13,-0.348 0.185,-0.34 0.232,-0.238C0.301,-0.092 0.254,0.017 0.101,0.073C0.067,-0.043 0.034,-0.158 0,-0.275" style="fill:rgb(45,95,47);"/>
            </g>
            <g transform="matrix(0.771269,0,0,0.771269,16.9443,16.4891)">
                <path d="M0,-0.001L-0.008,0.003L0,-0.004L0,-0.001Z" style="fill:white;"/>
            </g>
            <g transform="matrix(1,0,0,1,22.9697,18.5425)">
                <path d="M0,-12.794C-0.072,-12.701 -0.103,-12.649 -0.146,-12.613C-0.684,-12.156 -1.03,-11.55 -1.404,-10.967C-1.483,-10.843 -1.56,-10.709 -1.604,-10.569C-1.834,-9.865 -2.247,-9.286 -2.781,-8.787C-3.042,-8.542 -3.209,-8.243 -3.35,-7.925C-3.434,-7.734 -3.499,-7.557 -3.771,-7.546C-3.965,-7.539 -4.119,-7.22 -3.998,-7.06C-3.861,-6.877 -3.984,-6.787 -4.068,-6.685C-4.555,-6.093 -5.138,-5.611 -5.771,-5.186C-5.953,-5.063 -6.135,-4.934 -6.333,-4.781C-5.982,-4.919 -6.031,-4.697 -6.051,-4.512C-6.082,-4.183 -6.057,-3.851 -6.074,-3.522C-6.105,-2.967 -6.39,-2.525 -6.789,-2.15C-7.271,-1.698 -7.854,-1.361 -8.302,-0.866C-8.501,-0.646 -8.695,-0.42 -8.899,-0.204C-9.229,0.145 -9.626,0.331 -10.115,0.376C-10.951,0.455 -11.621,0.212 -12.132,-0.471C-12.586,-1.079 -13.231,-1.493 -13.768,-2.021C-14.247,-2.489 -14.585,-3.012 -14.623,-3.7C-14.645,-4.103 -14.789,-4.497 -14.731,-4.907C-14.721,-4.975 -14.814,-5.001 -14.865,-5.038C-15.526,-5.533 -16.192,-6.023 -16.713,-6.672C-16.799,-6.781 -16.938,-6.87 -16.78,-7.06C-16.657,-7.208 -16.841,-7.545 -17.048,-7.551C-17.287,-7.557 -17.358,-7.714 -17.423,-7.878C-17.575,-8.252 -17.786,-8.579 -18.082,-8.857C-18.589,-9.336 -18.923,-9.919 -19.198,-10.564C-19.507,-11.295 -19.962,-11.952 -20.542,-12.51C-20.618,-12.584 -20.705,-12.648 -20.774,-12.793C-20.277,-12.583 -19.856,-12.334 -19.481,-11.996C-19.121,-11.672 -18.819,-11.299 -18.537,-10.912C-18.342,-10.646 -18.103,-10.441 -17.806,-10.287C-17.906,-10.402 -18.008,-10.516 -18.126,-10.652C-17.919,-10.678 -17.744,-10.612 -17.568,-10.568C-16.957,-10.416 -16.374,-10.179 -15.787,-9.957C-15.682,-9.917 -15.589,-9.901 -15.479,-9.943C-15.126,-10.077 -14.85,-9.976 -14.654,-9.654C-14.638,-9.627 -14.61,-9.606 -14.587,-9.583C-14.583,-9.579 -14.574,-9.579 -14.564,-9.576C-14.547,-9.674 -14.584,-9.768 -14.637,-9.832C-14.899,-10.152 -14.734,-10.436 -14.572,-10.714C-13.82,-12.011 -12.64,-12.677 -11.221,-13.022C-10.279,-13.249 -9.418,-13.058 -8.541,-12.711C-7.659,-12.358 -7.005,-11.759 -6.435,-11.033C-6.271,-10.823 -6.166,-10.578 -6.029,-10.352C-5.969,-10.253 -6,-10.177 -6.061,-10.105C-6.187,-9.949 -6.202,-9.763 -6.241,-9.538C-6.192,-9.603 -6.166,-9.633 -6.148,-9.669C-5.971,-10.008 -5.887,-10.064 -5.509,-9.983C-5.229,-9.922 -4.985,-9.952 -4.721,-10.062C-4.169,-10.29 -3.608,-10.49 -3.024,-10.617C-2.915,-10.641 -2.802,-10.656 -2.635,-10.684C-2.781,-10.521 -2.882,-10.406 -2.985,-10.291C-2.742,-10.417 -2.521,-10.564 -2.353,-10.793C-1.793,-11.549 -1.193,-12.263 -0.31,-12.667C-0.249,-12.694 -0.19,-12.724 -0.13,-12.751C-0.108,-12.76 -0.086,-12.766 0,-12.794" style="fill:none;fill-rule:nonzero;stroke:rgb(45,95,47);stroke-width:0.53px;"/>
            </g>
            <g transform="matrix(1,0,0,1,22.9697,18.5425)">
                <path d="M0,-12.794C-0.072,-12.701 -0.103,-12.649 -0.146,-12.613C-0.684,-12.156 -1.03,-11.55 -1.404,-10.967C-1.483,-10.843 -1.56,-10.709 -1.604,-10.569C-1.834,-9.865 -2.247,-9.286 -2.781,-8.787C-3.042,-8.542 -3.209,-8.243 -3.35,-7.925C-3.434,-7.734 -3.499,-7.557 -3.771,-7.546C-3.965,-7.539 -4.119,-7.22 -3.998,-7.06C-3.861,-6.877 -3.984,-6.787 -4.068,-6.685C-4.555,-6.093 -5.138,-5.611 -5.771,-5.186C-5.953,-5.063 -6.135,-4.934 -6.333,-4.781C-5.982,-4.919 -6.031,-4.697 -6.051,-4.512C-6.082,-4.183 -6.057,-3.851 -6.074,-3.522C-6.105,-2.967 -6.39,-2.525 -6.789,-2.15C-7.271,-1.698 -7.854,-1.361 -8.302,-0.866C-8.501,-0.646 -8.695,-0.42 -8.899,-0.204C-9.229,0.145 -9.626,0.331 -10.115,0.376C-10.951,0.455 -11.621,0.212 -12.132,-0.471C-12.586,-1.079 -13.231,-1.493 -13.768,-2.021C-14.247,-2.489 -14.585,-3.012 -14.623,-3.7C-14.645,-4.103 -14.789,-4.497 -14.731,-4.907C-14.721,-4.975 -14.814,-5.001 -14.865,-5.038C-15.526,-5.533 -16.192,-6.023 -16.713,-6.672C-16.799,-6.781 -16.938,-6.87 -16.78,-7.06C-16.657,-7.208 -16.841,-7.545 -17.048,-7.551C-17.287,-7.557 -17.358,-7.714 -17.423,-7.878C-17.575,-8.252 -17.786,-8.579 -18.082,-8.857C-18.589,-9.336 -18.923,-9.919 -19.198,-10.564C-19.507,-11.295 -19.962,-11.952 -20.542,-12.51C-20.618,-12.584 -20.705,-12.648 -20.774,-12.793C-20.277,-12.583 -19.856,-12.334 -19.481,-11.996C-19.121,-11.672 -18.819,-11.299 -18.537,-10.912C-18.342,-10.646 -18.103,-10.441 -17.806,-10.287C-17.906,-10.402 -18.008,-10.516 -18.126,-10.652C-17.919,-10.678 -17.744,-10.612 -17.568,-10.568C-16.957,-10.416 -16.374,-10.179 -15.787,-9.957C-15.682,-9.917 -15.589,-9.901 -15.479,-9.943C-15.126,-10.077 -14.85,-9.976 -14.654,-9.654C-14.638,-9.627 -14.61,-9.606 -14.587,-9.583C-14.583,-9.579 -14.574,-9.579 -14.564,-9.576C-14.547,-9.674 -14.584,-9.768 -14.637,-9.832C-14.899,-10.152 -14.734,-10.436 -14.572,-10.714C-13.82,-12.011 -12.64,-12.677 -11.221,-13.022C-10.279,-13.249 -9.418,-13.058 -8.541,-12.711C-7.659,-12.358 -7.005,-11.759 -6.435,-11.033C-6.271,-10.823 -6.166,-10.578 -6.029,-10.352C-5.969,-10.253 -6,-10.177 -6.061,-10.105C-6.187,-9.949 -6.202,-9.763 -6.241,-9.538C-6.192,-9.603 -6.166,-9.633 -6.148,-9.669C-5.971,-10.008 -5.887,-10.064 -5.509,-9.983C-5.229,-9.922 -4.985,-9.952 -4.721,-10.062C-4.169,-10.29 -3.608,-10.49 -3.024,-10.617C-2.915,-10.641 -2.802,-10.656 -2.635,-10.684C-2.781,-10.521 -2.882,-10.406 -2.985,-10.291C-2.742,-10.417 -2.521,-10.564 -2.353,-10.793C-1.793,-11.549 -1.193,-12.263 -0.31,-12.667C-0.249,-12.694 -0.19,-12.724 -0.13,-12.751C-0.108,-12.76 -0.086,-12.766 0,-12.794" style="fill:white;fill-rule:nonzero;"/>
            </g>
            <g transform="matrix(1,0,0,1,19.6689,11.8845)">
                <path d="M0,-0.07C0.002,0.236 -0.027,0.512 -0.308,0.68C-0.458,0.772 -0.605,0.766 -0.756,0.696C-0.801,0.677 -0.854,0.653 -0.842,0.593C-0.83,0.542 -0.82,0.493 -0.748,0.467C-0.409,0.338 -0.272,-0.11 -0.503,-0.382C-0.615,-0.515 -0.613,-0.611 -0.507,-0.718C-0.384,-0.842 -0.271,-0.742 -0.179,-0.67C0.02,-0.51 -0.02,-0.271 0,-0.07" style="fill:white;fill-rule:nonzero;"/>
            </g>
            <g transform="matrix(1,0,0,1,5.4751,11.9187)">
                <path d="M0,-0.094C-0.025,-0.27 0.062,-0.462 0.161,-0.641C0.219,-0.746 0.337,-0.875 0.482,-0.772C0.604,-0.685 0.637,-0.572 0.51,-0.42C0.259,-0.12 0.41,0.321 0.783,0.426C0.826,0.437 0.862,0.435 0.87,0.487C0.879,0.542 0.851,0.573 0.807,0.608C0.583,0.781 0.291,0.724 0.122,0.47C0.015,0.312 0.001,0.132 0,-0.094" style="fill:white;fill-rule:nonzero;"/>
            </g>
            <g transform="matrix(1,0,0,1,20.1523,18.4294)">
                <path d="M0,-8.944C-0.652,-8.339 -1.361,-7.822 -2.213,-7.519C-2.382,-7.459 -2.431,-7.568 -2.501,-7.668C-2.534,-7.714 -2.552,-7.783 -2.624,-7.768C-2.697,-7.754 -2.691,-7.681 -2.695,-7.626C-2.711,-7.384 -2.863,-7.235 -3.069,-7.185C-3.396,-7.107 -3.469,-6.862 -3.504,-6.597C-3.529,-6.424 -3.594,-6.319 -3.761,-6.283C-3.897,-6.253 -3.966,-6.165 -4.015,-6.04C-4.178,-5.629 -4.437,-5.275 -4.688,-4.917C-4.922,-4.58 -5.247,-4.439 -5.627,-4.385C-5.749,-4.37 -5.87,-4.348 -6.017,-4.325C-5.402,-4.025 -5.364,-3.632 -5.325,-3.146C-5.091,-3.203 -4.926,-3.322 -4.848,-3.559C-4.777,-3.771 -4.687,-3.976 -4.614,-4.186C-4.546,-4.389 -4.493,-4.595 -4.423,-4.831C-4.266,-4.619 -4.176,-4.41 -4.123,-4.186C-4.082,-4.011 -4.019,-3.879 -3.823,-3.812C-3.629,-3.748 -3.537,-3.581 -3.535,-3.338C-3.592,-3.415 -3.625,-3.469 -3.668,-3.516C-3.743,-3.602 -3.851,-3.608 -3.944,-3.585C-4.051,-3.555 -4.021,-3.45 -4.009,-3.373C-3.962,-3.057 -4.111,-2.864 -4.344,-2.66C-4.797,-2.262 -5.165,-1.775 -5.633,-1.389C-5.839,-1.22 -6.048,-1.048 -6.295,-0.958C-6.554,-0.86 -6.714,-0.681 -6.875,-0.445C-6.53,-0.494 -6.242,-0.65 -5.921,-0.751C-6.369,-0.022 -8.538,0.069 -9.286,-0.766C-8.866,-0.611 -8.508,-0.48 -8.116,-0.337C-8.369,-0.65 -8.643,-0.85 -8.968,-1.016C-9.558,-1.314 -10,-1.808 -10.443,-2.288C-10.533,-2.384 -10.61,-2.502 -10.715,-2.576C-11.025,-2.798 -11.244,-3.049 -11.144,-3.465C-11.132,-3.514 -11.152,-3.575 -11.208,-3.585C-11.298,-3.598 -11.395,-3.604 -11.468,-3.536C-11.521,-3.485 -11.56,-3.423 -11.621,-3.345C-11.626,-3.604 -11.506,-3.757 -11.297,-3.834C-11.153,-3.884 -11.093,-3.972 -11.06,-4.11C-11,-4.358 -10.904,-4.591 -10.73,-4.854C-10.636,-4.433 -10.5,-4.083 -10.376,-3.727C-10.236,-3.322 -10.197,-3.277 -9.819,-3.14C-9.7,-3.575 -9.754,-4.108 -9.13,-4.29C-9.435,-4.362 -9.68,-4.418 -9.924,-4.476C-10.108,-4.521 -10.252,-4.621 -10.371,-4.77C-10.709,-5.197 -11.062,-5.615 -11.228,-6.148C-11.249,-6.213 -11.3,-6.237 -11.355,-6.255C-11.679,-6.357 -11.786,-6.618 -11.829,-6.916C-11.846,-7.027 -11.878,-7.072 -11.99,-7.122C-12.215,-7.222 -12.54,-7.213 -12.56,-7.636C-12.721,-7.373 -12.886,-7.475 -13.044,-7.544C-13.834,-7.883 -14.545,-8.343 -15.161,-8.944C-15.172,-8.991 -15.155,-9.013 -15.105,-9C-14.429,-8.609 -13.831,-8.09 -13.1,-7.783C-12.872,-7.689 -12.754,-7.736 -12.624,-7.904C-12.583,-7.959 -12.555,-8.038 -12.466,-8.052C-12.33,-7.841 -12.414,-7.515 -12.057,-7.411C-11.746,-7.321 -11.567,-7.585 -11.292,-7.585C-11.302,-7.513 -11.356,-7.466 -11.403,-7.418C-11.724,-7.09 -11.656,-6.64 -11.242,-6.433C-10.776,-6.201 -10.289,-6.009 -9.859,-5.711C-9.479,-5.448 -9.105,-5.172 -8.736,-4.893C-8.621,-4.803 -8.496,-4.736 -8.358,-4.722C-8.212,-4.707 -8.04,-4.646 -7.938,-4.831C-7.836,-5.016 -7.74,-5.183 -7.9,-5.4C-8.21,-5.818 -8.454,-6.277 -8.687,-6.744C-8.24,-6.316 -7.92,-5.789 -7.571,-5.265C-7.352,-5.539 -7.159,-5.818 -6.887,-6.03C-6.834,-5.934 -6.914,-5.899 -6.943,-5.85C-7.021,-5.714 -7.119,-5.588 -7.19,-5.45C-7.29,-5.257 -7.395,-5.049 -7.212,-4.856C-7.043,-4.677 -6.736,-4.681 -6.507,-4.846C-6.32,-4.983 -6.137,-5.125 -5.956,-5.269C-5.381,-5.724 -4.752,-6.087 -4.076,-6.364C-3.704,-6.518 -3.486,-7.235 -3.874,-7.512C-4.035,-7.628 -4.094,-7.829 -4.201,-7.993C-3.96,-7.847 -3.786,-7.623 -3.541,-7.484C-3.272,-7.331 -2.871,-7.48 -2.787,-7.772C-2.76,-7.865 -2.732,-7.958 -2.707,-8.048C-2.677,-8.044 -2.657,-8.047 -2.647,-8.039C-2.314,-7.668 -2.311,-7.659 -1.864,-7.876C-1.224,-8.189 -0.632,-8.583 -0.055,-8.999C-0.004,-9.012 0.012,-8.991 0,-8.944" style="fill:rgb(45,95,47);fill-rule:nonzero;"/>
            </g>
            <g transform="matrix(1,0,0,1,5.0469,9.0652)">
                <path d="M0,0.364C-0.019,0.383 -0.036,0.401 -0.056,0.42C-0.229,0.289 -0.372,0.132 -0.484,-0.056C-0.291,0.049 -0.144,0.204 0,0.364" style="fill:rgb(45,95,47);fill-rule:nonzero;"/>
            </g>
            <g transform="matrix(1,0,0,1,20.1523,9.0104)">
                <path d="M0,0.475C-0.018,0.457 -0.035,0.439 -0.055,0.42C0.085,0.256 0.243,0.113 0.43,0C0.319,0.19 0.173,0.345 0,0.475" style="fill:rgb(45,95,47);fill-rule:nonzero;"/>
            </g>
            <g transform="matrix(1,0,0,1,13.1211,16.2332)">
                <path d="M0,-0.948C0.113,-1.147 0.109,-1.312 0.137,-1.469C0.178,-1.712 0.409,-1.888 0.756,-1.939C1.032,-1.978 1.183,-1.89 1.314,-1.637C1.594,-1.116 1.541,-0.652 1.132,-0.208C0.758,0.193 0.503,0.68 0.262,1.17C0.092,1.515 -0.157,1.823 -0.546,1.822C-0.946,1.82 -1.199,1.505 -1.367,1.15C-1.645,0.563 -2.005,0.03 -2.433,-0.454C-2.607,-0.652 -2.595,-0.878 -2.584,-1.108C-2.579,-1.211 -2.541,-1.318 -2.501,-1.418C-2.398,-1.68 -2.311,-1.961 -1.94,-1.947C-1.562,-1.933 -1.27,-1.712 -1.152,-1.361C-1.113,-1.246 -1.145,-1.112 -1.043,-1.003C-1,-1.342 -1.022,-1.665 -1.099,-1.984C-1.131,-2.119 -1.123,-2.213 -0.983,-2.294C-0.817,-2.391 -0.699,-2.544 -0.651,-2.771C-0.448,-2.59 -0.29,-2.385 -0.064,-2.262C0.014,-2.221 -0.029,-2.127 -0.031,-2.056C-0.042,-1.706 -0.057,-1.355 0,-0.948" style="fill:white;fill-rule:nonzero;"/>
            </g>
            <g transform="matrix(0.507002,-0.861945,-0.861945,-0.507002,11.627,12.7582)">
                <path d="M-1.042,-0.582C-1.53,-0.082 -1.702,0.752 -1.446,1.349C-1.36,1.547 -1.228,1.697 -1.042,1.799C-0.947,1.851 -0.858,1.881 -0.834,1.716C-0.78,1.326 -0.915,-0.233 -1.042,-0.582" style="fill:white;fill-rule:nonzero;"/>
            </g>
            <g transform="matrix(1,0,0,1,13.4385,12.5353)">
                <path d="M0,1.451C0.653,0.903 1.269,0.435 1.958,0.073C2.129,-0.016 2.146,0.131 2.129,0.234C2.076,0.578 1.929,0.878 1.658,1.106C1.514,1.228 1.352,1.32 1.157,1.355C0.799,1.418 0.444,1.467 0,1.451" style="fill:white;fill-rule:nonzero;"/>
            </g>
            <g transform="matrix(1,0,0,1,15.7471,15.6006)">
                <path d="M0,-1.624C0.261,-1.138 0.253,-0.684 0.214,-0.231C0.202,-0.109 0.091,-0.051 -0.037,-0.027C-0.201,0 -0.299,-0.08 -0.396,-0.193C-0.491,-0.298 -0.423,-0.376 -0.374,-0.458C-0.172,-0.797 -0.1,-1.179 0,-1.624" style="fill:white;fill-rule:nonzero;"/>
            </g>
            <g transform="matrix(1,0,0,1,9.3896,15.6294)">
                <path d="M0,-1.647C0.066,-1.394 0.12,-1.2 0.169,-1.004C0.216,-0.82 0.292,-0.646 0.387,-0.481C0.48,-0.315 0.415,-0.144 0.234,-0.07C0.068,0 -0.178,-0.082 -0.198,-0.246C-0.254,-0.705 -0.245,-1.163 0,-1.647" style="fill:white;fill-rule:nonzero;"/>
            </g>
            <g transform="matrix(0.980673,-0.195652,-0.195652,-0.980673,15.0349,16.3677)">
                <path d="M-0.1,0.001C-0.132,0.227 -0.154,0.419 -0.242,0.601C-0.29,0.699 -0.183,0.789 -0.1,0.829C0.022,0.886 0.162,0.905 0.323,0.951C0.164,0.627 0.163,0.279 -0.1,0.001" style="fill:white;fill-rule:nonzero;"/>
            </g>
            <g transform="matrix(0.94897,0.315368,0.315368,-0.94897,10.063,16.3561)">
                <path d="M0.155,0.015C-0.091,0.235 -0.214,0.477 -0.307,0.89C-0.12,0.912 0.019,0.817 0.155,0.713C0.212,0.67 0.23,0.634 0.203,0.571C0.137,0.406 0.148,0.234 0.155,0.015" style="fill:white;fill-rule:nonzero;"/>
            </g>
            <g transform="matrix(1,0,0,1,14.29,16.0677)">
                <path d="M0,0.904C0.072,0.6 0.146,0.299 0.22,0C0.586,0.289 0.504,0.639 0,0.904" style="fill:white;fill-rule:nonzero;"/>
            </g>
            <g transform="matrix(1,0,0,1,10.6265,16.9173)">
                <path d="M0,-0.888C0.025,-0.698 0.04,-0.551 0.067,-0.408C0.093,-0.273 0.134,-0.139 0.169,0C-0.305,-0.243 -0.337,-0.39 0,-0.888" style="fill:white;fill-rule:nonzero;"/>
            </g>
            <g transform="matrix(1,0,0,1,11.0684,16.147)">
                <path d="M0,0.893C-0.141,0.586 -0.219,0.306 -0.258,0C0.095,0.31 0.158,0.513 0,0.893" style="fill:white;fill-rule:nonzero;"/>
            </g>
            <g transform="matrix(1,0,0,1,14.0801,16.2329)">
                <path d="M0,0.811C-0.25,0.427 0.104,0.249 0.208,0C0.196,0.277 0.12,0.536 0,0.811" style="fill:white;fill-rule:nonzero;"/>
            </g>
            <g transform="matrix(1,0,0,1,11.332,17.3883)">
                <path d="M0,-0.485C0.077,-0.326 0.189,-0.197 0.244,0C0.068,-0.029 -0.065,-0.103 -0.133,-0.218C-0.169,-0.279 -0.106,-0.415 0,-0.485" style="fill:white;fill-rule:nonzero;"/>
            </g>
            <g transform="matrix(1,0,0,1,9.8823,16.0432)">
                <path d="M0,-0.427C0.008,-0.26 0.015,-0.141 0.021,0C-0.119,-0.043 -0.24,-0.139 -0.254,-0.231C-0.272,-0.328 -0.097,-0.321 0,-0.427" style="fill:white;fill-rule:nonzero;"/>
            </g>
            <g transform="matrix(1,0,0,1,15.2207,15.6752)">
                <path d="M0,0.4C0.051,0.235 -0.008,0.11 0.066,0C0.337,0.131 0.337,0.131 0,0.4" style="fill:white;fill-rule:nonzero;"/>
            </g>
            <g transform="matrix(1,0,0,1,13.793,14.1821)">
                <path d="M0,-0.019C-0.142,0.038 -0.284,0.092 -0.445,0.157C-0.404,-0.176 -0.169,-0.042 0,-0.019" style="fill:white;fill-rule:nonzero;"/>
            </g>
            <g transform="matrix(1,0,0,1,13.6494,16.9793)">
                <path d="M0,0.384C0.039,0.226 0.098,0.113 0.167,0C0.329,0.234 0.329,0.234 0,0.384" style="fill:white;fill-rule:nonzero;"/>
            </g>
            <g transform="matrix(1,0,0,1,11.3877,14.2429)">
                <path d="M0,-0.07C0.149,-0.074 0.344,-0.166 0.412,0.096C0.258,0.034 0.128,-0.019 0,-0.07" style="fill:white;fill-rule:nonzero;"/>
            </g>
        </g>
    </g>
</svg>
