<?xml version="1.0" encoding="UTF-8" standalone="no"?>
<!DOCTYPE svg PUBLIC "-//W3C//DTD SVG 1.1//EN" "http://www.w3.org/Graphics/SVG/1.1/DTD/svg11.dtd">
<svg width="100%" height="100%" viewBox="0 0 70 75" version="1.1" xmlns="http://www.w3.org/2000/svg" xmlns:xlink="http://www.w3.org/1999/xlink" xml:space="preserve" xmlns:serif="http://www.serif.com/" style="fill-rule:evenodd;clip-rule:evenodd;">
    <g transform="matrix(1,0,0,1,-796.942,-1237.16)">
        <g id="Merc-Halberdier-ALLY" serif:id="Merc Halberdier ALLY" transform="matrix(4.16667,1.97215e-31,-1.97215e-31,4.16667,205.155,714.235)">
            <g>
                <clipPath id="_clip1">
                    <rect x="142.162" y="125.572" width="16.362" height="17.655" clip-rule="nonzero"/>
                </clipPath>
                <g clip-path="url(#_clip1)">
                    <g transform="matrix(-0.989425,0.145047,0.145047,0.989425,146.743,139.111)">
                        <ellipse cx="0.09" cy="0.012" rx="0.081" ry="0.106" style="fill:none;stroke:rgb(104,33,95);stroke-width:0.13px;"/>
                    </g>
                    <g transform="matrix(0.142327,-0.98982,-0.98982,-0.142327,147.537,137.525)">
                        <ellipse cx="-0.008" cy="-0.075" rx="0.1" ry="0.087" style="fill:none;stroke:rgb(104,33,95);stroke-width:0.13px;"/>
                    </g>
                    <g transform="matrix(0.988254,-0.152823,-0.152823,-0.988254,148.643,135.949)">
                        <ellipse cx="-0.09" cy="-0.014" rx="0.082" ry="0.105" style="fill:none;stroke:rgb(104,33,95);stroke-width:0.13px;"/>
                    </g>
                    <g transform="matrix(-0.989425,0.145047,0.145047,0.989425,149.592,134.365)">
                        <ellipse cx="0.093" cy="0.017" rx="0.08" ry="0.109" style="fill:none;stroke:rgb(104,33,95);stroke-width:0.13px;"/>
                    </g>
                    <g transform="matrix(-0.233838,0.972275,0.972275,0.233838,150.274,132.946)">
                        <ellipse cx="0.028" cy="0.074" rx="0.096" ry="0.091" style="fill:none;stroke:rgb(104,33,95);stroke-width:0.13px;"/>
                    </g>
                    <g transform="matrix(6.12323e-17,1,-1,6.12323e-17,150.851,132.032)">
                        <path d="M0,3.586C-0.601,3.496 -1.213,3.482 -1.803,3.321C-2.622,3.1 -3.411,2.805 -4.097,2.291C-4.34,2.111 -4.542,1.879 -4.739,1.649C-5.149,1.171 -5.435,0.622 -5.687,0.052C-5.689,0.043 -5.689,0.032 -5.695,0C-5.498,0.128 -5.31,0.234 -5.11,0.316C-5.042,0.344 -5.026,0.409 -4.996,0.461C-4.624,1.07 -4.163,1.598 -3.594,2.018C-3.545,2.056 -3.496,2.092 -3.447,2.127C-3.1,2.365 -2.704,2.512 -2.305,2.641C-1.934,2.764 -1.56,2.876 -1.166,2.911C-1.019,2.925 -0.874,2.977 -0.724,2.985C-0.688,2.988 -0.664,3.004 -0.642,3.029C-0.448,3.231 -0.235,3.411 0.008,3.55C0.016,3.556 0.022,3.564 0.03,3.578C0.016,3.58 0.008,3.586 0,3.586Z" style="fill:none;fill-rule:nonzero;stroke:rgb(104,33,95);stroke-width:0.13px;"/>
                    </g>
                    <g transform="matrix(6.12323e-17,1,-1,6.12323e-17,153.474,128.662)">
                        <path d="M0,-0.248C-0.221,0.096 -0.429,0.448 -0.631,0.804C-0.666,0.866 -0.691,0.831 -0.724,0.804C-0.948,0.612 -1.136,0.386 -1.349,0.186C-1.77,-0.209 -2.163,-0.625 -2.567,-1.037C-2.584,-1.054 -2.597,-1.073 -2.614,-1.092C-2.608,-1.097 -2.606,-1.106 -2.603,-1.114C-2.346,-1.037 -2.089,-0.958 -1.833,-0.887C-1.319,-0.748 -0.825,-0.559 -0.311,-0.423C-0.213,-0.398 -0.12,-0.355 -0.025,-0.322C0.022,-0.308 0.025,-0.286 0,-0.248Z" style="fill:none;fill-rule:nonzero;stroke:rgb(104,33,95);stroke-width:0.13px;"/>
                    </g>
                    <g transform="matrix(6.12323e-17,1,-1,6.12323e-17,153.694,128.328)">
                        <path d="M0,1.078C-0.076,1.086 -0.153,1.1 -0.259,1.117C-0.249,1.1 -0.238,1.084 -0.229,1.067C0.011,0.698 0.224,0.346 0.437,-0.039C0.478,0.084 0.511,0.18 0.541,0.273C0.554,0.313 0.527,0.341 0.511,0.368C0.396,0.562 0.276,0.751 0.167,0.944C0.158,0.955 0.15,0.969 0.145,0.98C0.109,1.04 0.068,1.073 0,1.078Z" style="fill:none;fill-rule:nonzero;stroke:rgb(104,33,95);stroke-width:0.13px;"/>
                    </g>
                    <g transform="matrix(6.12323e-17,1,-1,6.12323e-17,151.223,131.565)">
                        <path d="M0,0.522C0.164,0.252 0.331,-0.022 0.492,-0.295C0.527,-0.36 0.56,-0.371 0.617,-0.322C0.688,-0.262 0.776,-0.235 0.86,-0.205C0.991,-0.158 1.041,-0.022 0.97,0.093C0.844,0.306 0.713,0.522 0.585,0.735C0.579,0.743 0.576,0.749 0.571,0.757C0.505,0.869 0.358,0.893 0.265,0.806C0.194,0.738 0.12,0.675 0.03,0.634C0.005,0.623 -0.022,0.612 -0.027,0.574C-0.019,0.557 -0.008,0.541 0,0.522Z" style="fill:none;fill-rule:nonzero;stroke:rgb(104,33,95);stroke-width:0.13px;"/>
                    </g>
                    <g transform="matrix(6.12323e-17,1,-1,6.12323e-17,151.363,130.426)">
                        <path d="M0,1.713C0.057,2.341 0.314,2.874 0.754,3.319C0.773,3.338 0.787,3.358 0.803,3.374C0.806,3.376 0.806,3.382 0.808,3.393C0.77,3.417 0.724,3.404 0.683,3.398C-0.104,3.297 -0.849,3.057 -1.571,2.735C-1.713,2.672 -1.841,2.587 -1.964,2.494C-2.005,2.461 -2.046,2.429 -2.084,2.396C-2.529,2.027 -2.901,1.593 -3.215,1.109C-3.261,1.038 -3.324,0.979 -3.362,0.883C-3.283,0.894 -3.212,0.896 -3.146,0.913C-2.95,0.965 -2.78,0.894 -2.608,0.809C-2.155,0.58 -1.822,0.235 -1.603,-0.224C-1.5,-0.442 -1.472,-0.671 -1.505,-0.906C-1.519,-1.007 -1.595,-1.084 -1.685,-1.138C-1.759,-1.185 -1.866,-1.21 -1.896,-1.286C-1.906,-1.316 -1.901,-1.341 -1.887,-1.362C-1.86,-1.406 -1.8,-1.442 -1.775,-1.488C-1.737,-1.565 -1.691,-1.636 -1.639,-1.704L-1.497,-1.605C-1.502,-1.603 -1.508,-1.595 -1.513,-1.589C-1.549,-1.543 -1.513,-1.494 -1.491,-1.453C-1.284,-1.005 -1.032,-0.584 -0.721,-0.202C-0.653,-0.114 -0.636,-0.06 -0.683,0.041C-0.819,0.347 -0.991,0.615 -1.297,0.771C-1.426,0.836 -1.568,0.888 -1.71,0.834C-1.803,0.798 -1.797,0.836 -1.8,0.902C-1.808,1.142 -1.674,1.333 -1.573,1.533C-1.513,1.65 -1.415,1.713 -1.281,1.719C-1.207,1.721 -1.136,1.738 -1.062,1.743C-0.833,1.762 -0.604,1.759 -0.35,1.705C-0.388,1.672 -0.407,1.661 -0.421,1.647C-0.593,1.473 -0.691,1.281 -0.609,1.027C-0.524,0.774 -0.377,0.56 -0.197,0.366C-0.158,0.328 -0.115,0.301 -0.063,0.287C-0.016,0.274 0.03,0.257 0.049,0.334C0.06,0.38 0.098,0.383 0.139,0.356C0.385,0.194 0.666,0.137 0.951,0.104C1.032,0.093 1.041,0.074 1.027,0.028L1.3,0.197C1.215,0.336 1.136,0.476 1.06,0.615C1.057,0.618 1.057,0.62 1.054,0.623C1.013,0.694 0.97,0.722 0.885,0.705C0.765,0.681 0.642,0.672 0.522,0.691C0.306,0.724 0.172,0.858 0.09,1.049C0,1.26 -0.022,1.481 0,1.713Z" style="fill:none;fill-rule:nonzero;stroke:rgb(104,33,95);stroke-width:0.13px;"/>
                    </g>
                    <g transform="matrix(6.12323e-17,1,-1,6.12323e-17,151.258,130.636)">
                        <path d="M0,-0.801C-0.025,-0.883 0.025,-0.905 0.079,-0.899C0.229,-0.883 0.377,-0.875 0.524,-0.918C0.565,-0.929 0.568,-0.902 0.568,-0.872C0.563,-0.626 0.609,-0.391 0.694,-0.165C0.713,-0.112 0.691,-0.099 0.645,-0.093C0.418,-0.058 0.205,0.013 -0.008,0.092C-0.038,0.103 -0.066,0.128 -0.082,0.079C-0.142,-0.093 -0.254,-0.23 -0.399,-0.359C-0.259,-0.405 -0.134,-0.421 -0.011,-0.427C0.06,-0.432 0.082,-0.451 0.06,-0.525C0.033,-0.615 0.027,-0.711 0,-0.801Z" style="fill:none;fill-rule:nonzero;stroke:rgb(104,33,95);stroke-width:0.13px;"/>
                    </g>
                    <g transform="matrix(6.12323e-17,1,-1,6.12323e-17,151.799,130.418)">
                        <path d="M0,-0.803C0.071,-0.781 0.098,-0.759 0.085,-0.683C0.049,-0.467 0.117,-0.268 0.194,-0.074C0.224,0.002 0.208,0.019 0.131,0.027C-0.093,0.044 -0.306,0.098 -0.486,0.235C-0.56,0.29 -0.601,0.257 -0.639,0.202C-0.899,-0.178 -1.164,-0.554 -1.374,-0.964C-1.393,-1 -1.423,-1.032 -1.42,-1.079C-1.382,-1.093 -1.344,-1.09 -1.308,-1.082C-0.871,-0.983 -0.426,-0.94 0,-0.803Z" style="fill:none;fill-rule:nonzero;stroke:rgb(104,33,95);stroke-width:0.13px;"/>
                    </g>
                    <g transform="matrix(6.12323e-17,1,-1,6.12323e-17,150.131,130.276)">
                        <path d="M0,-1.037C-0.074,-0.985 -0.134,-0.925 -0.186,-0.857C-0.358,-0.633 -0.511,-0.404 -0.541,-0.111C-0.557,0.045 -0.541,0.189 -0.464,0.326C-0.426,0.391 -0.445,0.413 -0.513,0.413L-0.732,0.413L-0.732,0.411C-0.784,0.411 -0.836,0.413 -0.89,0.411C-1.248,0.397 -1.494,0.17 -1.54,-0.193C-1.549,-0.261 -1.549,-0.286 -1.461,-0.297C-1.259,-0.324 -1.065,-0.384 -0.907,-0.521C-0.675,-0.717 -0.481,-0.95 -0.366,-1.228C-0.325,-1.327 -0.268,-1.378 -0.186,-1.425C-0.142,-1.45 -0.107,-1.447 -0.076,-1.406C-0.035,-1.357 0.008,-1.313 0.046,-1.261C0.079,-1.215 0.128,-1.16 0.131,-1.108C0.131,-1.045 0.044,-1.067 0,-1.037Z" style="fill:none;fill-rule:nonzero;stroke:rgb(104,33,95);stroke-width:0.13px;"/>
                    </g>
                    <g transform="matrix(6.12323e-17,1,-1,6.12323e-17,144.854,140.292)">
                        <path d="M0,-0.732C0.131,-0.942 0.257,-1.155 0.382,-1.368C0.399,-1.39 0.404,-1.42 0.437,-1.426C0.462,-1.415 0.481,-1.401 0.503,-1.39C1.205,-0.967 1.906,-0.541 2.611,-0.12C2.679,-0.079 2.693,-0.046 2.649,0.022C2.524,0.224 2.401,0.426 2.281,0.631C2.251,0.686 2.223,0.694 2.169,0.658C1.456,0.232 0.743,-0.197 0.03,-0.62C-0.022,-0.653 -0.038,-0.672 0,-0.732Z" style="fill:none;fill-rule:nonzero;stroke:rgb(104,33,95);stroke-width:0.13px;"/>
                    </g>
                    <g transform="matrix(6.12323e-17,1,-1,6.12323e-17,150.923,139.855)">
                        <path d="M0,5.198C-2.526,3.685 -5.039,2.153 -7.579,0.661C-7.667,0.609 -7.691,0.577 -7.626,0.484C-7.478,0.273 -7.353,0.052 -7.23,-0.172C-7.216,-0.196 -7.208,-0.235 -7.164,-0.232C-7.137,-0.215 -7.107,-0.199 -7.077,-0.18C-4.575,1.352 -2.051,2.849 0.462,4.365C0.541,4.411 0.617,4.461 0.721,4.458C0.795,4.455 0.828,4.515 0.787,4.581C0.77,4.605 0.757,4.63 0.743,4.654C0.593,4.887 0.456,5.124 0.317,5.362C0.276,5.433 0.21,5.433 0.172,5.356C0.134,5.277 0.068,5.236 0,5.198ZM-0.716,4.092C-0.808,4.095 -0.904,4.182 -0.907,4.267C-0.91,4.37 -0.806,4.469 -0.686,4.469C-0.601,4.471 -0.511,4.381 -0.511,4.294C-0.513,4.201 -0.623,4.092 -0.716,4.092ZM-2.109,3.338C-2.109,3.245 -2.221,3.13 -2.311,3.13C-2.409,3.13 -2.51,3.226 -2.505,3.313C-2.499,3.42 -2.404,3.507 -2.286,3.507C-2.201,3.51 -2.111,3.423 -2.109,3.338ZM-4.07,2.371C-4.067,2.478 -3.966,2.568 -3.848,2.57C-3.764,2.57 -3.674,2.48 -3.674,2.393C-3.674,2.306 -3.783,2.194 -3.87,2.191C-3.966,2.191 -4.072,2.284 -4.07,2.371ZM-5.255,1.453C-5.25,1.363 -5.359,1.246 -5.449,1.243C-5.547,1.24 -5.648,1.33 -5.648,1.418C-5.648,1.522 -5.553,1.614 -5.435,1.62C-5.348,1.623 -5.258,1.541 -5.255,1.453ZM-7.05,0.577C-7.052,0.683 -6.946,0.779 -6.828,0.779C-6.744,0.779 -6.654,0.686 -6.656,0.601C-6.656,0.506 -6.768,0.399 -6.861,0.402C-6.957,0.405 -7.05,0.489 -7.05,0.577Z" style="fill:none;fill-rule:nonzero;stroke:rgb(104,33,95);stroke-width:0.13px;"/>
                    </g>
                    <g transform="matrix(6.12323e-17,1,-1,6.12323e-17,154.058,131.027)">
                        <path d="M0,1.278C-0.06,1.303 -0.074,1.284 -0.076,1.229C-0.087,1.106 -0.098,0.986 -0.112,0.866C-0.128,0.729 -0.164,0.598 -0.221,0.472C-0.238,0.439 -0.262,0.401 -0.208,0.377C0.117,0.24 0.426,0.066 0.776,-0.006C0.855,-0.025 0.88,0.002 0.896,0.074C0.951,0.303 0.964,0.535 0.975,0.77L0.975,1.092C0.975,1.131 0.97,1.166 0.918,1.152C0.677,1.092 0.448,1.15 0.216,1.207C0.142,1.223 0.068,1.248 0,1.278Z" style="fill:none;fill-rule:nonzero;stroke:rgb(104,33,95);stroke-width:0.13px;"/>
                    </g>
                    <g transform="matrix(6.12323e-17,1,-1,6.12323e-17,155.465,132.376)">
                        <path d="M0,2.704C-0.205,2.89 -0.393,3.092 -0.513,3.346C-0.582,3.493 -0.574,3.545 -0.448,3.654C-0.333,3.753 -0.328,3.78 -0.407,3.906C-0.492,4.037 -0.574,4.168 -0.65,4.299L-0.923,4.13C-0.926,4.119 -0.931,4.108 -0.934,4.094C-1.024,3.815 -1.112,3.531 -1.087,3.234C-1.079,3.152 -1.12,3.16 -1.174,3.174C-1.344,3.22 -1.519,3.226 -1.693,3.201C-1.753,3.193 -1.778,3.165 -1.773,3.106C-1.767,3.035 -1.764,2.966 -1.759,2.895C-1.753,2.843 -1.773,2.808 -1.827,2.797C-1.98,2.764 -2.119,2.685 -2.275,2.658C-2.622,2.6 -2.972,2.543 -3.319,2.486C-3.362,2.48 -3.411,2.466 -3.447,2.496L-3.589,2.398C-3.534,2.324 -3.474,2.251 -3.42,2.177C-3.387,2.13 -3.357,2.125 -3.308,2.152C-3.209,2.215 -3.108,2.212 -2.999,2.177C-2.655,2.059 -2.376,1.852 -2.133,1.587C-2.07,1.519 -2.062,1.428 -2.089,1.352C-2.141,1.215 -2.18,1.071 -2.292,0.967C-2.327,0.937 -2.313,0.904 -2.302,0.871C-2.084,0.082 -2.297,-0.612 -2.775,-1.243C-2.884,-1.39 -3.004,-1.532 -3.138,-1.696C-2.789,-1.677 -2.464,-1.669 -2.147,-1.609C-1.601,-1.505 -1.057,-1.379 -0.533,-1.196C0.153,-0.959 0.784,-0.606 1.401,-0.227C2.587,0.505 3.491,1.516 4.261,2.66C4.531,3.064 4.824,3.458 5.023,3.909C5.094,4.067 5.168,4.223 5.247,4.4C5.121,4.326 5.015,4.264 4.905,4.201C4.493,3.96 4.053,3.802 3.57,3.797C3.45,3.794 3.31,3.854 3.22,3.81C3.13,3.769 3.092,3.624 3.01,3.537C2.576,3.073 2.062,2.72 1.464,2.505C1.101,2.374 0.721,2.349 0.347,2.491C0.216,2.54 0.101,2.614 0,2.704ZM-1.308,2.791C-1.013,2.698 -0.713,2.633 -0.401,2.666C-0.322,2.674 -0.317,2.622 -0.311,2.567C-0.303,2.436 -0.295,2.302 -0.289,2.22C-0.295,1.947 -0.306,1.723 -0.358,1.505C-0.404,1.303 -0.404,1.303 -0.606,1.349C-0.964,1.431 -1.322,1.51 -1.633,1.72C-1.756,1.808 -1.759,1.803 -1.682,1.931C-1.666,1.956 -1.652,1.986 -1.644,2.015C-1.587,2.223 -1.53,2.431 -1.524,2.649C-1.521,2.865 -1.516,2.859 -1.308,2.791Z" style="fill:none;fill-rule:nonzero;stroke:rgb(104,33,95);stroke-width:0.13px;"/>
                    </g>
                    <g transform="matrix(6.12323e-17,1,-1,6.12323e-17,158.278,140.286)">
                        <path d="M0,9.188C-0.593,8.937 -1.103,8.563 -1.565,8.12C-1.794,7.899 -2.043,7.702 -2.283,7.492C-2.409,7.383 -2.505,7.243 -2.578,7.09C-2.794,6.645 -3.004,6.197 -3.294,5.791C-3.469,5.547 -3.646,5.304 -3.813,5.056C-4.154,4.548 -4.578,4.116 -5.023,3.701C-5.288,3.452 -5.539,3.187 -5.829,2.969C-6.408,2.529 -7.033,2.158 -7.689,1.841C-8.576,1.415 -9.521,1.177 -10.488,1.011C-10.729,0.969 -10.969,0.923 -11.212,0.901C-11.264,0.896 -11.308,0.882 -11.346,0.847C-11.75,0.508 -12.182,0.218 -12.72,0.066C-12.616,0.035 -12.531,0.038 -12.447,0.03C-11.48,-0.044 -10.529,0.074 -9.592,0.303C-8.773,0.505 -7.967,0.743 -7.181,1.046C-6.184,1.431 -5.302,1.994 -4.531,2.737C-4.01,3.242 -3.521,3.78 -3.078,4.357C-2.999,4.46 -2.999,4.463 -3.116,4.512C-3.261,4.572 -3.398,4.649 -3.551,4.695C-3.594,4.709 -3.635,4.733 -3.701,4.761C-3.575,4.801 -3.466,4.807 -3.362,4.821C-3.171,4.842 -2.983,4.878 -2.794,4.908C-2.701,4.925 -2.647,4.968 -2.6,5.047C-2.084,5.897 -1.54,6.73 -1.065,7.607C-0.748,8.194 -0.355,8.727 0.123,9.194C0.128,9.199 0.128,9.207 0.134,9.224C0.082,9.232 0.041,9.205 0,9.188Z" style="fill:none;fill-rule:nonzero;stroke:rgb(104,33,95);stroke-width:0.13px;"/>
                    </g>
                    <g transform="matrix(6.12323e-17,1,-1,6.12323e-17,153.963,131.975)">
                        <path d="M0,1.164C-0.311,1.131 -0.612,1.197 -0.907,1.29C-1.114,1.358 -1.12,1.363 -1.123,1.148C-1.128,0.929 -1.185,0.722 -1.243,0.514C-1.251,0.484 -1.265,0.454 -1.281,0.43C-1.357,0.301 -1.355,0.306 -1.232,0.219C-0.92,0.009 -0.563,-0.071 -0.205,-0.152C-0.003,-0.199 -0.003,-0.199 0.044,0.003C0.096,0.222 0.107,0.446 0.112,0.719C0.107,0.801 0.098,0.935 0.09,1.066C0.085,1.121 0.079,1.172 0,1.164ZM-1.024,1.134C-1.022,1.189 -1.008,1.208 -0.948,1.183C-0.879,1.153 -0.806,1.129 -0.732,1.112C-0.5,1.055 -0.27,0.998 -0.03,1.057C0.022,1.071 0.027,1.036 0.027,0.998L0.027,0.675C0.016,0.44 0.003,0.208 -0.052,-0.021C-0.068,-0.092 -0.093,-0.119 -0.172,-0.101C-0.522,-0.029 -0.83,0.146 -1.155,0.282C-1.21,0.306 -1.185,0.345 -1.169,0.377C-1.112,0.503 -1.076,0.634 -1.06,0.771C-1.046,0.891 -1.035,1.011 -1.024,1.134Z" style="fill:none;fill-rule:nonzero;stroke:rgb(104,33,95);stroke-width:0.13px;"/>
                    </g>
                    <g transform="matrix(6.12323e-17,1,-1,6.12323e-17,150.524,133.026)">
                        <path d="M0,0.38C-0.117,0.38 -0.224,0.284 -0.221,0.178C-0.221,0.09 -0.128,0.006 -0.033,0.003C0.06,0 0.172,0.107 0.172,0.202C0.175,0.287 0.085,0.38 0,0.38ZM-0.128,0.197C-0.131,0.24 -0.104,0.262 -0.063,0.26C-0.005,0.254 0.049,0.24 0.068,0.161C0.055,0.126 0.016,0.104 -0.025,0.101C-0.085,0.101 -0.123,0.137 -0.128,0.197Z" style="fill:none;fill-rule:nonzero;stroke:rgb(104,33,95);stroke-width:0.13px;"/>
                    </g>
                    <g transform="matrix(6.12323e-17,1,-1,6.12323e-17,150.308,131.202)">
                        <path d="M0,-1.983C0.055,-1.997 0.096,-2.005 0.087,-1.923C0.063,-1.625 0.15,-1.341 0.24,-1.063C0.243,-1.049 0.249,-1.038 0.251,-1.027C0.265,-0.981 0.257,-0.961 0.175,-0.951C-0.109,-0.918 -0.391,-0.86 -0.636,-0.699C-0.677,-0.672 -0.716,-0.675 -0.727,-0.721C-0.746,-0.798 -0.792,-0.781 -0.839,-0.768C-0.89,-0.754 -0.934,-0.727 -0.972,-0.688C-1.153,-0.494 -1.3,-0.281 -1.385,-0.027C-1.467,0.227 -1.368,0.418 -1.196,0.593C-1.183,0.606 -1.164,0.617 -1.125,0.65C-1.379,0.705 -1.609,0.707 -1.838,0.688C-1.912,0.683 -1.983,0.666 -2.057,0.664C-2.19,0.658 -2.289,0.595 -2.349,0.478C-2.45,0.279 -2.584,0.087 -2.576,-0.153C-2.573,-0.219 -2.578,-0.257 -2.486,-0.221C-2.343,-0.167 -2.201,-0.219 -2.073,-0.284C-1.767,-0.44 -1.595,-0.707 -1.459,-1.013C-1.412,-1.114 -1.428,-1.169 -1.497,-1.256C-1.808,-1.639 -2.059,-2.059 -2.267,-2.507C-2.289,-2.548 -2.324,-2.598 -2.289,-2.644C-2.283,-2.649 -2.278,-2.658 -2.272,-2.66C-2.237,-2.69 -2.188,-2.677 -2.144,-2.671C-1.797,-2.614 -1.448,-2.557 -1.101,-2.499C-0.945,-2.472 -0.806,-2.393 -0.653,-2.36C-0.598,-2.349 -0.579,-2.314 -0.584,-2.262C-0.59,-2.191 -0.593,-2.122 -0.598,-2.051C-0.604,-1.991 -0.579,-1.964 -0.519,-1.956C-0.344,-1.931 -0.169,-1.937 0,-1.983ZM-0.59,-1.565C-0.666,-1.759 -0.735,-1.958 -0.699,-2.174C-0.686,-2.25 -0.713,-2.273 -0.784,-2.294C-1.21,-2.431 -1.655,-2.475 -2.092,-2.573C-2.128,-2.581 -2.166,-2.584 -2.204,-2.57C-2.207,-2.524 -2.177,-2.491 -2.158,-2.455C-1.947,-2.046 -1.682,-1.669 -1.423,-1.289C-1.385,-1.235 -1.344,-1.202 -1.27,-1.256C-1.09,-1.393 -0.877,-1.448 -0.653,-1.464C-0.576,-1.472 -0.56,-1.489 -0.59,-1.565ZM0.003,-1.822C0.003,-1.852 0,-1.879 -0.041,-1.868C-0.188,-1.825 -0.336,-1.833 -0.486,-1.849C-0.541,-1.855 -0.59,-1.833 -0.565,-1.751C-0.538,-1.661 -0.533,-1.565 -0.505,-1.475C-0.483,-1.401 -0.505,-1.382 -0.576,-1.377C-0.699,-1.371 -0.825,-1.355 -0.964,-1.308C-0.819,-1.18 -0.707,-1.043 -0.647,-0.871C-0.631,-0.822 -0.604,-0.847 -0.574,-0.858C-0.361,-0.937 -0.147,-1.008 0.079,-1.043C0.126,-1.049 0.148,-1.063 0.128,-1.114C0.044,-1.341 -0.003,-1.576 0.003,-1.822ZM-1.112,-0.68C-1.06,-0.748 -1,-0.809 -0.926,-0.86C-0.882,-0.89 -0.795,-0.869 -0.795,-0.931C-0.798,-0.983 -0.847,-1.038 -0.879,-1.084C-0.918,-1.136 -0.961,-1.18 -1.002,-1.229C-1.032,-1.27 -1.068,-1.273 -1.112,-1.248C-1.194,-1.202 -1.251,-1.15 -1.292,-1.052C-1.407,-0.773 -1.601,-0.541 -1.833,-0.344C-1.991,-0.208 -2.185,-0.148 -2.387,-0.12C-2.475,-0.109 -2.475,-0.085 -2.466,-0.016C-2.42,0.347 -2.174,0.574 -1.816,0.587C-1.762,0.59 -1.71,0.587 -1.658,0.587L-1.658,0.59L-1.439,0.59C-1.371,0.59 -1.352,0.568 -1.39,0.503C-1.467,0.366 -1.483,0.221 -1.467,0.065C-1.437,-0.227 -1.284,-0.456 -1.112,-0.68Z" style="fill:none;fill-rule:nonzero;stroke:rgb(104,33,95);stroke-width:0.13px;"/>
                    </g>
                    <g transform="matrix(6.12323e-17,1,-1,6.12323e-17,149.404,134.408)">
                        <path d="M0,-0.175C-0.066,-0.172 -0.104,-0.139 -0.109,-0.079C-0.115,-0.035 -0.082,-0.017 -0.041,-0.019C0.016,-0.022 0.076,-0.038 0.082,-0.107C0.087,-0.161 0.033,-0.164 0,-0.175ZM-0.003,-0.276C0.087,-0.273 0.197,-0.156 0.191,-0.066C0.188,0.022 0.098,0.104 0.011,0.101C-0.107,0.095 -0.202,0.003 -0.202,-0.101C-0.202,-0.189 -0.101,-0.279 -0.003,-0.276Z" style="fill:none;fill-rule:nonzero;stroke:rgb(104,33,95);stroke-width:0.13px;"/>
                    </g>
                    <g transform="matrix(6.12323e-17,1,-1,6.12323e-17,153.341,127.211)">
                        <path d="M0,3.087C0.314,3.571 0.686,4.005 1.131,4.373C1.169,4.406 1.21,4.439 1.251,4.472L1.226,4.507C0.658,4.087 0.197,3.56 -0.175,2.95C-0.205,2.899 -0.221,2.833 -0.29,2.806C-0.489,2.724 -0.677,2.617 -0.874,2.489C-0.869,2.522 -0.869,2.533 -0.866,2.541L-0.929,2.565C-0.97,2.47 -1.005,2.374 -1.041,2.276C-1.046,2.268 -1.043,2.257 -1.043,2.238C-0.934,2.319 -0.836,2.404 -0.732,2.478C-0.483,2.658 -0.208,2.781 0.101,2.817C0.172,2.825 0.202,2.808 0.208,2.735C0.257,2.09 0.385,1.462 0.593,0.85C0.615,0.795 0.604,0.757 0.565,0.711C0.216,0.244 -0.24,-0.122 -0.639,-0.54C-0.89,-0.805 -1.147,-1.07 -1.398,-1.332C-1.415,-1.351 -1.426,-1.373 -1.439,-1.398C-1.374,-1.42 -1.327,-1.384 -1.276,-1.371C-1.226,-1.36 -1.18,-1.346 -1.131,-1.335L-1.153,-1.248C-1.155,-1.239 -1.158,-1.231 -1.164,-1.226C-1.147,-1.207 -1.133,-1.188 -1.117,-1.171C-0.713,-0.759 -0.32,-0.344 0.101,0.052C0.314,0.252 0.503,0.479 0.727,0.67C0.759,0.697 0.784,0.733 0.819,0.67L0.888,0.714C0.879,0.73 0.869,0.746 0.858,0.763C0.964,0.746 1.041,0.733 1.117,0.724C1.185,0.719 1.226,0.686 1.262,0.626C1.267,0.615 1.276,0.601 1.284,0.591L1.327,0.615C1.314,0.637 1.308,0.662 1.319,0.692C1.349,0.768 1.456,0.793 1.53,0.839C1.62,0.894 1.696,0.97 1.71,1.071C1.743,1.306 1.715,1.536 1.611,1.754C1.393,2.213 1.06,2.557 0.606,2.787C0.434,2.871 0.265,2.942 0.068,2.89C0.003,2.874 -0.068,2.871 -0.147,2.86C-0.109,2.956 -0.046,3.016 0,3.087Z" style="fill:none;fill-rule:nonzero;stroke:rgb(104,33,95);stroke-width:0.13px;"/>
                    </g>
                    <g transform="matrix(6.12323e-17,1,-1,6.12323e-17,148.612,135.949)">
                        <path d="M0,0.139C0.057,0.133 0.117,0.12 0.123,0.049C0.126,-0.003 0.074,-0.017 0.033,-0.017C-0.027,-0.019 -0.063,0.016 -0.071,0.079C-0.068,0.122 -0.041,0.142 0,0.139ZM0.057,0.259C-0.06,0.256 -0.161,0.166 -0.164,0.06C-0.167,-0.028 -0.06,-0.12 0.036,-0.12C0.123,-0.118 0.232,-0.006 0.232,0.082C0.232,0.169 0.142,0.259 0.057,0.259Z" style="fill:none;fill-rule:nonzero;stroke:rgb(104,33,95);stroke-width:0.13px;"/>
                    </g>
                    <g transform="matrix(6.12323e-17,1,-1,6.12323e-17,147.413,137.544)">
                        <path d="M0,-0.38C0.09,-0.38 0.202,-0.265 0.202,-0.172C0.199,-0.088 0.109,0 0.025,-0.003C-0.093,-0.003 -0.188,-0.09 -0.194,-0.197C-0.199,-0.284 -0.098,-0.38 0,-0.38ZM0.09,-0.216C0.09,-0.262 0.038,-0.279 -0.005,-0.276C-0.063,-0.276 -0.096,-0.24 -0.101,-0.186C-0.106,-0.134 -0.071,-0.121 -0.027,-0.123C0.036,-0.126 0.093,-0.148 0.09,-0.216Z" style="fill:none;fill-rule:nonzero;stroke:rgb(104,33,95);stroke-width:0.13px;"/>
                    </g>
                    <g transform="matrix(6.12323e-17,1,-1,6.12323e-17,146.626,138.948)">
                        <path d="M0,-0.03C0.003,-0.115 0.098,-0.202 0.191,-0.205C0.284,-0.205 0.393,-0.096 0.396,-0.002C0.396,0.085 0.306,0.175 0.221,0.172C0.101,0.172 -0.003,0.074 0,-0.03ZM0.191,-0.101C0.137,-0.104 0.101,-0.068 0.096,-0.013C0.09,0.038 0.123,0.052 0.156,0.052C0.227,0.046 0.284,0.027 0.287,-0.041C0.287,-0.087 0.235,-0.101 0.191,-0.101Z" style="fill:none;fill-rule:nonzero;stroke:rgb(104,33,95);stroke-width:0.13px;"/>
                    </g>
                    <g transform="matrix(6.12323e-17,1,-1,6.12323e-17,144.875,127.411)">
                        <path d="M0,-13.455C0.754,-13.523 1.51,-13.548 2.259,-13.43C3.343,-13.261 4.406,-12.985 5.435,-12.6C5.531,-12.564 5.618,-12.559 5.719,-12.586C6.487,-12.789 7.271,-12.892 8.063,-12.843C11.351,-12.647 13.853,-10.59 14.861,-7.949C15.768,-5.575 15.544,-3.278 14.249,-1.088C14.203,-1.008 14.217,-0.981 14.29,-0.937C14.727,-0.683 15.162,-0.421 15.596,-0.162C15.689,-0.107 15.702,-0.058 15.648,0.035C15.637,0.054 15.623,0.073 15.612,0.093L15.53,0.043C15.574,-0.025 15.56,-0.058 15.492,-0.099C14.787,-0.519 14.086,-0.945 13.384,-1.369C13.362,-1.38 13.343,-1.393 13.318,-1.404C13.285,-1.399 13.28,-1.369 13.263,-1.347L13.187,-1.393C13.201,-1.418 13.214,-1.443 13.231,-1.467C13.272,-1.533 13.239,-1.593 13.165,-1.59C13.061,-1.587 12.985,-1.636 12.906,-1.683C10.393,-3.199 7.869,-4.696 5.367,-6.228C5.337,-6.247 5.307,-6.263 5.28,-6.28C5.236,-6.282 5.228,-6.244 5.214,-6.22C5.091,-5.995 4.966,-5.774 4.818,-5.564L4.739,-5.613C4.867,-5.826 4.998,-6.042 5.124,-6.255C5.195,-6.37 5.146,-6.506 5.015,-6.553C4.93,-6.583 4.843,-6.61 4.772,-6.67C4.714,-6.72 4.682,-6.709 4.646,-6.643C4.485,-6.37 4.318,-6.097 4.154,-5.826L4.075,-5.873C4.152,-6.012 4.231,-6.151 4.316,-6.291C4.392,-6.422 4.474,-6.553 4.559,-6.684C4.638,-6.81 4.632,-6.837 4.518,-6.935C4.392,-7.044 4.384,-7.096 4.452,-7.244C4.572,-7.498 4.761,-7.7 4.966,-7.886C5.067,-7.976 5.181,-8.05 5.312,-8.099C5.687,-8.241 6.066,-8.216 6.43,-8.085C7.028,-7.869 7.541,-7.517 7.976,-7.053C8.057,-6.965 8.096,-6.821 8.186,-6.78C8.276,-6.736 8.415,-6.796 8.535,-6.793C9.019,-6.788 9.459,-6.629 9.871,-6.389C9.98,-6.326 10.087,-6.263 10.212,-6.189C10.133,-6.367 10.06,-6.523 9.988,-6.681C9.789,-7.132 9.497,-7.525 9.226,-7.93C8.456,-9.074 7.552,-10.084 6.367,-10.817C5.749,-11.196 5.119,-11.549 4.433,-11.786C3.909,-11.969 3.365,-12.095 2.819,-12.198C2.502,-12.258 2.177,-12.267 1.827,-12.286C1.961,-12.122 2.081,-11.98 2.191,-11.833C2.669,-11.202 2.882,-10.508 2.663,-9.718C2.652,-9.685 2.638,-9.653 2.674,-9.623C2.786,-9.519 2.824,-9.374 2.876,-9.238C2.903,-9.161 2.895,-9.071 2.832,-9.003C2.589,-8.738 2.311,-8.53 1.967,-8.413C1.857,-8.377 1.756,-8.374 1.658,-8.438C1.609,-8.465 1.579,-8.459 1.546,-8.413C1.491,-8.339 1.431,-8.265 1.377,-8.191C1.325,-8.123 1.278,-8.052 1.24,-7.976C1.215,-7.93 1.155,-7.894 1.128,-7.85L1.084,-7.875C1.194,-8.069 1.314,-8.257 1.429,-8.451C1.445,-8.478 1.472,-8.506 1.459,-8.547C1.429,-8.639 1.396,-8.735 1.355,-8.858C1.142,-8.473 0.929,-8.121 0.688,-7.752L0.62,-7.795C0.822,-8.151 1.03,-8.503 1.251,-8.847C1.276,-8.885 1.273,-8.907 1.226,-8.921C1.131,-8.954 1.038,-8.997 0.94,-9.022C0.426,-9.159 -0.068,-9.347 -0.582,-9.486C-0.839,-9.557 -1.095,-9.637 -1.352,-9.713L-1.33,-9.8C-0.625,-9.62 0.063,-9.38 0.762,-9.172C1.065,-9.085 1.065,-9.09 1.24,-9.352C1.59,-9.888 1.997,-10.374 2.469,-10.803C2.535,-10.863 2.551,-10.912 2.518,-10.991C2.264,-11.617 1.887,-12.144 1.355,-12.562C0.904,-12.914 0.412,-13.174 -0.139,-13.315C-0.191,-13.329 -0.246,-13.346 -0.295,-13.389C-0.199,-13.436 -0.098,-13.444 0,-13.455ZM9.063,-8.347C9.229,-8.099 9.407,-7.856 9.582,-7.612C9.871,-7.205 10.081,-6.757 10.297,-6.313C10.371,-6.16 10.466,-6.02 10.592,-5.911C10.832,-5.7 11.081,-5.504 11.31,-5.283C11.772,-4.84 12.283,-4.466 12.876,-4.215C12.916,-4.198 12.957,-4.171 13.009,-4.179C13.004,-4.196 13.004,-4.204 12.998,-4.209C12.52,-4.676 12.127,-5.209 11.81,-5.796C11.335,-6.673 10.792,-7.506 10.275,-8.356C10.229,-8.435 10.174,-8.478 10.081,-8.495C9.893,-8.525 9.704,-8.56 9.513,-8.582C9.409,-8.596 9.3,-8.601 9.175,-8.642C9.24,-8.669 9.281,-8.694 9.325,-8.708C9.478,-8.754 9.614,-8.831 9.759,-8.891C9.876,-8.94 9.876,-8.943 9.797,-9.046C9.355,-9.623 8.866,-10.161 8.344,-10.666C7.574,-11.409 6.692,-11.972 5.695,-12.357C4.908,-12.66 4.102,-12.898 3.283,-13.1C2.346,-13.329 1.396,-13.447 0.429,-13.373C0.344,-13.365 0.259,-13.368 0.156,-13.337C0.694,-13.185 1.125,-12.895 1.53,-12.556C1.568,-12.521 1.611,-12.507 1.663,-12.502C1.906,-12.48 2.147,-12.433 2.387,-12.392C3.354,-12.226 4.299,-11.988 5.187,-11.562C5.842,-11.245 6.468,-10.874 7.047,-10.434C7.336,-10.216 7.588,-9.951 7.853,-9.702C8.298,-9.287 8.721,-8.855 9.063,-8.347Z" style="fill:none;fill-rule:nonzero;stroke:rgb(104,33,95);stroke-width:0.13px;"/>
                    </g>
                    <g transform="matrix(6.12323e-17,1,-1,6.12323e-17,148.743,130.156)">
                        <path d="M0,4.638C-1.464,3.426 -2.335,1.855 -2.66,-0.019C-2.671,-0.081 -2.69,-0.136 -2.737,-0.186C-3.253,-0.718 -3.605,-1.352 -3.873,-2.032L-3.81,-2.057C-3.559,-1.486 -3.272,-0.937 -2.862,-0.459C-2.666,-0.229 -2.464,0.003 -2.221,0.183C-1.535,0.697 -0.746,0.992 0.074,1.213C0.664,1.374 1.276,1.388 1.876,1.478C1.885,1.478 1.893,1.472 1.907,1.47C1.898,1.456 1.893,1.448 1.885,1.443C1.642,1.303 1.429,1.123 1.235,0.921C1.213,0.896 1.188,0.88 1.153,0.877C1.002,0.869 0.858,0.817 0.71,0.803C0.317,0.768 -0.057,0.656 -0.429,0.533C-0.828,0.404 -1.224,0.257 -1.57,0.019C-1.62,-0.016 -1.669,-0.052 -1.718,-0.09L-1.693,-0.125C-1.57,-0.033 -1.442,0.052 -1.3,0.115C-0.579,0.437 0.167,0.678 0.953,0.779C0.994,0.784 1.041,0.798 1.079,0.773C1.076,0.763 1.076,0.757 1.073,0.754C1.057,0.738 1.043,0.719 1.024,0.699C0.585,0.254 0.328,-0.278 0.27,-0.907C0.249,-1.139 0.27,-1.36 0.361,-1.57C0.443,-1.762 0.576,-1.895 0.792,-1.928C0.912,-1.947 1.035,-1.939 1.155,-1.914C1.24,-1.898 1.284,-1.925 1.325,-1.996C1.327,-1.999 1.327,-2.002 1.33,-2.004L1.409,-1.958C1.401,-1.939 1.39,-1.923 1.382,-1.906C1.388,-1.868 1.415,-1.857 1.439,-1.846C1.53,-1.805 1.603,-1.742 1.674,-1.674C1.767,-1.587 1.915,-1.611 1.98,-1.723C1.986,-1.731 1.988,-1.737 1.994,-1.745L2.073,-1.696C2.008,-1.603 2.032,-1.57 2.12,-1.518C4.66,-0.027 7.172,1.505 9.699,3.018C9.767,3.057 9.833,3.098 9.871,3.177C9.909,3.253 9.975,3.253 10.016,3.182C10.155,2.945 10.292,2.707 10.442,2.475L10.518,2.521C10.393,2.734 10.267,2.948 10.136,3.158C10.098,3.218 10.114,3.237 10.166,3.27C10.879,3.693 11.592,4.122 12.305,4.548C12.359,4.584 12.387,4.575 12.417,4.521C12.537,4.316 12.66,4.114 12.785,3.911L12.867,3.961C12.739,4.174 12.611,4.389 12.482,4.602C12.419,4.706 12.373,4.717 12.269,4.655C11.808,4.373 11.343,4.095 10.882,3.813C10.816,3.772 10.781,3.772 10.726,3.833C9.494,5.209 7.97,6.069 6.146,6.345C3.848,6.695 1.786,6.121 0,4.638Z" style="fill:none;fill-rule:nonzero;stroke:rgb(104,33,95);stroke-width:0.13px;"/>
                    </g>
                </g>
            </g>
            <g transform="matrix(-0.989425,0.145047,0.145047,0.989425,146.743,139.111)">
                <path d="M0.092,-0.081C0.038,-0.068 0.009,-0.028 0.02,0.026C0.026,0.069 0.046,0.118 0.092,0.112C0.16,0.099 0.17,0.04 0.165,-0.031C0.16,-0.064 0.143,-0.094 0.092,-0.081" style="fill:white;fill-rule:nonzero;"/>
            </g>
            <g transform="matrix(0.142327,-0.98982,-0.98982,-0.142327,147.537,137.525)">
                <path d="M0.008,-0.152C-0.035,-0.162 -0.089,-0.152 -0.096,-0.107C-0.107,-0.039 -0.054,-0.009 0.008,0.002C0.051,0.011 0.088,0.002 0.09,-0.05C0.092,-0.104 0.064,-0.144 0.008,-0.152" style="fill:white;fill-rule:nonzero;"/>
            </g>
            <g transform="matrix(0.988254,-0.152823,-0.152823,-0.988254,148.643,135.949)">
                <path d="M-0.098,-0.109C-0.167,-0.093 -0.172,-0.031 -0.168,0.027C-0.165,0.067 -0.142,0.091 -0.098,0.088C-0.037,0.07 -0.008,0.029 -0.019,-0.03C-0.025,-0.07 -0.047,-0.12 -0.098,-0.109" style="fill:white;fill-rule:nonzero;"/>
            </g>
            <g transform="matrix(-0.989425,0.145047,0.145047,0.989425,149.592,134.365)">
                <path d="M0.098,-0.081C0.04,-0.067 0.013,-0.024 0.019,0.041C0.035,0.072 0.046,0.126 0.098,0.112C0.166,0.097 0.173,0.036 0.168,-0.022C0.165,-0.063 0.141,-0.092 0.098,-0.081" style="fill:white;fill-rule:nonzero;"/>
            </g>
            <g transform="matrix(-0.233838,0.972275,0.972275,0.233838,150.274,132.946)">
                <path d="M0.019,-0.005C-0.02,-0.018 -0.052,-0.003 -0.06,0.041C-0.068,0.1 -0.039,0.143 0.019,0.157C0.059,0.165 0.101,0.152 0.123,0.121C0.123,0.039 0.073,0.013 0.019,-0.005" style="fill:white;fill-rule:nonzero;"/>
            </g>
            <g transform="matrix(6.12323e-17,1,-1,6.12323e-17,150.851,132.032)">
                <path d="M0,3.586C-0.601,3.496 -1.213,3.482 -1.803,3.321C-2.622,3.1 -3.411,2.805 -4.097,2.291C-4.34,2.111 -4.542,1.879 -4.739,1.649C-5.149,1.171 -5.435,0.622 -5.687,0.052C-5.689,0.043 -5.689,0.032 -5.695,0C-5.498,0.128 -5.31,0.234 -5.11,0.316C-5.042,0.344 -5.026,0.409 -4.996,0.461C-4.624,1.07 -4.163,1.598 -3.594,2.018C-3.545,2.056 -3.496,2.092 -3.447,2.127C-3.1,2.365 -2.704,2.512 -2.305,2.641C-1.934,2.764 -1.56,2.876 -1.166,2.911C-1.019,2.925 -0.874,2.977 -0.724,2.985C-0.688,2.988 -0.664,3.004 -0.642,3.029C-0.448,3.231 -0.235,3.411 0.008,3.55C0.016,3.556 0.022,3.564 0.03,3.578C0.016,3.58 0.008,3.586 0,3.586" style="fill:white;fill-rule:nonzero;"/>
            </g>
            <g transform="matrix(6.12323e-17,1,-1,6.12323e-17,153.474,128.662)">
                <path d="M0,-0.248C-0.221,0.096 -0.429,0.448 -0.631,0.804C-0.666,0.866 -0.691,0.831 -0.724,0.804C-0.948,0.612 -1.136,0.386 -1.349,0.186C-1.77,-0.209 -2.163,-0.625 -2.567,-1.037C-2.584,-1.054 -2.597,-1.073 -2.614,-1.092C-2.608,-1.097 -2.606,-1.106 -2.603,-1.114C-2.346,-1.037 -2.089,-0.958 -1.833,-0.887C-1.319,-0.748 -0.825,-0.559 -0.311,-0.423C-0.213,-0.398 -0.12,-0.355 -0.025,-0.322C0.022,-0.308 0.025,-0.286 0,-0.248" style="fill:white;fill-rule:nonzero;"/>
            </g>
            <g transform="matrix(6.12323e-17,1,-1,6.12323e-17,153.694,128.328)">
                <path d="M0,1.078C-0.076,1.086 -0.153,1.1 -0.259,1.117C-0.249,1.1 -0.238,1.084 -0.229,1.067C0.011,0.698 0.224,0.346 0.437,-0.039C0.478,0.084 0.511,0.18 0.541,0.273C0.554,0.313 0.527,0.341 0.511,0.368C0.396,0.562 0.276,0.751 0.167,0.944C0.158,0.955 0.15,0.969 0.145,0.98C0.109,1.04 0.068,1.073 0,1.078" style="fill:white;fill-rule:nonzero;"/>
            </g>
            <g transform="matrix(6.12323e-17,1,-1,6.12323e-17,151.223,131.565)">
                <path d="M0,0.522C0.164,0.252 0.331,-0.022 0.492,-0.295C0.527,-0.36 0.56,-0.371 0.617,-0.322C0.688,-0.262 0.776,-0.235 0.86,-0.205C0.991,-0.158 1.041,-0.022 0.97,0.093C0.844,0.306 0.713,0.522 0.585,0.735C0.579,0.743 0.576,0.749 0.571,0.757C0.505,0.869 0.358,0.893 0.265,0.806C0.194,0.738 0.12,0.675 0.03,0.634C0.005,0.623 -0.022,0.612 -0.027,0.574C-0.019,0.557 -0.008,0.541 0,0.522" style="fill:white;fill-rule:nonzero;"/>
            </g>
            <g transform="matrix(6.12323e-17,1,-1,6.12323e-17,151.363,130.426)">
                <path d="M0,1.713C0.057,2.341 0.314,2.874 0.754,3.319C0.773,3.338 0.787,3.358 0.803,3.374C0.806,3.376 0.806,3.382 0.808,3.393C0.77,3.417 0.724,3.404 0.683,3.398C-0.104,3.297 -0.849,3.057 -1.571,2.735C-1.713,2.672 -1.841,2.587 -1.964,2.494C-2.005,2.461 -2.046,2.429 -2.084,2.396C-2.529,2.027 -2.901,1.593 -3.215,1.109C-3.261,1.038 -3.324,0.979 -3.362,0.883C-3.283,0.894 -3.212,0.896 -3.146,0.913C-2.95,0.965 -2.78,0.894 -2.608,0.809C-2.155,0.58 -1.822,0.235 -1.603,-0.224C-1.5,-0.442 -1.472,-0.671 -1.505,-0.906C-1.519,-1.007 -1.595,-1.084 -1.685,-1.138C-1.759,-1.185 -1.866,-1.21 -1.896,-1.286C-1.906,-1.316 -1.901,-1.341 -1.887,-1.362C-1.86,-1.406 -1.8,-1.442 -1.775,-1.488C-1.737,-1.565 -1.691,-1.636 -1.639,-1.704L-1.497,-1.605C-1.502,-1.603 -1.508,-1.595 -1.513,-1.589C-1.549,-1.543 -1.513,-1.494 -1.491,-1.453C-1.284,-1.005 -1.032,-0.584 -0.721,-0.202C-0.653,-0.114 -0.636,-0.06 -0.683,0.041C-0.819,0.347 -0.991,0.615 -1.297,0.771C-1.426,0.836 -1.568,0.888 -1.71,0.834C-1.803,0.798 -1.797,0.836 -1.8,0.902C-1.808,1.142 -1.674,1.333 -1.573,1.533C-1.513,1.65 -1.415,1.713 -1.281,1.719C-1.207,1.721 -1.136,1.738 -1.062,1.743C-0.833,1.762 -0.604,1.759 -0.35,1.705C-0.388,1.672 -0.407,1.661 -0.421,1.647C-0.593,1.473 -0.691,1.281 -0.609,1.027C-0.524,0.774 -0.377,0.56 -0.197,0.366C-0.158,0.328 -0.115,0.301 -0.063,0.287C-0.016,0.274 0.03,0.257 0.049,0.334C0.06,0.38 0.098,0.383 0.139,0.356C0.385,0.194 0.666,0.137 0.951,0.104C1.032,0.093 1.041,0.074 1.027,0.028L1.3,0.197C1.215,0.336 1.136,0.476 1.06,0.615C1.057,0.618 1.057,0.62 1.054,0.623C1.013,0.694 0.97,0.722 0.885,0.705C0.765,0.681 0.642,0.672 0.522,0.691C0.306,0.724 0.172,0.858 0.09,1.049C0,1.26 -0.022,1.481 0,1.713" style="fill:white;fill-rule:nonzero;"/>
            </g>
            <g transform="matrix(6.12323e-17,1,-1,6.12323e-17,151.258,130.636)">
                <path d="M0,-0.801C-0.025,-0.883 0.025,-0.905 0.079,-0.899C0.229,-0.883 0.377,-0.875 0.524,-0.918C0.565,-0.929 0.568,-0.902 0.568,-0.872C0.563,-0.626 0.609,-0.391 0.694,-0.165C0.713,-0.112 0.691,-0.099 0.645,-0.093C0.418,-0.058 0.205,0.013 -0.008,0.092C-0.038,0.103 -0.066,0.128 -0.082,0.079C-0.142,-0.093 -0.254,-0.23 -0.399,-0.359C-0.259,-0.405 -0.134,-0.421 -0.011,-0.427C0.06,-0.432 0.082,-0.451 0.06,-0.525C0.033,-0.615 0.027,-0.711 0,-0.801" style="fill:white;fill-rule:nonzero;"/>
            </g>
            <g transform="matrix(6.12323e-17,1,-1,6.12323e-17,151.799,130.418)">
                <path d="M0,-0.803C0.071,-0.781 0.098,-0.759 0.085,-0.683C0.049,-0.467 0.117,-0.268 0.194,-0.074C0.224,0.002 0.208,0.019 0.131,0.027C-0.093,0.044 -0.306,0.098 -0.486,0.235C-0.56,0.29 -0.601,0.257 -0.639,0.202C-0.899,-0.178 -1.164,-0.554 -1.374,-0.964C-1.393,-1 -1.423,-1.032 -1.42,-1.079C-1.382,-1.093 -1.344,-1.09 -1.308,-1.082C-0.871,-0.983 -0.426,-0.94 0,-0.803" style="fill:white;fill-rule:nonzero;"/>
            </g>
            <g transform="matrix(6.12323e-17,1,-1,6.12323e-17,150.131,130.276)">
                <path d="M0,-1.037C-0.074,-0.985 -0.134,-0.925 -0.186,-0.857C-0.358,-0.633 -0.511,-0.404 -0.541,-0.111C-0.557,0.045 -0.541,0.189 -0.464,0.326C-0.426,0.391 -0.445,0.413 -0.513,0.413L-0.732,0.413L-0.732,0.411C-0.784,0.411 -0.836,0.413 -0.89,0.411C-1.248,0.397 -1.494,0.17 -1.54,-0.193C-1.549,-0.261 -1.549,-0.286 -1.461,-0.297C-1.259,-0.324 -1.065,-0.384 -0.907,-0.521C-0.675,-0.717 -0.481,-0.95 -0.366,-1.228C-0.325,-1.327 -0.268,-1.378 -0.186,-1.425C-0.142,-1.45 -0.107,-1.447 -0.076,-1.406C-0.035,-1.357 0.008,-1.313 0.046,-1.261C0.079,-1.215 0.128,-1.16 0.131,-1.108C0.131,-1.045 0.044,-1.067 0,-1.037" style="fill:white;fill-rule:nonzero;"/>
            </g>
            <g transform="matrix(6.12323e-17,1,-1,6.12323e-17,144.854,140.292)">
                <path d="M0,-0.732C0.131,-0.942 0.257,-1.155 0.382,-1.368C0.399,-1.39 0.404,-1.42 0.437,-1.426C0.462,-1.415 0.481,-1.401 0.503,-1.39C1.205,-0.967 1.906,-0.541 2.611,-0.12C2.679,-0.079 2.693,-0.046 2.649,0.022C2.524,0.224 2.401,0.426 2.281,0.631C2.251,0.686 2.223,0.694 2.169,0.658C1.456,0.232 0.743,-0.197 0.03,-0.62C-0.022,-0.653 -0.038,-0.672 0,-0.732" style="fill:white;fill-rule:nonzero;"/>
            </g>
            <g transform="matrix(6.12323e-17,1,-1,6.12323e-17,150.923,139.855)">
                <path d="M0,5.198C-2.526,3.685 -5.039,2.153 -7.579,0.661C-7.667,0.609 -7.691,0.577 -7.626,0.484C-7.478,0.273 -7.353,0.052 -7.23,-0.172C-7.216,-0.196 -7.208,-0.235 -7.164,-0.232C-7.137,-0.215 -7.107,-0.199 -7.077,-0.18C-4.575,1.352 -2.051,2.849 0.462,4.365C0.541,4.411 0.617,4.461 0.721,4.458C0.795,4.455 0.828,4.515 0.787,4.581C0.77,4.605 0.757,4.63 0.743,4.654C0.593,4.887 0.456,5.124 0.317,5.362C0.276,5.433 0.21,5.433 0.172,5.356C0.134,5.277 0.068,5.236 0,5.198M-0.716,4.092C-0.808,4.095 -0.904,4.182 -0.907,4.267C-0.91,4.37 -0.806,4.469 -0.686,4.469C-0.601,4.471 -0.511,4.381 -0.511,4.294C-0.513,4.201 -0.623,4.092 -0.716,4.092M-2.109,3.338C-2.109,3.245 -2.221,3.13 -2.311,3.13C-2.409,3.13 -2.51,3.226 -2.505,3.313C-2.499,3.42 -2.404,3.507 -2.286,3.507C-2.201,3.51 -2.111,3.423 -2.109,3.338M-4.07,2.371C-4.067,2.478 -3.966,2.568 -3.848,2.57C-3.764,2.57 -3.674,2.48 -3.674,2.393C-3.674,2.306 -3.783,2.194 -3.87,2.191C-3.966,2.191 -4.072,2.284 -4.07,2.371M-5.255,1.453C-5.25,1.363 -5.359,1.246 -5.449,1.243C-5.547,1.24 -5.648,1.33 -5.648,1.418C-5.648,1.522 -5.553,1.614 -5.435,1.62C-5.348,1.623 -5.258,1.541 -5.255,1.453M-7.05,0.577C-7.052,0.683 -6.946,0.779 -6.828,0.779C-6.744,0.779 -6.654,0.686 -6.656,0.601C-6.656,0.506 -6.768,0.399 -6.861,0.402C-6.957,0.405 -7.05,0.489 -7.05,0.577" style="fill:white;fill-rule:nonzero;"/>
            </g>
            <g transform="matrix(6.12323e-17,1,-1,6.12323e-17,154.058,131.027)">
                <path d="M0,1.278C-0.06,1.303 -0.074,1.284 -0.076,1.229C-0.087,1.106 -0.098,0.986 -0.112,0.866C-0.128,0.729 -0.164,0.598 -0.221,0.472C-0.238,0.439 -0.262,0.401 -0.208,0.377C0.117,0.24 0.426,0.066 0.776,-0.006C0.855,-0.025 0.88,0.002 0.896,0.074C0.951,0.303 0.964,0.535 0.975,0.77L0.975,1.092C0.975,1.131 0.97,1.166 0.918,1.152C0.677,1.092 0.448,1.15 0.216,1.207C0.142,1.223 0.068,1.248 0,1.278" style="fill:white;fill-rule:nonzero;"/>
            </g>
            <g transform="matrix(6.12323e-17,1,-1,6.12323e-17,155.465,132.376)">
                <path d="M0,2.704C-0.205,2.89 -0.393,3.092 -0.513,3.346C-0.582,3.493 -0.574,3.545 -0.448,3.654C-0.333,3.753 -0.328,3.78 -0.407,3.906C-0.492,4.037 -0.574,4.168 -0.65,4.299L-0.923,4.13C-0.926,4.119 -0.931,4.108 -0.934,4.094C-1.024,3.815 -1.112,3.531 -1.087,3.234C-1.079,3.152 -1.12,3.16 -1.174,3.174C-1.344,3.22 -1.519,3.226 -1.693,3.201C-1.753,3.193 -1.778,3.165 -1.773,3.106C-1.767,3.035 -1.764,2.966 -1.759,2.895C-1.753,2.843 -1.773,2.808 -1.827,2.797C-1.98,2.764 -2.119,2.685 -2.275,2.658C-2.622,2.6 -2.972,2.543 -3.319,2.486C-3.362,2.48 -3.411,2.466 -3.447,2.496L-3.589,2.398C-3.534,2.324 -3.474,2.251 -3.42,2.177C-3.387,2.13 -3.357,2.125 -3.308,2.152C-3.209,2.215 -3.108,2.212 -2.999,2.177C-2.655,2.059 -2.376,1.852 -2.133,1.587C-2.07,1.519 -2.062,1.428 -2.089,1.352C-2.141,1.215 -2.18,1.071 -2.292,0.967C-2.327,0.937 -2.313,0.904 -2.302,0.871C-2.084,0.082 -2.297,-0.612 -2.775,-1.243C-2.884,-1.39 -3.004,-1.532 -3.138,-1.696C-2.789,-1.677 -2.464,-1.669 -2.147,-1.609C-1.601,-1.505 -1.057,-1.379 -0.533,-1.196C0.153,-0.959 0.784,-0.606 1.401,-0.227C2.587,0.505 3.491,1.516 4.261,2.66C4.531,3.064 4.824,3.458 5.023,3.909C5.094,4.067 5.168,4.223 5.247,4.4C5.121,4.326 5.015,4.264 4.905,4.201C4.493,3.96 4.053,3.802 3.57,3.797C3.45,3.794 3.31,3.854 3.22,3.81C3.13,3.769 3.092,3.624 3.01,3.537C2.576,3.073 2.062,2.72 1.464,2.505C1.101,2.374 0.721,2.349 0.347,2.491C0.216,2.54 0.101,2.614 0,2.704M-1.308,2.791C-1.013,2.698 -0.713,2.633 -0.401,2.666C-0.322,2.674 -0.317,2.622 -0.311,2.567C-0.303,2.436 -0.295,2.302 -0.289,2.22C-0.295,1.947 -0.306,1.723 -0.358,1.505C-0.404,1.303 -0.404,1.303 -0.606,1.349C-0.964,1.431 -1.322,1.51 -1.633,1.72C-1.756,1.808 -1.759,1.803 -1.682,1.931C-1.666,1.956 -1.652,1.986 -1.644,2.015C-1.587,2.223 -1.53,2.431 -1.524,2.649C-1.521,2.865 -1.516,2.859 -1.308,2.791" style="fill:white;fill-rule:nonzero;"/>
            </g>
            <g transform="matrix(6.12323e-17,1,-1,6.12323e-17,158.278,140.286)">
                <path d="M0,9.188C-0.593,8.937 -1.103,8.563 -1.565,8.12C-1.794,7.899 -2.043,7.702 -2.283,7.492C-2.409,7.383 -2.505,7.243 -2.578,7.09C-2.794,6.645 -3.004,6.197 -3.294,5.791C-3.469,5.547 -3.646,5.304 -3.813,5.056C-4.154,4.548 -4.578,4.116 -5.023,3.701C-5.288,3.452 -5.539,3.187 -5.829,2.969C-6.408,2.529 -7.033,2.158 -7.689,1.841C-8.576,1.415 -9.521,1.177 -10.488,1.011C-10.729,0.969 -10.969,0.923 -11.212,0.901C-11.264,0.896 -11.308,0.882 -11.346,0.847C-11.75,0.508 -12.182,0.218 -12.72,0.066C-12.616,0.035 -12.531,0.038 -12.447,0.03C-11.48,-0.044 -10.529,0.074 -9.592,0.303C-8.773,0.505 -7.967,0.743 -7.181,1.046C-6.184,1.431 -5.302,1.994 -4.531,2.737C-4.01,3.242 -3.521,3.78 -3.078,4.357C-2.999,4.46 -2.999,4.463 -3.116,4.512C-3.261,4.572 -3.398,4.649 -3.551,4.695C-3.594,4.709 -3.635,4.733 -3.701,4.761C-3.575,4.801 -3.466,4.807 -3.362,4.821C-3.171,4.842 -2.983,4.878 -2.794,4.908C-2.701,4.925 -2.647,4.968 -2.6,5.047C-2.084,5.897 -1.54,6.73 -1.065,7.607C-0.748,8.194 -0.355,8.727 0.123,9.194C0.128,9.199 0.128,9.207 0.134,9.224C0.082,9.232 0.041,9.205 0,9.188" style="fill:white;fill-rule:nonzero;"/>
            </g>
            <g transform="matrix(6.12323e-17,1,-1,6.12323e-17,153.963,131.975)">
                <path d="M0,1.164C-0.311,1.131 -0.612,1.197 -0.907,1.29C-1.114,1.358 -1.12,1.363 -1.123,1.148C-1.128,0.929 -1.185,0.722 -1.243,0.514C-1.251,0.484 -1.265,0.454 -1.281,0.43C-1.357,0.301 -1.355,0.306 -1.232,0.219C-0.92,0.009 -0.563,-0.071 -0.205,-0.152C-0.003,-0.199 -0.003,-0.199 0.044,0.003C0.096,0.222 0.107,0.446 0.112,0.719C0.107,0.801 0.098,0.935 0.09,1.066C0.085,1.121 0.079,1.172 0,1.164M-1.024,1.134C-1.022,1.189 -1.008,1.208 -0.948,1.183C-0.879,1.153 -0.806,1.129 -0.732,1.112C-0.5,1.055 -0.27,0.998 -0.03,1.057C0.022,1.071 0.027,1.036 0.027,0.998L0.027,0.675C0.016,0.44 0.003,0.208 -0.052,-0.021C-0.068,-0.092 -0.093,-0.119 -0.172,-0.101C-0.522,-0.029 -0.83,0.146 -1.155,0.282C-1.21,0.306 -1.185,0.345 -1.169,0.377C-1.112,0.503 -1.076,0.634 -1.06,0.771C-1.046,0.891 -1.035,1.011 -1.024,1.134" style="fill:rgb(104,33,95);fill-rule:nonzero;"/>
            </g>
            <g transform="matrix(6.12323e-17,1,-1,6.12323e-17,150.524,133.026)">
                <path d="M0,0.38C-0.117,0.38 -0.224,0.284 -0.221,0.178C-0.221,0.09 -0.128,0.006 -0.033,0.003C0.06,0 0.172,0.107 0.172,0.202C0.175,0.287 0.085,0.38 0,0.38M-0.128,0.197C-0.131,0.24 -0.104,0.262 -0.063,0.26C-0.005,0.254 0.049,0.24 0.068,0.161C0.055,0.126 0.016,0.104 -0.025,0.101C-0.085,0.101 -0.123,0.137 -0.128,0.197" style="fill:rgb(104,33,95);fill-rule:nonzero;"/>
            </g>
            <g transform="matrix(6.12323e-17,1,-1,6.12323e-17,150.308,131.202)">
                <path d="M0,-1.983C0.055,-1.997 0.096,-2.005 0.087,-1.923C0.063,-1.625 0.15,-1.341 0.24,-1.063C0.243,-1.049 0.249,-1.038 0.251,-1.027C0.265,-0.981 0.257,-0.961 0.175,-0.951C-0.109,-0.918 -0.391,-0.86 -0.636,-0.699C-0.677,-0.672 -0.716,-0.675 -0.727,-0.721C-0.746,-0.798 -0.792,-0.781 -0.839,-0.768C-0.89,-0.754 -0.934,-0.727 -0.972,-0.688C-1.153,-0.494 -1.3,-0.281 -1.385,-0.027C-1.467,0.227 -1.368,0.418 -1.196,0.593C-1.183,0.606 -1.164,0.617 -1.125,0.65C-1.379,0.705 -1.609,0.707 -1.838,0.688C-1.912,0.683 -1.983,0.666 -2.057,0.664C-2.19,0.658 -2.289,0.595 -2.349,0.478C-2.45,0.279 -2.584,0.087 -2.576,-0.153C-2.573,-0.219 -2.578,-0.257 -2.486,-0.221C-2.343,-0.167 -2.201,-0.219 -2.073,-0.284C-1.767,-0.44 -1.595,-0.707 -1.459,-1.013C-1.412,-1.114 -1.428,-1.169 -1.497,-1.256C-1.808,-1.639 -2.059,-2.059 -2.267,-2.507C-2.289,-2.548 -2.324,-2.598 -2.289,-2.644C-2.283,-2.649 -2.278,-2.658 -2.272,-2.66C-2.237,-2.69 -2.188,-2.677 -2.144,-2.671C-1.797,-2.614 -1.448,-2.557 -1.101,-2.499C-0.945,-2.472 -0.806,-2.393 -0.653,-2.36C-0.598,-2.349 -0.579,-2.314 -0.584,-2.262C-0.59,-2.191 -0.593,-2.122 -0.598,-2.051C-0.604,-1.991 -0.579,-1.964 -0.519,-1.956C-0.344,-1.931 -0.169,-1.937 0,-1.983M-0.59,-1.565C-0.666,-1.759 -0.735,-1.958 -0.699,-2.174C-0.686,-2.25 -0.713,-2.273 -0.784,-2.294C-1.21,-2.431 -1.655,-2.475 -2.092,-2.573C-2.128,-2.581 -2.166,-2.584 -2.204,-2.57C-2.207,-2.524 -2.177,-2.491 -2.158,-2.455C-1.947,-2.046 -1.682,-1.669 -1.423,-1.289C-1.385,-1.235 -1.344,-1.202 -1.27,-1.256C-1.09,-1.393 -0.877,-1.448 -0.653,-1.464C-0.576,-1.472 -0.56,-1.489 -0.59,-1.565M0.003,-1.822C0.003,-1.852 0,-1.879 -0.041,-1.868C-0.188,-1.825 -0.336,-1.833 -0.486,-1.849C-0.541,-1.855 -0.59,-1.833 -0.565,-1.751C-0.538,-1.661 -0.533,-1.565 -0.505,-1.475C-0.483,-1.401 -0.505,-1.382 -0.576,-1.377C-0.699,-1.371 -0.825,-1.355 -0.964,-1.308C-0.819,-1.18 -0.707,-1.043 -0.647,-0.871C-0.631,-0.822 -0.604,-0.847 -0.574,-0.858C-0.361,-0.937 -0.147,-1.008 0.079,-1.043C0.126,-1.049 0.148,-1.063 0.128,-1.114C0.044,-1.341 -0.003,-1.576 0.003,-1.822M-1.112,-0.68C-1.06,-0.748 -1,-0.809 -0.926,-0.86C-0.882,-0.89 -0.795,-0.869 -0.795,-0.931C-0.798,-0.983 -0.847,-1.038 -0.879,-1.084C-0.918,-1.136 -0.961,-1.18 -1.002,-1.229C-1.032,-1.27 -1.068,-1.273 -1.112,-1.248C-1.194,-1.202 -1.251,-1.15 -1.292,-1.052C-1.407,-0.773 -1.601,-0.541 -1.833,-0.344C-1.991,-0.208 -2.185,-0.148 -2.387,-0.12C-2.475,-0.109 -2.475,-0.085 -2.466,-0.016C-2.42,0.347 -2.174,0.574 -1.816,0.587C-1.762,0.59 -1.71,0.587 -1.658,0.587L-1.658,0.59L-1.439,0.59C-1.371,0.59 -1.352,0.568 -1.39,0.503C-1.467,0.366 -1.483,0.221 -1.467,0.065C-1.437,-0.227 -1.284,-0.456 -1.112,-0.68" style="fill:rgb(104,33,95);fill-rule:nonzero;"/>
            </g>
            <g transform="matrix(6.12323e-17,1,-1,6.12323e-17,149.404,134.408)">
                <path d="M0,-0.175C-0.066,-0.172 -0.104,-0.139 -0.109,-0.079C-0.115,-0.035 -0.082,-0.017 -0.041,-0.019C0.016,-0.022 0.076,-0.038 0.082,-0.107C0.087,-0.161 0.033,-0.164 0,-0.175M-0.003,-0.276C0.087,-0.273 0.197,-0.156 0.191,-0.066C0.188,0.022 0.098,0.104 0.011,0.101C-0.107,0.095 -0.202,0.003 -0.202,-0.101C-0.202,-0.189 -0.101,-0.279 -0.003,-0.276" style="fill:rgb(104,33,95);fill-rule:nonzero;"/>
            </g>
            <g transform="matrix(6.12323e-17,1,-1,6.12323e-17,153.341,127.211)">
                <path d="M0,3.087C0.314,3.571 0.686,4.005 1.131,4.373C1.169,4.406 1.21,4.439 1.251,4.472L1.226,4.507C0.658,4.087 0.197,3.56 -0.175,2.95C-0.205,2.899 -0.221,2.833 -0.29,2.806C-0.489,2.724 -0.677,2.617 -0.874,2.489C-0.869,2.522 -0.869,2.533 -0.866,2.541L-0.929,2.565C-0.97,2.47 -1.005,2.374 -1.041,2.276C-1.046,2.268 -1.043,2.257 -1.043,2.238C-0.934,2.319 -0.836,2.404 -0.732,2.478C-0.483,2.658 -0.208,2.781 0.101,2.817C0.172,2.825 0.202,2.808 0.208,2.735C0.257,2.09 0.385,1.462 0.593,0.85C0.615,0.795 0.604,0.757 0.565,0.711C0.216,0.244 -0.24,-0.122 -0.639,-0.54C-0.89,-0.805 -1.147,-1.07 -1.398,-1.332C-1.415,-1.351 -1.426,-1.373 -1.439,-1.398C-1.374,-1.42 -1.327,-1.384 -1.276,-1.371C-1.226,-1.36 -1.18,-1.346 -1.131,-1.335L-1.153,-1.248C-1.155,-1.239 -1.158,-1.231 -1.164,-1.226C-1.147,-1.207 -1.133,-1.188 -1.117,-1.171C-0.713,-0.759 -0.32,-0.344 0.101,0.052C0.314,0.252 0.503,0.479 0.727,0.67C0.759,0.697 0.784,0.733 0.819,0.67L0.888,0.714C0.879,0.73 0.869,0.746 0.858,0.763C0.964,0.746 1.041,0.733 1.117,0.724C1.185,0.719 1.226,0.686 1.262,0.626C1.267,0.615 1.276,0.601 1.284,0.591L1.327,0.615C1.314,0.637 1.308,0.662 1.319,0.692C1.349,0.768 1.456,0.793 1.53,0.839C1.62,0.894 1.696,0.97 1.71,1.071C1.743,1.306 1.715,1.536 1.611,1.754C1.393,2.213 1.06,2.557 0.606,2.787C0.434,2.871 0.265,2.942 0.068,2.89C0.003,2.874 -0.068,2.871 -0.147,2.86C-0.109,2.956 -0.046,3.016 0,3.087" style="fill:rgb(104,33,95);fill-rule:nonzero;"/>
            </g>
            <g transform="matrix(6.12323e-17,1,-1,6.12323e-17,148.612,135.949)">
                <path d="M0,0.139C0.057,0.133 0.117,0.12 0.123,0.049C0.126,-0.003 0.074,-0.017 0.033,-0.017C-0.027,-0.019 -0.063,0.016 -0.071,0.079C-0.068,0.122 -0.041,0.142 0,0.139M0.057,0.259C-0.06,0.256 -0.161,0.166 -0.164,0.06C-0.167,-0.028 -0.06,-0.12 0.036,-0.12C0.123,-0.118 0.232,-0.006 0.232,0.082C0.232,0.169 0.142,0.259 0.057,0.259" style="fill:rgb(104,33,95);fill-rule:nonzero;"/>
            </g>
            <g transform="matrix(6.12323e-17,1,-1,6.12323e-17,147.413,137.544)">
                <path d="M0,-0.38C0.09,-0.38 0.202,-0.265 0.202,-0.172C0.199,-0.088 0.109,0 0.025,-0.003C-0.093,-0.003 -0.188,-0.09 -0.194,-0.197C-0.199,-0.284 -0.098,-0.38 0,-0.38M0.09,-0.216C0.09,-0.262 0.038,-0.279 -0.005,-0.276C-0.063,-0.276 -0.096,-0.24 -0.101,-0.186C-0.106,-0.134 -0.071,-0.121 -0.027,-0.123C0.036,-0.126 0.093,-0.148 0.09,-0.216" style="fill:rgb(104,33,95);fill-rule:nonzero;"/>
            </g>
            <g transform="matrix(6.12323e-17,1,-1,6.12323e-17,146.626,138.948)">
                <path d="M0,-0.03C0.003,-0.115 0.098,-0.202 0.191,-0.205C0.284,-0.205 0.393,-0.096 0.396,-0.002C0.396,0.085 0.306,0.175 0.221,0.172C0.101,0.172 -0.003,0.074 0,-0.03M0.191,-0.101C0.137,-0.104 0.101,-0.068 0.096,-0.013C0.09,0.038 0.123,0.052 0.156,0.052C0.227,0.046 0.284,0.027 0.287,-0.041C0.287,-0.087 0.235,-0.101 0.191,-0.101" style="fill:rgb(104,33,95);fill-rule:nonzero;"/>
            </g>
            <g transform="matrix(6.12323e-17,1,-1,6.12323e-17,144.875,127.411)">
                <path d="M0,-13.455C0.754,-13.523 1.51,-13.548 2.259,-13.43C3.343,-13.261 4.406,-12.985 5.435,-12.6C5.531,-12.564 5.618,-12.559 5.719,-12.586C6.487,-12.789 7.271,-12.892 8.063,-12.843C11.351,-12.647 13.853,-10.59 14.861,-7.949C15.768,-5.575 15.544,-3.278 14.249,-1.088C14.203,-1.008 14.217,-0.981 14.29,-0.937C14.727,-0.683 15.162,-0.421 15.596,-0.162C15.689,-0.107 15.702,-0.058 15.648,0.035C15.637,0.054 15.623,0.073 15.612,0.093L15.53,0.043C15.574,-0.025 15.56,-0.058 15.492,-0.099C14.787,-0.519 14.086,-0.945 13.384,-1.369C13.362,-1.38 13.343,-1.393 13.318,-1.404C13.285,-1.399 13.28,-1.369 13.263,-1.347L13.187,-1.393C13.201,-1.418 13.214,-1.443 13.231,-1.467C13.272,-1.533 13.239,-1.593 13.165,-1.59C13.061,-1.587 12.985,-1.636 12.906,-1.683C10.393,-3.199 7.869,-4.696 5.367,-6.228C5.337,-6.247 5.307,-6.263 5.28,-6.28C5.236,-6.282 5.228,-6.244 5.214,-6.22C5.091,-5.995 4.966,-5.774 4.818,-5.564L4.739,-5.613C4.867,-5.826 4.998,-6.042 5.124,-6.255C5.195,-6.37 5.146,-6.506 5.015,-6.553C4.93,-6.583 4.843,-6.61 4.772,-6.67C4.714,-6.72 4.682,-6.709 4.646,-6.643C4.485,-6.37 4.318,-6.097 4.154,-5.826L4.075,-5.873C4.152,-6.012 4.231,-6.151 4.316,-6.291C4.392,-6.422 4.474,-6.553 4.559,-6.684C4.638,-6.81 4.632,-6.837 4.518,-6.935C4.392,-7.044 4.384,-7.096 4.452,-7.244C4.572,-7.498 4.761,-7.7 4.966,-7.886C5.067,-7.976 5.181,-8.05 5.312,-8.099C5.687,-8.241 6.066,-8.216 6.43,-8.085C7.028,-7.869 7.541,-7.517 7.976,-7.053C8.057,-6.965 8.096,-6.821 8.186,-6.78C8.276,-6.736 8.415,-6.796 8.535,-6.793C9.019,-6.788 9.459,-6.629 9.871,-6.389C9.98,-6.326 10.087,-6.263 10.212,-6.189C10.133,-6.367 10.06,-6.523 9.988,-6.681C9.789,-7.132 9.497,-7.525 9.226,-7.93C8.456,-9.074 7.552,-10.084 6.367,-10.817C5.749,-11.196 5.119,-11.549 4.433,-11.786C3.909,-11.969 3.365,-12.095 2.819,-12.198C2.502,-12.258 2.177,-12.267 1.827,-12.286C1.961,-12.122 2.081,-11.98 2.191,-11.833C2.669,-11.202 2.882,-10.508 2.663,-9.718C2.652,-9.685 2.638,-9.653 2.674,-9.623C2.786,-9.519 2.824,-9.374 2.876,-9.238C2.903,-9.161 2.895,-9.071 2.832,-9.003C2.589,-8.738 2.311,-8.53 1.967,-8.413C1.857,-8.377 1.756,-8.374 1.658,-8.438C1.609,-8.465 1.579,-8.459 1.546,-8.413C1.491,-8.339 1.431,-8.265 1.377,-8.191C1.325,-8.123 1.278,-8.052 1.24,-7.976C1.215,-7.93 1.155,-7.894 1.128,-7.85L1.084,-7.875C1.194,-8.069 1.314,-8.257 1.429,-8.451C1.445,-8.478 1.472,-8.506 1.459,-8.547C1.429,-8.639 1.396,-8.735 1.355,-8.858C1.142,-8.473 0.929,-8.121 0.688,-7.752L0.62,-7.795C0.822,-8.151 1.03,-8.503 1.251,-8.847C1.276,-8.885 1.273,-8.907 1.226,-8.921C1.131,-8.954 1.038,-8.997 0.94,-9.022C0.426,-9.159 -0.068,-9.347 -0.582,-9.486C-0.839,-9.557 -1.095,-9.637 -1.352,-9.713L-1.33,-9.8C-0.625,-9.62 0.063,-9.38 0.762,-9.172C1.065,-9.085 1.065,-9.09 1.24,-9.352C1.59,-9.888 1.997,-10.374 2.469,-10.803C2.535,-10.863 2.551,-10.912 2.518,-10.991C2.264,-11.617 1.887,-12.144 1.355,-12.562C0.904,-12.914 0.412,-13.174 -0.139,-13.315C-0.191,-13.329 -0.246,-13.346 -0.295,-13.389C-0.199,-13.436 -0.098,-13.444 0,-13.455M9.063,-8.347C9.229,-8.099 9.407,-7.856 9.582,-7.612C9.871,-7.205 10.081,-6.757 10.297,-6.313C10.371,-6.16 10.466,-6.02 10.592,-5.911C10.832,-5.7 11.081,-5.504 11.31,-5.283C11.772,-4.84 12.283,-4.466 12.876,-4.215C12.916,-4.198 12.957,-4.171 13.009,-4.179C13.004,-4.196 13.004,-4.204 12.998,-4.209C12.52,-4.676 12.127,-5.209 11.81,-5.796C11.335,-6.673 10.792,-7.506 10.275,-8.356C10.229,-8.435 10.174,-8.478 10.081,-8.495C9.893,-8.525 9.704,-8.56 9.513,-8.582C9.409,-8.596 9.3,-8.601 9.175,-8.642C9.24,-8.669 9.281,-8.694 9.325,-8.708C9.478,-8.754 9.614,-8.831 9.759,-8.891C9.876,-8.94 9.876,-8.943 9.797,-9.046C9.355,-9.623 8.866,-10.161 8.344,-10.666C7.574,-11.409 6.692,-11.972 5.695,-12.357C4.908,-12.66 4.102,-12.898 3.283,-13.1C2.346,-13.329 1.396,-13.447 0.429,-13.373C0.344,-13.365 0.259,-13.368 0.156,-13.337C0.694,-13.185 1.125,-12.895 1.53,-12.556C1.568,-12.521 1.611,-12.507 1.663,-12.502C1.906,-12.48 2.147,-12.433 2.387,-12.392C3.354,-12.226 4.299,-11.988 5.187,-11.562C5.842,-11.245 6.468,-10.874 7.047,-10.434C7.336,-10.216 7.588,-9.951 7.853,-9.702C8.298,-9.287 8.721,-8.855 9.063,-8.347" style="fill:rgb(104,33,95);fill-rule:nonzero;"/>
            </g>
            <g transform="matrix(6.12323e-17,1,-1,6.12323e-17,148.743,130.156)">
                <path d="M0,4.638C-1.464,3.426 -2.335,1.855 -2.66,-0.019C-2.671,-0.081 -2.69,-0.136 -2.737,-0.186C-3.253,-0.718 -3.605,-1.352 -3.873,-2.032L-3.81,-2.057C-3.559,-1.486 -3.272,-0.937 -2.862,-0.459C-2.666,-0.229 -2.464,0.003 -2.221,0.183C-1.535,0.697 -0.746,0.992 0.074,1.213C0.664,1.374 1.276,1.388 1.876,1.478C1.885,1.478 1.893,1.472 1.907,1.47C1.898,1.456 1.893,1.448 1.885,1.443C1.642,1.303 1.429,1.123 1.235,0.921C1.213,0.896 1.188,0.88 1.153,0.877C1.002,0.869 0.858,0.817 0.71,0.803C0.317,0.768 -0.057,0.656 -0.429,0.533C-0.828,0.404 -1.224,0.257 -1.57,0.019C-1.62,-0.016 -1.669,-0.052 -1.718,-0.09L-1.693,-0.125C-1.57,-0.033 -1.442,0.052 -1.3,0.115C-0.579,0.437 0.167,0.678 0.953,0.779C0.994,0.784 1.041,0.798 1.079,0.773C1.076,0.763 1.076,0.757 1.073,0.754C1.057,0.738 1.043,0.719 1.024,0.699C0.585,0.254 0.328,-0.278 0.27,-0.907C0.249,-1.139 0.27,-1.36 0.361,-1.57C0.443,-1.762 0.576,-1.895 0.792,-1.928C0.912,-1.947 1.035,-1.939 1.155,-1.914C1.24,-1.898 1.284,-1.925 1.325,-1.996C1.327,-1.999 1.327,-2.002 1.33,-2.004L1.409,-1.958C1.401,-1.939 1.39,-1.923 1.382,-1.906C1.388,-1.868 1.415,-1.857 1.439,-1.846C1.53,-1.805 1.603,-1.742 1.674,-1.674C1.767,-1.587 1.915,-1.611 1.98,-1.723C1.986,-1.731 1.988,-1.737 1.994,-1.745L2.073,-1.696C2.008,-1.603 2.032,-1.57 2.12,-1.518C4.66,-0.027 7.172,1.505 9.699,3.018C9.767,3.057 9.833,3.098 9.871,3.177C9.909,3.253 9.975,3.253 10.016,3.182C10.155,2.945 10.292,2.707 10.442,2.475L10.518,2.521C10.393,2.734 10.267,2.948 10.136,3.158C10.098,3.218 10.114,3.237 10.166,3.27C10.879,3.693 11.592,4.122 12.305,4.548C12.359,4.584 12.387,4.575 12.417,4.521C12.537,4.316 12.66,4.114 12.785,3.911L12.867,3.961C12.739,4.174 12.611,4.389 12.482,4.602C12.419,4.706 12.373,4.717 12.269,4.655C11.808,4.373 11.343,4.095 10.882,3.813C10.816,3.772 10.781,3.772 10.726,3.833C9.494,5.209 7.97,6.069 6.146,6.345C3.848,6.695 1.786,6.121 0,4.638" style="fill:rgb(104,33,95);fill-rule:nonzero;"/>
            </g>
        </g>
    </g>
</svg>
