<?xml version="1.0" encoding="UTF-8" standalone="no"?>
<!DOCTYPE svg PUBLIC "-//W3C//DTD SVG 1.1//EN" "http://www.w3.org/Graphics/SVG/1.1/DTD/svg11.dtd">
<svg width="100%" height="100%" viewBox="0 0 65 69" version="1.1" xmlns="http://www.w3.org/2000/svg" xmlns:xlink="http://www.w3.org/1999/xlink" xml:space="preserve" xmlns:serif="http://www.serif.com/" style="fill-rule:evenodd;clip-rule:evenodd;">
    <g transform="matrix(1,0,0,1,-894.742,-1245.87)">
        <g id="Merc-Crossbowman-ALLY" serif:id="Merc Crossbowman ALLY" transform="matrix(4.16667,0,0,4.16667,-536.498,882.119)">
            <g>
                <clipPath id="_clip1">
                    <rect x="343.608" y="87.413" width="15.352" height="16.334" clip-rule="nonzero"/>
                </clipPath>
                <g clip-path="url(#_clip1)">
                    <g transform="matrix(6.12323e-17,1,-1,6.12323e-17,356.015,98.7459)">
                        <path d="M0,-0.195C0.037,-0.14 0.087,-0.128 0.142,-0.124C0.213,-0.115 0.286,-0.115 0.332,-0.046C0.339,-0.035 0.348,-0.025 0.364,-0.005C0.282,0 0.213,-0.009 0.156,-0.035C0.078,-0.064 0.028,-0.117 0,-0.195Z" style="fill:none;fill-rule:nonzero;stroke:rgb(104,33,95);stroke-width:0.11px;"/>
                    </g>
                    <g transform="matrix(6.12323e-17,1,-1,6.12323e-17,349.281,94.8448)">
                        <path d="M0,-1.214C0.03,-1.244 0.06,-1.193 0.083,-1.173C0.263,-0.987 0.447,-0.804 0.628,-0.616C0.77,-0.47 0.903,-0.314 1.063,-0.183C1.072,-0.176 1.081,-0.169 1.088,-0.163C1.12,-0.13 1.141,-0.096 1.127,-0.043C1.127,-0.023 1.141,0.009 1.113,0.019C1.086,0.03 1.07,0 1.056,-0.016C0.765,-0.323 0.463,-0.618 0.193,-0.946C0.142,-1.008 0.089,-1.065 0.039,-1.125C0.028,-1.141 0.005,-1.157 -0.007,-1.173C-0.014,-1.184 -0.016,-1.198 0,-1.214Z" style="fill:none;fill-rule:nonzero;stroke:rgb(104,33,95);stroke-width:0.11px;"/>
                    </g>
                    <g transform="matrix(6.12323e-17,1,-1,6.12323e-17,356.233,87.6104)">
                        <path d="M0,-1.915C-0.005,-1.975 0.011,-2.02 0.094,-2.007C0.275,-1.977 0.449,-1.936 0.621,-1.883C1.132,-1.727 1.597,-1.473 2.023,-1.129C2.032,-1.123 2.039,-1.111 2.057,-1.088C1.902,-1.076 1.773,-1.026 1.668,-0.93C1.631,-0.896 1.606,-0.925 1.581,-0.946C1.269,-1.18 0.923,-1.356 0.552,-1.464C0.461,-1.491 0.408,-1.53 0.355,-1.594C0.277,-1.686 0.209,-1.789 0.103,-1.885C0.106,-1.819 0.14,-1.787 0.165,-1.752C0.25,-1.638 0.335,-1.521 0.424,-1.409C0.472,-1.347 0.502,-1.283 0.518,-1.207C0.589,-0.919 0.71,-0.651 0.873,-0.403C0.884,-0.387 0.893,-0.364 0.91,-0.355C1.051,-0.289 0.987,-0.227 0.914,-0.153C0.848,-0.089 0.843,0.007 0.807,0.105C0.671,-0.05 0.564,-0.211 0.481,-0.385C0.298,-0.783 0.128,-1.189 0.046,-1.622C0.028,-1.718 0.011,-1.817 0,-1.915Z" style="fill:none;fill-rule:nonzero;stroke:rgb(104,33,95);stroke-width:0.11px;"/>
                    </g>
                    <g transform="matrix(6.12323e-17,1,-1,6.12323e-17,357.512,89.0766)">
                        <path d="M0,0.919C-0.076,0.875 -0.149,0.83 -0.224,0.784C-0.176,0.869 -0.106,0.917 -0.03,0.965C-0.014,0.974 0.007,0.99 0.023,0.967C0.037,0.944 0.018,0.93 0,0.919ZM-0.946,-0.126C-0.939,-0.132 -0.935,-0.139 -0.928,-0.149C-0.87,-0.123 -0.811,-0.101 -0.756,-0.073C-0.504,0.046 -0.266,0.186 -0.028,0.328C0.069,0.388 0.083,0.468 0.076,0.562C0.071,0.617 0.053,0.681 0.08,0.722C0.16,0.839 0.101,0.93 0.046,1.027C0.044,1.031 0.039,1.038 0.037,1.04C0.016,1.068 -0.002,1.063 -0.032,1.04C-0.153,0.953 -0.282,0.885 -0.435,0.882C-0.46,0.88 -0.481,0.873 -0.497,0.853C-0.651,0.642 -0.749,0.404 -0.841,0.161C-0.662,0.358 -0.55,0.61 -0.319,0.759C-0.433,0.617 -0.539,0.465 -0.639,0.314C-0.74,0.167 -0.843,0.021 -0.946,-0.126Z" style="fill:none;fill-rule:nonzero;stroke:rgb(104,33,95);stroke-width:0.11px;"/>
                    </g>
                    <g transform="matrix(6.12323e-17,1,-1,6.12323e-17,346.663,90.0089)">
                        <path d="M0,-0.254C0.064,-0.327 0.126,-0.405 0.19,-0.481C0.314,-0.343 0.417,-0.192 0.566,-0.084C0.614,-0.05 0.591,-0.027 0.561,0.003C0.495,0.069 0.417,0.129 0.38,0.227C0.234,0.103 0.119,-0.039 0.002,-0.181C-0.016,-0.206 -0.023,-0.226 0,-0.254Z" style="fill:none;fill-rule:nonzero;stroke:rgb(104,33,95);stroke-width:0.11px;"/>
                    </g>
                    <g transform="matrix(6.12323e-17,1,-1,6.12323e-17,346.791,90.9138)">
                        <path d="M0,-0.699C0.106,-0.738 0.181,-0.678 0.176,-0.552C0.176,-0.536 0.181,-0.506 0.158,-0.479C0.046,-0.328 -0.057,-0.17 -0.183,-0.03C-0.232,0.023 -0.259,0.039 -0.316,-0.03C-0.382,-0.112 -0.467,-0.179 -0.552,-0.245C-0.602,-0.287 -0.634,-0.344 -0.653,-0.397C-0.674,-0.452 -0.612,-0.509 -0.554,-0.506C-0.408,-0.497 -0.298,-0.541 -0.204,-0.655C-0.16,-0.71 -0.069,-0.674 0,-0.699Z" style="fill:none;fill-rule:nonzero;stroke:rgb(104,33,95);stroke-width:0.11px;"/>
                    </g>
                    <g transform="matrix(6.12323e-17,1,-1,6.12323e-17,347.302,90.3801)">
                        <path d="M0,-1.069C0.009,-1.078 0.018,-1.085 0.034,-1.097C0.057,-1.064 0.083,-1.041 0.096,-1.009C0.11,-0.977 0.073,-0.975 0.055,-0.963C0.009,-0.936 -0.039,-0.906 -0.087,-0.883C-0.17,-0.847 -0.236,-0.799 -0.291,-0.739C-0.392,-0.636 -0.453,-0.501 -0.493,-0.35C-0.504,-0.306 -0.527,-0.279 -0.557,-0.249C-0.621,-0.187 -0.68,-0.123 -0.747,-0.063C-0.774,-0.04 -0.804,0.028 -0.85,-0.031C-0.889,-0.077 -0.964,-0.116 -0.905,-0.203C-0.802,-0.361 -0.678,-0.496 -0.543,-0.625C-0.504,-0.659 -0.463,-0.695 -0.422,-0.73C-0.284,-0.847 -0.126,-0.938 0,-1.069Z" style="fill:none;fill-rule:nonzero;stroke:rgb(104,33,95);stroke-width:0.11px;"/>
                    </g>
                    <g transform="matrix(6.12323e-17,1,-1,6.12323e-17,346.907,89.9517)">
                        <path d="M0,-0.502C0.078,-0.538 0.151,-0.415 0.252,-0.426C0.252,-0.417 0.254,-0.408 0.254,-0.399C0.14,-0.264 0.025,-0.128 -0.089,0.007C-0.101,0.02 -0.11,0.036 -0.131,0.032C-0.188,0.02 -0.266,-0.135 -0.236,-0.186C-0.218,-0.222 -0.195,-0.257 -0.169,-0.289C-0.115,-0.365 -0.073,-0.47 0,-0.502Z" style="fill:none;fill-rule:nonzero;stroke:rgb(104,33,95);stroke-width:0.11px;"/>
                    </g>
                    <g transform="matrix(6.12323e-17,1,-1,6.12323e-17,347.359,90.3892)">
                        <path d="M0,-0.783C-0.023,-0.742 -0.046,-0.701 -0.069,-0.662C-0.101,-0.602 -0.133,-0.545 -0.165,-0.488C-0.227,-0.385 -0.153,-0.316 -0.101,-0.243C-0.05,-0.169 0.014,-0.142 0.101,-0.176C0.126,-0.185 0.154,-0.194 0.179,-0.197C0.199,-0.199 0.224,-0.199 0.234,-0.181C0.25,-0.153 0.227,-0.137 0.211,-0.121C0.094,-0.006 -0.27,0 -0.371,-0.123C-0.433,-0.199 -0.422,-0.309 -0.394,-0.398C-0.364,-0.492 -0.323,-0.577 -0.261,-0.643C-0.197,-0.71 -0.115,-0.76 0,-0.783Z" style="fill:none;fill-rule:nonzero;stroke:rgb(104,33,95);stroke-width:0.11px;"/>
                    </g>
                    <g transform="matrix(6.12323e-17,1,-1,6.12323e-17,347.72,89.7823)">
                        <path d="M0,-6.678C0.043,-6.737 0.073,-6.742 0.112,-6.701C0.117,-6.696 0.121,-6.689 0.128,-6.68C0.16,-6.634 0.202,-6.598 0.241,-6.559C0.344,-6.456 0.346,-6.454 0.252,-6.348C-0.236,-5.796 -0.545,-5.145 -0.742,-4.447C-0.976,-3.613 -1.003,-2.768 -0.777,-1.922C-0.77,-1.897 -0.763,-1.872 -0.744,-1.847C-0.852,-2.451 -0.893,-3.052 -0.619,-3.656C-0.619,-3.421 -0.607,-3.208 -0.58,-2.997C-0.513,-2.472 -0.351,-1.98 -0.119,-1.503C0.011,-1.233 0.158,-0.972 0.358,-0.742C0.408,-0.685 0.412,-0.635 0.353,-0.585C0.233,-0.482 0.098,-0.397 -0.011,-0.282C-0.048,-0.243 -0.078,-0.269 -0.101,-0.305C-0.133,-0.355 -0.165,-0.404 -0.193,-0.454C-0.383,-0.82 -0.58,-1.185 -0.699,-1.588C-0.692,-1.544 -0.69,-1.501 -0.68,-1.457C-0.674,-1.409 -0.667,-1.361 -0.653,-1.318C-0.534,-0.951 -0.383,-0.6 -0.206,-0.261C-0.186,-0.218 -0.174,-0.184 -0.211,-0.14C-0.257,-0.083 -0.298,-0.019 -0.357,0.064C-0.598,-0.5 -0.875,-1.024 -0.985,-1.615C-1.049,-1.954 -1.141,-2.287 -1.191,-2.63C-1.272,-3.198 -1.237,-3.759 -1.123,-4.323C-1.038,-4.749 -0.843,-5.129 -0.685,-5.526C-0.516,-5.947 -0.268,-6.316 0,-6.678Z" style="fill:none;fill-rule:nonzero;stroke:rgb(104,33,95);stroke-width:0.11px;"/>
                    </g>
                    <g transform="matrix(6.12323e-17,1,-1,6.12323e-17,354.002,89.9655)">
                        <path d="M0,-1.317C0.016,-1.333 0.037,-1.347 0.078,-1.381C0.112,-1.335 0.137,-1.285 0.179,-1.25C0.259,-1.184 0.273,-1.127 0.183,-1.06C0.108,-1.003 0.106,-0.948 0.165,-0.87C0.165,-0.868 0.165,-0.868 0.167,-0.866C0.353,-0.628 0.552,-0.396 0.756,-0.172C0.802,-0.121 0.809,-0.092 0.751,-0.053C0.738,-0.043 0.724,-0.03 0.715,-0.018C0.653,0.053 0.602,0.064 0.522,-0.007C0.344,-0.162 0.169,-0.323 0.009,-0.495C-0.098,-0.605 -0.199,-0.721 -0.293,-0.843C-0.341,-0.905 -0.339,-0.944 -0.289,-0.999C-0.19,-1.102 -0.096,-1.212 0,-1.317Z" style="fill:none;fill-rule:nonzero;stroke:rgb(104,33,95);stroke-width:0.11px;"/>
                    </g>
                    <g transform="matrix(6.12323e-17,1,-1,6.12323e-17,349.276,90.2976)">
                        <path d="M0,-5.791C0.037,-5.807 0.057,-5.761 0.08,-5.738C0.577,-5.234 1.074,-4.73 1.574,-4.226C2.47,-3.319 3.363,-2.414 4.261,-1.512C4.332,-1.441 4.366,-1.354 4.412,-1.274C4.437,-1.23 4.462,-1.186 4.488,-1.145C4.6,-0.96 4.723,-0.783 4.886,-0.632C5.092,-0.437 5.255,-0.204 5.48,0C5.471,0.002 5.466,0.005 5.459,0.005C5.397,0.016 5.379,-0.025 5.351,-0.05C4.65,-0.694 3.997,-1.388 3.317,-2.055C2.153,-3.193 1.035,-4.377 -0.085,-5.562C-0.101,-5.578 -0.128,-5.594 -0.14,-5.615C-0.149,-5.626 -0.151,-5.64 -0.14,-5.658C-0.108,-5.715 -0.059,-5.763 0,-5.791Z" style="fill:none;fill-rule:nonzero;stroke:rgb(104,33,95);stroke-width:0.11px;"/>
                    </g>
                    <g transform="matrix(6.12323e-17,1,-1,6.12323e-17,354.444,97.3966)">
                        <path d="M0,3.544C-0.032,3.542 -0.087,3.542 -0.041,3.592C0.014,3.654 0.06,3.723 0.158,3.741C0.353,3.776 0.545,3.826 0.735,3.881C0.855,3.917 0.978,3.952 1.09,4.027C0.818,3.991 0.559,3.913 0.261,3.947C0.328,4 0.344,4.064 0.419,4.073C0.589,4.089 0.752,4.146 0.919,4.179C1.317,4.254 1.512,4.552 1.672,4.873C1.734,4.994 1.835,5.028 1.938,5.088C1.899,4.925 1.89,4.758 1.835,4.6C1.977,4.749 2.085,4.921 2.144,5.111C2.181,5.232 2.252,5.248 2.35,5.271C2.348,5.228 2.348,5.191 2.346,5.154C2.344,5.141 2.337,5.127 2.33,5.115C2.188,4.786 2.016,4.469 1.81,4.174C1.716,4.044 1.608,3.933 1.448,3.869C1.152,3.75 0.843,3.698 0.536,3.629C0.36,3.59 0.181,3.558 0,3.544ZM2,-2.098C1.979,-2.126 1.957,-2.123 1.931,-2.098C1.858,-2.027 1.785,-1.958 1.711,-1.887C1.702,-1.878 1.695,-1.864 1.681,-1.844C1.7,-1.832 1.716,-1.821 1.732,-1.807C1.803,-1.754 1.867,-1.693 1.945,-1.647C2.016,-1.606 2.05,-1.486 2.14,-1.509C2.22,-1.532 2.284,-1.61 2.357,-1.658C2.403,-1.69 2.399,-1.716 2.362,-1.754C2.25,-1.878 2.103,-1.963 2,-2.098ZM2.552,-2.6C2.527,-2.618 2.508,-2.614 2.488,-2.595C2.325,-2.451 2.147,-2.325 1.998,-2.16C2.144,-2.087 2.273,-1.995 2.396,-1.894C2.522,-1.789 2.52,-1.791 2.634,-1.91C2.74,-2.02 2.827,-2.151 2.971,-2.227C2.847,-2.369 2.699,-2.485 2.552,-2.6ZM-2.366,-4.371C0.967,-4.682 4.302,-2.68 5.459,0.751C5.722,1.533 5.862,2.334 5.848,3.022C5.853,4.44 5.544,5.638 4.939,6.758C4.9,6.831 4.909,6.866 4.969,6.921C5.237,7.159 5.507,7.397 5.757,7.656C5.773,7.672 5.793,7.697 5.812,7.697C6.034,7.711 6.109,7.894 6.222,8.038C6.258,8.084 6.217,8.123 6.197,8.158C6.183,8.18 6.169,8.203 6.153,8.226L6.107,8.199C6.174,8.091 6.16,8.048 6.059,7.935C6.032,7.906 6.002,7.876 5.972,7.848C5.961,7.837 5.947,7.828 5.926,7.814C5.91,7.832 5.897,7.85 5.883,7.869C5.855,7.908 5.828,7.947 5.798,7.986L5.734,7.94C5.766,7.901 5.761,7.871 5.732,7.832C5.658,7.738 5.576,7.651 5.491,7.567C4.836,6.893 4.057,6.382 3.283,5.867C2.96,5.654 2.586,5.553 2.236,5.404C1.622,5.147 1.038,4.85 0.575,4.353C0.472,4.243 0.348,4.151 0.257,4.034C0.112,3.853 -0.064,3.707 -0.215,3.535C-0.229,3.521 -0.243,3.5 -0.266,3.51C-0.282,3.516 -0.293,3.535 -0.3,3.558L-0.355,3.537C-0.309,3.413 -0.263,3.292 -0.215,3.168C0.367,1.647 0.946,0.126 1.533,-1.395C1.572,-1.494 1.517,-1.509 1.468,-1.528L1.505,-1.606C1.562,-1.58 1.631,-1.571 1.714,-1.576C1.698,-1.597 1.688,-1.606 1.681,-1.617C1.636,-1.686 1.562,-1.686 1.491,-1.695L1.496,-1.816C1.517,-1.816 1.537,-1.825 1.562,-1.848C1.883,-2.137 2.156,-2.476 2.497,-2.742C2.513,-2.753 2.54,-2.767 2.522,-2.788C2.479,-2.843 2.424,-2.882 2.36,-2.909C2.314,-2.904 2.284,-2.875 2.25,-2.852C1.927,-2.634 1.654,-2.362 1.397,-2.071C1.384,-2.055 1.372,-2.041 1.361,-2.027L1.285,-2.087C1.53,-2.382 1.755,-2.691 2.027,-2.962C2.055,-2.989 2.126,-3.021 2.06,-3.074C2.009,-3.113 1.963,-3.189 1.879,-3.113C1.707,-2.955 1.53,-2.806 1.356,-2.652C1.258,-2.568 1.171,-2.469 1.088,-2.369L1.019,-2.426C1.029,-2.442 1.042,-2.458 1.056,-2.478C1.088,-2.526 1.122,-2.574 1.164,-2.616C1.212,-2.664 1.198,-2.689 1.145,-2.721C0.965,-2.834 0.772,-2.925 0.577,-3.01C-0.199,-3.342 -1.015,-3.525 -1.851,-3.626C-2.011,-3.647 -2.172,-3.681 -2.332,-3.661C-2.639,-3.619 -2.944,-3.548 -3.246,-3.475C-3.621,-3.383 -3.988,-3.267 -4.341,-3.111C-4.332,-3.122 -4.323,-3.131 -4.311,-3.141C-4.277,-3.163 -4.236,-3.177 -4.199,-3.195C-3.757,-3.404 -3.285,-3.518 -2.811,-3.631C-2.669,-3.663 -2.524,-3.715 -2.38,-3.709C-1.959,-3.692 -1.54,-3.658 -1.122,-3.587C-0.295,-3.448 0.504,-3.225 1.23,-2.785C1.258,-2.769 1.283,-2.749 1.312,-2.776C1.445,-2.893 1.576,-3.007 1.709,-3.122C1.736,-3.147 1.736,-3.166 1.7,-3.182C1.672,-3.193 1.645,-3.209 1.615,-3.221C0.926,-3.518 0.211,-3.739 -0.525,-3.887C-1.056,-3.995 -1.587,-4.027 -2.128,-3.965C-2.907,-3.876 -3.606,-3.564 -4.279,-3.193C-4.295,-3.184 -4.311,-3.175 -4.325,-3.166C-4.895,-2.845 -5.392,-2.414 -5.86,-1.956C-5.878,-1.938 -5.894,-1.922 -5.91,-1.908L-5.965,-1.963C-5.874,-2.059 -5.779,-2.151 -5.688,-2.245C-5.67,-2.263 -5.617,-2.266 -5.644,-2.309C-5.672,-2.352 -5.704,-2.398 -5.759,-2.423C-5.777,-2.412 -5.793,-2.4 -5.809,-2.389C-6.039,-2.199 -6.251,-1.99 -6.448,-1.766L-6.494,-1.807C-6.311,-2.013 -6.151,-2.24 -5.942,-2.428C-6.409,-2.128 -6.811,-1.754 -7.163,-1.306C-7.101,-1.306 -7.081,-1.34 -7.055,-1.358C-6.927,-1.457 -6.801,-1.557 -6.673,-1.651C-6.657,-1.665 -6.634,-1.716 -6.602,-1.668C-6.579,-1.633 -6.572,-1.597 -6.618,-1.571C-6.639,-1.56 -6.657,-1.544 -6.675,-1.53C-6.79,-1.441 -6.902,-1.351 -7.014,-1.26C-7.032,-1.246 -7.072,-1.23 -7.042,-1.198C-6.987,-1.138 -6.934,-1.067 -6.865,-1.033C-6.829,-1.015 -6.785,-1.092 -6.742,-1.127C-6.705,-1.157 -6.666,-1.186 -6.632,-1.218C-6.572,-1.278 -6.533,-1.264 -6.485,-1.2C-6.442,-1.141 -6.393,-1.083 -6.348,-1.028L-6.389,-0.987C-6.43,-1.038 -6.483,-1.076 -6.536,-1.125C-6.588,-1.083 -6.636,-1.049 -6.685,-1.01C-6.781,-0.93 -6.781,-0.927 -6.691,-0.838C-4.875,1.001 -3.058,2.839 -1.242,4.678C-1.118,4.802 -1.125,4.799 -1.054,4.639L-0.99,4.664C-1.003,4.701 -1.017,4.735 -1.031,4.772C-1.074,4.891 -1.134,4.996 -1.228,5.077C-1.274,5.115 -1.299,5.15 -1.285,5.198C-1.283,5.251 -1.297,5.308 -1.255,5.328C-1.212,5.349 -1.175,5.301 -1.138,5.278C-1.093,5.251 -1.056,5.214 -1.028,5.17L-0.976,5.207C-1.065,5.331 -1.189,5.423 -1.374,5.454L-1.393,5.384C-1.384,5.381 -1.377,5.379 -1.367,5.377C-1.461,5.312 -1.496,5.212 -1.624,5.244L-1.64,5.173C-1.633,5.173 -1.629,5.17 -1.619,5.168C-1.844,4.964 -2.007,4.731 -2.213,4.536C-2.376,4.385 -2.499,4.208 -2.611,4.023L-2.559,3.991C-2.547,4.007 -2.524,4.023 -2.513,4.039C-2.462,4.098 -2.41,4.156 -2.359,4.218C-2.089,4.545 -1.787,4.841 -1.496,5.147C-1.482,5.163 -1.466,5.193 -1.438,5.182C-1.411,5.173 -1.425,5.141 -1.425,5.12C-1.411,5.067 -1.432,5.033 -1.464,5.001L-1.415,4.953L-1.4,4.969C-1.372,4.996 -1.354,5.042 -1.299,5.017C-1.184,4.967 -1.168,4.893 -1.253,4.806C-2.905,3.139 -4.556,1.469 -6.208,-0.201C-6.769,-0.77 -7.328,-1.338 -7.887,-1.908C-7.91,-1.929 -7.931,-1.949 -7.954,-1.97C-7.967,-1.961 -7.977,-1.958 -7.983,-1.952C-8.011,-1.931 -8.031,-1.913 -8.045,-1.892L-8.105,-1.931C-8.072,-1.977 -8.047,-2.023 -8.022,-2.064C-8.022,-2.103 -8.011,-2.13 -8.038,-2.144C-8.068,-2.158 -8.102,-2.16 -8.125,-2.137C-8.167,-2.093 -8.208,-2.05 -8.242,-2L-8.283,-2.027C-8.281,-2.029 -8.276,-2.036 -8.274,-2.041C-8.219,-2.137 -8.16,-2.229 -8.24,-2.346C-8.267,-2.387 -8.249,-2.451 -8.244,-2.506C-8.237,-2.6 -8.251,-2.68 -8.347,-2.739C-8.586,-2.882 -8.824,-3.021 -9.076,-3.141C-9.131,-3.168 -9.19,-3.191 -9.248,-3.216L-9.234,-3.253C-8.863,-3.145 -8.517,-2.969 -8.206,-2.735C-8.18,-2.714 -8.155,-2.685 -8.118,-2.719C-8.013,-2.815 -7.885,-2.865 -7.729,-2.877C-7.747,-2.9 -7.754,-2.912 -7.764,-2.918C-8.189,-3.262 -8.654,-3.516 -9.165,-3.672L-9.152,-3.713C-8.742,-3.585 -8.341,-3.429 -7.972,-3.198C-7.834,-3.113 -7.706,-3.015 -7.575,-2.923C-7.548,-2.904 -7.516,-2.884 -7.525,-2.84C-7.537,-2.795 -7.575,-2.788 -7.614,-2.788C-7.727,-2.788 -7.839,-2.785 -7.947,-2.739C-8.075,-2.682 -8.148,-2.591 -8.15,-2.446C-8.15,-2.348 -8.116,-2.272 -8.013,-2.247C-7.942,-2.229 -7.903,-2.192 -7.912,-2.116C-7.917,-2.075 -7.891,-2.055 -7.869,-2.029C-7.775,-1.936 -7.676,-1.844 -7.587,-1.743C-7.532,-1.681 -7.502,-1.684 -7.447,-1.748C-7.023,-2.249 -6.54,-2.687 -5.997,-3.06C-4.902,-3.814 -3.69,-4.247 -2.366,-4.371Z" style="fill:none;fill-rule:nonzero;stroke:rgb(104,33,95);stroke-width:0.11px;"/>
                    </g>
                    <g transform="matrix(6.12323e-17,1,-1,6.12323e-17,357.256,95.2687)">
                        <path d="M0,-1.154C0.54,-1.216 1.072,-1.184 1.603,-1.076C2.339,-0.927 3.054,-0.707 3.743,-0.41C3.773,-0.398 3.8,-0.382 3.828,-0.371C3.865,-0.355 3.865,-0.336 3.837,-0.311C3.704,-0.196 3.573,-0.082 3.44,0.035C3.411,0.062 3.386,0.042 3.358,0.026C2.632,-0.414 1.833,-0.636 1.006,-0.776C0.588,-0.847 0.169,-0.881 -0.252,-0.897C-0.396,-0.904 -0.541,-0.852 -0.683,-0.819C-1.157,-0.707 -1.629,-0.593 -2.071,-0.384C-2.108,-0.366 -2.149,-0.352 -2.183,-0.329L-2.197,-0.355C-2.183,-0.364 -2.167,-0.373 -2.151,-0.382C-1.478,-0.753 -0.779,-1.065 0,-1.154Z" style="fill:none;fill-rule:nonzero;stroke:rgb(104,33,95);stroke-width:0.11px;"/>
                    </g>
                    <g transform="matrix(6.12323e-17,1,-1,6.12323e-17,354.007,90.199)">
                        <path d="M0,6.863C-0.064,6.939 -0.126,7.017 -0.19,7.09C-0.213,7.117 -0.206,7.138 -0.188,7.163C-0.071,7.305 0.044,7.447 0.19,7.571C0.227,7.472 0.305,7.413 0.371,7.346C0.401,7.317 0.424,7.294 0.376,7.259C0.227,7.152 0.124,7 0,6.863ZM0.005,6.673C-0.096,6.684 -0.169,6.561 -0.247,6.597C-0.321,6.629 -0.362,6.735 -0.417,6.81C-0.442,6.842 -0.465,6.877 -0.483,6.913C-0.513,6.964 -0.435,7.12 -0.378,7.131C-0.357,7.136 -0.348,7.12 -0.336,7.106C-0.222,6.971 -0.108,6.835 0.007,6.7C0.007,6.691 0.005,6.682 0.005,6.673ZM0.891,6.664C0.896,6.538 0.82,6.478 0.715,6.517C0.646,6.542 0.554,6.506 0.511,6.561C0.417,6.675 0.307,6.719 0.16,6.709C0.103,6.707 0.041,6.765 0.062,6.819C0.08,6.872 0.112,6.93 0.163,6.971C0.247,7.037 0.332,7.104 0.399,7.186C0.456,7.255 0.483,7.239 0.531,7.186C0.657,7.046 0.761,6.888 0.873,6.737C0.896,6.709 0.891,6.68 0.891,6.664ZM0.809,6.288C0.735,6.306 0.676,6.318 0.619,6.334C0.557,6.352 0.561,6.414 0.57,6.453C0.582,6.499 0.628,6.462 0.655,6.455C0.731,6.435 0.783,6.384 0.809,6.288ZM6.895,3.379C6.843,3.342 6.817,3.34 6.794,3.406C6.763,3.5 6.724,3.592 6.689,3.686C6.659,3.766 6.593,3.858 6.611,3.922C6.634,3.997 6.758,4.004 6.836,4.041C7.069,4.146 7.303,4.247 7.537,4.35C7.544,4.343 7.548,4.336 7.555,4.329C7.463,4.165 7.379,3.997 7.28,3.837C7.177,3.665 7.065,3.498 6.895,3.379ZM-2.671,-4.195C-2.678,-4.304 -2.653,-4.327 -2.54,-4.307C-2.451,-4.289 -2.359,-4.272 -2.27,-4.247C-2.165,-4.217 -2.059,-4.185 -1.954,-4.151L-1.968,-4.11C-2.139,-4.162 -2.313,-4.204 -2.494,-4.234C-2.577,-4.247 -2.593,-4.201 -2.589,-4.142C-2.577,-4.043 -2.561,-3.945 -2.542,-3.849C-2.46,-3.416 -2.29,-3.01 -2.108,-2.612C-2.025,-2.437 -1.917,-2.277 -1.782,-2.121C-1.745,-2.22 -1.741,-2.316 -1.675,-2.38C-1.601,-2.453 -1.537,-2.515 -1.679,-2.582C-1.695,-2.591 -1.704,-2.614 -1.716,-2.63C-1.878,-2.877 -2,-3.145 -2.071,-3.434C-2.087,-3.51 -2.117,-3.574 -2.165,-3.636C-2.254,-3.748 -2.339,-3.865 -2.424,-3.979C-2.449,-4.013 -2.483,-4.046 -2.485,-4.112C-2.38,-4.016 -2.312,-3.913 -2.233,-3.821C-2.181,-3.757 -2.128,-3.718 -2.036,-3.691L-2.05,-3.654C-2.057,-3.645 -2.062,-3.638 -2.069,-3.631C-1.965,-3.484 -1.862,-3.338 -1.762,-3.191C-1.661,-3.04 -1.555,-2.889 -1.441,-2.747C-1.672,-2.896 -1.784,-3.148 -1.963,-3.345C-1.871,-3.102 -1.773,-2.864 -1.619,-2.653C-1.603,-2.632 -1.583,-2.625 -1.558,-2.623C-1.404,-2.621 -1.276,-2.552 -1.154,-2.465C-1.125,-2.442 -1.107,-2.437 -1.086,-2.465L-1.044,-2.437C-1.065,-2.41 -1.084,-2.378 -1.099,-2.346C-1.116,-2.314 -1.108,-2.28 -1.079,-2.254C-1.051,-2.232 -1.015,-2.234 -0.994,-2.257C-0.96,-2.291 -0.93,-2.33 -0.907,-2.369L-0.847,-2.33C-0.884,-2.277 -0.87,-2.218 -0.806,-2.154C1.003,-0.321 2.813,1.509 4.62,3.342C5.008,3.734 5.395,4.123 5.782,4.515L5.734,4.563C5.727,4.556 5.718,4.549 5.709,4.543C5.548,4.412 5.416,4.256 5.273,4.109C5.093,3.922 4.909,3.739 4.728,3.553C4.705,3.532 4.675,3.482 4.646,3.511C4.63,3.528 4.632,3.541 4.639,3.553L4.586,3.585C4.561,3.544 4.536,3.5 4.511,3.457C4.465,3.376 4.43,3.289 4.359,3.218C3.461,2.316 2.568,1.411 1.672,0.504C1.173,0 0.676,-0.504 0.179,-1.008C0.156,-1.031 0.135,-1.077 0.098,-1.061C0.039,-1.033 -0.009,-0.985 -0.041,-0.928C-0.053,-0.91 -0.05,-0.896 -0.041,-0.884L-0.069,-0.866C-0.128,-0.944 -0.126,-0.999 -0.05,-1.056C0.039,-1.123 0.025,-1.18 -0.055,-1.246C-0.096,-1.281 -0.121,-1.331 -0.156,-1.377C-0.197,-1.343 -0.218,-1.329 -0.233,-1.313C-0.33,-1.207 -0.424,-1.097 -0.522,-0.994C-0.573,-0.939 -0.575,-0.9 -0.527,-0.839C-0.433,-0.717 -0.332,-0.6 -0.224,-0.49L-0.305,-0.415C-0.344,-0.456 -0.373,-0.451 -0.417,-0.392C-0.685,-0.03 -0.932,0.339 -1.102,0.76C-1.26,1.157 -1.454,1.537 -1.54,1.963C-1.654,2.527 -1.688,3.088 -1.608,3.656C-1.558,4 -1.466,4.332 -1.402,4.671C-1.292,5.262 -1.015,5.786 -0.774,6.35C-0.715,6.267 -0.674,6.203 -0.628,6.146C-0.591,6.103 -0.602,6.068 -0.623,6.024C-0.799,5.686 -0.951,5.335 -1.07,4.969C-1.084,4.925 -1.09,4.877 -1.097,4.829C-1.107,4.785 -1.108,4.742 -1.116,4.698C-0.996,5.101 -0.799,5.466 -0.609,5.832C-0.582,5.882 -0.55,5.931 -0.518,5.981C-0.495,6.018 -0.465,6.043 -0.428,6.004L-0.362,6.08C-0.497,6.208 -0.621,6.343 -0.724,6.501C-0.783,6.588 -0.708,6.627 -0.669,6.673C-0.623,6.732 -0.593,6.664 -0.566,6.641C-0.499,6.581 -0.44,6.517 -0.376,6.455C-0.346,6.426 -0.323,6.398 -0.312,6.354C-0.272,6.203 -0.211,6.068 -0.11,5.965L-0.071,6.004C-0.133,6.07 -0.174,6.155 -0.204,6.249C-0.232,6.338 -0.243,6.448 -0.181,6.524C-0.08,6.648 0.284,6.641 0.401,6.526C0.417,6.51 0.44,6.494 0.424,6.467C0.415,6.448 0.39,6.448 0.369,6.451C0.344,6.453 0.316,6.462 0.291,6.471C0.204,6.506 0.14,6.478 0.089,6.405C0.037,6.332 -0.036,6.263 0.025,6.16C0.057,6.103 0.089,6.045 0.121,5.986L0.144,5.997C0.135,6.016 0.126,6.034 0.119,6.052C0.08,6.158 0.078,6.258 0.16,6.35C0.197,6.391 0.215,6.393 0.241,6.332C0.259,6.29 0.277,6.249 0.3,6.212L0.358,6.245C0.341,6.274 0.325,6.306 0.312,6.343C2.144,5.876 3.965,5.415 5.805,4.946L5.823,5.017C5.821,5.017 5.819,5.021 5.805,5.037C5.876,5.099 5.938,5.161 6.006,5.218C6.16,5.349 6.325,5.468 6.471,5.605C6.584,5.711 6.71,5.784 6.838,5.864C7.193,6.08 7.578,6.24 7.931,6.455C8.62,6.879 9.2,7.431 9.683,8.079C10.057,8.581 10.37,9.129 10.776,9.607C10.794,9.628 10.806,9.651 10.803,9.683C10.799,9.736 10.817,9.752 10.868,9.72C11.09,9.571 11.307,9.419 11.509,9.241C11.587,9.175 11.594,9.126 11.525,9.046C11.145,8.59 10.812,8.102 10.496,7.601C10.231,7.177 9.901,6.808 9.539,6.464C9.173,6.119 8.774,5.825 8.306,5.628C8.029,5.511 7.764,5.367 7.505,5.214C7.133,4.992 6.829,4.689 6.531,4.382C6.456,4.302 6.453,4.304 6.412,4.407C6.359,4.538 6.302,4.666 6.222,4.769L6.169,4.733C6.178,4.719 6.187,4.705 6.194,4.689C6.265,4.538 6.348,4.391 6.407,4.235C6.551,3.858 6.696,3.477 6.843,3.099L6.898,3.12C6.877,3.177 6.877,3.264 6.909,3.285C6.984,3.333 7.072,3.376 7.118,3.447C7.303,3.741 7.491,4.036 7.63,4.357C7.644,4.384 7.663,4.412 7.647,4.458C7.296,4.329 6.959,4.178 6.632,4.013C6.614,4.004 6.6,3.983 6.577,3.993C6.527,4.016 6.492,4.238 6.531,4.279C6.71,4.465 6.92,4.611 7.118,4.778C7.223,4.868 7.319,4.969 7.443,5.04C7.839,5.273 8.258,5.461 8.65,5.697C9.351,6.125 9.94,6.684 10.421,7.346C10.82,7.894 11.174,8.473 11.605,8.998C11.665,9.069 11.685,9.078 11.749,9.005C12.166,8.521 12.526,7.995 12.931,7.502L12.996,7.548C12.652,8.034 12.29,8.505 11.914,8.968C11.736,9.188 11.539,9.385 11.296,9.534C11.172,9.61 11.062,9.704 10.943,9.782C10.868,9.832 10.877,9.869 10.938,9.917C10.991,9.955 11.042,9.997 11.087,10.042C11.129,10.079 11.161,10.077 11.204,10.05C11.454,9.903 11.678,9.726 11.894,9.534C11.956,9.479 11.96,9.44 11.905,9.376C11.866,9.332 11.768,9.277 11.809,9.232C11.862,9.172 11.935,9.257 11.99,9.289C12.056,9.328 12.091,9.321 12.143,9.266C12.565,8.812 12.922,8.311 13.275,7.807C13.287,7.791 13.296,7.775 13.305,7.761L13.351,7.789C13.071,8.24 12.764,8.675 12.411,9.074C12.283,9.22 12.166,9.376 12.031,9.518C11.862,9.697 11.653,9.832 11.449,9.972C11.346,10.042 11.241,10.112 11.138,10.185C11.087,10.219 11.053,10.217 11.005,10.173C10.929,10.102 10.849,10.038 10.79,9.953C10.757,9.905 10.721,9.855 10.762,9.793C10.783,9.759 10.755,9.743 10.739,9.722C10.505,9.431 10.277,9.138 10.077,8.822C10.029,8.746 9.995,8.792 9.956,8.822C9.385,9.239 8.769,9.568 8.107,9.813C4.394,11.19 0.19,9.442 -1.39,5.812C-2.531,3.195 -2.245,0.68 -0.644,-1.682C-0.596,-1.755 -0.584,-1.798 -0.655,-1.86C-0.726,-1.92 -0.788,-1.989 -0.85,-2.055C-0.903,-2.112 -0.955,-2.158 -1.042,-2.154C-1.113,-2.149 -1.159,-2.206 -1.157,-2.272C-1.154,-2.394 -1.253,-2.412 -1.326,-2.451C-1.393,-2.488 -1.466,-2.465 -1.523,-2.41C-1.636,-2.305 -1.658,-2.163 -1.681,-2.018C-1.688,-1.984 -1.665,-1.933 -1.711,-1.92C-1.764,-1.904 -1.801,-1.943 -1.833,-1.979C-1.995,-2.167 -2.112,-2.385 -2.208,-2.612C-2.382,-3.026 -2.52,-3.452 -2.623,-3.89C-2.646,-3.991 -2.664,-4.091 -2.671,-4.195Z" style="fill:none;fill-rule:nonzero;stroke:rgb(104,33,95);stroke-width:0.11px;"/>
                    </g>
                    <g transform="matrix(6.12323e-17,1,-1,6.12323e-17,356.054,95.0647)">
                        <path d="M0,-2.051C0.16,-2.071 0.321,-2.037 0.481,-2.017C1.317,-1.916 2.133,-1.732 2.909,-1.4C3.104,-1.316 3.296,-1.224 3.477,-1.112C3.53,-1.08 3.544,-1.054 3.496,-1.006C3.454,-0.965 3.42,-0.917 3.388,-0.869C3.374,-0.848 3.361,-0.832 3.351,-0.816C3.28,-0.725 3.262,-0.734 3.127,-0.818C2.449,-1.242 1.7,-1.487 0.926,-1.655C0.369,-1.774 -0.199,-1.792 -0.742,-1.629C-1.248,-1.476 -1.732,-1.249 -2.176,-0.951C-2.506,-0.731 -2.818,-0.486 -3.143,-0.259C-3.244,-0.189 -3.296,-0.074 -3.404,-0.012C-3.459,0.02 -3.487,0.015 -3.521,-0.03C-3.526,-0.04 -3.535,-0.047 -3.542,-0.053C-3.658,-0.184 -3.674,-0.2 -3.578,-0.298C-3.562,-0.312 -3.546,-0.328 -3.528,-0.347C-3.061,-0.805 -2.563,-1.235 -1.993,-1.556L-1.979,-1.531C-1.991,-1.522 -2,-1.512 -2.009,-1.501C-1.656,-1.657 -1.289,-1.774 -0.914,-1.865C-0.612,-1.939 -0.307,-2.01 0,-2.051Z" style="fill:none;fill-rule:nonzero;stroke:rgb(104,33,95);stroke-width:0.11px;"/>
                    </g>
                    <g transform="matrix(6.12323e-17,1,-1,6.12323e-17,353.196,92.9687)">
                        <path d="M0,-1.235C-0.051,-1.267 -0.098,-1.306 -0.184,-1.324C-0.057,-1.042 0.041,-0.768 0.195,-0.52C0.206,-0.504 0.222,-0.488 0.238,-0.477C0.621,-0.195 0.996,0.091 1.347,0.419C2.039,1.067 2.715,1.732 3.317,2.467C3.406,2.575 3.493,2.689 3.592,2.813C3.652,2.66 3.704,2.522 3.757,2.387C3.77,2.348 3.759,2.325 3.725,2.3C3.418,2.077 3.136,1.821 2.852,1.569C2.108,0.914 1.45,0.185 0.909,-0.648C0.889,-0.681 0.866,-0.706 0.831,-0.726C0.554,-0.896 0.277,-1.065 0,-1.235ZM-0.405,-2.46C-0.442,-2.499 -0.463,-2.513 -0.511,-2.472C-0.76,-2.261 -0.983,-2.023 -1.223,-1.803C-1.251,-1.778 -1.226,-1.725 -1.278,-1.721C-1.379,-1.711 -1.352,-1.677 -1.303,-1.624C-0.011,-0.243 1.342,1.077 2.673,2.417C2.907,2.652 3.154,2.877 3.395,3.104C3.413,3.122 3.427,3.168 3.466,3.134C3.535,3.076 3.553,2.879 3.498,2.808C3.115,2.309 2.696,1.844 2.259,1.397C1.652,0.776 1.028,0.174 0.323,-0.332C0.215,-0.41 0.133,-0.504 0.062,-0.617C-0.083,-0.846 -0.176,-1.1 -0.282,-1.35C-0.296,-1.382 -0.3,-1.409 -0.247,-1.416C-0.234,-1.409 -0.215,-1.4 -0.197,-1.391C0.174,-1.207 0.534,-0.999 0.88,-0.772C0.912,-0.752 0.939,-0.726 0.96,-0.694C1.051,-0.555 1.138,-0.41 1.239,-0.275C1.874,0.586 2.614,1.347 3.454,2.011C3.546,2.084 3.647,2.144 3.745,2.206C3.766,2.219 3.791,2.249 3.823,2.208C3.91,2.098 3.903,1.97 3.805,1.871C2.382,0.444 0.962,-0.983 -0.405,-2.46ZM1.354,-4.488C1.897,-4.65 2.465,-4.632 3.021,-4.513C3.796,-4.346 4.545,-4.101 5.223,-3.677C5.358,-3.592 5.376,-3.583 5.447,-3.675L5.516,-3.617C5.509,-3.61 5.505,-3.601 5.498,-3.594C5.466,-3.551 5.441,-3.503 5.413,-3.462C5.415,-3.43 5.434,-3.42 5.45,-3.409C5.491,-3.377 5.537,-3.352 5.573,-3.317C5.631,-3.269 5.665,-3.278 5.713,-3.336L5.789,-3.276C5.709,-3.182 5.724,-3.175 5.86,-3.091C5.885,-3.075 5.906,-3.065 5.924,-3.065L5.919,-2.944C5.864,-2.949 5.814,-2.96 5.777,-3.015C5.805,-2.937 5.855,-2.884 5.933,-2.854L5.896,-2.777C5.883,-2.781 5.871,-2.786 5.86,-2.793C5.793,-2.832 5.798,-2.756 5.786,-2.726C5.395,-1.705 5.003,-0.683 4.611,0.341C4.357,1.008 4.107,1.679 3.851,2.345C3.716,2.703 3.574,3.058 3.438,3.415L3.374,3.39C3.422,3.285 3.409,3.218 3.322,3.136C2.268,2.171 1.278,1.141 0.263,0.14C-0.509,-0.623 -1.255,-1.414 -1.961,-2.236L-1.92,-2.277C-1.775,-2.11 -1.618,-1.956 -1.466,-1.794C-1.446,-1.773 -1.423,-1.721 -1.386,-1.755C-1.285,-1.849 -1.191,-1.95 -1.077,-2.064C-1.255,-2.057 -1.37,-2.131 -1.464,-2.245C-1.505,-2.296 -1.549,-2.344 -1.595,-2.39C-1.753,-2.541 -1.908,-2.694 -2.071,-2.843C-2.144,-2.91 -2.151,-2.96 -2.08,-3.04C-2.075,-3.045 -2.071,-3.052 -2.066,-3.056L-2.021,-3.015C-2.06,-2.971 -2.046,-2.953 -2.009,-2.919C-1.805,-2.731 -1.595,-2.55 -1.404,-2.351C-1.308,-2.25 -1.226,-2.151 -1.074,-2.131C-1.029,-2.126 -1.01,-2.131 -0.985,-2.158C-0.818,-2.346 -0.632,-2.513 -0.454,-2.687C-0.413,-2.728 -0.41,-2.754 -0.447,-2.795C-0.539,-2.9 -0.637,-3.003 -0.717,-3.116C-0.779,-3.203 -0.825,-3.168 -0.868,-3.118C-0.987,-2.98 -1.139,-2.877 -1.267,-2.752C-1.315,-2.703 -1.368,-2.708 -1.414,-2.749C-1.484,-2.813 -1.558,-2.877 -1.615,-2.951C-1.659,-3.006 -1.668,-3.079 -1.613,-3.136C-1.588,-3.161 -1.562,-3.187 -1.537,-3.212L-1.482,-3.157C-1.578,-3.058 -1.562,-3.042 -1.446,-2.912C-1.439,-2.905 -1.429,-2.898 -1.425,-2.889C-1.391,-2.843 -1.363,-2.838 -1.308,-2.871C-1.2,-2.932 -1.148,-3.047 -1.047,-3.118C-0.722,-3.345 -0.41,-3.59 -0.08,-3.81C0.364,-4.108 0.848,-4.334 1.354,-4.488Z" style="fill:none;fill-rule:nonzero;stroke:rgb(104,33,95);stroke-width:0.11px;"/>
                    </g>
                    <g transform="matrix(6.12323e-17,1,-1,6.12323e-17,356.54,99.2751)">
                        <path d="M0,-1.017C0.085,-1.093 0.131,-1.017 0.181,-0.978C0.247,-0.925 0.176,-0.893 0.149,-0.866C-0.123,-0.595 -0.348,-0.286 -0.593,0.009C-0.641,0.067 -0.676,0.076 -0.733,0.028C-0.769,-0.007 -0.815,-0.032 -0.857,-0.064C-0.873,-0.075 -0.891,-0.085 -0.893,-0.117C-0.866,-0.158 -0.841,-0.206 -0.808,-0.25C-0.802,-0.256 -0.797,-0.265 -0.79,-0.273C-0.708,-0.373 -0.621,-0.472 -0.522,-0.556C-0.348,-0.71 -0.172,-0.859 0,-1.017Z" style="fill:none;fill-rule:nonzero;stroke:rgb(104,33,95);stroke-width:0.11px;"/>
                    </g>
                    <g transform="matrix(6.12323e-17,1,-1,6.12323e-17,356.318,99.6463)">
                        <path d="M0,-0.978C0.034,-1.001 0.064,-1.031 0.11,-1.035C0.174,-1.008 0.229,-0.969 0.273,-0.914C0.291,-0.893 0.263,-0.88 0.247,-0.868C-0.094,-0.603 -0.367,-0.263 -0.687,0.025C-0.712,0.048 -0.733,0.057 -0.754,0.057C-0.772,0.057 -0.793,0.048 -0.818,0.032C-0.953,-0.052 -0.969,-0.059 -0.889,-0.153C-0.877,-0.167 -0.866,-0.181 -0.852,-0.197C-0.596,-0.488 -0.323,-0.76 0,-0.978Z" style="fill:none;fill-rule:nonzero;stroke:rgb(104,33,95);stroke-width:0.11px;"/>
                    </g>
                    <g transform="matrix(6.12323e-17,1,-1,6.12323e-17,356.257,99.8843)">
                        <path d="M0,-0.783C0.021,-0.801 0.039,-0.806 0.064,-0.788C0.211,-0.673 0.36,-0.556 0.483,-0.414C0.339,-0.339 0.252,-0.208 0.147,-0.098C0.032,0.021 0.035,0.023 -0.092,-0.082C-0.215,-0.183 -0.344,-0.274 -0.49,-0.348C-0.341,-0.513 -0.163,-0.639 0,-0.783Z" style="fill:none;fill-rule:nonzero;stroke:rgb(104,33,95);stroke-width:0.11px;"/>
                    </g>
                    <g transform="matrix(6.12323e-17,1,-1,6.12323e-17,355.356,91.5872)">
                        <path d="M0,-1.478C0.016,-1.489 0.032,-1.501 0.051,-1.512C0.106,-1.487 0.138,-1.441 0.165,-1.398C0.193,-1.354 0.14,-1.352 0.121,-1.334C0.03,-1.24 -0.064,-1.148 -0.156,-1.052C-0.181,-1.027 -0.206,-1.001 -0.231,-0.976C-0.286,-0.919 -0.277,-0.846 -0.233,-0.791C-0.176,-0.717 -0.103,-0.653 -0.032,-0.589C0.014,-0.548 0.067,-0.543 0.115,-0.591C0.243,-0.717 0.394,-0.821 0.513,-0.958C0.557,-1.008 0.603,-1.043 0.665,-0.956C0.744,-0.843 0.843,-0.74 0.935,-0.635C0.972,-0.594 0.969,-0.569 0.928,-0.527C0.749,-0.353 0.564,-0.186 0.397,0.002C0.371,0.029 0.353,0.034 0.307,0.029C0.156,0.009 0.074,-0.09 -0.023,-0.191C-0.213,-0.39 -0.424,-0.571 -0.628,-0.759C-0.664,-0.793 -0.678,-0.811 -0.639,-0.855C-0.442,-1.079 -0.229,-1.288 0,-1.478Z" style="fill:none;fill-rule:nonzero;stroke:rgb(104,33,95);stroke-width:0.11px;"/>
                    </g>
                    <g transform="matrix(-0.8035,-0.595305,-0.595305,0.8035,356.669,89.143)">
                        <path d="M0.125,-0.269C0.117,-0.181 0.111,-0.095 0.101,-0.009C0.099,0.014 0.099,0.036 0.125,0.038C0.153,0.04 0.152,0.013 0.155,-0.005C0.161,-0.094 0.165,-0.18 0.125,-0.269Z" style="fill:none;fill-rule:nonzero;stroke:rgb(104,33,95);stroke-width:0.11px;"/>
                    </g>
                    <g transform="matrix(6.12323e-17,1,-1,6.12323e-17,355.959,99.3278)">
                        <path d="M0,-0.584C0.025,-0.609 0.048,-0.612 0.069,-0.584C0.172,-0.449 0.319,-0.364 0.431,-0.24C0.467,-0.201 0.472,-0.176 0.426,-0.144C0.353,-0.096 0.289,-0.018 0.209,0.005C0.119,0.028 0.085,-0.092 0.014,-0.133C-0.064,-0.179 -0.128,-0.24 -0.199,-0.293C-0.215,-0.307 -0.232,-0.318 -0.25,-0.33C-0.236,-0.35 -0.229,-0.364 -0.22,-0.373C-0.146,-0.444 -0.073,-0.513 0,-0.584Z" style="fill:none;fill-rule:nonzero;stroke:rgb(104,33,95);stroke-width:0.11px;"/>
                    </g>
                    <g transform="matrix(6.12323e-17,1,-1,6.12323e-17,349.402,89.443)">
                        <path d="M0,-7.012C0.023,-6.991 0.044,-6.971 0.067,-6.95C0.626,-6.38 1.185,-5.812 1.746,-5.244C3.397,-3.574 5.049,-1.904 6.701,-0.236C6.785,-0.149 6.769,-0.076 6.655,-0.025C6.6,0 6.582,-0.046 6.554,-0.073L6.538,-0.089C6.151,-0.481 5.764,-0.871 5.377,-1.262C3.569,-3.095 1.759,-4.925 -0.05,-6.758C-0.115,-6.822 -0.128,-6.881 -0.092,-6.934C-0.078,-6.955 -0.057,-6.973 -0.029,-6.994C-0.023,-7.001 -0.014,-7.003 0,-7.012Z" style="fill:none;fill-rule:nonzero;stroke:rgb(104,33,95);stroke-width:0.11px;"/>
                    </g>
                    <g transform="matrix(6.12323e-17,1,-1,6.12323e-17,354.916,91.4543)">
                        <path d="M0,-1.956C-0.208,-1.768 -0.369,-1.541 -0.552,-1.335C-0.557,-1.331 -0.561,-1.324 -0.566,-1.319C-0.637,-1.239 -0.63,-1.189 -0.557,-1.122C-0.394,-0.973 -0.238,-0.82 -0.08,-0.669C-0.034,-0.623 0.009,-0.575 0.051,-0.524C0.144,-0.41 0.259,-0.337 0.437,-0.343C0.323,-0.229 0.229,-0.128 0.128,-0.034C0.092,0 0.069,-0.052 0.048,-0.073C-0.103,-0.236 -0.261,-0.389 -0.405,-0.556C-0.451,-0.611 -0.499,-0.669 -0.543,-0.728C-0.591,-0.792 -0.63,-0.806 -0.689,-0.746C-0.724,-0.714 -0.763,-0.685 -0.799,-0.655C-0.843,-0.621 -0.887,-0.543 -0.923,-0.561C-0.992,-0.595 -1.044,-0.666 -1.099,-0.726C-1.129,-0.758 -1.09,-0.774 -1.072,-0.788C-0.96,-0.879 -0.847,-0.969 -0.733,-1.058C-0.715,-1.072 -0.696,-1.088 -0.676,-1.099C-0.63,-1.125 -0.637,-1.161 -0.66,-1.195C-0.692,-1.244 -0.715,-1.193 -0.731,-1.179C-0.859,-1.086 -0.985,-0.985 -1.113,-0.886C-1.138,-0.868 -1.159,-0.834 -1.221,-0.834C-0.868,-1.282 -0.467,-1.656 0,-1.956Z" style="fill:none;fill-rule:nonzero;stroke:rgb(104,33,95);stroke-width:0.11px;"/>
                    </g>
                    <g transform="matrix(6.12323e-17,1,-1,6.12323e-17,349.201,98.755)">
                        <path d="M0,-6.721C0.011,-6.751 0.007,-6.826 0.074,-6.787C0.085,-6.781 0.097,-6.776 0.11,-6.771C0.158,-6.753 0.213,-6.737 0.174,-6.639C-0.412,-5.118 -0.992,-3.597 -1.574,-2.075C-1.622,-1.952 -1.667,-1.83 -1.713,-1.707C-1.86,-1.329 -2.004,-0.948 -2.149,-0.57C-2.208,-0.415 -2.291,-0.268 -2.362,-0.117C-2.368,-0.101 -2.378,-0.087 -2.387,-0.073C-2.414,-0.03 -2.451,0.007 -2.497,0.034C-2.533,0.057 -2.57,0.105 -2.614,0.085C-2.655,0.064 -2.641,0.007 -2.643,-0.046C-2.657,-0.094 -2.632,-0.128 -2.586,-0.167C-2.492,-0.247 -2.433,-0.353 -2.389,-0.472C-2.375,-0.508 -2.362,-0.543 -2.348,-0.58C-2.213,-0.937 -2.071,-1.292 -1.936,-1.649C-1.679,-2.316 -1.429,-2.987 -1.175,-3.654C-0.783,-4.677 -0.392,-5.699 0,-6.721Z" style="fill:none;fill-rule:nonzero;stroke:rgb(104,33,95);stroke-width:0.11px;"/>
                    </g>
                    <g transform="matrix(6.12323e-17,1,-1,6.12323e-17,350.069,92.4577)">
                        <path d="M0,-5.599C0.048,-5.64 0.069,-5.627 0.106,-5.587C1.473,-4.11 2.893,-2.683 4.316,-1.256C4.414,-1.157 4.421,-1.029 4.334,-0.919C4.302,-0.878 4.277,-0.907 4.256,-0.921C4.158,-0.983 4.057,-1.043 3.965,-1.116C3.125,-1.78 2.385,-2.541 1.75,-3.402C1.649,-3.537 1.562,-3.681 1.471,-3.821C1.45,-3.853 1.423,-3.879 1.391,-3.899C1.045,-4.126 0.685,-4.334 0.314,-4.518C0.296,-4.527 0.277,-4.536 0.264,-4.543C0.211,-4.536 0.215,-4.509 0.229,-4.476C0.335,-4.227 0.428,-3.972 0.573,-3.743C0.644,-3.631 0.726,-3.537 0.834,-3.459C1.54,-2.953 2.163,-2.35 2.77,-1.73C3.207,-1.283 3.626,-0.818 4.009,-0.319C4.064,-0.248 4.046,-0.051 3.977,0.007C3.938,0.041 3.924,-0.005 3.906,-0.023C3.665,-0.25 3.418,-0.474 3.184,-0.71C1.853,-2.051 0.5,-3.37 -0.792,-4.751C-0.841,-4.804 -0.868,-4.838 -0.767,-4.847C-0.715,-4.852 -0.74,-4.905 -0.712,-4.93C-0.472,-5.15 -0.249,-5.388 0,-5.599Z" style="fill:none;fill-rule:nonzero;stroke:rgb(104,33,95);stroke-width:0.11px;"/>
                    </g>
                    <g transform="matrix(6.12323e-17,1,-1,6.12323e-17,349.758,90.7122)">
                        <path d="M0,-5.696C0.048,-5.735 0.097,-5.769 0.149,-5.811C0.202,-5.762 0.254,-5.724 0.296,-5.673C1.001,-4.851 1.748,-4.06 2.52,-3.298C3.535,-2.296 4.524,-1.266 5.578,-0.301C5.665,-0.219 5.679,-0.152 5.631,-0.047C5.56,0.113 5.567,0.115 5.443,-0.008C3.626,-1.848 1.81,-3.685 -0.007,-5.524C-0.096,-5.614 -0.096,-5.616 0,-5.696Z" style="fill:none;fill-rule:nonzero;stroke:rgb(104,33,95);stroke-width:0.11px;"/>
                    </g>
                    <g transform="matrix(6.12323e-17,1,-1,6.12323e-17,347.78,90.1303)">
                        <path d="M0,-7.093L0.028,-7.111C0.039,-7.091 0.067,-7.075 0.083,-7.059C1.203,-5.874 2.321,-4.69 3.484,-3.552C4.164,-2.885 4.818,-2.191 5.519,-1.547C5.546,-1.522 5.564,-1.481 5.626,-1.492L5.642,-1.421C3.979,-0.995 2.318,-0.571 0.655,-0.152C0.548,-0.127 0.479,-0.072 0.426,0.018L0.369,-0.015C0.453,-0.159 0.57,-0.267 0.749,-0.315C0.596,-0.48 0.325,-0.429 0.213,-0.23L0.19,-0.241C0.213,-0.28 0.236,-0.321 0.259,-0.363C0.144,-0.34 0.062,-0.29 -0.002,-0.223L-0.041,-0.262C0.014,-0.321 0.08,-0.37 0.163,-0.406C0.211,-0.429 0.259,-0.459 0.305,-0.486C0.323,-0.498 0.36,-0.5 0.346,-0.532C0.332,-0.564 0.307,-0.587 0.284,-0.619C0.268,-0.608 0.259,-0.601 0.25,-0.592C0.124,-0.461 -0.034,-0.37 -0.172,-0.253C-0.213,-0.218 -0.254,-0.182 -0.293,-0.147L-0.359,-0.223C-0.249,-0.338 -0.115,-0.422 0.005,-0.525C0.064,-0.576 0.06,-0.626 0.009,-0.684C-0.19,-0.913 -0.336,-1.174 -0.467,-1.444C-0.699,-1.92 -0.861,-2.413 -0.928,-2.938C-0.955,-3.148 -0.967,-3.361 -0.967,-3.597C-1.242,-2.993 -1.2,-2.392 -1.093,-1.788C-1.111,-1.813 -1.118,-1.838 -1.125,-1.863C-1.351,-2.709 -1.324,-3.554 -1.09,-4.388C-0.893,-5.086 -0.584,-5.737 -0.096,-6.289C-0.002,-6.394 -0.005,-6.397 -0.108,-6.5C-0.146,-6.539 -0.188,-6.575 -0.22,-6.621C-0.227,-6.63 -0.232,-6.637 -0.236,-6.642L-0.156,-6.717C0.005,-6.545 0.179,-6.385 0.357,-6.229C0.437,-6.159 0.488,-6.17 0.55,-6.241C0.559,-6.252 0.573,-6.266 0.586,-6.275C0.644,-6.314 0.637,-6.344 0.591,-6.394C0.387,-6.619 0.188,-6.85 0.002,-7.088C0,-7.091 0,-7.091 0,-7.093Z" style="fill:none;fill-rule:nonzero;stroke:rgb(104,33,95);stroke-width:0.11px;"/>
                    </g>
                    <g transform="matrix(6.12323e-17,1,-1,6.12323e-17,350.383,92.7853)">
                        <path d="M0,-4.137C0.085,-4.119 0.133,-4.08 0.184,-4.048C0.461,-3.878 0.738,-3.709 1.015,-3.539C1.049,-3.519 1.072,-3.493 1.093,-3.461C1.633,-2.627 2.291,-1.899 3.036,-1.244C3.319,-0.992 3.601,-0.735 3.908,-0.513C3.942,-0.488 3.954,-0.465 3.94,-0.426C3.888,-0.291 3.835,-0.153 3.775,0C3.677,-0.124 3.59,-0.238 3.5,-0.346C2.898,-1.081 2.222,-1.745 1.53,-2.394C1.18,-2.721 0.804,-3.008 0.422,-3.289C0.405,-3.301 0.39,-3.317 0.378,-3.333C0.224,-3.58 0.126,-3.855 0,-4.137Z" style="fill:none;fill-rule:nonzero;stroke:rgb(104,33,95);stroke-width:0.11px;"/>
                    </g>
                    <g transform="matrix(6.12323e-17,1,-1,6.12323e-17,344.938,97.1309)">
                        <path d="M0,-5.997C0.023,-6.006 0.037,-5.986 0.051,-5.972C0.202,-5.8 0.378,-5.653 0.522,-5.472C0.614,-5.356 0.738,-5.264 0.841,-5.154C1.303,-4.657 1.888,-4.359 2.502,-4.103C2.852,-3.954 3.226,-3.853 3.549,-3.64C4.323,-3.124 5.102,-2.614 5.757,-1.94C5.842,-1.855 5.924,-1.768 5.997,-1.674C6.027,-1.635 6.032,-1.606 6,-1.567C5.594,-1.074 5.234,-0.547 4.818,-0.064C4.753,0.009 4.733,0 4.673,-0.071C4.243,-0.595 3.888,-1.175 3.489,-1.722C3.008,-2.384 2.419,-2.943 1.718,-3.372C1.326,-3.608 0.907,-3.796 0.511,-4.029C0.387,-4.1 0.291,-4.201 0.186,-4.29C-0.011,-4.457 -0.222,-4.604 -0.401,-4.79C-0.44,-4.831 -0.405,-5.053 -0.355,-5.076C-0.332,-5.085 -0.318,-5.065 -0.3,-5.055C0.028,-4.89 0.364,-4.739 0.715,-4.611C0.731,-4.657 0.713,-4.685 0.699,-4.712C0.559,-5.032 0.371,-5.328 0.186,-5.622C0.14,-5.692 0.053,-5.736 -0.023,-5.784C-0.055,-5.804 -0.055,-5.892 -0.034,-5.949C-0.028,-5.972 -0.016,-5.99 0,-5.997Z" style="fill:none;fill-rule:nonzero;stroke:rgb(104,33,95);stroke-width:0.11px;"/>
                    </g>
                    <g transform="matrix(6.12323e-17,1,-1,6.12323e-17,349.223,97.3554)">
                        <path d="M0,-1.629C-0.046,-1.679 0.009,-1.679 0.041,-1.677C0.222,-1.663 0.401,-1.631 0.577,-1.592C0.884,-1.523 1.194,-1.471 1.489,-1.352C1.649,-1.288 1.757,-1.178 1.851,-1.047C2.057,-0.752 2.229,-0.435 2.371,-0.106C2.378,-0.094 2.385,-0.08 2.387,-0.067C2.39,-0.03 2.39,0.007 2.392,0.05C2.293,0.027 2.222,0.011 2.186,-0.11C2.126,-0.3 2.018,-0.472 1.876,-0.621C1.931,-0.463 1.94,-0.296 1.979,-0.133C1.876,-0.193 1.775,-0.227 1.714,-0.348C1.553,-0.669 1.359,-0.967 0.96,-1.042C0.793,-1.075 0.63,-1.132 0.46,-1.148C0.385,-1.157 0.369,-1.221 0.302,-1.274C0.6,-1.308 0.859,-1.23 1.132,-1.194C1.019,-1.269 0.896,-1.304 0.777,-1.34C0.587,-1.395 0.394,-1.446 0.199,-1.48C0.101,-1.498 0.055,-1.567 0,-1.629Z" style="fill:none;fill-rule:nonzero;stroke:rgb(104,33,95);stroke-width:0.11px;"/>
                    </g>
                    <g transform="matrix(6.12323e-17,1,-1,6.12323e-17,349.723,96.9935)">
                        <path d="M0,-0.877C0.023,-0.944 0.048,-0.941 0.101,-0.905C0.27,-0.785 0.383,-0.618 0.486,-0.446C0.584,-0.286 0.669,-0.119 0.761,0.046C0.754,0.053 0.749,0.06 0.742,0.067C0.509,-0.036 0.275,-0.137 0.041,-0.242C-0.036,-0.279 -0.16,-0.286 -0.183,-0.362C-0.201,-0.426 -0.135,-0.517 -0.105,-0.598C-0.071,-0.692 -0.032,-0.783 0,-0.877Z" style="fill:none;fill-rule:nonzero;stroke:rgb(104,33,95);stroke-width:0.11px;"/>
                    </g>
                    <g transform="matrix(6.12323e-17,1,-1,6.12323e-17,344.36,96.6111)">
                        <path d="M0,-5.239C0.041,-5.342 0.043,-5.344 0.119,-5.264C0.417,-4.957 0.722,-4.655 1.093,-4.433C1.351,-4.279 1.617,-4.135 1.894,-4.018C2.362,-3.821 2.76,-3.528 3.127,-3.182C3.489,-2.838 3.819,-2.469 4.085,-2.046C4.401,-1.544 4.732,-1.056 5.113,-0.6C5.182,-0.52 5.175,-0.472 5.097,-0.405C4.895,-0.227 4.678,-0.075 4.455,0.073C4.405,0.105 4.387,0.089 4.391,0.037C4.393,0.004 4.382,-0.018 4.364,-0.039C3.959,-0.518 3.644,-1.065 3.271,-1.567C2.788,-2.215 2.208,-2.767 1.519,-3.191C1.166,-3.406 0.781,-3.567 0.426,-3.782C0.298,-3.862 0.172,-3.936 0.059,-4.041C-0.087,-4.178 -0.252,-4.297 -0.405,-4.428C-0.474,-4.485 -0.536,-4.547 -0.607,-4.609C-0.593,-4.625 -0.591,-4.63 -0.589,-4.63C-0.403,-4.662 -0.279,-4.753 -0.19,-4.877C-0.11,-4.98 -0.053,-5.108 0,-5.239Z" style="fill:none;fill-rule:nonzero;stroke:rgb(104,33,95);stroke-width:0.11px;"/>
                    </g>
                    <g transform="matrix(6.12323e-17,1,-1,6.12323e-17,347.696,95.7725)">
                        <path d="M0,-1.505C0.128,-1.537 0.163,-1.436 0.257,-1.372C0.247,-1.37 0.241,-1.368 0.232,-1.365C-1.608,-0.896 -3.429,-0.435 -5.262,0.032C-5.248,-0.005 -5.232,-0.037 -5.216,-0.066C-5.163,-0.156 -5.095,-0.211 -4.987,-0.236C-3.324,-0.655 -1.663,-1.079 0,-1.505Z" style="fill:none;fill-rule:nonzero;stroke:rgb(104,33,95);stroke-width:0.11px;"/>
                    </g>
                    <g transform="matrix(6.12323e-17,1,-1,6.12323e-17,343.982,103.279)">
                        <path d="M0,-2.593C0.014,-2.611 0.028,-2.629 0.044,-2.648C0.064,-2.634 0.078,-2.625 0.089,-2.614C0.119,-2.586 0.149,-2.556 0.176,-2.526C0.277,-2.414 0.291,-2.371 0.224,-2.263C0.215,-2.249 0.206,-2.233 0.195,-2.217C-0.158,-1.713 -0.515,-1.212 -0.937,-0.758C-0.99,-0.703 -1.024,-0.696 -1.09,-0.735C-1.145,-0.767 -1.219,-0.852 -1.271,-0.792C-1.312,-0.747 -1.214,-0.692 -1.175,-0.648C-1.12,-0.584 -1.125,-0.545 -1.187,-0.49C-1.402,-0.298 -1.626,-0.121 -1.876,0.025C-1.92,0.053 -1.952,0.055 -1.993,0.019C-2.039,-0.027 -2.089,-0.068 -2.142,-0.107C-2.204,-0.156 -2.213,-0.192 -2.137,-0.243C-2.018,-0.321 -1.908,-0.415 -1.784,-0.49C-1.541,-0.639 -1.345,-0.836 -1.166,-1.056C-0.79,-1.519 -0.428,-1.991 -0.085,-2.476C-0.055,-2.515 -0.028,-2.554 0,-2.593Z" style="fill:none;fill-rule:nonzero;stroke:rgb(104,33,95);stroke-width:0.11px;"/>
                    </g>
                </g>
            </g>
            <g transform="matrix(6.12323e-17,1,-1,6.12323e-17,356.015,98.7459)">
                <path d="M0,-0.195C0.037,-0.14 0.087,-0.128 0.142,-0.124C0.213,-0.115 0.286,-0.115 0.332,-0.046C0.339,-0.035 0.348,-0.025 0.364,-0.005C0.282,0 0.213,-0.009 0.156,-0.035C0.078,-0.064 0.028,-0.117 0,-0.195" style="fill:white;fill-rule:nonzero;"/>
            </g>
            <g transform="matrix(6.12323e-17,1,-1,6.12323e-17,349.281,94.8448)">
                <path d="M0,-1.214C0.03,-1.244 0.06,-1.193 0.083,-1.173C0.263,-0.987 0.447,-0.804 0.628,-0.616C0.77,-0.47 0.903,-0.314 1.063,-0.183C1.072,-0.176 1.081,-0.169 1.088,-0.163C1.12,-0.13 1.141,-0.096 1.127,-0.043C1.127,-0.023 1.141,0.009 1.113,0.019C1.086,0.03 1.07,0 1.056,-0.016C0.765,-0.323 0.463,-0.618 0.193,-0.946C0.142,-1.008 0.089,-1.065 0.039,-1.125C0.028,-1.141 0.005,-1.157 -0.007,-1.173C-0.014,-1.184 -0.016,-1.198 0,-1.214" style="fill:white;fill-rule:nonzero;"/>
            </g>
            <g transform="matrix(6.12323e-17,1,-1,6.12323e-17,356.233,87.6104)">
                <path d="M0,-1.915C-0.005,-1.975 0.011,-2.02 0.094,-2.007C0.275,-1.977 0.449,-1.936 0.621,-1.883C1.132,-1.727 1.597,-1.473 2.023,-1.129C2.032,-1.123 2.039,-1.111 2.057,-1.088C1.902,-1.076 1.773,-1.026 1.668,-0.93C1.631,-0.896 1.606,-0.925 1.581,-0.946C1.269,-1.18 0.923,-1.356 0.552,-1.464C0.461,-1.491 0.408,-1.53 0.355,-1.594C0.277,-1.686 0.209,-1.789 0.103,-1.885C0.106,-1.819 0.14,-1.787 0.165,-1.752C0.25,-1.638 0.335,-1.521 0.424,-1.409C0.472,-1.347 0.502,-1.283 0.518,-1.207C0.589,-0.919 0.71,-0.651 0.873,-0.403C0.884,-0.387 0.893,-0.364 0.91,-0.355C1.051,-0.289 0.987,-0.227 0.914,-0.153C0.848,-0.089 0.843,0.007 0.807,0.105C0.671,-0.05 0.564,-0.211 0.481,-0.385C0.298,-0.783 0.128,-1.189 0.046,-1.622C0.028,-1.718 0.011,-1.817 0,-1.915" style="fill:white;fill-rule:nonzero;"/>
            </g>
            <g transform="matrix(6.12323e-17,1,-1,6.12323e-17,357.512,89.0766)">
                <path d="M0,0.919C-0.076,0.875 -0.149,0.83 -0.224,0.784C-0.176,0.869 -0.106,0.917 -0.03,0.965C-0.014,0.974 0.007,0.99 0.023,0.967C0.037,0.944 0.018,0.93 0,0.919M-0.946,-0.126C-0.939,-0.132 -0.935,-0.139 -0.928,-0.149C-0.87,-0.123 -0.811,-0.101 -0.756,-0.073C-0.504,0.046 -0.266,0.186 -0.028,0.328C0.069,0.388 0.083,0.468 0.076,0.562C0.071,0.617 0.053,0.681 0.08,0.722C0.16,0.839 0.101,0.93 0.046,1.027C0.044,1.031 0.039,1.038 0.037,1.04C0.016,1.068 -0.002,1.063 -0.032,1.04C-0.153,0.953 -0.282,0.885 -0.435,0.882C-0.46,0.88 -0.481,0.873 -0.497,0.853C-0.651,0.642 -0.749,0.404 -0.841,0.161C-0.662,0.358 -0.55,0.61 -0.319,0.759C-0.433,0.617 -0.539,0.465 -0.639,0.314C-0.74,0.167 -0.843,0.021 -0.946,-0.126" style="fill:white;fill-rule:nonzero;"/>
            </g>
            <g transform="matrix(6.12323e-17,1,-1,6.12323e-17,346.663,90.0089)">
                <path d="M0,-0.254C0.064,-0.327 0.126,-0.405 0.19,-0.481C0.314,-0.343 0.417,-0.192 0.566,-0.084C0.614,-0.05 0.591,-0.027 0.561,0.003C0.495,0.069 0.417,0.129 0.38,0.227C0.234,0.103 0.119,-0.039 0.002,-0.181C-0.016,-0.206 -0.023,-0.226 0,-0.254" style="fill:white;fill-rule:nonzero;"/>
            </g>
            <g transform="matrix(6.12323e-17,1,-1,6.12323e-17,346.791,90.9138)">
                <path d="M0,-0.699C0.106,-0.738 0.181,-0.678 0.176,-0.552C0.176,-0.536 0.181,-0.506 0.158,-0.479C0.046,-0.328 -0.057,-0.17 -0.183,-0.03C-0.232,0.023 -0.259,0.039 -0.316,-0.03C-0.382,-0.112 -0.467,-0.179 -0.552,-0.245C-0.602,-0.287 -0.634,-0.344 -0.653,-0.397C-0.674,-0.452 -0.612,-0.509 -0.554,-0.506C-0.408,-0.497 -0.298,-0.541 -0.204,-0.655C-0.16,-0.71 -0.069,-0.674 0,-0.699" style="fill:white;fill-rule:nonzero;"/>
            </g>
            <g transform="matrix(6.12323e-17,1,-1,6.12323e-17,347.302,90.3801)">
                <path d="M0,-1.069C0.009,-1.078 0.018,-1.085 0.034,-1.097C0.057,-1.064 0.083,-1.041 0.096,-1.009C0.11,-0.977 0.073,-0.975 0.055,-0.963C0.009,-0.936 -0.039,-0.906 -0.087,-0.883C-0.17,-0.847 -0.236,-0.799 -0.291,-0.739C-0.392,-0.636 -0.453,-0.501 -0.493,-0.35C-0.504,-0.306 -0.527,-0.279 -0.557,-0.249C-0.621,-0.187 -0.68,-0.123 -0.747,-0.063C-0.774,-0.04 -0.804,0.028 -0.85,-0.031C-0.889,-0.077 -0.964,-0.116 -0.905,-0.203C-0.802,-0.361 -0.678,-0.496 -0.543,-0.625C-0.504,-0.659 -0.463,-0.695 -0.422,-0.73C-0.284,-0.847 -0.126,-0.938 0,-1.069" style="fill:white;fill-rule:nonzero;"/>
            </g>
            <g transform="matrix(6.12323e-17,1,-1,6.12323e-17,346.907,89.9517)">
                <path d="M0,-0.502C0.078,-0.538 0.151,-0.415 0.252,-0.426C0.252,-0.417 0.254,-0.408 0.254,-0.399C0.14,-0.264 0.025,-0.128 -0.089,0.007C-0.101,0.02 -0.11,0.036 -0.131,0.032C-0.188,0.02 -0.266,-0.135 -0.236,-0.186C-0.218,-0.222 -0.195,-0.257 -0.169,-0.289C-0.115,-0.365 -0.073,-0.47 0,-0.502" style="fill:white;fill-rule:nonzero;"/>
            </g>
            <g transform="matrix(6.12323e-17,1,-1,6.12323e-17,347.359,90.3892)">
                <path d="M0,-0.783C-0.023,-0.742 -0.046,-0.701 -0.069,-0.662C-0.101,-0.602 -0.133,-0.545 -0.165,-0.488C-0.227,-0.385 -0.153,-0.316 -0.101,-0.243C-0.05,-0.169 0.014,-0.142 0.101,-0.176C0.126,-0.185 0.154,-0.194 0.179,-0.197C0.199,-0.199 0.224,-0.199 0.234,-0.181C0.25,-0.153 0.227,-0.137 0.211,-0.121C0.094,-0.006 -0.27,0 -0.371,-0.123C-0.433,-0.199 -0.422,-0.309 -0.394,-0.398C-0.364,-0.492 -0.323,-0.577 -0.261,-0.643C-0.197,-0.71 -0.115,-0.76 0,-0.783" style="fill:white;fill-rule:nonzero;"/>
            </g>
            <g transform="matrix(6.12323e-17,1,-1,6.12323e-17,347.72,89.7823)">
                <path d="M0,-6.678C0.043,-6.737 0.073,-6.742 0.112,-6.701C0.117,-6.696 0.121,-6.689 0.128,-6.68C0.16,-6.634 0.202,-6.598 0.241,-6.559C0.344,-6.456 0.346,-6.454 0.252,-6.348C-0.236,-5.796 -0.545,-5.145 -0.742,-4.447C-0.976,-3.613 -1.003,-2.768 -0.777,-1.922C-0.77,-1.897 -0.763,-1.872 -0.744,-1.847C-0.852,-2.451 -0.893,-3.052 -0.619,-3.656C-0.619,-3.421 -0.607,-3.208 -0.58,-2.997C-0.513,-2.472 -0.351,-1.98 -0.119,-1.503C0.011,-1.233 0.158,-0.972 0.358,-0.742C0.408,-0.685 0.412,-0.635 0.353,-0.585C0.233,-0.482 0.098,-0.397 -0.011,-0.282C-0.048,-0.243 -0.078,-0.269 -0.101,-0.305C-0.133,-0.355 -0.165,-0.404 -0.193,-0.454C-0.383,-0.82 -0.58,-1.185 -0.699,-1.588C-0.692,-1.544 -0.69,-1.501 -0.68,-1.457C-0.674,-1.409 -0.667,-1.361 -0.653,-1.318C-0.534,-0.951 -0.383,-0.6 -0.206,-0.261C-0.186,-0.218 -0.174,-0.184 -0.211,-0.14C-0.257,-0.083 -0.298,-0.019 -0.357,0.064C-0.598,-0.5 -0.875,-1.024 -0.985,-1.615C-1.049,-1.954 -1.141,-2.287 -1.191,-2.63C-1.272,-3.198 -1.237,-3.759 -1.123,-4.323C-1.038,-4.749 -0.843,-5.129 -0.685,-5.526C-0.516,-5.947 -0.268,-6.316 0,-6.678" style="fill:white;fill-rule:nonzero;"/>
            </g>
            <g transform="matrix(6.12323e-17,1,-1,6.12323e-17,354.002,89.9655)">
                <path d="M0,-1.317C0.016,-1.333 0.037,-1.347 0.078,-1.381C0.112,-1.335 0.137,-1.285 0.179,-1.25C0.259,-1.184 0.273,-1.127 0.183,-1.06C0.108,-1.003 0.106,-0.948 0.165,-0.87C0.165,-0.868 0.165,-0.868 0.167,-0.866C0.353,-0.628 0.552,-0.396 0.756,-0.172C0.802,-0.121 0.809,-0.092 0.751,-0.053C0.738,-0.043 0.724,-0.03 0.715,-0.018C0.653,0.053 0.602,0.064 0.522,-0.007C0.344,-0.162 0.169,-0.323 0.009,-0.495C-0.098,-0.605 -0.199,-0.721 -0.293,-0.843C-0.341,-0.905 -0.339,-0.944 -0.289,-0.999C-0.19,-1.102 -0.096,-1.212 0,-1.317" style="fill:white;fill-rule:nonzero;"/>
            </g>
            <g transform="matrix(6.12323e-17,1,-1,6.12323e-17,349.276,90.2976)">
                <path d="M0,-5.791C0.037,-5.807 0.057,-5.761 0.08,-5.738C0.577,-5.234 1.074,-4.73 1.574,-4.226C2.47,-3.319 3.363,-2.414 4.261,-1.512C4.332,-1.441 4.366,-1.354 4.412,-1.274C4.437,-1.23 4.462,-1.186 4.488,-1.145C4.6,-0.96 4.723,-0.783 4.886,-0.632C5.092,-0.437 5.255,-0.204 5.48,0C5.471,0.002 5.466,0.005 5.459,0.005C5.397,0.016 5.379,-0.025 5.351,-0.05C4.65,-0.694 3.997,-1.388 3.317,-2.055C2.153,-3.193 1.035,-4.377 -0.085,-5.562C-0.101,-5.578 -0.128,-5.594 -0.14,-5.615C-0.149,-5.626 -0.151,-5.64 -0.14,-5.658C-0.108,-5.715 -0.059,-5.763 0,-5.791" style="fill:white;fill-rule:nonzero;"/>
            </g>
            <g transform="matrix(6.12323e-17,1,-1,6.12323e-17,354.444,97.3966)">
                <path d="M0,3.544C-0.032,3.542 -0.087,3.542 -0.041,3.592C0.014,3.654 0.06,3.723 0.158,3.741C0.353,3.776 0.545,3.826 0.735,3.881C0.855,3.917 0.978,3.952 1.09,4.027C0.818,3.991 0.559,3.913 0.261,3.947C0.328,4 0.344,4.064 0.419,4.073C0.589,4.089 0.752,4.146 0.919,4.179C1.317,4.254 1.512,4.552 1.672,4.873C1.734,4.994 1.835,5.028 1.938,5.088C1.899,4.925 1.89,4.758 1.835,4.6C1.977,4.749 2.085,4.921 2.144,5.111C2.181,5.232 2.252,5.248 2.35,5.271C2.348,5.228 2.348,5.191 2.346,5.154C2.344,5.141 2.337,5.127 2.33,5.115C2.188,4.786 2.016,4.469 1.81,4.174C1.716,4.044 1.608,3.933 1.448,3.869C1.152,3.75 0.843,3.698 0.536,3.629C0.36,3.59 0.181,3.558 0,3.544M2,-2.098C1.979,-2.126 1.957,-2.123 1.931,-2.098C1.858,-2.027 1.785,-1.958 1.711,-1.887C1.702,-1.878 1.695,-1.864 1.681,-1.844C1.7,-1.832 1.716,-1.821 1.732,-1.807C1.803,-1.754 1.867,-1.693 1.945,-1.647C2.016,-1.606 2.05,-1.486 2.14,-1.509C2.22,-1.532 2.284,-1.61 2.357,-1.658C2.403,-1.69 2.399,-1.716 2.362,-1.754C2.25,-1.878 2.103,-1.963 2,-2.098M2.552,-2.6C2.527,-2.618 2.508,-2.614 2.488,-2.595C2.325,-2.451 2.147,-2.325 1.998,-2.16C2.144,-2.087 2.273,-1.995 2.396,-1.894C2.522,-1.789 2.52,-1.791 2.634,-1.91C2.74,-2.02 2.827,-2.151 2.971,-2.227C2.847,-2.369 2.699,-2.485 2.552,-2.6M-2.366,-4.371C0.967,-4.682 4.302,-2.68 5.459,0.751C5.722,1.533 5.862,2.334 5.848,3.022C5.853,4.44 5.544,5.638 4.939,6.758C4.9,6.831 4.909,6.866 4.969,6.921C5.237,7.159 5.507,7.397 5.757,7.656C5.773,7.672 5.793,7.697 5.812,7.697C6.034,7.711 6.109,7.894 6.222,8.038C6.258,8.084 6.217,8.123 6.197,8.158C6.183,8.18 6.169,8.203 6.153,8.226L6.107,8.199C6.174,8.091 6.16,8.048 6.059,7.935C6.032,7.906 6.002,7.876 5.972,7.848C5.961,7.837 5.947,7.828 5.926,7.814C5.91,7.832 5.897,7.85 5.883,7.869C5.855,7.908 5.828,7.947 5.798,7.986L5.734,7.94C5.766,7.901 5.761,7.871 5.732,7.832C5.658,7.738 5.576,7.651 5.491,7.567C4.836,6.893 4.057,6.382 3.283,5.867C2.96,5.654 2.586,5.553 2.236,5.404C1.622,5.147 1.038,4.85 0.575,4.353C0.472,4.243 0.348,4.151 0.257,4.034C0.112,3.853 -0.064,3.707 -0.215,3.535C-0.229,3.521 -0.243,3.5 -0.266,3.51C-0.282,3.516 -0.293,3.535 -0.3,3.558L-0.355,3.537C-0.309,3.413 -0.263,3.292 -0.215,3.168C0.367,1.647 0.946,0.126 1.533,-1.395C1.572,-1.494 1.517,-1.509 1.468,-1.528L1.505,-1.606C1.562,-1.58 1.631,-1.571 1.714,-1.576C1.698,-1.597 1.688,-1.606 1.681,-1.617C1.636,-1.686 1.562,-1.686 1.491,-1.695L1.496,-1.816C1.517,-1.816 1.537,-1.825 1.562,-1.848C1.883,-2.137 2.156,-2.476 2.497,-2.742C2.513,-2.753 2.54,-2.767 2.522,-2.788C2.479,-2.843 2.424,-2.882 2.36,-2.909C2.314,-2.904 2.284,-2.875 2.25,-2.852C1.927,-2.634 1.654,-2.362 1.397,-2.071C1.384,-2.055 1.372,-2.041 1.361,-2.027L1.285,-2.087C1.53,-2.382 1.755,-2.691 2.027,-2.962C2.055,-2.989 2.126,-3.021 2.06,-3.074C2.009,-3.113 1.963,-3.189 1.879,-3.113C1.707,-2.955 1.53,-2.806 1.356,-2.652C1.258,-2.568 1.171,-2.469 1.088,-2.369L1.019,-2.426C1.029,-2.442 1.042,-2.458 1.056,-2.478C1.088,-2.526 1.122,-2.574 1.164,-2.616C1.212,-2.664 1.198,-2.689 1.145,-2.721C0.965,-2.834 0.772,-2.925 0.577,-3.01C-0.199,-3.342 -1.015,-3.525 -1.851,-3.626C-2.011,-3.647 -2.172,-3.681 -2.332,-3.661C-2.639,-3.619 -2.944,-3.548 -3.246,-3.475C-3.621,-3.383 -3.988,-3.267 -4.341,-3.111C-4.332,-3.122 -4.323,-3.131 -4.311,-3.141C-4.277,-3.163 -4.236,-3.177 -4.199,-3.195C-3.757,-3.404 -3.285,-3.518 -2.811,-3.631C-2.669,-3.663 -2.524,-3.715 -2.38,-3.709C-1.959,-3.692 -1.54,-3.658 -1.122,-3.587C-0.295,-3.448 0.504,-3.225 1.23,-2.785C1.258,-2.769 1.283,-2.749 1.312,-2.776C1.445,-2.893 1.576,-3.007 1.709,-3.122C1.736,-3.147 1.736,-3.166 1.7,-3.182C1.672,-3.193 1.645,-3.209 1.615,-3.221C0.926,-3.518 0.211,-3.739 -0.525,-3.887C-1.056,-3.995 -1.587,-4.027 -2.128,-3.965C-2.907,-3.876 -3.606,-3.564 -4.279,-3.193C-4.295,-3.184 -4.311,-3.175 -4.325,-3.166C-4.895,-2.845 -5.392,-2.414 -5.86,-1.956C-5.878,-1.938 -5.894,-1.922 -5.91,-1.908L-5.965,-1.963C-5.874,-2.059 -5.779,-2.151 -5.688,-2.245C-5.67,-2.263 -5.617,-2.266 -5.644,-2.309C-5.672,-2.352 -5.704,-2.398 -5.759,-2.423C-5.777,-2.412 -5.793,-2.4 -5.809,-2.389C-6.039,-2.199 -6.251,-1.99 -6.448,-1.766L-6.494,-1.807C-6.311,-2.013 -6.151,-2.24 -5.942,-2.428C-6.409,-2.128 -6.811,-1.754 -7.163,-1.306C-7.101,-1.306 -7.081,-1.34 -7.055,-1.358C-6.927,-1.457 -6.801,-1.557 -6.673,-1.651C-6.657,-1.665 -6.634,-1.716 -6.602,-1.668C-6.579,-1.633 -6.572,-1.597 -6.618,-1.571C-6.639,-1.56 -6.657,-1.544 -6.675,-1.53C-6.79,-1.441 -6.902,-1.351 -7.014,-1.26C-7.032,-1.246 -7.072,-1.23 -7.042,-1.198C-6.987,-1.138 -6.934,-1.067 -6.865,-1.033C-6.829,-1.015 -6.785,-1.092 -6.742,-1.127C-6.705,-1.157 -6.666,-1.186 -6.632,-1.218C-6.572,-1.278 -6.533,-1.264 -6.485,-1.2C-6.442,-1.141 -6.393,-1.083 -6.348,-1.028L-6.389,-0.987C-6.43,-1.038 -6.483,-1.076 -6.536,-1.125C-6.588,-1.083 -6.636,-1.049 -6.685,-1.01C-6.781,-0.93 -6.781,-0.927 -6.691,-0.838C-4.875,1.001 -3.058,2.839 -1.242,4.678C-1.118,4.802 -1.125,4.799 -1.054,4.639L-0.99,4.664C-1.003,4.701 -1.017,4.735 -1.031,4.772C-1.074,4.891 -1.134,4.996 -1.228,5.077C-1.274,5.115 -1.299,5.15 -1.285,5.198C-1.283,5.251 -1.297,5.308 -1.255,5.328C-1.212,5.349 -1.175,5.301 -1.138,5.278C-1.093,5.251 -1.056,5.214 -1.028,5.17L-0.976,5.207C-1.065,5.331 -1.189,5.423 -1.374,5.454L-1.393,5.384C-1.384,5.381 -1.377,5.379 -1.367,5.377C-1.461,5.312 -1.496,5.212 -1.624,5.244L-1.64,5.173C-1.633,5.173 -1.629,5.17 -1.619,5.168C-1.844,4.964 -2.007,4.731 -2.213,4.536C-2.376,4.385 -2.499,4.208 -2.611,4.023L-2.559,3.991C-2.547,4.007 -2.524,4.023 -2.513,4.039C-2.462,4.098 -2.41,4.156 -2.359,4.218C-2.089,4.545 -1.787,4.841 -1.496,5.147C-1.482,5.163 -1.466,5.193 -1.438,5.182C-1.411,5.173 -1.425,5.141 -1.425,5.12C-1.411,5.067 -1.432,5.033 -1.464,5.001L-1.415,4.953L-1.4,4.969C-1.372,4.996 -1.354,5.042 -1.299,5.017C-1.184,4.967 -1.168,4.893 -1.253,4.806C-2.905,3.139 -4.556,1.469 -6.208,-0.201C-6.769,-0.77 -7.328,-1.338 -7.887,-1.908C-7.91,-1.929 -7.931,-1.949 -7.954,-1.97C-7.967,-1.961 -7.977,-1.958 -7.983,-1.952C-8.011,-1.931 -8.031,-1.913 -8.045,-1.892L-8.105,-1.931C-8.072,-1.977 -8.047,-2.023 -8.022,-2.064C-8.022,-2.103 -8.011,-2.13 -8.038,-2.144C-8.068,-2.158 -8.102,-2.16 -8.125,-2.137C-8.167,-2.093 -8.208,-2.05 -8.242,-2L-8.283,-2.027C-8.281,-2.029 -8.276,-2.036 -8.274,-2.041C-8.219,-2.137 -8.16,-2.229 -8.24,-2.346C-8.267,-2.387 -8.249,-2.451 -8.244,-2.506C-8.237,-2.6 -8.251,-2.68 -8.347,-2.739C-8.586,-2.882 -8.824,-3.021 -9.076,-3.141C-9.131,-3.168 -9.19,-3.191 -9.248,-3.216L-9.234,-3.253C-8.863,-3.145 -8.517,-2.969 -8.206,-2.735C-8.18,-2.714 -8.155,-2.685 -8.118,-2.719C-8.013,-2.815 -7.885,-2.865 -7.729,-2.877C-7.747,-2.9 -7.754,-2.912 -7.764,-2.918C-8.189,-3.262 -8.654,-3.516 -9.165,-3.672L-9.152,-3.713C-8.742,-3.585 -8.341,-3.429 -7.972,-3.198C-7.834,-3.113 -7.706,-3.015 -7.575,-2.923C-7.548,-2.904 -7.516,-2.884 -7.525,-2.84C-7.537,-2.795 -7.575,-2.788 -7.614,-2.788C-7.727,-2.788 -7.839,-2.785 -7.947,-2.739C-8.075,-2.682 -8.148,-2.591 -8.15,-2.446C-8.15,-2.348 -8.116,-2.272 -8.013,-2.247C-7.942,-2.229 -7.903,-2.192 -7.912,-2.116C-7.917,-2.075 -7.891,-2.055 -7.869,-2.029C-7.775,-1.936 -7.676,-1.844 -7.587,-1.743C-7.532,-1.681 -7.502,-1.684 -7.447,-1.748C-7.023,-2.249 -6.54,-2.687 -5.997,-3.06C-4.902,-3.814 -3.69,-4.247 -2.366,-4.371" style="fill:rgb(104,33,95);fill-rule:nonzero;"/>
            </g>
            <g transform="matrix(6.12323e-17,1,-1,6.12323e-17,357.256,95.2687)">
                <path d="M0,-1.154C0.54,-1.216 1.072,-1.184 1.603,-1.076C2.339,-0.927 3.054,-0.707 3.743,-0.41C3.773,-0.398 3.8,-0.382 3.828,-0.371C3.865,-0.355 3.865,-0.336 3.837,-0.311C3.704,-0.196 3.573,-0.082 3.44,0.035C3.411,0.062 3.386,0.042 3.358,0.026C2.632,-0.414 1.833,-0.636 1.006,-0.776C0.588,-0.847 0.169,-0.881 -0.252,-0.897C-0.396,-0.904 -0.541,-0.852 -0.683,-0.819C-1.157,-0.707 -1.629,-0.593 -2.071,-0.384C-2.108,-0.366 -2.149,-0.352 -2.183,-0.329L-2.197,-0.355C-2.183,-0.364 -2.167,-0.373 -2.151,-0.382C-1.478,-0.753 -0.779,-1.065 0,-1.154" style="fill:white;fill-rule:nonzero;"/>
            </g>
            <g transform="matrix(6.12323e-17,1,-1,6.12323e-17,354.007,90.199)">
                <path d="M0,6.863C-0.064,6.939 -0.126,7.017 -0.19,7.09C-0.213,7.117 -0.206,7.138 -0.188,7.163C-0.071,7.305 0.044,7.447 0.19,7.571C0.227,7.472 0.305,7.413 0.371,7.346C0.401,7.317 0.424,7.294 0.376,7.259C0.227,7.152 0.124,7 0,6.863M0.005,6.673C-0.096,6.684 -0.169,6.561 -0.247,6.597C-0.321,6.629 -0.362,6.735 -0.417,6.81C-0.442,6.842 -0.465,6.877 -0.483,6.913C-0.513,6.964 -0.435,7.12 -0.378,7.131C-0.357,7.136 -0.348,7.12 -0.336,7.106C-0.222,6.971 -0.108,6.835 0.007,6.7C0.007,6.691 0.005,6.682 0.005,6.673M0.891,6.664C0.896,6.538 0.82,6.478 0.715,6.517C0.646,6.542 0.554,6.506 0.511,6.561C0.417,6.675 0.307,6.719 0.16,6.709C0.103,6.707 0.041,6.765 0.062,6.819C0.08,6.872 0.112,6.93 0.163,6.971C0.247,7.037 0.332,7.104 0.399,7.186C0.456,7.255 0.483,7.239 0.531,7.186C0.657,7.046 0.761,6.888 0.873,6.737C0.896,6.709 0.891,6.68 0.891,6.664M0.809,6.288C0.735,6.306 0.676,6.318 0.619,6.334C0.557,6.352 0.561,6.414 0.57,6.453C0.582,6.499 0.628,6.462 0.655,6.455C0.731,6.435 0.783,6.384 0.809,6.288M6.895,3.379C6.843,3.342 6.817,3.34 6.794,3.406C6.763,3.5 6.724,3.592 6.689,3.686C6.659,3.766 6.593,3.858 6.611,3.922C6.634,3.997 6.758,4.004 6.836,4.041C7.069,4.146 7.303,4.247 7.537,4.35C7.544,4.343 7.548,4.336 7.555,4.329C7.463,4.165 7.379,3.997 7.28,3.837C7.177,3.665 7.065,3.498 6.895,3.379M-2.671,-4.195C-2.678,-4.304 -2.653,-4.327 -2.54,-4.307C-2.451,-4.289 -2.359,-4.272 -2.27,-4.247C-2.165,-4.217 -2.059,-4.185 -1.954,-4.151L-1.968,-4.11C-2.139,-4.162 -2.313,-4.204 -2.494,-4.234C-2.577,-4.247 -2.593,-4.201 -2.589,-4.142C-2.577,-4.043 -2.561,-3.945 -2.542,-3.849C-2.46,-3.416 -2.29,-3.01 -2.108,-2.612C-2.025,-2.437 -1.917,-2.277 -1.782,-2.121C-1.745,-2.22 -1.741,-2.316 -1.675,-2.38C-1.601,-2.453 -1.537,-2.515 -1.679,-2.582C-1.695,-2.591 -1.704,-2.614 -1.716,-2.63C-1.878,-2.877 -2,-3.145 -2.071,-3.434C-2.087,-3.51 -2.117,-3.574 -2.165,-3.636C-2.254,-3.748 -2.339,-3.865 -2.424,-3.979C-2.449,-4.013 -2.483,-4.046 -2.485,-4.112C-2.38,-4.016 -2.312,-3.913 -2.233,-3.821C-2.181,-3.757 -2.128,-3.718 -2.036,-3.691L-2.05,-3.654C-2.057,-3.645 -2.062,-3.638 -2.069,-3.631C-1.965,-3.484 -1.862,-3.338 -1.762,-3.191C-1.661,-3.04 -1.555,-2.889 -1.441,-2.747C-1.672,-2.896 -1.784,-3.148 -1.963,-3.345C-1.871,-3.102 -1.773,-2.864 -1.619,-2.653C-1.603,-2.632 -1.583,-2.625 -1.558,-2.623C-1.404,-2.621 -1.276,-2.552 -1.154,-2.465C-1.125,-2.442 -1.107,-2.437 -1.086,-2.465L-1.044,-2.437C-1.065,-2.41 -1.084,-2.378 -1.099,-2.346C-1.116,-2.314 -1.108,-2.28 -1.079,-2.254C-1.051,-2.232 -1.015,-2.234 -0.994,-2.257C-0.96,-2.291 -0.93,-2.33 -0.907,-2.369L-0.847,-2.33C-0.884,-2.277 -0.87,-2.218 -0.806,-2.154C1.003,-0.321 2.813,1.509 4.62,3.342C5.008,3.734 5.395,4.123 5.782,4.515L5.734,4.563C5.727,4.556 5.718,4.549 5.709,4.543C5.548,4.412 5.416,4.256 5.273,4.109C5.093,3.922 4.909,3.739 4.728,3.553C4.705,3.532 4.675,3.482 4.646,3.511C4.63,3.528 4.632,3.541 4.639,3.553L4.586,3.585C4.561,3.544 4.536,3.5 4.511,3.457C4.465,3.376 4.43,3.289 4.359,3.218C3.461,2.316 2.568,1.411 1.672,0.504C1.173,0 0.676,-0.504 0.179,-1.008C0.156,-1.031 0.135,-1.077 0.098,-1.061C0.039,-1.033 -0.009,-0.985 -0.041,-0.928C-0.053,-0.91 -0.05,-0.896 -0.041,-0.884L-0.069,-0.866C-0.128,-0.944 -0.126,-0.999 -0.05,-1.056C0.039,-1.123 0.025,-1.18 -0.055,-1.246C-0.096,-1.281 -0.121,-1.331 -0.156,-1.377C-0.197,-1.343 -0.218,-1.329 -0.233,-1.313C-0.33,-1.207 -0.424,-1.097 -0.522,-0.994C-0.573,-0.939 -0.575,-0.9 -0.527,-0.839C-0.433,-0.717 -0.332,-0.6 -0.224,-0.49L-0.305,-0.415C-0.344,-0.456 -0.373,-0.451 -0.417,-0.392C-0.685,-0.03 -0.932,0.339 -1.102,0.76C-1.26,1.157 -1.454,1.537 -1.54,1.963C-1.654,2.527 -1.688,3.088 -1.608,3.656C-1.558,4 -1.466,4.332 -1.402,4.671C-1.292,5.262 -1.015,5.786 -0.774,6.35C-0.715,6.267 -0.674,6.203 -0.628,6.146C-0.591,6.103 -0.602,6.068 -0.623,6.024C-0.799,5.686 -0.951,5.335 -1.07,4.969C-1.084,4.925 -1.09,4.877 -1.097,4.829C-1.107,4.785 -1.108,4.742 -1.116,4.698C-0.996,5.101 -0.799,5.466 -0.609,5.832C-0.582,5.882 -0.55,5.931 -0.518,5.981C-0.495,6.018 -0.465,6.043 -0.428,6.004L-0.362,6.08C-0.497,6.208 -0.621,6.343 -0.724,6.501C-0.783,6.588 -0.708,6.627 -0.669,6.673C-0.623,6.732 -0.593,6.664 -0.566,6.641C-0.499,6.581 -0.44,6.517 -0.376,6.455C-0.346,6.426 -0.323,6.398 -0.312,6.354C-0.272,6.203 -0.211,6.068 -0.11,5.965L-0.071,6.004C-0.133,6.07 -0.174,6.155 -0.204,6.249C-0.232,6.338 -0.243,6.448 -0.181,6.524C-0.08,6.648 0.284,6.641 0.401,6.526C0.417,6.51 0.44,6.494 0.424,6.467C0.415,6.448 0.39,6.448 0.369,6.451C0.344,6.453 0.316,6.462 0.291,6.471C0.204,6.506 0.14,6.478 0.089,6.405C0.037,6.332 -0.036,6.263 0.025,6.16C0.057,6.103 0.089,6.045 0.121,5.986L0.144,5.997C0.135,6.016 0.126,6.034 0.119,6.052C0.08,6.158 0.078,6.258 0.16,6.35C0.197,6.391 0.215,6.393 0.241,6.332C0.259,6.29 0.277,6.249 0.3,6.212L0.358,6.245C0.341,6.274 0.325,6.306 0.312,6.343C2.144,5.876 3.965,5.415 5.805,4.946L5.823,5.017C5.821,5.017 5.819,5.021 5.805,5.037C5.876,5.099 5.938,5.161 6.006,5.218C6.16,5.349 6.325,5.468 6.471,5.605C6.584,5.711 6.71,5.784 6.838,5.864C7.193,6.08 7.578,6.24 7.931,6.455C8.62,6.879 9.2,7.431 9.683,8.079C10.057,8.581 10.37,9.129 10.776,9.607C10.794,9.628 10.806,9.651 10.803,9.683C10.799,9.736 10.817,9.752 10.868,9.72C11.09,9.571 11.307,9.419 11.509,9.241C11.587,9.175 11.594,9.126 11.525,9.046C11.145,8.59 10.812,8.102 10.496,7.601C10.231,7.177 9.901,6.808 9.539,6.464C9.173,6.119 8.774,5.825 8.306,5.628C8.029,5.511 7.764,5.367 7.505,5.214C7.133,4.992 6.829,4.689 6.531,4.382C6.456,4.302 6.453,4.304 6.412,4.407C6.359,4.538 6.302,4.666 6.222,4.769L6.169,4.733C6.178,4.719 6.187,4.705 6.194,4.689C6.265,4.538 6.348,4.391 6.407,4.235C6.551,3.858 6.696,3.477 6.843,3.099L6.898,3.12C6.877,3.177 6.877,3.264 6.909,3.285C6.984,3.333 7.072,3.376 7.118,3.447C7.303,3.741 7.491,4.036 7.63,4.357C7.644,4.384 7.663,4.412 7.647,4.458C7.296,4.329 6.959,4.178 6.632,4.013C6.614,4.004 6.6,3.983 6.577,3.993C6.527,4.016 6.492,4.238 6.531,4.279C6.71,4.465 6.92,4.611 7.118,4.778C7.223,4.868 7.319,4.969 7.443,5.04C7.839,5.273 8.258,5.461 8.65,5.697C9.351,6.125 9.94,6.684 10.421,7.346C10.82,7.894 11.174,8.473 11.605,8.998C11.665,9.069 11.685,9.078 11.749,9.005C12.166,8.521 12.526,7.995 12.931,7.502L12.996,7.548C12.652,8.034 12.29,8.505 11.914,8.968C11.736,9.188 11.539,9.385 11.296,9.534C11.172,9.61 11.062,9.704 10.943,9.782C10.868,9.832 10.877,9.869 10.938,9.917C10.991,9.955 11.042,9.997 11.087,10.042C11.129,10.079 11.161,10.077 11.204,10.05C11.454,9.903 11.678,9.726 11.894,9.534C11.956,9.479 11.96,9.44 11.905,9.376C11.866,9.332 11.768,9.277 11.809,9.232C11.862,9.172 11.935,9.257 11.99,9.289C12.056,9.328 12.091,9.321 12.143,9.266C12.565,8.812 12.922,8.311 13.275,7.807C13.287,7.791 13.296,7.775 13.305,7.761L13.351,7.789C13.071,8.24 12.764,8.675 12.411,9.074C12.283,9.22 12.166,9.376 12.031,9.518C11.862,9.697 11.653,9.832 11.449,9.972C11.346,10.042 11.241,10.112 11.138,10.185C11.087,10.219 11.053,10.217 11.005,10.173C10.929,10.102 10.849,10.038 10.79,9.953C10.757,9.905 10.721,9.855 10.762,9.793C10.783,9.759 10.755,9.743 10.739,9.722C10.505,9.431 10.277,9.138 10.077,8.822C10.029,8.746 9.995,8.792 9.956,8.822C9.385,9.239 8.769,9.568 8.107,9.813C4.394,11.19 0.19,9.442 -1.39,5.812C-2.531,3.195 -2.245,0.68 -0.644,-1.682C-0.596,-1.755 -0.584,-1.798 -0.655,-1.86C-0.726,-1.92 -0.788,-1.989 -0.85,-2.055C-0.903,-2.112 -0.955,-2.158 -1.042,-2.154C-1.113,-2.149 -1.159,-2.206 -1.157,-2.272C-1.154,-2.394 -1.253,-2.412 -1.326,-2.451C-1.393,-2.488 -1.466,-2.465 -1.523,-2.41C-1.636,-2.305 -1.658,-2.163 -1.681,-2.018C-1.688,-1.984 -1.665,-1.933 -1.711,-1.92C-1.764,-1.904 -1.801,-1.943 -1.833,-1.979C-1.995,-2.167 -2.112,-2.385 -2.208,-2.612C-2.382,-3.026 -2.52,-3.452 -2.623,-3.89C-2.646,-3.991 -2.664,-4.091 -2.671,-4.195" style="fill:rgb(104,33,95);fill-rule:nonzero;"/>
            </g>
            <g transform="matrix(6.12323e-17,1,-1,6.12323e-17,356.054,95.0647)">
                <path d="M0,-2.051C0.16,-2.071 0.321,-2.037 0.481,-2.017C1.317,-1.916 2.133,-1.732 2.909,-1.4C3.104,-1.316 3.296,-1.224 3.477,-1.112C3.53,-1.08 3.544,-1.054 3.496,-1.006C3.454,-0.965 3.42,-0.917 3.388,-0.869C3.374,-0.848 3.361,-0.832 3.351,-0.816C3.28,-0.725 3.262,-0.734 3.127,-0.818C2.449,-1.242 1.7,-1.487 0.926,-1.655C0.369,-1.774 -0.199,-1.792 -0.742,-1.629C-1.248,-1.476 -1.732,-1.249 -2.176,-0.951C-2.506,-0.731 -2.818,-0.486 -3.143,-0.259C-3.244,-0.189 -3.296,-0.074 -3.404,-0.012C-3.459,0.02 -3.487,0.015 -3.521,-0.03C-3.526,-0.04 -3.535,-0.047 -3.542,-0.053C-3.658,-0.184 -3.674,-0.2 -3.578,-0.298C-3.562,-0.312 -3.546,-0.328 -3.528,-0.347C-3.061,-0.805 -2.563,-1.235 -1.993,-1.556L-1.979,-1.531C-1.991,-1.522 -2,-1.512 -2.009,-1.501C-1.656,-1.657 -1.289,-1.774 -0.914,-1.865C-0.612,-1.939 -0.307,-2.01 0,-2.051" style="fill:white;fill-rule:nonzero;"/>
            </g>
            <g transform="matrix(6.12323e-17,1,-1,6.12323e-17,353.196,92.9687)">
                <path d="M0,-1.235C-0.051,-1.267 -0.098,-1.306 -0.184,-1.324C-0.057,-1.042 0.041,-0.768 0.195,-0.52C0.206,-0.504 0.222,-0.488 0.238,-0.477C0.621,-0.195 0.996,0.091 1.347,0.419C2.039,1.067 2.715,1.732 3.317,2.467C3.406,2.575 3.493,2.689 3.592,2.813C3.652,2.66 3.704,2.522 3.757,2.387C3.77,2.348 3.759,2.325 3.725,2.3C3.418,2.077 3.136,1.821 2.852,1.569C2.108,0.914 1.45,0.185 0.909,-0.648C0.889,-0.681 0.866,-0.706 0.831,-0.726C0.554,-0.896 0.277,-1.065 0,-1.235M-0.405,-2.46C-0.442,-2.499 -0.463,-2.513 -0.511,-2.472C-0.76,-2.261 -0.983,-2.023 -1.223,-1.803C-1.251,-1.778 -1.226,-1.725 -1.278,-1.721C-1.379,-1.711 -1.352,-1.677 -1.303,-1.624C-0.011,-0.243 1.342,1.077 2.673,2.417C2.907,2.652 3.154,2.877 3.395,3.104C3.413,3.122 3.427,3.168 3.466,3.134C3.535,3.076 3.553,2.879 3.498,2.808C3.115,2.309 2.696,1.844 2.259,1.397C1.652,0.776 1.028,0.174 0.323,-0.332C0.215,-0.41 0.133,-0.504 0.062,-0.617C-0.083,-0.846 -0.176,-1.1 -0.282,-1.35C-0.296,-1.382 -0.3,-1.409 -0.247,-1.416C-0.234,-1.409 -0.215,-1.4 -0.197,-1.391C0.174,-1.207 0.534,-0.999 0.88,-0.772C0.912,-0.752 0.939,-0.726 0.96,-0.694C1.051,-0.555 1.138,-0.41 1.239,-0.275C1.874,0.586 2.614,1.347 3.454,2.011C3.546,2.084 3.647,2.144 3.745,2.206C3.766,2.219 3.791,2.249 3.823,2.208C3.91,2.098 3.903,1.97 3.805,1.871C2.382,0.444 0.962,-0.983 -0.405,-2.46M1.354,-4.488C1.897,-4.65 2.465,-4.632 3.021,-4.513C3.796,-4.346 4.545,-4.101 5.223,-3.677C5.358,-3.592 5.376,-3.583 5.447,-3.675L5.516,-3.617C5.509,-3.61 5.505,-3.601 5.498,-3.594C5.466,-3.551 5.441,-3.503 5.413,-3.462C5.415,-3.43 5.434,-3.42 5.45,-3.409C5.491,-3.377 5.537,-3.352 5.573,-3.317C5.631,-3.269 5.665,-3.278 5.713,-3.336L5.789,-3.276C5.709,-3.182 5.724,-3.175 5.86,-3.091C5.885,-3.075 5.906,-3.065 5.924,-3.065L5.919,-2.944C5.864,-2.949 5.814,-2.96 5.777,-3.015C5.805,-2.937 5.855,-2.884 5.933,-2.854L5.896,-2.777C5.883,-2.781 5.871,-2.786 5.86,-2.793C5.793,-2.832 5.798,-2.756 5.786,-2.726C5.395,-1.705 5.003,-0.683 4.611,0.341C4.357,1.008 4.107,1.679 3.851,2.345C3.716,2.703 3.574,3.058 3.438,3.415L3.374,3.39C3.422,3.285 3.409,3.218 3.322,3.136C2.268,2.171 1.278,1.141 0.263,0.14C-0.509,-0.623 -1.255,-1.414 -1.961,-2.236L-1.92,-2.277C-1.775,-2.11 -1.618,-1.956 -1.466,-1.794C-1.446,-1.773 -1.423,-1.721 -1.386,-1.755C-1.285,-1.849 -1.191,-1.95 -1.077,-2.064C-1.255,-2.057 -1.37,-2.131 -1.464,-2.245C-1.505,-2.296 -1.549,-2.344 -1.595,-2.39C-1.753,-2.541 -1.908,-2.694 -2.071,-2.843C-2.144,-2.91 -2.151,-2.96 -2.08,-3.04C-2.075,-3.045 -2.071,-3.052 -2.066,-3.056L-2.021,-3.015C-2.06,-2.971 -2.046,-2.953 -2.009,-2.919C-1.805,-2.731 -1.595,-2.55 -1.404,-2.351C-1.308,-2.25 -1.226,-2.151 -1.074,-2.131C-1.029,-2.126 -1.01,-2.131 -0.985,-2.158C-0.818,-2.346 -0.632,-2.513 -0.454,-2.687C-0.413,-2.728 -0.41,-2.754 -0.447,-2.795C-0.539,-2.9 -0.637,-3.003 -0.717,-3.116C-0.779,-3.203 -0.825,-3.168 -0.868,-3.118C-0.987,-2.98 -1.139,-2.877 -1.267,-2.752C-1.315,-2.703 -1.368,-2.708 -1.414,-2.749C-1.484,-2.813 -1.558,-2.877 -1.615,-2.951C-1.659,-3.006 -1.668,-3.079 -1.613,-3.136C-1.588,-3.161 -1.562,-3.187 -1.537,-3.212L-1.482,-3.157C-1.578,-3.058 -1.562,-3.042 -1.446,-2.912C-1.439,-2.905 -1.429,-2.898 -1.425,-2.889C-1.391,-2.843 -1.363,-2.838 -1.308,-2.871C-1.2,-2.932 -1.148,-3.047 -1.047,-3.118C-0.722,-3.345 -0.41,-3.59 -0.08,-3.81C0.364,-4.108 0.848,-4.334 1.354,-4.488" style="fill:rgb(104,33,95);fill-rule:nonzero;"/>
            </g>
            <g transform="matrix(6.12323e-17,1,-1,6.12323e-17,356.54,99.2751)">
                <path d="M0,-1.017C0.085,-1.093 0.131,-1.017 0.181,-0.978C0.247,-0.925 0.176,-0.893 0.149,-0.866C-0.123,-0.595 -0.348,-0.286 -0.593,0.009C-0.641,0.067 -0.676,0.076 -0.733,0.028C-0.769,-0.007 -0.815,-0.032 -0.857,-0.064C-0.873,-0.075 -0.891,-0.085 -0.893,-0.117C-0.866,-0.158 -0.841,-0.206 -0.808,-0.25C-0.802,-0.256 -0.797,-0.265 -0.79,-0.273C-0.708,-0.373 -0.621,-0.472 -0.522,-0.556C-0.348,-0.71 -0.172,-0.859 0,-1.017" style="fill:white;fill-rule:nonzero;"/>
            </g>
            <g transform="matrix(6.12323e-17,1,-1,6.12323e-17,356.318,99.6463)">
                <path d="M0,-0.978C0.034,-1.001 0.064,-1.031 0.11,-1.035C0.174,-1.008 0.229,-0.969 0.273,-0.914C0.291,-0.893 0.263,-0.88 0.247,-0.868C-0.094,-0.603 -0.367,-0.263 -0.687,0.025C-0.712,0.048 -0.733,0.057 -0.754,0.057C-0.772,0.057 -0.793,0.048 -0.818,0.032C-0.953,-0.052 -0.969,-0.059 -0.889,-0.153C-0.877,-0.167 -0.866,-0.181 -0.852,-0.197C-0.596,-0.488 -0.323,-0.76 0,-0.978" style="fill:white;fill-rule:nonzero;"/>
            </g>
            <g transform="matrix(6.12323e-17,1,-1,6.12323e-17,356.257,99.8843)">
                <path d="M0,-0.783C0.021,-0.801 0.039,-0.806 0.064,-0.788C0.211,-0.673 0.36,-0.556 0.483,-0.414C0.339,-0.339 0.252,-0.208 0.147,-0.098C0.032,0.021 0.035,0.023 -0.092,-0.082C-0.215,-0.183 -0.344,-0.274 -0.49,-0.348C-0.341,-0.513 -0.163,-0.639 0,-0.783" style="fill:white;fill-rule:nonzero;"/>
            </g>
            <g transform="matrix(6.12323e-17,1,-1,6.12323e-17,355.356,91.5872)">
                <path d="M0,-1.478C0.016,-1.489 0.032,-1.501 0.051,-1.512C0.106,-1.487 0.138,-1.441 0.165,-1.398C0.193,-1.354 0.14,-1.352 0.121,-1.334C0.03,-1.24 -0.064,-1.148 -0.156,-1.052C-0.181,-1.027 -0.206,-1.001 -0.231,-0.976C-0.286,-0.919 -0.277,-0.846 -0.233,-0.791C-0.176,-0.717 -0.103,-0.653 -0.032,-0.589C0.014,-0.548 0.067,-0.543 0.115,-0.591C0.243,-0.717 0.394,-0.821 0.513,-0.958C0.557,-1.008 0.603,-1.043 0.665,-0.956C0.744,-0.843 0.843,-0.74 0.935,-0.635C0.972,-0.594 0.969,-0.569 0.928,-0.527C0.749,-0.353 0.564,-0.186 0.397,0.002C0.371,0.029 0.353,0.034 0.307,0.029C0.156,0.009 0.074,-0.09 -0.023,-0.191C-0.213,-0.39 -0.424,-0.571 -0.628,-0.759C-0.664,-0.793 -0.678,-0.811 -0.639,-0.855C-0.442,-1.079 -0.229,-1.288 0,-1.478" style="fill:white;fill-rule:nonzero;"/>
            </g>
            <g transform="matrix(-0.8035,-0.595305,-0.595305,0.8035,356.669,89.143)">
                <path d="M0.125,-0.269C0.117,-0.181 0.111,-0.095 0.101,-0.009C0.099,0.014 0.099,0.036 0.125,0.038C0.153,0.04 0.152,0.013 0.155,-0.005C0.161,-0.094 0.165,-0.18 0.125,-0.269" style="fill:rgb(104,33,95);fill-rule:nonzero;"/>
            </g>
            <g transform="matrix(6.12323e-17,1,-1,6.12323e-17,355.959,99.3278)">
                <path d="M0,-0.584C0.025,-0.609 0.048,-0.612 0.069,-0.584C0.172,-0.449 0.319,-0.364 0.431,-0.24C0.467,-0.201 0.472,-0.176 0.426,-0.144C0.353,-0.096 0.289,-0.018 0.209,0.005C0.119,0.028 0.085,-0.092 0.014,-0.133C-0.064,-0.179 -0.128,-0.24 -0.199,-0.293C-0.215,-0.307 -0.232,-0.318 -0.25,-0.33C-0.236,-0.35 -0.229,-0.364 -0.22,-0.373C-0.146,-0.444 -0.073,-0.513 0,-0.584" style="fill:white;fill-rule:nonzero;"/>
            </g>
            <g transform="matrix(6.12323e-17,1,-1,6.12323e-17,349.402,89.443)">
                <path d="M0,-7.012C0.023,-6.991 0.044,-6.971 0.067,-6.95C0.626,-6.38 1.185,-5.812 1.746,-5.244C3.397,-3.574 5.049,-1.904 6.701,-0.236C6.785,-0.149 6.769,-0.076 6.655,-0.025C6.6,0 6.582,-0.046 6.554,-0.073L6.538,-0.089C6.151,-0.481 5.764,-0.871 5.377,-1.262C3.569,-3.095 1.759,-4.925 -0.05,-6.758C-0.115,-6.822 -0.128,-6.881 -0.092,-6.934C-0.078,-6.955 -0.057,-6.973 -0.029,-6.994C-0.023,-7.001 -0.014,-7.003 0,-7.012" style="fill:white;fill-rule:nonzero;"/>
            </g>
            <g transform="matrix(6.12323e-17,1,-1,6.12323e-17,354.916,91.4543)">
                <path d="M0,-1.956C-0.208,-1.768 -0.369,-1.541 -0.552,-1.335C-0.557,-1.331 -0.561,-1.324 -0.566,-1.319C-0.637,-1.239 -0.63,-1.189 -0.557,-1.122C-0.394,-0.973 -0.238,-0.82 -0.08,-0.669C-0.034,-0.623 0.009,-0.575 0.051,-0.524C0.144,-0.41 0.259,-0.337 0.437,-0.343C0.323,-0.229 0.229,-0.128 0.128,-0.034C0.092,0 0.069,-0.052 0.048,-0.073C-0.103,-0.236 -0.261,-0.389 -0.405,-0.556C-0.451,-0.611 -0.499,-0.669 -0.543,-0.728C-0.591,-0.792 -0.63,-0.806 -0.689,-0.746C-0.724,-0.714 -0.763,-0.685 -0.799,-0.655C-0.843,-0.621 -0.887,-0.543 -0.923,-0.561C-0.992,-0.595 -1.044,-0.666 -1.099,-0.726C-1.129,-0.758 -1.09,-0.774 -1.072,-0.788C-0.96,-0.879 -0.847,-0.969 -0.733,-1.058C-0.715,-1.072 -0.696,-1.088 -0.676,-1.099C-0.63,-1.125 -0.637,-1.161 -0.66,-1.195C-0.692,-1.244 -0.715,-1.193 -0.731,-1.179C-0.859,-1.086 -0.985,-0.985 -1.113,-0.886C-1.138,-0.868 -1.159,-0.834 -1.221,-0.834C-0.868,-1.282 -0.467,-1.656 0,-1.956" style="fill:white;fill-rule:nonzero;"/>
            </g>
            <g transform="matrix(6.12323e-17,1,-1,6.12323e-17,349.201,98.755)">
                <path d="M0,-6.721C0.011,-6.751 0.007,-6.826 0.074,-6.787C0.085,-6.781 0.097,-6.776 0.11,-6.771C0.158,-6.753 0.213,-6.737 0.174,-6.639C-0.412,-5.118 -0.992,-3.597 -1.574,-2.075C-1.622,-1.952 -1.667,-1.83 -1.713,-1.707C-1.86,-1.329 -2.004,-0.948 -2.149,-0.57C-2.208,-0.415 -2.291,-0.268 -2.362,-0.117C-2.368,-0.101 -2.378,-0.087 -2.387,-0.073C-2.414,-0.03 -2.451,0.007 -2.497,0.034C-2.533,0.057 -2.57,0.105 -2.614,0.085C-2.655,0.064 -2.641,0.007 -2.643,-0.046C-2.657,-0.094 -2.632,-0.128 -2.586,-0.167C-2.492,-0.247 -2.433,-0.353 -2.389,-0.472C-2.375,-0.508 -2.362,-0.543 -2.348,-0.58C-2.213,-0.937 -2.071,-1.292 -1.936,-1.649C-1.679,-2.316 -1.429,-2.987 -1.175,-3.654C-0.783,-4.677 -0.392,-5.699 0,-6.721" style="fill:white;fill-rule:nonzero;"/>
            </g>
            <g transform="matrix(6.12323e-17,1,-1,6.12323e-17,350.069,92.4577)">
                <path d="M0,-5.599C0.048,-5.64 0.069,-5.627 0.106,-5.587C1.473,-4.11 2.893,-2.683 4.316,-1.256C4.414,-1.157 4.421,-1.029 4.334,-0.919C4.302,-0.878 4.277,-0.907 4.256,-0.921C4.158,-0.983 4.057,-1.043 3.965,-1.116C3.125,-1.78 2.385,-2.541 1.75,-3.402C1.649,-3.537 1.562,-3.681 1.471,-3.821C1.45,-3.853 1.423,-3.879 1.391,-3.899C1.045,-4.126 0.685,-4.334 0.314,-4.518C0.296,-4.527 0.277,-4.536 0.264,-4.543C0.211,-4.536 0.215,-4.509 0.229,-4.476C0.335,-4.227 0.428,-3.972 0.573,-3.743C0.644,-3.631 0.726,-3.537 0.834,-3.459C1.54,-2.953 2.163,-2.35 2.77,-1.73C3.207,-1.283 3.626,-0.818 4.009,-0.319C4.064,-0.248 4.046,-0.051 3.977,0.007C3.938,0.041 3.924,-0.005 3.906,-0.023C3.665,-0.25 3.418,-0.474 3.184,-0.71C1.853,-2.051 0.5,-3.37 -0.792,-4.751C-0.841,-4.804 -0.868,-4.838 -0.767,-4.847C-0.715,-4.852 -0.74,-4.905 -0.712,-4.93C-0.472,-5.15 -0.249,-5.388 0,-5.599" style="fill:white;fill-rule:nonzero;"/>
            </g>
            <g transform="matrix(6.12323e-17,1,-1,6.12323e-17,349.758,90.7122)">
                <path d="M0,-5.696C0.048,-5.735 0.097,-5.769 0.149,-5.811C0.202,-5.762 0.254,-5.724 0.296,-5.673C1.001,-4.851 1.748,-4.06 2.52,-3.298C3.535,-2.296 4.524,-1.266 5.578,-0.301C5.665,-0.219 5.679,-0.152 5.631,-0.047C5.56,0.113 5.567,0.115 5.443,-0.008C3.626,-1.848 1.81,-3.685 -0.007,-5.524C-0.096,-5.614 -0.096,-5.616 0,-5.696" style="fill:white;fill-rule:nonzero;"/>
            </g>
            <g transform="matrix(6.12323e-17,1,-1,6.12323e-17,347.78,90.1303)">
                <path d="M0,-7.093L0.028,-7.111C0.039,-7.091 0.067,-7.075 0.083,-7.059C1.203,-5.874 2.321,-4.69 3.484,-3.552C4.164,-2.885 4.818,-2.191 5.519,-1.547C5.546,-1.522 5.564,-1.481 5.626,-1.492L5.642,-1.421C3.979,-0.995 2.318,-0.571 0.655,-0.152C0.548,-0.127 0.479,-0.072 0.426,0.018L0.369,-0.015C0.453,-0.159 0.57,-0.267 0.749,-0.315C0.596,-0.48 0.325,-0.429 0.213,-0.23L0.19,-0.241C0.213,-0.28 0.236,-0.321 0.259,-0.363C0.144,-0.34 0.062,-0.29 -0.002,-0.223L-0.041,-0.262C0.014,-0.321 0.08,-0.37 0.163,-0.406C0.211,-0.429 0.259,-0.459 0.305,-0.486C0.323,-0.498 0.36,-0.5 0.346,-0.532C0.332,-0.564 0.307,-0.587 0.284,-0.619C0.268,-0.608 0.259,-0.601 0.25,-0.592C0.124,-0.461 -0.034,-0.37 -0.172,-0.253C-0.213,-0.218 -0.254,-0.182 -0.293,-0.147L-0.359,-0.223C-0.249,-0.338 -0.115,-0.422 0.005,-0.525C0.064,-0.576 0.06,-0.626 0.009,-0.684C-0.19,-0.913 -0.336,-1.174 -0.467,-1.444C-0.699,-1.92 -0.861,-2.413 -0.928,-2.938C-0.955,-3.148 -0.967,-3.361 -0.967,-3.597C-1.242,-2.993 -1.2,-2.392 -1.093,-1.788C-1.111,-1.813 -1.118,-1.838 -1.125,-1.863C-1.351,-2.709 -1.324,-3.554 -1.09,-4.388C-0.893,-5.086 -0.584,-5.737 -0.096,-6.289C-0.002,-6.394 -0.005,-6.397 -0.108,-6.5C-0.146,-6.539 -0.188,-6.575 -0.22,-6.621C-0.227,-6.63 -0.232,-6.637 -0.236,-6.642L-0.156,-6.717C0.005,-6.545 0.179,-6.385 0.357,-6.229C0.437,-6.159 0.488,-6.17 0.55,-6.241C0.559,-6.252 0.573,-6.266 0.586,-6.275C0.644,-6.314 0.637,-6.344 0.591,-6.394C0.387,-6.619 0.188,-6.85 0.002,-7.088C0,-7.091 0,-7.091 0,-7.093" style="fill:rgb(104,33,95);fill-rule:nonzero;"/>
            </g>
            <g transform="matrix(6.12323e-17,1,-1,6.12323e-17,350.383,92.7853)">
                <path d="M0,-4.137C0.085,-4.119 0.133,-4.08 0.184,-4.048C0.461,-3.878 0.738,-3.709 1.015,-3.539C1.049,-3.519 1.072,-3.493 1.093,-3.461C1.633,-2.627 2.291,-1.899 3.036,-1.244C3.319,-0.992 3.601,-0.735 3.908,-0.513C3.942,-0.488 3.954,-0.465 3.94,-0.426C3.888,-0.291 3.835,-0.153 3.775,0C3.677,-0.124 3.59,-0.238 3.5,-0.346C2.898,-1.081 2.222,-1.745 1.53,-2.394C1.18,-2.721 0.804,-3.008 0.422,-3.289C0.405,-3.301 0.39,-3.317 0.378,-3.333C0.224,-3.58 0.126,-3.855 0,-4.137" style="fill:white;fill-rule:nonzero;"/>
            </g>
            <g transform="matrix(6.12323e-17,1,-1,6.12323e-17,344.938,97.1309)">
                <path d="M0,-5.997C0.023,-6.006 0.037,-5.986 0.051,-5.972C0.202,-5.8 0.378,-5.653 0.522,-5.472C0.614,-5.356 0.738,-5.264 0.841,-5.154C1.303,-4.657 1.888,-4.359 2.502,-4.103C2.852,-3.954 3.226,-3.853 3.549,-3.64C4.323,-3.124 5.102,-2.614 5.757,-1.94C5.842,-1.855 5.924,-1.768 5.997,-1.674C6.027,-1.635 6.032,-1.606 6,-1.567C5.594,-1.074 5.234,-0.547 4.818,-0.064C4.753,0.009 4.733,0 4.673,-0.071C4.243,-0.595 3.888,-1.175 3.489,-1.722C3.008,-2.384 2.419,-2.943 1.718,-3.372C1.326,-3.608 0.907,-3.796 0.511,-4.029C0.387,-4.1 0.291,-4.201 0.186,-4.29C-0.011,-4.457 -0.222,-4.604 -0.401,-4.79C-0.44,-4.831 -0.405,-5.053 -0.355,-5.076C-0.332,-5.085 -0.318,-5.065 -0.3,-5.055C0.028,-4.89 0.364,-4.739 0.715,-4.611C0.731,-4.657 0.713,-4.685 0.699,-4.712C0.559,-5.032 0.371,-5.328 0.186,-5.622C0.14,-5.692 0.053,-5.736 -0.023,-5.784C-0.055,-5.804 -0.055,-5.892 -0.034,-5.949C-0.028,-5.972 -0.016,-5.99 0,-5.997" style="fill:white;fill-rule:nonzero;"/>
            </g>
            <g transform="matrix(6.12323e-17,1,-1,6.12323e-17,349.223,97.3554)">
                <path d="M0,-1.629C-0.046,-1.679 0.009,-1.679 0.041,-1.677C0.222,-1.663 0.401,-1.631 0.577,-1.592C0.884,-1.523 1.194,-1.471 1.489,-1.352C1.649,-1.288 1.757,-1.178 1.851,-1.047C2.057,-0.752 2.229,-0.435 2.371,-0.106C2.378,-0.094 2.385,-0.08 2.387,-0.067C2.39,-0.03 2.39,0.007 2.392,0.05C2.293,0.027 2.222,0.011 2.186,-0.11C2.126,-0.3 2.018,-0.472 1.876,-0.621C1.931,-0.463 1.94,-0.296 1.979,-0.133C1.876,-0.193 1.775,-0.227 1.714,-0.348C1.553,-0.669 1.359,-0.967 0.96,-1.042C0.793,-1.075 0.63,-1.132 0.46,-1.148C0.385,-1.157 0.369,-1.221 0.302,-1.274C0.6,-1.308 0.859,-1.23 1.132,-1.194C1.019,-1.269 0.896,-1.304 0.777,-1.34C0.587,-1.395 0.394,-1.446 0.199,-1.48C0.101,-1.498 0.055,-1.567 0,-1.629" style="fill:white;fill-rule:nonzero;"/>
            </g>
            <g transform="matrix(6.12323e-17,1,-1,6.12323e-17,349.723,96.9935)">
                <path d="M0,-0.877C0.023,-0.944 0.048,-0.941 0.101,-0.905C0.27,-0.785 0.383,-0.618 0.486,-0.446C0.584,-0.286 0.669,-0.119 0.761,0.046C0.754,0.053 0.749,0.06 0.742,0.067C0.509,-0.036 0.275,-0.137 0.041,-0.242C-0.036,-0.279 -0.16,-0.286 -0.183,-0.362C-0.201,-0.426 -0.135,-0.517 -0.105,-0.598C-0.071,-0.692 -0.032,-0.783 0,-0.877" style="fill:white;fill-rule:nonzero;"/>
            </g>
            <g transform="matrix(6.12323e-17,1,-1,6.12323e-17,344.36,96.6111)">
                <path d="M0,-5.239C0.041,-5.342 0.043,-5.344 0.119,-5.264C0.417,-4.957 0.722,-4.655 1.093,-4.433C1.351,-4.279 1.617,-4.135 1.894,-4.018C2.362,-3.821 2.76,-3.528 3.127,-3.182C3.489,-2.838 3.819,-2.469 4.085,-2.046C4.401,-1.544 4.732,-1.056 5.113,-0.6C5.182,-0.52 5.175,-0.472 5.097,-0.405C4.895,-0.227 4.678,-0.075 4.455,0.073C4.405,0.105 4.387,0.089 4.391,0.037C4.393,0.004 4.382,-0.018 4.364,-0.039C3.959,-0.518 3.644,-1.065 3.271,-1.567C2.788,-2.215 2.208,-2.767 1.519,-3.191C1.166,-3.406 0.781,-3.567 0.426,-3.782C0.298,-3.862 0.172,-3.936 0.059,-4.041C-0.087,-4.178 -0.252,-4.297 -0.405,-4.428C-0.474,-4.485 -0.536,-4.547 -0.607,-4.609C-0.593,-4.625 -0.591,-4.63 -0.589,-4.63C-0.403,-4.662 -0.279,-4.753 -0.19,-4.877C-0.11,-4.98 -0.053,-5.108 0,-5.239" style="fill:white;fill-rule:nonzero;"/>
            </g>
            <g transform="matrix(6.12323e-17,1,-1,6.12323e-17,347.696,95.7725)">
                <path d="M0,-1.505C0.128,-1.537 0.163,-1.436 0.257,-1.372C0.247,-1.37 0.241,-1.368 0.232,-1.365C-1.608,-0.896 -3.429,-0.435 -5.262,0.032C-5.248,-0.005 -5.232,-0.037 -5.216,-0.066C-5.163,-0.156 -5.095,-0.211 -4.987,-0.236C-3.324,-0.655 -1.663,-1.079 0,-1.505" style="fill:white;fill-rule:nonzero;"/>
            </g>
            <g transform="matrix(6.12323e-17,1,-1,6.12323e-17,343.982,103.279)">
                <path d="M0,-2.593C0.014,-2.611 0.028,-2.629 0.044,-2.648C0.064,-2.634 0.078,-2.625 0.089,-2.614C0.119,-2.586 0.149,-2.556 0.176,-2.526C0.277,-2.414 0.291,-2.371 0.224,-2.263C0.215,-2.249 0.206,-2.233 0.195,-2.217C-0.158,-1.713 -0.515,-1.212 -0.937,-0.758C-0.99,-0.703 -1.024,-0.696 -1.09,-0.735C-1.145,-0.767 -1.219,-0.852 -1.271,-0.792C-1.312,-0.747 -1.214,-0.692 -1.175,-0.648C-1.12,-0.584 -1.125,-0.545 -1.187,-0.49C-1.402,-0.298 -1.626,-0.121 -1.876,0.025C-1.92,0.053 -1.952,0.055 -1.993,0.019C-2.039,-0.027 -2.089,-0.068 -2.142,-0.107C-2.204,-0.156 -2.213,-0.192 -2.137,-0.243C-2.018,-0.321 -1.908,-0.415 -1.784,-0.49C-1.541,-0.639 -1.345,-0.836 -1.166,-1.056C-0.79,-1.519 -0.428,-1.991 -0.085,-2.476C-0.055,-2.515 -0.028,-2.554 0,-2.593" style="fill:white;fill-rule:nonzero;"/>
            </g>
        </g>
    </g>
</svg>
