<?xml version="1.0" encoding="UTF-8" standalone="no"?>
<!DOCTYPE svg PUBLIC "-//W3C//DTD SVG 1.1//EN" "http://www.w3.org/Graphics/SVG/1.1/DTD/svg11.dtd">
<svg width="100%" height="100%" viewBox="0 0 845 657" version="1.1" xmlns="http://www.w3.org/2000/svg" xmlns:xlink="http://www.w3.org/1999/xlink" xml:space="preserve" xmlns:serif="http://www.serif.com/" style="fill-rule:evenodd;clip-rule:evenodd;stroke-linejoin:round;stroke-miterlimit:2;">
    <g transform="matrix(1,0,0,1,-7.5,-42.3226)">
        <g transform="matrix(0.991421,0,0,0.991421,6.32259,-55.9818)">
            <path d="M580,759.3C565.9,754.4 556.7,740.2 558.4,725.7C558.9,720.8 558.8,720.4 555.9,718.1L552.9,715.7L540.2,720.8C517.6,729.7 492.4,736.7 470.5,739.9C440.2,744.5 399.7,744.3 369,739.4C243,719.6 139.3,625.3 107.9,502.1C100.7,474.2 97.9,450.9 97.9,421C97.9,388.1 101.1,364.9 110.2,331.7C111.9,325.2 112.8,320.1 112.4,318.7C112.1,317.5 107.8,312.4 102.9,307.3C89.3,293.2 81,279.7 68.5,251.5C53.1,216.7 40.7,196.9 20.5,175C4.7,157.8 -0.6,149.7 1.7,146.2C3.4,143.5 7.2,144.5 21.3,151.4C50,165.5 78.2,186 93.7,204.1C105.8,218.2 116.1,225.1 132.8,230.4C142.4,233.4 152.4,233.9 157,231.5C158.7,230.6 164.4,224.7 169.7,218.2C224.4,152.3 292.9,113.7 377,101.4C391.6,99.3 433.6,98.4 449.7,99.9C505,105.1 560.1,124.9 603,154.8C627.8,172.2 655.2,197.9 673.6,221C685.1,235.5 687.7,237.1 695.2,234.4C697.6,233.6 703.6,232 708.7,231C713.8,229.9 719.5,228.4 721.4,227.6C728.6,224.6 737.6,217.4 749.8,204.8C765.7,188.5 777.2,178.8 792.5,168.7C804.9,160.6 836.7,144 839.9,144C840.9,144 842.4,144.7 843.1,145.6C845.3,148.3 839.3,158.4 828.7,169.7C804.3,195.8 793.1,213.1 775.7,251.7C761.2,283.7 752.4,297.3 735.9,313C727.8,320.7 727.8,320.5 731.9,335.7C735.1,347.5 738.5,363.6 739.6,371.7C740.2,376.7 740.4,376.9 747.4,381.6C751.3,384.3 758.6,390.5 763.5,395.5C779.1,411 789.2,428.8 794.8,450.4C799.7,469.3 798,496.2 791.1,509.9C790.1,511.9 788.9,516.8 788.6,520.9C787.6,530.4 785,538.7 781,545C774.2,555.6 760.6,565.3 748.4,568.3C744,569.5 743.3,570 741,574.5C738.8,579 738.4,581.1 738,595C737.4,611.2 736.9,613.2 732.2,618.3C729.8,620.9 730.4,620.7 740.5,615.9C759.4,607.1 767.4,603.4 771.5,601.6L775.5,599.8L775.5,591.2C775.5,580.4 777.9,575 786,567.8C792.9,561.7 799.4,559.6 809.4,560.2C818.1,560.8 823.1,563 829.2,569.1C836.3,576.2 838.4,581 838.6,590.6L838.8,598.8L843.5,603.1C846,605.4 849.3,609.4 850.8,611.9C853.2,616.1 853.5,617.5 853.5,626.5C853.5,635.6 853.2,636.9 850.8,641.1C847.9,646.1 841.8,652 837.3,654.4C831.5,657.3 822.7,658.5 816.3,657.1C808.3,655.3 805.4,653.6 799.4,647.3L794.2,641.9L782.8,647.2C776.6,650.2 763.3,656.4 753.3,661C743.3,665.7 735.4,669.8 735.8,670.2C736.2,670.5 740.7,672.7 745.8,675L755.2,679.2L756.8,676.9C760.7,671.3 764.6,667.9 769.8,665.3C774.8,662.9 776.7,662.5 784.5,662.5C794.7,662.5 798.2,663.7 805.4,670.1C814.2,677.8 817.9,690.9 814.6,702.2C812.9,708.2 806.9,716.7 802.9,718.8C800.6,720 800.5,720.6 800.5,728.8C800.5,739.4 798.3,744.8 791.6,751.3C784.5,758.3 779.1,760.4 769,760.5C761.4,760.5 759.9,760.2 755.2,757.5C744,751.4 736.4,738.4 737.2,727.1L737.5,722.6L716.5,712.8C705,707.3 694.4,701.9 693.1,700.6C691.5,698.9 690.7,697 690.6,694.3L690.5,690.3L683.5,693.6C679.7,695.4 664.1,702.7 649,709.8L621.5,722.6L621.8,726.1C622,728 621.6,732.3 620.9,735.7C617.6,753.7 597.3,765.4 580,759.3ZM596.6,745.6C602.3,742.9 605.1,739.8 607.6,733.4C609.2,729.3 609.2,728.7 607.6,724.7C606.7,722.4 606,719 606,717.3C606,714.6 606.6,714 610.8,712.2C613.4,711.1 656,691.2 705.5,668.1C777.2,634.6 796.3,626 799.5,626C803.4,626 803.6,626.1 805.3,630.9C807.4,636.8 813.5,642.5 819.3,644.1C828.7,646.6 841,636.6 841,626.5C841,619 834.3,611.3 825.7,608.9C821.9,607.9 821.8,607.7 822.3,604.2C822.6,602.2 823.5,598.5 824.5,596C825.9,592.3 826,590.8 825,587.7C822.9,580.5 813.8,573 807.3,573C799.9,573.1 789.7,581.5 788.4,588.7C787.9,591.2 788.2,593.9 789.3,597.1C790.3,599.7 791,603.2 791,604.9C791,607.6 790.5,608.3 787.3,609.7C785.2,610.5 754,625 718,641.7C611.5,691.4 601.2,696 597.6,696C594.5,696 594.2,695.7 593.5,692.3C593.1,690.2 592.2,687.4 591.4,685.9C589.4,681.9 582.1,676.1 578.2,675.4C570.2,673.9 561,680 557.5,689.2L555.7,694L558.5,699.6C561.3,705.2 567.2,710.2 572.8,711.6C575.7,712.4 575.7,716.7 572.8,723.8C570.8,728.5 570.7,729.4 571.9,732.8C574,738.7 577.9,743 583.4,745.6C589.7,748.5 590.3,748.5 596.6,745.6ZM778.1,744.5C780.2,743.1 783.1,740.2 784.5,738.1C788.2,732.6 788.6,728.2 786.1,722.5C784.9,719.9 784,716.5 784,715C784,712.7 784.6,712.1 788.1,711.1C793.2,709.6 800.3,702.6 802,697.5C803,694.6 803,692.9 802.1,689.9C799.9,682.5 790.9,675 784.3,675C776.7,675 766.9,683.9 765.5,692L764.8,696.2L760.6,695.7C758.4,695.5 750.9,692.7 744,689.5C737.1,686.3 730.8,683.7 730,683.8C729.2,683.8 723.9,686 718.4,688.7L708.3,693.6L727.4,702.5C737.9,707.3 748,712.2 749.8,713.3C753.4,715.4 753.9,718 751.6,724.5C749,732 754.3,741.8 763.5,746.1C768.4,748.5 772.9,748 778.1,744.5ZM444.5,670.5C452.8,668.2 461.7,663.8 468.8,658.5C477.3,652.1 501,625.9 501,622.9C501.1,614.6 506.3,604.3 513.2,598.7C515.3,597 517,594.8 517,593.7C517,592.2 515.2,593.4 509.3,598.7C496.3,610.3 488.4,616 478.2,621C472.9,623.7 466.9,627.2 465,628.9L461.5,632L472.9,628C479.2,625.8 485.6,624 487.2,624C489.8,624 490,624.3 490,628.2C490,631.8 489.4,632.8 485.8,636.2C474.2,646.9 451.5,653 423.7,653C396,653 373.6,647.1 358.8,636C353.5,632 353,631.3 353,627.8C353,624.1 353.1,624 356.5,624C358.4,624 365.4,626 372,628.4C378.6,630.8 384,632.6 384,632.5C384,631.8 371.2,623.6 363,619C357.8,616.1 350.1,611.2 346,608.2C337.5,601.9 314.3,579.5 304.8,568.4C301.4,564.3 294.9,557.9 290.5,554.2C285.2,549.6 281.5,545.6 279.5,541.9C276.8,537 276.5,535.6 276.5,527.3C276.5,518.4 276.4,518 274.3,518C273,518 270.8,519.6 268.7,522C266.3,524.9 264.5,526 262.6,526C260,526 259.9,526.2 260.5,529.3C261.9,535.7 267.2,547 273.2,556.1C280.7,567.4 292.5,579.4 316,599.6C337.4,618 345.1,625.6 355.8,638.5C372,658 386,667.3 406,671.6C414.4,673.4 436.2,672.7 444.5,670.5ZM649.7,646.7C649.9,646.4 592,618.8 573.7,610.4C567.9,607.8 567.8,607.7 568.3,604.1C568.6,602.1 569.5,598.6 570.4,596.2C572.6,590.3 571,585 565.4,579.3C558.2,572.1 550.1,571.3 542.3,576.9C538,580 534,587 534,591.3C534,592.8 534.7,595.7 535.5,597.7C536.3,599.6 537,602.7 537,604.5C537,607.4 536.6,607.8 532.9,608.9C527.5,610.5 521.5,616.1 519.4,621.6C518,625.3 517.9,626.7 518.9,630C521,636.9 527.6,643 534.8,644.5C539.9,645.6 548.4,641 552.1,635.2C553.7,632.7 555,629.6 555,628.3C555,626.2 555.5,626 559.4,626C563,626 569.8,628.8 596.6,641.4L629.3,656.8L639.3,651.9C644.8,649.2 649.5,646.8 649.7,646.7ZM682.1,643.2C688.9,640 698.6,635.4 703.5,633.1C719.1,625.8 722.7,623.9 719.8,624.5C718.3,624.8 714.7,624.5 711.8,623.9C707.7,623 705.5,621.8 702.3,618.5C699.9,616.2 698,614.6 698,615C698,617 691,622.2 686.3,623.7C682.2,625 680.1,625.1 676.6,624.3L672.2,623.3L666.6,629.9C663.4,633.7 661.6,636.7 662.3,636.9C665.1,637.8 668.1,641.7 668.6,645.2C669,647.3 669.4,649 669.5,649C669.7,649 675.3,646.4 682.1,643.2ZM432,635.5C437.2,632.8 444.3,625.1 448.2,618C450.1,614.4 455,605.4 459,598C467.8,581.8 473.7,572.8 484.7,559.3C493.7,548.1 495.9,544.3 498.4,536C500.4,529.2 499.8,524.3 495.8,513.6C493.6,507.9 491.5,504.4 488.1,500.9C483.8,496.4 483,496 478.8,496C469.3,496 458.1,501.9 454.6,508.9C453.8,510.3 452.7,514.8 452.1,518.8C451.5,522.7 450.3,527.8 449.4,530C448,533.5 447.4,534 444.5,534C442.3,534 441,533.4 440.5,532.3C440.1,531.3 439.6,519.9 439.4,507L439,483.5L435.8,481C434,479.7 429.7,476.2 426.3,473.3C423,470.4 420,468 419.7,468C419.5,468 418.7,469.3 418,471C417.3,472.6 414.9,475.6 412.6,477.6C402.2,486.7 403.1,485.2 404.5,492.2C406.4,501.4 407.3,515.9 406.5,524L405.8,531L402,531C397.4,531 397.3,530.8 395.9,523.3C394.4,515.3 391,509 385,503.7C376.8,496.4 365.9,493.9 359.3,498C355,500.6 351.6,505.9 347.9,516C344.6,525.1 344,532.6 345.9,539.6C346.6,542.3 350.3,547.9 356.6,555.6C369.3,571.4 379.7,587.1 390,606.5C399.5,624.3 405.7,632 413.5,635.7C419.2,638.5 426.4,638.4 432,635.5ZM682.5,610.8C686.1,609.2 688,605.1 688,599.1C688,592.6 690.1,591 698.7,591C706.7,591 709,592.9 709,599.6C709,611.8 718.5,615.1 724.6,605C725.1,604.2 725.7,596.3 726,587.5C726.5,571.6 726.6,571.5 730,565.1C731.9,561.6 734.3,558.4 735.4,558C736.6,557.6 740.7,556.3 744.7,555.1C754.1,552.3 762.5,546.5 767.8,539.4C772.7,532.9 774.8,526.5 775.7,516C776.1,511.1 777.3,506.5 779.1,502.4C785.3,488.8 786.4,471.4 782,454.7C771.1,413.2 737.7,382.6 694.3,374.4C676.3,371 655.3,374.7 634.5,385C611.1,396.4 594.3,413.8 583.4,437.6C573.5,459.5 572.4,485.1 580.7,502.8C582.3,506.2 583.4,511 584,516.8C585,526.9 586.7,532.3 590.9,538.4C597.1,547.3 608.2,554.4 620.1,557C625,558.1 625.9,558.7 628.2,562.4C632.8,569.7 634,575 634,588.5C634,601.4 634.7,605 638.2,608.8C643.5,614.3 651,609 651,599.8C651,592.4 652.6,591 661.2,591C669.8,591 672,592.7 672,599.8C672.1,605.2 673.7,608.7 677.1,610.6C680.1,612.2 679.4,612.2 682.5,610.8ZM501,584.8C504.3,580.3 504.8,576.5 502.6,573.5C501.3,571.7 501.1,571.9 500,576C499.4,578.5 498.5,582.1 497.9,584C496.2,590.4 496.8,590.6 501,584.8ZM343.9,580.1C342.7,573.7 341.5,573.2 340.4,578.5C340,580.7 340.4,582.3 342,584.3C343.2,585.9 344.4,586.9 344.6,586.7C344.8,586.5 344.5,583.5 343.9,580.1ZM519.1,552.7C519.8,547.9 520,543.7 519.7,543.4C519,542.7 514.7,545.2 511.3,548.2L509.1,550.2L511.5,553.9C512.9,555.9 514.5,559 515.1,560.9C516.7,565.4 517.6,563.6 519.1,552.7ZM330.9,557.4L333.9,551.8L329.5,547.1L325,542.5L325,547.7C325,552.1 326.8,563 327.6,563C327.7,563 329.2,560.5 330.9,557.4ZM576.2,557.2L578.8,553.4L576.7,551C574,547.7 569,536.6 568.9,533.8C568.9,531.5 568.8,531.5 567.8,534C564.4,542.3 562.7,545.2 558.1,550.2L553.1,555.7L558.4,556.3C561.4,556.6 565.8,557.7 568.1,558.8C570.5,559.9 572.8,560.9 573.1,560.9C573.5,561 574.9,559.3 576.2,557.2ZM304.4,537.9C309.3,534.1 309.4,532.7 305.5,525.1C303.6,521.2 300.6,513.2 299,507.3C294.8,492.5 295,492.9 293.5,497C289.6,507.8 289.1,530.5 292.6,535.8C295.4,540.1 300.4,541 304.4,537.9ZM552.1,535.2C554.1,532.7 554.2,531.6 553.7,518C553.4,508.1 552.7,501.8 551.5,498L549.7,492.5L548.3,498C545.7,508.2 541,521.5 538,526.9C535.1,532.1 535.1,532.4 536.7,534.3C537.7,535.4 539.8,537.1 541.4,538.1C544.9,540.2 549,539.1 552.1,535.2ZM332.4,516.8C335,503.7 337.4,497.8 342.6,492.1C346.3,487.9 346.8,487.1 345.3,486.6C344.3,486.3 338.5,484.9 332.3,483.5C315.6,479.6 312.8,477.3 295.9,454.5C284.3,438.9 279.4,430.5 274.9,418.6C273,413.5 272.5,412.9 267.2,410.5C257.4,406 254.1,401.6 250.9,388.9C249.8,384.3 248.4,380 247.9,379.3C247.3,378.7 242.7,376.5 237.5,374.5C230.7,371.9 227.3,369.9 225.1,367.4C223.4,365.5 222,363.6 222,363.2C222,362.8 218.5,362.5 214.2,362.5C206.6,362.5 206.2,362.4 191,354.9C167.8,343.6 150.3,332.5 133.6,318.6C127,313.1 126.7,312.9 129.4,316.5C135.7,324.7 139.3,330.7 144.4,341.5C150.4,353.9 152.9,356.6 159.6,357.6C164.8,358.4 169.1,361.5 171.4,366.4C173.4,370.7 173.5,380.9 171.5,383.6C170.7,384.6 170,386.1 170,386.7C170,388.6 188.8,409.6 197.6,417.6C210.6,429.3 241.6,453.9 250.3,459.3C252.9,461 253,461.3 253,470.1C253,478 254.1,488.1 257.9,513.5C258.5,518 258.8,518.6 258.9,515.9C259.1,510.5 262.7,506 269.7,502.2C277.2,498.3 279,495.8 281.9,486C284,479.2 288.6,468.8 292.1,463.2C293.2,461.4 294.3,461 296.9,461.2L300.2,461.5L303.5,473C307.9,488.4 316.6,512.5 319.6,517.6C321.8,521.5 327.1,525.9 329.5,526C330.1,526 331.4,521.8 332.4,516.8ZM522.8,520.7C525.5,517.9 533.3,498.1 538.6,481C540.5,474.7 542.6,468 543.1,466.3C544.1,463.3 544.5,463 548.1,463C551.7,463 552.3,463.4 555,467.7L558,472.4L558,467.9C558,458.5 562.2,440.4 567.2,428.7C568.8,424.7 570.5,421.1 570.9,420.5C571.3,420 572.9,417.3 574.5,414.6L577.3,409.6L573.9,411.6C571.2,413.2 569.3,416 564.4,425.7C556.9,440.8 540.6,465.2 533.6,471.8C530.7,474.6 526,478 523.1,479.4C517.6,482.3 504.3,486 499.8,486C498.2,486 497,486.3 497,486.6C497,487 498.9,488.9 501.3,491C508.3,497.2 512.8,507.6 514.5,521.2L515.1,526L517.8,524.6C519.3,523.8 521.6,522.1 522.8,520.7ZM374,476.3C374,473.1 311.3,429 306.8,429C304.1,429 306.5,440.5 310.5,447.5C313.5,452.5 322.7,461.5 328.9,465.4C335.4,469.6 345.6,473.6 353.5,475.3C360.9,476.9 374,477.5 374,476.3ZM490.3,474.4C496.3,473.5 503,472.2 505.3,471.4C515.4,467.8 527.2,457 532.2,446.8C535,441.2 538.4,430 537.6,429.2C536.9,428.6 516.5,440.7 506,447.9C497.2,453.9 477.4,468.7 470.5,474.4L467.6,476.9L473.5,476.4C476.8,476.1 484.4,475.2 490.3,474.4ZM402.8,463.8C405.1,461.3 408.9,453.4 409,451.1C409,450.3 405,443.5 400.1,436.1C387.5,416.8 376.9,396.9 376.2,391.4L375.7,387L379.2,387C382,387 383.5,388 388.1,392.8C394.7,399.4 405.9,414.2 415.5,428.8C419.2,434.4 422.6,439 422.9,439C423.3,439 426.9,434.9 431,430C440.1,418.8 445.8,414 449.8,414C453,414 454,415.4 454,419.7C454,421.1 451,426.9 447.4,432.7C436.6,450 435.2,454.4 439.1,459.4C441.9,463 446.1,465 450.7,465C455.6,465 460,462.3 482.5,445.2C507.9,425.9 524,416.2 550,404.3C563.5,398.1 568.5,393.6 571.8,384.7C575.7,374.5 574.2,368.9 565.6,360C558.5,352.7 555,346.4 555,341.2C555,337.1 555.1,337 558.4,337C562,337 563.2,337.8 574.9,347.7C582.4,354.1 589.1,358 592.6,358C593.7,358 597,356.8 599.8,355.4C605.7,352.5 609,347.8 611.1,339.3L612.4,334L617,334C621.2,334 622,334.4 627,339.5C630.4,342.9 633.3,345 634.7,345C637.3,345 663.7,331.6 677,323.5C694,313.2 716.3,297.6 722,292.2C732.2,282.3 735.4,280 739.3,280C742.4,280 742.9,280.3 743.2,282.7C743.5,285.2 743.9,284.7 748.6,277.9C756.2,266.9 760.2,259.1 766.7,243C770.7,233.4 775.3,224.3 780.5,216C792.3,197.2 804.5,179.9 810.7,173.1C813.7,169.7 815.8,167 815.4,167C814.2,167 801.7,175.2 796.5,179.4C781.2,191.8 769.5,204.2 752.3,226.2C746,234.3 739,242.4 736.7,244.3C729.3,250.4 722.8,254 719.3,254C716.2,254 716,253.8 716,250.3C716,247.9 716.8,245.8 718.3,244.2C720.4,241.9 720.4,241.8 718.5,242.3C717.4,242.6 712.7,243.9 708,245C695.9,248.1 676.7,254.4 660.5,260.7C638.5,269.3 632.6,270.2 614.9,267.8C603.7,266.3 602.4,267 596.3,276.7C592,283.7 591.7,284 587.9,284C584.4,284 584,283.7 584,281.6C584,274.4 587.7,262.2 592,255.3C593,253.8 592.1,251.6 586.5,241.7C572.8,217.4 548.2,191.6 522.9,175C503.1,162 474,150.7 446.5,145.4C435.4,143.2 412.4,143 402.5,144.8C375.7,150 343.9,161.7 322.8,174.3C294.4,191.2 268.4,218.9 255.4,246.5C251.1,255.5 251.2,258.5 256.1,266.2C258.6,270.1 259.5,272.7 259.8,277.1L260.2,283L256.5,283C253.1,283 252,282.2 246.1,276.1C237.8,267.4 234,266.1 225,268.6C215.4,271.3 208.1,270.2 191,263.5C171.2,255.8 156.1,250.6 139.6,245.9C132,243.8 125.5,242 125.3,242C125.1,242 125.8,243.2 126.9,244.6C128.1,246.1 129,248.7 129,250.6C129,253.9 128.8,254 125.2,254C122.6,254 120,253 116.5,250.6C107.5,244.5 102.1,239 90.2,223.6C71.5,199.4 50.7,179.7 32.5,169C27.9,166.3 27.4,165.5 39,179C48.6,190.2 62.6,211.5 68.8,224.2C71.5,229.9 77.4,241.9 81.8,251C91.4,270.6 101.3,286.7 101.8,283.2C102.1,281.3 102.7,281 106.6,281C110.8,281 111.5,281.5 119.3,288.9C123.8,293.2 131.3,299.1 136,302C140.7,304.9 150.4,311.2 157.5,316C184.4,333.9 204.6,345 210.3,345C212.2,345 214.2,343.5 217.7,339.5C222.2,334.3 222.8,334 227.2,334L231.9,334L234.5,342.4C237.3,351.5 239.6,355.2 244,357.5C248.2,359.7 250.1,359.4 259.6,355.5C265.4,353.1 269.6,352 273,352L278,352L278,355.8C278,358.7 277.1,360.6 273.9,364.5C268.8,370.6 266,376.1 266,379.6C266,383.8 269.8,390.7 273.6,393.6C275.4,395 287.6,401.5 300.7,408C325.9,420.5 333.5,425.1 357.5,442.9C379.6,459.2 385.2,463 389.6,464.5C395.6,466.7 400.3,466.4 402.8,463.8ZM166.3,420.3L169.5,418.7L165.5,417C160.2,414.8 154.4,408.2 153,402.8C150.6,394.3 152.4,385.4 158.2,376.1C159.3,374.3 159.2,373.7 157.3,371.8L155,369.6L152.6,371.9C151.3,373.1 148.7,377.4 146.9,381.3C143.9,387.7 143.5,389.4 143.6,396.3C143.8,406.7 147.9,415.7 154.3,419.5C159.2,422.4 161.9,422.6 166.3,420.3ZM609.4,377.9C630.4,363.7 650,357.5 676.8,356.3C690.9,355.7 691.1,355.7 693.5,352.9C694.8,351.3 698.6,344.5 701.9,337.7C705.3,330.9 710.3,322.6 713,319.2C715.8,315.8 718,312.8 718,312.5C718,312.3 713.4,315.9 707.8,320.5C678.2,345.3 637.8,365.6 626.8,361.2C625.9,360.8 624,359 622.7,357.3L620.3,354L619.1,359.6C617.5,366.8 613.3,370.9 604.3,374.4C594.9,378 590.2,383.2 588.6,392L588,395.6L594.2,389.7C597.7,386.5 604.5,381.2 609.4,377.9Z" style="fill:rgb(45,95,47);fill-rule:nonzero;"/>
            <path d="M661.4,577C657.6,575.5 656,572 656,565.6C656,560.4 656.8,557.8 662.6,545.1C666.2,537.1 670.3,529.5 671.7,528.3C673.6,526.5 675.3,526 680,526C687.7,526 688.6,527 697.1,545.6C702.5,557.4 704,561.5 704,565.3C704,571.8 701.9,575.5 697.4,577C692.8,578.5 684.5,577.8 682.2,575.7C680.5,574.1 680.1,574.2 676.5,576C672.4,578.1 665.2,578.6 661.4,577Z" style="fill:rgb(45,95,47);fill-rule:nonzero;"/>
            <path d="M623.5,534.7C617,532.5 613.6,530.4 609.6,525.9C603,518.7 601.7,514.4 602.2,501.6C602.7,488.4 604.2,484.7 612,477.6C618.3,472 624.4,470 635.1,470C649.1,470 658.5,475.2 663.9,486.2C666.7,491.8 667,493.2 667,502C667,513.7 665.3,519.2 659.9,525.4C653.9,532.2 646.6,535.3 636.1,535.7C630.9,535.9 625.9,535.5 623.5,534.7Z" style="fill:rgb(45,95,47);fill-rule:nonzero;"/>
            <path d="M715.5,535.1C707.1,532.9 699.2,526.3 694.9,518C692.8,514.1 692.5,512.1 692.5,503C692.5,493.5 692.8,491.9 695.3,486.8C698.3,480.7 702.7,476.3 709.3,472.8C713,470.8 715,470.5 725,470.5C735.6,470.5 736.9,470.7 741.6,473.2C748.6,476.9 754.6,484 756.6,490.8C758.9,498.7 758.2,513 755.1,518.8C752.1,524.6 746.4,530.1 740.5,532.9C735.1,535.5 721.3,536.7 715.5,535.1Z" style="fill:rgb(45,95,47);fill-rule:nonzero;"/>
            <path d="M580.4,748.6C569.5,743.5 565,731.2 570,720.1C571.1,717.7 571.9,715.7 571.8,715.6C571.6,715.5 568.8,714.1 565.5,712.4C555.2,707.1 550.7,696.4 554.5,686.4C558.4,676.1 566,671.4 577.4,672.2C582.8,672.5 584.6,673.1 587.7,675.6C592.7,679.7 595.7,684.2 596.5,689C596.9,691.2 597.3,693 597.5,693C598.1,693 645.2,671.2 715,638.7C751,622 782.2,607.5 784.4,606.6C787.4,605.3 788.1,604.6 787.5,603.3C783,592.8 783.8,584.4 789.9,577.7C801.5,564.7 822.7,568.6 828,584.6C829.5,589.1 828.8,597.6 826.6,601.9C825,604.9 825,605 827.7,605.6C832.6,606.8 837.9,610.3 840.6,614.1C848.5,625.6 844.3,640.2 831.5,646.1C820.4,651.2 806.3,645.3 802.3,633.9C800.8,629.8 800.1,628.9 798.5,629.3C797.4,629.6 760.7,646.5 717,667C615,714.7 609.6,717.2 609.2,717.5C609.1,717.6 609.7,719.3 610.5,721.3C612.7,726.5 612.3,732.7 609.6,738.5C606.9,744.4 605,746.2 599,748.9C593,751.6 586.7,751.5 580.4,748.6Z" style="fill:white;fill-rule:nonzero;"/>
            <path d="M761,749.5C755.4,746.9 750.1,741.1 748.5,735.6C746.7,729.6 746.7,726.7 748.4,721.8C750.1,717.1 751.8,718.3 723.5,705.1C711.4,699.5 701.1,694.5 700.7,694C700.2,693.6 705.1,690.7 711.7,687.5C731.9,677.7 728.3,678 745,685.6C753,689.2 760,692.4 760.7,692.6C761.4,692.9 762.1,691.6 762.5,689C763.4,683.4 768.5,677 774.3,674.1C789,666.8 806,677.3 806,693.7C806,702.5 799.3,711.6 790.9,714.2L787.2,715.2L789.2,719.8C793.6,729.7 790,741.6 780.9,747.7C775.8,751.1 766.4,751.9 761,749.5Z" style="fill:white;fill-rule:nonzero;"/>
            <path d="M403,674.5C383,670.3 369,661 352.8,641.5C342.1,628.6 334.4,621 313,602.6C282.2,576.2 270,562.2 262,544.6C258.6,537.2 255.5,524.9 254.5,515C254.1,511.4 253,502.7 251.9,495.5C250.9,488.4 250,478.3 250,473.3C250,464.3 249.9,464 247.3,462.3C238.7,456.9 207.7,432.3 194.6,420.6C190.3,416.7 182.1,408.2 176.4,401.6C165.2,388.8 164.4,386.9 168,381.5C173.2,373.7 166.9,362.1 156.6,360.6C154.2,360.2 151,359 149.5,357.8C148,356.7 144.3,350.4 140.9,343.4C133.7,328.6 128.8,321.7 116.6,309C99.6,291.4 90.6,278.3 78.8,254C74.4,244.9 68.5,232.9 65.8,227.2C56.1,207.4 40.1,185.3 20.6,165C8.7,152.7 8.6,152.5 16.6,156.1C26.7,160.7 38.3,167.4 48,174.3C59.9,182.8 79.4,202.7 93.2,220.6C99.6,228.9 107.1,237.7 109.7,240C115.6,245.2 124.8,251.5 125.6,250.8C125.9,250.5 123.8,247.6 121,244.4L115.8,238.5L119.9,238.2C127.3,237.6 156.1,246.1 189.4,258.7C200.3,262.8 210.9,266.4 212.9,266.7C214.9,267 219,266.5 222,265.6C233.8,262.1 240.2,263.9 249.1,273.1C252.7,276.9 256.1,280 256.5,280C258,280 255.9,273.6 253,269C245.8,257.7 247.6,248.8 261.8,227C287.3,187.7 326.4,161 379.9,146.6C399.8,141.2 405,140.5 423.5,140.6C441.5,140.6 450.3,141.8 467.2,146.6C497.6,155.1 520.8,166.6 542,183.7C551,191 568.2,208.6 576.7,219.2C582.8,226.9 595.5,248.1 596.6,252.6C597,254.2 596.3,256.4 594.3,259.7C592.7,262.4 591,265.4 590.6,266.5C589.2,270.4 587.3,281 588,281C588.4,281 590.8,277.7 593.3,273.7C597.5,267 599.5,265.1 604.3,263.6C605.3,263.3 611.1,263.8 617.2,264.7C631.4,266.7 636.1,265.9 656.4,258.1C673.5,251.5 692.6,245.1 704.7,242.1C712.4,240.1 727.5,237 729.3,237C729.8,237 727.7,239.8 724.6,243.2C718.3,250.2 717.7,251.7 721.8,249.6C730.1,245.3 737.6,238.1 749,223.6C766.7,201 778.2,188.8 793.5,176.4C802.2,169.3 819.7,159 829.9,155L835.2,152.9L832,157C830.2,159.2 827.4,162.1 825.6,163.5C821.1,167 808.6,181.6 801.1,192.3C785.2,215.1 775.7,231.3 769.4,246.7C759.2,271.8 750.7,284.9 731.3,305.2C715.8,321.4 711.7,326.9 704,342.4C700.5,349.7 696.6,356 694.9,357.4C692.3,359.6 691.4,359.8 684.8,359.3C671.6,358.3 648.9,362.6 633.3,369.1C624.2,372.9 610.3,381.7 601.1,389.3C593.5,395.7 583.9,407.3 577.4,417.8C564,439.6 558.1,468.4 562.4,491C563.2,495.1 563.7,498.6 563.5,498.8C563.1,499.2 559,488.4 559,486.9C559,486.3 557.7,482.6 556,478.7C552.9,471.4 548.7,465 547.6,466.1C547.2,466.5 544.9,473.2 542.5,481.1C536.5,500.7 528.7,520.7 525.8,523.7C523.6,526.1 515.1,531 513.1,531C512.6,531 511.9,528.2 511.5,524.8C509.7,507.3 504.2,497.3 491.9,489.1C485.4,484.8 485.5,484.6 494.5,483.5C511.4,481.3 523.5,476.2 531.8,467.7C538.9,460.4 555.2,435.7 561.5,422.5C564.4,416.4 567.5,410.8 568.3,410.1C569.2,409.4 572,408 574.7,407C580.8,404.8 583.4,401 585,392.3C587.3,380 590.9,375.4 601.3,371.4C605.2,369.9 609.6,367.3 611.4,365.5C614.5,362.4 617,356 617,351.2C617,349.2 619.5,347.6 621.1,348.5C621.5,348.8 623.3,351 625.1,353.5C626.8,355.9 629.3,358.1 630.6,358.4C635.5,359.7 661.6,347.7 680,335.8C703.3,320.7 742.6,286.2 739.7,283.3C739,282.6 732.9,287.5 725,295.2C709.7,310 647.5,347 635.2,348.7C631.2,349.2 630.8,349 624.7,343.1C621.2,339.8 617.7,337 616.9,337C615.9,337 614.9,338.9 614.1,342.3C611.1,354.4 603.5,361 592.6,361C585.9,361 581.2,358.5 570.4,349.4C560.4,340.9 558,339.3 558,341.1C558,343.6 563.4,351.7 568.6,357C571.5,360 574.6,364.2 575.5,366.2C577.7,371.6 577.4,380.8 574.8,387.7C571.5,396.6 566.5,401.1 553,407.3C527,419.2 510.9,428.9 485.5,448.2C475.9,455.5 465.7,462.9 463,464.6C447.5,474.4 429.7,465 434,449.4C435.1,445.5 442.9,431.4 449.2,422C450.2,420.5 450.6,419 450.1,418.2C449,416.5 439.1,426.2 429.6,438.2L422.7,446.9L412.1,431.2C399.4,412.6 389.9,400.2 383.5,394L378.8,389.5L380.3,393.2C383.2,400.1 394.3,419.5 403.3,433.3C413.4,448.8 413.9,450.7 410.1,459.7C406.6,467.6 404.1,469.5 397.2,469.2C385.9,468.7 384.5,468 354.7,446C330.6,428.3 322.3,423.2 297.7,411C284.6,404.5 272.4,398 270.6,396.6C265.8,393 263,386.7 263,379.6C263,373 264.8,368.8 270.9,361.5C273.2,358.8 275,356.2 275,355.8C275,354.2 270.7,355.1 262.4,358.6C249.6,363.9 241.5,363.2 236.1,356.4C235,355 232.9,350 231.5,345.4C229.7,339.6 228.5,337 227.4,337C226.6,337 223.2,339.8 220,343.1L214.2,349.3L209.5,348.7C200.5,347.4 182.9,337.9 154.5,319C147.4,314.2 137.7,307.9 133,305C128.3,302.1 120.8,296.2 116.3,291.9C111.7,287.5 107.3,284 106.5,284C103.1,284 109.5,291.5 123.9,304.4C147.4,325.6 164.5,337.3 191.8,350.7C212.4,360.9 216.4,361.8 220.9,357.2L223.9,354.2L224.6,357.7C225.7,363.7 230.1,367.5 240.5,371.5C245.7,373.5 250.3,375.7 250.9,376.3C251.4,377 252.8,381.3 253.9,385.9C257.1,398.6 260.4,403 270.2,407.5C275.5,409.9 276,410.5 277.9,415.6C282.4,427.5 287.3,435.9 298.9,451.5C316.8,475.6 317.8,476.3 341.7,482L359.1,486.2L354.3,488.4C348.7,491.1 342.6,497.5 339.9,503.5C338.9,505.8 336.9,512.8 335.6,518.9C334.3,525.1 332.9,530.4 332.6,530.7C331.9,531.4 326.7,529.4 322.2,526.8C320.4,525.7 317.9,523 316.6,520.7C313.7,515.8 304.3,489.5 300.5,476C296.7,462.5 297.2,463.3 295.4,465.8C292.3,470.2 287.1,481.8 284.9,489C282,498.8 280.2,501.3 272.8,505.2C265.5,509.1 262.9,512.3 262,518.4C261.6,520.9 261.5,523 261.7,523C261.9,523 264,521 266.3,518.5C270.6,514 272.8,513.3 277.7,514.6C279.8,515.2 279.9,515.7 279.7,524.4C279.5,532.8 279.8,533.9 282.5,538.9C284.5,542.6 288.2,546.6 293.5,551.2C297.9,554.9 304.4,561.3 307.8,565.4C317.3,576.5 340.5,598.9 349,605.2C353.1,608.2 360.8,613.1 366,616C371.2,618.9 378.2,623.2 381.5,625.5C387.4,629.6 399.4,641 398.6,641.7C398.4,641.9 388.9,638.7 377.5,634.5C366.1,630.3 356.5,627.2 356.2,627.5C355.4,628.3 360.6,632.5 368.1,637.1C393,652.6 443,654.3 471.4,640.6C478.3,637.3 487,630.4 487,628.3C487,627.7 479.9,629.7 471.3,632.6C449.2,640.2 448.2,639.9 458.3,629.6C463.2,624.6 466.7,622.1 474.7,618.2C486.1,612.7 496.9,604.6 511,591.3L520.5,582.3L520.5,590.6C520.5,598.6 520.4,598.9 517.7,600.5C513.8,602.8 507.3,611.4 506,615.8C505.4,617.8 504.7,621.5 504.3,624C503.8,628 502.3,630 490.8,642.7C473.1,662.2 463.4,669.1 447.5,673.5C439.2,675.8 411.9,676.4 403,674.5Z" style="fill:white;fill-rule:nonzero;"/>
            <path d="M594.7,645C576.1,636.2 560.2,629 559.4,629C558.6,629 558,630 558,631.3C558,635.7 552.6,642.5 546.9,645.4C538.4,649.6 529.7,648.7 522.6,642.8C512.6,634.6 512.5,618.9 522.3,610.3C524.3,608.5 527.8,606.5 530,605.9C532.2,605.2 534,604.6 534,604.5C534,604.3 533.3,602.6 532.5,600.7C530.2,595.1 530.6,586.1 533.3,580.9C536.8,574.3 542.6,570.7 550.4,570.2C558.7,569.7 563.3,571.3 568.5,576.4C575.1,583.1 576.8,593.7 572.5,602C571,604.9 571,605.1 573.2,605.9C576,606.9 647.9,640.9 654.6,644.3L659.4,646.7L644.6,653.9C636.4,657.8 629.4,661 629.1,661C628.8,660.9 613.3,653.7 594.7,645Z" style="fill:white;fill-rule:nonzero;"/>
            <path d="M410.5,638.7C402.7,635 396.5,627.3 387,609.5C376.7,590.1 366.3,574.4 353.6,558.6C342.7,545.2 341.6,542.4 341.7,530C341.8,523 342.3,519.9 345,512.8C350.6,497.3 355.7,492.5 366.5,492.6C375,492.7 382,495.3 388,500.7C394,506.1 397.4,512.3 398.9,520.5C400,526.5 401.4,529 402.7,527.6C404.2,526.2 403.4,504.6 401.5,494.8C399.3,483.3 399.5,482.6 407.4,476.5C411,473.7 413.4,470.7 415.5,466.4L418.5,460.2L425.1,466.5C428.8,469.9 434.1,474.5 437,476.7L442.3,480.6L442.4,504C442.6,529.6 443.4,534.5 446.3,527.1C447.2,524.9 448.5,519.7 449.1,515.8C449.7,511.8 450.8,507.3 451.6,505.9C453.4,502.4 459.3,497.3 463.7,495.5C469.3,493.1 480,491.9 484.3,493.1C496,496.3 506.1,522.8 501.5,538.5C499,547.2 496.8,551 487.7,562.3C476.7,575.8 470.8,584.8 462,601C458,608.4 453.1,617.4 451.2,621C447.3,628.1 440.2,635.8 434.9,638.6C432.7,639.7 428.6,640.5 423.5,640.7C416.6,641 414.8,640.8 410.5,638.7Z" style="fill:white;fill-rule:nonzero;"/>
            <path d="M375.3,612.6C369.9,610.1 368,607.7 368,603.8C368,601.2 371.6,596.6 373,597.5C374.1,598.2 380.5,609.8 381.4,612.8C382.3,615.6 381.7,615.6 375.3,612.6Z" style="fill:white;fill-rule:nonzero;"/>
            <path d="M638.1,613.8C636.8,613.1 634.7,611.2 633.6,609.7C631.7,607.2 631.4,605 631,591.2C630.4,576.7 630.2,575.1 627.7,570C623.8,562.1 623.1,561.5 617,560C604.9,557.2 594,550.2 587.9,541.4C583.7,535.3 582,529.9 581,519.8C580.5,514.1 579.3,509.2 577.7,505.8C568.8,486.6 569.9,457.6 580.4,434.6C591.3,410.8 608.1,393.5 631.5,382C664.5,365.7 699.1,366.2 731,383.2C764,400.8 785.8,434.4 787.7,470.5C788.4,483.6 786.4,496 782.1,505.4C780.3,509.5 779.1,514.1 778.7,519C777.8,529.5 775.7,535.9 770.8,542.4C765.5,549.5 757.1,555.3 747.7,558.1C743.7,559.3 739.6,560.6 738.4,561C737.3,561.4 734.9,564.6 733,568.1C729.6,574.4 729.5,574.6 729,590.5C728.7,599.6 728,607.4 727.3,608.5C724.1,614.3 717.6,616.3 711.8,613.6C707.6,611.6 706,608.5 706,602.5C706,597 703.5,594 698.7,594C693.2,594 691,596.3 691,602C691,610.5 687.2,615 680.1,615C672.9,615 669,610.6 669,602.5C669,596.7 666.5,594 661.2,594C655.9,594 654,596.3 654,602.8C654,607 653.5,608.5 651.3,611C648.1,614.6 642,615.9 638.1,613.8ZM672.5,573.6C674.3,572.8 676.3,571.2 677,570.1C678.5,567.3 680.1,567.5 683.4,570.9C686.9,574.5 690.2,575.4 694.6,574C698.1,572.8 701,568.8 701,565.3C701,562.5 687.5,533.9 685,531.3C682.2,528.4 677.8,528.3 674.7,531.3C671.6,534.1 659,561.6 659,565.6C659,569.1 661.4,572.8 664.4,574C667.4,575.2 668.6,575.2 672.5,573.6ZM647.5,529.5C654.1,526.3 660.3,519.5 662.4,513.3C663.3,510.7 664,505.6 664,502C664,482 645.1,468.6 625.3,474.5C619.2,476.3 610.9,483.4 607.8,489.4C604.6,495.5 604.1,508.2 606.8,514.2C613.9,530.3 632,537.1 647.5,529.5ZM737.7,529.8C751.2,523.5 757.9,508.4 753.6,493.8C751.6,487 745.6,479.9 738.6,476.2C734.2,473.9 732.3,473.5 725,473.5C718.1,473.5 715.7,473.9 712.3,475.8C705.7,479.3 701.3,483.6 698.4,489.7C694.7,497.2 694.5,508.3 697.9,515C702.2,523.3 710.1,529.9 718.5,532.1C723.2,533.4 732.5,532.2 737.7,529.8Z" style="fill:white;fill-rule:nonzero;"/>
            <path d="M466,612.6C466,611.5 468.6,605 470.1,602.6L471.9,599.7L473.8,603C474.9,604.8 475.6,606.9 475.3,607.7C474.6,609.4 466,614 466,612.6Z" style="fill:white;fill-rule:nonzero;"/>
            <path d="M360.6,596.6C358,590.3 354.2,577.8 353.5,572.6C352.6,567 353.6,567 358.7,573C364.1,579.2 365.3,582.6 364.8,590C364.5,593.7 363.8,597.5 363.2,598.5C362.3,600.2 362,600 360.6,596.6Z" style="fill:white;fill-rule:nonzero;"/>
            <path d="M480,596.4C478.2,591 479.4,586.4 484.6,578.8C487.2,575.1 489.5,572 489.7,572C489.9,572 489.8,574.1 489.4,576.8C488.5,583.1 483.1,600 482,600C481.5,600 480.6,598.4 480,596.4Z" style="fill:white;fill-rule:nonzero;"/>
            <path d="M491.3,596.4C491.6,595.3 493.5,587.6 495.5,579.3C497.5,570.9 499.6,564 500.1,564C501.7,564 506.9,572.1 507.6,575.6C507.9,577.4 507.6,580.5 507,582.6C505.7,586.6 499.3,593.3 494,596.4C490.9,598.2 490.8,598.2 491.3,596.4Z" style="fill:white;fill-rule:nonzero;"/>
            <path d="M345,592.2C342,590.2 338.7,587 337.6,585.1C335.9,582.2 335.8,581.2 336.8,577.5C337.4,575.2 339.4,570.8 341.2,567.6L344.5,561.8L346.1,572.2C347,577.9 348.5,585.4 349.4,588.9C350.4,592.4 350.9,595.4 350.7,595.6C350.5,595.8 347.9,594.3 345,592.2Z" style="fill:white;fill-rule:nonzero;"/>
            <path d="M326.7,571.4C323.5,564.3 322,556.6 322,546.8L322,537.1L325,538.1C329,539.5 338,549.5 338,552.5C338,553.8 337.5,555.2 337,555.5C335.4,556.5 332.8,561.9 330.5,568.9L328.4,575.2L326.7,571.4Z" style="fill:white;fill-rule:nonzero;"/>
            <path d="M513.7,567.9C512.2,563.7 509.8,558.6 508.3,556.5C505.2,551.9 505.1,548.6 508,545.5C510.3,543.1 523.8,535.5 524.5,536.2C524.8,536.4 524.5,539.3 524,542.6C523.5,545.8 522.4,552.6 521.6,557.5C520.9,562.5 519.4,568.5 518.3,571L516.4,575.4L513.7,567.9Z" style="fill:white;fill-rule:nonzero;"/>
            <path d="M566.5,562.6C561.7,560.1 559.4,559.5 554,559.5C550.4,559.5 546,559.8 544.3,560.2C541.3,560.9 541.9,560.1 550.4,551.7C562.6,539.7 564.4,536.2 564.5,524.7C564.5,518.1 564.9,515.7 566,515C569,513.1 570,513.9 570,518.3C570.1,528.3 574.2,540.5 580.4,548.9L583.8,553.5L579.6,559.5C577.3,562.8 574.8,565.5 574,565.6C573.2,565.7 569.8,564.3 566.5,562.6Z" style="fill:white;fill-rule:nonzero;"/>
            <path d="M528.3,560C528.7,558.6 529,555.9 529,554C529,548.5 530.1,547.5 533.9,549.4C538.8,552 537.7,554.9 529.6,561.1C527.8,562.4 527.7,562.3 528.3,560Z" style="fill:white;fill-rule:nonzero;"/>
            <path d="M312.4,560C309.6,558.9 305,553.2 305.6,551.7C305.9,550.9 308.1,549.4 310.5,548.2L315,546L315,548.9C315,550.4 315.3,553.8 315.6,556.4C316.3,561.1 316,561.5 312.4,560Z" style="fill:white;fill-rule:nonzero;"/>
            <path d="M293.3,542C289.1,540.3 288,536.9 287.3,524.7C286.6,511.7 287.9,501.7 291.5,491C295.4,479.6 295.2,479.5 299.8,496.7C302.2,505.5 305.8,516.2 308,520.8C313.1,531.4 313.2,535 308.6,539.6C305.6,542.6 304.6,543 300.4,542.9C297.7,542.9 294.5,542.5 293.3,542Z" style="fill:white;fill-rule:nonzero;"/>
            <path d="M538.4,541.1C534.9,539 531,534.4 531,532.4C531,531.7 532.8,527.9 534.9,523.8C539.2,515.8 543.8,502 546.6,489.2C548.7,479.3 549.2,479.6 553.5,492.3C556.1,499.7 556.4,502.2 556.8,517.8C557.3,537.1 556.8,538.9 550.5,541.6C545.9,543.5 542.1,543.4 538.4,541.1Z" style="fill:white;fill-rule:nonzero;"/>
            <path d="M383.3,490.7C377.1,488.2 376.6,487 381.6,487C385.8,487 388.6,488.3 390,491C391.4,493.6 390.2,493.5 383.3,490.7Z" style="fill:white;fill-rule:nonzero;"/>
            <path d="M454,491.8C454,491.1 454.7,489.4 455.6,488.2C456.8,486.5 458.1,486 461.8,486C469.5,486 469.9,487.4 462.8,490C459.3,491.2 455.9,492.5 455.3,492.7C454.6,493 454,492.6 454,491.8Z" style="fill:white;fill-rule:nonzero;"/>
            <path d="M350.5,478.3C341.9,476.5 331.7,472.2 324.6,467.5C317.6,462.9 308.9,453.6 306.1,447.7C302.9,441.2 301.3,430.9 302.8,427.6C304.3,424.3 306.7,424.3 312.8,427.4C325.2,433.7 364.7,461.7 377.9,473.6L383.3,478.5L379.4,479.2C372.8,480.4 357.9,479.9 350.5,478.3Z" style="fill:white;fill-rule:nonzero;"/>
            <path d="M458,479.6C458,479.1 476.4,464.2 485.5,457.4C507.3,441 534.2,424.6 538.2,425.2C541.2,425.6 541.7,429.9 539.6,438C537,448.1 533.1,455 525.5,462.6C514.5,473.7 506.8,476.5 480.2,479C469.6,480 458,480.3 458,479.6Z" style="fill:white;fill-rule:nonzero;"/>
            <path d="M156.8,425C150.7,423.2 147.1,419.9 143.8,413.3C140.9,407.3 140.6,406.1 140.6,396.2C140.5,386 140.7,385.1 143.9,378.2C147.5,370.6 151.7,366 155.2,366C157.8,366 163,371.3 163,374.1C163,375.3 161.7,378.4 160.2,380.9C157,386.1 155,391.3 155,394.4C155,402.2 161.9,411.8 169.3,414.3C176.4,416.6 174.9,421.5 166.3,424.6C162,426.1 160.6,426.2 156.8,425Z" style="fill:white;fill-rule:nonzero;"/>
        </g>
    </g>
</svg>
