<?xml version="1.0" encoding="UTF-8" standalone="no"?>
<!DOCTYPE svg PUBLIC "-//W3C//DTD SVG 1.1//EN" "http://www.w3.org/Graphics/SVG/1.1/DTD/svg11.dtd">
<svg width="100%" height="100%" viewBox="0 0 691 699" version="1.1" xmlns="http://www.w3.org/2000/svg" xmlns:xlink="http://www.w3.org/1999/xlink" xml:space="preserve" xmlns:serif="http://www.serif.com/" style="fill-rule:evenodd;clip-rule:evenodd;stroke-linejoin:round;stroke-miterlimit:2;">
    <g transform="matrix(1,0,0,1,-14.7383,-11.0979)">
        <g>
            <path d="M354.1,709.1C352.8,708.8 349.7,706.4 347.1,703.8L342.5,699.1L330.5,698C254.3,690.7 181.8,655.9 128.5,600.9C106.5,578.2 87.3,551.7 73.6,525.1L66.8,511.8L63.5,516.7C59.3,522.8 57.3,524.6 53,525.7C46.5,527.5 39.8,523.8 38.2,517.6C36.6,511.8 39,504.8 47.8,488.7C50.7,483.3 53,478.5 52.8,478C52.6,477.6 48.5,480.7 43.6,485C31.7,495.3 24.8,496.9 18.3,490.9C12.6,485.5 13.7,478.8 21.9,468C29.9,457.7 39,444.8 39,444C39,443.7 37.4,442.6 35.5,441.7C28,438.1 26.8,427.3 33.2,421.4C35.1,419.7 37.2,418.1 37.9,417.9C38.9,417.5 39,415.1 38,406C36.6,391.5 36.5,358.9 38,344.5C47.7,246.4 100.8,158.2 182.5,104.4C190.2,99.4 201.5,92.6 207.5,89.3C214.5,85.5 222.2,80.3 228.9,74.7C260.9,47.9 310.2,21.5 343.2,13.5C355,10.6 363.7,10.4 373,12.5C407.5,20.6 455.1,45.4 489.2,73.3C495.6,78.5 503.5,83.6 512.2,88.2C608.5,138.9 673.2,235.3 684,344.5C685.4,358.3 685.4,392.4 684.1,405C682.7,418 682.6,417.7 686,419.6C694.4,424.6 693.7,438.5 684.9,442C683,442.7 681.4,443.5 681.2,443.6C680.6,444 686.2,452.1 695.1,464C704.2,476 706.2,480.5 704.9,485.6C702.4,494.8 690.9,496.9 681.8,489.8L678.1,486.9L678.9,489.7C681.3,498.3 672.5,506.4 663.4,503.8C661.4,503.3 659.7,503 659.5,503.2C659.3,503.4 655.3,511.2 650.6,520.6C625.1,571.2 587.6,613.6 540.5,644.9C495.2,675 443.8,693.2 390.5,698L377.5,699.2L373,703.6C367,709.3 361.1,711.1 354.1,709.1ZM362.6,690.8C365.4,687.6 369.3,681.4 372.5,675C376,667.9 379.6,664.2 384,663C386.5,662.3 388.3,660.8 390.5,657.5C393.2,653.6 393.9,653 397.3,653C400.4,653 401,653.3 401.1,655.3C401.4,661.6 409,630.8 409,623.3C409,619.1 409.1,619 412.4,619C416.1,619 418.7,621.4 421,626.9L422.2,629.9L426.4,627.1C428.7,625.5 431.2,623.5 431.9,622.6C433.5,620.7 440,620.4 440.1,622.3C440.5,627.9 446,596.7 445.9,589.7C445.8,584.7 445.7,584.6 444.7,587.5C444.1,589.2 440.9,595.9 437.5,602.5C431.6,614.2 431.4,614.5 427.9,614.8L424.4,615.1L424.4,596.8C424.3,586.7 423.9,576.5 423.3,574L422.4,569.5L419.6,578.5C416.3,589.3 411.6,599.5 406.7,607.3C403.3,612.5 403,613.7 403,620.2C403,626 402.5,628.1 400.6,631.5C397.5,636.8 391.2,641 386.5,641L383,641L382.9,632.8C382.9,628.2 382.3,622.7 381.6,620.5L380.4,616.5L379.2,621.9C377.7,628.6 373.5,636.4 369.7,639.6C367.3,641.6 365.8,642 360,642C353.8,642 352.7,641.7 349.7,639.1C346.2,636 342.8,629.4 340.9,622C339.8,617.7 339.7,617.6 338.7,620C338.1,621.4 337.7,626.9 337.8,632.3L337.9,642L334.6,642C331,642 324.3,638 321.2,634C318.4,630.2 317,625.4 317,618.7C317,613.4 316.5,612 312.6,605.6C307.2,597 303.8,589.6 300.9,579.9C299.7,575.8 298.4,572.1 298,571.6C296.6,570.1 295.5,584 295.7,599.8L295.9,615L292.5,615C289.4,615 288.8,614.4 285.4,608.8C283.3,605.3 279.9,598.5 277.8,593.5L274.1,584.5L274,589C274,596.9 280.6,630.8 280.9,624.3C281,622.4 281.6,622 284.4,622C286.3,622 288.2,622.4 288.5,623C288.8,623.5 291.1,625.3 293.4,627L297.8,629.9L301.1,624.5C304,619.6 304.8,619 307.7,619C310.8,619 311,619.2 311,622.4C311,631.4 319,661.8 319.8,655.8C320.1,653.4 320.6,653 323.5,653C326.3,653 327.3,653.7 330.4,658C333.1,661.8 334.6,663 336.5,663C340.2,663 343.2,666.5 348.4,676.8C352.6,685.2 358.2,693 359.9,693C360.3,693 361.5,692 362.6,690.8ZM288,487.5C289.5,475.4 291.4,466.7 294,459.8C296.1,454.2 296.3,454 299.7,454L303.2,454L302.7,459.8C302.1,466.7 304.1,479.7 307,488.5C308.2,492.1 309.3,495 309.5,495C309.6,495 309.8,488.4 309.8,480.3C309.9,463.9 311.4,456 316.4,447.6C318.7,443.6 319.5,443 322.4,443L325.8,443L326.5,449.3C326.8,452.7 328.2,458.7 329.4,462.5L331.6,469.5L332.8,462.2C333.5,458.1 335.2,452.6 336.5,449.9C338.8,445.4 339.3,445 342.5,445C345.8,445 346,445.2 346.1,448.3C346.2,450 346.4,450.7 346.7,449.7C347.1,448.3 348,448 350.8,448.2C354.4,448.5 354.5,448.6 357,456.2C358.4,460.5 359.7,464 360,464C360.3,464 361.8,460.4 363.3,456C366.1,448.2 366.2,448 369.5,448C371.3,448 373.1,448.6 373.3,449.3C373.6,449.9 373.9,449.3 373.9,447.8C374,445.2 374.3,445 377.8,445C381.4,445 381.8,445.3 383.9,449.5C385.2,452 386.7,457.3 387.3,461.3C388.3,468.4 388.4,468.4 389.6,465.5C391,462 394,448.1 394,445C394,443.2 394.5,442.9 397.7,443.2C400.9,443.5 401.8,444.1 403.7,447.5C408.8,456.4 410.5,464.4 410.5,480.3C410.5,494.8 410.5,495 412.1,491.3C415.8,482.5 417.5,473.6 417.3,463.3L417.1,453L420.4,453C423.6,453 423.8,453.2 426.4,460.3C429.4,468.7 431.6,478.4 432.6,489L433.4,496.5L435.2,481.5C436.2,473.3 437.3,462.6 437.6,457.8L438.3,449L441.5,449C444.2,449 444.9,449.5 445.8,452.3C446.8,455.4 446.8,455.4 446.9,450.4C447.2,436.7 454.8,418.9 464.4,409.5C471.6,402.5 483.1,396 488.4,396C491.9,396 492,396.1 492,399.5C492,401.5 491.3,404.5 490.5,406.3C489,409.5 489,409.5 490.7,407C491.6,405.6 494.1,402.9 496.2,400.9C498.6,398.6 500,396.4 500,394.8C500,393.4 500.9,391.5 502.1,390.4C504.1,388.6 512,376.1 512,374.7C512,374.3 510.8,374.5 509.4,375C508,375.6 505.1,376 503,376C499.4,376 499.1,375.8 498.8,372.8L498.5,369.7L495.4,372.3C493.4,374 491,375 489.1,375C486.3,375 486,374.7 486,371.8L486,368.7L483.8,370.7C478.3,375.8 467.1,382 463.6,382L460,382L460,405L456.5,405C453.6,405 453,404.6 453,402.9C453,399.4 448.1,390.3 444.4,387C442.5,385.3 435.8,381.4 429.7,378.3C420.5,373.7 417.7,372.7 414,372.9C409.7,373.1 409,372.7 403.1,367.4C399.7,364.2 394.3,358.3 391.1,354.1C386.9,348.4 383.4,345.1 377.2,340.9C372.6,337.9 367,333.4 364.6,331.1L360.4,326.9L356.8,330.3C354.8,332.2 348.7,336.7 343.3,340.3C335.9,345.3 332.6,348.2 330,352.2C325.6,358.8 316.7,368.4 312.4,371.1C310.3,372.3 307.7,373 305.3,372.9C302.4,372.7 298.9,374 290.3,378.4C284.2,381.5 278,385 276.5,386.2C273.1,388.9 269.5,394.6 267.9,399.8C266.8,403.6 266.4,404 263.3,404L260,404L260,383L256.3,383C254.1,383 251.8,382.2 250.6,381.1C249.4,380.1 245.2,376.9 241.3,374.1C234.2,369.2 234,369.1 234,371.5C234,373.7 233.6,374 230.3,374C227.7,374 225.8,373.2 223.8,371.3L221,368.6L221,372.3C221,376 221,376 216.9,376C214.7,376 212,375.5 210.8,374.9C209.7,374.3 208.6,374.1 208.3,374.4C207.6,375.1 212.5,383.5 216.6,388.7C218.5,391 220,393.9 220,395.1C220,396.4 221.4,398.7 223.3,400.4C225.1,402.1 227.8,405.1 229.4,407L232.2,410.5L230.1,406.7C229,404.6 228,401.3 228,399.4C228,396.2 228.2,396 231.6,396C237,396 249.3,403.2 256.8,410.6C266.4,420.2 272.7,435.5 273.1,450.5C273.2,453.3 273.5,454.5 273.7,453.3C274,451.5 274.8,451 277.4,451L280.7,451L282.3,462.8C283.2,469.2 284.5,479.5 285.2,485.7C285.8,491.9 286.5,496.8 286.6,496.7C286.8,496.6 287.4,492.4 288,487.5ZM96.1,457.3C120.3,432.6 129.3,418.3 151.5,369.5C159.9,351 172,326.3 176.5,318.4C199.4,278.5 225.3,247.3 258,219.8C280.8,200.8 311,183.1 335,174.8C344.2,171.7 345,171.6 360.5,171.6C375.9,171.6 376.9,171.7 386,174.9C398.3,179 419,189.3 431,197.1C450.2,209.5 463.4,220.3 482.6,239.5C518.8,275.7 537.1,302.5 562.6,357.3C585.2,405.8 596.2,425.7 609.6,442C615.7,449.5 626.3,459.9 633.5,465.6C637.8,469 637.2,468.1 629.1,459C610.9,438.6 604.2,429.5 596.4,414C591.3,403.9 585,386.1 585,381.7C585,379.1 585.2,378.9 588.6,379.2C592,379.5 592.6,380.1 598.5,389.5C618.2,420.8 644.4,447.7 657.8,450.2C661.3,450.8 663.6,452.1 666.8,455.3L671.1,459.5L664.9,449C661.5,443.2 656.8,435.5 654.4,431.8C651.1,426.7 650,424 650,421.1C650,417.4 649.6,416.9 643.3,412.4C634.5,406.2 620.4,391.9 611.2,379.9C607.2,374.6 599.7,363.2 594.5,354.4C587.1,341.9 585,337.7 585,334.8C585,331.2 585.2,331 588.3,331C591.1,331 591.9,331.7 594.8,336.3C604,351 622.1,369.6 633.2,375.9C637.2,378.2 637.4,378.2 636,376.3C635.2,375.1 631.1,369.5 626.9,363.9C607.3,337 599.4,319.8 581,265C565.3,218.1 555.7,193.3 543.8,169.6C518.7,119.4 492.7,91.4 443,60.9C416.2,44.5 378.3,28.2 362.8,26.4C343.9,24.2 285.4,51.8 247,81C216.6,104.1 196.1,130 175.7,171C163.8,194.8 154.9,217.2 140.7,259.5C134.4,278.2 127,299.4 124.1,306.6C114.2,331.9 100.6,355.2 85.2,373.8C82.8,376.6 81.2,379 81.5,379C83.7,379 97.6,368.4 104.6,361.5C111.9,354.2 121.9,341.8 124.9,336.2C125.8,334.6 127,334 129.5,334C132.8,334 133,334.2 133,337.2C133,342 120.2,365 110.3,378C99.8,391.8 82.2,409.4 72,416.3C70.7,417.2 70.1,418 70.8,418C72.5,418 72.3,424.5 70.5,426C69.7,426.7 66,432 62.4,437.9C58.7,443.7 55,449.6 54.2,450.8C51.3,455.3 66.1,443.9 70.4,438.3C73.9,433.8 75,433 77.8,433C80.6,433 81,433.3 81,435.8C81.1,438.3 82,437.6 91.3,428C102.9,416 115.3,400 123,386.9C128,378.5 128.5,378 131.7,378C134.8,378 135,378.2 135,381.3C135,385.3 128.1,405 123.4,414.4C116.4,428.3 109,438.2 86,464.6C74.2,478.1 79.5,474.3 96.1,457.3ZM293.2,329.4C295.8,328.6 298.2,327.5 298.4,327.2C298.9,326.3 280.7,313.4 272.3,308.8C268.5,306.7 261.7,304.2 256.9,303C246.2,300.5 246.2,300.5 248.7,303.3C249.8,304.5 253.1,309.2 255.9,313.7C266.3,330 277.4,334.7 293.2,329.4ZM450,328.5C452.5,327.2 455.8,324.8 457.5,323.1C460.1,320.3 472.1,301.8 471.6,301.3C470.8,300.4 455.9,304.9 449.5,308C439.3,312.9 420.6,326 422,327.4C422.5,327.9 426,329.2 429.7,330.2C437.7,332.3 443.5,331.8 450,328.5ZM334.2,312.5C335.2,311.5 323.5,300.3 319.3,298.1C317,296.9 313.5,294.6 311.5,292.9C308.3,290 308,289.9 308,291.9C308,293.2 307.3,294 306.3,294C303.7,294.1 315.4,304.7 323.1,309.3C328.9,312.7 332.8,313.8 334.2,312.5ZM396.7,309.4C404.2,304.9 416,294.1 414.3,293.4C413.6,293.1 413,291.9 413,290.8C413,289 412.5,289.2 408.9,292.5C406.6,294.5 403.2,296.9 401.2,297.7C397.8,299.1 384.9,311.5 385.8,312.5C387.1,313.8 391.1,312.7 396.7,309.4Z" style="fill:rgb(45,95,47);fill-rule:nonzero;"/>
            <path d="M335.8,412.8C323.9,398.8 323.4,395 331.8,385C335,381.2 339.3,375.2 341.4,371.6C345,365.5 345.5,365 348.7,365C351.1,365 353.4,366 356.1,368.1L360,371.1L364.4,368.1C366.9,366.3 370.2,365 371.8,365C374.4,365 375.4,365.9 379.3,372.3C381.8,376.2 386.2,382.3 388.9,385.8C396.5,395.1 395.8,398.7 383.6,413.3C380.1,417.5 379.2,418 375.7,418L371.7,418L372.3,413.3C372.6,410.1 372.5,409.1 371.8,410.3C371.2,411.4 369.7,412 367.5,412C364.2,412 364,411.8 364,408.5C364,404.8 361.3,397 360,397C358.7,397 357,403 357,407.6C357,411.9 356.9,412 353.7,412C351.9,412 349.9,411.5 349.2,410.8C348.3,409.9 348,410.5 348,413.8L348,418L344.1,418C340.7,418 339.7,417.4 335.8,412.8Z" style="fill:rgb(45,95,47);fill-rule:nonzero;"/>
            <path d="M162,306.1C162,302.3 167.3,281.8 171.1,270.6C178.9,248.1 194.4,221.4 208.5,206.3C215.2,199 216.6,198 219.6,198C222.8,198 223,198.2 223,201.4C223,203.2 222.2,205.8 221.1,207.1C217.3,212.1 212.9,219.9 210.5,226.5C207.6,234.2 207,234.3 217.8,225.3C222.7,221.1 224.8,220 227.5,220C230.7,220 231,220.2 231,223.1C231,226.3 229.2,228.9 205.6,258.5C189.8,278.3 173.3,300.6 170.9,305.3C169.2,308.5 168.5,309 165.5,309C162.3,309 162,308.7 162,306.1Z" style="fill:rgb(45,95,47);fill-rule:nonzero;"/>
            <path d="M550.3,306.7C548.9,303.7 529.3,277.7 517.2,262.8C496.5,237.3 489,226.8 489,223.3C489,220.2 489.2,220 492.3,220C494.8,220 497.2,221.4 503.3,226.5C507.6,230.1 511.3,233 511.5,233C512.9,233 506.2,218.5 502,212.3C498.4,207 497,204 497,201.5C497,198.2 497.2,198 500.4,198C503.4,198 504.7,199 511.8,207C522.8,219.1 531,231.7 539.1,248.5C548.7,268.5 558,296.2 558,304.9C558,308.9 557.9,309 554.7,309C552.2,309 551.1,308.4 550.3,306.7Z" style="fill:rgb(45,95,47);fill-rule:nonzero;"/>
            <path d="M354.3,693.7C352.1,691.3 347.9,684.7 345,679.1C339.6,668.6 335.7,664.3 334,667.1C333,668.6 332.7,668.4 326.8,660L323.6,655.5L322.7,659.5C322.2,661.7 322.1,665.4 322.3,667.8C322.6,670.1 322.6,672 322.5,672C321.4,672 315.8,660.2 313.7,653.4C310.7,644.1 308,630.4 308,625.2L308,621.5L305.3,625.5C303.8,627.7 301.8,631.7 300.9,634.4L299.2,639.3L297.5,636.6C295.1,633 284,624.6 284,626.4C284,629.2 288,650.7 289.9,657.8C290.9,661.7 291.6,665 291.4,665C290.7,665 286.8,656.7 283.5,648C279.6,637.8 274.6,618.3 272.5,605.5C271,596.3 270.5,575.6 271.7,568.7C272.3,565 272.4,565.2 275.5,575.2C277.2,580.8 279.9,588.4 281.4,592C283.8,598 291.6,612 292.5,612C292.6,612 292.6,606.7 292.3,600.3C291.7,587.1 293,573.9 296.2,560.5L298.4,551.5L299.3,557C302.1,574.5 307.6,589.9 315.6,602.6C320.7,610.7 321,611.6 320.4,615.7C319.1,624.2 324,633.3 331.9,637.5L334.7,638.9L334.2,632.2C333.7,624.2 335.6,615.6 339.9,607.3L342.9,601.5L343,608.5C343.1,620.3 347,631.3 353,636.4C363.9,645.6 376.8,630.7 377.1,608.5C377.2,604.9 377.4,602 377.7,602C377.9,602 379.5,605 381.2,608.7C385,617.1 387,626.9 386.3,633.1C386,635.8 386,638 386.4,638C388.5,638 395.5,632 397.7,628.3C400,624.4 400.2,623.1 399.7,617.4C399.2,611.2 399.4,610.6 402.8,605.7C410.9,593.7 418,574.6 420.3,558.6L421.6,549.7L423.8,559.2C426.9,572.7 428.3,587.5 427.8,600.8C427.3,613.9 427.2,614 434.7,599.6C437.3,594.6 441.3,585 443.6,578.2L447.7,566L448.4,571.2C451.2,595.3 444.9,631.5 433.2,657.1C431.5,660.8 429.7,664.1 429.1,664.4C427.7,665.3 427.7,665.7 430,657.7C431.6,651.7 434.5,638.2 436.4,627.2L437,623.9L432.9,627.2C430.6,629 426.8,632.2 424.4,634.4C420.4,637.9 420,638 420,636.1C420,633.6 415.8,624.9 413.7,623.2C412.5,622.2 412.2,623.1 411.7,629.2C410.8,638.9 406.6,654.9 402.8,663.3C398.2,673.4 397.2,673.5 397.8,664C398.3,655.5 397.5,654.2 394.8,658.8C391.5,664.2 387.5,668.1 386.4,667C384.6,665.2 379.3,670.5 375.8,677.3C369.8,689.4 363.1,698 359.9,698C359,698 356.5,696 354.3,693.7Z" style="fill:white;fill-rule:nonzero;"/>
            <path d="M430.7,514.3C429.9,490.5 428.2,477.3 424.4,466.2C420.6,455.2 420.2,454.8 420.8,462.8C421.5,473.6 418,489.1 412.1,501C409,507.3 402,518.4 401.6,517.9C401.4,517.7 402.3,513.4 403.5,508.4C409.9,483.4 408.6,463 399.8,449L397.6,445.5L396.4,452.8C394.7,462.5 392.5,469.4 389.1,476L386.2,481.5L385.7,478C385.4,476.1 384.8,470.6 384.2,465.9C383.4,458.2 379.9,448 378,448C377.7,448 377.6,449.6 377.8,451.6C378.1,453.6 377.4,457.9 376.4,461.2L374.6,467.3L373.3,461.6C372.6,458.5 371.4,454.8 370.7,453.3C369.3,450.8 369.2,450.8 366.3,459.1C364.6,463.7 362.7,470.5 362,474.3C360.9,480.5 359,483.5 359,479.1C359,476.3 354.4,459.1 352.5,454.5L350.8,450.6L349.2,454C348.4,455.9 347.4,459.8 347,462.5L346.4,467.5L344.5,463.5C343.4,461.1 342.7,457.2 342.8,453.8C342.8,450.6 342.6,448 342.4,448C341.6,448 337.2,457.6 336.5,461C336,462.9 335.4,468.6 335.1,473.5L334.5,482.5L331.8,477.9C328,471.7 325.2,463.1 323.7,453.5L322.4,445.5L319.5,450.4C314.9,458.2 313,467 312.9,479.7C312.9,490.8 315.2,505.5 318.5,515.1L320,519.5L317,516C312.9,511.3 305.7,497 303.2,489C300.6,480.3 298.6,465.8 299.4,460.7C299.9,457.5 299.7,456.9 298.9,458.3C293.5,467.3 289.1,496.4 289,523.5C289,529.7 288.6,533.8 288.1,533C287.3,531.4 286.5,526 282.5,492C281.2,480.7 279.5,467.5 278.9,462.5L277.6,453.5L275.3,463C273.9,468.2 271.8,478.5 270.5,486C267.7,502.3 267.4,498.9 269.1,470C270.2,452.9 270.1,449.5 268.7,442.6C265.1,424.9 255.4,411.7 239.7,403.1C235.4,400.7 231.7,399 231.5,399.2C231.3,399.4 232.4,402.2 234,405.5C238.5,415.2 239.5,421 239.4,437.5C239.3,451.6 237.6,467 236.2,467C235.8,467 235.7,460.3 235.8,452.1C236.1,439.7 235.8,435.8 234.2,429.3C230.1,413 224.7,405.6 210.2,396C203,391.2 200.6,389 202.6,389C203,389 206.4,390.8 210.1,392.9C213.9,395.1 217,396.7 217,396.4C217,396.1 215.5,394 213.6,391.7C209.7,386.9 202.8,374.4 200.6,368.2L199.1,364L202.3,366.3C205.9,369 216.8,373.5 217.6,372.7C217.9,372.4 217.3,368.9 216.2,364.8C215.1,360.8 214.3,357.4 214.4,357.3C214.5,357.2 218,360.2 222,364C226.1,367.8 229.8,370.9 230.2,371C230.5,371 230,368.9 229,366.3C227.3,361.7 225.7,355 226.3,355C226.5,355 230,358.3 234.1,362.3C239.9,367.9 252.5,378 256,379.8C256.3,379.9 257.6,378 258.9,375.5C260.8,371.8 266.6,366 268.3,366C268.5,366 267.5,368.3 266.1,371.2C263.9,375.7 263.5,377.8 263.3,388.9L263,401.5L264.8,397C269.2,385.5 271.3,383.5 288.2,375C295,371.6 303.1,366.8 306.3,364.3C309.4,361.9 312,360.3 312,360.8C312,361.3 310.6,363.6 308.9,365.9C306.2,369.8 306.1,370 308.2,368.9C312.3,366.7 321.5,357.2 326.1,350.5C329.7,345 332.3,342.7 340.5,337.2C346,333.6 352.7,328.3 355.3,325.5L360.2,320.4L365.8,326.2C369,329.4 375.3,334.6 380,337.8C386.1,341.9 389.8,345.3 393.3,350C400.4,359.5 412.2,371.1 413.5,369.8C413.8,369.6 412.8,367.7 411.4,365.6C410,363.5 409,361.7 409.2,361.5C409.4,361.3 411.5,362.7 413.9,364.5C416.3,366.4 424.1,370.9 431.1,374.5C438.2,378.1 445.6,382.4 447.4,384.1C450.9,387.1 454.6,393.7 456.1,399.4C456.6,401.2 456.8,397.1 456.5,389C456.1,377.3 455.7,374.9 453.6,370.6C452.2,367.8 451.2,365.4 451.4,365.3C452.2,364.5 460.9,373.3 462,376C462.7,377.6 463.4,379 463.7,379C464.7,379 478.6,369.6 482.7,366.2C485.1,364.2 488.7,360.5 490.7,358L494.3,353.5L493.6,358.9C493.2,361.9 492,366.1 490.8,368.4L488.8,372.5L491.6,370C493.2,368.7 496.9,365.3 499.7,362.6C502.6,359.9 505.2,357.9 505.5,358.2C505.8,358.4 505.4,360.4 504.7,362.6C502.7,368.3 501.9,373 503,373C505.4,373 515.3,368.6 518,366.3C519.7,365 521,364.2 521,364.7C521,366.9 509.7,388 506.5,391.7C502.3,396.6 502,397.8 505.8,395.2C509.9,392.3 519,387.9 519,388.8C519,389.2 515.5,391.9 511.3,394.8C500.1,402.3 496.5,405.7 492.5,412.5C485.8,423.8 482.4,442.1 483.9,458.5C484.3,462.9 484.5,466.7 484.3,466.9C482.6,469 480.6,453 480.6,437C480.6,421.2 481.9,414 486.5,404.9C488,402.1 488.9,399.6 488.6,399.3C488.4,399 484.9,400.5 480.8,402.7C466.1,410.4 456.4,423.3 451.8,441.4C449.8,449.5 449.7,451.1 450.6,472.9C451.5,495 451,501.8 449.6,488.8C448.7,481.1 444.5,460.7 442.6,455.4L441.3,451.5L440.7,460C439.7,474.8 432.4,533.8 431.6,534.8C431.4,534.9 431,525.7 430.7,514.3ZM344.6,409.7C344.7,406.8 345.3,403.4 345.9,402.1C347.1,399.9 347.2,399.9 350.1,404.4C351.7,406.9 353.1,409 353.2,409C353.4,409 353.5,407.1 353.5,404.7C353.5,400.3 357.5,391 359.7,390.3C361.6,389.6 366.2,398.6 366.9,404.3L367.5,409.5L370.7,404.7L373.8,399.9L375,403.5C375.7,405.5 376,408.9 375.8,411.1C375.6,413.2 375.7,415 376.1,415C377.4,415 391,397.2 391,395.5C391,395.2 388.7,392.2 385.9,388.8C383.2,385.3 378.8,379.2 376.3,375.3L371.8,368L367.2,371.2C361.4,375.2 358.3,375.2 353.2,371.2C351,369.4 349,368 348.7,368C348.5,368 346.5,370.9 344.4,374.6C342.3,378.2 337.9,384.3 334.7,388.1L328.8,395.2L330.6,398.6C332.7,402.6 342.8,415 343.9,415C344.2,415 344.6,412.6 344.6,409.7Z" style="fill:white;fill-rule:nonzero;"/>
            <path d="M49.1,514.4C49,512.3 60.5,490.5 65.7,483C68.6,478.9 75.8,469.9 81.7,463.1C106.7,434.3 113.3,425.5 120.4,411.4C123.8,404.6 132.3,381.9 131.6,381.3C131.5,381.1 129,385 126.1,389.9C123.1,394.8 117.1,403.7 112.7,409.7C104.5,420.6 83.6,442.6 79.1,445L76.7,446.2L77.4,440.9C77.8,437.8 77.7,435.9 77.3,436.5C76.8,437.1 74.7,439.6 72.6,442.2C70.6,444.9 66.8,448.4 64.2,450.2C61.6,451.9 54.8,457.9 49,463.4C37,474.9 27.1,483.5 26.6,482.9C26.4,482.7 30.4,476.9 35.6,470.1C40.8,463.3 49.1,451.2 54.1,443.1C59.1,435.1 64.5,426.8 66.2,424.8C69.6,420.4 69.3,420.1 64.2,423.4C60,426.2 46.4,431 42.8,431C41.1,431 42.3,430 46.9,427.4C75.1,411.7 98.2,390 115.5,363.1C119.9,356.2 131.7,334.3 128.8,338.3C114.5,358.4 104.3,369.4 92.5,377.2C85.6,381.8 63.1,394 61.5,394C61.1,394 65.2,389.4 70.6,383.7C91.9,361.7 108.9,334.6 121.1,303.6C124,296.4 131.4,275.2 137.7,256.5C151.9,214.2 160.8,191.8 172.7,168C198.9,115.3 225,87.3 276.7,56.2C298.6,43 328.9,29.3 346,25C358.4,21.8 366.7,22.5 384.5,28.4C401.2,33.9 427.3,46.5 446,57.9C495.7,88.4 521.7,116.4 546.8,166.6C558.7,190.3 568.3,215.1 584,262C589.6,278.8 596.4,298.1 599.2,305C611.1,335.2 629.8,364.6 650.1,384.9C655,389.9 658.9,394 658.7,394C657.7,394 630.9,379.4 626.6,376.5C615.2,368.9 602.7,355.5 591.5,339C585.5,330.2 588.2,335.8 597.6,351.6C608.5,370.1 618.9,383.9 631,396C641.5,406.5 658.9,419.4 672,426.4C677.3,429.2 679.7,431 678.3,431C674.6,431 660.5,426.2 656.6,423.5C654.6,422.2 653,421.3 653,421.5C653,421.8 655,425.1 657.4,428.8C659.8,432.5 664.3,439.9 667.4,445.2C670.6,450.6 677.8,461.2 683.5,468.7C689.1,476.3 693.6,482.7 693.4,482.9C692.9,483.5 679.6,472.7 668.9,462.8C660.8,455.4 658.5,453.8 654.7,453.1C642.1,450.8 618.7,427.7 599.9,399C587.6,380.2 587.7,380.3 591.5,391.8C600.6,419.2 612.8,436.6 648.9,473.3C659.6,484.1 668,493 667.6,493C667.2,493 664.3,491.3 661.2,489.1C658.1,487 649.6,481.4 642.3,476.6C608.3,454.3 594.1,434.4 559.6,360.3C541.3,321.1 527.4,297.7 507.4,272.5C495,257 463,225.4 449,214.8C425.7,197.4 403.1,184.7 383,177.9C374.2,174.9 372.5,174.6 360.5,174.6C348.4,174.6 346.8,174.8 338,177.9C314.1,186.1 283.8,203.7 261,222.8C228.3,250.3 202.4,281.5 179.5,321.4C175,329.3 162.9,354 154.5,372.5C137.6,409.5 127.4,427.8 115.1,443C112.2,446.6 99.8,459.4 87.6,471.5C75.4,483.6 62.7,497.1 59.5,501.6C49.6,515 49.1,515.5 49.1,514.4ZM167.9,302.3C170.3,297.6 186.8,275.3 202.6,255.5C219.6,234.1 228.2,223 227.6,223C227.4,223 222.5,226.8 216.9,231.5C211.2,236.2 206,240 205.3,240C201.3,240 207.1,220.7 214.6,209.4C217.1,205.6 219.4,202.1 219.6,201.5C219.9,201 216.5,204.3 211.9,209C193.1,228.6 175.3,263.1 168.1,294.2C167,298.8 165.8,303.3 165.5,304.3C164.2,307.5 165.9,306 167.9,302.3ZM553,296.9C546.5,272.8 534.4,245 523.1,228.2C517.1,219.2 501.2,200.5 500.3,201.4C500.1,201.6 502.2,205.2 505.1,209.4C512.7,220.7 518.8,240 514.7,240C514,240 509.7,237 505.1,233.3C492.4,223 491.5,222.4 492.5,224C494.7,227.5 506,242.3 514,252C526.2,266.8 545.9,292.5 550.5,299.7C552.7,303 554.7,305.6 554.9,305.4C555.1,305.2 554.2,301.4 553,296.9Z" style="fill:white;fill-rule:nonzero;"/>
            <path d="M271.4,333.2C263.9,330.6 258.8,326 253,316.7C246.8,307 242.2,302 235.8,297.8C233.1,296.2 231,294.7 231,294.5C231,294.4 233.6,294.8 236.8,295.5C239.9,296.2 247.7,297.8 254,298.9C268.1,301.5 276.5,305.4 293.1,317.2C299.5,321.8 305.6,326 306.6,326.6C308.2,327.5 307.2,328.2 300,331C289.2,335.1 278.9,335.9 271.4,333.2Z" style="fill:white;fill-rule:nonzero;"/>
            <path d="M428.5,333.7C418.5,331.1 408.5,326.1 413.3,326C413.9,326 419.9,322.1 426.5,317.4C444.2,304.8 451.1,301.8 471.4,297.7C484.1,295.2 487.8,294.7 486,295.9C478.2,301 475,304.4 469.4,313.3C462,325.1 459,328.4 452.6,331.7C446.7,334.7 436,335.6 428.5,333.7Z" style="fill:white;fill-rule:nonzero;"/>
            <path d="M328.3,315.9C319.4,314.1 302.8,300.2 295.6,288.7C291.5,282.1 288.5,276 289.4,276C289.6,276 293.2,279.5 297.4,283.8L305,291.5L303.5,287C301.1,280.2 300.1,275 301.1,275C301.6,275 302,275.4 302,275.9C302,278 316.2,291.8 321.1,294.4C324.1,296 329.1,300 332.3,303.3C336.9,308.1 338.5,309.1 340.5,308.8C343.7,308.1 343.7,310 340.6,312.9C337.7,315.6 332.7,316.9 328.3,315.9Z" style="fill:white;fill-rule:nonzero;"/>
            <path d="M384.6,316C381.4,315 377,311.3 377,309.5C377,308.7 378,308.5 379.6,308.8C381.7,309.2 383.2,308.2 388.3,302.8C391.7,299.3 396.6,295.4 399.1,294.2C403.5,292.1 409.4,286.5 416.8,277.5L420.1,273.5L419.4,278C419.1,280.5 418.2,284 417.4,285.9C416.6,287.7 416,289.5 416,289.8C416,290.2 419.2,287.3 423,283.5C426.9,279.7 430,276.9 430,277.4C430,279.2 422.3,291.7 417.9,297C413,302.9 403.2,310.8 397,314C392.3,316.4 388.1,317 384.6,316Z" style="fill:white;fill-rule:nonzero;"/>
        </g>
    </g>
</svg>
