<?xml version="1.0" encoding="UTF-8" standalone="no"?>
<!DOCTYPE svg PUBLIC "-//W3C//DTD SVG 1.1//EN" "http://www.w3.org/Graphics/SVG/1.1/DTD/svg11.dtd">
<svg width="100%" height="100%" viewBox="0 0 649 677" version="1.1" xmlns="http://www.w3.org/2000/svg" xmlns:xlink="http://www.w3.org/1999/xlink" xml:space="preserve" xmlns:serif="http://www.serif.com/" style="fill-rule:evenodd;clip-rule:evenodd;stroke-linejoin:round;stroke-miterlimit:2;">
    <g transform="matrix(1,0,0,1,-36.875,-39.0463)">
        <g>
            <path d="M336.5,712.1C269.9,698.5 222.5,679.1 169.7,643.9C142.2,625.4 113.2,602.2 93.3,582.7C87.3,576.8 86,574.9 85.4,571.5C84.7,566.6 86.8,560.7 89.9,559C91.1,558.4 92,557.5 92,557C92,556.5 89.3,552 86,546.9C78.6,535.3 66.6,512 60.7,497.5C48.9,468.5 41.1,436.8 38,405.5C36.5,391.4 36.5,358.6 38,344.5C47.7,246.7 100.1,159.2 181.5,105.1C211.2,85.3 243.1,70.9 277.7,61.5C284.4,59.6 288.4,57.9 291.8,55.3C298.1,50.4 311.1,44.4 320.7,42C329.6,39.6 344.5,38.4 351.3,39.4C356.2,40.2 361,43.9 361,47.1C361,50.3 363.9,50.8 378.4,50.3C390.6,49.8 393.7,50 401,51.9C405.7,53 415.4,55.1 422.5,56.5C438.6,59.7 452.7,63.5 469.4,69.4L482.4,73.9L484.8,71.5C486.1,70.1 488.7,68.8 490.5,68.4C498.7,66.9 504.7,71.4 505.7,79.8L506.3,85L515.9,90.1C529,97.1 551.3,111.9 564,122.1C577.7,133.1 597.6,152.5 608.5,165.4L617.1,175.7L625.8,175.2C642.9,174.3 656.8,179.5 668.3,191.2C676.3,199.3 680.1,206.6 682.4,218.2C684.4,228 684.4,232.3 682.4,241.3C680.2,251 677.1,257.6 672.2,263.3C669.9,266 668,268.7 668,269.4C668,270.1 668.9,273.3 670.1,276.6C673.3,285.9 678.8,308.4 680.9,321.5C684.1,340.2 685.1,353.8 685.1,375C685.1,402.9 682.5,425.6 676.4,451C671.3,471.9 661.8,498.6 653.5,514.9C650,521.9 650,522 650,535.2C650,542.5 649.5,550.2 648.9,552.3C647.9,556.1 640.9,564 638.6,564C637.9,564 637.5,566.2 637.5,569.9C637.5,576.9 638,576.2 621.5,591.3C598.9,611.9 568.7,634.9 543,651.2C494.9,681.5 450,699.2 389.9,711.5C364.4,716.7 359.5,716.8 336.5,712.1ZM383,697.5C456,682.7 510.1,658.1 572.2,611.3C595,594.1 621.4,571 619.9,569.6C619.7,569.4 614.1,566.3 607.5,562.7L595.6,556.3L587.9,567.9C570.3,594.8 550,617.2 531.5,630.2C517.4,640.2 487.4,656.4 471.4,662.8C450.4,671.2 442,672.9 442,669C442,667.9 441.8,667 441.5,667C441.2,667 435.5,669.3 428.8,672.1C413.6,678.5 388.3,686.9 372.7,690.6L360.9,693.4L349.9,690.7C333.1,686.4 309.4,678.5 295,672.5C287.9,669.5 281.8,667 281.5,667C281.2,667 281,667.9 281,669C281,672.3 276,671.5 260.6,665.9C240.1,658.4 218.9,647.5 195.5,632.2C175,618.9 155.3,598.1 136.4,569.8C131.7,562.7 127.6,557 127.3,557C125.9,557 103,569.5 103.2,570.1C104.3,572.8 142.8,605.1 160,617.7C207.1,652.1 257.5,676.6 308.9,690.1C327.3,695 355.9,700.8 361.5,700.9C363.7,701 373.4,699.4 383,697.5ZM368.9,604.7C372.4,596.3 378.6,582.9 382.6,574.8C386.6,566.6 389.7,560 389.5,560C389.3,560 383.6,566.3 376.9,574C361,592.2 362.1,592.2 348.2,576.1C342.6,569.6 337.1,563.5 336,562.5C334.9,561.5 338.4,569.7 343.8,581.1C349.3,592.3 355.4,605.7 357.6,610.8C359.7,615.8 361.7,620 362,620C362.3,619.9 365.4,613.1 368.9,604.7ZM456,607.7C495.5,582.6 535.2,549.1 564.4,516C574.3,504.8 587.5,487.8 589.9,483.3C590.8,481.6 592,481 594.5,481C598.7,481 598.7,481.5 596.5,496.4C595.7,501.9 595.2,506.5 595.4,506.7C595.6,507 596.7,503.2 597.9,498.3C604,472.1 603.5,453.1 596.3,439.8C593.6,434.8 583.3,424.1 576.5,419.1C566.9,412.1 549.5,402.9 529.6,394.5C519.9,390.3 519.5,390.3 516.3,391.8C514.5,392.7 513,393.7 513,394C513,394.4 517.4,396.4 522.8,398.5C557,411.9 576.5,424.6 579.8,435.8C581.5,441.2 581.3,454.4 579.5,461.3C577.7,468.4 570.3,483.1 563.7,493C546.4,518.8 509.8,556.3 460,599.3C452,606.2 443.7,613.4 441.5,615.4L437.5,619.1L442,616.4C444.5,614.9 450.8,611 456,607.7ZM284.5,617.1C283.9,616.6 275.6,609.6 266,601.4C222.8,564.8 187.6,530.2 168.9,506C148.9,480.1 141,461.7 142.3,444C143,432.8 146.3,427.4 157.4,419.6C165,414.1 184,404.6 198.7,398.9C204.9,396.5 210,394.2 210,393.9C210,393.6 208.4,392.6 206.5,391.7L203,390L190.2,395.6C164.2,406.9 146.5,417.4 135.9,428C128.8,435 125.2,441 122.4,450.5C119.4,461 122,492.5 126.9,504C128.1,506.8 128.1,506.5 126,493C125.5,489.4 125,485 125,483.3C125,480.2 125.2,480 128.4,480C131.4,480 132.1,480.6 135.5,486.1C139.4,492.4 150.9,507.3 159.5,517C189.2,550.9 231.9,586.1 275,612.2C284.2,617.8 286.4,618.9 284.5,617.1ZM422.5,594.5C436,576.7 457.3,553.3 496,513.5C521.4,487.4 535.8,470.2 540.6,460.4L543.2,455L540.6,449.6C537.4,443.1 533.8,440.2 521.6,434.4C511.9,429.8 506.1,428.3 514.1,432.5C519.3,435.2 524.6,440.8 526.6,445.6C527.4,447.5 528,452.4 528,456.6C528,463.2 527.6,465 524.8,470.1C518.5,482 503.4,498.2 473.5,525.4C445.4,550.9 436.2,561.1 428.6,575C424.3,582.9 413.5,605.9 414.8,604.5C415.2,604 418.7,599.5 422.5,594.5ZM307.3,600.3C304.1,592.5 294.8,574.7 290.4,567.9C284.6,558.8 273.2,547 249,525C218.7,497.5 202.7,479.9 197.4,468.5C194.3,461.9 194,449.8 196.9,444.1C199.4,439.3 205,434.4 211.4,431.4C219.1,427.8 215.1,428.5 205.2,432.5C189.8,438.8 181,446.4 180.8,453.8C180.7,457.8 186.3,467.6 194.4,477.5C202.4,487.3 213.1,498.9 251,538.6C278.2,567.1 295.1,586.1 304.6,598.9C306.7,601.7 308.5,604 308.7,604C308.8,604 308.2,602.3 307.3,600.3ZM633.6,547.9C635.4,545.9 635.5,542.4 635.8,437.6C636,378.2 635.8,328 635.5,326.3C634.9,323.1 634.8,323 630,323L625,323L625,545.4L627.2,547.7C629.9,550.5 631.2,550.6 633.6,547.9ZM370.6,516C381.1,515.1 389.3,513 395.6,509.7C399.7,507.5 452.2,454.2 456.2,448.2C457.5,446.3 458,443.6 457.9,439C457.9,432.8 457.8,432.6 456.3,434.8C455.2,436.3 453.7,437 451.4,437C448.4,437 448.1,436.7 447.8,433.8C447.5,430.8 447.3,431 444.9,437C442.4,443.2 442.1,443.5 438.6,443.8C434.4,444.2 434.4,444.1 435.9,433.2C436.4,429.5 437.4,422.2 438,417C440.1,399.7 443.8,384 446.5,380.1C447.9,378.1 453.1,372.2 458,367L467,357.5L471,345.1L474.9,332.7L471.2,328.6C469.1,326.3 465.9,322.4 464.1,319.8C462.2,317.1 460.2,315 459.6,315C459,315 456.7,316.2 454.5,317.5C452.1,319 449,320 446.6,320C444.3,320 440.2,321.3 436.5,323.1C430.5,326 429.6,326.2 420.8,325.8C413.6,325.6 410.5,325 407.3,323.3C401.4,320.2 400.2,320.9 400.8,327L401.3,332L398.1,332C396.4,332 393.3,331 391.2,329.7C389.2,328.4 384.2,325.6 380.3,323.5L373,319.6L373,315C373,309.2 375.7,296.1 377.5,293.4C378.3,292.2 380.5,289.7 382.6,287.8C386.1,284.4 386.9,284.2 407.1,280.5C418.6,278.4 427.7,276.4 427.3,276C426.9,275.6 422.7,274.1 418,272.7C413.3,271.3 402.9,267.4 394.8,264.2C380.3,258.4 376.2,257.4 385.9,262C390.5,264.1 391,264.7 391,267.6C391,270.7 390.8,270.9 386.4,271.6C375.3,273.2 357,269.2 346.6,262.8C333.4,254.7 325.8,245.5 315.9,225.5C308,209.7 303.8,204.6 297,202.6C289.3,200.3 278.6,204.5 270.8,212.7C261.2,223 259.6,230.2 260.4,257C260.8,267.7 261.3,277.7 261.6,279.2L262.2,282L265.3,279.6C274,273.1 278.8,272.7 296.1,276.6C302.4,278 314,280.2 322,281.6L336.5,284L341.7,289.3C346.8,294.4 346.9,294.7 349.1,305.5C350.4,311.6 351.1,317.3 350.8,318.1C350.4,319 346.4,321.6 341.8,324C337.3,326.3 332.3,329.1 330.8,330.1C329.4,331.1 326.7,332 325,332L321.7,332L322.2,327.5C322.9,321.3 321.6,320.5 315.4,323.6C311,325.9 309.6,326.1 300.5,325.8C291.5,325.5 290,325.2 285.5,322.6C282,320.5 279.4,319.7 276.9,319.9C274.4,320.1 271.3,319.2 267.3,317.2L261.5,314.2L254.8,323.1L248.2,331.9L256,356.5L266.6,368C272.4,374.3 277.7,380.6 278.5,382C281,386.8 288,429.3 288,439.9C288,442.7 287.7,443 284.8,443C281.7,443 281.3,442.6 278.4,436.2L275.3,429.5L275.8,434.3L276.3,439L272.6,439C270.6,439 269,438.7 269,438.3C269,437.8 268.1,436.4 267,435L265,432.5L265,445.9L271,452.9C279.6,462.9 316.4,500.4 323.2,506C329.8,511.6 338.1,514.7 349.6,515.9C353.9,516.4 358,516.8 358.5,516.9C359.1,516.9 364.5,516.5 370.6,516ZM530.6,356.2C550.3,332.7 570.7,304.3 577.4,291.1C578.7,288.7 575,291.6 563.2,302.3C545.6,318.5 541.5,323.3 534.6,336.5C526.1,352.5 524.9,354 521.1,354C517.8,354 517.8,354 518.1,349.6C518.4,346.1 518.2,345.4 517.3,346.2C516.6,346.8 516,348.6 516,350.2C516,351.9 515.3,354.4 514.4,355.9C512.9,358.4 513,358.9 515.4,364.4C516.9,367.8 518.4,369.9 519,369.5C519.6,369.1 524.8,363.1 530.6,356.2ZM207.9,364.1C210.4,358.2 210.4,357.6 208.5,356C207.7,355.3 207,353.1 207,351C207,348.9 206.4,346.8 205.7,346.2C204.8,345.4 204.6,346.1 204.9,349.6L205.2,354L201.7,354C197.9,354 197.5,353.4 184.5,329.5C180.6,322.2 170.4,311.4 153,296L144.6,288.5L147.9,294.5C153.2,304 163.8,319.3 175.7,334.7C187.9,350.6 203.6,369 204.9,369C205.4,369 206.7,366.8 207.9,364.1ZM207.6,310.4C207.3,309.5 207,307.3 207,305.5C207,302.4 206.4,301.8 199.8,297.7C184,288 145.9,268.9 142.4,269C141.9,269 145.3,271.2 150,273.8C163.9,281.6 184.2,294.9 195.7,303.6C206.8,312.1 208.6,313.1 207.6,310.4ZM555.6,284.8C564.9,279 574.5,273.1 577,271.7C579.5,270.2 581.2,269 580.9,269C577.9,269 536,289.7 523,297.7L516.5,301.7L516.2,306.8L515.9,312L527.3,303.7C533.6,299.1 546.3,290.6 555.6,284.8ZM491.9,303.4C490.9,300.3 489.1,293 487.9,287C485.9,277.3 485.5,276.3 483.7,276.8C482,277.2 481.9,277.9 482.4,282.2C483.4,289.8 486.7,299.2 490.1,304.3C491.8,306.9 493.3,309 493.5,309C493.6,309 492.9,306.5 491.9,303.4ZM643,308C643,307.4 637.8,307 629.5,307C621.2,307 616,307.4 616,308C616,308.6 621.2,309 629.5,309C637.8,309 643,308.6 643,308ZM234.5,298.6C239.8,286.5 240.1,274.6 235.5,251.8C230.2,225.1 232.9,205.5 243.1,196.4C248.4,191.7 251.3,190.6 259.3,190L267.3,189.5L263.3,184.5C244.2,160.5 231.4,153.3 215,157.5C195.2,162.5 178.7,177 171.9,195.1C170.8,198.1 170.2,200.1 170.7,199.5C171.2,199 173.2,196.4 175.2,193.9C181,186.6 192.2,178 195.9,178C198.7,178 199,178.3 199,181C199,182.7 198,185.7 196.7,187.8C190.9,197 187,210.3 186.4,222.5L185.9,232.5L188.1,228.5C189.3,226.3 191.9,222.6 193.8,220.3C196.7,216.7 197.8,216 200.7,216L204.3,216L203.7,220.8C203.3,223.4 202.8,227.8 202.5,230.5L202,235.5L203.8,229.4C206.4,220.8 210.2,213.5 215.6,206.8C219.5,201.8 220.6,201 223.6,201C226.7,201 227,201.3 227,203.9C227,205.5 225.7,209.7 224,213.2C217.7,226.6 217.6,239.8 223.5,259.5C230.6,282.7 231.2,285.3 231.3,294.8C231.4,299.8 231.6,304 231.8,304C232,304 233.2,301.6 234.5,298.6ZM647.8,292.4C649.3,292 650,291 650,289.4L650,287L609,287L609,289.3C609,290.6 609.3,292 609.7,292.3C610.5,293.2 644.7,293.2 647.8,292.4ZM640,270.6C640,268.7 641.2,267.5 645.6,265C656.6,258.8 663,251.2 667,239.5C669.5,232.1 669.5,226.9 667,218.7C663.3,206.7 653.6,196.7 641,191.9C620.5,184.1 596,199.7 590.9,223.8C588,237.7 597.5,255.1 613.3,264.6C617.7,267.4 619,268.7 619,270.6C619,273 619.1,273 629.5,273C639.9,273 640,273 640,270.6ZM589,267C589,265.7 587.9,265.7 586,267C584.8,267.8 584.9,268 586.8,268C588,268 589,267.6 589,267ZM538.4,258.8C530.1,250.1 529,247.8 523.5,226.5C521.6,219.4 519.2,210.8 518,207.6C516.9,204.3 516,200.4 516,198.8C516,196.3 516.3,196 519.4,196C522.2,196 524,197.2 529.9,202.8C533.8,206.5 537,209.3 537,209.1C537,207.4 528.3,191.5 525,187.2C522.1,183.4 521,181 521,178.5C521,175.3 521.2,175 524,175C525.6,175 529.5,176.1 532.5,177.5L538.1,179.9L537.4,177.7C536.5,174.8 531.5,167.3 527.6,163.2C519.8,154.8 510.6,149.7 487.8,141.4C479.4,138.3 468.6,133.8 463.8,131.3C455.5,127 455,126.6 455,123.5C455,120.3 455,120.3 461.7,119.2C478.8,116.4 492,104.4 492,91.6L492,88.8L488.6,91.7C473.7,104.9 446.1,104.2 397.5,89.5C391.5,87.7 383,85.6 378.8,85L371,83.7L371,80.4C371,77.2 371.2,77 377.8,74.9C382.3,73.5 388.6,72.6 397,72.2L409.5,71.5L402.9,68.8C393,64.8 384.5,63.5 376.3,64.9C365.4,66.8 356.9,69.8 346.4,75.6C330.8,84.2 323.9,87.3 318.8,87.8L314,88.3L314.1,84.9C314.1,82 315.1,80.7 320.9,75.9C328.7,69.3 341.6,55.2 340.6,54.3C339.4,53.1 326,55.9 318.4,59C308.3,63 298.9,69.2 293.3,75.5L288.5,80.8L278,81.2C266.3,81.8 258.2,84.2 248.4,90.1C235.3,97.9 225.3,111.9 224.3,123.6C224,126.9 224.2,130.5 224.7,131.8C225.5,134 225.8,133.9 228.9,128.9C230.8,126.1 235.5,120.3 239.4,116C245.4,109.4 247,108.2 249.8,108.1C252.7,108 253,108.3 253,111.1C253,112.7 252.3,116.4 251.4,119.1C249.4,125 249.9,133.3 252.5,139.8L254.3,144.1L256.5,138.7C259.8,130.6 262.4,126.8 269.3,120.3C280.4,110 292.7,105 307.2,105L315,105L315,108.4C315,111.2 314.6,111.9 312.4,112.4C308.2,113.5 299.9,119.3 294.4,125.1C289.5,130.3 284,137.7 284,139.2C284,139.5 285.9,138.8 288.3,137.5C299.2,131.4 319.7,130 333.7,134.5C346.5,138.6 360,150.5 360,157.7C360,160.7 359.7,161 357,161C355.3,161 351.6,159.7 348.7,158C328.7,146.8 304.7,150.4 293.2,166.4L289.9,171L295.2,168.3C302.2,164.8 315.7,163.9 322.5,166.5C328.5,168.7 333.8,175.1 337.4,184.1C344.1,201.1 353.9,216.8 360.7,221.5C362.9,223 362.9,223 360.4,217.6C357.9,212.2 354,194.6 354,189C354,186.3 354.3,186 357.5,186C360.6,186 361.1,186.4 362.9,190.6C369.9,206.4 389.5,229.2 404.8,239.4C432.2,257.6 465,262.1 488.6,250.9C495.2,247.8 503.5,241 504.5,238C505,236.5 506,236 508.4,236C511.5,236 511.9,236.4 514,241.3C518.8,252.5 525.8,259.4 535.6,262.4C543.4,264.8 543.7,264.3 538.4,258.8Z" style="fill:rgb(45,95,47);fill-rule:nonzero;"/>
            <path d="M338.8,474.6C335.4,470.7 334,468.3 334,466.2C334,460.9 336.1,460.3 360,459.8C378.4,459.3 382,459.5 385.3,460.9C388.5,462.3 389,462.9 389,465.8C389,468.3 387.9,470.4 384.3,474.6L379.6,480L343.5,480L338.8,474.6Z" style="fill:rgb(45,95,47);fill-rule:nonzero;"/>
            <path d="M350.1,451C344.2,449.3 343.2,449.3 338.1,450.7C334.5,451.6 330.5,451.9 327,451.6C320.3,450.9 320.4,450.9 315.7,451.6C313.4,452 311.4,451.8 310.5,451C308.6,449.4 308.6,443.7 310.5,440C311.9,437.3 312.5,437 317,437C320.6,437 325.1,435.7 333.1,432.5C345.3,427.6 351.1,426.9 357.8,429.5C361.4,431 362,430.9 366.4,429C373.2,426.1 375.7,426.4 387.8,431.7C395.9,435.2 400.1,436.4 405.1,436.8C412.9,437.3 414.3,438.8 413.8,446.1L413.5,450.5L407,450.7C403.4,450.8 398.3,451.2 395.5,451.5C392.3,451.9 388.5,451.6 384.8,450.6C379.4,449.2 378.5,449.3 372,451.1C363.5,453.4 358.5,453.4 350.1,451Z" style="fill:rgb(45,95,47);fill-rule:nonzero;"/>
            <path d="M342.2,416.8L328.9,405.5L329.5,399.1C329.8,395.6 330.6,390.5 331.1,387.8C332.1,383.3 332.4,383 335.2,383C336.9,383 338.8,383.6 339.4,384.3C340,385.1 345.3,387.6 351.2,390L361.8,394.3L372.9,389.9C381,386.7 384,385 384,383.8C384,382.4 384.8,382 387.5,382C390.3,382 391.1,382.4 391.5,384.3C393.5,393.3 394,396.1 394,400.5L394,405.5L383.9,414C366.8,428.3 367.3,428 361.1,428L355.5,428L342.2,416.8Z" style="fill:rgb(45,95,47);fill-rule:nonzero;"/>
            <path d="M617.9,261.5C611.6,259.5 603.8,252.2 600.3,245.2C597.8,240.2 597.5,238.4 597.5,230C597.5,221.9 597.9,219.7 600.1,215C604.8,205 613.9,198.4 624.5,197.3L630,196.7L630,200.3C630,202.9 629.4,204.2 628,205C626.9,205.6 625.1,207.9 623.9,210.2C622.1,213.8 621.9,214.9 622.9,218.1C624.2,222.5 630.2,228.6 634.7,230.1C641.2,232.2 651,225.1 651,218.3C651,216.3 651.5,216 654.9,216C658.6,216 658.9,216.3 660.2,219.8C662.2,225.6 661.8,239.6 659.3,245.1C654.2,256.4 644.9,262.2 631.1,262.7C625.5,262.9 620.9,262.5 617.9,261.5Z" style="fill:rgb(45,95,47);fill-rule:nonzero;"/>
            <path d="M441.5,244.6C425.6,241.5 410.2,233.4 398.2,221.7C388.9,212.7 385,207 385,202.6C385,199.2 385.2,199 388.3,199C390.7,199 392.4,199.8 394.6,202.1C402,210 424.1,222 438.5,226C454.1,230.4 471.6,228.4 481.8,221C484.3,219.3 487.2,218 489,218C491.8,218 492,218.2 492,221.8C492,229.8 481.8,240.2 470.5,243.6C463.4,245.7 449.8,246.2 441.5,244.6Z" style="fill:rgb(45,95,47);fill-rule:nonzero;"/>
            <path d="M439.4,202.6C420.7,198.3 403.6,187.2 389.8,170.1C384.5,163.4 383,160.9 383,158.3C383,155.3 383.3,155 386.1,155C388.2,155 390.7,156.2 393.9,158.8C411.2,173.1 436.2,183.2 454,183.2C469.1,183.2 481.3,178.6 490.8,169.4C494.9,165.5 497.2,164 499.2,164C501.7,164 502,164.3 502,167.4C502,172.8 498.3,183.1 494.5,188.3C490.5,193.6 483.1,198.7 475.5,201.5C468.8,203.9 447.9,204.5 439.4,202.6Z" style="fill:rgb(45,95,47);fill-rule:nonzero;"/>
            <path d="M358,704.3C310.6,695.6 281.4,687.4 250.1,674C209.7,656.8 175.5,635.8 135,603.6C121.7,593 96,570.3 96,569.1C96,568 129.5,550.9 129.8,551.9C130.6,554.2 148.5,580.3 154.6,588C158.4,592.7 166.8,602 173.5,608.6C183,618.3 188.2,622.6 198.5,629.2C221.3,644.1 243.3,655.5 262,662.3C268.9,664.8 275.4,667.2 276.5,667.6C277.6,668 272.4,664.2 265,659.2C241.7,643.4 242,642.7 266.6,654.9C297,670 318.1,678.2 348.7,686.5L360.9,689.9L375.7,686C402.8,678.9 424.3,670.7 456.9,654.9C467,650 475.6,646.3 475.9,646.6C476.2,646.9 475.8,647.5 475,648C474.2,648.5 469.7,651.6 465,654.9C460.3,658.3 453.8,662.5 450.5,664.5C447.2,666.4 444.8,668 445.1,668C446.1,668 460,663.1 468.4,659.8C484.4,653.4 514.4,637.2 528.5,627.2C547.1,614.1 567.3,591.8 585.1,564.6C589.4,558.1 593.1,552.3 593.3,551.7C593.5,550.9 624.5,566.5 626.9,568.7C628.6,570.1 598.5,596.7 575.2,614.3C513.1,661.1 458.1,686.1 386,700.4C366.2,704.3 361.5,705 358,704.3Z" style="fill:white;fill-rule:nonzero;"/>
            <path d="M408,638.3C408.1,637.8 410.2,635.9 412.8,633.9C417.2,630.5 432.6,617.4 460,593.7C483.6,573.3 514,544.6 528.2,529.3C551.2,504.5 561.6,490.7 570.4,473.2C580.2,453.8 580.6,440.5 571.8,430.5C564.1,421.8 545.4,411.5 515.8,399.9C503.2,395 499.7,393 503.4,393C504.2,393 508.1,391.4 512.2,389.5L519.6,386L530.1,390.4C550.9,399.2 569.7,408.9 579.5,416.1C585.9,420.8 596,431.1 598.7,435.8C604.4,445.5 606.5,459 604.9,475.9C603.1,496.2 597.9,515.8 590.8,529.8C586.4,538.4 575,556 573.9,556C573.5,556 574.9,552.1 577.2,547.4C585.1,530.5 591.6,507.4 594.5,486.5C594.9,483.8 594.8,483.7 593.7,485.4C593,486.4 588.9,492 584.6,497.9C548.4,546.5 485.3,598.9 424.8,630.5C415.9,635.2 408.4,639 408.3,639C408.1,639 408,638.7 408,638.3Z" style="fill:white;fill-rule:nonzero;"/>
            <path d="M298,629.6C277.7,618.9 270.3,614.5 254,603.7C216.1,578.4 182.2,549.3 156.5,520C147.9,510.3 136.4,495.4 132.5,489.1C130.4,485.7 128.6,483.1 128.4,483.3C127.7,483.9 131.2,503.9 133.2,511C136.3,522.2 141.8,537.6 145.6,545.9C147.5,550 148.8,553.6 148.5,553.9C147.8,554.5 148.1,554.9 140.6,543.5C133.7,533 129.6,524.3 125.2,511C120.1,495.8 118.9,488.6 118.3,470.5C117.7,451.8 118.5,446.9 123.7,436.5C130.9,422.5 153.8,406.8 189.8,391.5L203.2,385.8L211,389.4C215.4,391.4 219.4,393 220,393C220.5,393 221,393.4 221,393.9C221,394.4 218,395.8 214.3,397.1C196,403.1 169.2,416 159.2,423.5C146.6,432.9 143.2,441.7 146.4,456.4C153.7,488.9 192.4,533.2 275.4,604C308.5,632.2 308.1,632 311.4,634.5C317.4,639.2 313.2,637.7 298,629.6Z" style="fill:white;fill-rule:nonzero;"/>
            <path d="M318.5,624.8C304,602.9 283.8,579.2 247,540.6C197.4,488.6 187.9,477.9 181.4,466.3C177.2,458.9 176.4,454.9 178,449.1C180.8,438.7 196.2,429.7 222.5,423.1C237.3,419.5 236,419.4 236,423.9C236,427.5 235.8,427.9 232.8,428.5C216.5,431.7 204.2,438.7 199.9,447.1C192.6,461.6 204.6,478.9 252,522C291.2,557.6 296.6,565.1 315.1,608.2C323.7,628.5 325.1,632 324.1,632C323.7,632 321.1,628.7 318.5,624.8Z" style="fill:white;fill-rule:nonzero;"/>
            <path d="M402.1,623.8C403.8,619.8 406.7,612.7 408.7,608C415.1,592.6 425.8,571.1 430.4,564.2C436.7,554.7 448.5,542.4 470.5,522.5C500.4,495.3 515.5,479 521.8,467.1C530.8,450.3 520.2,435.7 494.3,429.3L487,427.5L487,420.3L492.3,421.1C505.7,423.2 529.4,432.4 537.5,438.5C541.7,441.8 546,450.1 546,455.1C546,464.4 532.4,482.1 499,516.5C449.4,567.5 427.8,592.4 406.6,622.8C403.4,627.3 400.4,631 400,631C399.5,631 400.5,627.7 402.1,623.8Z" style="fill:white;fill-rule:nonzero;"/>
            <path d="M354.5,613.7C346.8,595.8 325.2,551.5 321.9,546.8C318.5,542.1 320.7,542.3 325.8,547.2C328.4,549.7 332.2,553.2 334.4,555.1C336.5,557 343,563.9 348.8,570.5C354.6,577.1 359.9,583.1 360.5,583.8C361.4,584.8 364.2,582.1 373.4,571.5C379.9,564 386,557.4 387,556.7C387.9,556 392,552.4 396,548.7C400,545 403.4,542.1 403.7,542.3C403.9,542.5 402.4,545.6 400.4,549.1C392.9,562.2 378,593.1 370.4,611.2C366,621.5 362.3,630 362,630C361.7,630 358.4,622.7 354.5,613.7Z" style="fill:white;fill-rule:nonzero;"/>
            <path d="M625.1,551.4L622,548.8L622,320L637.9,320L638.5,323.3C638.8,325 639,376.6 638.8,437.8L638.5,549.2L635.7,551.6C632.1,554.7 628.9,554.6 625.1,551.4Z" style="fill:white;fill-rule:nonzero;"/>
            <path d="M346.6,518.9C335.1,517.7 326.8,514.6 320.2,509C313.4,503.4 276.6,465.9 268,455.9L262,448.9L262,435C262,427.3 262.2,421 262.4,421C262.6,421 264.7,423.9 267,427.5C271.2,433.9 272.9,435.7 271.5,432.3C270.5,429.5 265.2,408 264.5,403.3C264.1,400.9 264.2,399 264.7,399C265.1,399 269.8,408.2 275,419.4C280.2,430.6 284.6,439.7 284.7,439.6C284.8,439.5 284.3,433.8 283.4,426.9C281.5,411.1 277.2,388.3 275.5,385C274.7,383.6 269.4,377.3 263.6,371L253,359.5L248.5,345.2C245.8,337 244.3,330.4 244.7,329.7C247.7,325 260.3,309 260.8,309.2C261.2,309.4 264.8,311.2 268.9,313.3C276.3,317.2 277,317.2 278.3,313.5C278.5,313 280.9,314.2 283.7,316.3C290.6,321.4 294.9,323 301.5,323C307.4,323 312.5,321.3 316.7,318C320.1,315.3 320.9,315.5 325.3,319.6L329.1,323.1L324.5,329.5L327.5,327.4C329.2,326.2 333.9,323.5 338,321.4C342.1,319.3 346,317.2 346.6,316.8C347.5,316.2 347.2,313.5 345.8,306.7C343.9,298 343.5,297.2 338.6,292.2C333.5,287 333.4,287 324,285.5C318.8,284.7 306.7,282.4 297.3,280.4C287.6,278.3 279,277 277.6,277.4C276.2,277.7 271.5,280.5 267.1,283.5C262.7,286.5 258.9,289 258.7,289C258.5,289 258.3,287.3 258.3,285.3C258.3,283.2 258,270.9 257.5,258C256.7,232.1 257.6,224.8 262.5,216.5C270,203.6 286.8,195.8 299.1,199.3C306.9,201.6 310.7,206.1 318.9,222.5C328.6,242.1 336.2,251.4 348.9,259.4C358.5,265.5 375.1,269.8 383.9,268.5L388.4,267.8L380.5,263.7C376.2,261.4 370.5,257.5 367.8,255.1C362.7,250.6 356.4,242.3 357.3,241.3C357.6,241 359.4,242 361.3,243.4C366.4,247.3 385.5,256.5 401.4,262.7C415.5,268.2 437.5,275 441.1,275C442.1,275 443,275.4 443,275.8C443,276.9 429.5,280 407,284.1C388.3,287.5 386.1,288.5 381.2,295.5C379.4,298.1 376,310.8 376,315C376,315.9 379.1,318.2 383.3,320.5C387.2,322.6 392.2,325.4 394.3,326.7C396.3,328 398,328.6 398,328.1C398,327.5 397.6,326.8 397,326.5C396.5,326.2 395.6,325.1 395,324C394.2,322.5 394.8,321.6 398.5,318.5L403,314.9L406.7,317.8C416.2,325.2 428.9,324.7 439.7,316.4C443.4,313.6 444.6,313.4 445.8,315.7C446.6,317.1 447.6,316.8 454,313.1C458,310.8 461.4,309.1 461.5,309.2C461.7,309.4 463.9,312.4 466.5,316C469.1,319.6 473,324.4 475.3,326.7L479.3,330.9L475.1,344.7C472.7,352.2 470.5,359 470.2,359.6C469.8,360.2 465.5,365.1 460.5,370.5C455.6,375.9 450.5,381.7 449.2,383.4C446.8,386.8 443,403.5 441,420C440.4,425.2 439.5,432.1 439.1,435.3C438.7,438.5 438.6,440.7 439,440.3C439.3,439.9 441.6,435 444,429.5C452,410.9 456.9,401 458,401C458.6,401 458.8,402 458.6,403.3C458.3,404.5 457.3,409.6 456.4,414.5C455.5,419.5 453.9,426 452.8,429C450.7,435.3 451.3,434.9 456.9,426.1L461,419.7L461,434.1C461,446.2 460.7,448.9 459.2,451.2C455.2,457.2 402.7,510.5 398.6,512.7C392.3,516 384.1,518.1 373.6,519C361.1,520.1 357.9,520.1 346.6,518.9ZM381.4,471.4C384.1,468.4 386.1,465.8 385.9,465.7C385.7,465.6 384.4,464.9 383,464.1C379.3,462 342.7,462.5 339.4,464.7L337,466.2L341.8,471.6L346.5,477L376.6,477L381.4,471.4ZM369.2,448C377.9,445.6 379.8,445.5 387.4,447.5C392.5,448.8 393.8,448.9 398.1,447.6C401.7,446.5 403.8,446.4 405.7,447.1C409,448.3 411,447.6 411,445.3C410.9,441.9 408.5,439.9 405.2,440.6C401.7,441.3 398.2,440.3 384.3,434.4L374.2,430.1L368.1,432.5L362,435L356.3,433C353.1,431.9 349.8,431 349,431C348.1,431 341.6,433.3 334.6,436.1C324.5,440.1 321,441 318.4,440.6C315.4,440 314.9,440.2 313.5,443C312.2,445.4 312.1,446.5 313,447.5C314,448.7 314.6,448.7 317,447.5C319.5,446.2 320.4,446.2 324.4,447.6C328.5,449 329.5,449 335.3,447.6C343.3,445.6 345,445.6 353,448C361.2,450.4 360.7,450.4 369.2,448ZM367.2,422.3C380.1,412.3 391,402.3 391,400.5C390.9,397.7 388.3,386 387.6,385.3C387.3,384.9 387,385.5 387,386.6C387,388.1 384.6,389.5 376.2,392.9C370.3,395.3 364.5,397.4 363.2,397.7C360.7,398.3 338.2,389.6 336.3,387.3C335.4,386.1 335,386.9 334.1,391.2C331.8,402.9 331.1,401.5 345.5,413.8C359.9,426.2 361.3,426.8 367.2,422.3Z" style="fill:white;fill-rule:nonzero;"/>
            <path d="M203.3,373C198.6,371.1 168.8,334.1 153.7,311.5C146.4,300.6 135.1,279 132,269.9C128.6,260.2 134.8,260.7 160.1,272.1C171,277 192.5,288.4 202.6,294.6L209.7,298.9L210.8,309.2C211.4,314.8 211.7,319.6 211.5,319.8C211.3,320.1 204.5,315.4 196.5,309.4C175.9,294 137.7,270 136.2,271.5C135,272.7 144.7,282.9 159.6,296.3C178.4,313.3 182.9,318.2 187.7,327C195.9,341.9 201.2,351.1 201.6,350.8C201.8,350.6 201.2,348.1 200.4,345.2C199.6,342.4 199,338.6 199.2,336.9L199.5,333.7L204.9,339.3C210.3,344.9 214,349.8 214,351.3C214,351.8 213,351.8 211.8,351.4C209.7,350.8 209.7,350.9 212.3,353.9L214.9,357.1L212.9,362.3C210.4,368.7 207.8,373.3 206.5,373.6C205.9,373.7 204.5,373.5 203.3,373Z" style="fill:white;fill-rule:nonzero;"/>
            <path d="M511.6,365.4C508,356.8 508,356.6 509.8,354.6C512.3,351.8 513.9,348.9 511.9,350.8C509.4,353.1 509,352 510.9,348.3C513,344.3 523.9,332.2 524.1,333.6C524.6,337.7 523.6,343.6 521.5,349.5C520.2,353.2 525,345.6 530.7,335C538.6,320.2 542.3,315.7 559.9,299.8C578,283.4 587,274.3 587,272.2C587,271.2 585.4,271.7 581.3,274C567.5,281.7 538.8,300.3 526.2,309.8C518.7,315.4 512.2,320 511.7,320C511.3,320 511.2,318.5 511.5,316.6C511.9,314.7 512.5,309.9 512.8,305.9L513.5,298.7L520,294.7C542.6,280.8 585.1,261.4 590.1,262.7C592.8,263.5 593.3,266.5 591.4,270.7C579.1,297.9 572.9,308.4 555.5,331.5C544.8,345.8 524,371.3 522.3,372.3C521.9,372.6 520.1,373.1 518.4,373.4L515.2,374.1L511.6,365.4Z" style="fill:white;fill-rule:nonzero;"/>
            <path d="M221,320.7C221,320.5 222.1,318.3 223.4,315.9C226.8,309.8 228.1,304.1 228.1,295.7C228.1,288.3 227,283.7 220.5,262.5C214.3,242.3 214.5,224.3 221,210L224,203.5L220.5,207.5C210.1,219.4 204,235.8 204,252.3C204,258.8 202.6,257.5 200.5,249C198.8,241.9 198.7,225.2 200.4,220.5C200.9,219.3 199.6,220.2 197.5,222.5C193.3,227.2 188,237 188,240.2C188,241.5 187.6,243.1 187.1,243.9C183.9,249 182,216.9 184.9,206.5C187,198.9 191.1,189 193.8,184.5C195.8,181.3 195.9,180.8 194.4,182.1C183.5,191.1 180.2,194.2 176.4,199.2C173.9,202.4 170.5,208 168.7,211.7L165.5,218.5L165.2,213.4C164.8,206 167.4,194.6 171.6,186C176.5,175.9 187.6,165 198.1,159.8C208.8,154.5 216.8,152.7 226.4,153.3C237.9,154.1 244.7,157.7 255,168.8C264.1,178.5 276.5,193.9 275.7,194.6C275.5,194.8 274.1,194.6 272.6,194C268.7,192.6 257.5,192.8 253.7,194.3C249.3,196.2 244.3,200.6 241.5,205C235.4,214.7 234.5,228.5 238.6,248.8C241.7,264.3 242.7,280.1 241.1,289.6C239,301.4 232.1,313.2 223.8,319.1C222.3,320.2 221,320.9 221,320.7Z" style="fill:white;fill-rule:nonzero;"/>
            <path d="M496.4,316.5C486,309 480.4,297.7 479.3,281.9L478.7,274.4L482.6,273.1C484.8,272.4 487,271.7 487.6,271.4C488.3,271.1 489,272.9 489.4,276.2C491.3,291 497.7,310.9 502.7,317.8C506.1,322.3 503.8,321.9 496.4,316.5Z" style="fill:white;fill-rule:nonzero;"/>
            <path d="M612.6,308.9C612.3,307.2 612,305.4 612,304.9C612,304.4 620,304 629.9,304L647.7,304L646.7,308L645.6,312L613.3,312L612.6,308.9Z" style="fill:white;fill-rule:nonzero;"/>
            <path d="M606.7,295.3C606.3,295 606,292.3 606,289.3L606,284L653,284L653,289.4C653,294.1 652.7,294.8 650.8,295.4C647.7,296.2 607.5,296.2 606.7,295.3Z" style="fill:white;fill-rule:nonzero;"/>
            <path d="M445.8,277.9C443,276.3 443.7,274.9 446.5,276.2C447.9,276.8 449,277.7 449,278.2C449,279.3 447.9,279.2 445.8,277.9Z" style="fill:white;fill-rule:nonzero;"/>
            <path d="M612,275.1C612,274.6 613,273.6 614.2,272.8C616.3,271.4 616.2,271.3 610.4,267.8C583.9,251.6 579.2,217.7 600.8,197.9C628.5,172.6 672,191.8 672,229.4C672,245.8 663.6,259.5 648.4,268.1C642.8,271.3 642.7,271.4 644.8,272.8C646,273.6 647,274.6 647,275.1C647,275.6 639.1,276 629.5,276C619.9,276 612,275.6 612,275.1ZM642.5,256.5C655,250.4 661.4,235.5 657.1,222.8C655.7,218.6 654,217.8 654,221.3C654,227.5 645.8,233.9 637.7,234C621.2,234.1 612.6,212.8 624.8,202.2L627.5,199.9L624.5,200.6C605.7,204.7 595.1,225.5 603.3,242.3C606.8,249.2 614.6,256.5 620.9,258.5C627.3,260.6 635.8,259.8 642.5,256.5Z" style="fill:white;fill-rule:nonzero;"/>
            <path d="M532.6,265.4C522.8,262.3 515.8,255.5 511,244.2L508.7,238.9L507,241.8C502.7,248.9 490.8,255.6 477.7,258.5C465.5,261.2 443.4,260.2 432,256.5C412.3,250.2 399.7,242.5 385,228.1C375.2,218.4 364.3,203.4 359.9,193.5C358.8,190.9 357.7,189 357.5,189.2C357.3,189.4 358,194 359.1,199.5C361.1,209.9 366.1,221.9 372,230.5C373.7,233 374.7,235 374.2,235C373,235 362.4,228.5 358.7,225.5C350,218.3 341.4,204.7 334.4,187.1C330.8,178.1 325.5,171.7 319.5,169.4C310.2,165.9 296.8,169.7 287.5,178.7C285,181 282.8,183 282.5,183C282.3,183 282.9,180 284,176.4C286.1,168.6 291.7,160.2 297.3,156C310.7,146.2 333.4,145.5 350.6,154.5L357,157.9L355.1,155.2C346,142.5 331.1,135 315.2,135C301.4,135 291.3,138.7 282.5,147.1C279.6,149.8 277,152 276.7,152C275.6,152 280.2,137.4 282.7,133C288.2,123.7 301,112.2 309.5,109.2C312.4,108.2 312.3,108.2 307.5,108.1C290.4,107.8 269.6,121 261.5,137.2C259.6,141.2 258,145.9 257.9,147.9C257.9,149.9 257.5,152.4 257.1,153.5C256.4,155.2 255.9,154.7 253.4,150.5C248.8,142.5 247.1,136.3 247.1,127.5C247.1,123.1 247.7,117.7 248.5,115.5C249.3,113.3 250,111.4 250,111.3C250,111.3 247.2,114.2 243.7,117.8C234.7,127.3 231,132.3 228.4,138.8L226.1,144.5L223.4,138.6C221,133.4 220.8,131.9 221.2,124C221.5,116.4 222.1,114.2 225,108.5C231,96.6 242.9,86.8 257.8,81.2C262.8,79.4 267.2,78.6 275,78.2L285.5,77.8L290.3,72.5C298.2,63.6 312.8,55.6 326.3,52.6C335.3,50.6 345,49.8 348.5,50.9C350.2,51.4 351,51.9 350.4,51.9C349.8,52 345.2,56.7 340.2,62.4C335.2,68.1 327.8,75.6 323.9,79C314.1,87.5 316.7,86.5 346,71.4C358.5,64.9 367.9,62.1 380,61.3C393.9,60.4 410,65.6 419.1,74C423.5,78.1 423.5,78.1 420.5,77.6C401.7,74.3 392.3,74.4 380.5,78.1L373.5,80.3L384.5,82.5C390.6,83.8 399.1,85.9 403.5,87.3C407.9,88.7 416,91 421.5,92.4C459,101.7 478.5,99.2 490,83.7C493.3,79.3 493.5,79.1 494.2,81.2C495.2,84.9 495.1,97.2 493.9,101.4C491.4,110.5 478.3,119.8 464.5,122.3L457.5,123.5L466.5,128.2C471.5,130.7 482.3,135.3 490.7,138.3C499,141.4 508.8,145.4 512.4,147.1C528.6,155 540.6,169.3 543.9,184.8C544.5,187.7 545,190.4 545,190.8C545,191.1 543.3,189.8 541.3,187.8C538,184.6 525.1,177.6 524.2,178.5C524,178.7 525.7,181.2 528,184.1C535,193.3 539.9,204.5 540.6,213.2C541,217.4 541,222 540.6,223.6C539.9,226.3 539.8,226.2 537.5,220.5C534.7,213.7 531.4,209.4 524.2,203.2L519,198.8L521.1,204.6C522.2,207.9 524.6,216.4 526.5,223.5C530.6,239.4 532.1,243.7 535.3,248.6C538.6,254 546,260.5 550.3,262.1C552.4,262.8 554,263.7 554,264.1C554,265.1 544.8,267 540.7,266.9C538.9,266.9 535.3,266.2 532.6,265.4ZM467.8,240.5C474.8,238.4 481.7,233.4 485.6,227.6C487.5,224.8 489,222.2 489,221.8C489,221.3 487.1,222.4 484.8,224C474.3,231.7 452.4,233.9 435.5,229.1C420.6,224.8 401.4,214.4 392.3,205.7C387.1,200.7 386.8,201.6 391.4,207.9C410.3,233.3 443.8,247.6 467.8,240.5ZM472.5,198.4C484.9,194.1 493.3,185.7 497,174.1C498.1,170.6 499,167.7 499,167.6C499,167.5 496.6,169.7 493.6,172.6C483.7,182.2 471.9,186.3 454,186.3C436.6,186.3 421.2,181.5 403,170.3C398.9,167.7 393.3,163.8 390.5,161.6L385.5,157.5L388.8,162C403.4,182.1 421.5,194.7 442.5,199.6C450.3,201.4 465.8,200.8 472.5,198.4Z" style="fill:white;fill-rule:nonzero;"/>
        </g>
    </g>
</svg>
