<?xml version="1.0" encoding="UTF-8" standalone="no"?>
<!DOCTYPE svg PUBLIC "-//W3C//DTD SVG 1.1//EN" "http://www.w3.org/Graphics/SVG/1.1/DTD/svg11.dtd">
<svg width="100%" height="100%" viewBox="0 0 659 685" version="1.1" xmlns="http://www.w3.org/2000/svg" xmlns:xlink="http://www.w3.org/1999/xlink" xml:space="preserve" xmlns:serif="http://www.serif.com/" style="fill-rule:evenodd;clip-rule:evenodd;stroke-linejoin:round;stroke-miterlimit:2;">
    <g transform="matrix(1,0,0,1,-32,-15.0928)">
        <g>
            <path d="M351,699.3C271.5,696.8 194.4,664.4 137.1,609.5C131.3,604 127,600.2 127.5,601C128,601.8 129.4,604 130.6,605.8C138.7,617.7 130,630 116.3,626.1C113.5,625.3 108.2,620.8 97.2,609.9C94.5,607.2 84.7,594.2 79.2,585.9C75.5,580.3 75.5,580.3 70.5,580.3C63.6,580.4 59.9,578.1 54.5,570.6C47.7,561.1 41.9,546.9 36.7,527C33.1,513.3 32,503.1 32,481.9C32,460.6 32.9,452.7 37.2,435.1C38.9,427.7 39.9,421.4 39.6,419.6C36.8,404 36,364.6 38,344.5C43.3,290.8 61.3,240.3 91.1,195.5C119.3,153.2 157.9,117.1 201,93C207,89.6 212.7,85.4 216.5,81.6C219.8,78.2 225.9,73 229.9,70C234,67 239.3,62.8 241.7,60.8C248.5,55 255.7,53.8 261.7,57.6C263.7,58.9 264.5,58.5 272,52.7C276.5,49.3 282.3,45.4 284.9,44C287.4,42.6 291.5,40.2 294,38.6C301.1,33.9 321.2,25.3 337.5,19.8C352.4,14.9 352.6,14.9 363.5,15.2C373.8,15.6 375.5,15.9 389.5,20.9C404.3,26.1 426.2,36.1 431,39.9C432.4,40.9 437.6,44.4 442.5,47.5C447.5,50.7 453,54.3 454.9,55.6C457.3,57.2 458.7,57.6 459.6,56.9C462,54.9 467.3,54 471,55C475.9,56.3 494.3,70.3 507,82.5C510.6,85.9 517.3,90.9 522,93.5C526.7,96.2 534.4,100.9 539.2,104.2C544,107.4 548.2,110 548.5,110C548.8,110 549,108.2 549,106C549,102.3 553.7,86.2 556.2,81.6C556.8,80.4 560,76.7 563.3,73.3C569.1,67.2 569.3,66.9 569.5,61.3C569.7,54.3 571.3,51.1 578.2,43.4C582.1,39.2 585.5,36.7 591,34.1C598.2,30.7 599,30.5 609.5,30.5C619.4,30.5 621.3,30.8 627.8,33.4C634.2,36 636.2,37.4 642.1,43.9C649.5,51.9 651.5,56.4 650.8,62.9C650.4,66.2 650.9,67.2 657.1,73.9C662.6,80 664.5,83 667.2,89.9C670.2,97.8 670.5,99.6 670.8,111.5C671.1,124.2 671.1,124.8 667.6,135C664.1,145.3 664,145.5 655,154.5C650.1,159.5 646,164 646,164.6C646,165.2 647.8,169.1 649.9,173.3C654.1,181.5 658,191.9 658,194.8C657.9,195.7 657.3,198.2 656.5,200.3C655.2,204.1 655.2,204.2 660,210.5C667.6,220.6 667.7,229.3 660.1,236.9L656.4,240.6L659.8,248.6C671.8,276.6 680.9,312.6 684,344.5C686,363.7 685,411.4 682.5,418.7C682.3,419.3 683.7,425.6 685.6,432.7C688.7,444.1 689.2,447.5 690,464.1C691.3,491.7 689.9,514.7 686.2,528C680.6,547.8 673.2,565.1 666.8,573.2C663.5,577.4 655.8,580.4 650.5,579.5C647.8,579 647.2,579.4 644.7,583.2C643.1,585.6 640.1,589.9 637.9,592.9L634,598.3L634,641L637.6,645.9C641.5,651.4 645,660.4 645,664.9C645,671.8 638.9,684 632.3,690.3C627.4,694.9 618.9,697.3 609,696.8C599.4,696.3 594.5,694.3 589.4,688.8C584.7,683.7 582.2,679 580.6,671.9C579.3,666.3 579.3,664.6 580.5,658.7C582,651.7 584.4,646.8 588,643.5C590,641.7 590.1,640.7 589.9,623.4L589.7,605.1L581.8,612.5C542.9,649.1 490.1,677.5 437,690.4C410.3,696.8 378.2,700.2 351,699.3ZM617.4,680.7C619.6,679.5 622.7,676.8 624.4,674.7C627.1,671.4 627.5,670 627.5,665C627.5,659.7 627.2,658.8 623.3,654.2L619,649.1L619,284.5L622.1,278C623.8,274.4 627.7,268.3 630.9,264.5C635.7,258.7 636.5,257 635.9,255.2C635.1,253 634.9,253 612.2,253C589.6,253 589.3,253 588.3,255.2C587.5,257.1 588.1,258.3 592.2,263.5C594.9,266.8 598.9,273 601.1,277.4L605,285.2L605,649.5L600.6,654.2C595.8,659.2 594.4,663.2 595.5,668.6C596.6,674.7 605.9,683 611.5,682.9C612.6,682.9 615.3,681.9 617.4,680.7ZM403.1,676.7C413.3,674.5 419.4,672.4 426.6,668.5C432.3,665.4 451,652.3 451,651.4C451,651.2 449.3,651.8 447.3,652.9C441.2,655.9 425.1,660.7 417,661.9C402.8,664 354.2,665.2 332.1,664C300.9,662.4 289.9,660.2 269.5,651.5C259.2,647.1 281.5,662.3 294.5,668.6C313.6,677.7 322.1,678.9 364,678.6C388,678.3 397.3,677.9 403.1,676.7ZM374.4,645.3C374.1,643.2 373.7,640.9 373.4,640.3C372.9,638.5 347.4,638.5 346.4,640.2C346,640.8 345.4,643.1 345,645.2L344.3,649L374.9,649L374.4,645.3ZM304.1,640.8L303.8,635.6L302.4,638.8C301.7,640.6 300.4,642.3 299.5,642.6C296.4,643.8 298,645.1 303.5,645.9C304.1,645.9 304.4,643.9 304.1,640.8ZM420.9,645C421.9,645 421.5,644.1 419.8,642.3C418.3,640.7 417,638.4 416.7,637C416.4,635.4 416.2,635.9 416.1,638.7C416.1,641 415.7,643.6 415.3,644.6C414.8,646 415.1,646.2 417.1,645.7C418.4,645.3 420.1,645 420.9,645ZM330.2,640C332.3,637.1 334.3,623.4 333.8,614.5L333.5,608.7L326.1,623C318.2,638.2 318.1,639.1 323.1,641.7C326.3,643.4 327.9,643 330.2,640ZM399.3,640.2C400.2,639.4 401,638.3 401,637.8C401,635.9 386.6,609.7 386.2,610.9C386,611.6 386.1,617.9 386.5,624.8C387.2,636.9 387.3,637.5 390.1,640.3C393.2,643.3 395.7,643.3 399.3,640.2ZM287.4,630.5C289.5,628.4 290.2,623.9 289.8,615.5L289.5,608.5L278.7,627.3L281.4,629.7C284.6,632.4 285.3,632.5 287.4,630.5ZM437.8,630L441,628L437.1,620.3C434.9,616 432.4,611.6 431.6,610.5C430,608.6 430,609.2 430.2,618.6C430.4,625.3 431,629.2 431.9,630.3C433.6,632.4 433.8,632.4 437.8,630ZM264,627.5C264,626.7 263.6,626 263.1,626C261.8,626 260.9,627.6 261.7,628.4C262.8,629.5 264,629 264,627.5ZM459,627.4C459,627.2 458.1,626.6 457.1,626.1C455.5,625.2 455.3,625.3 455.7,626.9C456,628.1 456.8,628.6 457.6,628.3C458.4,628 459,627.6 459,627.4ZM371.2,624.4C373.7,623.7 373.9,622.2 374.3,597.7C374.6,576.4 374.6,575.9 372.6,575.5C369.7,574.8 359.9,574.5 351.5,574.8L344.5,575L345.3,595.2C345.7,606.4 346.5,617.2 347,619.2C348.6,624.8 351.7,626.2 361.5,625.5C365.9,625.2 370.3,624.7 371.2,624.4ZM320.9,598.2C326.4,587.4 330.8,578.5 330.7,578.4C330.4,578.1 317.6,581.6 315,582.7C312.1,584 307.6,588.6 306.6,591.5C306.2,592.6 305.2,598.2 304.4,604L302.9,614.5L305.5,616.7C306.9,617.9 308.7,618.7 309.5,618.4C310.3,618.1 315.4,609 320.9,598.2ZM414.5,616.7L417.2,614.5L416.2,603.2C414.9,587.5 413,585.2 397.3,580.6L389.3,578.3L398.3,596.9C407,614.8 409.4,619 411.1,619C411.5,619 413.1,618 414.5,616.7ZM252.4,611.8C252.7,610.5 253.1,604.8 253.3,599.1L253.7,588.6L243.9,608.2L246.6,611.1C249.9,614.6 251.8,614.8 252.4,611.8ZM473.4,611.1L476.1,608.2L471.2,598.5L466.3,588.7L466.7,600.1C467,606.4 467.3,612.1 467.5,612.8C468.2,614.8 470.5,614.2 473.4,611.1ZM278.8,595.6C287.3,584.9 287.4,586 277.7,586L269.3,586L268.6,589.1C267.5,594.5 267.9,599.1 269.7,602.1C271.4,604.9 271.6,604.9 272.8,603.3C273.5,602.3 276.2,598.8 278.8,595.6ZM451.9,595.6C451.8,586.8 451.6,586.6 441.7,586.4L433,586.2L437.4,591.1C439.9,593.8 443.1,598 444.7,600.5L447.5,604.9L449.7,602.8C451.5,601.1 452,599.6 451.9,595.6ZM495.1,598.6C492.4,597.4 489.4,599.9 490.4,602.5C490.9,604 491.3,603.9 494.2,601.9C497.3,599.7 497.3,599.6 495.1,598.6ZM229.4,601.5C230.1,599.7 226.8,597.8 224.5,598.6C223.1,599.2 223.1,599.4 224.6,601.1C226.7,603.4 228.6,603.5 229.4,601.5ZM168.6,575.6C145.8,552.4 131,529.1 131,516.5L131,512L134.8,512C138.3,512.1 138.9,512.5 146.5,522.5C150.9,528.3 154.7,533 155,533C155.3,533 157.9,528 160.7,521.9C165.5,511.7 165.8,510.8 163.7,511.4C162.5,511.7 156.9,512.3 151.3,512.7L141,513.3L141,510.2C141,508.4 140.6,507 140.1,507C139.5,507 136,508.1 132.2,509.5C123.5,512.6 119,512.8 119,510C119,507.7 118.4,507.6 115,509.5C113.6,510.3 110.4,510.9 107.8,511L103,511L103,503.5L122.5,491.3C143.9,477.8 148,476.3 148,482C148,483.7 148.2,485 148.5,485C148.8,485 150.9,483.8 153.2,482.4C157.4,479.7 164.8,476.5 177.5,471.7C208.9,460 236.5,447 272.8,426.9C311.5,405.5 330,399.7 360.5,399.8C390.9,399.8 406.6,404.9 450,428.5C487.7,449 508.9,458.9 536.9,469C551.6,474.3 559.3,477.6 565.5,481.1L570.9,484.1L571.2,481.3C571.5,478.9 572,478.5 575.1,478.2C577.8,478 579.5,478.6 582.4,481C584.5,482.6 586.4,484 586.6,484C586.8,484 587,481.8 587,479.2L587,474.4L581.8,473.1C570.7,470.2 551.5,463.7 540.3,458.9C518.6,449.6 502.7,440.4 467,416.5C417.9,383.6 387.3,374.5 341.4,379.1C313.3,381.9 289.1,392.3 251,417.8C221.5,437.7 215.7,441.2 200.1,449C173.9,462.1 152,469.8 122.9,476.1C107.4,479.4 100,482.5 91.1,489.2L85.8,493.3L86.4,498.9C86.8,501.9 87.8,505.6 88.7,506.9C91.7,511.5 116,535.7 126.9,544.9C135.3,552.1 177.9,585.8 178.7,586C178.8,586 174.2,581.3 168.6,575.6ZM217.5,577.4C218.5,573.3 219,569.7 218.7,569.4C218.2,568.8 208,579.8 208,581C208,582.1 214.2,586 215.1,585.4C215.5,585.2 216.6,581.6 217.5,577.4ZM508.9,583.4C510.6,582 512,580.2 512,579.5C512,577.7 501.4,566.3 500.6,567.1C500.1,567.6 502.2,579.9 503.6,584.8C504.1,586.6 505.5,586.3 508.9,583.4ZM568.3,564.5L587,549.6L587,509.3L578,507.3L578,510.1C578,513 577.9,513 572.2,513C569,513 563.5,512.1 560.1,510.9C556.6,509.8 553.7,509 553.5,509.2C553.1,509.7 564.3,533 564.9,533C565.3,532.9 568.2,529.4 571.5,525C577.1,517.6 577.7,517.1 581.3,517C584.9,517 585,517.1 585,520.8C585,526.7 583.3,531.2 577,542.6C570.1,554.9 559,569.1 548.1,579.2C539.6,587.1 541.4,585.8 568.3,564.5ZM238.4,583.4C238.8,582.4 238,581.5 235.7,580.5C231.7,578.8 230.6,580.5 234,583.2C236.7,585.4 237.6,585.5 238.4,583.4ZM488,579.9C488,578.5 484.6,578.8 482.5,580.4C481.4,581.2 480.9,582.3 481.3,583.4C481.9,585 482.2,585 485,583C486.6,581.8 488,580.4 488,579.9ZM91.1,570.2C80.1,548.3 71.8,525.8 67.8,507.5C66,499.1 65.6,494.2 65.6,476.5C65.5,453.1 66.4,446.6 72.5,428.3C85.8,388.4 124.2,331.5 168.5,286.1C211.5,242.1 253,213.3 299,195.7C327.2,184.9 345,181.4 367.9,182.3C384.7,183 392.3,184.4 410.5,190.5C443.3,201.4 469.7,215.9 505.5,242.6C528,259.3 561.2,291.6 582,317L587.3,323.5L586.7,308C586.2,293.4 585.9,292.1 583.3,287.1C581.8,284.2 578.4,279.5 575.8,276.7C569.2,269.5 567.6,264.8 568.3,255.4L568.9,247.9L564.7,243.7C558.1,237.2 556.7,233.4 557.2,223.1C557.5,215.8 557.9,213.9 560.1,210.7C562.6,207.2 562.7,206.4 562.2,197.6C561.8,189.1 562,187.8 564.4,182.5C565.8,179.4 566.7,176.3 566.3,175.6C563.8,171.6 547.7,150.5 539,140C528.4,127.1 486.3,84.3 482.1,82C479.9,80.9 480.1,81.4 483.9,88.5C486.1,92.7 488,97.5 488,99.1C488,101.7 487.7,102 484.8,102C482.1,102 479.9,100.3 470.1,90.7C456.5,77.5 446.1,69 433,60.5C412.3,47.1 401.2,41.5 382,34.9C365.8,29.3 360.8,29 347.8,32.8C327.5,38.8 308.2,48.1 288.8,61.2C277.5,68.8 257.3,85.8 248,95.4C244.5,99 242.9,100 240.3,100C237.2,100 237,99.8 237,96.7C237,94.9 238.4,90.8 240.1,87.6C241.8,84.5 243,81.7 242.8,81.4C241.5,80.2 221.1,99 204.1,117C172.4,150.8 143.3,191.6 123,230.5C119,238.2 116.6,243.7 117.7,242.7C118.8,241.8 121.1,241 122.8,241C128.4,241 127.6,243.6 113,275.5C103,297.5 70.2,380.5 62.1,404.6C51,437.5 47.6,455.5 47.6,481.5C47.6,508.7 51.3,528.3 60.2,547.5L62.5,552.5L62.8,538.3L63.1,524L66.5,524C69,524 70,524.4 70,525.5C70,531.8 92.7,580 95.6,580C95.8,580 93.8,575.6 91.1,570.2ZM535.4,569.1C536.5,567.9 537.1,566.8 536.9,566.6C536.4,566.1 528,573.8 528,574.6C528,575.4 533.3,571.5 535.4,569.1ZM650.7,533.3C653.4,525.2 653.5,525 656.7,525L660,525L660.1,538.8L660.2,552.5L663.6,545.4C667.5,537 671.3,524.6 673.7,511.7C676.1,498.8 676.1,465.4 673.6,452C669.8,431.2 662.8,407.6 651.4,377.8C647.7,368.3 643.1,356.2 641.1,351L637.5,341.5L637.2,368.9L637,396.3L641.5,405.5C648.1,419 654.6,439.5 656.6,453C658.7,467.5 658,491.9 655.1,506C652.6,518.3 646.8,536.7 641.3,549.8C638.9,555.5 637,560.9 637.1,561.8C637.2,564.3 647.4,542.8 650.7,533.3ZM499.2,486.4C501.7,481.6 501.2,479.7 496.9,477.5C493.9,475.9 493.6,475.9 491.7,477.9C489.9,479.6 489.5,481.5 489.3,489.7L488.9,499.5L493,495C495.2,492.5 498,488.7 499.2,486.4ZM230.7,488.9C230.3,482.3 229.6,479.3 228.4,477.9C226.1,475.4 224.7,475.5 221.1,478.6L218,481.1L220.1,485.2C222,488.9 229.6,498 230.8,498C231.1,498 231,493.9 230.7,488.9ZM169.6,494.6C192.5,485.3 202.9,480.5 202,479.7C201.3,479 187.8,484.6 174,491.3C161.6,497.2 160,498.5 169.6,494.6ZM552.5,493.7C550.8,492.5 530.8,484.4 521.5,481.1C515.1,478.8 522.2,482.9 529.4,485.7C533.3,487.1 540.1,489.8 544.5,491.6C553.4,495.1 555.4,495.7 552.5,493.7ZM276.5,457.2C276.1,455.3 274.9,453.3 273.4,452.3C271,450.7 270.6,450.8 267.3,452.5C265.3,453.6 263.1,455.4 262.3,456.6C261,458.6 261.1,459.3 263.4,463.7C264.7,466.3 268.2,471.2 271.2,474.4L276.5,480.4L276.8,470.4C277,465 276.8,459 276.5,457.2ZM401.6,462.5C403.6,457 407,448.7 409.2,444.1L413.1,435.7L411,433.5C408.3,430.6 403.9,428.7 400.9,429.2C397,429.8 395.1,433.8 393.9,444.4C392.8,453.9 393.4,463.9 395.8,474C396.4,476.9 396,477.6 401.6,462.5ZM326.1,453.3C326.1,440.1 324.9,434.7 321,430.8C318.1,428 318,428 314.3,429.5C306,433 305.8,434.2 311.4,446.3C314.2,452.3 317,459.2 322.5,473.5C323.9,477.1 326,465.3 326.1,453.3ZM451.4,465.8C455,461.8 458,458.3 458,457.9C458,457.5 456.4,455.8 454.4,454C450.5,450.6 446.7,450.5 444.3,453.7C442.8,455.7 442.5,473 443.9,473C444.4,473 447.8,469.8 451.4,465.8ZM130.2,456.9C151.2,452.5 175.4,443.1 198.4,430.1C213.9,421.4 226.3,413.9 225.8,413.5C225.6,413.3 223.3,413.6 220.5,414C214.5,415 202.8,415.2 200.6,414.4C198.7,413.7 198.4,407 200.3,406.9C200.9,406.9 203.3,406.1 205.5,405.1L209.5,403.3L204,401.5C195.4,398.7 190.6,394.8 187.4,388.4C185,383.5 184.6,381.2 184.2,371.6C183.7,358.1 185.4,348.5 190.6,336.1C200.6,312.1 205.1,299.3 205.6,293C206.6,281.3 206.7,281.1 218.1,279.5C223.5,278.8 233.8,274.1 239,270C241,268.4 243.7,265.1 245,262.7C247.2,258.6 247.2,258 246,253.6C245.3,251.1 244.4,249 244,249C242.3,249 226.9,260.9 216.9,269.8C214.3,272.2 210.2,275.5 207.8,277.2C203.2,280.5 177.7,306 173.6,311.3C172.2,313.1 169.2,316.6 166.8,319.1C162.3,323.8 157.6,329.3 151.4,337C148.6,340.5 148.1,341.6 149.3,341.8C150.3,342 151,343.4 151.2,345.5L151.5,349L157,341.9C164.9,331.7 174.2,324 178.6,324C181.9,324 182,324.1 182,327.9C182,330.9 180.4,334.7 175.4,343.7C171.7,350.2 165,362.8 160.4,371.8C153.9,384.4 152.2,388.5 152.9,389.9C154.3,392.4 160.6,397.4 173.8,406.5C185,414.1 185.1,414.3 184.8,417.9L184.5,421.5L179,421.3C168,420.9 151.2,413.1 137.2,402C131.9,397.7 131.5,397.1 131.2,392.8C131,389.1 131.7,386.4 134.4,380.4C136.4,376.2 138,372.5 138,372.1C138,371 133.2,378.7 128.5,387.4C122.8,397.8 122.2,396.5 136.5,404.5C141.4,407.3 147.5,411.4 150.2,413.8C154.2,417.5 155,418.8 155,421.7L155,425.3L149.3,424.8L143.5,424.2L143.8,429.1C144.3,435.1 142.9,437 138.1,437.1C134.6,437.1 134.4,437.4 131.2,444.1C129.4,447.9 126.8,452.3 125.4,453.9C121.6,458.5 121.8,458.6 130.2,456.9ZM587,446.1L587,436.1L582.8,435.8C578.5,435.5 578.5,435.5 578.2,431.1C578,428 578.4,426.2 579.7,424.7C581.4,422.7 581.4,422.7 579.5,423.4C578.5,423.8 574.1,424.4 569.8,424.7L562,425.3L562,421.7C562,417.3 564.5,415 577.6,407.8C584,404.2 587,401.9 587,400.7C587,399.3 586,399.7 581.8,402.9C574.4,408.4 560.6,415.8 554.6,417.5C551.8,418.2 546.5,419.2 542.8,419.6L536,420.2L536,412.2L547.6,405C554,401 561,396 563.2,393.9C566.6,390.7 567.1,389.7 566.6,387.3C565.3,381.9 553.5,359.7 545.3,347.2C536.3,333.6 535.7,332.1 536.2,326.9C536.5,323.9 536.9,323.5 539.7,323.2C545.6,322.6 554.6,330.4 566,346C573.3,356 573.8,356.5 571.6,352.3C570.7,350.5 570,347.7 570,346C570,343.5 570.4,343 572.5,343C575.8,343 575.7,342.2 571.7,337.9C569.9,336 566.7,332 564.6,329.2C562.5,326.3 560.5,324 560.1,324C559,324 555.8,320.7 551.5,314.9C549.3,312 545.9,308 543.9,306C535.3,297.6 514.9,278.1 510.4,274.2C507.7,271.8 504.2,268.6 502.5,267.1C497.5,262.5 483.5,252 482.3,252C481.8,252 480.1,250.8 478.6,249.4L476,246.7L474.4,250.6C471.1,258.5 474.7,266.3 484.5,272.5C490.2,276.2 500.4,280 504.5,280C505.9,280 508.6,280.6 510.4,281.4L513.8,282.8L514.2,291.2C514.6,300.9 516.4,306 526.1,325.9C530.3,334.6 533.3,342.2 534.3,347C538.9,369 536.8,386.2 528.3,394.2C525.3,397 515.6,402 512.9,402C509.2,402 510.4,403.5 515.7,405.5C521.1,407.5 521.5,407.9 521.8,411.2C522.1,414.2 521.7,414.8 519.8,415.4C514.6,416.8 504,415.9 494.5,413.4C491.6,412.6 496.3,415.8 510.1,424C533.5,437.9 555.6,447.8 574.8,453C580.7,454.6 585.8,455.9 586.3,455.9C586.7,456 587,451.5 587,446.1ZM370,418.9C376.3,418.3 382.1,417.5 382.8,417.1C384.9,415.9 370.7,413.9 360.6,413.9C349.8,413.9 335.1,415.9 337.2,417.1C338.1,417.6 343,418.3 348.1,418.8C353.3,419.3 357.7,419.8 358,419.9C358.3,419.9 363.7,419.5 370,418.9ZM117.4,417L121.5,417L115,413.2C108.7,409.6 108.5,409.3 108.2,405L107.9,400.6L104.4,407C101.2,413.1 101.1,413.5 102.6,415.8C104,418 104.7,418.2 108.7,417.6C111.2,417.3 115.1,417 117.4,417ZM241,383.8C253.6,377.7 258.8,372.9 267.8,359C277.1,344.7 278,342.6 278,334.8C278,323.8 273,317.1 260.4,311.3C251.3,307.1 245.4,307.5 234.4,312.9C227.2,316.5 223.9,319 216.9,326C209.6,333.3 207.5,336.1 203.7,344.1C194.1,364.2 195.4,376.4 207.9,383.8C219.2,390.5 227.1,390.5 241,383.8ZM506.6,387.1C515.9,382.9 522.4,373.3 522.3,364C522.1,344.3 499.5,316.5 478.1,309.5C461.1,304 441.8,318.8 441.9,337.3C441.9,343.8 442.2,344.4 454.1,362.2C462.7,375 466.2,378.5 474.5,382.5C487.2,388.7 499.2,390.5 506.6,387.1ZM585.9,377.6C585,376.8 584.9,376.9 585.4,378.3C585.7,379.3 586.1,380.7 586.1,381.3C586.2,382 586.4,381.7 586.7,380.6C587,379.6 586.6,378.3 585.9,377.6ZM297.1,371.5C303.3,369.6 303.6,369.4 301.4,368.3C300.1,367.7 299,367.6 299,368.1C299,368.6 297.2,369 295.1,369C291.3,369 291.1,368.9 290.8,365.5L290.5,361.9L286.4,367.2C284.2,370.1 281.3,374.2 280.1,376.3L277.7,380.2L284.1,376.9C287.6,375.1 293.5,372.7 297.1,371.5ZM438.4,374.3C436.4,371.1 433.7,367.4 432.4,366L430,363.5L430,366.3C430,368.8 429.7,369 425.6,369C423.1,369 420.8,368.6 420.5,368C420.1,367.4 419.4,367.5 418.6,368.2C417.5,369.2 419,370.2 425.9,373C430.6,375 435.9,377.4 437.5,378.3C442.2,380.9 442.3,380.4 438.4,374.3ZM330,363.4C346.9,360.4 379.2,360.5 395.1,363.7L398.3,364.3L396.7,361.9C395.5,360.3 395,357.5 395,352.7C395,345.4 396.2,342.2 401.2,335.8C403.7,332.6 404.7,332 408.1,332L412,332L412,309.8C412,276.1 415.2,251.6 422.5,229C424.4,223.3 425.6,218.3 425.2,217.9C424.8,217.6 420.2,215.6 415,213.6C409.8,211.6 404.5,209.5 403.2,208.9C399.6,207.5 399.3,207.7 398.5,212.8C396.3,228 389,238.9 378.2,243.2C373.5,245 370.5,245.4 361,245.5C337.7,245.5 327.2,238.1 321.8,217.7C320.8,213.8 319.9,210.5 319.7,210.3C318.7,209.4 295,218.6 295,220C295,220.4 296.1,224.3 297.4,228.8C304.3,251.7 306.9,271.1 307.7,305.3L308.3,332L311.1,332C314.8,332 320.2,336.8 322.9,342.4C325.7,348.1 325.7,357.3 323,361.8C321.9,363.5 321.1,365 321.3,365C321.4,365 325.3,364.3 330,363.4ZM412.1,344.8L411.2,341.5L411.1,344.7C411,346.4 411.3,348.7 411.7,349.7C412.9,352.7 413.3,348.8 412.1,344.8ZM282.9,301.9C281.2,298 278,291.7 275.7,287.9C271.1,280.2 262.4,269 261.1,269C260.6,269 259.8,270.2 259.2,271.8C257.4,276.7 252.2,282.8 247.3,285.7L242.5,288.5L249,289.1C262.4,290.3 274.9,296.2 282.1,304.9C284,307.1 285.6,309 285.7,309C285.8,309 284.6,305.8 282.9,301.9ZM452.8,293.8C458.6,290.9 460.7,290.4 470,289.9C475.8,289.6 479.8,289.3 479,289.2C475.1,288.7 466.6,281.6 462.7,275.3L458.5,268.8L456.3,271.7C448,282 435.1,302.4 435,305.3C435,305.7 437.5,304.1 440.5,301.6C443.6,299.1 449.1,295.6 452.8,293.8ZM501,298C501,295.5 497.6,293.4 492,292.6L487.5,291.9L492.5,294.5C495.3,296 498.2,297.8 499,298.6C500.9,300.4 501,300.4 501,298ZM227,294.5C232,293.4 231.2,292.3 225.9,293C221,293.6 219,295 219,297.8C219,298.7 219.8,298.5 221.5,297.1C222.9,296 225.4,294.8 227,294.5ZM290.5,266.8C289.7,260.6 287.7,248.9 286.3,240.8C283.4,224.9 283,224.2 278.1,227.6C276.8,228.5 272.4,231.1 268.1,233.4C263.9,235.6 259.6,238 258.5,238.7C256.7,239.7 257.2,240.4 264.4,247.1C271.3,253.5 289.2,275.7 290.8,279.9C292.2,283.5 292.1,277.9 290.5,266.8ZM437,268.5C441,263 448.7,254 454.2,248.6C461.2,241.5 463.7,238.4 462.8,237.8C462.1,237.4 461.2,237 460.7,237C460.3,237 456.4,234.8 452,232C442.6,226.2 437.1,223.5 436.4,224.3C435.6,225.1 428.1,273.9 428,278.5C428,280.8 427.9,280.9 437,268.5ZM638.5,232C647.4,228.9 651.4,224.2 647.6,221.1C646.6,220.2 645.1,220.4 641.4,221.7C637.2,223.2 633,223.5 612.5,223.5C591.7,223.5 587.9,223.3 584.1,221.7C580,220 579.6,220 577.9,221.6C576.8,222.5 576,223.9 576,224.6C576,226.4 582.7,231.9 585.8,232.6C587.3,232.9 589,233.3 589.5,233.5C590.1,233.7 600,233.9 611.6,233.9C630.3,234 633.4,233.8 638.5,232ZM368.7,229.7C370.5,228.7 369,228.5 359.9,228.5C350.4,228.5 349.3,228.7 351.7,229.7C355.3,231.3 365.9,231.3 368.7,229.7ZM365.7,215C369.1,213 371.3,209.4 372.4,204.3L373.1,201.2L367.6,200.5C361.6,199.7 350.3,200.6 348.1,202C346.1,203.2 347.4,209.7 350.2,212.8C354.5,217.4 360.4,218.2 365.7,215ZM619.6,205.1C627,203.7 635.1,200.4 638.9,197.2L642.2,194.5L634.6,179.1C625,159.8 624.8,157.5 632,153.1C646.6,144.1 656,128.6 656,113.6C656,107.6 653.2,97.3 649.9,91.2C647.6,86.9 634.6,73 632.9,73C631.4,73 631.9,65.6 633.6,63.2C635.1,61.1 635,60.7 632.5,57.4C628.8,52.5 622.6,48.3 616.8,46.5C607.1,43.7 594.9,48.1 587.7,57.2C584.8,60.8 584.8,61.1 586.3,62.8C587.3,63.9 588,66.3 588,68.6C587.9,72.1 587.4,72.9 582.8,76.5C580.1,78.7 576.5,82.1 574.9,84.1C569,91.6 564,104.3 564,112.1C564,117.5 567.4,129.3 570.5,134.7C574.3,141.1 583.4,149.9 590.4,153.9C595.1,156.7 596,157.6 596,160C596,161.6 592.8,169.7 588.9,178.1C585.1,186.4 582.1,193.9 582.4,194.6C583.6,197.6 596.3,203.5 605,205C611.5,206.1 614.1,206.1 619.6,205.1Z" style="fill:rgb(45,95,47);fill-rule:nonzero;"/>
            <path d="M108,330.8C108,327.3 112.4,319.4 119.5,310.2C122.8,305.8 123.9,305 126.7,305C129.8,305 130,305.2 130,308.3C130,310.7 128,314.4 122.4,322.8C115.2,333.4 114.6,334 111.4,334C108.2,334 108,333.8 108,330.8Z" style="fill:rgb(45,95,47);fill-rule:nonzero;"/>
            <path d="M120,297.2C120,290.8 130.7,270.4 138.3,262.3C140.6,259.9 142.3,259 144.7,259C147.8,259 148,259.2 148,262.7C148,266.9 144.2,274.3 133.8,290.3C127.1,300.4 126.5,301 123.4,301C120.1,301 120,300.8 120,297.2Z" style="fill:rgb(45,95,47);fill-rule:nonzero;"/>
            <path d="M597.9,146.6C591.9,144.3 586.1,140 582.6,135.1C577.3,127.7 576.5,124.6 576.5,112.5C576.5,102.3 576.7,101.1 579.4,95.7C582.7,89.3 587.6,84.3 594.2,80.8C598,78.8 599.9,78.5 610,78.5C623.6,78.5 626.7,79.6 634.6,87.5C648.9,101.7 647.9,128 632.7,140.3C625.2,146.4 622.4,147.4 611.5,147.7C604.7,147.9 600.3,147.5 597.9,146.6ZM613.6,119.4C615,118.4 616.8,116.4 617.5,114.9C618.9,112.3 618.8,112 615.6,108.6C613.8,106.6 611.5,105 610.5,105C608.7,105 602,111.1 602,112.9C602,114.6 608.1,121 609.6,121C610.4,121 612.2,120.3 613.6,119.4Z" style="fill:rgb(45,95,47);fill-rule:nonzero;"/>
            <path d="M602.9,684C590.2,677.3 587.8,661.2 597.8,650.8L602,646.5L602,288.2L598.1,280.4C595.9,276 591.8,269.7 589.1,266.2C583.8,259.8 583.1,257.1 585.2,252.5L586.3,250L638,250L639,252.6C640.9,257.5 640.1,259.9 634.1,267.3C630.8,271.2 626.8,277.4 625.1,281L622,287.5L622,646.1L625.9,650.8C631,656.9 632.7,663.1 631,669.8C628,682.5 613.7,689.7 602.9,684Z" style="fill:white;fill-rule:nonzero;"/>
            <path d="M323,681C300.5,678 286.5,671.2 257,649C245.2,640.1 223.8,624.2 209.5,613.7C140.5,563.1 109.5,537.5 90,514.9C84.6,508.6 84.2,507.9 83,500.1C81.6,490.9 81.5,491 89,485.5C97.3,479.4 104.9,476.3 119.9,473.1C149,466.8 170.9,459.1 197.1,446C212.7,438.2 218.5,434.7 248,414.8C275.5,396.4 298.9,384.4 316,380.1C330,376.5 344.6,375 363.9,375C400.1,375 427.2,384.9 470,413.5C505.7,437.4 521.6,446.6 543.3,455.9C554.5,460.7 573.7,467.2 584.8,470.1L590,471.4L590,481.2C590,486.6 589.7,491 589.3,491C588.8,491 585.6,488.7 582.1,486C574.5,480.1 573,480.6 575.5,488C576.4,490.8 577,493.3 576.8,493.5C576.6,493.8 574.8,492.6 572.9,491.1C565,484.6 554.7,479.5 533.9,472C506,461.9 484.7,452 447,431.5C404.7,408.5 387.9,403 360.5,402.9C332.8,402.9 313.4,409.1 275.8,429.9C239.5,450 211.9,463 180.5,474.7C162,481.7 152.2,486.7 145.8,492.8C144.3,494.2 142.8,495.1 142.5,494.8C142.2,494.6 142.7,492.3 143.6,489.7C144.5,487.2 145,484.4 144.8,483.7C144.6,482.7 138.3,486.2 125.3,494.4C114.7,501.1 106,506.8 106,507.3C106,508.6 108.6,508.1 114.1,505.6C117.1,504.3 120.5,503 121.7,502.6C123.7,501.9 123.8,502.1 122.7,504.9C122.1,506.6 121.8,508.1 122.1,508.4C123.1,509.4 140.8,502.3 165,491C186.9,480.8 206,473 209,473C210.3,473 206.9,480.9 204.6,483.1C201.7,485.8 179.8,495.1 161.1,501.5C152.4,504.5 145.3,507.5 144.8,508.4C143.7,510.3 146,510.5 156,509C168.6,507.2 171,507.1 171,508.1C171,509.4 157.2,539.1 156.1,540.3C155.7,540.7 150.9,535.2 145.4,528C140,520.9 135.1,515 134.6,515C131.5,514.9 140,533.6 148.7,545.8C165,568.5 185.6,587.7 226.5,618.4C262.4,645.2 281.5,655 305,658.6C328.6,662.1 389.6,662.3 413.5,659C436.9,655.7 457.8,645 494.6,617.4C525.6,594.3 548.9,573.8 560.5,559.6C571.4,546.1 584,522.7 581.6,520.2C581.3,519.9 580,521 578.8,522.6C577.5,524.2 573.7,529 570.3,533.4L564,541.3L556.2,524.9C551.8,515.9 547.9,507.4 547.5,506.1C546.8,503.8 546.9,503.8 550.4,504.4C552.4,504.8 557.5,506.2 561.7,507.5C566,508.9 570.8,510 572.5,510C575.4,510 575.4,510 573.5,508.1C571.8,506.4 558,500.7 526.1,488.5C517.3,485.2 513.4,481.9 511.5,476.5C510.8,474.3 510.3,472.4 510.5,472.2C510.6,472 513.4,473.1 516.6,474.5C519.9,476 529.5,479.9 538,483.2C546.5,486.6 557.2,491.5 561.8,494.2C572.9,500.8 581.4,504.7 586.1,505.5L590,506.2L590,552.6L571.8,567.2C546.4,587.4 527.1,601.8 478,637.5C435.3,668.4 427.7,673.4 418.6,676.5C405.8,680.7 399.6,681.3 364,681.6C345,681.7 326.6,681.5 323,681Z" style="fill:white;fill-rule:nonzero;"/>
            <path d="M338.9,648.5C340.8,646.3 342,643.8 342,642.2C342,636.2 342.9,635.9 360.5,636.2L376.5,636.5L377.1,640.7C377.6,644.7 379.4,647.8 383,650.7C384.2,651.7 379.6,651.9 360.1,652L335.8,652L338.9,648.5Z" style="fill:white;fill-rule:nonzero;"/>
            <path d="M301.5,649C286.6,645.6 269.5,638.3 257.2,630.2L251.7,626.5L256.7,624.3C259.5,623.1 262.7,620.8 264,619C266.1,616.1 266.3,616 268,617.5C269.7,619 269.7,619.4 268.3,623.9C266.3,630 267.7,633.3 274,637.2C285.2,644.1 300,641.9 300,633.4C300,631.5 300.5,631 302.4,631C305.6,631 306.7,632.6 307.2,638.7C307.6,642.3 308.5,645 310.4,647.5C313.6,651.7 313.4,651.7 301.5,649Z" style="fill:white;fill-rule:nonzero;"/>
            <path d="M408.1,648.9C411,646 413,640.8 413,636.1C413,632.6 413.4,631.9 415.4,631.4C418.6,630.6 420,631.6 420,634.4C420,635.6 421.1,637.7 422.4,638.9C426,642.3 436.1,642.1 443.4,638.6C446.3,637.2 449.5,635.1 450.5,634C452.5,631.8 452.7,626.1 451,621.4C450.2,619.3 450.2,618.3 451.4,617.2C452.7,615.9 453.3,616.2 456.7,619.8C459.3,622.5 461.7,624 464.3,624.5C466.3,624.9 468,625.5 468,625.9C468,626.8 454.4,635.4 447.5,638.8C436.5,644.2 414.8,650.9 407.8,651C406.2,651 406.2,650.8 408.1,648.9Z" style="fill:white;fill-rule:nonzero;"/>
            <path d="M321,645.3C318.1,644.2 315,640.6 315,638.3C315,635.7 317.4,630.6 328.3,610.1C333.8,599.9 335.6,597.2 336.1,598.6C337.2,601.4 337.1,624.3 336,633C334.7,642.7 332.8,645.4 326.9,645.7C324.5,645.8 321.8,645.6 321,645.3Z" style="fill:white;fill-rule:nonzero;"/>
            <path d="M387.5,643.7C384.9,641.5 384.5,640.4 383.9,633.4C382.7,620.4 382.8,597.8 384.1,598.2C385.7,598.7 403.8,632.9 404.6,636.8C405.5,641.7 401.9,645.1 395.3,645.7C391.1,646.1 389.9,645.8 387.5,643.7Z" style="fill:white;fill-rule:nonzero;"/>
            <path d="M281.4,634.6C278.1,633.1 275,629.5 275,627.1C275,624.7 287,604.4 290.1,601.4L293,598.6L293,613.2C293,630 292.2,633.4 287.8,634.9C286.1,635.5 284.7,636 284.6,636C284.5,635.9 283.1,635.3 281.4,634.6Z" style="fill:white;fill-rule:nonzero;"/>
            <path d="M429.7,634C427.6,632.3 427.5,631.4 427.2,615.3L427,598.5L431,603C436,608.5 445.6,627 444.7,629.3C443.9,631.5 439.8,634 435.5,635C432.7,635.6 431.5,635.4 429.7,634Z" style="fill:white;fill-rule:nonzero;"/>
            <path d="M347.9,627.5C346.4,626.7 344.7,624.7 344.2,623.1C343.6,621.4 342.8,610.8 342.4,599.5C341.7,577.9 341,575.3 337.2,577.6C336.2,578.2 330.7,588 324.8,599.5C319,610.9 313.6,620.7 312.8,621.1C310.2,622.8 305.2,622 302.3,619.6L299.6,617.2L300.8,605.7C302.4,591.2 303.5,587.2 306.8,583.7C310.3,580 313.3,578.7 326,575.6C341.7,571.6 359.7,570.5 374.6,572.4C391.2,574.6 406.7,578.7 412.2,582.3C417.5,585.9 418.7,589.5 419.5,604.2L420.2,617.4L417.6,619.7C414.4,622.4 407.9,622.8 405.9,620.4C405.2,619.6 400.1,609.8 394.6,598.7C389,587.6 383.7,578.1 382.8,577.5C381.5,576.8 380.6,577 379.3,578.3C377.8,579.8 377.5,582.8 377.2,602.4C376.9,614.7 376.4,625.4 376,626.1C374.3,628.8 352.3,629.9 347.9,627.5Z" style="fill:white;fill-rule:nonzero;"/>
            <path d="M244,614.4C241.8,612.4 240,609.9 240,608.9C240,606.4 255.8,574.8 256.8,575.4C257.2,575.6 257.1,584.9 256.5,595.9C255.4,617.3 255.3,618 250.3,618C249,618 246.2,616.4 244,614.4Z" style="fill:white;fill-rule:nonzero;"/>
            <path d="M465.2,616.8C464.7,616.1 463.9,607 463.5,596.5L462.9,577.5L465.4,580.5C468.7,584.4 480,606.3 480,608.8C480,611.7 472.6,618 469.1,618C467.5,618 465.8,617.4 465.2,616.8Z" style="fill:white;fill-rule:nonzero;"/>
            <path d="M113.1,608.1C94.3,589.1 78.3,562.6 69,535.1L66,526.5L66,537.3C66,544.4 66.7,551.7 68,558.2C69.2,563.7 69.9,568.4 69.7,568.6C69.5,568.9 67.5,566.7 65.2,563.8C56.9,553 50.4,536.2 46.9,516.4C43.8,499.2 43.6,465.1 46.4,449.5C50.6,426.4 58,402.4 72.2,366.1C90.1,320.2 104.2,285.2 110,272.5C111.8,268.7 115.4,260.6 118.1,254.5L123,243.5L114.5,252C109.9,256.6 105.9,260.2 105.6,259.9C104.8,259.1 112.4,242.1 120,227.5C145.3,179.2 185.8,126 223.9,91.2C238.7,77.8 255,65.8 255,68.4C255,68.6 253.4,71.4 251.4,74.6C248.5,79.4 242.1,92 240.2,96.5C240,97.1 243.5,93.9 248.1,89.4C278.6,59.9 309.5,40.5 342.2,30.6C360.3,25 364.2,25.1 383,31.2C401.4,37.2 415.5,44.2 436,57.5C449.2,66.1 459.5,74.5 473.3,87.9L485,99.4L479.8,89.4C477,84 472.9,76.9 470.8,73.7C468.7,70.5 467,67.7 467,67.4C467,66.1 469.7,67.7 479.1,74.6C492,84.1 527.2,119.1 542.4,137.5C554.9,152.7 571,174.3 571,176C571,176.6 569.7,180.2 568,184C564.5,191.9 564.2,197.9 566.8,203L568.7,206.4L564.8,211.4C560.6,217 559.5,220.9 560.2,227.4C560.8,232.6 565.8,240.2 570.6,243.3C573.2,245 573.9,246 573.5,247.5C570.9,256.8 570.6,259.8 572.4,264.1C573.3,266.5 576.2,270.8 578.8,273.7C581.5,276.5 585,281.7 586.7,285.2L589.8,291.5L590,312.5C590.1,330.4 589.9,333.3 588.7,332C587.9,331.2 584.4,326.9 580.9,322.5C574,313.8 556,294 544,282C510.3,248 465.5,216.8 427.5,200.8C416.9,196.3 395.5,189.4 386.5,187.5C375.6,185.2 358.1,184.5 347.9,185.9C301.8,192.4 245.1,221.9 197.5,264C143.6,311.7 91.5,383.1 75.5,431.3C69.7,448.9 68.5,456.4 68.6,476.5C68.6,491 69.1,496.4 70.8,504.5C74.8,523 83.1,545.2 94.5,567.9C100,578.9 115.3,605.1 119.7,610.8C124.9,617.7 121,616.1 113.1,608.1ZM118.7,320.8C126.8,308.8 128.2,306.3 124.6,310.5C121.9,313.7 114.1,325 112.1,328.8C109.6,333.5 112,330.6 118.7,320.8ZM130.7,287.5C136.8,278.3 145,263.9 145,262.5C145,260.9 139.8,266.5 136,272C130.2,280.5 120.4,300.9 123.8,297.5C124.3,297 127.4,292.5 130.7,287.5Z" style="fill:white;fill-rule:nonzero;"/>
            <path d="M487.1,605C485.6,598.3 486.2,596.6 490.9,594.8C492.9,594.1 494.8,594.4 499.2,596.2C502.4,597.4 505,598.7 505,599.1C505,599.6 501.1,602.4 491,609.2L488.4,610.9L487.1,605Z" style="fill:white;fill-rule:nonzero;"/>
            <path d="M222.5,604.9C218.6,602.1 215.4,599.6 215.2,599.2C215.1,598.7 217.5,597.3 220.6,596.1C225.9,593.8 226.4,593.8 229.6,595.3C234.1,597.5 234.7,600.5 231.8,605.7L229.5,609.8L222.5,604.9Z" style="fill:white;fill-rule:nonzero;"/>
            <path d="M268.1,606.8C264.6,603.1 263.7,598.8 264.9,591.1C265.5,587.2 266,583.9 266,583.6C266,583.3 272.5,583 280.6,583L295.1,583L288.3,590.8C284.6,595 279.8,600.9 277.7,603.8C273.5,609.5 271.2,610.2 268.1,606.8Z" style="fill:white;fill-rule:nonzero;"/>
            <path d="M445.5,608.2C444.9,607.8 442.3,604.6 439.8,601C437.2,597.4 432.8,592.1 430.1,589.1C427.3,586.1 425,583.5 425,583.3C425,583.2 431.3,583 439,583.1L453.1,583.1L454,585.6C454.6,587 455.1,591.5 455.2,595.6C455.5,603 455.4,603.2 452.2,606.1C448.9,609 447.3,609.6 445.5,608.2Z" style="fill:white;fill-rule:nonzero;"/>
            <path d="M210.2,587.9C207.8,586.7 205.2,584.7 204.3,583.3C202.8,581.1 202.9,580.7 205.5,577C208.8,572.3 222.5,559 224.1,559C224.8,559 225,560 224.6,561.8C224.3,563.3 222.9,569.6 221.6,575.8C219.1,587 217.9,590 215.6,590C215,590 212.6,589 210.2,587.9Z" style="fill:white;fill-rule:nonzero;"/>
            <path d="M501.9,588.8C501,588 499.4,582.9 498.1,576C496.8,569.7 495.2,563 494.4,561.1C493.6,559.2 493.1,557.5 493.3,557.3C494.2,556.5 506.3,565.5 510.5,570.2C515.7,576 516.9,579.3 514.9,582.8C512,587.9 504.8,591.2 501.9,588.8Z" style="fill:white;fill-rule:nonzero;"/>
            <path d="M233.3,587.5C228.4,585.4 226.5,580.4 229.3,576.6C230.5,575 230.8,575 235.9,576.7C242.7,579 243.7,580.4 241.7,585.3C239.9,589.4 238.5,589.8 233.3,587.5Z" style="fill:white;fill-rule:nonzero;"/>
            <path d="M478.6,586.8C474.7,581.3 477.8,576.4 485.9,575.3C489.6,574.8 490,575 491,577.5C492.4,581.3 491.5,583.6 487.2,586.5C482.7,589.6 480.6,589.6 478.6,586.8Z" style="fill:white;fill-rule:nonzero;"/>
            <path d="M190.3,578.9C181,571.5 170.9,561 167.1,554.6C165.2,551.5 163.9,548.8 164.1,548.5C164.6,548.1 192.1,568.7 195.3,571.9C196.7,573.2 197,574.9 196.8,578.8L196.5,583.8L190.3,578.9Z" style="fill:white;fill-rule:nonzero;"/>
            <path d="M523,580C523,573.8 525.5,570.1 534.8,562.2C539.6,558.3 545.9,552.9 548.8,550.4C553.6,546.1 554,545.9 554,548.1C554,553.6 541.9,569.6 530.9,578.6C527.3,581.6 524,584 523.6,584C523.3,584 523,582.2 523,580Z" style="fill:white;fill-rule:nonzero;"/>
            <path d="M634,566.8C634,557.7 634.2,556.7 638.3,546.8C652.4,513.3 657.5,482.8 653.6,456C651.6,442.5 645.1,422 638.5,408.5L634,399.4L634,361.5C634,340.7 634.2,323.9 634.5,324.1C635.7,325.3 659.8,388.4 664.5,402.8C669.1,416.6 674.4,437 676.7,449C679.1,462.6 679.2,501.6 676.7,514.7C672.8,535.6 665.7,553.9 657.9,563.1C655.6,565.8 653.5,567.9 653.3,567.6C653.1,567.4 653.8,562.9 654.9,557.6C656.3,551.3 657,544.6 657,537.8L656.9,527.5L653.5,537C650,546.6 638.4,570.8 635.6,574.5C634.2,576.3 634.1,575.8 634,566.8Z" style="fill:white;fill-rule:nonzero;"/>
            <path d="M517.5,563.9C517.1,563.3 517,562.7 517.1,562.6C519.2,561 536.4,551 536.6,551.3C537.4,552.1 533.6,556.2 529.4,559C523.4,563.2 518.3,565.3 517.5,563.9Z" style="fill:white;fill-rule:nonzero;"/>
            <path d="M194.3,560.9C187.5,558 178.6,551.5 173.6,545.8C171.1,542.9 169,540.2 169,539.7C169,539.2 171.6,540.9 174.8,543.5C182.1,549.5 195.7,559.7 197.8,560.9C201,562.7 198.4,562.7 194.3,560.9Z" style="fill:white;fill-rule:nonzero;"/>
            <path d="M485.5,497.5C486.3,479.8 486.8,476.5 489,474.5C492.8,471.1 501.9,473.6 504.2,478.5C506.5,483.5 501.5,492.7 489.6,505.5L484.9,510.5L485.5,497.5Z" style="fill:white;fill-rule:nonzero;"/>
            <path d="M634,498.9L634,487.6L637,490.5C639.3,492.7 640,494.2 640,497.3C640,501.4 637.8,507.1 635.4,509.1C634.2,510.1 634,508.5 634,498.9Z" style="fill:white;fill-rule:nonzero;"/>
            <path d="M226.6,500.5C214.4,486.8 212.3,480.5 218.1,475.6C220.3,473.7 222.3,473 225.4,473C232.5,473 233.1,474.3 234,492.7C234.4,501.4 234.7,508.6 234.5,508.8C234.4,508.9 230.8,505.2 226.6,500.5Z" style="fill:white;fill-rule:nonzero;"/>
            <path d="M394.3,481.7C389.9,465.2 389.1,455.4 391,440C391.7,434.8 392.8,430.5 393.9,429C396.4,425.6 401,424.4 406,425.9C410.8,427.3 417,432.5 417,435C417,436.1 415,441.1 412.6,446.2C407.1,458.1 402.7,469.5 399.5,480.6C398.1,485.4 396.8,489.5 396.7,489.6C396.6,489.8 395.5,486.2 394.3,481.7Z" style="fill:white;fill-rule:nonzero;"/>
            <path d="M270,479.2C265.3,474.3 261.4,469.1 259.6,465.2C257,459.7 256.8,458.9 258,456C260.9,449 271.8,445.6 277.1,449.9C279.4,451.8 279.5,452.3 279.8,469.4C280.1,483.4 279.9,487 278.8,487C278.1,487 274.1,483.5 270,479.2Z" style="fill:white;fill-rule:nonzero;"/>
            <path d="M320.6,480.8C318.8,474.1 313.5,460.4 308.9,450.5C302.1,435.6 301.7,433.5 305.3,430.2C308.2,427.4 314.2,425 318,425C322.2,425 326.5,429.4 328,435.1C329.6,440.8 329.6,465 328.1,471.5C326,480.5 323.9,487 323.1,487C322.7,487 321.6,484.2 320.6,480.8Z" style="fill:white;fill-rule:nonzero;"/>
            <path d="M440,466.2C440,449.6 440.3,448.9 448.2,448.2C453.5,447.8 453.9,448 457.9,451.5C460.5,453.8 462,456.1 462,457.6C462,461.6 444.7,480 440.9,480C440.4,480 440,473.8 440,466.2Z" style="fill:white;fill-rule:nonzero;"/>
            <path d="M231.7,466.1C229.7,465.6 227.7,465 227.4,464.7C226.8,464.1 248.1,453 249.9,453C250.8,453 250,457.6 248.5,461.2C246.9,465.2 239,467.5 231.7,466.1Z" style="fill:white;fill-rule:nonzero;"/>
            <path d="M476.3,465.4C474.3,464.4 472.3,462.1 471,459.6C467.1,451.5 467.9,451.4 481.2,458.1C494.4,464.8 494.8,465.7 484.7,466.6C481.1,466.9 478.5,466.6 476.3,465.4Z" style="fill:white;fill-rule:nonzero;"/>
            <path d="M113,463.7C113,463.4 115.7,459.7 119,455.4C122.3,451.1 126.4,444.7 128.2,441.1C132.1,433.4 132.6,432.8 136.1,433.5C139,434.2 141.4,432.1 140.8,429.3C140.4,427.1 133.7,422.5 128.6,421C125.8,420.2 120.9,420 112.9,420.5L101.2,421.2L99.4,418.5C98.5,417.1 97.7,414.6 97.7,413.2C97.8,409.6 114.2,380.1 119.2,374.6C120.2,373.5 121,372.2 121,371.7C121,370.5 126.8,362 129.7,359.1C131,357.8 132,356.2 132,355.6C132,355 133.4,352.9 135.2,351C137.9,348 144.7,339.3 151.5,330C153.6,327.1 158.2,322 164.1,315.8C166.1,313.7 168.9,310.5 170.4,308.6C174.6,303 200.1,277.6 204.8,274.2C207.2,272.5 211.3,269.2 213.9,266.8C221.6,260 226,256.4 233.5,250.9C237.4,248.2 241.6,245 243,243.9L245.5,241.9L247.4,246.2C248.5,248.6 249.6,253.1 249.8,256.2C250.5,265.9 245.2,272.7 231.8,279C228.4,280.6 223.6,282.2 221.1,282.5C209.7,284.1 209.6,284.3 208.6,296C208.1,302.3 203.6,315.1 193.6,339.1C183.7,362.8 185.2,385.6 197.3,393.9C202.1,397.1 209.2,399.6 216.7,400.5C219.6,400.9 222.2,401.5 222.5,401.9C222.7,402.4 218.2,404.4 212.4,406.5C200.5,410.9 200.4,412.7 211.9,411.6C239.3,409.1 262.3,395.5 277.3,372.9C289.4,354.8 295,351.7 294,363.8C293.9,365 294.1,366 294.5,366C296,366 300.1,360.1 302.2,355C304.4,349.7 304.5,348.3 304.5,317.5C304.5,284.6 303.8,274.4 299.9,254.2C298.2,245.4 292.6,224.3 290.5,218.8C290,217.6 291.1,216.6 294.7,215C300.3,212.5 322.1,204.8 322.5,205.2C322.6,205.4 323.5,208.9 324.4,213C329.3,233.5 340.5,242.5 361,242.4C372.3,242.3 379.1,239.7 385.3,233.1C390.7,227.3 392.5,223.4 395,212.2C396,207.6 397.1,203.6 397.4,203.3C397.9,202.7 404.4,205.1 422.3,212.3C426.5,214 430,216 430,216.6C430,217.3 428.2,223.5 426,230.4C417.2,258.1 414.6,280.1 415.3,321.5C415.7,352 416,353.7 420.7,361.3C424.5,367.3 428.2,367.8 426.2,362C425,358.6 425.5,356 427.5,356C429.5,356 438.3,366 442.5,373C448,382.3 454.4,389.6 462,395.1C474.7,404.5 505.3,414.5 515.5,412.6C520.2,411.7 519.4,410.9 510.2,407.6C506.2,406.2 501.5,404.3 499.7,403.4L496.5,401.7L505.1,400C528.7,395.2 535.8,384 532.5,357C531.5,348.1 529.3,341.6 523.1,329C513.6,309.4 511.7,303.9 511.1,294L510.5,285.6L507,284.4C505.1,283.8 500.9,282.8 497.8,282.2C486.9,280.2 474.9,272.6 471.6,265.6C469.3,260.8 469.5,251.9 472.1,245.9C473.3,243.2 474.5,241 474.9,241C475.2,241 477.5,242.8 480,245C482.5,247.2 484.9,249 485.5,249C486.5,249 500.7,259.7 505.5,264.1C507.2,265.6 510.7,268.8 513.4,271.2C517.9,275.1 538.3,294.6 546.9,303C548.9,305 552.3,309 554.5,311.9C558.8,317.7 562,321 563.1,321C563.5,321 565.5,323.3 567.6,326.2C569.7,329.1 572.5,332.5 573.9,333.9C575.2,335.3 577.4,338.3 578.8,340.5C580.2,342.7 581.6,344.7 582.1,345C582.5,345.3 584.4,347.5 586.4,350C589.1,353.3 590,355.5 590,358.3L590,362L584.8,355.9C579.4,349.6 574.4,345.2 573.5,346.1C573.3,346.4 574.9,349.7 577.1,353.6C579.4,357.4 583.2,364 585.6,368.4L590,376.2L590,405.5L579.5,411.4C568.7,417.5 563.1,422 566.4,422C569.4,422 582.8,419 586.4,417.5L590,416L590,419.5C590,422.3 589.5,423.2 587.2,424.4C580.1,428.1 579.1,433.3 585.7,432.8L589.5,432.5L589.8,446.3C589.9,454.3 589.7,460 589.1,460C585.7,460 559.6,452.5 551,449.1C526.2,439.1 509.5,429.5 463,398.7C423.3,372.4 399.8,364.5 362,364.5C340.6,364.6 329.8,366.1 308.6,372.1C291.1,377.1 280,382.7 256,398.9C196.4,439 167,453.2 127.5,461C121.5,462.2 115.7,463.4 114.8,463.6C113.8,463.9 113,463.9 113,463.7ZM147.4,417.2C144.6,414.6 137.9,410 132.4,406.9C126.5,403.5 121.9,400.2 121,398.6C119.6,396.1 119.7,395.5 123.8,387.6C126.1,383 131.9,373.4 136.5,366.2C143.5,355.3 148,347.2 148,345.3C148,344.4 143.6,347.4 139.8,350.8C130.6,359.1 121.6,373.5 115.1,390.2C109.8,403.9 109.8,405.2 115.3,408.7C124.2,414.3 144.6,421.9 151,421.9C151.8,421.9 150.2,419.8 147.4,417.2ZM181.5,418.1C181.8,417.6 176.6,413.4 170,408.9C153.3,397.5 149,393.4 149,388.7C149,385 158.5,365.4 172.4,340.6C176.1,334.1 178.9,328.3 178.8,327.8C178.2,326.1 167.1,336.1 160.8,343.9C157.4,348.1 152.6,354.7 150.2,358.5C145.5,365.8 134,389.8 134,392.3C134,394.4 139.9,399.3 150,405.8C160,412.3 165.1,414.7 174,417.1C177.6,418.1 180.6,418.9 180.7,418.9C180.8,419 181.1,418.6 181.5,418.1ZM554,413.8C560.2,411.5 573.8,403.8 579.5,399.3C584.1,395.6 585,394.5 585,391.7C585,385 578.4,371 568.7,357.1C557.1,340.4 551.4,333.8 544.2,328.9C540.8,326.5 539.9,326.2 539.4,327.4C538.7,329.3 539.7,331.1 548.5,344.5C557.3,357.9 566.1,374.3 568.9,382.8C570.8,388.4 570.9,389.3 569.6,392.4C568,396.2 562.1,400.9 548.3,409.5C543.2,412.6 539,415.5 539,415.9C539,416.9 549.6,415.4 554,413.8ZM314,364.2C318.3,362.1 322,356.7 322,352.7C322,348.4 318.5,341.6 314.3,338C312.4,336.3 310.6,335.1 310.4,335.3C310.1,335.5 310.5,338.1 311.1,341.1C312.5,347.4 311.6,350.7 306.2,358.7C304.4,361.5 303.1,364.4 303.5,364.9C304.5,366.6 310.1,366.2 314,364.2ZM416.4,364.5C416.7,363.6 415.3,361.2 413,358.5C407.1,351.7 406,345.1 409.5,336.8C410.8,333.5 407.3,334.8 404.2,338.8C395.2,350.3 396,359.4 406.4,364.1C411.4,366.3 415.6,366.5 416.4,364.5Z" style="fill:white;fill-rule:nonzero;"/>
            <path d="M273.7,441.3C272.2,440.9 272.5,440.3 275.7,438.1C281.8,433.6 297,425.7 297,427C297,430.3 291.1,437.5 286.5,439.7C284,441 276.1,442 273.7,441.3Z" style="fill:white;fill-rule:nonzero;"/>
            <path d="M439.5,441.3C438.4,441.1 436.5,440.7 435.2,440.4C432,439.7 425.2,433.3 422.9,428.8C421.8,426.7 421.3,425 421.6,425C422,425 424.5,426.4 427.2,428C429.8,429.7 432.2,431 432.5,431C432.7,431 436.5,433.2 441,435.9C448,440.1 448.8,440.8 446.8,441.4C444.3,442 442.7,442 439.5,441.3Z" style="fill:white;fill-rule:nonzero;"/>
            <path d="M346,422C335.9,420.9 323,418.2 323,417.1C323,416.6 325.6,415.5 328.8,414.7C344.1,410.4 362.2,409.3 376.5,411.6C387.2,413.4 398,416.1 398,417.1C398,417.9 391,419.6 382,420.9C371.7,422.5 355.3,422.9 346,422Z" style="fill:white;fill-rule:nonzero;"/>
            <path d="M222,392.2C211.9,391.5 202,386.6 197.5,380C191.8,371.8 193.1,357 200.7,341.1C204.5,333.1 206.6,330.3 213.9,323C220.9,316 224.2,313.5 231.4,309.9C239.9,305.7 240.8,305.5 248.9,305.5C256,305.6 258.5,306 263.2,308.2C276.2,314.2 279.9,319.2 281.1,331.7C282.1,342.9 281.1,346.1 271.5,361C262.1,375.6 256.7,380.7 244.3,386.6C234.9,391.1 228.6,392.7 222,392.2Z" style="fill:white;fill-rule:nonzero;"/>
            <path d="M491.2,391.9C479,389.8 466.2,384 460.4,377.8C457.4,374.6 446,358.1 441.1,349.8C437.8,344.2 437.6,330.8 440.7,324C445.9,312.6 455.7,305.9 468.1,305.2C477.1,304.7 483.4,306.4 492.5,311.8C504.9,319.3 519.5,337.7 523.7,351.2C526.2,359.3 526,370.4 523.1,376.8C517.9,388.3 505.4,394.3 491.2,391.9Z" style="fill:white;fill-rule:nonzero;"/>
            <path d="M290.1,327.5C287.7,320.5 282.7,311.9 278.4,307.1C270.1,297.9 256.1,292 242.9,292C237,292 236,292.3 234.7,294.3C233.9,295.6 231.5,297.2 229.4,297.8C227.2,298.5 222.6,301.5 219,304.5C212.7,309.9 210.3,311.2 211.4,308.8C211.6,308.1 213.1,303.8 214.5,299.3C217.3,290.4 216.9,290.7 225.7,289.6C240.6,287.5 252.8,278.7 257.1,266.8C257.8,264.7 258.8,263 259.3,263C261,263 267,268.3 270.8,273.3C284,290.5 292.6,312 291.8,326.1L291.5,331.5L290.1,327.5Z" style="fill:white;fill-rule:nonzero;"/>
            <path d="M428.4,320.5C428.9,310.3 431.3,302.4 437.4,291.6C441.7,284 458.6,261 460,261C460.5,261 461.1,262.3 461.5,264C462.6,269 469.5,278.6 474.5,282C479.9,285.7 487.4,288.5 494.5,289.5C500.7,290.4 504,292.4 504,295.3C504,296.5 505.4,300.4 507,303.9C508.7,307.4 509.9,310.4 509.7,310.6C509.6,310.8 505.6,308.2 501,304.9C486.9,295 483.1,293.5 471.9,293.5C462.7,293.5 462,293.7 454.6,297.4C442.5,303.5 432.7,314.6 429.1,326.1C428.2,328.9 428.1,327.8 428.4,320.5Z" style="fill:white;fill-rule:nonzero;"/>
            <path d="M289.4,285.3C277.7,267.2 265.6,252.9 253.3,242.8C251.5,241.3 250,239.9 250,239.7C250,239 258.2,234 266.5,229.5C280.6,221.9 282.5,220.8 283.8,219.8C284.5,219.2 285.2,218.9 285.4,219.1C286,219.7 291.6,250 293,259.7C293.6,264.2 294.3,268.9 294.6,270.2C295.4,274.4 296.3,294 295.7,294C295.3,294 292.5,290.1 289.4,285.3Z" style="fill:white;fill-rule:nonzero;"/>
            <path d="M424.3,283.3C424.6,277.9 425.8,267.4 426.9,260C433,220.1 432.6,222.2 434.5,219.6C435.9,217.7 436.1,217.8 439.9,220.3C442.2,221.8 444.2,223 444.6,223C444.9,223 449.1,225.4 453.9,228.4C458.6,231.3 463.4,234 464.5,234.4C465.6,234.7 467.6,235.9 469,236.9L471.5,238.9L468.5,241.1C458.1,248.8 438.5,271.9 428.4,288.2C426.8,290.9 425.1,293 424.6,293C424.2,293 424,288.6 424.3,283.3Z" style="fill:white;fill-rule:nonzero;"/>
            <path d="M584.5,236.1C580.1,235 577.5,233.4 574.5,229.8C571.3,226 571.6,221.9 575.5,218.1L577.9,215.7L584.7,218C590.6,220 593.9,220.4 609,220.8C626.3,221.2 630.8,220.7 642.5,217.5L648.4,215.8L650.8,218.6C652.7,220.8 653.1,222.1 652.6,224.8C651.9,229.7 648.7,232.6 641.7,235C636.2,236.8 633.3,237 611.6,236.9C598.3,236.8 586.2,236.5 584.5,236.1Z" style="fill:white;fill-rule:nonzero;"/>
            <path d="M348.4,232.6C339.6,228.7 331.9,216.8 331.6,206.6C331.5,202.2 331.8,201.5 333.5,201.2C335.3,201 335.9,202 337.7,208.2C341.7,221.6 350.2,227.1 364.2,225.5C372.9,224.5 376.3,221.1 380.4,209.4C382.7,203.1 384.1,200.4 385.4,200.2C387.1,199.8 387.2,200.3 386.6,204.9C385.6,212.1 382.4,222.1 379.7,226.1C375.8,232 370.9,234 360.5,233.9C355.1,233.9 350.2,233.4 348.4,232.6Z" style="fill:white;fill-rule:nonzero;"/>
            <path d="M351.5,219C347.4,217.3 344.9,213.4 343.8,206.6C343.2,203 342.9,199.8 343.2,199.5C345.2,197.5 364.2,196.3 372.4,197.7L376.3,198.3L375.7,204C374.7,215.2 369.8,220 359.5,219.9C356.2,219.9 352.6,219.5 351.5,219Z" style="fill:white;fill-rule:nonzero;"/>
            <path d="M601.9,208.1C593,206.4 578.8,199.6 577.6,196.3C577.1,195 580.5,186.6 588.3,169.8L592.9,160.1L587.3,156.9C580.4,152.9 571.2,144 567.5,137.7C563.8,131.3 561,120.2 561,112.1C561,97.1 568,82.9 579.8,73.5C582.6,71.3 584.9,69 585,68.4C585,67.8 584.1,66.5 583,65.5C580.2,63 580.5,60 584,55.2C589.7,47.2 596.2,43.8 608.1,42.4C618.5,41.2 629.5,46.2 636,55.2C639.6,60.1 639.7,62.1 636.9,66L634.7,68.9L638.1,71.7C643.7,76.3 650.7,84.2 653.1,88.5C659.2,99.8 660.7,116.2 656.9,128.6C653.3,140.2 646.1,149.3 635,156.1C632.2,157.8 630,159.5 630,160C630,160.4 633.4,167.7 637.6,176.2C641.8,184.6 645.3,192.8 645.4,194.4C645.5,198.2 639.6,202.9 630.8,205.9C623.8,208.4 609.4,209.4 601.9,208.1ZM622,142.5C631.6,137.6 637.9,129.8 640.7,119.4C644.1,106.4 635.7,90 622.2,83.4C616.5,80.5 602.9,80.8 597.2,83.8C590.6,87.3 585.7,92.3 582.4,98.7C579.9,103.7 579.5,105.6 579.5,112.5C579.5,117 580.1,122 580.9,124C584.4,132.7 592.1,140.2 600.9,143.6C605.7,145.5 617.4,144.9 622,142.5Z" style="fill:white;fill-rule:nonzero;"/>
            <path d="M607.3,124.3C606.1,124.1 603.7,122.3 602,120.4C597.6,115.4 597.8,110 602.4,105.4C605.3,102.5 606.5,102 610.5,102C614.7,102 615.7,102.5 618.6,105.6C622.4,109.5 623,113.3 620.6,117.9C618.2,122.5 612.5,125.2 607.3,124.3Z" style="fill:white;fill-rule:nonzero;"/>
        </g>
    </g>
</svg>
