<?xml version="1.0" encoding="UTF-8" standalone="no"?>
<!DOCTYPE svg PUBLIC "-//W3C//DTD SVG 1.1//EN" "http://www.w3.org/Graphics/SVG/1.1/DTD/svg11.dtd">
<svg width="100%" height="100%" viewBox="0 0 20 17" version="1.1" xmlns="http://www.w3.org/2000/svg" xmlns:xlink="http://www.w3.org/1999/xlink" xml:space="preserve" xmlns:serif="http://www.serif.com/" style="fill-rule:evenodd;clip-rule:evenodd;stroke-linecap:round;stroke-linejoin:round;stroke-miterlimit:2;">
    <g transform="matrix(1,0,0,1,-3.2231,-4.1787)">
        <g transform="matrix(0.818331,0,0,0.818331,2.20319,-0.0677259)">
            <g transform="matrix(1.222,0,0,1.222,-2.6923,0.0827611)">
                <circle cx="12.43" cy="12.496" r="8.127" style="fill:rgb(45,95,47);"/>
            </g>
            <g transform="matrix(1.222,0,0,1.222,-2.6923,0.0827611)">
                <path d="M3.581,17.302C4.558,17.302 5.533,17.304 6.508,17.302C7.501,17.301 8.492,17.297 9.484,17.295C11.628,17.291 13.77,17.289 15.913,17.285C16.05,17.285 16.187,17.279 16.324,17.285C16.36,17.287 16.41,17.319 16.421,17.348C16.491,17.539 16.514,17.599 16.366,17.726C16.218,17.854 16.084,17.996 15.937,18.126C15.902,18.159 15.844,18.185 15.796,18.185C15.616,18.185 15.435,18.169 15.255,18.167C15.106,18.165 14.957,18.179 14.809,18.179C13.426,18.18 12.046,18.18 10.66,18.179C10.068,18.179 9.477,18.179 8.886,18.176C8.681,18.175 8.478,18.16 8.275,18.157C8.197,18.156 8.119,18.176 8.041,18.176C7.054,18.176 6.065,18.175 5.077,18.174C4.973,18.174 4.882,18.161 4.784,18.099C4.373,17.846 3.951,17.611 3.535,17.369C3.5,17.347 3.469,17.319 3.423,17.284C3.783,17.073 4.135,16.886 4.462,16.667C4.705,16.507 4.957,16.456 5.242,16.459C6.453,16.47 7.665,16.466 8.877,16.46C9.523,16.456 10.172,16.432 10.818,16.429C11.428,16.425 12.043,16.437 12.654,16.442C12.939,16.444 13.229,16.445 13.517,16.447C14.22,16.452 14.919,16.457 15.622,16.466C15.672,16.467 15.729,16.485 15.772,16.512C15.937,16.615 16.095,16.732 16.265,16.826C16.436,16.92 16.455,17.062 16.434,17.227C12.145,17.251 7.863,17.276 3.581,17.299L3.581,17.302ZM18.627,19.496C18.529,19.538 18.458,19.587 18.383,19.599C18.111,19.635 17.839,19.663 17.569,19.592C17.466,19.566 17.389,19.514 17.323,19.434C17.12,19.181 17.002,18.885 16.908,18.582C16.798,18.236 16.692,17.887 16.63,17.533C16.538,17.029 16.484,16.517 16.41,16.01C16.38,15.79 16.356,15.567 16.298,15.354C16.262,15.225 16.168,15.11 16.092,14.994C16.036,14.911 15.966,14.836 15.895,14.749C16.117,14.749 16.324,14.76 16.531,14.747C16.732,14.734 16.88,14.82 17.023,14.948C17.093,15.012 17.14,15.076 17.142,15.172C17.147,15.334 17.165,15.495 17.159,15.654C17.134,16.334 17.227,16.998 17.411,17.651C17.49,17.927 17.556,18.206 17.655,18.475C17.77,18.79 17.966,19.062 18.212,19.288C18.301,19.367 18.426,19.406 18.534,19.461C18.555,19.471 18.575,19.477 18.627,19.496M17.386,15.489C17.419,15.785 17.484,16.082 17.481,16.379C17.481,16.968 17.625,17.519 17.822,18.066C17.971,18.475 18.177,18.841 18.475,19.157C18.482,19.166 18.487,19.179 18.492,19.191C18.487,19.199 18.481,19.207 18.475,19.215C18.402,19.165 18.323,19.124 18.261,19.062C18.014,18.81 17.813,18.528 17.698,18.191C17.541,17.739 17.4,17.281 17.325,16.808C17.259,16.38 17.24,15.951 17.355,15.526C17.358,15.513 17.362,15.502 17.365,15.489L17.386,15.489ZM18.071,17.39C18.058,17.508 18.042,17.673 18.017,17.839C18.012,17.873 17.975,17.904 17.952,17.936C17.918,17.911 17.863,17.892 17.849,17.858C17.779,17.667 17.697,17.475 17.661,17.277C17.613,17.027 17.604,16.769 17.578,16.514C17.57,16.435 17.59,16.401 17.684,16.403C18.001,16.411 18.007,16.416 18.024,16.737C18.033,16.938 18.052,17.14 18.071,17.39M19.749,16.837C19.933,16.655 20.157,16.765 20.389,16.719C20.312,16.975 20.242,17.204 20.17,17.432C20.165,17.445 20.133,17.456 20.111,17.457C19.861,17.477 19.861,17.477 19.808,17.234C19.795,17.167 19.787,17.099 19.778,17.032C19.769,16.968 19.759,16.904 19.749,16.837M19.106,17.478C19.164,17.253 19.212,17.045 19.269,16.839C19.273,16.821 19.304,16.801 19.325,16.799C19.366,16.795 19.408,16.801 19.447,16.806C19.639,16.823 19.642,16.823 19.685,17.018C19.709,17.13 19.729,17.245 19.746,17.36C19.758,17.439 19.729,17.48 19.639,17.479C19.465,17.476 19.287,17.478 19.106,17.478M18.562,16.746C18.771,16.761 18.962,16.774 19.184,16.792C19.12,17.016 19.072,17.231 18.997,17.436C18.961,17.529 18.855,17.465 18.784,17.474C18.769,17.475 18.743,17.424 18.735,17.394C18.681,17.204 18.629,17.012 18.578,16.821C18.573,16.802 18.569,16.783 18.562,16.746M21.414,17.339C21.292,17.377 21.184,17.477 21.036,17.44C21.012,17.433 20.979,17.412 20.973,17.39C20.907,17.191 20.846,16.989 20.78,16.778C20.924,16.771 21.056,16.76 21.187,16.763C21.217,16.764 21.262,16.813 21.274,16.848C21.325,17.006 21.367,17.168 21.414,17.339M20.265,17.445C20.333,17.22 20.395,17.015 20.46,16.812C20.467,16.789 20.507,16.757 20.523,16.76C20.58,16.772 20.669,16.786 20.684,16.823C20.745,16.974 20.79,17.133 20.831,17.29C20.856,17.373 20.799,17.434 20.716,17.437C20.61,17.441 20.499,17.447 20.389,17.452C20.353,17.453 20.319,17.448 20.265,17.445M18.635,17.471C18.497,17.471 18.379,17.473 18.261,17.468C18.239,17.467 18.206,17.429 18.203,17.406C18.182,17.199 18.166,16.992 18.15,16.784C18.318,16.745 18.395,16.781 18.451,16.936C18.516,17.108 18.57,17.284 18.635,17.471M21.438,16.919C21.539,16.919 21.636,16.916 21.734,16.922C21.748,16.923 21.778,16.966 21.773,16.984C21.768,17.009 21.74,17.044 21.716,17.048C21.661,17.055 21.601,17.048 21.545,17.044C21.457,17.04 21.457,17.039 21.438,16.919M21.85,17.078C21.875,17.012 21.88,16.954 21.909,16.934C21.968,16.896 22.126,16.966 22.198,17.058C22.092,17.132 21.985,17.053 21.85,17.078M21.533,17.198L21.729,17.198C21.731,17.306 21.717,17.316 21.552,17.311C21.547,17.279 21.54,17.244 21.533,17.198M21.799,17.353C21.81,17.215 21.891,17.205 21.992,17.231C21.951,17.335 21.898,17.372 21.799,17.353" style="fill:none;stroke:rgb(45,95,47);stroke-width:0.4px;"/>
            </g>
            <g transform="matrix(1.222,0,0,1.222,1.6838,21.2329)">
                <path d="M0,-0.006C0.977,-0.006 1.952,-0.004 2.927,-0.006C3.92,-0.007 4.911,-0.011 5.903,-0.013C8.047,-0.017 10.189,-0.019 12.332,-0.023C12.469,-0.023 12.606,-0.029 12.743,-0.023C12.779,-0.021 12.829,0.011 12.84,0.04C12.91,0.231 12.933,0.291 12.785,0.418C12.637,0.546 12.503,0.688 12.356,0.818C12.321,0.851 12.263,0.877 12.215,0.877C12.035,0.877 11.854,0.861 11.674,0.859C11.525,0.857 11.376,0.871 11.228,0.871C9.845,0.872 8.465,0.872 7.079,0.871C6.487,0.871 5.896,0.871 5.305,0.868C5.1,0.867 4.897,0.852 4.694,0.849C4.616,0.848 4.538,0.868 4.46,0.868C3.473,0.868 2.484,0.867 1.496,0.866C1.392,0.866 1.301,0.853 1.203,0.791C0.792,0.538 0.37,0.303 -0.046,0.061C-0.081,0.039 -0.112,0.011 -0.158,-0.024C0.202,-0.235 0.554,-0.422 0.881,-0.641C1.124,-0.801 1.376,-0.852 1.661,-0.849C2.872,-0.838 4.084,-0.842 5.296,-0.848C5.942,-0.852 6.591,-0.876 7.237,-0.879C7.847,-0.883 8.462,-0.871 9.073,-0.866C9.358,-0.864 9.648,-0.863 9.936,-0.861C10.639,-0.856 11.338,-0.851 12.041,-0.842C12.091,-0.841 12.148,-0.823 12.191,-0.796C12.356,-0.693 12.514,-0.576 12.684,-0.482C12.855,-0.388 12.874,-0.246 12.853,-0.081C8.564,-0.057 4.282,-0.032 0,-0.009L0,-0.006Z" style="fill:white;"/>
            </g>
            <g transform="matrix(1.222,0,0,1.222,20.0699,18.2913)">
                <path d="M0,4.595C-0.098,4.637 -0.169,4.686 -0.244,4.698C-0.516,4.734 -0.788,4.762 -1.058,4.691C-1.161,4.665 -1.238,4.613 -1.304,4.533C-1.507,4.28 -1.625,3.984 -1.719,3.681C-1.829,3.335 -1.935,2.986 -1.997,2.632C-2.089,2.128 -2.143,1.616 -2.217,1.109C-2.247,0.889 -2.271,0.666 -2.329,0.453C-2.365,0.324 -2.459,0.209 -2.535,0.093C-2.591,0.01 -2.661,-0.065 -2.732,-0.152C-2.51,-0.152 -2.303,-0.141 -2.096,-0.154C-1.895,-0.167 -1.747,-0.081 -1.604,0.047C-1.534,0.111 -1.487,0.175 -1.485,0.271C-1.48,0.433 -1.462,0.594 -1.468,0.753C-1.493,1.433 -1.4,2.097 -1.216,2.75C-1.137,3.026 -1.071,3.305 -0.972,3.574C-0.857,3.889 -0.661,4.161 -0.415,4.387C-0.326,4.466 -0.201,4.505 -0.093,4.56C-0.072,4.57 -0.052,4.576 0,4.595" style="fill:white;"/>
            </g>
            <g transform="matrix(1.222,0,0,1.222,18.553,23.5632)">
                <path d="M0,-3.726C0.033,-3.43 0.098,-3.133 0.095,-2.836C0.095,-2.247 0.239,-1.696 0.436,-1.149C0.585,-0.74 0.791,-0.374 1.089,-0.058C1.096,-0.049 1.101,-0.036 1.106,-0.024C1.101,-0.016 1.095,-0.008 1.089,0C1.016,-0.05 0.937,-0.091 0.875,-0.153C0.628,-0.405 0.427,-0.687 0.312,-1.024C0.155,-1.476 0.014,-1.934 -0.061,-2.407C-0.127,-2.835 -0.146,-3.264 -0.031,-3.689C-0.028,-3.702 -0.024,-3.713 -0.021,-3.726L0,-3.726Z" style="fill:white;"/>
            </g>
            <g transform="matrix(1.222,0,0,1.222,19.3908,20.7915)">
                <path d="M0,0.443C-0.013,0.561 -0.029,0.726 -0.054,0.892C-0.059,0.926 -0.096,0.957 -0.119,0.989C-0.153,0.964 -0.208,0.945 -0.222,0.911C-0.292,0.72 -0.374,0.528 -0.41,0.33C-0.458,0.08 -0.467,-0.178 -0.493,-0.433C-0.501,-0.512 -0.481,-0.546 -0.387,-0.544C-0.07,-0.536 -0.064,-0.531 -0.047,-0.21C-0.038,-0.009 -0.019,0.193 0,0.443" style="fill:white;"/>
            </g>
            <g transform="matrix(1.222,0,0,1.222,21.441,21.2171)">
                <path d="M0,-0.458C0.184,-0.64 0.408,-0.53 0.64,-0.576C0.563,-0.32 0.493,-0.091 0.421,0.137C0.416,0.15 0.384,0.161 0.362,0.162C0.112,0.182 0.112,0.182 0.059,-0.061C0.046,-0.128 0.038,-0.196 0.029,-0.263C0.02,-0.327 0.01,-0.391 0,-0.458" style="fill:white;"/>
            </g>
            <g transform="matrix(1.222,0,0,1.222,20.6546,20.6087)">
                <path d="M0,0.681C0.058,0.456 0.106,0.248 0.163,0.042C0.167,0.024 0.198,0.004 0.219,0.002C0.26,-0.002 0.302,0.004 0.342,0.009C0.534,0.026 0.537,0.026 0.579,0.221C0.604,0.333 0.623,0.448 0.64,0.563C0.652,0.642 0.623,0.683 0.533,0.682C0.359,0.679 0.182,0.681 0,0.681" style="fill:white;"/>
            </g>
            <g transform="matrix(1.222,0,0,1.222,19.9911,21.5027)">
                <path d="M0,-0.783C0.209,-0.768 0.4,-0.755 0.622,-0.737C0.558,-0.513 0.51,-0.298 0.435,-0.093C0.399,0 0.293,-0.064 0.222,-0.055C0.207,-0.054 0.181,-0.105 0.173,-0.135C0.119,-0.325 0.067,-0.517 0.016,-0.708C0.011,-0.727 0.007,-0.746 0,-0.783" style="fill:white;"/>
            </g>
            <g transform="matrix(1.222,0,0,1.222,23.4757,20.7326)">
                <path d="M0,0.441C-0.122,0.479 -0.23,0.579 -0.378,0.542C-0.402,0.535 -0.435,0.514 -0.441,0.492C-0.507,0.293 -0.568,0.091 -0.634,-0.12C-0.49,-0.127 -0.358,-0.138 -0.227,-0.135C-0.197,-0.134 -0.152,-0.085 -0.14,-0.05C-0.089,0.108 -0.047,0.27 0,0.441" style="fill:white;"/>
            </g>
            <g transform="matrix(1.222,0,0,1.222,22.071,20.57)">
                <path d="M0,0.68C0.068,0.455 0.13,0.25 0.195,0.047C0.202,0.024 0.242,-0.008 0.258,-0.005C0.315,0.007 0.404,0.021 0.419,0.058C0.48,0.209 0.525,0.368 0.566,0.525C0.591,0.608 0.534,0.669 0.451,0.672C0.345,0.676 0.234,0.682 0.124,0.687C0.088,0.688 0.054,0.683 0,0.68" style="fill:white;"/>
            </g>
            <g transform="matrix(1.222,0,0,1.222,20.0794,20.5478)">
                <path d="M0,0.724C-0.138,0.724 -0.256,0.726 -0.374,0.721C-0.396,0.72 -0.429,0.682 -0.432,0.659C-0.453,0.452 -0.469,0.245 -0.485,0.037C-0.317,-0.002 -0.24,0.034 -0.184,0.189C-0.119,0.361 -0.065,0.537 0,0.724" style="fill:white;"/>
            </g>
            <g transform="matrix(1.222,0,0,1.222,23.5055,20.9208)">
                <path d="M0,-0.133C0.101,-0.133 0.198,-0.136 0.295,-0.13C0.31,-0.129 0.34,-0.086 0.335,-0.068C0.33,-0.043 0.302,-0.008 0.278,-0.004C0.223,0.003 0.163,-0.004 0.106,-0.008C0.019,-0.012 0.019,-0.013 0,-0.133" style="fill:white;"/>
            </g>
            <g transform="matrix(1.222,0,0,1.222,24.0079,20.7958)">
                <path d="M0,0.128C0.025,0.062 0.03,0.004 0.059,-0.016C0.118,-0.054 0.276,0.016 0.348,0.108C0.242,0.182 0.135,0.103 0,0.128" style="fill:white;"/>
            </g>
            <g transform="matrix(1.222,0,0,1.222,23.6213,21.2427)">
                <path d="M0,-0.118L0.196,-0.118C0.198,-0.01 0.184,0 0.019,-0.005C0.014,-0.037 0.007,-0.072 0,-0.118" style="fill:white;"/>
            </g>
            <g transform="matrix(1.222,0,0,1.222,23.9458,21.1305)">
                <path d="M0,0.129C0.011,-0.009 0.092,-0.019 0.193,0.007C0.152,0.111 0.099,0.148 0,0.129" style="fill:white;"/>
            </g>
            <g transform="matrix(1,0,0,1,22.9697,18.5425)">
                <path d="M0,-12.794C-0.072,-12.701 -0.103,-12.649 -0.146,-12.613C-0.684,-12.156 -1.03,-11.55 -1.404,-10.967C-1.483,-10.843 -1.56,-10.709 -1.604,-10.569C-1.834,-9.865 -2.247,-9.286 -2.781,-8.787C-3.042,-8.542 -3.209,-8.243 -3.35,-7.925C-3.434,-7.734 -3.499,-7.557 -3.771,-7.546C-3.965,-7.539 -4.119,-7.22 -3.998,-7.06C-3.861,-6.877 -3.984,-6.787 -4.068,-6.685C-4.555,-6.093 -5.138,-5.611 -5.771,-5.186C-5.953,-5.063 -6.135,-4.934 -6.333,-4.781C-5.982,-4.919 -6.031,-4.697 -6.051,-4.512C-6.082,-4.183 -6.057,-3.851 -6.074,-3.522C-6.105,-2.967 -6.39,-2.525 -6.789,-2.15C-7.271,-1.698 -7.854,-1.361 -8.302,-0.866C-8.501,-0.646 -8.695,-0.42 -8.899,-0.204C-9.229,0.145 -9.626,0.331 -10.115,0.376C-10.951,0.455 -11.621,0.212 -12.132,-0.471C-12.586,-1.079 -13.231,-1.493 -13.768,-2.021C-14.247,-2.489 -14.585,-3.012 -14.623,-3.7C-14.645,-4.103 -14.789,-4.497 -14.731,-4.907C-14.721,-4.975 -14.814,-5.001 -14.865,-5.038C-15.526,-5.533 -16.192,-6.023 -16.713,-6.672C-16.799,-6.781 -16.938,-6.87 -16.78,-7.06C-16.657,-7.208 -16.841,-7.545 -17.048,-7.551C-17.287,-7.557 -17.358,-7.714 -17.423,-7.878C-17.575,-8.252 -17.786,-8.579 -18.082,-8.857C-18.589,-9.336 -18.923,-9.919 -19.198,-10.564C-19.507,-11.295 -19.962,-11.952 -20.542,-12.51C-20.618,-12.584 -20.705,-12.648 -20.774,-12.793C-20.277,-12.583 -19.856,-12.334 -19.481,-11.996C-19.121,-11.672 -18.819,-11.299 -18.537,-10.912C-18.342,-10.646 -18.103,-10.441 -17.806,-10.287C-17.906,-10.402 -18.008,-10.516 -18.126,-10.652C-17.919,-10.678 -17.744,-10.612 -17.568,-10.568C-16.957,-10.416 -16.374,-10.179 -15.787,-9.957C-15.682,-9.917 -15.589,-9.901 -15.479,-9.943C-15.126,-10.077 -14.85,-9.976 -14.654,-9.654C-14.638,-9.627 -14.61,-9.606 -14.587,-9.583C-14.583,-9.579 -14.574,-9.579 -14.564,-9.576C-14.547,-9.674 -14.584,-9.768 -14.637,-9.832C-14.899,-10.152 -14.734,-10.436 -14.572,-10.714C-13.82,-12.011 -12.64,-12.677 -11.221,-13.022C-10.279,-13.249 -9.418,-13.058 -8.541,-12.711C-7.659,-12.358 -7.005,-11.759 -6.435,-11.033C-6.271,-10.823 -6.166,-10.578 -6.029,-10.352C-5.969,-10.253 -6,-10.177 -6.061,-10.105C-6.187,-9.949 -6.202,-9.763 -6.241,-9.538C-6.192,-9.603 -6.166,-9.633 -6.148,-9.669C-5.971,-10.008 -5.887,-10.064 -5.509,-9.983C-5.229,-9.922 -4.985,-9.952 -4.721,-10.062C-4.169,-10.29 -3.608,-10.49 -3.024,-10.617C-2.915,-10.641 -2.802,-10.656 -2.635,-10.684C-2.781,-10.521 -2.882,-10.406 -2.985,-10.291C-2.742,-10.417 -2.521,-10.564 -2.353,-10.793C-1.793,-11.549 -1.193,-12.263 -0.31,-12.667C-0.249,-12.694 -0.19,-12.724 -0.13,-12.751C-0.108,-12.76 -0.086,-12.766 0,-12.794" style="fill:none;fill-rule:nonzero;stroke:rgb(45,95,47);stroke-width:0.47px;"/>
            </g>
            <g transform="matrix(1,0,0,1,22.9697,18.5425)">
                <path d="M0,-12.794C-0.072,-12.701 -0.103,-12.649 -0.146,-12.613C-0.684,-12.156 -1.03,-11.55 -1.404,-10.967C-1.483,-10.843 -1.56,-10.709 -1.604,-10.569C-1.834,-9.865 -2.247,-9.286 -2.781,-8.787C-3.042,-8.542 -3.209,-8.243 -3.35,-7.925C-3.434,-7.734 -3.499,-7.557 -3.771,-7.546C-3.965,-7.539 -4.119,-7.22 -3.998,-7.06C-3.861,-6.877 -3.984,-6.787 -4.068,-6.685C-4.555,-6.093 -5.138,-5.611 -5.771,-5.186C-5.953,-5.063 -6.135,-4.934 -6.333,-4.781C-5.982,-4.919 -6.031,-4.697 -6.051,-4.512C-6.082,-4.183 -6.057,-3.851 -6.074,-3.522C-6.105,-2.967 -6.39,-2.525 -6.789,-2.15C-7.271,-1.698 -7.854,-1.361 -8.302,-0.866C-8.501,-0.646 -8.695,-0.42 -8.899,-0.204C-9.229,0.145 -9.626,0.331 -10.115,0.376C-10.951,0.455 -11.621,0.212 -12.132,-0.471C-12.586,-1.079 -13.231,-1.493 -13.768,-2.021C-14.247,-2.489 -14.585,-3.012 -14.623,-3.7C-14.645,-4.103 -14.789,-4.497 -14.731,-4.907C-14.721,-4.975 -14.814,-5.001 -14.865,-5.038C-15.526,-5.533 -16.192,-6.023 -16.713,-6.672C-16.799,-6.781 -16.938,-6.87 -16.78,-7.06C-16.657,-7.208 -16.841,-7.545 -17.048,-7.551C-17.287,-7.557 -17.358,-7.714 -17.423,-7.878C-17.575,-8.252 -17.786,-8.579 -18.082,-8.857C-18.589,-9.336 -18.923,-9.919 -19.198,-10.564C-19.507,-11.295 -19.962,-11.952 -20.542,-12.51C-20.618,-12.584 -20.705,-12.648 -20.774,-12.793C-20.277,-12.583 -19.856,-12.334 -19.481,-11.996C-19.121,-11.672 -18.819,-11.299 -18.537,-10.912C-18.342,-10.646 -18.103,-10.441 -17.806,-10.287C-17.906,-10.402 -18.008,-10.516 -18.126,-10.652C-17.919,-10.678 -17.744,-10.612 -17.568,-10.568C-16.957,-10.416 -16.374,-10.179 -15.787,-9.957C-15.682,-9.917 -15.589,-9.901 -15.479,-9.943C-15.126,-10.077 -14.85,-9.976 -14.654,-9.654C-14.638,-9.627 -14.61,-9.606 -14.587,-9.583C-14.583,-9.579 -14.574,-9.579 -14.564,-9.576C-14.547,-9.674 -14.584,-9.768 -14.637,-9.832C-14.899,-10.152 -14.734,-10.436 -14.572,-10.714C-13.82,-12.011 -12.64,-12.677 -11.221,-13.022C-10.279,-13.249 -9.418,-13.058 -8.541,-12.711C-7.659,-12.358 -7.005,-11.759 -6.435,-11.033C-6.271,-10.823 -6.166,-10.578 -6.029,-10.352C-5.969,-10.253 -6,-10.177 -6.061,-10.105C-6.187,-9.949 -6.202,-9.763 -6.241,-9.538C-6.192,-9.603 -6.166,-9.633 -6.148,-9.669C-5.971,-10.008 -5.887,-10.064 -5.509,-9.983C-5.229,-9.922 -4.985,-9.952 -4.721,-10.062C-4.169,-10.29 -3.608,-10.49 -3.024,-10.617C-2.915,-10.641 -2.802,-10.656 -2.635,-10.684C-2.781,-10.521 -2.882,-10.406 -2.985,-10.291C-2.742,-10.417 -2.521,-10.564 -2.353,-10.793C-1.793,-11.549 -1.193,-12.263 -0.31,-12.667C-0.249,-12.694 -0.19,-12.724 -0.13,-12.751C-0.108,-12.76 -0.086,-12.766 0,-12.794" style="fill:white;fill-rule:nonzero;"/>
            </g>
            <g transform="matrix(1,0,0,1,19.6689,11.8845)">
                <path d="M0,-0.07C0.002,0.236 -0.027,0.512 -0.308,0.68C-0.458,0.772 -0.605,0.766 -0.756,0.696C-0.801,0.677 -0.854,0.653 -0.842,0.593C-0.83,0.542 -0.82,0.493 -0.748,0.467C-0.409,0.338 -0.272,-0.11 -0.503,-0.382C-0.615,-0.515 -0.613,-0.611 -0.507,-0.718C-0.384,-0.842 -0.271,-0.742 -0.179,-0.67C0.02,-0.51 -0.02,-0.271 0,-0.07" style="fill:white;fill-rule:nonzero;"/>
            </g>
            <g transform="matrix(1,0,0,1,5.4751,11.9187)">
                <path d="M0,-0.094C-0.025,-0.27 0.062,-0.462 0.161,-0.641C0.219,-0.746 0.337,-0.875 0.482,-0.772C0.604,-0.685 0.637,-0.572 0.51,-0.42C0.259,-0.12 0.41,0.321 0.783,0.426C0.826,0.437 0.862,0.435 0.87,0.487C0.879,0.542 0.851,0.573 0.807,0.608C0.583,0.781 0.291,0.724 0.122,0.47C0.015,0.312 0.001,0.132 0,-0.094" style="fill:white;fill-rule:nonzero;"/>
            </g>
            <g transform="matrix(1,0,0,1,20.1523,18.4294)">
                <path d="M0,-8.944C-0.652,-8.339 -1.361,-7.822 -2.213,-7.519C-2.382,-7.459 -2.431,-7.568 -2.501,-7.668C-2.534,-7.714 -2.552,-7.783 -2.624,-7.768C-2.697,-7.754 -2.691,-7.681 -2.695,-7.626C-2.711,-7.384 -2.863,-7.235 -3.069,-7.185C-3.396,-7.107 -3.469,-6.862 -3.504,-6.597C-3.529,-6.424 -3.594,-6.319 -3.761,-6.283C-3.897,-6.253 -3.966,-6.165 -4.015,-6.04C-4.178,-5.629 -4.437,-5.275 -4.688,-4.917C-4.922,-4.58 -5.247,-4.439 -5.627,-4.385C-5.749,-4.37 -5.87,-4.348 -6.017,-4.325C-5.402,-4.025 -5.364,-3.632 -5.325,-3.146C-5.091,-3.203 -4.926,-3.322 -4.848,-3.559C-4.777,-3.771 -4.687,-3.976 -4.614,-4.186C-4.546,-4.389 -4.493,-4.595 -4.423,-4.831C-4.266,-4.619 -4.176,-4.41 -4.123,-4.186C-4.082,-4.011 -4.019,-3.879 -3.823,-3.812C-3.629,-3.748 -3.537,-3.581 -3.535,-3.338C-3.592,-3.415 -3.625,-3.469 -3.668,-3.516C-3.743,-3.602 -3.851,-3.608 -3.944,-3.585C-4.051,-3.555 -4.021,-3.45 -4.009,-3.373C-3.962,-3.057 -4.111,-2.864 -4.344,-2.66C-4.797,-2.262 -5.165,-1.775 -5.633,-1.389C-5.839,-1.22 -6.048,-1.048 -6.295,-0.958C-6.554,-0.86 -6.714,-0.681 -6.875,-0.445C-6.53,-0.494 -6.242,-0.65 -5.921,-0.751C-6.369,-0.022 -8.538,0.069 -9.286,-0.766C-8.866,-0.611 -8.508,-0.48 -8.116,-0.337C-8.369,-0.65 -8.643,-0.85 -8.968,-1.016C-9.558,-1.314 -10,-1.808 -10.443,-2.288C-10.533,-2.384 -10.61,-2.502 -10.715,-2.576C-11.025,-2.798 -11.244,-3.049 -11.144,-3.465C-11.132,-3.514 -11.152,-3.575 -11.208,-3.585C-11.298,-3.598 -11.395,-3.604 -11.468,-3.536C-11.521,-3.485 -11.56,-3.423 -11.621,-3.345C-11.626,-3.604 -11.506,-3.757 -11.297,-3.834C-11.153,-3.884 -11.093,-3.972 -11.06,-4.11C-11,-4.358 -10.904,-4.591 -10.73,-4.854C-10.636,-4.433 -10.5,-4.083 -10.376,-3.727C-10.236,-3.322 -10.197,-3.277 -9.819,-3.14C-9.7,-3.575 -9.754,-4.108 -9.13,-4.29C-9.435,-4.362 -9.68,-4.418 -9.924,-4.476C-10.108,-4.521 -10.252,-4.621 -10.371,-4.77C-10.709,-5.197 -11.062,-5.615 -11.228,-6.148C-11.249,-6.213 -11.3,-6.237 -11.355,-6.255C-11.679,-6.357 -11.786,-6.618 -11.829,-6.916C-11.846,-7.027 -11.878,-7.072 -11.99,-7.122C-12.215,-7.222 -12.54,-7.213 -12.56,-7.636C-12.721,-7.373 -12.886,-7.475 -13.044,-7.544C-13.834,-7.883 -14.545,-8.343 -15.161,-8.944C-15.172,-8.991 -15.155,-9.013 -15.105,-9C-14.429,-8.609 -13.831,-8.09 -13.1,-7.783C-12.872,-7.689 -12.754,-7.736 -12.624,-7.904C-12.583,-7.959 -12.555,-8.038 -12.466,-8.052C-12.33,-7.841 -12.414,-7.515 -12.057,-7.411C-11.746,-7.321 -11.567,-7.585 -11.292,-7.585C-11.302,-7.513 -11.356,-7.466 -11.403,-7.418C-11.724,-7.09 -11.656,-6.64 -11.242,-6.433C-10.776,-6.201 -10.289,-6.009 -9.859,-5.711C-9.479,-5.448 -9.105,-5.172 -8.736,-4.893C-8.621,-4.803 -8.496,-4.736 -8.358,-4.722C-8.212,-4.707 -8.04,-4.646 -7.938,-4.831C-7.836,-5.016 -7.74,-5.183 -7.9,-5.4C-8.21,-5.818 -8.454,-6.277 -8.687,-6.744C-8.24,-6.316 -7.92,-5.789 -7.571,-5.265C-7.352,-5.539 -7.159,-5.818 -6.887,-6.03C-6.834,-5.934 -6.914,-5.899 -6.943,-5.85C-7.021,-5.714 -7.119,-5.588 -7.19,-5.45C-7.29,-5.257 -7.395,-5.049 -7.212,-4.856C-7.043,-4.677 -6.736,-4.681 -6.507,-4.846C-6.32,-4.983 -6.137,-5.125 -5.956,-5.269C-5.381,-5.724 -4.752,-6.087 -4.076,-6.364C-3.704,-6.518 -3.486,-7.235 -3.874,-7.512C-4.035,-7.628 -4.094,-7.829 -4.201,-7.993C-3.96,-7.847 -3.786,-7.623 -3.541,-7.484C-3.272,-7.331 -2.871,-7.48 -2.787,-7.772C-2.76,-7.865 -2.732,-7.958 -2.707,-8.048C-2.677,-8.044 -2.657,-8.047 -2.647,-8.039C-2.314,-7.668 -2.311,-7.659 -1.864,-7.876C-1.224,-8.189 -0.632,-8.583 -0.055,-8.999C-0.004,-9.012 0.012,-8.991 0,-8.944" style="fill:rgb(45,95,47);fill-rule:nonzero;"/>
            </g>
            <g transform="matrix(1,0,0,1,5.0469,9.0652)">
                <path d="M0,0.364C-0.019,0.383 -0.036,0.401 -0.056,0.42C-0.229,0.289 -0.372,0.132 -0.484,-0.056C-0.291,0.049 -0.144,0.204 0,0.364" style="fill:rgb(45,95,47);fill-rule:nonzero;"/>
            </g>
            <g transform="matrix(1,0,0,1,20.1523,9.0104)">
                <path d="M0,0.475C-0.018,0.457 -0.035,0.439 -0.055,0.42C0.085,0.256 0.243,0.113 0.43,0C0.319,0.19 0.173,0.345 0,0.475" style="fill:rgb(45,95,47);fill-rule:nonzero;"/>
            </g>
            <g transform="matrix(1,0,0,1,13.1211,16.2332)">
                <path d="M0,-0.948C0.113,-1.147 0.109,-1.312 0.137,-1.469C0.178,-1.712 0.409,-1.888 0.756,-1.939C1.032,-1.978 1.183,-1.89 1.314,-1.637C1.594,-1.116 1.541,-0.652 1.132,-0.208C0.758,0.193 0.503,0.68 0.262,1.17C0.092,1.515 -0.157,1.823 -0.546,1.822C-0.946,1.82 -1.199,1.505 -1.367,1.15C-1.645,0.563 -2.005,0.03 -2.433,-0.454C-2.607,-0.652 -2.595,-0.878 -2.584,-1.108C-2.579,-1.211 -2.541,-1.318 -2.501,-1.418C-2.398,-1.68 -2.311,-1.961 -1.94,-1.947C-1.562,-1.933 -1.27,-1.712 -1.152,-1.361C-1.113,-1.246 -1.145,-1.112 -1.043,-1.003C-1,-1.342 -1.022,-1.665 -1.099,-1.984C-1.131,-2.119 -1.123,-2.213 -0.983,-2.294C-0.817,-2.391 -0.699,-2.544 -0.651,-2.771C-0.448,-2.59 -0.29,-2.385 -0.064,-2.262C0.014,-2.221 -0.029,-2.127 -0.031,-2.056C-0.042,-1.706 -0.057,-1.355 0,-0.948" style="fill:white;fill-rule:nonzero;"/>
            </g>
            <g transform="matrix(0.507002,-0.861945,-0.861945,-0.507002,11.627,12.7582)">
                <path d="M-1.042,-0.582C-1.53,-0.082 -1.702,0.752 -1.446,1.349C-1.36,1.547 -1.228,1.697 -1.042,1.799C-0.947,1.851 -0.858,1.881 -0.834,1.716C-0.78,1.326 -0.915,-0.233 -1.042,-0.582" style="fill:white;fill-rule:nonzero;"/>
            </g>
            <g transform="matrix(1,0,0,1,13.4385,12.5353)">
                <path d="M0,1.451C0.653,0.903 1.269,0.435 1.958,0.073C2.129,-0.016 2.146,0.131 2.129,0.234C2.076,0.578 1.929,0.878 1.658,1.106C1.514,1.228 1.352,1.32 1.157,1.355C0.799,1.418 0.444,1.467 0,1.451" style="fill:white;fill-rule:nonzero;"/>
            </g>
            <g transform="matrix(1,0,0,1,15.7471,15.6006)">
                <path d="M0,-1.624C0.261,-1.138 0.253,-0.684 0.214,-0.231C0.202,-0.109 0.091,-0.051 -0.037,-0.027C-0.201,0 -0.299,-0.08 -0.396,-0.193C-0.491,-0.298 -0.423,-0.376 -0.374,-0.458C-0.172,-0.797 -0.1,-1.179 0,-1.624" style="fill:white;fill-rule:nonzero;"/>
            </g>
            <g transform="matrix(1,0,0,1,9.3896,15.6294)">
                <path d="M0,-1.647C0.066,-1.394 0.12,-1.2 0.169,-1.004C0.216,-0.82 0.292,-0.646 0.387,-0.481C0.48,-0.315 0.415,-0.144 0.234,-0.07C0.068,0 -0.178,-0.082 -0.198,-0.246C-0.254,-0.705 -0.245,-1.163 0,-1.647" style="fill:white;fill-rule:nonzero;"/>
            </g>
            <g transform="matrix(0.980673,-0.195652,-0.195652,-0.980673,15.0349,16.3677)">
                <path d="M-0.1,0.001C-0.132,0.227 -0.154,0.419 -0.242,0.601C-0.29,0.699 -0.183,0.789 -0.1,0.829C0.022,0.886 0.162,0.905 0.323,0.951C0.164,0.627 0.163,0.279 -0.1,0.001" style="fill:white;fill-rule:nonzero;"/>
            </g>
            <g transform="matrix(0.94897,0.315368,0.315368,-0.94897,10.063,16.3561)">
                <path d="M0.155,0.015C-0.091,0.235 -0.214,0.477 -0.307,0.89C-0.12,0.912 0.019,0.817 0.155,0.713C0.212,0.67 0.23,0.634 0.203,0.571C0.137,0.406 0.148,0.234 0.155,0.015" style="fill:white;fill-rule:nonzero;"/>
            </g>
            <g transform="matrix(1,0,0,1,14.29,16.0677)">
                <path d="M0,0.904C0.072,0.6 0.146,0.299 0.22,0C0.586,0.289 0.504,0.639 0,0.904" style="fill:white;fill-rule:nonzero;"/>
            </g>
            <g transform="matrix(1,0,0,1,10.6265,16.9173)">
                <path d="M0,-0.888C0.025,-0.698 0.04,-0.551 0.067,-0.408C0.093,-0.273 0.134,-0.139 0.169,0C-0.305,-0.243 -0.337,-0.39 0,-0.888" style="fill:white;fill-rule:nonzero;"/>
            </g>
            <g transform="matrix(1,0,0,1,11.0684,16.147)">
                <path d="M0,0.893C-0.141,0.586 -0.219,0.306 -0.258,0C0.095,0.31 0.158,0.513 0,0.893" style="fill:white;fill-rule:nonzero;"/>
            </g>
            <g transform="matrix(1,0,0,1,14.0801,16.2329)">
                <path d="M0,0.811C-0.25,0.427 0.104,0.249 0.208,0C0.196,0.277 0.12,0.536 0,0.811" style="fill:white;fill-rule:nonzero;"/>
            </g>
            <g transform="matrix(1,0,0,1,11.332,17.3883)">
                <path d="M0,-0.485C0.077,-0.326 0.189,-0.197 0.244,0C0.068,-0.029 -0.065,-0.103 -0.133,-0.218C-0.169,-0.279 -0.106,-0.415 0,-0.485" style="fill:white;fill-rule:nonzero;"/>
            </g>
            <g transform="matrix(1,0,0,1,9.8823,16.0432)">
                <path d="M0,-0.427C0.008,-0.26 0.015,-0.141 0.021,0C-0.119,-0.043 -0.24,-0.139 -0.254,-0.231C-0.272,-0.328 -0.097,-0.321 0,-0.427" style="fill:white;fill-rule:nonzero;"/>
            </g>
            <g transform="matrix(1,0,0,1,15.2207,15.6752)">
                <path d="M0,0.4C0.051,0.235 -0.008,0.11 0.066,0C0.337,0.131 0.337,0.131 0,0.4" style="fill:white;fill-rule:nonzero;"/>
            </g>
            <g transform="matrix(1,0,0,1,13.793,14.1821)">
                <path d="M0,-0.019C-0.142,0.038 -0.284,0.092 -0.445,0.157C-0.404,-0.176 -0.169,-0.042 0,-0.019" style="fill:white;fill-rule:nonzero;"/>
            </g>
            <g transform="matrix(1,0,0,1,13.6494,16.9793)">
                <path d="M0,0.384C0.039,0.226 0.098,0.113 0.167,0C0.329,0.234 0.329,0.234 0,0.384" style="fill:white;fill-rule:nonzero;"/>
            </g>
            <g transform="matrix(1,0,0,1,11.3877,14.2429)">
                <path d="M0,-0.07C0.149,-0.074 0.344,-0.166 0.412,0.096C0.258,0.034 0.128,-0.019 0,-0.07" style="fill:white;fill-rule:nonzero;"/>
            </g>
        </g>
    </g>
</svg>
