<?xml version="1.0" encoding="UTF-8" standalone="no"?>
<!DOCTYPE svg PUBLIC "-//W3C//DTD SVG 1.1//EN" "http://www.w3.org/Graphics/SVG/1.1/DTD/svg11.dtd">
<svg width="100%" height="100%" viewBox="0 0 65 76" version="1.1" xmlns="http://www.w3.org/2000/svg" xmlns:xlink="http://www.w3.org/1999/xlink" xml:space="preserve" xmlns:serif="http://www.serif.com/" style="fill-rule:evenodd;clip-rule:evenodd;">
    <g transform="matrix(1,0,0,1,-893.716,-1352.01)">
        <g id="Merc-Swordsman-ALLY" serif:id="Merc Swordsman ALLY" transform="matrix(4.16667,0,0,4.16667,381.231,831.264)">
            <g>
                <clipPath id="_clip1">
                    <rect x="123.105" y="125.089" width="15.154" height="17.964" clip-rule="nonzero"/>
                </clipPath>
                <g clip-path="url(#_clip1)">
                    <g transform="matrix(6.12323e-17,1,-1,6.12323e-17,125.193,142.6)">
                        <path d="M0,-0.764C0.106,-0.512 0.159,-0.245 0.256,0.042C0.234,0.031 0.214,0.017 0.194,0.004C0.053,-0.086 -0.042,-0.19 -0.141,-0.296C-0.166,-0.323 -0.166,-0.351 -0.159,-0.38C-0.13,-0.506 -0.099,-0.629 -0.068,-0.753C-0.064,-0.773 -0.064,-0.797 -0.04,-0.802C-0.016,-0.806 -0.009,-0.781 0,-0.764Z" style="fill:none;fill-rule:nonzero;stroke:rgb(104,33,95);stroke-width:0.11px;"/>
                    </g>
                    <g transform="matrix(6.12323e-17,1,-1,6.12323e-17,126.114,142.362)">
                        <path d="M0,0.468C-0.013,0.508 -0.033,0.539 -0.079,0.519C-0.232,0.451 -0.386,0.384 -0.536,0.318C-0.539,0.318 -0.539,0.316 -0.541,0.316C-0.559,0.307 -0.569,0.298 -0.563,0.271C-0.559,0.254 -0.556,0.227 -0.541,0.212C-0.468,0.139 -0.422,0.048 -0.367,-0.035C-0.349,-0.062 -0.331,-0.071 -0.3,-0.062C-0.183,-0.029 -0.066,0.002 0.051,0.033C0.102,0.046 0.121,0.073 0.102,0.128C0.064,0.24 0.033,0.353 0,0.468Z" style="fill:none;fill-rule:nonzero;stroke:rgb(104,33,95);stroke-width:0.11px;"/>
                    </g>
                    <g transform="matrix(6.12323e-17,1,-1,6.12323e-17,125.697,142.739)">
                        <path d="M0,0.647C-0.157,0.667 -0.313,0.689 -0.472,0.704C-0.521,0.711 -0.583,0.74 -0.616,0.696C-0.651,0.649 -0.594,0.605 -0.574,0.561C-0.55,0.499 -0.521,0.439 -0.492,0.38C-0.497,0.378 -0.503,0.373 -0.508,0.371C-0.607,0.448 -0.711,0.521 -0.806,0.605C-0.883,0.673 -0.94,0.669 -1,0.583C-1.073,0.481 -1.205,0.384 -1.21,0.283C-1.214,0.168 -1.075,0.069 -1.018,-0.051C-0.998,-0.093 -0.962,-0.084 -0.929,-0.066C-0.925,-0.064 -0.918,-0.06 -0.914,-0.057C-0.6,0.148 -0.289,0.353 0.024,0.556C0.024,0.559 0.027,0.559 0.027,0.559C0.051,0.574 0.086,0.592 0.079,0.625C0.069,0.667 0.027,0.642 0,0.647Z" style="fill:none;fill-rule:nonzero;stroke:rgb(104,33,95);stroke-width:0.11px;"/>
                    </g>
                    <g transform="matrix(6.12323e-17,1,-1,6.12323e-17,126.291,141.393)">
                        <path d="M0,0.758C-0.09,0.698 -0.181,0.639 -0.269,0.579C-0.285,0.57 -0.3,0.564 -0.32,0.555C-0.285,0.524 -0.271,0.511 -0.256,0.497C-0.06,0.339 0.139,0.182 0.334,0.018C0.387,-0.026 0.417,0.01 0.457,0.032C0.499,0.056 0.512,0.087 0.488,0.131C0.448,0.204 0.406,0.279 0.364,0.35C0.283,0.487 0.192,0.617 0.086,0.736C0.062,0.763 0.038,0.784 0,0.758Z" style="fill:none;fill-rule:nonzero;stroke:rgb(104,33,95);stroke-width:0.11px;"/>
                    </g>
                    <g transform="matrix(6.12323e-17,1,-1,6.12323e-17,126.694,140.956)">
                        <path d="M0,0.874C-0.214,0.748 -0.214,0.751 -0.095,0.534C-0.004,0.373 0.079,0.208 0.155,0.037C0.163,0.013 0.17,-0.013 0.199,-0.022C0.219,-0.011 0.232,-0.005 0.247,0.007C0.391,0.101 0.532,0.199 0.678,0.291C0.724,0.322 0.728,0.342 0.684,0.379C0.499,0.53 0.313,0.684 0.13,0.839C0.119,0.848 0.11,0.857 0.099,0.865C0.066,0.894 0.04,0.896 0,0.874Z" style="fill:none;fill-rule:nonzero;stroke:rgb(104,33,95);stroke-width:0.11px;"/>
                    </g>
                    <g transform="matrix(6.12323e-17,1,-1,6.12323e-17,126.666,140.136)">
                        <path d="M0,0.299C-0.016,0.29 -0.037,0.281 -0.033,0.25C-0.022,0.235 -0.007,0.217 0.009,0.2C0.166,0.028 0.322,-0.14 0.477,-0.313L0.479,-0.315C0.523,-0.366 0.554,-0.366 0.605,-0.33C0.687,-0.268 0.771,-0.213 0.857,-0.162C0.912,-0.127 0.93,-0.096 0.901,-0.032C0.826,0.14 0.74,0.305 0.653,0.469C0.632,0.511 0.609,0.551 0.587,0.592C0.565,0.635 0.545,0.665 0.488,0.625C0.329,0.515 0.163,0.409 0,0.299Z" style="fill:none;fill-rule:nonzero;stroke:rgb(104,33,95);stroke-width:0.11px;"/>
                    </g>
                    <g transform="matrix(6.12323e-17,1,-1,6.12323e-17,126.524,140.086)">
                        <path d="M0,-0.81C0.009,-0.832 0.007,-0.868 0.049,-0.872C0.06,-0.863 0.075,-0.856 0.088,-0.845C0.21,-0.766 0.329,-0.684 0.453,-0.607C0.499,-0.576 0.497,-0.554 0.461,-0.517C0.294,-0.34 0.128,-0.161 -0.035,0.018C-0.068,0.055 -0.093,0.062 -0.137,0.035C-0.285,-0.055 -0.285,-0.053 -0.223,-0.214C-0.148,-0.413 -0.075,-0.611 0,-0.81Z" style="fill:none;fill-rule:nonzero;stroke:rgb(104,33,95);stroke-width:0.11px;"/>
                    </g>
                    <g transform="matrix(6.12323e-17,1,-1,6.12323e-17,127.302,139.125)">
                        <path d="M0,0.193C0.119,0.017 0.236,-0.163 0.353,-0.339C0.373,-0.366 0.391,-0.394 0.408,-0.421C0.42,-0.438 0.426,-0.458 0.457,-0.461C0.466,-0.454 0.481,-0.447 0.495,-0.436C0.607,-0.363 0.717,-0.286 0.832,-0.213C0.879,-0.185 0.887,-0.156 0.867,-0.105C0.79,0.105 0.715,0.316 0.64,0.529C0.632,0.548 0.625,0.568 0.618,0.588C0.6,0.639 0.585,0.654 0.534,0.621C0.364,0.504 0.192,0.392 0.02,0.279C-0.018,0.255 -0.031,0.235 0,0.193Z" style="fill:none;fill-rule:nonzero;stroke:rgb(104,33,95);stroke-width:0.11px;"/>
                    </g>
                    <g transform="matrix(6.12323e-17,1,-1,6.12323e-17,127.578,139.393)">
                        <path d="M0,-0.121C-0.146,0.08 -0.285,0.287 -0.422,0.495C-0.455,0.544 -0.49,0.552 -0.543,0.539C-0.636,0.515 -0.733,0.495 -0.828,0.473C-0.826,0.451 -0.817,0.435 -0.806,0.42C-0.797,0.405 -0.784,0.389 -0.771,0.376C-0.526,0.078 -0.314,-0.245 -0.135,-0.587C-0.099,-0.653 -0.088,-0.673 -0.018,-0.6C0.135,-0.437 0.13,-0.304 0,-0.121Z" style="fill:none;fill-rule:nonzero;stroke:rgb(104,33,95);stroke-width:0.11px;"/>
                    </g>
                    <g transform="matrix(0.578908,-0.815393,-0.815393,-0.578908,129.005,138.525)">
                        <path d="M-0.244,-1.116C-0.345,-0.727 -0.346,-0.332 -0.379,0.062C-0.298,-0.004 -0.252,-0.079 -0.244,-0.181C-0.225,-0.43 -0.205,-0.679 -0.154,-0.924C-0.133,-1.016 -0.213,-1.049 -0.244,-1.116Z" style="fill:none;fill-rule:nonzero;stroke:rgb(104,33,95);stroke-width:0.11px;"/>
                    </g>
                    <g transform="matrix(6.12323e-17,1,-1,6.12323e-17,130.509,138.874)">
                        <path d="M0,2.702C-0.016,2.506 -0.035,2.307 -0.053,2.108C-0.055,2.102 -0.055,2.093 -0.055,2.086C-0.057,2.004 -0.035,1.934 0.004,1.859C0.228,1.461 0.444,1.06 0.662,0.66C0.693,0.607 0.678,0.583 0.629,0.558C0.446,0.464 0.265,0.369 0.07,0.283C0.086,0.296 0.097,0.311 0.115,0.322C0.203,0.382 0.294,0.442 0.384,0.503C0.424,0.532 0.495,0.552 0.486,0.601C0.479,0.636 0.406,0.656 0.364,0.682C0.331,0.704 0.309,0.691 0.285,0.667C0.099,0.47 -0.095,0.283 -0.32,0.13C-0.347,0.113 -0.369,0.093 -0.355,0.055C-0.344,0.02 -0.324,0.002 -0.287,-0.009C-0.155,-0.047 -0.02,-0.042 0.115,-0.055C0.161,-0.059 0.21,-0.059 0.256,-0.064C0.737,-0.088 0.737,-0.088 1.174,0.095C1.338,0.164 1.371,0.238 1.298,0.397C1.077,0.883 0.837,1.36 0.572,1.823C0.388,2.152 0.201,2.479 -0.009,2.79L-0.022,2.781C-0.004,2.76 0.002,2.733 0,2.702Z" style="fill:none;fill-rule:nonzero;stroke:rgb(104,33,95);stroke-width:0.11px;"/>
                    </g>
                    <g transform="matrix(0.517367,-0.855764,-0.855764,-0.517367,126.695,137.21)">
                        <path d="M-0.1,-0.741C-0.109,-0.836 -0.16,-0.899 -0.231,-0.959C-0.204,-0.566 -0.187,-0.171 -0.1,0.231C-0.009,0.137 0.008,0.052 -0.013,-0.058C-0.055,-0.282 -0.079,-0.512 -0.1,-0.741Z" style="fill:none;fill-rule:nonzero;stroke:rgb(104,33,95);stroke-width:0.11px;"/>
                    </g>
                    <g transform="matrix(6.12323e-17,1,-1,6.12323e-17,125.579,138.801)">
                        <path d="M0,-2.04C-0.095,-1.903 -0.192,-1.766 -0.289,-1.632C-0.64,-1.15 -1.018,-0.687 -1.419,-0.243C-1.499,-0.157 -1.583,-0.073 -1.658,0.02C-1.731,0.108 -1.819,0.104 -1.885,0.037C-2.064,-0.146 -2.296,-0.281 -2.371,-0.554C-2.442,-0.808 -2.563,-1.044 -2.612,-1.305C-2.62,-1.351 -2.618,-1.382 -2.581,-1.411C-2.539,-1.446 -2.51,-1.411 -2.481,-1.393C-2.289,-1.272 -2.084,-1.177 -1.872,-1.093C-1.7,-1.027 -1.7,-1.024 -1.757,-0.828C-1.907,-0.901 -2.035,-1.007 -2.183,-1.084C-2.033,-0.938 -1.879,-0.799 -1.711,-0.676C-1.667,-0.643 -1.649,-0.684 -1.631,-0.709C-1.495,-0.876 -1.36,-1.047 -1.227,-1.216C-1.069,-1.422 -0.888,-1.612 -0.742,-1.828C-0.706,-1.881 -0.645,-1.903 -0.589,-1.921C-0.397,-1.985 -0.203,-2.045 -0.011,-2.106C0.017,-2.115 0.037,-2.13 0.051,-2.148L0.064,-2.139C0.044,-2.106 0.022,-2.073 0,-2.04Z" style="fill:none;fill-rule:nonzero;stroke:rgb(104,33,95);stroke-width:0.11px;"/>
                    </g>
                    <g transform="matrix(6.12323e-17,1,-1,6.12323e-17,127.78,138.679)">
                        <path d="M0,-0.051C-0.267,0.042 -0.519,0.128 -0.77,0.216C-0.775,0.205 -0.781,0.194 -0.786,0.185C-0.655,0.033 -0.488,-0.088 -0.367,-0.25C-0.309,-0.267 -0.271,-0.23 -0.229,-0.203C-0.174,-0.166 -0.117,-0.13 -0.053,-0.086C-0.035,-0.075 -0.017,-0.064 0,-0.051Z" style="fill:none;fill-rule:nonzero;stroke:rgb(104,33,95);stroke-width:0.11px;"/>
                    </g>
                    <g transform="matrix(6.12323e-17,1,-1,6.12323e-17,128.33,138.313)">
                        <path d="M0,0.298C-0.143,0.353 -0.229,0.479 -0.34,0.574C-0.366,0.6 -0.393,0.625 -0.419,0.651C-0.446,0.678 -0.463,0.678 -0.479,0.642C-0.53,0.536 -0.585,0.435 -0.64,0.331C-0.759,0.106 -0.879,-0.117 -0.967,-0.356C-0.969,-0.36 -0.965,-0.368 -0.965,-0.375C-0.936,-0.38 -0.92,-0.36 -0.903,-0.346C-0.625,-0.161 -0.347,0.024 -0.068,0.212C-0.037,0.234 0.007,0.245 0,0.298Z" style="fill:none;fill-rule:nonzero;stroke:rgb(104,33,95);stroke-width:0.11px;"/>
                    </g>
                    <g transform="matrix(6.12323e-17,1,-1,6.12323e-17,128.74,138.622)">
                        <path d="M0,0.807C-0.329,0.588 -0.658,0.37 -0.987,0.151C-1.062,0.1 -1.139,0.05 -1.214,0.001C-1.024,-0.028 -0.839,-0.023 -0.655,0.003C-0.479,0.027 -0.3,0.041 -0.122,0.045C-0.053,0.045 -0.051,0.067 -0.071,0.12C-0.117,0.237 -0.159,0.354 -0.201,0.474C-0.214,0.507 -0.234,0.54 -0.221,0.593C-0.117,0.445 -0.086,0.273 0.02,0.103C0.027,0.182 0.031,0.257 0.037,0.325C0.042,0.396 0.046,0.463 0.051,0.529C0.057,0.61 0.062,0.69 0.068,0.772C0.068,0.791 0.082,0.816 0.062,0.829C0.051,0.835 0.042,0.835 0.031,0.834C0.02,0.827 0.009,0.813 0,0.807Z" style="fill:none;fill-rule:nonzero;stroke:rgb(104,33,95);stroke-width:0.11px;"/>
                    </g>
                    <g transform="matrix(6.12323e-17,1,-1,6.12323e-17,130.281,137.642)">
                        <path d="M0,1.026C-0.417,0.894 -0.828,0.73 -1.241,0.585C-1.298,0.565 -1.309,0.545 -1.274,0.492C-1.163,0.322 -1.057,0.15 -0.945,-0.018C-0.907,-0.078 -0.863,-0.131 -0.845,-0.201C-0.837,-0.199 -0.828,-0.197 -0.819,-0.195C-0.81,-0.173 -0.801,-0.151 -0.795,-0.129C-0.662,0.339 -0.316,0.578 0.122,0.702C0.391,0.779 0.667,0.83 0.952,0.825C1.018,0.825 1.031,0.85 1.024,0.911C1.016,0.986 1.011,1.066 1.013,1.143C1.016,1.214 0.987,1.227 0.923,1.22C0.607,1.187 0.3,1.119 0,1.026Z" style="fill:none;fill-rule:nonzero;stroke:rgb(104,33,95);stroke-width:0.11px;"/>
                    </g>
                    <g transform="matrix(6.12323e-17,1,-1,6.12323e-17,129.763,138.613)">
                        <path d="M0,0.93C-0.005,0.987 -0.066,0.972 -0.106,0.979C-0.377,1.016 -0.645,0.959 -0.912,0.93C-1.075,0.913 -1.243,0.928 -1.404,0.877C-1.426,0.87 -1.451,0.864 -1.468,0.851C-1.481,0.842 -1.497,0.833 -1.51,0.824C-1.943,0.539 -2.371,0.25 -2.802,-0.037C-2.81,-0.043 -2.817,-0.054 -2.845,-0.086C-2.715,-0.035 -2.607,0.014 -2.497,0.056C-2.47,0.065 -2.444,0.076 -2.418,0.084C-1.717,0.338 -1.038,0.656 -0.291,0.766C-0.223,0.776 -0.159,0.8 -0.093,0.806C-0.016,0.817 0.004,0.873 0,0.93Z" style="fill:none;fill-rule:nonzero;stroke:rgb(104,33,95);stroke-width:0.11px;"/>
                    </g>
                    <g transform="matrix(6.12323e-17,1,-1,6.12323e-17,129.357,137.62)">
                        <path d="M0,1.387C0.064,1.502 0.097,1.625 0.139,1.745C0.148,1.769 0.179,1.817 0.128,1.831C0.086,1.842 0.035,1.866 -0.002,1.817C-0.035,1.773 -0.068,1.731 -0.095,1.685C-0.388,1.186 -0.788,0.775 -1.179,0.358C-1.439,0.08 -1.702,-0.194 -1.962,-0.479C-1.903,-0.436 -1.841,-0.397 -1.779,-0.357C-1.366,-0.085 -0.954,0.186 -0.543,0.458C-0.51,0.477 -0.483,0.497 -0.466,0.535C-0.34,0.835 -0.155,1.102 0,1.387Z" style="fill:none;fill-rule:nonzero;stroke:rgb(104,33,95);stroke-width:0.11px;"/>
                    </g>
                    <g transform="matrix(6.12323e-17,1,-1,6.12323e-17,129.144,137.485)">
                        <path d="M0,1.77C-0.068,1.794 -0.137,1.827 -0.199,1.867C-0.274,1.916 -0.3,1.887 -0.331,1.819C-0.479,1.489 -0.662,1.178 -0.929,0.933C-1.194,0.69 -1.501,0.538 -1.879,0.6C-1.903,0.604 -1.925,0.6 -1.962,0.6C-1.799,0.366 -1.645,0.141 -1.49,-0.082C-1.463,-0.12 -1.446,-0.146 -1.4,-0.096C-0.978,0.375 -0.517,0.809 -0.163,1.34C-0.093,1.443 -0.033,1.551 0.033,1.657C0.068,1.71 0.071,1.743 0,1.77Z" style="fill:none;fill-rule:nonzero;stroke:rgb(104,33,95);stroke-width:0.11px;"/>
                    </g>
                    <g transform="matrix(6.12323e-17,1,-1,6.12323e-17,136.077,135.84)">
                        <path d="M0,6.963C-0.119,7.12 -0.216,7.292 -0.316,7.46C-0.333,7.489 -0.347,7.537 -0.393,7.528C-0.43,7.522 -0.417,7.48 -0.426,7.451C-0.435,7.429 -0.446,7.409 -0.459,7.389C-0.671,7.095 -0.887,6.804 -1.155,6.557C-1.388,6.341 -1.662,6.177 -1.927,6C-4.333,4.402 -6.742,2.806 -9.148,1.208C-9.287,1.115 -9.395,0.987 -9.495,0.857C-9.771,0.493 -10.044,0.126 -10.311,-0.243C-10.382,-0.339 -10.406,-0.463 -10.479,-0.56C-10.472,-0.565 -10.466,-0.569 -10.457,-0.574C-9.923,-0.218 -9.386,0.137 -8.852,0.493C-6.523,2.038 -4.196,3.583 -1.867,5.128C-1.499,5.374 -1.13,5.621 -0.757,5.861C-0.468,6.047 -0.256,6.312 -0.02,6.555C0.166,6.747 0.163,6.751 0,6.963Z" style="fill:none;fill-rule:nonzero;stroke:rgb(104,33,95);stroke-width:0.11px;"/>
                    </g>
                    <g transform="matrix(6.12323e-17,1,-1,6.12323e-17,136.032,136.746)">
                        <path d="M0,5.574C-0.146,5.766 -0.285,5.962 -0.4,6.172C-0.45,6.263 -0.497,6.289 -0.598,6.243C-0.755,6.172 -0.918,6.117 -1.084,6.062C-1.371,5.969 -1.607,5.784 -1.854,5.618C-4.991,3.536 -8.126,1.455 -11.261,-0.629C-11.292,-0.649 -11.318,-0.671 -11.349,-0.691C-11.345,-0.7 -11.342,-0.707 -11.338,-0.715C-11.267,-0.704 -11.194,-0.695 -11.122,-0.685C-11.1,-0.68 -11.075,-0.676 -11.051,-0.669C-10.554,-0.55 -10.055,-0.444 -9.565,-0.298C-9.393,-0.247 -9.232,-0.172 -9.08,-0.073C-6.581,1.591 -4.077,3.254 -1.576,4.916C-1.128,5.214 -0.622,5.357 -0.106,5.47C-0.091,5.475 -0.073,5.477 -0.055,5.475C-0.024,5.472 0.013,5.442 0.037,5.479C0.062,5.516 0.022,5.547 0,5.574Z" style="fill:none;fill-rule:nonzero;stroke:rgb(104,33,95);stroke-width:0.11px;"/>
                    </g>
                    <g transform="matrix(6.12323e-17,1,-1,6.12323e-17,128.032,138.313)">
                        <path d="M0,0C0.002,0 0.002,-0.002 0.005,-0.002L0,0.002L0,0Z" style="fill:none;fill-rule:nonzero;stroke:rgb(104,33,95);stroke-width:0.11px;"/>
                    </g>
                    <g transform="matrix(6.12323e-17,1,-1,6.12323e-17,136.814,139.766)">
                        <path d="M0,10.04C0.075,9.828 0.15,9.616 0.228,9.406C0.247,9.356 0.238,9.327 0.192,9.298C0.077,9.226 -0.033,9.148 -0.146,9.075C-0.159,9.064 -0.175,9.058 -0.183,9.051C-0.214,9.053 -0.221,9.073 -0.232,9.091C-0.249,9.117 -0.267,9.146 -0.287,9.172L-0.373,9.115C-0.243,8.932 -0.238,8.799 -0.391,8.636C-0.461,8.563 -0.472,8.583 -0.508,8.649C-0.687,8.991 -0.899,9.314 -1.144,9.612C-1.157,9.625 -1.17,9.64 -1.179,9.656L-1.254,9.603C-1.157,9.468 -1.059,9.331 -0.965,9.194C-0.943,9.161 -0.92,9.128 -0.901,9.095C-0.691,8.784 -0.503,8.457 -0.32,8.128C-0.055,7.665 0.185,7.188 0.406,6.702C0.479,6.543 0.446,6.468 0.283,6.4C-0.155,6.216 -0.155,6.216 -0.636,6.241C-0.682,6.245 -0.731,6.245 -0.777,6.249C-0.912,6.263 -1.046,6.258 -1.179,6.296C-1.216,6.307 -1.236,6.325 -1.247,6.36C-1.261,6.397 -1.238,6.417 -1.212,6.435C-0.987,6.587 -0.792,6.775 -0.607,6.972C-0.583,6.996 -0.561,7.009 -0.528,6.987C-0.486,6.96 -0.413,6.94 -0.406,6.905C-0.397,6.857 -0.468,6.837 -0.508,6.808C-0.598,6.746 -0.689,6.687 -0.777,6.627C-0.795,6.616 -0.806,6.6 -0.821,6.587C-0.627,6.673 -0.446,6.768 -0.263,6.863C-0.214,6.888 -0.199,6.912 -0.229,6.965C-0.448,7.364 -0.665,7.766 -0.887,8.164C-0.927,8.238 -0.949,8.309 -0.947,8.391L-1.106,8.4C-1.112,8.331 -1.117,8.256 -1.124,8.177C-1.23,8.347 -1.261,8.519 -1.364,8.667C-1.377,8.614 -1.358,8.581 -1.344,8.548C-1.303,8.429 -1.261,8.311 -1.214,8.194C-1.194,8.141 -1.196,8.119 -1.265,8.119C-1.444,8.115 -1.622,8.102 -1.799,8.077C-1.982,8.051 -2.168,8.046 -2.358,8.075C-2.283,8.124 -2.205,8.174 -2.13,8.225C-1.801,8.444 -1.472,8.662 -1.144,8.881C-1.135,8.887 -1.124,8.901 -1.112,8.908L-1.139,8.947C-1.203,8.903 -1.261,8.868 -1.316,8.83C-1.358,8.804 -1.395,8.766 -1.453,8.784L-1.448,8.78C-1.45,8.78 -1.45,8.782 -1.453,8.782C-1.446,8.729 -1.49,8.717 -1.521,8.695C-1.799,8.508 -2.077,8.323 -2.355,8.137C-2.373,8.124 -2.389,8.104 -2.417,8.108C-2.417,8.115 -2.422,8.124 -2.419,8.128C-2.331,8.367 -2.212,8.589 -2.093,8.815L-2.146,8.843C-2.3,8.559 -2.486,8.292 -2.612,7.991C-2.629,7.954 -2.656,7.934 -2.689,7.914L-2.662,7.874C-2.649,7.883 -2.634,7.892 -2.62,7.901C-2.603,7.914 -2.578,7.92 -2.556,7.927C-2.395,7.978 -2.227,7.963 -2.064,7.98C-1.797,8.009 -1.53,8.066 -1.258,8.029C-1.218,8.022 -1.157,8.038 -1.152,7.98C-1.148,7.923 -1.168,7.868 -1.245,7.857C-1.311,7.85 -1.375,7.826 -1.444,7.817C-2.19,7.707 -2.87,7.389 -3.57,7.135C-3.596,7.126 -3.623,7.115 -3.649,7.106L-3.618,7.024C-3.517,7.071 -3.47,7.044 -3.42,6.954C-3.305,6.744 -3.166,6.548 -3.02,6.356C-2.998,6.329 -2.958,6.298 -2.982,6.261C-3.007,6.223 -3.044,6.254 -3.075,6.256C-3.093,6.258 -3.11,6.256 -3.126,6.252C-3.642,6.139 -4.148,5.995 -4.596,5.698C-7.097,4.035 -9.601,2.373 -12.1,0.709C-12.252,0.609 -12.413,0.534 -12.585,0.484C-13.075,0.338 -13.574,0.232 -14.071,0.112C-14.095,0.106 -14.12,0.101 -14.141,0.097L-14.133,0.044C-13.651,0.13 -13.17,0.225 -12.695,0.346C-12.442,0.413 -12.203,0.503 -11.985,0.653C-11.654,0.883 -11.314,1.097 -10.98,1.322C-10.919,1.364 -10.885,1.366 -10.832,1.305C-9.627,-0.097 -8.115,-0.98 -6.285,-1.243C-3.574,-1.633 -1.289,-0.775 0.526,1.269C1.621,2.503 2.19,3.976 2.313,5.623C2.316,5.649 2.318,5.676 2.318,5.702L2.318,6.128C2.331,7.448 1.998,8.678 1.351,9.824C1.307,9.901 1.314,9.934 1.389,9.983C1.638,10.141 1.885,10.309 2.133,10.475C2.19,10.514 2.252,10.539 2.318,10.547C2.464,10.568 2.603,10.614 2.742,10.651C2.799,10.669 2.835,10.7 2.87,10.755C3.044,11.029 3.091,11.343 3.157,11.647L3.091,11.662C2.993,11.376 2.941,11.108 2.835,10.857C2.826,10.839 2.819,10.815 2.795,10.819C2.771,10.824 2.771,10.848 2.766,10.868C2.735,10.991 2.704,11.115 2.676,11.241C2.669,11.27 2.669,11.298 2.693,11.325C2.793,11.431 2.888,11.535 3.029,11.625L2.998,11.673C2.684,11.47 2.373,11.265 2.06,11.06C2.055,11.058 2.048,11.053 2.044,11.051L2.06,11.018C2.21,11.084 2.364,11.15 2.517,11.219C2.563,11.239 2.583,11.208 2.596,11.168C2.629,11.053 2.66,10.941 2.697,10.828C2.717,10.773 2.697,10.746 2.647,10.733C2.53,10.702 2.413,10.671 2.296,10.638C2.265,10.629 2.247,10.638 2.23,10.665C2.174,10.749 2.128,10.839 2.055,10.912L1.991,10.872C2.033,10.802 2.075,10.727 2.115,10.654C2.139,10.609 2.126,10.579 2.084,10.554C2.044,10.532 2.013,10.497 1.96,10.541C1.766,10.705 1.567,10.861 1.371,11.02L1.32,10.958C1.503,10.804 1.689,10.649 1.874,10.499C1.918,10.462 1.914,10.442 1.868,10.411C1.722,10.318 1.581,10.221 1.437,10.126C1.422,10.115 1.409,10.108 1.389,10.097C1.36,10.106 1.353,10.133 1.344,10.157C1.269,10.327 1.185,10.492 1.095,10.654L1.024,10.616C1.11,10.453 1.197,10.287 1.271,10.115C1.3,10.051 1.283,10.02 1.227,9.985C1.141,9.934 1.058,9.879 0.976,9.817C0.925,9.782 0.894,9.782 0.85,9.832L0.848,9.835L0.781,9.773C0.817,9.735 0.819,9.713 0.773,9.682C0.649,9.605 0.53,9.523 0.408,9.444C0.395,9.433 0.38,9.426 0.369,9.418C0.327,9.422 0.329,9.457 0.32,9.479C0.245,9.678 0.172,9.876 0.097,10.075L0,10.04ZM-0.936,7.802C-0.989,7.89 -0.996,7.978 -0.967,8.077C-0.766,7.737 -0.539,7.415 -0.395,7.04C-0.459,7.075 -0.543,7.057 -0.58,7.144C-0.68,7.373 -0.808,7.588 -0.936,7.802ZM-3.364,7.117C-2.951,7.263 -2.541,7.426 -2.124,7.559C-1.823,7.651 -1.517,7.72 -1.201,7.753C-1.137,7.759 -1.108,7.747 -1.11,7.676C-1.112,7.598 -1.108,7.519 -1.099,7.444C-1.093,7.382 -1.106,7.358 -1.172,7.358C-1.457,7.362 -1.733,7.311 -2.002,7.234C-2.439,7.11 -2.786,6.872 -2.918,6.404C-2.925,6.382 -2.934,6.36 -2.943,6.338C-2.951,6.336 -2.96,6.334 -2.969,6.331C-2.987,6.402 -3.031,6.455 -3.068,6.514C-3.181,6.682 -3.287,6.854 -3.397,7.024C-3.433,7.077 -3.422,7.097 -3.364,7.117Z" style="fill:none;fill-rule:nonzero;stroke:rgb(104,33,95);stroke-width:0.11px;"/>
                    </g>
                    <g transform="matrix(6.12323e-17,1,-1,6.12323e-17,132.37,138.971)">
                        <path d="M0,5.287C0.137,5.079 0.276,4.872 0.422,4.671L0.508,4.728C0.391,4.905 0.274,5.084 0.155,5.261C0.124,5.303 0.137,5.322 0.175,5.347C0.347,5.459 0.519,5.572 0.689,5.689C0.74,5.722 0.755,5.707 0.773,5.656C0.779,5.636 0.786,5.616 0.795,5.596L0.892,5.631C0.83,5.793 0.83,5.79 0.978,5.881C1.022,5.907 1.046,5.901 1.079,5.863C1.243,5.684 1.409,5.506 1.576,5.329L1.642,5.391C1.488,5.563 1.331,5.731 1.174,5.903C1.159,5.92 1.144,5.938 1.132,5.953C1.128,5.985 1.15,5.993 1.166,6.002C1.329,6.112 1.495,6.219 1.654,6.329C1.711,6.369 1.731,6.338 1.753,6.296C1.775,6.254 1.797,6.214 1.819,6.172L1.89,6.21C1.77,6.426 1.77,6.424 1.985,6.55C2.025,6.572 2.051,6.57 2.084,6.541C2.095,6.532 2.104,6.523 2.115,6.514L2.166,6.576C2.15,6.59 2.137,6.603 2.102,6.634C2.121,6.643 2.137,6.649 2.152,6.658C2.241,6.717 2.331,6.777 2.422,6.837C2.459,6.863 2.484,6.841 2.508,6.815C2.614,6.695 2.704,6.565 2.786,6.428L2.85,6.468C2.835,6.484 2.832,6.51 2.828,6.528C2.821,6.554 2.832,6.563 2.85,6.572C2.852,6.572 2.852,6.574 2.855,6.574L2.839,6.607C2.806,6.59 2.771,6.581 2.751,6.623C2.693,6.742 2.554,6.841 2.559,6.956C2.563,7.057 2.696,7.155 2.768,7.256C2.828,7.342 2.885,7.347 2.963,7.278C3.057,7.194 3.161,7.122 3.261,7.044C3.265,7.046 3.272,7.051 3.276,7.053C3.247,7.113 3.219,7.172 3.194,7.234C3.175,7.278 3.117,7.322 3.153,7.369C3.186,7.413 3.247,7.384 3.296,7.378C3.455,7.362 3.612,7.34 3.768,7.32C3.795,7.316 3.837,7.34 3.848,7.298C3.854,7.265 3.819,7.247 3.795,7.232C3.795,7.232 3.793,7.232 3.793,7.23L3.824,7.181C3.843,7.194 3.863,7.207 3.885,7.219L3.951,7.203C3.954,7.216 3.958,7.23 3.96,7.243C3.98,7.329 3.956,7.382 3.846,7.393C3.618,7.42 3.395,7.481 3.163,7.49C3.057,7.494 2.954,7.477 2.85,7.468C2.808,7.466 2.786,7.435 2.762,7.406C2.689,7.318 2.607,7.234 2.55,7.135C2.47,6.998 2.36,6.903 2.23,6.819C2.009,6.68 1.793,6.536 1.578,6.389C1.517,6.347 1.486,6.351 1.439,6.408C0.371,7.7 -0.976,8.55 -2.605,8.947C-5.98,9.766 -9.523,8.108 -11.036,4.978C-12.058,2.857 -12.069,0.704 -11.113,-1.448C-11.075,-1.535 -11.082,-1.572 -11.161,-1.625C-11.568,-1.888 -11.972,-2.155 -12.369,-2.431C-12.493,-2.519 -12.594,-2.643 -12.687,-2.768C-13.007,-3.188 -13.311,-3.618 -13.592,-4.066C-13.647,-4.155 -13.696,-4.247 -13.749,-4.338C-13.769,-4.371 -13.782,-4.406 -13.762,-4.442C-13.74,-4.479 -13.7,-4.461 -13.669,-4.457C-13.559,-4.437 -13.449,-4.42 -13.338,-4.4L-13.347,-4.347C-13.42,-4.358 -13.492,-4.367 -13.563,-4.378C-13.568,-4.369 -13.57,-4.362 -13.574,-4.354C-13.543,-4.334 -13.517,-4.311 -13.486,-4.292C-10.351,-2.208 -7.216,-0.126 -4.079,1.956C-3.832,2.121 -3.596,2.307 -3.309,2.4C-3.143,2.455 -2.98,2.51 -2.823,2.581L-2.854,2.662C-2.965,2.62 -3.073,2.572 -3.203,2.521C-3.175,2.552 -3.168,2.563 -3.159,2.57C-2.729,2.857 -2.3,3.146 -1.867,3.431L-1.894,3.47C-2.305,3.199 -2.717,2.927 -3.13,2.656C-3.192,2.616 -3.254,2.576 -3.313,2.534C-3.053,2.819 -2.79,3.093 -2.53,3.371C-2.139,3.788 -1.74,4.199 -1.446,4.698C-1.419,4.744 -1.386,4.786 -1.353,4.83C-1.316,4.879 -1.265,4.854 -1.223,4.843C-1.172,4.83 -1.203,4.781 -1.212,4.757C-1.254,4.638 -1.287,4.514 -1.351,4.4L-1.298,4.371C-1.243,4.474 -1.188,4.576 -1.137,4.682C-1.121,4.718 -1.104,4.718 -1.077,4.691C-1.051,4.665 -1.024,4.64 -0.998,4.614C-0.887,4.519 -0.801,4.393 -0.658,4.338L-0.658,4.34C-0.779,4.501 -0.947,4.622 -1.077,4.775C-1.073,4.784 -1.066,4.795 -1.062,4.806C-0.81,4.718 -0.559,4.631 -0.291,4.539C-0.309,4.526 -0.327,4.514 -0.344,4.503L-0.318,4.464C-0.307,4.466 -0.298,4.466 -0.287,4.459C-0.267,4.446 -0.28,4.422 -0.28,4.402C-0.287,4.32 -0.291,4.241 -0.298,4.159C-0.302,4.093 -0.307,4.027 -0.311,3.956L-0.152,3.947C-0.152,3.954 -0.152,3.962 -0.15,3.969C-0.132,4.168 -0.113,4.367 -0.097,4.563C-0.095,4.594 -0.102,4.621 -0.119,4.642C-0.132,4.66 -0.152,4.675 -0.181,4.684C-0.373,4.746 -0.567,4.806 -0.759,4.87C-0.814,4.887 -0.876,4.91 -0.912,4.963C-1.058,5.179 -1.238,5.369 -1.397,5.574C-1.53,5.744 -1.664,5.914 -1.801,6.082C-1.819,6.106 -1.837,6.148 -1.881,6.115C-2.048,5.991 -2.203,5.852 -2.353,5.707C-2.205,5.784 -2.077,5.89 -1.927,5.963C-1.87,5.766 -1.87,5.764 -2.042,5.698C-2.254,5.614 -2.459,5.519 -2.651,5.397C-2.68,5.38 -2.709,5.344 -2.751,5.38C-2.788,5.408 -2.79,5.439 -2.782,5.486C-2.733,5.746 -2.612,5.982 -2.541,6.236C-2.466,6.51 -2.234,6.645 -2.055,6.828C-1.989,6.894 -1.901,6.899 -1.828,6.81C-1.753,6.717 -1.669,6.634 -1.589,6.548C-1.188,6.104 -0.81,5.64 -0.459,5.159L-0.384,5.212C-0.395,5.227 -0.404,5.243 -0.406,5.265C-0.311,5.287 -0.214,5.307 -0.121,5.331C-0.068,5.344 -0.033,5.336 0,5.287ZM-1.066,4.974C-1.159,4.989 -1.234,5.016 -1.291,5.093C-1.428,5.278 -1.567,5.462 -1.72,5.631C-1.795,5.715 -1.823,5.797 -1.795,5.925C-1.512,5.625 -1.294,5.296 -1.066,4.974ZM-1.486,4.996C-1.415,4.969 -1.417,4.936 -1.453,4.883C-1.519,4.777 -1.578,4.669 -1.649,4.565C-2.002,4.035 -2.464,3.6 -2.885,3.13C-2.932,3.08 -2.949,3.106 -2.976,3.143C-3.13,3.367 -3.285,3.592 -3.448,3.825C-3.411,3.825 -3.388,3.83 -3.364,3.825C-2.987,3.764 -2.68,3.916 -2.415,4.159C-2.148,4.404 -1.965,4.715 -1.817,5.044C-1.786,5.112 -1.759,5.141 -1.684,5.093C-1.622,5.053 -1.554,5.02 -1.486,4.996ZM-3.446,3.753C-3.347,3.585 -3.249,3.413 -3.13,3.256C-2.967,3.044 -2.965,3.04 -3.15,2.848C-3.386,2.605 -3.598,2.34 -3.887,2.154C-4.261,1.914 -4.629,1.667 -4.998,1.422C-7.327,-0.124 -9.654,-1.669 -11.983,-3.214C-12.517,-3.57 -13.053,-3.925 -13.588,-4.281C-13.596,-4.276 -13.603,-4.272 -13.61,-4.267C-13.537,-4.17 -13.512,-4.046 -13.442,-3.949C-13.175,-3.581 -12.901,-3.214 -12.625,-2.85C-12.526,-2.72 -12.417,-2.592 -12.278,-2.499C-9.872,-0.901 -7.464,0.695 -5.058,2.293C-4.793,2.47 -4.519,2.634 -4.285,2.85C-4.018,3.097 -3.801,3.388 -3.59,3.682C-3.576,3.702 -3.565,3.722 -3.556,3.744C-3.547,3.772 -3.561,3.815 -3.523,3.821C-3.477,3.83 -3.464,3.782 -3.446,3.753Z" style="fill:none;fill-rule:nonzero;stroke:rgb(104,33,95);stroke-width:0.11px;"/>
                    </g>
                </g>
            </g>
            <g transform="matrix(6.12323e-17,1,-1,6.12323e-17,125.193,142.6)">
                <path d="M0,-0.764C0.106,-0.512 0.159,-0.245 0.256,0.042C0.234,0.031 0.214,0.017 0.194,0.004C0.053,-0.086 -0.042,-0.19 -0.141,-0.296C-0.166,-0.323 -0.166,-0.351 -0.159,-0.38C-0.13,-0.506 -0.099,-0.629 -0.068,-0.753C-0.064,-0.773 -0.064,-0.797 -0.04,-0.802C-0.016,-0.806 -0.009,-0.781 0,-0.764" style="fill:white;fill-rule:nonzero;"/>
            </g>
            <g transform="matrix(6.12323e-17,1,-1,6.12323e-17,126.114,142.362)">
                <path d="M0,0.468C-0.013,0.508 -0.033,0.539 -0.079,0.519C-0.232,0.451 -0.386,0.384 -0.536,0.318C-0.539,0.318 -0.539,0.316 -0.541,0.316C-0.559,0.307 -0.569,0.298 -0.563,0.271C-0.559,0.254 -0.556,0.227 -0.541,0.212C-0.468,0.139 -0.422,0.048 -0.367,-0.035C-0.349,-0.062 -0.331,-0.071 -0.3,-0.062C-0.183,-0.029 -0.066,0.002 0.051,0.033C0.102,0.046 0.121,0.073 0.102,0.128C0.064,0.24 0.033,0.353 0,0.468" style="fill:white;fill-rule:nonzero;"/>
            </g>
            <g transform="matrix(6.12323e-17,1,-1,6.12323e-17,125.697,142.739)">
                <path d="M0,0.647C-0.157,0.667 -0.313,0.689 -0.472,0.704C-0.521,0.711 -0.583,0.74 -0.616,0.696C-0.651,0.649 -0.594,0.605 -0.574,0.561C-0.55,0.499 -0.521,0.439 -0.492,0.38C-0.497,0.378 -0.503,0.373 -0.508,0.371C-0.607,0.448 -0.711,0.521 -0.806,0.605C-0.883,0.673 -0.94,0.669 -1,0.583C-1.073,0.481 -1.205,0.384 -1.21,0.283C-1.214,0.168 -1.075,0.069 -1.018,-0.051C-0.998,-0.093 -0.962,-0.084 -0.929,-0.066C-0.925,-0.064 -0.918,-0.06 -0.914,-0.057C-0.6,0.148 -0.289,0.353 0.024,0.556C0.024,0.559 0.027,0.559 0.027,0.559C0.051,0.574 0.086,0.592 0.079,0.625C0.069,0.667 0.027,0.642 0,0.647" style="fill:white;fill-rule:nonzero;"/>
            </g>
            <g transform="matrix(6.12323e-17,1,-1,6.12323e-17,126.291,141.393)">
                <path d="M0,0.758C-0.09,0.698 -0.181,0.639 -0.269,0.579C-0.285,0.57 -0.3,0.564 -0.32,0.555C-0.285,0.524 -0.271,0.511 -0.256,0.497C-0.06,0.339 0.139,0.182 0.334,0.018C0.387,-0.026 0.417,0.01 0.457,0.032C0.499,0.056 0.512,0.087 0.488,0.131C0.448,0.204 0.406,0.279 0.364,0.35C0.283,0.487 0.192,0.617 0.086,0.736C0.062,0.763 0.038,0.784 0,0.758" style="fill:white;fill-rule:nonzero;"/>
            </g>
            <g transform="matrix(6.12323e-17,1,-1,6.12323e-17,126.694,140.956)">
                <path d="M0,0.874C-0.214,0.748 -0.214,0.751 -0.095,0.534C-0.004,0.373 0.079,0.208 0.155,0.037C0.163,0.013 0.17,-0.013 0.199,-0.022C0.219,-0.011 0.232,-0.005 0.247,0.007C0.391,0.101 0.532,0.199 0.678,0.291C0.724,0.322 0.728,0.342 0.684,0.379C0.499,0.53 0.313,0.684 0.13,0.839C0.119,0.848 0.11,0.857 0.099,0.865C0.066,0.894 0.04,0.896 0,0.874" style="fill:white;fill-rule:nonzero;"/>
            </g>
            <g transform="matrix(6.12323e-17,1,-1,6.12323e-17,126.666,140.136)">
                <path d="M0,0.299C-0.016,0.29 -0.037,0.281 -0.033,0.25C-0.022,0.235 -0.007,0.217 0.009,0.2C0.166,0.028 0.322,-0.14 0.477,-0.313L0.479,-0.315C0.523,-0.366 0.554,-0.366 0.605,-0.33C0.687,-0.268 0.771,-0.213 0.857,-0.162C0.912,-0.127 0.93,-0.096 0.901,-0.032C0.826,0.14 0.74,0.305 0.653,0.469C0.632,0.511 0.609,0.551 0.587,0.592C0.565,0.635 0.545,0.665 0.488,0.625C0.329,0.515 0.163,0.409 0,0.299" style="fill:white;fill-rule:nonzero;"/>
            </g>
            <g transform="matrix(6.12323e-17,1,-1,6.12323e-17,126.524,140.086)">
                <path d="M0,-0.81C0.009,-0.832 0.007,-0.868 0.049,-0.872C0.06,-0.863 0.075,-0.856 0.088,-0.845C0.21,-0.766 0.329,-0.684 0.453,-0.607C0.499,-0.576 0.497,-0.554 0.461,-0.517C0.294,-0.34 0.128,-0.161 -0.035,0.018C-0.068,0.055 -0.093,0.062 -0.137,0.035C-0.285,-0.055 -0.285,-0.053 -0.223,-0.214C-0.148,-0.413 -0.075,-0.611 0,-0.81" style="fill:white;fill-rule:nonzero;"/>
            </g>
            <g transform="matrix(6.12323e-17,1,-1,6.12323e-17,127.302,139.125)">
                <path d="M0,0.193C0.119,0.017 0.236,-0.163 0.353,-0.339C0.373,-0.366 0.391,-0.394 0.408,-0.421C0.42,-0.438 0.426,-0.458 0.457,-0.461C0.466,-0.454 0.481,-0.447 0.495,-0.436C0.607,-0.363 0.717,-0.286 0.832,-0.213C0.879,-0.185 0.887,-0.156 0.867,-0.105C0.79,0.105 0.715,0.316 0.64,0.529C0.632,0.548 0.625,0.568 0.618,0.588C0.6,0.639 0.585,0.654 0.534,0.621C0.364,0.504 0.192,0.392 0.02,0.279C-0.018,0.255 -0.031,0.235 0,0.193" style="fill:white;fill-rule:nonzero;"/>
            </g>
            <g transform="matrix(6.12323e-17,1,-1,6.12323e-17,127.578,139.393)">
                <path d="M0,-0.121C-0.146,0.08 -0.285,0.287 -0.422,0.495C-0.455,0.544 -0.49,0.552 -0.543,0.539C-0.636,0.515 -0.733,0.495 -0.828,0.473C-0.826,0.451 -0.817,0.435 -0.806,0.42C-0.797,0.405 -0.784,0.389 -0.771,0.376C-0.526,0.078 -0.314,-0.245 -0.135,-0.587C-0.099,-0.653 -0.088,-0.673 -0.018,-0.6C0.135,-0.437 0.13,-0.304 0,-0.121" style="fill:white;fill-rule:nonzero;"/>
            </g>
            <g transform="matrix(0.578908,-0.815393,-0.815393,-0.578908,129.005,138.525)">
                <path d="M-0.244,-1.116C-0.345,-0.727 -0.346,-0.332 -0.379,0.062C-0.298,-0.004 -0.252,-0.079 -0.244,-0.181C-0.225,-0.43 -0.205,-0.679 -0.154,-0.924C-0.133,-1.016 -0.213,-1.049 -0.244,-1.116" style="fill:white;fill-rule:nonzero;"/>
            </g>
            <g transform="matrix(6.12323e-17,1,-1,6.12323e-17,130.509,138.874)">
                <path d="M0,2.702C-0.016,2.506 -0.035,2.307 -0.053,2.108C-0.055,2.102 -0.055,2.093 -0.055,2.086C-0.057,2.004 -0.035,1.934 0.004,1.859C0.228,1.461 0.444,1.06 0.662,0.66C0.693,0.607 0.678,0.583 0.629,0.558C0.446,0.464 0.265,0.369 0.07,0.283C0.086,0.296 0.097,0.311 0.115,0.322C0.203,0.382 0.294,0.442 0.384,0.503C0.424,0.532 0.495,0.552 0.486,0.601C0.479,0.636 0.406,0.656 0.364,0.682C0.331,0.704 0.309,0.691 0.285,0.667C0.099,0.47 -0.095,0.283 -0.32,0.13C-0.347,0.113 -0.369,0.093 -0.355,0.055C-0.344,0.02 -0.324,0.002 -0.287,-0.009C-0.155,-0.047 -0.02,-0.042 0.115,-0.055C0.161,-0.059 0.21,-0.059 0.256,-0.064C0.737,-0.088 0.737,-0.088 1.174,0.095C1.338,0.164 1.371,0.238 1.298,0.397C1.077,0.883 0.837,1.36 0.572,1.823C0.388,2.152 0.201,2.479 -0.009,2.79L-0.022,2.781C-0.004,2.76 0.002,2.733 0,2.702" style="fill:white;fill-rule:nonzero;"/>
            </g>
            <g transform="matrix(0.517367,-0.855764,-0.855764,-0.517367,126.695,137.21)">
                <path d="M-0.1,-0.741C-0.109,-0.836 -0.16,-0.899 -0.231,-0.959C-0.204,-0.566 -0.187,-0.171 -0.1,0.231C-0.009,0.137 0.008,0.052 -0.013,-0.058C-0.055,-0.282 -0.079,-0.512 -0.1,-0.741" style="fill:white;fill-rule:nonzero;"/>
            </g>
            <g transform="matrix(6.12323e-17,1,-1,6.12323e-17,125.579,138.801)">
                <path d="M0,-2.04C-0.095,-1.903 -0.192,-1.766 -0.289,-1.632C-0.64,-1.15 -1.018,-0.687 -1.419,-0.243C-1.499,-0.157 -1.583,-0.073 -1.658,0.02C-1.731,0.108 -1.819,0.104 -1.885,0.037C-2.064,-0.146 -2.296,-0.281 -2.371,-0.554C-2.442,-0.808 -2.563,-1.044 -2.612,-1.305C-2.62,-1.351 -2.618,-1.382 -2.581,-1.411C-2.539,-1.446 -2.51,-1.411 -2.481,-1.393C-2.289,-1.272 -2.084,-1.177 -1.872,-1.093C-1.7,-1.027 -1.7,-1.024 -1.757,-0.828C-1.907,-0.901 -2.035,-1.007 -2.183,-1.084C-2.033,-0.938 -1.879,-0.799 -1.711,-0.676C-1.667,-0.643 -1.649,-0.684 -1.631,-0.709C-1.495,-0.876 -1.36,-1.047 -1.227,-1.216C-1.069,-1.422 -0.888,-1.612 -0.742,-1.828C-0.706,-1.881 -0.645,-1.903 -0.589,-1.921C-0.397,-1.985 -0.203,-2.045 -0.011,-2.106C0.017,-2.115 0.037,-2.13 0.051,-2.148L0.064,-2.139C0.044,-2.106 0.022,-2.073 0,-2.04" style="fill:white;fill-rule:nonzero;"/>
            </g>
            <g transform="matrix(6.12323e-17,1,-1,6.12323e-17,127.78,138.679)">
                <path d="M0,-0.051C-0.267,0.042 -0.519,0.128 -0.77,0.216C-0.775,0.205 -0.781,0.194 -0.786,0.185C-0.655,0.033 -0.488,-0.088 -0.367,-0.25C-0.309,-0.267 -0.271,-0.23 -0.229,-0.203C-0.174,-0.166 -0.117,-0.13 -0.053,-0.086C-0.035,-0.075 -0.017,-0.064 0,-0.051" style="fill:white;fill-rule:nonzero;"/>
            </g>
            <g transform="matrix(6.12323e-17,1,-1,6.12323e-17,128.33,138.313)">
                <path d="M0,0.298C-0.143,0.353 -0.229,0.479 -0.34,0.574C-0.366,0.6 -0.393,0.625 -0.419,0.651C-0.446,0.678 -0.463,0.678 -0.479,0.642C-0.53,0.536 -0.585,0.435 -0.64,0.331C-0.759,0.106 -0.879,-0.117 -0.967,-0.356C-0.969,-0.36 -0.965,-0.368 -0.965,-0.375C-0.936,-0.38 -0.92,-0.36 -0.903,-0.346C-0.625,-0.161 -0.347,0.024 -0.068,0.212C-0.037,0.234 0.007,0.245 0,0.298" style="fill:white;fill-rule:nonzero;"/>
            </g>
            <g transform="matrix(6.12323e-17,1,-1,6.12323e-17,128.74,138.622)">
                <path d="M0,0.807C-0.329,0.588 -0.658,0.37 -0.987,0.151C-1.062,0.1 -1.139,0.05 -1.214,0.001C-1.024,-0.028 -0.839,-0.023 -0.655,0.003C-0.479,0.027 -0.3,0.041 -0.122,0.045C-0.053,0.045 -0.051,0.067 -0.071,0.12C-0.117,0.237 -0.159,0.354 -0.201,0.474C-0.214,0.507 -0.234,0.54 -0.221,0.593C-0.117,0.445 -0.086,0.273 0.02,0.103C0.027,0.182 0.031,0.257 0.037,0.325C0.042,0.396 0.046,0.463 0.051,0.529C0.057,0.61 0.062,0.69 0.068,0.772C0.068,0.791 0.082,0.816 0.062,0.829C0.051,0.835 0.042,0.835 0.031,0.834C0.02,0.827 0.009,0.813 0,0.807" style="fill:white;fill-rule:nonzero;"/>
            </g>
            <g transform="matrix(6.12323e-17,1,-1,6.12323e-17,130.281,137.642)">
                <path d="M0,1.026C-0.417,0.894 -0.828,0.73 -1.241,0.585C-1.298,0.565 -1.309,0.545 -1.274,0.492C-1.163,0.322 -1.057,0.15 -0.945,-0.018C-0.907,-0.078 -0.863,-0.131 -0.845,-0.201C-0.837,-0.199 -0.828,-0.197 -0.819,-0.195C-0.81,-0.173 -0.801,-0.151 -0.795,-0.129C-0.662,0.339 -0.316,0.578 0.122,0.702C0.391,0.779 0.667,0.83 0.952,0.825C1.018,0.825 1.031,0.85 1.024,0.911C1.016,0.986 1.011,1.066 1.013,1.143C1.016,1.214 0.987,1.227 0.923,1.22C0.607,1.187 0.3,1.119 0,1.026" style="fill:white;fill-rule:nonzero;"/>
            </g>
            <g transform="matrix(6.12323e-17,1,-1,6.12323e-17,129.763,138.613)">
                <path d="M0,0.93C-0.005,0.987 -0.066,0.972 -0.106,0.979C-0.377,1.016 -0.645,0.959 -0.912,0.93C-1.075,0.913 -1.243,0.928 -1.404,0.877C-1.426,0.87 -1.451,0.864 -1.468,0.851C-1.481,0.842 -1.497,0.833 -1.51,0.824C-1.943,0.539 -2.371,0.25 -2.802,-0.037C-2.81,-0.043 -2.817,-0.054 -2.845,-0.086C-2.715,-0.035 -2.607,0.014 -2.497,0.056C-2.47,0.065 -2.444,0.076 -2.418,0.084C-1.717,0.338 -1.038,0.656 -0.291,0.766C-0.223,0.776 -0.159,0.8 -0.093,0.806C-0.016,0.817 0.004,0.873 0,0.93" style="fill:white;fill-rule:nonzero;"/>
            </g>
            <g transform="matrix(6.12323e-17,1,-1,6.12323e-17,129.357,137.62)">
                <path d="M0,1.387C0.064,1.502 0.097,1.625 0.139,1.745C0.148,1.769 0.179,1.817 0.128,1.831C0.086,1.842 0.035,1.866 -0.002,1.817C-0.035,1.773 -0.068,1.731 -0.095,1.685C-0.388,1.186 -0.788,0.775 -1.179,0.358C-1.439,0.08 -1.702,-0.194 -1.962,-0.479C-1.903,-0.436 -1.841,-0.397 -1.779,-0.357C-1.366,-0.085 -0.954,0.186 -0.543,0.458C-0.51,0.477 -0.483,0.497 -0.466,0.535C-0.34,0.835 -0.155,1.102 0,1.387" style="fill:white;fill-rule:nonzero;"/>
            </g>
            <g transform="matrix(6.12323e-17,1,-1,6.12323e-17,129.144,137.485)">
                <path d="M0,1.77C-0.068,1.794 -0.137,1.827 -0.199,1.867C-0.274,1.916 -0.3,1.887 -0.331,1.819C-0.479,1.489 -0.662,1.178 -0.929,0.933C-1.194,0.69 -1.501,0.538 -1.879,0.6C-1.903,0.604 -1.925,0.6 -1.962,0.6C-1.799,0.366 -1.645,0.141 -1.49,-0.082C-1.463,-0.12 -1.446,-0.146 -1.4,-0.096C-0.978,0.375 -0.517,0.809 -0.163,1.34C-0.093,1.443 -0.033,1.551 0.033,1.657C0.068,1.71 0.071,1.743 0,1.77" style="fill:white;fill-rule:nonzero;"/>
            </g>
            <g transform="matrix(6.12323e-17,1,-1,6.12323e-17,136.077,135.84)">
                <path d="M0,6.963C-0.119,7.12 -0.216,7.292 -0.316,7.46C-0.333,7.489 -0.347,7.537 -0.393,7.528C-0.43,7.522 -0.417,7.48 -0.426,7.451C-0.435,7.429 -0.446,7.409 -0.459,7.389C-0.671,7.095 -0.887,6.804 -1.155,6.557C-1.388,6.341 -1.662,6.177 -1.927,6C-4.333,4.402 -6.742,2.806 -9.148,1.208C-9.287,1.115 -9.395,0.987 -9.495,0.857C-9.771,0.493 -10.044,0.126 -10.311,-0.243C-10.382,-0.339 -10.406,-0.463 -10.479,-0.56C-10.472,-0.565 -10.466,-0.569 -10.457,-0.574C-9.923,-0.218 -9.386,0.137 -8.852,0.493C-6.523,2.038 -4.196,3.583 -1.867,5.128C-1.499,5.374 -1.13,5.621 -0.757,5.861C-0.468,6.047 -0.256,6.312 -0.02,6.555C0.166,6.747 0.163,6.751 0,6.963" style="fill:white;fill-rule:nonzero;"/>
            </g>
            <g transform="matrix(6.12323e-17,1,-1,6.12323e-17,136.032,136.746)">
                <path d="M0,5.574C-0.146,5.766 -0.285,5.962 -0.4,6.172C-0.45,6.263 -0.497,6.289 -0.598,6.243C-0.755,6.172 -0.918,6.117 -1.084,6.062C-1.371,5.969 -1.607,5.784 -1.854,5.618C-4.991,3.536 -8.126,1.455 -11.261,-0.629C-11.292,-0.649 -11.318,-0.671 -11.349,-0.691C-11.345,-0.7 -11.342,-0.707 -11.338,-0.715C-11.267,-0.704 -11.194,-0.695 -11.122,-0.685C-11.1,-0.68 -11.075,-0.676 -11.051,-0.669C-10.554,-0.55 -10.055,-0.444 -9.565,-0.298C-9.393,-0.247 -9.232,-0.172 -9.08,-0.073C-6.581,1.591 -4.077,3.254 -1.576,4.916C-1.128,5.214 -0.622,5.357 -0.106,5.47C-0.091,5.475 -0.073,5.477 -0.055,5.475C-0.024,5.472 0.013,5.442 0.037,5.479C0.062,5.516 0.022,5.547 0,5.574" style="fill:white;fill-rule:nonzero;"/>
            </g>
            <g transform="matrix(6.12323e-17,1,-1,6.12323e-17,128.032,138.313)">
                <path d="M0,0C0.002,0 0.002,-0.002 0.005,-0.002L0,0.002L0,0Z" style="fill:rgb(104,33,95);fill-rule:nonzero;"/>
            </g>
            <g transform="matrix(6.12323e-17,1,-1,6.12323e-17,136.814,139.766)">
                <path d="M0,10.04C0.075,9.828 0.15,9.616 0.228,9.406C0.247,9.356 0.238,9.327 0.192,9.298C0.077,9.226 -0.033,9.148 -0.146,9.075C-0.159,9.064 -0.175,9.058 -0.183,9.051C-0.214,9.053 -0.221,9.073 -0.232,9.091C-0.249,9.117 -0.267,9.146 -0.287,9.172L-0.373,9.115C-0.243,8.932 -0.238,8.799 -0.391,8.636C-0.461,8.563 -0.472,8.583 -0.508,8.649C-0.687,8.991 -0.899,9.314 -1.144,9.612C-1.157,9.625 -1.17,9.64 -1.179,9.656L-1.254,9.603C-1.157,9.468 -1.059,9.331 -0.965,9.194C-0.943,9.161 -0.92,9.128 -0.901,9.095C-0.691,8.784 -0.503,8.457 -0.32,8.128C-0.055,7.665 0.185,7.188 0.406,6.702C0.479,6.543 0.446,6.468 0.283,6.4C-0.155,6.216 -0.155,6.216 -0.636,6.241C-0.682,6.245 -0.731,6.245 -0.777,6.249C-0.912,6.263 -1.046,6.258 -1.179,6.296C-1.216,6.307 -1.236,6.325 -1.247,6.36C-1.261,6.397 -1.238,6.417 -1.212,6.435C-0.987,6.587 -0.792,6.775 -0.607,6.972C-0.583,6.996 -0.561,7.009 -0.528,6.987C-0.486,6.96 -0.413,6.94 -0.406,6.905C-0.397,6.857 -0.468,6.837 -0.508,6.808C-0.598,6.746 -0.689,6.687 -0.777,6.627C-0.795,6.616 -0.806,6.6 -0.821,6.587C-0.627,6.673 -0.446,6.768 -0.263,6.863C-0.214,6.888 -0.199,6.912 -0.229,6.965C-0.448,7.364 -0.665,7.766 -0.887,8.164C-0.927,8.238 -0.949,8.309 -0.947,8.391L-1.106,8.4C-1.112,8.331 -1.117,8.256 -1.124,8.177C-1.23,8.347 -1.261,8.519 -1.364,8.667C-1.377,8.614 -1.358,8.581 -1.344,8.548C-1.303,8.429 -1.261,8.311 -1.214,8.194C-1.194,8.141 -1.196,8.119 -1.265,8.119C-1.444,8.115 -1.622,8.102 -1.799,8.077C-1.982,8.051 -2.168,8.046 -2.358,8.075C-2.283,8.124 -2.205,8.174 -2.13,8.225C-1.801,8.444 -1.472,8.662 -1.144,8.881C-1.135,8.887 -1.124,8.901 -1.112,8.908L-1.139,8.947C-1.203,8.903 -1.261,8.868 -1.316,8.83C-1.358,8.804 -1.395,8.766 -1.453,8.784L-1.448,8.78C-1.45,8.78 -1.45,8.782 -1.453,8.782C-1.446,8.729 -1.49,8.717 -1.521,8.695C-1.799,8.508 -2.077,8.323 -2.355,8.137C-2.373,8.124 -2.389,8.104 -2.417,8.108C-2.417,8.115 -2.422,8.124 -2.419,8.128C-2.331,8.367 -2.212,8.589 -2.093,8.815L-2.146,8.843C-2.3,8.559 -2.486,8.292 -2.612,7.991C-2.629,7.954 -2.656,7.934 -2.689,7.914L-2.662,7.874C-2.649,7.883 -2.634,7.892 -2.62,7.901C-2.603,7.914 -2.578,7.92 -2.556,7.927C-2.395,7.978 -2.227,7.963 -2.064,7.98C-1.797,8.009 -1.53,8.066 -1.258,8.029C-1.218,8.022 -1.157,8.038 -1.152,7.98C-1.148,7.923 -1.168,7.868 -1.245,7.857C-1.311,7.85 -1.375,7.826 -1.444,7.817C-2.19,7.707 -2.87,7.389 -3.57,7.135C-3.596,7.126 -3.623,7.115 -3.649,7.106L-3.618,7.024C-3.517,7.071 -3.47,7.044 -3.42,6.954C-3.305,6.744 -3.166,6.548 -3.02,6.356C-2.998,6.329 -2.958,6.298 -2.982,6.261C-3.007,6.223 -3.044,6.254 -3.075,6.256C-3.093,6.258 -3.11,6.256 -3.126,6.252C-3.642,6.139 -4.148,5.995 -4.596,5.698C-7.097,4.035 -9.601,2.373 -12.1,0.709C-12.252,0.609 -12.413,0.534 -12.585,0.484C-13.075,0.338 -13.574,0.232 -14.071,0.112C-14.095,0.106 -14.12,0.101 -14.141,0.097L-14.133,0.044C-13.651,0.13 -13.17,0.225 -12.695,0.346C-12.442,0.413 -12.203,0.503 -11.985,0.653C-11.654,0.883 -11.314,1.097 -10.98,1.322C-10.919,1.364 -10.885,1.366 -10.832,1.305C-9.627,-0.097 -8.115,-0.98 -6.285,-1.243C-3.574,-1.633 -1.289,-0.775 0.526,1.269C1.621,2.503 2.19,3.976 2.313,5.623C2.316,5.649 2.318,5.676 2.318,5.702L2.318,6.128C2.331,7.448 1.998,8.678 1.351,9.824C1.307,9.901 1.314,9.934 1.389,9.983C1.638,10.141 1.885,10.309 2.133,10.475C2.19,10.514 2.252,10.539 2.318,10.547C2.464,10.568 2.603,10.614 2.742,10.651C2.799,10.669 2.835,10.7 2.87,10.755C3.044,11.029 3.091,11.343 3.157,11.647L3.091,11.662C2.993,11.376 2.941,11.108 2.835,10.857C2.826,10.839 2.819,10.815 2.795,10.819C2.771,10.824 2.771,10.848 2.766,10.868C2.735,10.991 2.704,11.115 2.676,11.241C2.669,11.27 2.669,11.298 2.693,11.325C2.793,11.431 2.888,11.535 3.029,11.625L2.998,11.673C2.684,11.47 2.373,11.265 2.06,11.06C2.055,11.058 2.048,11.053 2.044,11.051L2.06,11.018C2.21,11.084 2.364,11.15 2.517,11.219C2.563,11.239 2.583,11.208 2.596,11.168C2.629,11.053 2.66,10.941 2.697,10.828C2.717,10.773 2.697,10.746 2.647,10.733C2.53,10.702 2.413,10.671 2.296,10.638C2.265,10.629 2.247,10.638 2.23,10.665C2.174,10.749 2.128,10.839 2.055,10.912L1.991,10.872C2.033,10.802 2.075,10.727 2.115,10.654C2.139,10.609 2.126,10.579 2.084,10.554C2.044,10.532 2.013,10.497 1.96,10.541C1.766,10.705 1.567,10.861 1.371,11.02L1.32,10.958C1.503,10.804 1.689,10.649 1.874,10.499C1.918,10.462 1.914,10.442 1.868,10.411C1.722,10.318 1.581,10.221 1.437,10.126C1.422,10.115 1.409,10.108 1.389,10.097C1.36,10.106 1.353,10.133 1.344,10.157C1.269,10.327 1.185,10.492 1.095,10.654L1.024,10.616C1.11,10.453 1.197,10.287 1.271,10.115C1.3,10.051 1.283,10.02 1.227,9.985C1.141,9.934 1.058,9.879 0.976,9.817C0.925,9.782 0.894,9.782 0.85,9.832L0.848,9.835L0.781,9.773C0.817,9.735 0.819,9.713 0.773,9.682C0.649,9.605 0.53,9.523 0.408,9.444C0.395,9.433 0.38,9.426 0.369,9.418C0.327,9.422 0.329,9.457 0.32,9.479C0.245,9.678 0.172,9.876 0.097,10.075L0,10.04ZM-0.936,7.802C-0.989,7.89 -0.996,7.978 -0.967,8.077C-0.766,7.737 -0.539,7.415 -0.395,7.04C-0.459,7.075 -0.543,7.057 -0.58,7.144C-0.68,7.373 -0.808,7.588 -0.936,7.802M-3.364,7.117C-2.951,7.263 -2.541,7.426 -2.124,7.559C-1.823,7.651 -1.517,7.72 -1.201,7.753C-1.137,7.759 -1.108,7.747 -1.11,7.676C-1.112,7.598 -1.108,7.519 -1.099,7.444C-1.093,7.382 -1.106,7.358 -1.172,7.358C-1.457,7.362 -1.733,7.311 -2.002,7.234C-2.439,7.11 -2.786,6.872 -2.918,6.404C-2.925,6.382 -2.934,6.36 -2.943,6.338C-2.951,6.336 -2.96,6.334 -2.969,6.331C-2.987,6.402 -3.031,6.455 -3.068,6.514C-3.181,6.682 -3.287,6.854 -3.397,7.024C-3.433,7.077 -3.422,7.097 -3.364,7.117" style="fill:rgb(104,33,95);fill-rule:nonzero;"/>
            </g>
            <g transform="matrix(6.12323e-17,1,-1,6.12323e-17,132.37,138.971)">
                <path d="M0,5.287C0.137,5.079 0.276,4.872 0.422,4.671L0.508,4.728C0.391,4.905 0.274,5.084 0.155,5.261C0.124,5.303 0.137,5.322 0.175,5.347C0.347,5.459 0.519,5.572 0.689,5.689C0.74,5.722 0.755,5.707 0.773,5.656C0.779,5.636 0.786,5.616 0.795,5.596L0.892,5.631C0.83,5.793 0.83,5.79 0.978,5.881C1.022,5.907 1.046,5.901 1.079,5.863C1.243,5.684 1.409,5.506 1.576,5.329L1.642,5.391C1.488,5.563 1.331,5.731 1.174,5.903C1.159,5.92 1.144,5.938 1.132,5.953C1.128,5.985 1.15,5.993 1.166,6.002C1.329,6.112 1.495,6.219 1.654,6.329C1.711,6.369 1.731,6.338 1.753,6.296C1.775,6.254 1.797,6.214 1.819,6.172L1.89,6.21C1.77,6.426 1.77,6.424 1.985,6.55C2.025,6.572 2.051,6.57 2.084,6.541C2.095,6.532 2.104,6.523 2.115,6.514L2.166,6.576C2.15,6.59 2.137,6.603 2.102,6.634C2.121,6.643 2.137,6.649 2.152,6.658C2.241,6.717 2.331,6.777 2.422,6.837C2.459,6.863 2.484,6.841 2.508,6.815C2.614,6.695 2.704,6.565 2.786,6.428L2.85,6.468C2.835,6.484 2.832,6.51 2.828,6.528C2.821,6.554 2.832,6.563 2.85,6.572C2.852,6.572 2.852,6.574 2.855,6.574L2.839,6.607C2.806,6.59 2.771,6.581 2.751,6.623C2.693,6.742 2.554,6.841 2.559,6.956C2.563,7.057 2.696,7.155 2.768,7.256C2.828,7.342 2.885,7.347 2.963,7.278C3.057,7.194 3.161,7.122 3.261,7.044C3.265,7.046 3.272,7.051 3.276,7.053C3.247,7.113 3.219,7.172 3.194,7.234C3.175,7.278 3.117,7.322 3.153,7.369C3.186,7.413 3.247,7.384 3.296,7.378C3.455,7.362 3.612,7.34 3.768,7.32C3.795,7.316 3.837,7.34 3.848,7.298C3.854,7.265 3.819,7.247 3.795,7.232C3.795,7.232 3.793,7.232 3.793,7.23L3.824,7.181C3.843,7.194 3.863,7.207 3.885,7.219L3.951,7.203C3.954,7.216 3.958,7.23 3.96,7.243C3.98,7.329 3.956,7.382 3.846,7.393C3.618,7.42 3.395,7.481 3.163,7.49C3.057,7.494 2.954,7.477 2.85,7.468C2.808,7.466 2.786,7.435 2.762,7.406C2.689,7.318 2.607,7.234 2.55,7.135C2.47,6.998 2.36,6.903 2.23,6.819C2.009,6.68 1.793,6.536 1.578,6.389C1.517,6.347 1.486,6.351 1.439,6.408C0.371,7.7 -0.976,8.55 -2.605,8.947C-5.98,9.766 -9.523,8.108 -11.036,4.978C-12.058,2.857 -12.069,0.704 -11.113,-1.448C-11.075,-1.535 -11.082,-1.572 -11.161,-1.625C-11.568,-1.888 -11.972,-2.155 -12.369,-2.431C-12.493,-2.519 -12.594,-2.643 -12.687,-2.768C-13.007,-3.188 -13.311,-3.618 -13.592,-4.066C-13.647,-4.155 -13.696,-4.247 -13.749,-4.338C-13.769,-4.371 -13.782,-4.406 -13.762,-4.442C-13.74,-4.479 -13.7,-4.461 -13.669,-4.457C-13.559,-4.437 -13.449,-4.42 -13.338,-4.4L-13.347,-4.347C-13.42,-4.358 -13.492,-4.367 -13.563,-4.378C-13.568,-4.369 -13.57,-4.362 -13.574,-4.354C-13.543,-4.334 -13.517,-4.311 -13.486,-4.292C-10.351,-2.208 -7.216,-0.126 -4.079,1.956C-3.832,2.121 -3.596,2.307 -3.309,2.4C-3.143,2.455 -2.98,2.51 -2.823,2.581L-2.854,2.662C-2.965,2.62 -3.073,2.572 -3.203,2.521C-3.175,2.552 -3.168,2.563 -3.159,2.57C-2.729,2.857 -2.3,3.146 -1.867,3.431L-1.894,3.47C-2.305,3.199 -2.717,2.927 -3.13,2.656C-3.192,2.616 -3.254,2.576 -3.313,2.534C-3.053,2.819 -2.79,3.093 -2.53,3.371C-2.139,3.788 -1.74,4.199 -1.446,4.698C-1.419,4.744 -1.386,4.786 -1.353,4.83C-1.316,4.879 -1.265,4.854 -1.223,4.843C-1.172,4.83 -1.203,4.781 -1.212,4.757C-1.254,4.638 -1.287,4.514 -1.351,4.4L-1.298,4.371C-1.243,4.474 -1.188,4.576 -1.137,4.682C-1.121,4.718 -1.104,4.718 -1.077,4.691C-1.051,4.665 -1.024,4.64 -0.998,4.614C-0.887,4.519 -0.801,4.393 -0.658,4.338L-0.658,4.34C-0.779,4.501 -0.947,4.622 -1.077,4.775C-1.073,4.784 -1.066,4.795 -1.062,4.806C-0.81,4.718 -0.559,4.631 -0.291,4.539C-0.309,4.526 -0.327,4.514 -0.344,4.503L-0.318,4.464C-0.307,4.466 -0.298,4.466 -0.287,4.459C-0.267,4.446 -0.28,4.422 -0.28,4.402C-0.287,4.32 -0.291,4.241 -0.298,4.159C-0.302,4.093 -0.307,4.027 -0.311,3.956L-0.152,3.947C-0.152,3.954 -0.152,3.962 -0.15,3.969C-0.132,4.168 -0.113,4.367 -0.097,4.563C-0.095,4.594 -0.102,4.621 -0.119,4.642C-0.132,4.66 -0.152,4.675 -0.181,4.684C-0.373,4.746 -0.567,4.806 -0.759,4.87C-0.814,4.887 -0.876,4.91 -0.912,4.963C-1.058,5.179 -1.238,5.369 -1.397,5.574C-1.53,5.744 -1.664,5.914 -1.801,6.082C-1.819,6.106 -1.837,6.148 -1.881,6.115C-2.048,5.991 -2.203,5.852 -2.353,5.707C-2.205,5.784 -2.077,5.89 -1.927,5.963C-1.87,5.766 -1.87,5.764 -2.042,5.698C-2.254,5.614 -2.459,5.519 -2.651,5.397C-2.68,5.38 -2.709,5.344 -2.751,5.38C-2.788,5.408 -2.79,5.439 -2.782,5.486C-2.733,5.746 -2.612,5.982 -2.541,6.236C-2.466,6.51 -2.234,6.645 -2.055,6.828C-1.989,6.894 -1.901,6.899 -1.828,6.81C-1.753,6.717 -1.669,6.634 -1.589,6.548C-1.188,6.104 -0.81,5.64 -0.459,5.159L-0.384,5.212C-0.395,5.227 -0.404,5.243 -0.406,5.265C-0.311,5.287 -0.214,5.307 -0.121,5.331C-0.068,5.344 -0.033,5.336 0,5.287M-1.066,4.974C-1.159,4.989 -1.234,5.016 -1.291,5.093C-1.428,5.278 -1.567,5.462 -1.72,5.631C-1.795,5.715 -1.823,5.797 -1.795,5.925C-1.512,5.625 -1.294,5.296 -1.066,4.974M-1.486,4.996C-1.415,4.969 -1.417,4.936 -1.453,4.883C-1.519,4.777 -1.578,4.669 -1.649,4.565C-2.002,4.035 -2.464,3.6 -2.885,3.13C-2.932,3.08 -2.949,3.106 -2.976,3.143C-3.13,3.367 -3.285,3.592 -3.448,3.825C-3.411,3.825 -3.388,3.83 -3.364,3.825C-2.987,3.764 -2.68,3.916 -2.415,4.159C-2.148,4.404 -1.965,4.715 -1.817,5.044C-1.786,5.112 -1.759,5.141 -1.684,5.093C-1.622,5.053 -1.554,5.02 -1.486,4.996M-3.446,3.753C-3.347,3.585 -3.249,3.413 -3.13,3.256C-2.967,3.044 -2.965,3.04 -3.15,2.848C-3.386,2.605 -3.598,2.34 -3.887,2.154C-4.261,1.914 -4.629,1.667 -4.998,1.422C-7.327,-0.124 -9.654,-1.669 -11.983,-3.214C-12.517,-3.57 -13.053,-3.925 -13.588,-4.281C-13.596,-4.276 -13.603,-4.272 -13.61,-4.267C-13.537,-4.17 -13.512,-4.046 -13.442,-3.949C-13.175,-3.581 -12.901,-3.214 -12.625,-2.85C-12.526,-2.72 -12.417,-2.592 -12.278,-2.499C-9.872,-0.901 -7.464,0.695 -5.058,2.293C-4.793,2.47 -4.519,2.634 -4.285,2.85C-4.018,3.097 -3.801,3.388 -3.59,3.682C-3.576,3.702 -3.565,3.722 -3.556,3.744C-3.547,3.772 -3.561,3.815 -3.523,3.821C-3.477,3.83 -3.464,3.782 -3.446,3.753" style="fill:rgb(104,33,95);fill-rule:nonzero;"/>
            </g>
        </g>
    </g>
</svg>
