<?xml version="1.0" encoding="UTF-8" standalone="no"?>
<!DOCTYPE svg PUBLIC "-//W3C//DTD SVG 1.1//EN" "http://www.w3.org/Graphics/SVG/1.1/DTD/svg11.dtd">
<svg width="100%" height="100%" viewBox="0 0 75 75" version="1.1" xmlns="http://www.w3.org/2000/svg" xmlns:xlink="http://www.w3.org/1999/xlink" xml:space="preserve" xmlns:serif="http://www.serif.com/" style="fill-rule:evenodd;clip-rule:evenodd;stroke-linecap:round;stroke-linejoin:round;stroke-miterlimit:1.5;">
    <g transform="matrix(1,0,0,1,-1058.93,-834.39)">
        <g id="Tendril-ALT" serif:id="Tendril ALT" transform="matrix(0.810083,0,0,0.810083,647.016,631.273)">
            <g transform="matrix(1,2.46519e-32,-1.2326e-32,0.98362,0,5.13077)">
                <ellipse cx="553.618" cy="296.668" rx="43.72" ry="44.479" style="fill:none;stroke:rgb(46,95,46);stroke-width:2.33px;"/>
            </g>
            <g transform="matrix(2.55135e-16,4.16667,-4.16667,2.55135e-16,2812.76,-3009.48)">
                <clipPath id="_clip1">
                    <path d="M783.041,542.195C783.041,536.404 787.746,531.702 793.541,531.702C799.336,531.702 804.041,536.404 804.041,542.195C804.041,547.986 799.336,552.688 793.541,552.688C787.746,552.688 783.041,547.986 783.041,542.195Z"/>
                </clipPath>
                <g clip-path="url(#_clip1)">
                    <g transform="matrix(-1.06775,-5.30016e-31,1.35585e-31,1.1103,892.685,350.781)">
                        <rect x="82.428" y="162.227" width="20.797" height="19.886" style="fill:white;"/>
                    </g>
                    <g transform="matrix(1.17045,6.16298e-32,9.49098e-31,1.17045,784.379,543.387)">
                        <path d="M0,-2.409C0.301,-2.705 0.631,-2.96 1.009,-3.155C1.235,-3.272 1.451,-3.408 1.675,-3.529C1.874,-3.637 2.083,-3.7 2.306,-3.733C2.465,-3.756 2.623,-3.789 2.794,-3.819C2.787,-3.695 2.753,-3.59 2.701,-3.497C2.576,-3.276 2.521,-3.038 2.485,-2.792C2.477,-2.733 2.462,-2.675 2.433,-2.623C2.297,-2.378 2.143,-2.144 1.94,-1.945C1.863,-1.869 1.778,-1.819 1.663,-1.803C1.525,-1.784 1.401,-1.713 1.273,-1.659C0.273,-1.235 -0.516,-0.557 -1.157,0.299C-1.192,0.346 -1.222,0.396 -1.265,0.459C-1.293,0.391 -1.286,0.345 -1.286,0.301C-1.287,-0.188 -1.285,-0.678 -1.288,-1.167C-1.289,-1.249 -1.269,-1.306 -1.202,-1.366C-0.808,-1.721 -0.378,-2.037 0,-2.409M-1.129,-2.833C-0.749,-3.207 -0.335,-3.529 0.167,-3.741C0.524,-3.892 0.872,-4.067 1.233,-4.212C1.676,-4.389 2.135,-4.523 2.591,-4.661C2.676,-4.686 2.763,-4.703 2.851,-4.705C2.893,-4.706 2.918,-4.72 2.94,-4.757C2.974,-4.814 3.017,-4.866 3.071,-4.941C3.085,-4.865 3.072,-4.817 3.06,-4.772C3.001,-4.533 2.938,-4.295 2.878,-4.056C2.866,-4.009 2.855,-3.974 2.792,-3.97C2.271,-3.933 1.791,-3.776 1.326,-3.535C0.663,-3.192 0.08,-2.743 -0.491,-2.276C-0.74,-2.072 -0.948,-1.822 -1.193,-1.611C-1.216,-1.592 -1.228,-1.556 -1.278,-1.56C-1.281,-1.602 -1.286,-1.646 -1.286,-1.69C-1.287,-1.941 -1.277,-2.193 -1.291,-2.443C-1.299,-2.605 -1.237,-2.726 -1.129,-2.833M-0.279,-4.431C-0.18,-4.47 -0.081,-4.508 0.022,-4.537C0.227,-4.596 0.425,-4.674 0.621,-4.76C0.948,-4.902 1.278,-5.036 1.632,-5.105C1.764,-5.13 1.89,-5.178 2.011,-5.239C2.177,-5.322 2.35,-5.39 2.529,-5.439C2.645,-5.471 2.741,-5.53 2.822,-5.615C2.916,-5.715 3.033,-5.74 3.165,-5.729C3.217,-5.725 3.243,-5.705 3.234,-5.652C3.195,-5.405 3.171,-5.158 3.003,-4.945C2.907,-4.823 2.819,-4.742 2.654,-4.72C2.382,-4.684 2.129,-4.568 1.864,-4.499C1.087,-4.295 0.363,-3.967 -0.325,-3.561C-0.381,-3.529 -0.434,-3.495 -0.504,-3.492C-0.576,-3.488 -0.634,-3.445 -0.689,-3.402C-0.868,-3.263 -1.026,-3.101 -1.181,-2.937C-1.215,-2.9 -1.232,-2.853 -1.263,-2.811C-1.293,-2.975 -1.283,-3.135 -1.284,-3.295C-1.286,-3.5 -1.286,-3.706 -1.286,-3.912C-1.286,-3.975 -1.299,-4.038 -1.188,-4.021C-1.137,-4.013 -1.076,-4.06 -1.023,-4.087C-0.781,-4.213 -0.534,-4.331 -0.279,-4.431M3.179,-7.536C3.131,-7.659 3.104,-7.789 3.055,-7.912C3.023,-7.993 3.046,-8.01 3.134,-7.993C3.23,-7.975 3.318,-7.932 3.406,-7.89C3.489,-7.85 3.57,-7.804 3.653,-7.763C3.732,-7.724 3.814,-7.689 3.905,-7.728C3.917,-7.734 3.933,-7.733 3.947,-7.731C4.244,-7.697 4.485,-7.844 4.733,-7.967C4.782,-7.991 4.822,-8.033 4.888,-8.038C4.908,-7.99 4.88,-7.967 4.862,-7.942C4.812,-7.871 4.76,-7.801 4.706,-7.732C4.53,-7.51 4.431,-7.258 4.404,-6.978C4.397,-6.909 4.39,-6.84 4.363,-6.777C4.204,-6.406 4.154,-6.011 4.099,-5.618C4.022,-5.075 3.959,-4.53 3.895,-3.986C3.868,-3.765 3.809,-3.547 3.767,-3.327C3.709,-3.017 3.645,-2.709 3.57,-2.402C3.542,-2.288 3.486,-2.18 3.486,-2.053C3.54,-2.04 3.545,-2.126 3.613,-2.099C3.652,-1.812 3.747,-1.522 3.683,-1.218C3.665,-1.127 3.663,-1.124 3.577,-1.15C3.457,-1.186 3.339,-1.228 3.22,-1.266C3.15,-1.289 3.08,-1.315 3.007,-1.33C2.819,-1.368 2.639,-1.35 2.471,-1.246C2.329,-1.158 2.193,-1.063 2.06,-0.963C1.946,-0.878 1.832,-0.834 1.686,-0.886C1.577,-0.924 1.459,-0.927 1.342,-0.928C1.004,-0.932 0.666,-0.925 0.32,-0.913C0.418,-0.979 0.513,-1.048 0.613,-1.109C0.829,-1.243 1.047,-1.374 1.266,-1.504C1.364,-1.563 1.46,-1.616 1.579,-1.639C1.724,-1.667 1.854,-1.744 1.965,-1.848C2.129,-2 2.254,-2.181 2.382,-2.36C2.484,-2.502 2.558,-2.646 2.564,-2.823C2.567,-2.909 2.596,-2.994 2.631,-3.074C2.891,-3.673 3.064,-4.298 3.2,-4.933C3.286,-5.331 3.374,-5.727 3.476,-6.121C3.515,-6.271 3.564,-6.418 3.545,-6.577C3.537,-6.637 3.525,-6.693 3.502,-6.749C3.392,-7.01 3.282,-7.272 3.179,-7.536M-1.141,-10.338C0.714,-10.315 2.568,-10.329 4.423,-10.326C5.771,-10.324 7.119,-10.323 8.468,-10.329C8.769,-10.33 9.043,-10.264 9.309,-10.128C9.626,-9.966 9.945,-9.806 10.26,-9.639C10.772,-9.367 11.213,-9.005 11.632,-8.613C11.671,-8.575 11.703,-8.528 11.734,-8.483C11.854,-8.304 11.972,-8.121 12.126,-7.968C12.199,-7.895 12.154,-7.84 12.132,-7.773C12.108,-7.701 12.068,-7.672 11.989,-7.676C11.799,-7.686 11.608,-7.674 11.419,-7.655C11.342,-7.647 11.296,-7.659 11.262,-7.744C11.213,-7.871 11.145,-7.993 11.038,-8.087C10.971,-8.145 10.953,-8.144 10.884,-8.087C10.83,-8.042 10.795,-7.982 10.753,-7.928C10.679,-7.831 10.593,-7.767 10.458,-7.785C10.392,-7.793 10.345,-7.821 10.3,-7.861C9.796,-8.299 9.238,-8.661 8.667,-9.005C8.5,-9.105 8.327,-9.193 8.152,-9.278C8.087,-9.31 8.01,-9.326 7.977,-9.404C7.961,-9.441 7.922,-9.432 7.89,-9.43C7.829,-9.425 7.771,-9.434 7.714,-9.46C7.39,-9.607 7.043,-9.672 6.694,-9.723C6.405,-9.767 6.114,-9.797 5.822,-9.827C5.41,-9.868 4.996,-9.853 4.583,-9.833C4.564,-9.832 4.545,-9.829 4.527,-9.829C4.118,-9.844 3.725,-9.759 3.333,-9.655C3.082,-9.588 2.835,-9.513 2.592,-9.419C2.267,-9.293 1.923,-9.229 1.588,-9.136C1.521,-9.117 1.452,-9.105 1.387,-9.08C1.083,-8.96 0.766,-8.902 0.445,-8.845C-0.091,-8.75 -0.608,-8.583 -1.097,-8.342C-1.15,-8.315 -1.204,-8.289 -1.267,-8.258C-1.297,-8.321 -1.286,-8.371 -1.286,-8.42C-1.287,-9.01 -1.288,-9.6 -1.289,-10.189C-1.29,-10.348 -1.303,-10.34 -1.141,-10.338M8.449,-2.12C8.431,-2.109 8.419,-2.096 8.408,-2.096C8.249,-2.097 8.109,-1.998 7.924,-2.007C7.981,-2.111 8.064,-2.165 8.124,-2.238C8.146,-2.263 8.185,-2.261 8.216,-2.244C8.291,-2.204 8.375,-2.177 8.449,-2.12M8.184,-2.341C8.221,-2.377 8.256,-2.405 8.302,-2.347C8.333,-2.309 8.368,-2.274 8.404,-2.234C8.302,-2.224 8.266,-2.242 8.184,-2.341M16.373,-5.206C16.098,-4.761 15.765,-4.365 15.38,-4.009C15.096,-3.746 14.808,-3.486 14.52,-3.227C14.289,-3.02 14.027,-2.856 13.758,-2.691C13.711,-2.787 13.7,-2.888 13.67,-2.983C13.654,-3.035 13.641,-3.089 13.615,-3.137C13.602,-3.161 13.588,-3.186 13.57,-3.206C13.537,-3.24 13.494,-3.244 13.455,-3.223C13.418,-3.203 13.433,-3.166 13.443,-3.136C13.479,-3.018 13.514,-2.9 13.538,-2.779C13.547,-2.733 13.557,-2.688 13.549,-2.643C13.515,-2.437 13.533,-2.234 13.585,-2C13.342,-2.146 13.157,-2.307 13.035,-2.55C12.996,-2.476 12.936,-2.449 12.87,-2.419C12.735,-2.36 12.605,-2.286 12.479,-2.21C12.264,-2.08 12.035,-1.979 11.805,-1.882C11.606,-1.798 11.394,-1.769 11.183,-1.736C10.861,-1.685 10.539,-1.65 10.212,-1.684C10.097,-1.695 9.98,-1.674 9.864,-1.674C9.431,-1.673 9.032,-1.795 8.657,-2.002C8.641,-2.011 8.614,-2.023 8.623,-2.038C8.68,-2.132 8.585,-2.158 8.543,-2.196C8.445,-2.285 8.347,-2.374 8.243,-2.478C8.22,-2.427 8.201,-2.384 8.182,-2.342C8.147,-2.342 8.122,-2.373 8.095,-2.304C8.035,-2.157 7.923,-2.043 7.777,-1.972C7.728,-2.017 7.758,-2.05 7.771,-2.081C7.859,-2.298 7.918,-2.523 7.98,-2.748C7.998,-2.813 7.988,-2.861 7.947,-2.911C7.856,-3.024 7.81,-3.16 7.762,-3.293C7.734,-3.369 7.754,-3.394 7.839,-3.39C8.016,-3.382 8.19,-3.35 8.362,-3.313C8.862,-3.203 9.365,-3.211 9.874,-3.228C10.388,-3.245 10.887,-3.344 11.39,-3.431C11.458,-3.443 11.526,-3.461 11.592,-3.483C12.146,-3.666 12.708,-3.83 13.234,-4.089C13.463,-4.201 13.671,-4.35 13.896,-4.469C14.245,-4.653 14.56,-4.884 14.877,-5.153C14.872,-5.098 14.844,-5.081 14.825,-5.06C14.567,-4.796 14.299,-4.545 13.999,-4.325C13.791,-4.173 13.603,-3.991 13.38,-3.858C12.98,-3.62 12.611,-3.327 12.162,-3.173C11.982,-3.111 11.802,-3.05 11.622,-2.989C11.543,-2.962 11.466,-2.932 11.397,-2.883C11.296,-2.811 11.173,-2.797 11.055,-2.772C10.677,-2.693 10.292,-2.669 9.906,-2.659C9.827,-2.657 9.748,-2.65 9.67,-2.64C9.474,-2.614 9.286,-2.628 9.097,-2.702C8.769,-2.831 8.443,-2.963 8.127,-3.118C8.03,-3.166 7.943,-3.225 7.858,-3.291C7.864,-3.247 7.896,-3.22 7.928,-3.194C8.011,-3.128 8.097,-3.066 8.193,-3.018C8.486,-2.868 8.779,-2.72 9.105,-2.649C9.141,-2.641 9.192,-2.645 9.186,-2.579C9.183,-2.549 9.22,-2.558 9.24,-2.554C9.411,-2.522 9.583,-2.526 9.755,-2.536C10,-2.551 10.246,-2.566 10.492,-2.578C10.775,-2.592 11.039,-2.677 11.297,-2.784C11.49,-2.863 11.684,-2.934 11.884,-2.996C12.082,-3.056 12.265,-3.164 12.461,-3.232C12.794,-3.348 13.086,-3.533 13.377,-3.721C13.575,-3.849 13.763,-3.992 13.953,-4.131C14.053,-4.205 14.145,-4.289 14.22,-4.39C14.247,-4.426 14.282,-4.459 14.317,-4.488C14.637,-4.749 14.925,-5.039 15.167,-5.373C15.24,-5.473 15.321,-5.567 15.409,-5.655C15.596,-5.843 15.739,-6.062 15.874,-6.287C15.941,-6.399 15.964,-6.526 16.002,-6.648C16.255,-7.46 16.514,-8.27 16.8,-9.072C16.84,-9.187 16.886,-9.3 16.933,-9.42L16.933,-8.975C16.933,-8.033 16.932,-7.092 16.934,-6.15C16.934,-6.058 16.906,-5.989 16.852,-5.913C16.684,-5.683 16.522,-5.448 16.373,-5.206M16.568,-4.978C16.54,-5.003 16.53,-5.025 16.556,-5.059C16.675,-5.219 16.792,-5.379 16.925,-5.561L16.925,-4.664C16.785,-4.768 16.678,-4.875 16.568,-4.978M14.996,-3.366C15.538,-3.844 16.061,-4.31 16.449,-4.913C16.586,-4.754 16.726,-4.622 16.877,-4.502C16.915,-4.471 16.936,-4.433 16.933,-4.383C16.931,-4.347 16.933,-4.31 16.933,-4.273C16.933,-3.277 16.935,-2.282 16.932,-1.286C16.93,-0.925 16.942,-0.564 16.951,-0.204C16.953,-0.161 16.952,-0.117 16.94,-0.071C16.532,-1.304 16.01,-2.469 14.996,-3.366M16.415,6.673C16.437,6.745 16.437,6.824 16.45,6.917C16.303,6.888 16.162,6.869 16.027,6.829C15.901,6.792 15.789,6.806 15.678,6.863C15.509,6.951 15.348,7.051 15.195,7.162C15.018,7.291 14.839,7.411 14.613,7.442C14.498,7.457 14.446,7.545 14.413,7.647C14.358,7.818 14.356,7.818 14.17,7.818C13.045,7.818 11.92,7.816 10.795,7.822C10.58,7.823 10.381,7.785 10.195,7.679C10.035,7.588 9.858,7.526 9.711,7.41C9.654,7.365 9.586,7.381 9.523,7.39C9.404,7.409 9.285,7.426 9.16,7.428C9.137,7.33 9.159,7.235 9.154,7.14C9.148,7.039 9.113,6.966 9.026,6.913C8.72,6.725 8.511,6.441 8.273,6.186C8.254,6.166 8.239,6.142 8.226,6.118C8.164,6.003 8.165,6.002 8.036,6.036C7.951,6.059 7.866,6.084 7.781,6.107C7.746,6.116 7.709,6.125 7.673,6.111C7.659,6.068 7.688,6.038 7.704,6.008C7.779,5.872 7.782,5.729 7.76,5.581C7.749,5.507 7.723,5.441 7.663,5.39C7.639,5.369 7.619,5.342 7.602,5.315C7.309,4.857 6.958,4.443 6.596,4.038C6.562,4 6.525,3.964 6.498,3.922C6.304,3.624 6.028,3.406 5.753,3.187C5.489,2.976 5.243,2.749 5.038,2.48C5.006,2.436 4.95,2.428 4.915,2.393C4.712,2.187 4.443,2.071 4.223,1.888C3.98,1.685 3.699,1.541 3.418,1.399C3.227,1.303 3.021,1.275 2.809,1.285C2.567,1.297 2.329,1.341 2.089,1.365C1.999,1.374 1.921,1.416 1.843,1.457C1.56,1.604 1.332,1.82 1.106,2.037C1.06,2.081 1.023,2.135 0.997,2.211C1.104,2.171 1.159,2.084 1.244,2.022C1.272,2.209 1.295,2.382 1.291,2.571C1.157,2.519 1.027,2.497 0.92,2.422C0.869,2.385 0.825,2.391 0.78,2.419C0.745,2.441 0.711,2.467 0.684,2.497C0.404,2.796 0.281,3.147 0.321,3.553C0.343,3.777 0.369,3.998 0.489,4.197C0.676,4.509 0.939,4.695 1.32,4.67C1.628,4.65 1.855,4.504 1.975,4.217C1.984,4.196 1.989,4.174 2.023,4.159C2.031,4.378 1.993,4.583 1.923,4.786C1.85,4.995 1.711,5.147 1.542,5.281C1.501,5.313 1.455,5.335 1.404,5.343C1.057,5.396 0.722,5.372 0.44,5.14C0.196,4.939 -0.011,4.707 -0.15,4.42C-0.337,4.03 -0.404,3.62 -0.381,3.193C-0.374,3.07 -0.376,2.946 -0.344,2.825C-0.334,2.786 -0.332,2.746 -0.275,2.737C-0.216,2.728 -0.218,2.681 -0.237,2.642C-0.257,2.601 -0.286,2.564 -0.315,2.529C-0.402,2.422 -0.49,2.316 -0.588,2.198C-0.458,2.168 -0.345,2.11 -0.221,2.183C-0.17,2.213 -0.099,2.189 -0.054,2.242C-0.041,2.258 -0.02,2.248 -0.005,2.237C0.006,2.228 0.018,2.218 0.024,2.207C0.131,2.002 0.329,1.857 0.419,1.646C0.509,1.435 0.674,1.301 0.85,1.176C1.066,1.023 1.303,0.909 1.562,0.84C1.876,0.755 2.187,0.665 2.509,0.616C2.632,0.597 2.75,0.625 2.87,0.615C3.13,0.594 3.389,0.568 3.65,0.577C3.744,0.58 3.836,0.59 3.922,0.627C4.095,0.704 4.267,0.785 4.438,0.866C4.804,1.039 5.078,1.334 5.415,1.544C5.613,1.765 5.878,1.908 6.104,2.097C6.207,2.183 6.31,2.267 6.4,2.367C6.478,2.452 6.567,2.526 6.663,2.591C7.174,2.935 7.611,3.358 7.999,3.827C8.215,4.089 8.42,4.361 8.638,4.623C8.945,4.993 9.278,5.341 9.677,5.61C10.136,5.92 10.609,6.214 11.139,6.401C11.24,6.436 11.344,6.461 11.451,6.469C11.474,6.47 11.499,6.468 11.52,6.476C11.811,6.597 12.118,6.598 12.425,6.587C13.237,6.559 13.992,6.359 14.656,5.878C15.269,5.436 15.672,4.859 15.836,4.125C15.88,3.927 15.902,3.728 15.894,3.526C15.892,3.468 15.878,3.409 15.932,3.36C15.947,3.346 15.941,3.308 15.941,3.282C15.941,3.163 15.928,3.045 15.906,2.928C15.656,1.618 15.132,0.425 14.329,-0.65C14.131,-0.915 13.95,-1.192 13.717,-1.431C13.52,-1.632 13.317,-1.827 13.083,-1.986C13.048,-2.009 13.015,-2.033 12.972,-2.04C12.984,-2.026 12.993,-2.009 13.008,-1.998C13.309,-1.757 13.554,-1.463 13.798,-1.169C14.03,-0.89 14.221,-0.58 14.431,-0.284C14.962,0.466 15.323,1.298 15.601,2.162C15.724,2.542 15.831,2.938 15.807,3.346C15.775,3.913 15.662,4.461 15.334,4.945C15.037,5.382 14.645,5.717 14.187,5.988C13.716,6.266 13.203,6.383 12.663,6.418C12.519,6.427 12.376,6.439 12.232,6.445C11.999,6.456 11.768,6.427 11.536,6.415C11.338,6.405 11.159,6.317 10.982,6.239C10.519,6.036 10.074,5.796 9.661,5.507C9.414,5.335 9.208,5.114 9.004,4.894C8.745,4.613 8.503,4.319 8.283,4.006C8.101,3.746 7.879,3.517 7.656,3.289C7.42,3.048 7.169,2.825 6.887,2.636C6.806,2.582 6.734,2.518 6.665,2.45C6.411,2.2 6.138,1.974 5.848,1.766C5.639,1.615 5.429,1.463 5.234,1.293C5.033,1.116 4.807,0.974 4.565,0.852C4.375,0.757 4.182,0.666 3.996,0.564C3.864,0.491 3.712,0.484 3.565,0.468C3.346,0.444 3.128,0.477 2.91,0.485C2.401,0.504 1.905,0.59 1.421,0.751C1.185,0.829 0.973,0.947 0.773,1.098C0.788,1.023 0.829,0.961 0.872,0.902C1.125,0.559 1.436,0.285 1.836,0.115C1.939,0.071 2.042,0.031 2.156,0.025C2.262,0.02 2.329,-0.034 2.357,-0.134C2.381,-0.217 2.403,-0.301 2.424,-0.385C2.432,-0.42 2.433,-0.458 2.464,-0.491C2.542,-0.186 2.63,0.11 2.843,0.352C2.8,0.034 2.606,-0.235 2.54,-0.542C2.587,-0.573 2.611,-0.541 2.634,-0.525C2.765,-0.437 2.899,-0.356 3.038,-0.282C3.134,-0.232 3.129,-0.23 3.094,-0.12C3.045,0.032 3.005,0.187 2.992,0.347C2.99,0.364 2.985,0.383 3.022,0.398C3.063,0.264 3.112,0.133 3.143,-0.001C3.167,-0.105 3.236,-0.191 3.244,-0.299C3.246,-0.336 3.283,-0.331 3.31,-0.33C3.5,-0.319 3.692,-0.319 3.876,-0.263C4.178,-0.173 4.479,-0.078 4.779,0.016C4.819,0.028 4.861,0.041 4.894,0.065C5.074,0.198 5.288,0.223 5.5,0.242C5.587,0.249 5.628,0.283 5.665,0.356C5.739,0.503 5.817,0.651 5.957,0.752C6.043,0.814 6.135,0.867 6.223,0.927C6.333,1.003 6.441,1.082 6.55,1.16C6.596,1.192 6.642,1.23 6.698,1.232C6.778,1.235 6.824,1.281 6.868,1.336C7.074,1.592 7.314,1.814 7.564,2.025C7.618,2.071 7.664,2.12 7.698,2.182C7.726,2.234 7.757,2.285 7.804,2.325C7.868,2.379 7.926,2.4 8.016,2.358C8.245,2.251 8.492,2.214 8.772,2.198C8.668,2.36 8.542,2.491 8.556,2.685C8.419,2.634 8.311,2.543 8.17,2.52C8.307,2.607 8.445,2.694 8.582,2.78C8.617,2.802 8.645,2.778 8.672,2.764C8.755,2.72 8.822,2.656 8.892,2.596C8.962,2.535 9.036,2.482 9.125,2.45C9.253,2.403 9.351,2.309 9.474,2.227C9.53,2.384 9.557,2.535 9.566,2.688C9.574,2.834 9.571,2.981 9.567,3.127C9.563,3.304 9.481,3.393 9.306,3.402C8.989,3.417 9.006,3.427 8.868,3.174C8.821,3.089 8.775,3.005 8.725,2.923C8.703,2.886 8.687,2.839 8.636,2.828C8.604,2.86 8.61,2.895 8.619,2.922C8.69,3.126 8.77,3.326 8.942,3.472C9,3.522 9.057,3.559 9.142,3.521C9.207,3.492 9.28,3.518 9.349,3.521C9.558,3.529 9.558,3.531 9.697,3.675C9.787,3.769 9.894,3.842 9.999,3.918C10.205,4.066 10.419,4.204 10.646,4.321C10.729,4.363 10.806,4.412 10.879,4.47C10.973,4.546 11.084,4.595 11.196,4.64C11.39,4.716 11.579,4.806 11.788,4.84C11.847,4.849 11.867,4.876 11.845,4.933C11.827,4.98 11.814,5.029 11.802,5.078C11.786,5.146 11.783,5.214 11.797,5.282C11.803,5.314 11.812,5.35 11.852,5.351C11.884,5.352 11.894,5.319 11.905,5.295C11.933,5.232 11.96,5.169 11.986,5.105C12.049,4.952 12.128,4.808 12.228,4.655C12.367,4.88 12.472,5.119 12.68,5.306C12.693,5.192 12.648,5.11 12.624,5.013C12.796,5.01 12.973,5.071 13.133,4.957C13.192,5.056 13.228,5.17 13.346,5.23C13.398,5.16 13.364,5.09 13.343,5.025C13.284,4.847 13.224,4.67 13.181,4.487C13.171,4.448 13.15,4.41 13.171,4.368C13.217,4.365 13.248,4.397 13.286,4.413C13.46,4.486 13.638,4.529 13.828,4.483C13.856,4.476 13.883,4.469 13.904,4.495C13.95,4.554 14.002,4.527 14.053,4.504C14.1,4.483 14.14,4.45 14.172,4.411C14.42,4.113 14.591,3.786 14.555,3.384C14.547,3.292 14.528,3.204 14.476,3.125C14.415,3.031 14.403,2.918 14.352,2.82C14.312,2.743 14.24,2.666 14.24,2.59C14.241,2.521 14.331,2.457 14.363,2.382C14.487,2.097 14.568,1.807 14.486,1.491C14.456,1.373 14.467,1.246 14.441,1.125C14.395,0.904 14.321,0.694 14.224,0.49C14.056,0.139 13.828,-0.17 13.566,-0.458C13.504,-0.526 13.44,-0.561 13.33,-0.557C13.123,-0.548 12.911,-0.562 12.71,-0.629C12.653,-0.648 12.594,-0.661 12.547,-0.707C12.752,-0.984 12.676,-1.266 12.561,-1.548C12.513,-1.667 12.43,-1.767 12.36,-1.885C12.502,-1.961 12.64,-2.035 12.779,-2.108C12.838,-2.139 12.885,-2.109 12.932,-2.077C12.895,-2.116 12.858,-2.15 12.928,-2.196C13.018,-2.257 13.018,-2.263 13.074,-2.198C13.174,-2.083 13.286,-1.98 13.407,-1.887C13.462,-1.845 13.519,-1.805 13.585,-1.781C13.713,-1.734 13.815,-1.812 13.786,-1.942C13.746,-2.114 13.757,-2.287 13.751,-2.46C13.749,-2.527 13.774,-2.559 13.834,-2.583C14.228,-2.747 14.574,-2.981 14.885,-3.27C14.966,-3.346 14.972,-3.346 15.034,-3.265C15.305,-2.906 15.59,-2.556 15.84,-2.181C16.107,-1.78 16.287,-1.339 16.475,-0.902C16.618,-0.57 16.732,-0.227 16.851,0.115C16.916,0.3 16.944,0.487 16.945,0.68C16.948,1.416 16.951,2.152 16.953,2.888C16.955,3.788 16.953,4.689 16.957,5.589C16.957,5.681 16.937,5.755 16.877,5.827C16.752,5.974 16.635,6.128 16.513,6.278C16.418,6.396 16.37,6.52 16.415,6.673M16.583,7.155C16.684,7.138 16.726,7.093 16.737,6.991C16.747,6.881 16.736,6.771 16.7,6.667C16.677,6.598 16.695,6.558 16.749,6.515C16.813,6.465 16.871,6.405 16.936,6.344C16.963,6.377 16.954,6.414 16.955,6.447C16.957,6.872 16.959,7.296 16.96,7.721C16.961,7.827 16.959,7.826 16.855,7.826C16.167,7.823 15.48,7.821 14.793,7.818C14.757,7.818 14.719,7.825 14.678,7.808C14.67,7.733 14.713,7.707 14.765,7.695C15.161,7.604 15.482,7.378 15.792,7.136C15.896,7.055 15.986,7.037 16.106,7.084C16.222,7.13 16.344,7.162 16.472,7.16C16.509,7.16 16.546,7.16 16.583,7.155M3.382,1.732C3.348,1.667 3.337,1.609 3.347,1.544C3.403,1.537 3.456,1.553 3.466,1.597C3.478,1.652 3.434,1.694 3.382,1.732M4.465,2.651C4.37,2.714 4.274,2.777 4.16,2.852C4.153,2.625 4.161,2.421 4.218,2.221C4.252,2.1 4.252,2.102 4.362,2.155C4.519,2.229 4.648,2.338 4.774,2.474C4.678,2.55 4.563,2.587 4.465,2.651M6.734,5.368C6.389,5.208 6.067,5.009 5.738,4.82C5.542,4.707 5.35,4.587 5.16,4.464C4.956,4.331 4.732,4.248 4.495,4.193C4.301,4.148 4.109,4.096 3.91,4.076C4.205,4.061 4.492,4.096 4.772,4.197C5.05,4.297 5.34,4.369 5.62,4.462C5.882,4.548 6.151,4.62 6.401,4.747C6.605,4.85 6.827,4.934 7.067,4.919C7.111,4.917 7.137,4.94 7.161,4.968C7.296,5.125 7.431,5.282 7.565,5.439C7.643,5.531 7.612,5.638 7.612,5.74C7.599,5.744 7.588,5.751 7.582,5.748C7.304,5.613 7.015,5.499 6.734,5.368M7.999,6.227C8.107,6.2 8.107,6.198 8.157,6.289C8.256,6.472 8.386,6.632 8.523,6.788C8.553,6.822 8.591,6.85 8.611,6.914C8.492,6.903 8.386,6.888 8.28,6.886C8.08,6.881 8.028,6.921 7.972,7.11C7.958,7.158 7.945,7.206 7.932,7.254C7.889,7.264 7.875,7.228 7.853,7.208C7.766,7.125 7.683,7.039 7.593,6.96C7.524,6.898 7.447,6.846 7.344,6.86C7.311,6.865 7.279,6.854 7.252,6.835C7.113,6.744 6.964,6.67 6.828,6.573C6.439,6.296 6.022,6.067 5.585,5.872C5.301,5.746 5.029,5.6 4.788,5.402C4.738,5.36 4.683,5.327 4.624,5.3C4.333,5.166 4.055,5.009 3.788,4.835C3.566,4.69 3.322,4.589 3.072,4.502C2.983,4.471 2.891,4.466 2.797,4.468C2.757,4.469 2.715,4.488 2.668,4.459C2.689,4.399 2.75,4.377 2.794,4.344C2.977,4.205 3.182,4.111 3.413,4.08C3.549,4.061 3.677,4.083 3.809,4.123C3.954,4.167 4.108,4.186 4.256,4.222C4.654,4.319 5.043,4.439 5.379,4.682C5.635,4.867 5.921,5.001 6.187,5.167C6.392,5.295 6.6,5.414 6.823,5.506C6.84,5.513 6.856,5.529 6.873,5.529C7.101,5.524 7.258,5.691 7.453,5.764C7.613,5.825 7.609,5.837 7.579,6C7.571,6.04 7.56,6.08 7.55,6.12C7.525,6.219 7.543,6.249 7.643,6.272C7.693,6.284 7.745,6.282 7.795,6.272C7.863,6.259 7.931,6.244 7.999,6.227M8.526,-7.218C8.551,-7.177 8.538,-7.147 8.514,-7.119C8.375,-6.958 8.206,-6.858 7.982,-6.871C7.934,-6.873 7.893,-6.894 7.856,-6.922C7.792,-6.968 7.736,-7.024 7.689,-7.086C7.629,-7.166 7.632,-7.163 7.7,-7.234C7.85,-7.39 7.981,-7.562 8.095,-7.745C8.139,-7.815 8.181,-7.887 8.225,-7.956C8.25,-7.994 8.275,-8.034 8.346,-8.029C8.166,-7.657 8.134,-7.386 8.246,-7.126C8.257,-7.224 8.276,-7.304 8.271,-7.383C8.263,-7.508 8.305,-7.626 8.31,-7.749C8.312,-7.821 8.355,-7.883 8.41,-7.973C8.366,-7.686 8.394,-7.443 8.526,-7.218M10.572,-7.138C10.567,-7.085 10.522,-7.08 10.48,-7.074C10.355,-7.056 10.243,-7.098 10.11,-7.148C10.359,-7.326 10.55,-7.547 10.788,-7.723C10.707,-7.531 10.594,-7.351 10.572,-7.138M10.914,-7.612C10.889,-7.6 10.863,-7.59 10.815,-7.569C10.843,-7.696 10.926,-7.777 10.971,-7.891C11.098,-7.708 11.096,-7.697 10.914,-7.612M11.102,-7.605C11.121,-7.572 11.136,-7.538 11.098,-7.508C11.08,-7.494 11.059,-7.483 11.04,-7.471C10.93,-7.401 10.823,-7.33 10.733,-7.236C10.713,-7.214 10.692,-7.185 10.643,-7.194C10.681,-7.345 10.708,-7.497 10.895,-7.547C10.943,-7.56 10.986,-7.59 11.031,-7.613C11.058,-7.626 11.083,-7.638 11.102,-7.605M12.735,-7.585C12.56,-7.629 12.382,-7.644 12.196,-7.669C12.236,-7.777 12.319,-7.848 12.361,-7.956C12.491,-7.82 12.602,-7.693 12.735,-7.585M14.402,-7.153C14.319,-7.241 14.319,-7.259 14.373,-7.356C14.189,-7.324 13.859,-7.032 13.779,-6.831C13.801,-6.821 13.812,-6.84 13.823,-6.851C13.865,-6.897 13.895,-6.877 13.918,-6.833C13.96,-6.757 14.009,-6.687 14.08,-6.629C13.912,-6.618 13.763,-6.678 13.61,-6.716C13.574,-6.724 13.576,-6.755 13.585,-6.782C13.599,-6.822 13.613,-6.862 13.606,-6.903C13.586,-7.031 13.651,-7.118 13.741,-7.199C13.875,-7.318 14.006,-7.441 14.169,-7.523C14.214,-7.545 14.26,-7.569 14.308,-7.584C14.451,-7.628 14.521,-7.581 14.534,-7.437C14.546,-7.294 14.557,-7.151 14.569,-7.008C14.559,-7.005 14.549,-7.003 14.539,-7C14.502,-7.059 14.448,-7.103 14.402,-7.153M14.471,-6.607C14.328,-6.588 14.211,-6.58 14.107,-6.694C13.905,-6.915 13.9,-6.911 14.115,-7.109C14.263,-7.244 14.263,-7.244 14.389,-7.094C14.494,-6.968 14.615,-6.85 14.633,-6.675C14.636,-6.653 14.636,-6.631 14.639,-6.582C14.432,-6.691 14.347,-6.901 14.164,-7.003C14.24,-6.857 14.377,-6.757 14.471,-6.607M11.197,-7.223C11.231,-7.198 11.248,-7.16 11.226,-7.137C11.189,-7.097 11.141,-7.13 11.075,-7.143C11.131,-7.179 11.165,-7.201 11.197,-7.223M10.843,-7.127C10.804,-7.122 10.763,-7.105 10.701,-7.138C10.838,-7.231 10.962,-7.317 11.087,-7.4C11.111,-7.416 11.142,-7.446 11.169,-7.407C11.191,-7.374 11.194,-7.329 11.163,-7.306C11.065,-7.233 10.974,-7.145 10.843,-7.127M15.138,-5.62C14.998,-5.845 14.781,-5.976 14.547,-6.083C14.277,-6.207 14.001,-6.313 13.7,-6.341C13.634,-6.347 13.573,-6.37 13.513,-6.395C13.236,-6.509 12.947,-6.567 12.648,-6.586C12.486,-6.597 12.325,-6.626 12.163,-6.641C11.765,-6.68 11.365,-6.68 10.966,-6.66C10.743,-6.649 10.52,-6.658 10.297,-6.659C9.933,-6.661 9.575,-6.608 9.215,-6.568C8.998,-6.544 8.783,-6.505 8.571,-6.454C8.471,-6.43 8.367,-6.438 8.265,-6.443C7.889,-6.461 7.513,-6.456 7.137,-6.441C6.891,-6.432 6.646,-6.399 6.401,-6.375C6.351,-6.371 6.282,-6.326 6.251,-6.391C6.224,-6.448 6.235,-6.513 6.288,-6.567C6.494,-6.778 6.694,-6.994 6.951,-7.149C7.223,-7.313 7.484,-7.497 7.809,-7.568C7.804,-7.504 7.753,-7.461 7.718,-7.411C7.671,-7.344 7.622,-7.28 7.599,-7.197C7.569,-7.088 7.603,-7.007 7.687,-6.943C7.924,-6.763 8.175,-6.75 8.407,-6.911C8.487,-6.966 8.569,-7.019 8.638,-7.087C8.702,-7.15 8.719,-7.204 8.667,-7.255C8.542,-7.381 8.564,-7.54 8.533,-7.702C8.703,-7.694 8.865,-7.694 9.025,-7.679C9.345,-7.649 9.666,-7.652 9.986,-7.655C10.121,-7.656 10.253,-7.647 10.388,-7.606C10.385,-7.556 10.347,-7.533 10.321,-7.505C10.229,-7.408 10.145,-7.305 10.064,-7.199C10.027,-7.151 10.031,-7.116 10.079,-7.085C10.194,-7.009 10.313,-6.969 10.458,-6.983C10.707,-7.006 10.959,-7.025 11.208,-7.014C11.323,-7.009 11.424,-7.003 11.53,-7.07C11.415,-7.097 11.408,-7.187 11.398,-7.28C11.39,-7.352 11.363,-7.422 11.348,-7.494C11.337,-7.542 11.349,-7.568 11.412,-7.564C11.677,-7.545 11.941,-7.531 12.205,-7.515C12.233,-7.514 12.262,-7.515 12.288,-7.508C12.579,-7.422 12.886,-7.427 13.179,-7.35C13.31,-7.316 13.445,-7.315 13.592,-7.314C13.559,-7.233 13.52,-7.164 13.477,-7.096C13.428,-7.017 13.442,-6.771 13.499,-6.702C13.508,-6.692 13.518,-6.68 13.53,-6.676C13.694,-6.615 13.843,-6.513 14.029,-6.519C14.123,-6.522 14.214,-6.501 14.299,-6.458C14.402,-6.405 14.509,-6.396 14.623,-6.413C14.777,-6.436 14.836,-6.504 14.815,-6.655C14.802,-6.746 14.779,-6.834 14.765,-6.925C14.753,-7.012 14.766,-7.024 14.853,-7.002C15.068,-6.948 15.284,-6.893 15.498,-6.833C15.632,-6.796 15.762,-6.746 15.911,-6.748C15.899,-6.625 15.841,-6.524 15.805,-6.418C15.696,-6.09 15.463,-5.847 15.224,-5.608C15.189,-5.573 15.164,-5.577 15.138,-5.62M5.081,-3.258C5.002,-3.235 4.925,-3.202 4.818,-3.162C4.934,-3.452 5.025,-3.72 5.143,-3.978C5.182,-4.065 5.248,-4.107 5.347,-4.12C5.985,-4.203 6.626,-4.195 7.267,-4.166C7.564,-4.153 7.859,-4.115 8.155,-4.087C8.254,-4.077 8.345,-4.041 8.435,-4.005C8.63,-3.929 8.833,-3.882 9.037,-3.836C9.272,-3.782 9.504,-3.717 9.737,-3.654C9.854,-3.623 9.971,-3.596 10.092,-3.583C10.184,-3.573 10.275,-3.559 10.364,-3.605C10.41,-3.629 10.465,-3.617 10.516,-3.618C10.605,-3.621 10.695,-3.625 10.795,-3.628C10.763,-3.683 10.727,-3.671 10.698,-3.672C10.582,-3.678 10.466,-3.683 10.349,-3.684C10.035,-3.685 9.731,-3.74 9.434,-3.841C9.399,-3.853 9.365,-3.867 9.329,-3.875C8.848,-3.98 8.379,-4.133 7.895,-4.221C7.598,-4.275 7.297,-4.301 6.994,-4.306C6.776,-4.309 6.557,-4.309 6.339,-4.305C5.989,-4.297 5.646,-4.241 5.306,-4.164C5.289,-4.16 5.272,-4.146 5.255,-4.161C5.246,-4.174 5.249,-4.186 5.256,-4.198C5.39,-4.475 5.525,-4.75 5.656,-5.028C5.703,-5.126 5.766,-5.171 5.883,-5.165C6.111,-5.152 6.339,-5.158 6.566,-5.152C6.841,-5.145 7.114,-5.181 7.387,-5.201C7.484,-5.208 7.582,-5.213 7.679,-5.212C8.144,-5.209 8.608,-5.233 9.073,-5.218C9.213,-5.214 9.353,-5.223 9.49,-5.246C9.772,-5.295 10.048,-5.27 10.317,-5.19C10.55,-5.121 10.79,-5.099 11.026,-5.053C11.822,-4.896 12.615,-4.718 13.401,-4.516C13.476,-4.496 13.55,-4.466 13.646,-4.481C13.542,-4.578 13.417,-4.605 13.298,-4.621C13.024,-4.659 12.765,-4.745 12.503,-4.822C12.084,-4.946 11.657,-5.031 11.225,-5.097C11.019,-5.128 10.815,-5.17 10.615,-5.232C10.398,-5.299 10.175,-5.346 9.953,-5.395C9.857,-5.416 9.758,-5.404 9.661,-5.388C9.293,-5.329 8.921,-5.313 8.55,-5.329C8.037,-5.353 7.529,-5.322 7.02,-5.262C6.61,-5.212 6.195,-5.223 5.785,-5.211C5.753,-5.248 5.781,-5.274 5.795,-5.3C5.915,-5.517 6.025,-5.739 6.188,-5.929C6.256,-6.008 6.282,-6.088 6.256,-6.194C6.229,-6.306 6.246,-6.322 6.367,-6.318C6.809,-6.307 7.25,-6.335 7.692,-6.342C7.994,-6.347 8.294,-6.382 8.595,-6.408C9.02,-6.445 9.441,-6.523 9.867,-6.554C10.03,-6.566 10.192,-6.559 10.354,-6.547C10.461,-6.54 10.567,-6.542 10.674,-6.545C11.139,-6.556 11.602,-6.598 12.068,-6.57C12.319,-6.555 12.564,-6.503 12.812,-6.465C12.844,-6.46 12.876,-6.451 12.908,-6.449C13.104,-6.436 13.293,-6.392 13.478,-6.328C13.688,-6.255 13.911,-6.226 14.12,-6.146C14.263,-6.091 14.404,-6.033 14.532,-5.948C14.593,-5.907 14.657,-5.868 14.723,-5.834C14.843,-5.772 14.952,-5.697 15.05,-5.604C15.128,-5.529 15.133,-5.528 15.049,-5.452C14.924,-5.336 14.798,-5.22 14.664,-5.115C14.433,-4.932 14.215,-4.731 13.945,-4.599C13.858,-4.557 13.794,-4.482 13.71,-4.431C13.144,-4.086 12.515,-3.888 11.894,-3.671C11.885,-3.668 11.875,-3.668 11.867,-3.663C11.593,-3.507 11.276,-3.517 10.981,-3.444C10.687,-3.371 10.385,-3.352 10.083,-3.34C9.99,-3.336 9.897,-3.325 9.805,-3.322C9.329,-3.306 8.859,-3.355 8.392,-3.438C8.218,-3.469 8.044,-3.488 7.866,-3.488C7.736,-3.489 7.607,-3.509 7.478,-3.519C6.662,-3.583 5.864,-3.482 5.081,-3.258M4.448,-2.946C4.322,-2.889 4.204,-2.813 4.083,-2.746C4.056,-2.732 4.034,-2.707 3.989,-2.708C4.136,-3.129 4.217,-3.56 4.363,-3.974C4.458,-4.246 4.503,-4.532 4.594,-4.806C4.739,-5.24 4.897,-5.671 5.082,-6.088C5.241,-6.447 5.396,-6.81 5.617,-7.141C5.699,-7.264 5.746,-7.409 5.844,-7.529C6.011,-7.731 6.222,-7.864 6.464,-7.956C6.528,-7.981 6.597,-7.995 6.659,-8.027C6.705,-8.051 6.759,-8.053 6.809,-8.044C6.951,-8.018 7.096,-7.987 7.215,-7.909C7.369,-7.807 7.516,-7.696 7.698,-7.644C7.372,-7.479 7.063,-7.315 6.776,-7.111C6.651,-7.022 6.537,-6.922 6.432,-6.811C6.352,-6.724 6.291,-6.619 6.174,-6.568C6.143,-6.554 6.124,-6.515 6.101,-6.486C5.784,-6.092 5.542,-5.656 5.379,-5.18C5.25,-4.803 5.078,-4.443 4.923,-4.076C4.808,-3.806 4.703,-3.533 4.668,-3.239C4.651,-3.102 4.58,-3.006 4.448,-2.946M6.583,-3.109C6.512,-3.014 6.439,-2.919 6.363,-2.828C6.258,-2.702 6.196,-2.698 6.079,-2.809C5.996,-2.888 5.918,-2.972 5.836,-3.053C5.778,-3.111 5.728,-3.176 5.634,-3.231C6.022,-3.325 6.387,-3.343 6.774,-3.373C6.704,-3.275 6.645,-3.191 6.583,-3.109M7.345,1.425C7.407,1.539 7.454,1.638 7.475,1.773C7.335,1.659 7.332,1.649 7.345,1.425M7.348,0.74C7.289,1.023 7.249,1.295 7.273,1.6C7.061,1.411 6.842,1.28 6.686,1.077C6.624,0.996 6.622,0.996 6.707,0.946C6.899,0.831 7.107,0.763 7.348,0.74M9.717,-1.553C10.081,-1.478 10.446,-1.513 10.816,-1.538C10.468,-1.326 10.196,-1.031 9.883,-0.759C9.843,-0.885 9.799,-1.002 9.769,-1.122C9.739,-1.247 9.717,-1.372 9.656,-1.487C9.632,-1.532 9.65,-1.557 9.703,-1.554C9.707,-1.554 9.712,-1.554 9.717,-1.553M13.402,-0.495C13.449,-0.459 13.449,-0.459 13.465,-0.4C13.409,-0.41 13.417,-0.457 13.402,-0.495M12.285,-8.091C12.256,-8.057 12.23,-8.066 12.205,-8.095C12.155,-8.154 12.101,-8.212 12.054,-8.274C11.663,-8.803 11.174,-9.228 10.615,-9.573C10.202,-9.828 9.771,-10.054 9.318,-10.236C9.254,-10.262 9.188,-10.281 9.111,-10.308C9.161,-10.347 9.212,-10.333 9.258,-10.332C10.317,-10.318 11.377,-10.329 12.436,-10.327C12.752,-10.326 13.068,-10.328 13.384,-10.333C13.474,-10.335 13.541,-10.314 13.599,-10.238C13.685,-10.126 13.785,-10.025 13.882,-9.915C13.859,-9.899 13.845,-9.887 13.829,-9.879C13.801,-9.865 13.761,-9.858 13.769,-9.816C13.779,-9.771 13.815,-9.748 13.861,-9.746C13.888,-9.745 13.917,-9.748 13.943,-9.755C14.176,-9.823 14.405,-9.898 14.58,-10.075C14.608,-10.103 14.635,-10.125 14.677,-10.099C14.717,-10.073 14.761,-10.047 14.747,-9.993C14.731,-9.927 14.713,-9.859 14.683,-9.798C14.617,-9.667 14.552,-9.534 14.45,-9.426C14.411,-9.384 14.42,-9.335 14.398,-9.282C14.188,-9.438 13.983,-9.59 13.78,-9.741C13.733,-9.705 13.755,-9.675 13.772,-9.651C13.915,-9.441 14.113,-9.306 14.363,-9.246C14.408,-9.236 14.458,-9.23 14.496,-9.266C14.545,-9.315 14.575,-9.282 14.61,-9.248C14.723,-9.139 14.82,-9.015 14.903,-8.883C14.979,-8.763 15.048,-8.639 15.116,-8.514C15.383,-8.017 15.649,-7.52 15.915,-7.023C15.925,-7.004 15.933,-6.983 15.946,-6.953C15.765,-6.966 15.603,-7.023 15.436,-7.055C15.272,-7.087 15.109,-7.125 14.946,-7.159C14.779,-7.194 14.729,-7.242 14.7,-7.408C14.679,-7.531 14.608,-7.628 14.525,-7.714C14.459,-7.783 14.37,-7.789 14.28,-7.751C14.147,-7.695 14.022,-7.623 13.911,-7.533C13.794,-7.438 13.681,-7.413 13.539,-7.479C13.425,-7.533 13.294,-7.525 13.17,-7.54C13.11,-7.548 13.05,-7.553 12.99,-7.558C12.917,-7.563 12.856,-7.574 12.846,-7.668C12.843,-7.703 12.804,-7.737 12.776,-7.767C12.668,-7.88 12.549,-7.983 12.429,-8.084C12.382,-8.122 12.336,-8.15 12.285,-8.091M1.081,-8.705C1.029,-8.722 0.978,-8.74 0.897,-8.768C1.044,-8.81 1.157,-8.842 1.272,-8.874C1.293,-8.649 1.282,-8.639 1.081,-8.705M4.484,-8.956C4.093,-9.033 3.781,-9.235 3.482,-9.499C3.637,-9.566 3.784,-9.613 3.939,-9.628C4.072,-9.641 4.206,-9.649 4.341,-9.639C4.463,-9.629 4.586,-9.631 4.715,-9.649C4.478,-9.466 4.503,-9.205 4.484,-8.956M7.977,-9.165C8.178,-9.079 8.365,-8.97 8.553,-8.861C8.64,-8.811 8.725,-8.757 8.812,-8.705C8.438,-8.668 8.077,-8.605 7.721,-8.531C7.554,-8.497 7.422,-8.516 7.294,-8.63C7.484,-8.782 7.646,-8.964 7.818,-9.134C7.868,-9.183 7.911,-9.193 7.977,-9.165M1.805,-7.305C1.992,-7.381 2.164,-7.392 2.334,-7.408C2.543,-7.427 2.748,-7.463 2.955,-7.493C2.978,-7.496 3,-7.502 3.012,-7.526C2.995,-7.563 2.951,-7.533 2.927,-7.563C2.935,-7.614 2.979,-7.628 3.029,-7.647C3.062,-7.527 3.121,-7.419 3.148,-7.279C2.702,-7.296 2.266,-7.316 1.805,-7.305M4.128,-4.768C4.116,-4.915 4.136,-5.042 4.154,-5.167C4.202,-5.51 4.259,-5.852 4.313,-6.195C4.328,-6.294 4.357,-6.388 4.39,-6.484C4.438,-6.621 4.461,-6.767 4.481,-6.911C4.526,-7.224 4.677,-7.489 4.852,-7.744C4.865,-7.762 4.88,-7.794 4.9,-7.787C5.021,-7.742 5.111,-7.828 5.228,-7.857C5.251,-7.702 5.224,-7.556 5.191,-7.413C5.134,-7.172 5.032,-6.946 4.947,-6.715C4.751,-6.182 4.505,-5.67 4.288,-5.147C4.238,-5.026 4.203,-4.899 4.128,-4.768M4.864,-6.156C4.945,-6.325 5.008,-6.502 5.072,-6.679C5.096,-6.743 5.116,-6.81 5.15,-6.869C5.326,-7.174 5.368,-7.507 5.364,-7.849C5.361,-8.132 5.364,-8.416 5.28,-8.692C5.273,-8.713 5.269,-8.736 5.284,-8.765C5.466,-8.794 5.649,-8.761 5.832,-8.739C5.915,-8.729 5.997,-8.712 6.079,-8.698C6.176,-8.681 6.271,-8.675 6.37,-8.68C6.524,-8.688 6.676,-8.668 6.82,-8.609C6.962,-8.551 7.105,-8.497 7.248,-8.441C7.46,-8.359 7.615,-8.213 7.719,-8.015C7.773,-7.911 7.828,-7.806 7.865,-7.692C7.771,-7.66 7.695,-7.683 7.624,-7.717C7.541,-7.757 7.454,-7.795 7.381,-7.85C7.246,-7.954 7.087,-8.003 6.931,-8.061C6.859,-8.088 6.786,-8.092 6.712,-8.076C6.203,-7.966 5.83,-7.685 5.602,-7.222C5.569,-7.156 5.536,-7.091 5.499,-7.027C5.36,-6.789 5.247,-6.539 5.122,-6.294C4.851,-5.764 4.684,-5.199 4.506,-4.637C4.384,-4.254 4.236,-3.879 4.138,-3.488C4.076,-3.24 4.004,-2.994 3.942,-2.746C3.926,-2.68 3.904,-2.628 3.847,-2.589C3.801,-2.558 3.762,-2.518 3.72,-2.482C3.699,-2.52 3.725,-2.547 3.734,-2.576C3.838,-2.937 3.906,-3.305 3.958,-3.676C4.006,-4.023 4.119,-4.351 4.23,-4.68C4.401,-5.189 4.631,-5.673 4.864,-6.156M2.821,-6.766C2.601,-6.724 2.378,-6.717 2.156,-6.699C1.79,-6.67 1.426,-6.627 1.064,-6.571C1.022,-6.564 0.98,-6.556 0.939,-6.558C0.549,-6.57 0.173,-6.489 -0.202,-6.398C-0.504,-6.326 -0.808,-6.259 -1.111,-6.19C-1.143,-6.183 -1.175,-6.177 -1.207,-6.171C-1.259,-6.16 -1.287,-6.181 -1.285,-6.235C-1.284,-6.249 -1.285,-6.262 -1.285,-6.276C-1.285,-6.514 -1.286,-6.752 -1.285,-6.989C-1.284,-7.098 -1.28,-7.1 -1.176,-7.092C-0.72,-7.054 -0.266,-7.071 0.187,-7.125C0.311,-7.139 0.437,-7.142 0.563,-7.147C0.753,-7.154 0.943,-7.155 1.133,-7.181C1.234,-7.194 1.337,-7.197 1.439,-7.195C1.722,-7.19 2.005,-7.186 2.289,-7.17C2.539,-7.156 2.79,-7.167 3.039,-7.208C3.184,-7.232 3.175,-7.224 3.248,-7.094C3.422,-6.783 3.381,-6.458 3.333,-6.13C3.321,-6.049 3.302,-5.969 3.29,-5.887C3.283,-5.839 3.261,-5.824 3.215,-5.839C3.046,-5.895 2.905,-5.838 2.776,-5.735C2.702,-5.676 2.617,-5.643 2.525,-5.622C2.311,-5.574 2.106,-5.503 1.915,-5.394C1.839,-5.35 1.758,-5.315 1.672,-5.292C1.345,-5.202 1.026,-5.09 0.712,-4.962C0.438,-4.85 0.158,-4.752 -0.124,-4.659C-0.504,-4.535 -0.857,-4.349 -1.211,-4.167C-1.227,-4.159 -1.243,-4.151 -1.266,-4.141C-1.292,-4.184 -1.285,-4.216 -1.286,-4.247C-1.286,-4.814 -1.287,-5.381 -1.287,-5.948C-1.287,-5.98 -1.284,-6.012 -1.285,-6.044C-1.288,-6.093 -1.271,-6.116 -1.216,-6.122C-0.717,-6.181 -0.23,-6.301 0.259,-6.41C0.409,-6.443 0.562,-6.454 0.715,-6.47C1.019,-6.502 1.321,-6.557 1.628,-6.569C1.791,-6.576 1.953,-6.594 2.115,-6.598C2.385,-6.605 2.65,-6.661 2.92,-6.672C3.035,-6.677 3.141,-6.741 3.26,-6.734C3.269,-6.734 3.286,-6.75 3.287,-6.76C3.29,-6.781 3.273,-6.791 3.252,-6.792C3.108,-6.795 2.962,-6.794 2.821,-6.766M-1.636,-10.559C-1.622,-10.436 -1.623,-10.312 -1.624,-10.189C-1.631,-9.101 -1.642,-8.013 -1.644,-6.925C-1.648,-5.037 -1.645,-3.149 -1.645,-1.261C-1.643,1.757 -1.655,4.774 -1.624,7.791C-1.623,7.887 -1.618,7.983 -1.616,8.079C-1.615,8.139 -1.587,8.167 -1.525,8.177C-1.391,8.199 -1.257,8.205 -1.122,8.205C0.403,8.207 1.928,8.227 3.452,8.226C6.153,8.224 8.854,8.233 11.555,8.235C13.303,8.236 15.05,8.232 16.798,8.23C16.882,8.23 16.966,8.229 17.049,8.221C17.22,8.204 17.266,8.153 17.268,7.985C17.27,7.806 17.272,7.628 17.273,7.45C17.284,4.309 17.272,1.169 17.285,-1.972C17.296,-4.738 17.303,-7.504 17.277,-10.269C17.276,-10.329 17.279,-10.388 17.278,-10.448C17.274,-10.595 17.234,-10.635 17.087,-10.64C17.064,-10.641 17.041,-10.641 17.018,-10.641C10.854,-10.641 4.69,-10.641 -1.474,-10.642C-1.502,-10.642 -1.53,-10.64 -1.558,-10.642C-1.619,-10.645 -1.643,-10.616 -1.636,-10.559" style="fill:rgb(46,95,46);fill-rule:nonzero;"/>
                    </g>
                </g>
            </g>
        </g>
    </g>
</svg>
