<?xml version="1.0" encoding="UTF-8" standalone="no"?>
<!DOCTYPE svg PUBLIC "-//W3C//DTD SVG 1.1//EN" "http://www.w3.org/Graphics/SVG/1.1/DTD/svg11.dtd">
<svg width="100%" height="100%" viewBox="0 0 18 17" version="1.1" xmlns="http://www.w3.org/2000/svg" xmlns:xlink="http://www.w3.org/1999/xlink" xml:space="preserve" xmlns:serif="http://www.serif.com/" style="fill-rule:evenodd;clip-rule:evenodd;stroke-linejoin:round;stroke-miterlimit:2;">
    <g transform="matrix(1,0,0,1,-0.506903,-0.190302)">
        <g transform="matrix(1,0,0,1,-3.2231,-4.1787)">
            <circle cx="12.43" cy="12.496" r="8.127" style="fill:rgb(45,95,47);"/>
            <g transform="matrix(0.0197442,0,0,0.0197442,2.37389,2.84909)">
                <path d="M82.35,625.36C88.17,614.78 102.2,609.98 113.32,614.65C118.71,616.52 122.62,620.83 126.34,624.95C132.61,625.15 138.88,624.79 145.12,624.15C154.12,623.8 163.17,624.34 172.13,623.15C179.7,623.04 187.27,622.69 194.85,622.67C195.75,627.09 196.24,631.56 195.98,636.08C182.54,637.82 168.94,636.19 155.49,637.74C147.05,638.1 138.59,637.96 130.14,637.97C129.41,644.6 126.95,651.32 121.85,655.83C114.08,663.85 100.81,665.48 91.3,659.68C79.73,653.21 74.96,636.62 82.35,625.36M100.3,626.25C97.06,627.41 94.18,629.62 92.97,632.95C88.88,640.9 95.91,651.49 104.79,650.89C110.24,649.98 115.31,645.93 116.42,640.37C117.71,637.28 116.14,634.06 114.64,631.37C111.61,626.68 105.57,624.93 100.3,626.25Z" style="fill:none;fill-rule:nonzero;stroke:rgb(45,95,47);stroke-width:20.26px;"/>
            </g>
            <g transform="matrix(0.0197442,0,0,0.0197442,2.37389,2.84909)">
                <path d="M484.78,106.65C490.53,105.46 496.46,106.47 502.23,105.35C509.06,105.09 515.93,105.07 522.77,105.36C528.53,106.51 534.48,105.41 540.23,106.62C593.82,111.03 645.77,130.7 690.22,160.75C700.29,167.91 710.13,175.43 719.58,183.39C741.65,203.51 761.76,226.01 777.6,251.41C788.41,268.38 796.27,287.04 802.23,306.21C809.49,305.52 816.6,303.41 823.74,301.92C825.43,295.87 830.08,289.71 836.96,289.95C846.95,288.58 855.58,300.83 850.86,309.79C848.74,314.81 843.56,318.55 838,318.04C834.26,318.64 831.32,315.98 827.98,314.9C820.34,316.38 812.92,319.34 805.03,319.31C806.48,328.43 809.08,337.31 810.51,346.43C814.45,368.94 816.39,391.73 817.46,414.53C826.32,414.96 835.16,413.86 844,414.52C852.6,410.96 860.56,406.01 868.9,401.89C869.01,396.98 868.42,391.89 870.16,387.19C873.33,378.03 879.78,369.86 888.64,365.65C901.21,359 917.58,361.38 928.02,370.96C933.15,375.87 937.63,382.03 938.88,389.19C943.46,407.01 930.89,427.2 912.83,430.89C899.86,434.49 885.51,429.13 876.82,419.15C875.54,417.75 874.63,414.72 872.19,415.96C865.08,419.53 858.2,423.54 851.1,427.13C850.13,427.68 849.09,427.94 848,427.92C837.94,428.06 827.89,427.91 817.84,428.02C817.42,435.68 818.18,443.38 817.63,451.04C816.89,460.39 817.15,469.78 816.67,479.13C815.45,484.81 816.59,490.68 815.36,496.35C814.39,504.94 813.76,513.56 812.15,522.08C811.92,524.04 811.98,526.01 811.96,527.99C822.3,528.01 832.64,527.99 842.99,527.96C844.59,528.11 845.42,526.37 846.21,525.26C851.07,516.79 855.77,508.22 861.2,500.09C870.03,499.97 878.86,500.02 887.69,500.05C890.35,496.53 894.44,493.72 899.01,493.96C904.42,493.8 909.75,497.5 911.21,502.79C913.32,507.42 910.84,512.41 908.15,516.21C902.3,522.08 891.67,520.28 887.55,513.24C881.52,513.26 875.48,513.75 869.46,513.26C863.96,522.55 858.32,531.73 852.73,540.97C838.23,541.68 823.72,541.97 809.21,541.89C807.21,552.68 804.79,563.39 802.01,574.01C811.3,574.12 820.59,574.08 829.88,574.03C834.48,571.01 838.64,567.33 842.96,563.91C850.48,558.71 858.95,555.1 867.23,551.29C869.64,555.25 871.36,559.58 873.25,563.8C864.61,568.63 854.92,571.78 847.28,578.25C844.49,581.22 841.08,583.48 838.12,586.26C837.19,587.27 835.72,587.31 834.47,587.51C822.41,587.92 810.34,587.68 798.28,587.89C794.4,601.78 789.89,615.51 784.77,629C788.88,631.15 792.37,634.23 796.21,636.8C809.88,646.53 824.03,655.6 837.39,665.78C841.98,665.99 847.83,665.98 850.46,670.54C855.23,676.12 851.72,686.23 844.43,687.47C838.83,689 830.81,684.79 831.81,678.22C814.26,666.26 796.92,653.99 779.42,641.96C769.41,667.75 759.5,693.68 746.66,718.22C753.98,725.52 762.35,731.68 770.17,738.43C776.98,733.54 783.23,727.93 790.05,723.05C792.74,720.95 796.38,720.33 799.66,721.22C808.62,728.21 815.6,737.31 823.93,744.98C824.63,745.77 825.32,746.59 826.01,747.44C832.96,743.26 841.36,740.68 849.46,742.54C858.18,744.17 865.95,749.94 870.25,757.67C874.22,763.93 874.81,771.64 873.74,778.82C871.18,789.97 862.27,799.54 850.95,801.94C844.08,804.09 836.73,802.48 830.32,799.68C815.26,792.64 808.6,772.19 817.28,757.87C810.34,750.47 802.98,743.48 795.84,736.27C787.79,741.67 781,748.79 772.68,753.78C767.21,755.48 763.33,750.43 759.56,747.4C752.68,742.2 746.59,736.07 739.57,731.06C735.4,740.31 729.58,748.68 725.19,757.81C733.46,765.3 742.19,772.3 749.94,780.37C750.1,791.26 749.89,802.16 750.03,813.06C756.35,813.16 762.68,812.9 769,813.1C771.82,808.47 776.89,804.98 782.49,805.61C788.16,805.62 793.09,810.21 794.34,815.62C797.55,824.71 787.91,835.14 778.6,832.42C775.54,831.97 773.1,830 771.1,827.78C770.17,826.47 768.39,826.86 767.04,826.71C759.46,826.77 751.86,827.09 744.3,826.79C740.05,824.76 736.29,820.76 736.29,815.8C735.92,805.93 736.2,796.01 736.2,786.14C734.52,783.21 731.43,781.34 729.02,779.02C725.26,776.08 722.19,772.26 718.15,769.69C713.44,774.46 710.79,781.2 706.47,786.45C696.32,801.99 684.43,816.3 671.83,829.89C655.81,848.26 637.14,864.13 617.41,878.37C598.09,891.7 577.06,903.01 554.34,909.31C532.82,915.43 509.95,916.75 487.87,913.28C465.36,909.86 443.94,901.11 424.39,889.62C409.96,881.52 396.78,871.44 383.83,861.2C356.13,836.74 330.74,809.34 310.98,778C309.63,775.62 308.09,773.32 306.06,771.47C302.9,776.09 298.61,779.76 294.71,783.72C292.04,786.3 289.15,789.62 285.04,789.22C274.02,788.97 262.96,789.77 251.97,788.95C248.61,793.02 243.4,795.89 238,795.25C228.69,795.18 221.08,783.97 225.48,775.48C227.48,770.22 232.83,767.18 238.09,766.06C244.72,765.61 250.65,770.06 253.22,776.01C263.05,775.91 272.91,776.25 282.73,775.85C288.71,771.01 293.83,765.21 299.4,759.93C296.27,753.16 291.96,747.01 288.59,740.36C285.02,733.03 280.73,726.08 277.5,718.59C275.02,714.19 273.32,709.27 270.17,705.29C266.93,708.68 263.51,711.9 260.28,715.3C257.13,718.51 254.58,722.37 250.71,724.81C237.97,725.5 225.11,724.7 212.42,726.17C203.24,735.4 193.68,744.25 184.84,753.82C190.62,765.27 183.04,780.72 170.6,783.53C163.21,785.08 154.41,783.72 149.24,777.75C143.87,772.6 141.62,764.71 143.47,757.51C145.39,749.23 152.55,742.32 160.99,740.96C165.96,739.69 171.21,740.91 175.71,743.16C181.16,737.13 187.45,731.92 193.15,726.13C197.7,721.28 202.55,716.73 207.3,712.08C218.87,711.94 230.44,712.04 242.01,712.01C243.45,712.24 244.58,711.38 245.57,710.47C251.63,704.21 257.68,697.91 264,691.92C261.23,684.82 257.78,678.01 255.07,670.89C251.31,661.17 247.65,651.4 243.72,641.75C240.1,642.58 237.6,645.61 234.57,647.58C221.73,657.77 208.54,667.51 195.72,677.73C192.1,680.11 189.33,683.63 185.3,685.4C184.84,687.71 184.53,690.2 183.23,692.21C180.17,695.15 175.54,696.97 171.36,695.66C168.8,694.39 165.99,692.94 164.96,690.08C162.41,685.41 164.58,679.74 168.28,676.36C171.06,674.46 174.52,674.32 177.74,674.89C192.27,662.98 207.01,651.33 221.98,639.99C223.66,638.54 226.83,637.83 226.39,635.05C222.07,635.44 217.72,635.99 213.38,635.67C212.67,631.17 213.16,626.61 212.82,622.1C218.87,621.66 224.96,622.23 231,621.51C232.37,621.66 233.75,621.83 235.13,622.04C235.01,620.48 235.04,618.88 234.5,617.4C231.38,607.73 227.4,598.26 225.57,588.23C220.51,586.7 215.19,587.63 210.01,587.54C201.32,587.96 192.63,587.82 183.93,587.86C182.53,587.79 181.04,587.95 179.75,587.31C175.31,583 171.16,578.39 167.27,573.58C166.14,571.24 167.09,568.51 166.91,566.02C167.06,547.03 167,528.04 166.96,509.06C150.46,509.01 133.93,508.89 117.45,509.25C114.89,510.93 112.24,513.1 109,513.03C104.28,513.75 99.49,510.48 97.98,506.04C94.88,500.01 100.27,492.24 106.6,491.55C110.75,490.34 114.26,493.51 117.37,495.77C130.53,495.18 143.8,495.12 157.03,495.24C160.35,495.53 163.68,495.6 166.98,495.12C167.06,479.51 166.89,463.9 167.06,448.29C170.63,445.47 174.11,442.55 177.37,439.38C181.22,436.56 184.9,433.52 188.72,430.67C189.87,429.64 191.55,430.09 192.95,429.97C197.31,430.01 201.67,430.06 206.03,429.98C207.2,420.42 206.71,410.76 207.25,401.17C208.45,395.18 207.56,389.02 208.79,383.04C208.86,377.37 210.3,371.84 210.14,366.16C204.46,366.05 198.78,366.13 193.1,365.91C182.99,361.97 172.77,358.26 162.91,353.69C157.17,362.64 146.73,368.62 136,368.04C120.09,368.75 106.14,353.65 106.82,338C106.43,328.83 111.36,319.95 118.39,314.29C125.92,309.07 135.87,306.06 144.8,309.28C158.61,313.1 168.06,327.42 167.1,341.57C173.5,343.17 179.36,346.32 185.61,348.36C189,349.46 191.9,351.7 195.34,352.6C200.88,353.05 206.45,352.8 212,353.06C213.05,351.22 212.96,349.07 213.12,347.02C215.84,326.58 221.31,306.6 228.05,287.14L227.84,286.46C222.39,283.5 217.07,280.27 211.97,276.74C208.84,277.95 205.62,279.56 202.16,278.93C196.23,277.69 190.1,272.66 190.88,266.02C190.06,260.33 194.55,255.54 199.36,253.3C203,252.39 207.25,252.29 210.47,254.5C214.5,256.83 216.57,261.45 217.13,265.92C222.59,268.3 227.71,271.36 233.22,273.63C246.77,247.89 263.82,223.91 284.14,203.08C292.59,194.2 301.69,185.95 310.92,177.89C336.94,156.85 365.93,139.17 397.26,127.21C425.2,116.1 454.8,108.89 484.78,106.65M504.46,121.58C500.3,122.08 496.1,121.93 491.92,122.02C477.06,123.46 462.2,125.33 447.6,128.62C410.19,137.13 374.11,152.42 342.94,174.93C336.41,179.26 330.37,184.32 324.64,189.65C317.67,194.93 312.16,201.86 306.63,208.56C295.2,222.7 288.32,240.73 288.83,259.01C288.54,268.37 289.24,277.71 291.13,286.89C297.45,316.99 309.83,345.67 326.6,371.41C337.8,387.3 349.26,403.17 363.24,416.76C380.84,435.15 402.08,449.74 424.66,461.33C449.57,473.87 477.22,480.71 505,482.02C512.38,481.82 519.86,482.62 527.16,481.21C538.21,480.67 549,478.05 559.8,475.81C576.11,471.9 591.8,465.53 606.48,457.45C631.59,444.18 653.49,425.43 672.06,404.07C685.47,387.84 698.51,371.06 708.27,352.31C718.74,332.95 726.74,312.21 731.72,290.76C733.52,283.65 734.16,276.34 734.99,269.08C734.81,262.65 735.62,256.12 734.28,249.78C732.9,234.54 726.29,220.08 716.78,208.21C711.36,201.38 705.86,194.45 698.84,189.19C691.03,181.47 681.8,175.41 672.83,169.14C655.89,157.9 637.74,148.46 618.7,141.33C593.19,131.8 566.55,124.65 539.32,122.72C533.78,121.52 528.1,122.22 522.5,121.78C516.5,121.29 510.46,121.03 504.46,121.58M259.46,263.48C255.75,264.41 254.01,268.13 252.08,271.05C245.91,281.72 241.78,293.42 238.29,305.2C230.56,332.11 226.69,359.97 224.71,387.82C223.53,392.96 224.3,398.27 223.7,403.48C222.72,410.94 223.06,418.49 222.89,426C222.9,442.37 222.63,458.76 223.24,475.11C224.23,480.78 223.56,486.59 224.65,492.23C227.83,537.76 238.11,582.8 254.62,625.37C267.31,657.59 280.63,689.63 296.57,720.39C311.84,750.84 329.96,779.99 351.79,806.18C377.44,835.46 406.27,863 441.3,880.76C466.88,894.02 495.98,902.84 525,899.04C546.93,896.59 567.94,888.61 587.27,878.18C608.51,866.34 628.28,851.7 645.25,834.25C660.94,818.83 676.08,802.69 688.47,784.45C698.28,771.53 706.13,757.31 714.49,743.44C729.51,717.55 742.14,690.37 753.83,662.85C759.46,648.22 766.02,633.95 771.06,619.1C786.66,576.82 796.47,532.28 799.29,487.34C800.56,481.61 799.61,475.69 800.5,469.91C801.41,460.64 800.84,451.3 801.04,442C800.84,429 801.56,415.95 800.07,403C800.43,396.25 798.89,389.65 798.96,382.92C797.98,375.71 797.55,368.46 796.63,361.24C792.07,330.23 786.19,298.62 771.22,270.71C769.36,266.87 765.84,262.87 761.21,263.26C757.42,263.78 755.52,267.6 754.94,270.98C755.44,273.24 756.5,275.32 757.6,277.35C760.86,283.37 763.39,289.75 765.86,296.12C771.97,314.6 776.6,333.58 779.24,352.87C781.74,368.13 782.6,383.55 783.96,398.93C784.09,404.65 783.72,410.42 784.71,416.09C784.9,431.1 785.25,446.15 784.2,461.14C783.71,468.41 784.5,475.74 783.34,482.96C780.28,533.12 769.21,583.06 749.33,629.34C743.43,641.61 737.68,654.3 728.45,664.48C723.88,669.87 717.55,673.41 711.18,676.26C703.6,679.93 696.02,683.6 688.67,687.72C674.89,696.09 662.03,706.29 651.9,718.9C637.86,736.04 627.81,757.38 627.81,779.85C626.53,786.53 627.48,793.38 626.38,800.08C625.75,804.97 626.23,809.92 625.79,814.83C624.75,821.15 624.24,827.66 621.61,833.59C618.9,837.88 614.34,840.41 610.44,843.45C587.95,860.56 562.54,874.69 534.75,880.75C523.17,883.41 511.16,883.7 499.36,882.68C473.08,879.46 448.88,867.24 426.83,853.12C419.21,848.21 411.78,843 404.74,837.29C400.62,833.96 399.57,828.49 398.58,823.59C397.69,817.79 396.77,812.01 396.84,806.13C395.28,798.42 396.58,790.52 395.48,782.77C395.02,779.84 395.02,776.87 394.99,773.92C393.49,756.51 386.72,739.7 376.28,725.72C370.52,717.28 362.97,710.36 355.74,703.22C341.79,690.58 324.93,681.77 307.87,674.12C299.69,670.51 293.66,663.6 288.51,656.52C278.81,641.85 271.99,625.55 265.83,609.15C252.97,574.76 245.12,538.55 241.68,502.06C240.57,497.12 241.34,491.99 240.16,487.05C239.9,479.69 240.07,472.31 239.15,464.98C238.96,448.96 238.89,432.93 239.23,416.91C240.29,409.33 239.63,401.65 240.39,394.06C242.86,362.49 246.4,330.61 256.26,300.32C259.15,291.07 263.28,282.27 267.79,273.72C271.09,268.65 265.13,261.27 259.46,263.48M131.37,322.36C124.82,324.65 120.48,331.24 119.96,338.01C119.67,348.55 131.07,358.11 141.33,354.27C148.47,352.24 153.52,345.33 153.73,338C153.02,333.39 151.33,328.46 147.38,325.65C143.31,321.43 136.77,320.83 131.37,322.36M902.42,376.39C893.3,377.2 885.21,384.36 883.57,393.41C880.39,407.49 896.19,421.87 909.87,416.88C917.59,414.32 924.47,407.96 925.63,399.62C927.51,386.94 914.93,374.9 902.42,376.39M195.32,443.4C190.25,446.6 185.85,450.68 181.13,454.35C180.47,460.82 181.14,467.46 180.9,474C180.97,504.68 180.83,535.36 180.89,566.04C180.44,569.68 184.51,571.27 186.08,574.08C197.79,574.09 209.5,574.02 221.21,573.97C220.52,567.49 218.24,561.32 217.03,554.94C212.53,531.56 208.98,507.97 207.61,484.23C206.56,478.91 207.18,473.46 206.94,468.09C206.96,460.02 205.75,452 206.24,443.93C202.6,443.89 198.9,444.24 195.32,443.4M285.95,479.81C281.16,482.74 279.36,488.56 279.3,493.89C280.59,506.42 285.08,518.39 290.06,529.88C296.98,544.4 305.87,558.29 318.25,568.78C336.92,584.42 362.11,589.96 385.96,589.63C391.69,588.78 397.55,589.55 403.24,588.35C417.6,586.65 432.19,582.68 444.02,574.05C449.5,570.03 453.53,564.52 457.28,558.94C465.54,565.91 476.15,569.96 486.96,570.01C491.04,569.69 495.24,566.33 495.14,562C495.5,559.03 494.09,556.05 491.74,554.26C486.85,551.92 481.03,552.53 476.28,549.77C466.32,545.42 462.81,533.28 452.47,529.48C435.74,523.31 418.69,518.06 401.88,512.11C380.44,504.57 358.74,497.85 337.11,490.9C323.3,486.64 309.71,481.54 295.58,478.41C292.33,477.5 288.91,478.45 285.95,479.81M721.89,479.91C704.62,485.21 687.54,491.11 670.21,496.25C649.08,502.89 628.16,510.17 607.15,517.17C594.77,521.44 582.08,524.91 570,529.97C562.13,533.06 558.32,540.96 552.23,546.26C547.29,550.78 540.43,551.97 534.06,553.08C531.35,553.49 528.54,554.85 527.57,557.59C524.83,563.15 529.68,570.7 535.96,570.05C546.79,570.03 557.28,565.72 565.95,559.38C569.86,565.78 574.54,572.01 580.97,576.05C587.9,580.71 595.62,584.13 603.66,586.33C609.21,588.19 615.14,588.93 620.44,591.52C623.77,593.04 626.22,596.04 627.64,599.37C629.63,609.13 628.58,619.16 628.2,629.02C628.85,635.65 628.79,642.31 628.71,648.98C627.79,657.28 628.29,665.66 628.2,674.01C628.36,679.71 628,686.29 632.3,690.7C635.08,693.46 639.25,693.4 642.88,692.99C648.05,691.38 651.73,686.36 651.61,680.92C652.03,655.29 651.68,629.64 651.96,604.01C652.3,599.71 656.05,594.89 660.86,595.97C664.78,596.89 668.13,600.85 667.99,604.96C667.97,623.65 667.98,642.34 667.96,661.03C667.03,667.63 671.59,675.78 679,675.16C685.59,675.76 691.29,669.47 691.02,663.07C690.97,638.7 691.06,614.34 691.09,589.97C691.19,583.2 695.29,577.46 700.32,573.29C720.45,557.05 733.89,533.65 741.03,509.02C742.52,503.11 744.45,497.13 744.01,490.96C743.66,483.8 737.34,477.69 730.1,477.99C727.32,478.43 724.59,479.14 721.89,479.91M508.33,511.26C502.88,512.97 501.74,519.68 503.5,524.42C505.12,527.92 509.17,530.02 512.96,529.37C518.88,528.73 523.14,521.21 520.06,515.92C518.05,511.54 512.75,509.84 508.33,511.26M325.29,592.23C319.28,594.69 319.34,604.13 324.78,607.23C337.4,614.15 351.72,617.37 365.92,618.95C378.84,619.19 391.85,619.65 404.65,617.7C409.26,616.3 412.35,610.95 410.75,606.3C409.07,603.49 406.19,601.52 402.86,601.51C396.6,601.98 390.3,602.27 384.04,602.86C367.97,602.45 351.58,600.8 336.71,594.25C333.17,592.53 329.26,591.15 325.29,592.23M599.37,600.27C598.57,600.84 597.79,601.46 597.06,602.12C591.16,606.54 593.38,617.86 600.83,619.22C605.4,620.69 610.69,617.7 612.27,613.22C614.26,609.46 612.24,605.15 609.68,602.25C606.94,599.56 602.9,599.47 599.37,600.27M600.38,633.38C597.83,634.24 595.87,636.25 594.38,638.42C592.92,643.25 593.7,649.8 598.87,652.08C604.72,655.37 613.03,650.77 613.05,643.99C613.9,637.35 606.97,630.87 600.38,633.38M479.26,664.25C472.68,666.3 468.5,673.23 468.82,679.98C468.38,686.44 471.43,692.61 475.71,697.27C484.62,707.14 497.92,712.15 511,712.91C522.11,712.48 533.3,709.04 542.18,702.21C547.21,697.76 552.46,692.84 554.11,686.05C556.05,680.51 554.94,674.2 551.75,669.36C548.09,664.43 541.32,662.62 535.6,664.65C527.52,667.46 519.77,672.05 510.98,672.02C503.16,671.5 496.08,667.89 488.89,665.11C485.87,663.81 482.45,663.61 479.26,664.25M600.3,667.18C592.77,668.79 591.85,679.4 596.79,684.18C599.82,686.57 604.06,687.29 607.66,685.8C610.26,683.54 613.39,680.78 613.06,676.99C613.75,670.48 606.49,664.68 600.3,667.18M161.39,753.49C155.42,755.56 153.28,764.57 158.19,768.83C160.74,771.95 165.46,773.06 169.03,771.03C171.82,769.37 174.64,766.55 174.11,763C175.1,756.42 167.38,750.91 161.39,753.49M838.37,756.37C831.49,758.73 826.51,765.68 826.9,773.01C826.82,783.51 838.63,792.67 848.64,788.63C855.06,786.67 860.86,781.03 861.04,774.03C861.67,767.56 858.05,760.82 852.33,757.74C848.22,755.1 842.93,755.57 838.37,756.37M482.45,764.56C466.18,766.34 449.86,771.74 437,782.09C431.57,785.87 431.25,795.47 437.57,798.49C442.3,800.56 447.14,797.76 450.71,794.74C460.78,787.58 472.92,783.17 485.29,782.66C498.14,781.54 511.09,782.46 523.97,782.27C539.86,781.57 556.52,784.02 570.02,792.95C573.99,795.59 577.66,800.07 582.96,799.06C589.17,798.11 592.45,790.19 589.16,784.9C585.4,779.76 579.32,777.14 573.9,774.15C562.63,767.93 549.8,765.23 537.07,764.31C521.71,764.34 506.36,764.39 491.01,764.27C488.15,764.25 485.28,764.13 482.45,764.56M486.39,805.46C481.94,806.72 478.94,811.91 480.8,816.3C481.71,820.79 486.66,823.39 490.96,823.09C504.32,823.09 517.68,823.05 531.04,823.05C533.3,822.99 535.82,823.3 537.72,821.78C540.51,819.59 543.7,816.26 542.64,812.4C542.05,808.32 538.22,804.83 534.05,804.98C519.68,804.99 505.31,805 490.94,804.97C489.42,805.03 487.81,804.82 486.39,805.46Z" style="fill:none;fill-rule:nonzero;stroke:rgb(45,95,47);stroke-width:20.26px;"/>
            </g>
            <g transform="matrix(0.0197442,0,0,0.0197442,2.37389,2.84909)">
                <path d="M790.41,183.37C797.7,181.91 805.56,188.47 805.07,196C805.25,201.56 801.91,207.86 796.12,209.09C787.12,212.85 776.63,202.7 779.53,193.57C780.68,188.37 785.3,184.42 790.41,183.37Z" style="fill:none;fill-rule:nonzero;stroke:rgb(45,95,47);stroke-width:20.26px;"/>
            </g>
            <g transform="matrix(0.0197442,0,0,0.0197442,2.37389,2.84909)">
                <path d="M271.07,810.18C274.93,812.59 278.99,814.78 282.37,817.89C279.97,822.24 276.99,826.28 273.63,829.94C272.04,830.45 270.68,829.3 269.36,828.62C266.68,826.95 264.02,825.19 261.7,823.03C264.65,818.63 267.64,814.22 271.07,810.18Z" style="fill:none;fill-rule:nonzero;stroke:rgb(45,95,47);stroke-width:20.26px;"/>
            </g>
            <g transform="matrix(0.0197442,0,0,0.0197442,2.37389,2.84909)">
                <path d="M253.3,843.34C257.31,842.27 262.25,842.53 265.26,845.75C268.82,849.05 270.12,854.49 268.11,858.98C267.2,862.58 263.77,864.57 260.39,865.39C256.52,867.03 252.5,864.86 249.35,862.67C246.55,859.63 245.44,855.23 246.12,851.19C247.29,847.79 249.71,844.38 253.3,843.34Z" style="fill:none;fill-rule:nonzero;stroke:rgb(45,95,47);stroke-width:20.26px;"/>
            </g>
            <g transform="matrix(0.0197442,0,0,0.0197442,2.37389,2.84909)">
                <path d="M253.3,843.34C257.31,842.27 262.25,842.53 265.26,845.75C268.82,849.05 270.12,854.49 268.11,858.98C267.2,862.58 263.77,864.57 260.39,865.39C256.52,867.03 252.5,864.86 249.35,862.67C246.55,859.63 245.44,855.23 246.12,851.19C247.29,847.79 249.71,844.38 253.3,843.34Z" style="fill:rgb(252,253,253);fill-rule:nonzero;"/>
            </g>
            <g transform="matrix(0.0197442,0,0,0.0197442,2.37389,2.84909)">
                <path d="M484.78,106.65C490.53,105.46 496.46,106.47 502.23,105.35C509.06,105.09 515.93,105.07 522.77,105.36C528.53,106.51 534.48,105.41 540.23,106.62C593.82,111.03 645.77,130.7 690.22,160.75C700.29,167.91 710.13,175.43 719.58,183.39C741.65,203.51 761.76,226.01 777.6,251.41C788.41,268.38 796.27,287.04 802.23,306.21C809.49,305.52 816.6,303.41 823.74,301.92C825.43,295.87 830.08,289.71 836.96,289.95C846.95,288.58 855.58,300.83 850.86,309.79C848.74,314.81 843.56,318.55 838,318.04C834.26,318.64 831.32,315.98 827.98,314.9C820.34,316.38 812.92,319.34 805.03,319.31C806.48,328.43 809.08,337.31 810.51,346.43C814.45,368.94 816.39,391.73 817.46,414.53C826.32,414.96 835.16,413.86 844,414.52C852.6,410.96 860.56,406.01 868.9,401.89C869.01,396.98 868.42,391.89 870.16,387.19C873.33,378.03 879.78,369.86 888.64,365.65C901.21,359 917.58,361.38 928.02,370.96C933.15,375.87 937.63,382.03 938.88,389.19C943.46,407.01 930.89,427.2 912.83,430.89C899.86,434.49 885.51,429.13 876.82,419.15C875.54,417.75 874.63,414.72 872.19,415.96C865.08,419.53 858.2,423.54 851.1,427.13C850.13,427.68 849.09,427.94 848,427.92C837.94,428.06 827.89,427.91 817.84,428.02C817.42,435.68 818.18,443.38 817.63,451.04C816.89,460.39 817.15,469.78 816.67,479.13C815.45,484.81 816.59,490.68 815.36,496.35C814.39,504.94 813.76,513.56 812.15,522.08C811.92,524.04 811.98,526.01 811.96,527.99C822.3,528.01 832.64,527.99 842.99,527.96C844.59,528.11 845.42,526.37 846.21,525.26C851.07,516.79 855.77,508.22 861.2,500.09C870.03,499.97 878.86,500.02 887.69,500.05C890.35,496.53 894.44,493.72 899.01,493.96C904.42,493.8 909.75,497.5 911.21,502.79C913.32,507.42 910.84,512.41 908.15,516.21C902.3,522.08 891.67,520.28 887.55,513.24C881.52,513.26 875.48,513.75 869.46,513.26C863.96,522.55 858.32,531.73 852.73,540.97C838.23,541.68 823.72,541.97 809.21,541.89C807.21,552.68 804.79,563.39 802.01,574.01C811.3,574.12 820.59,574.08 829.88,574.03C834.48,571.01 838.64,567.33 842.96,563.91C850.48,558.71 858.95,555.1 867.23,551.29C869.64,555.25 871.36,559.58 873.25,563.8C864.61,568.63 854.92,571.78 847.28,578.25C844.49,581.22 841.08,583.48 838.12,586.26C837.19,587.27 835.72,587.31 834.47,587.51C822.41,587.92 810.34,587.68 798.28,587.89C794.4,601.78 789.89,615.51 784.77,629C788.88,631.15 792.37,634.23 796.21,636.8C809.88,646.53 824.03,655.6 837.39,665.78C841.98,665.99 847.83,665.98 850.46,670.54C855.23,676.12 851.72,686.23 844.43,687.47C838.83,689 830.81,684.79 831.81,678.22C814.26,666.26 796.92,653.99 779.42,641.96C769.41,667.75 759.5,693.68 746.66,718.22C753.98,725.52 762.35,731.68 770.17,738.43C776.98,733.54 783.23,727.93 790.05,723.05C792.74,720.95 796.38,720.33 799.66,721.22C808.62,728.21 815.6,737.31 823.93,744.98C824.63,745.77 825.32,746.59 826.01,747.44C832.96,743.26 841.36,740.68 849.46,742.54C858.18,744.17 865.95,749.94 870.25,757.67C874.22,763.93 874.81,771.64 873.74,778.82C871.18,789.97 862.27,799.54 850.95,801.94C844.08,804.09 836.73,802.48 830.32,799.68C815.26,792.64 808.6,772.19 817.28,757.87C810.34,750.47 802.98,743.48 795.84,736.27C787.79,741.67 781,748.79 772.68,753.78C767.21,755.48 763.33,750.43 759.56,747.4C752.68,742.2 746.59,736.07 739.57,731.06C735.4,740.31 729.58,748.68 725.19,757.81C733.46,765.3 742.19,772.3 749.94,780.37C750.1,791.26 749.89,802.16 750.03,813.06C756.35,813.16 762.68,812.9 769,813.1C771.82,808.47 776.89,804.98 782.49,805.61C788.16,805.62 793.09,810.21 794.34,815.62C797.55,824.71 787.91,835.14 778.6,832.42C775.54,831.97 773.1,830 771.1,827.78C770.17,826.47 768.39,826.86 767.04,826.71C759.46,826.77 751.86,827.09 744.3,826.79C740.05,824.76 736.29,820.76 736.29,815.8C735.92,805.93 736.2,796.01 736.2,786.14C734.52,783.21 731.43,781.34 729.02,779.02C725.26,776.08 722.19,772.26 718.15,769.69C713.44,774.46 710.79,781.2 706.47,786.45C696.32,801.99 684.43,816.3 671.83,829.89C655.81,848.26 637.14,864.13 617.41,878.37C598.09,891.7 577.06,903.01 554.34,909.31C532.82,915.43 509.95,916.75 487.87,913.28C465.36,909.86 443.94,901.11 424.39,889.62C409.96,881.52 396.78,871.44 383.83,861.2C356.13,836.74 330.74,809.34 310.98,778C309.63,775.62 308.09,773.32 306.06,771.47C302.9,776.09 298.61,779.76 294.71,783.72C292.04,786.3 289.15,789.62 285.04,789.22C274.02,788.97 262.96,789.77 251.97,788.95C248.61,793.02 243.4,795.89 238,795.25C228.69,795.18 221.08,783.97 225.48,775.48C227.48,770.22 232.83,767.18 238.09,766.06C244.72,765.61 250.65,770.06 253.22,776.01C263.05,775.91 272.91,776.25 282.73,775.85C288.71,771.01 293.83,765.21 299.4,759.93C296.27,753.16 291.96,747.01 288.59,740.36C285.02,733.03 280.73,726.08 277.5,718.59C275.02,714.19 273.32,709.27 270.17,705.29C266.93,708.68 263.51,711.9 260.28,715.3C257.13,718.51 254.58,722.37 250.71,724.81C237.97,725.5 225.11,724.7 212.42,726.17C203.24,735.4 193.68,744.25 184.84,753.82C190.62,765.27 183.04,780.72 170.6,783.53C163.21,785.08 154.41,783.72 149.24,777.75C143.87,772.6 141.62,764.71 143.47,757.51C145.39,749.23 152.55,742.32 160.99,740.96C165.96,739.69 171.21,740.91 175.71,743.16C181.16,737.13 187.45,731.92 193.15,726.13C197.7,721.28 202.55,716.73 207.3,712.08C218.87,711.94 230.44,712.04 242.01,712.01C243.45,712.24 244.58,711.38 245.57,710.47C251.63,704.21 257.68,697.91 264,691.92C261.23,684.82 257.78,678.01 255.07,670.89C251.31,661.17 247.65,651.4 243.72,641.75C240.1,642.58 237.6,645.61 234.57,647.58C221.73,657.77 208.54,667.51 195.72,677.73C192.1,680.11 189.33,683.63 185.3,685.4C184.84,687.71 184.53,690.2 183.23,692.21C180.17,695.15 175.54,696.97 171.36,695.66C168.8,694.39 165.99,692.94 164.96,690.08C162.41,685.41 164.58,679.74 168.28,676.36C171.06,674.46 174.52,674.32 177.74,674.89C192.27,662.98 207.01,651.33 221.98,639.99C223.66,638.54 226.83,637.83 226.39,635.05C222.07,635.44 217.72,635.99 213.38,635.67C212.67,631.17 213.16,626.61 212.82,622.1C218.87,621.66 224.96,622.23 231,621.51C232.37,621.66 233.75,621.83 235.13,622.04C235.01,620.48 235.04,618.88 234.5,617.4C231.38,607.73 227.4,598.26 225.57,588.23C220.51,586.7 215.19,587.63 210.01,587.54C201.32,587.96 192.63,587.82 183.93,587.86C182.53,587.79 181.04,587.95 179.75,587.31C175.31,583 171.16,578.39 167.27,573.58C166.14,571.24 167.09,568.51 166.91,566.02C167.06,547.03 167,528.04 166.96,509.06C150.46,509.01 133.93,508.89 117.45,509.25C114.89,510.93 112.24,513.1 109,513.03C104.28,513.75 99.49,510.48 97.98,506.04C94.88,500.01 100.27,492.24 106.6,491.55C110.75,490.34 114.26,493.51 117.37,495.77C130.53,495.18 143.8,495.12 157.03,495.24C160.35,495.53 163.68,495.6 166.98,495.12C167.06,479.51 166.89,463.9 167.06,448.29C170.63,445.47 174.11,442.55 177.37,439.38C181.22,436.56 184.9,433.52 188.72,430.67C189.87,429.64 191.55,430.09 192.95,429.97C197.31,430.01 201.67,430.06 206.03,429.98C207.2,420.42 206.71,410.76 207.25,401.17C208.45,395.18 207.56,389.02 208.79,383.04C208.86,377.37 210.3,371.84 210.14,366.16C204.46,366.05 198.78,366.13 193.1,365.91C182.99,361.97 172.77,358.26 162.91,353.69C157.17,362.64 146.73,368.62 136,368.04C120.09,368.75 106.14,353.65 106.82,338C106.43,328.83 111.36,319.95 118.39,314.29C125.92,309.07 135.87,306.06 144.8,309.28C158.61,313.1 168.06,327.42 167.1,341.57C173.5,343.17 179.36,346.32 185.61,348.36C189,349.46 191.9,351.7 195.34,352.6C200.88,353.05 206.45,352.8 212,353.06C213.05,351.22 212.96,349.07 213.12,347.02C215.84,326.58 221.31,306.6 228.05,287.14L227.84,286.46C222.39,283.5 217.07,280.27 211.97,276.74C208.84,277.95 205.62,279.56 202.16,278.93C196.23,277.69 190.1,272.66 190.88,266.02C190.06,260.33 194.55,255.54 199.36,253.3C203,252.39 207.25,252.29 210.47,254.5C214.5,256.83 216.57,261.45 217.13,265.92C222.59,268.3 227.71,271.36 233.22,273.63C246.77,247.89 263.82,223.91 284.14,203.08C292.59,194.2 301.69,185.95 310.92,177.89C336.94,156.85 365.93,139.17 397.26,127.21C425.2,116.1 454.8,108.89 484.78,106.65M504.46,121.58C500.3,122.08 496.1,121.93 491.92,122.02C477.06,123.46 462.2,125.33 447.6,128.62C410.19,137.13 374.11,152.42 342.94,174.93C336.41,179.26 330.37,184.32 324.64,189.65C317.67,194.93 312.16,201.86 306.63,208.56C295.2,222.7 288.32,240.73 288.83,259.01C288.54,268.37 289.24,277.71 291.13,286.89C297.45,316.99 309.83,345.67 326.6,371.41C337.8,387.3 349.26,403.17 363.24,416.76C380.84,435.15 402.08,449.74 424.66,461.33C449.57,473.87 477.22,480.71 505,482.02C512.38,481.82 519.86,482.62 527.16,481.21C538.21,480.67 549,478.05 559.8,475.81C576.11,471.9 591.8,465.53 606.48,457.45C631.59,444.18 653.49,425.43 672.06,404.07C685.47,387.84 698.51,371.06 708.27,352.31C718.74,332.95 726.74,312.21 731.72,290.76C733.52,283.65 734.16,276.34 734.99,269.08C734.81,262.65 735.62,256.12 734.28,249.78C732.9,234.54 726.29,220.08 716.78,208.21C711.36,201.38 705.86,194.45 698.84,189.19C691.03,181.47 681.8,175.41 672.83,169.14C655.89,157.9 637.74,148.46 618.7,141.33C593.19,131.8 566.55,124.65 539.32,122.72C533.78,121.52 528.1,122.22 522.5,121.78C516.5,121.29 510.46,121.03 504.46,121.58M259.46,263.48C255.75,264.41 254.01,268.13 252.08,271.05C245.91,281.72 241.78,293.42 238.29,305.2C230.56,332.11 226.69,359.97 224.71,387.82C223.53,392.96 224.3,398.27 223.7,403.48C222.72,410.94 223.06,418.49 222.89,426C222.9,442.37 222.63,458.76 223.24,475.11C224.23,480.78 223.56,486.59 224.65,492.23C227.83,537.76 238.11,582.8 254.62,625.37C267.31,657.59 280.63,689.63 296.57,720.39C311.84,750.84 329.96,779.99 351.79,806.18C377.44,835.46 406.27,863 441.3,880.76C466.88,894.02 495.98,902.84 525,899.04C546.93,896.59 567.94,888.61 587.27,878.18C608.51,866.34 628.28,851.7 645.25,834.25C660.94,818.83 676.08,802.69 688.47,784.45C698.28,771.53 706.13,757.31 714.49,743.44C729.51,717.55 742.14,690.37 753.83,662.85C759.46,648.22 766.02,633.95 771.06,619.1C786.66,576.82 796.47,532.28 799.29,487.34C800.56,481.61 799.61,475.69 800.5,469.91C801.41,460.64 800.84,451.3 801.04,442C800.84,429 801.56,415.95 800.07,403C800.43,396.25 798.89,389.65 798.96,382.92C797.98,375.71 797.55,368.46 796.63,361.24C792.07,330.23 786.19,298.62 771.22,270.71C769.36,266.87 765.84,262.87 761.21,263.26C757.42,263.78 755.52,267.6 754.94,270.98C755.44,273.24 756.5,275.32 757.6,277.35C760.86,283.37 763.39,289.75 765.86,296.12C771.97,314.6 776.6,333.58 779.24,352.87C781.74,368.13 782.6,383.55 783.96,398.93C784.09,404.65 783.72,410.42 784.71,416.09C784.9,431.1 785.25,446.15 784.2,461.14C783.71,468.41 784.5,475.74 783.34,482.96C780.28,533.12 769.21,583.06 749.33,629.34C743.43,641.61 737.68,654.3 728.45,664.48C723.88,669.87 717.55,673.41 711.18,676.26C703.6,679.93 696.02,683.6 688.67,687.72C674.89,696.09 662.03,706.29 651.9,718.9C637.86,736.04 627.81,757.38 627.81,779.85C626.53,786.53 627.48,793.38 626.38,800.08C625.75,804.97 626.23,809.92 625.79,814.83C624.75,821.15 624.24,827.66 621.61,833.59C618.9,837.88 614.34,840.41 610.44,843.45C587.95,860.56 562.54,874.69 534.75,880.75C523.17,883.41 511.16,883.7 499.36,882.68C473.08,879.46 448.88,867.24 426.83,853.12C419.21,848.21 411.78,843 404.74,837.29C400.62,833.96 399.57,828.49 398.58,823.59C397.69,817.79 396.77,812.01 396.84,806.13C395.28,798.42 396.58,790.52 395.48,782.77C395.02,779.84 395.02,776.87 394.99,773.92C393.49,756.51 386.72,739.7 376.28,725.72C370.52,717.28 362.97,710.36 355.74,703.22C341.79,690.58 324.93,681.77 307.87,674.12C299.69,670.51 293.66,663.6 288.51,656.52C278.81,641.85 271.99,625.55 265.83,609.15C252.97,574.76 245.12,538.55 241.68,502.06C240.57,497.12 241.34,491.99 240.16,487.05C239.9,479.69 240.07,472.31 239.15,464.98C238.96,448.96 238.89,432.93 239.23,416.91C240.29,409.33 239.63,401.65 240.39,394.06C242.86,362.49 246.4,330.61 256.26,300.32C259.15,291.07 263.28,282.27 267.79,273.72C271.09,268.65 265.13,261.27 259.46,263.48M131.37,322.36C124.82,324.65 120.48,331.24 119.96,338.01C119.67,348.55 131.07,358.11 141.33,354.27C148.47,352.24 153.52,345.33 153.73,338C153.02,333.39 151.33,328.46 147.38,325.65C143.31,321.43 136.77,320.83 131.37,322.36M902.42,376.39C893.3,377.2 885.21,384.36 883.57,393.41C880.39,407.49 896.19,421.87 909.87,416.88C917.59,414.32 924.47,407.96 925.63,399.62C927.51,386.94 914.93,374.9 902.42,376.39M195.32,443.4C190.25,446.6 185.85,450.68 181.13,454.35C180.47,460.82 181.14,467.46 180.9,474C180.97,504.68 180.83,535.36 180.89,566.04C180.44,569.68 184.51,571.27 186.08,574.08C197.79,574.09 209.5,574.02 221.21,573.97C220.52,567.49 218.24,561.32 217.03,554.94C212.53,531.56 208.98,507.97 207.61,484.23C206.56,478.91 207.18,473.46 206.94,468.09C206.96,460.02 205.75,452 206.24,443.93C202.6,443.89 198.9,444.24 195.32,443.4M285.95,479.81C281.16,482.74 279.36,488.56 279.3,493.89C280.59,506.42 285.08,518.39 290.06,529.88C296.98,544.4 305.87,558.29 318.25,568.78C336.92,584.42 362.11,589.96 385.96,589.63C391.69,588.78 397.55,589.55 403.24,588.35C417.6,586.65 432.19,582.68 444.02,574.05C449.5,570.03 453.53,564.52 457.28,558.94C465.54,565.91 476.15,569.96 486.96,570.01C491.04,569.69 495.24,566.33 495.14,562C495.5,559.03 494.09,556.05 491.74,554.26C486.85,551.92 481.03,552.53 476.28,549.77C466.32,545.42 462.81,533.28 452.47,529.48C435.74,523.31 418.69,518.06 401.88,512.11C380.44,504.57 358.74,497.85 337.11,490.9C323.3,486.64 309.71,481.54 295.58,478.41C292.33,477.5 288.91,478.45 285.95,479.81M721.89,479.91C704.62,485.21 687.54,491.11 670.21,496.25C649.08,502.89 628.16,510.17 607.15,517.17C594.77,521.44 582.08,524.91 570,529.97C562.13,533.06 558.32,540.96 552.23,546.26C547.29,550.78 540.43,551.97 534.06,553.08C531.35,553.49 528.54,554.85 527.57,557.59C524.83,563.15 529.68,570.7 535.96,570.05C546.79,570.03 557.28,565.72 565.95,559.38C569.86,565.78 574.54,572.01 580.97,576.05C587.9,580.71 595.62,584.13 603.66,586.33C609.21,588.19 615.14,588.93 620.44,591.52C623.77,593.04 626.22,596.04 627.64,599.37C629.63,609.13 628.58,619.16 628.2,629.02C628.85,635.65 628.79,642.31 628.71,648.98C627.79,657.28 628.29,665.66 628.2,674.01C628.36,679.71 628,686.29 632.3,690.7C635.08,693.46 639.25,693.4 642.88,692.99C648.05,691.38 651.73,686.36 651.61,680.92C652.03,655.29 651.68,629.64 651.96,604.01C652.3,599.71 656.05,594.89 660.86,595.97C664.78,596.89 668.13,600.85 667.99,604.96C667.97,623.65 667.98,642.34 667.96,661.03C667.03,667.63 671.59,675.78 679,675.16C685.59,675.76 691.29,669.47 691.02,663.07C690.97,638.7 691.06,614.34 691.09,589.97C691.19,583.2 695.29,577.46 700.32,573.29C720.45,557.05 733.89,533.65 741.03,509.02C742.52,503.11 744.45,497.13 744.01,490.96C743.66,483.8 737.34,477.69 730.1,477.99C727.32,478.43 724.59,479.14 721.89,479.91M508.33,511.26C502.88,512.97 501.74,519.68 503.5,524.42C505.12,527.92 509.17,530.02 512.96,529.37C518.88,528.73 523.14,521.21 520.06,515.92C518.05,511.54 512.75,509.84 508.33,511.26M325.29,592.23C319.28,594.69 319.34,604.13 324.78,607.23C337.4,614.15 351.72,617.37 365.92,618.95C378.84,619.19 391.85,619.65 404.65,617.7C409.26,616.3 412.35,610.95 410.75,606.3C409.07,603.49 406.19,601.52 402.86,601.51C396.6,601.98 390.3,602.27 384.04,602.86C367.97,602.45 351.58,600.8 336.71,594.25C333.17,592.53 329.26,591.15 325.29,592.23M599.37,600.27C598.57,600.84 597.79,601.46 597.06,602.12C591.16,606.54 593.38,617.86 600.83,619.22C605.4,620.69 610.69,617.7 612.27,613.22C614.26,609.46 612.24,605.15 609.68,602.25C606.94,599.56 602.9,599.47 599.37,600.27M600.38,633.38C597.83,634.24 595.87,636.25 594.38,638.42C592.92,643.25 593.7,649.8 598.87,652.08C604.72,655.37 613.03,650.77 613.05,643.99C613.9,637.35 606.97,630.87 600.38,633.38M479.26,664.25C472.68,666.3 468.5,673.23 468.82,679.98C468.38,686.44 471.43,692.61 475.71,697.27C484.62,707.14 497.92,712.15 511,712.91C522.11,712.48 533.3,709.04 542.18,702.21C547.21,697.76 552.46,692.84 554.11,686.05C556.05,680.51 554.94,674.2 551.75,669.36C548.09,664.43 541.32,662.62 535.6,664.65C527.52,667.46 519.77,672.05 510.98,672.02C503.16,671.5 496.08,667.89 488.89,665.11C485.87,663.81 482.45,663.61 479.26,664.25M600.3,667.18C592.77,668.79 591.85,679.4 596.79,684.18C599.82,686.57 604.06,687.29 607.66,685.8C610.26,683.54 613.39,680.78 613.06,676.99C613.75,670.48 606.49,664.68 600.3,667.18M161.39,753.49C155.42,755.56 153.28,764.57 158.19,768.83C160.74,771.95 165.46,773.06 169.03,771.03C171.82,769.37 174.64,766.55 174.11,763C175.1,756.42 167.38,750.91 161.39,753.49M838.37,756.37C831.49,758.73 826.51,765.68 826.9,773.01C826.82,783.51 838.63,792.67 848.64,788.63C855.06,786.67 860.86,781.03 861.04,774.03C861.67,767.56 858.05,760.82 852.33,757.74C848.22,755.1 842.93,755.57 838.37,756.37M482.45,764.56C466.18,766.34 449.86,771.74 437,782.09C431.57,785.87 431.25,795.47 437.57,798.49C442.3,800.56 447.14,797.76 450.71,794.74C460.78,787.58 472.92,783.17 485.29,782.66C498.14,781.54 511.09,782.46 523.97,782.27C539.86,781.57 556.52,784.02 570.02,792.95C573.99,795.59 577.66,800.07 582.96,799.06C589.17,798.11 592.45,790.19 589.16,784.9C585.4,779.76 579.32,777.14 573.9,774.15C562.63,767.93 549.8,765.23 537.07,764.31C521.71,764.34 506.36,764.39 491.01,764.27C488.15,764.25 485.28,764.13 482.45,764.56M486.39,805.46C481.94,806.72 478.94,811.91 480.8,816.3C481.71,820.79 486.66,823.39 490.96,823.09C504.32,823.09 517.68,823.05 531.04,823.05C533.3,822.99 535.82,823.3 537.72,821.78C540.51,819.59 543.7,816.26 542.64,812.4C542.05,808.32 538.22,804.83 534.05,804.98C519.68,804.99 505.31,805 490.94,804.97C489.42,805.03 487.81,804.82 486.39,805.46Z" style="fill:rgb(252,253,253);fill-rule:nonzero;"/>
            </g>
            <g transform="matrix(0.0197442,0,0,0.0197442,2.37389,2.84909)">
                <path d="M505.04,138.04C509.67,137.9 514.31,137.83 518.96,137.86C519.16,157.26 519.14,176.67 518.97,196.07C523.87,197.59 529.1,196.51 534.08,197.68C540.3,198.18 546.46,199.27 552.6,200.39C557.41,201.34 562.05,203.22 567.02,203.32C567.16,197.31 566.74,191.29 567.16,185.3C567.44,185.02 567.99,184.46 568.27,184.17C571.49,183.97 574.76,182.88 577.93,184.05C580.21,184.39 580.32,187.14 580.78,188.91C581.02,195.24 580.72,201.57 580.79,207.89C586.06,210.09 591.51,211.88 596.6,214.5C603.39,217.55 609.56,221.77 616.09,225.3C616.26,215.93 615.88,206.49 616.33,197.17C612.89,193.21 609.52,188.5 609.74,183C608.92,173.5 617.76,165.12 626.99,165.02C634.35,165.52 641.04,170.53 643.5,177.5C651.07,181.27 657.23,187.13 664.23,191.78C665.99,193.05 667.58,194.58 668.83,196.37C669.7,200.27 667.24,204.92 662.94,205.1C658.46,206.2 655.29,202.31 652.08,199.92C648.44,197.45 645.15,194.39 641.14,192.5C638.9,196.47 634.57,198.91 630.12,199.43C629.8,209.62 630.09,219.83 629.96,230.03C630.04,231.85 629.73,233.76 630.29,235.53C639.19,241.86 647.13,249.43 654.74,257.26C673.96,277.66 689.72,301.64 698.97,328.21C699.72,330.48 698.57,332.71 697.74,334.78C695.79,339.65 693.31,344.29 691.07,349.03C684.28,322.46 670.78,297.79 653.25,276.78C646.04,268.5 638.77,260.01 629.84,253.52C629.83,257.35 630.03,261.17 629.94,265C629.98,269.88 624.05,273.88 619.66,271.29C617.44,270.57 616.11,268.22 616.07,265.98C615.85,257.75 616.32,249.51 616.08,241.29C608.13,236.31 600.03,231.57 591.6,227.45C587.61,225.62 583.75,223.19 579.29,222.71C579.93,226.67 579.26,230.66 579.24,234.63C581.24,237.87 584.55,240.77 584.15,244.96C585.09,250.59 581.41,256.55 575.87,257.96C572.43,258.18 568.25,259 565.55,256.32C562.9,254.71 561.73,251.74 560.56,249.03C556.22,250.51 550.18,251.19 547.37,246.69C543.9,242.22 547.25,235.63 552.15,234.03C555.98,233.32 559.94,235.02 562.21,238.15C563.03,236.55 564.4,235.42 565.97,234.57C566.17,229.03 566,223.48 566.19,217.95C550.95,212.98 534.86,211.06 518.95,210.31C519.25,275.51 518.93,340.71 519.14,405.92C526.34,406.04 533.57,406.23 540.74,405.45C545.99,404.66 551.34,405.45 556.57,404.47C560.35,403.78 564.21,404.05 568.04,403.76C568.62,400.33 568.33,396.84 568.66,393.39C566.01,391.07 562.75,389.19 560.92,386.03C556.96,379.16 558.04,369.39 564.29,364.22C571.81,356.98 585.94,358.72 590.84,368.19C596.43,376.95 592.12,390.19 582.02,393.32C582.11,396.25 582.13,399.18 582.19,402.12C610.07,398.48 637.73,392.83 664.82,385.27C661.59,390.43 657.35,394.83 653.72,399.69C652.42,401.07 651.26,402.78 649.41,403.45C630.58,407.96 611.55,411.63 592.39,414.38C588.94,415.13 585.34,414.86 581.98,416.01C582,426.34 582,436.68 581.93,447.01C581.98,448.51 581.62,450.39 580.09,451.06C576.23,453.08 572.17,454.68 568.11,456.24C567.96,443.24 568.08,430.24 568.15,417.25C563.08,417.93 557.99,417.99 552.9,418.18C546.32,419.33 539.62,418.84 532.98,419.26C528.31,419.29 523.68,420.04 519.02,419.89C519,434.98 519.15,450.06 518.94,465.15C514.25,465.23 509.56,465.07 504.88,464.96C505.14,449.96 504.81,434.95 505.11,419.95C499.03,420.18 493.04,418.81 486.96,418.99C482.59,419.15 478.33,417.9 473.96,418C469.85,418.15 465.83,417.16 461.75,416.9C461.1,428.94 462.09,440.99 461.89,453.04C461.89,454.52 461.47,455.95 461.1,457.37C456.31,455.85 451.65,453.94 447.18,451.66C446.98,439.7 447.02,427.72 447.65,415.77C427.66,413.39 407.66,410.2 387.88,406.16C383.27,405.66 378.91,403.67 374.22,403.87C368.62,397.9 363.7,391.34 358.68,384.88C366.28,387.72 374.45,388.52 382.22,390.79C401,394.98 419.98,398.27 439.02,400.92C441.77,400.98 444.44,401.56 447.09,402.24C447.1,377.49 447.08,352.74 447.1,327.99C447.05,325.25 447.22,322.51 447.69,319.81C441.42,317.58 435.1,314.5 431.05,309C424.77,301.42 422.11,290.65 425.16,281.18C427.78,273.64 432.96,266.79 440.16,263.13C449.53,257.44 461.94,258 471.04,263.96C477.09,268.41 482.38,274.51 483.96,282.06C486.15,290.16 484.77,299.17 480.17,306.2C476.26,313.19 469.15,317.73 461.58,319.9C461.67,347.87 461.87,375.83 461.91,403.79C465.69,403.98 469.5,403.88 473.25,404.51C478.67,405.42 484.2,404.69 489.65,405.35C494.7,406.07 499.82,405.99 504.9,405.92C505.01,340.64 505.07,275.34 504.89,210.06C475.54,211.25 446.1,218.7 420.57,233.54C415.96,236.27 411.14,238.81 407.01,242.25C406.38,250.06 407.23,257.99 406.8,265.85C406.36,269.49 402.76,272.53 399.06,272.04C396.13,271.99 393.63,269.72 393.19,266.84C392.75,262.67 393.11,258.46 393.09,254.28C389.89,255.39 387.57,257.93 385.23,260.24C373.81,271.32 363.86,283.85 355.21,297.2C351.04,303.6 347.78,310.54 344.2,317.28C339.33,327.47 335.97,338.29 332.63,349.06C329.7,342.81 326.47,336.61 324.44,329.99C333.45,303.47 348.43,278.98 367.7,258.66C375.26,249.86 384.32,242.54 393.09,235.02C392.89,223.39 393,211.76 393.01,200.12C390.17,199.05 387.2,198.09 384.8,196.18C380.6,191.91 377.64,185.53 379.58,179.53C380.95,173.22 386.13,168.16 392.14,166.09C395.04,165.78 397.97,165.78 400.87,166.09C410.44,168.71 416.06,180.25 412.4,189.45C411.35,192.88 408.45,195.18 406.48,198.03C405.99,203.37 407.31,208.71 406.63,214.05C406.18,217.87 407.23,221.68 406.62,225.5C417.22,220.1 427.48,213.87 438.66,209.66C441.78,208.45 445.04,207.57 448.03,206.02C447.87,198.43 447.94,190.84 448,183.26C442.29,178.83 437.83,171.92 438.55,164.48C439.25,156.43 445.5,149.19 453.4,147.46C458.73,145.94 464.29,148.34 468.46,151.6C472.47,154.64 474.57,159.35 475.99,164.05C485.64,164.03 495.3,164.17 504.95,163.95C505.13,155.31 504.89,146.68 505.04,138.04M473.31,177.31C471.05,179.78 468.57,182.19 465.38,183.38C464.29,184 462.79,184.06 462.04,185.16C461.88,190.85 462.03,196.55 462.03,202.24C470.57,200.52 479.08,198.56 487.75,197.66C493.44,196.52 499.33,197.42 504.99,195.97C505.01,189.99 505.04,184 505.03,178.02C496.33,177.95 487.63,178.03 478.93,177.99C477.02,178.04 475.15,177.73 473.31,177.31M451.31,273.3C444.02,274.8 437.83,281.43 437.75,289C436.48,300.22 449.48,310.58 460.06,306.01C466.59,303.88 470.99,297.55 471.99,290.94C472.5,280.42 461.86,270.62 451.31,273.3Z" style="fill:rgb(252,253,253);fill-rule:nonzero;"/>
            </g>
            <g transform="matrix(0.0197442,0,0,0.0197442,2.37389,2.84909)">
                <path d="M557.47,144.57C561.97,143.77 566.5,146.34 568.65,150.27C572.9,156.86 567.02,167.28 559,166.25C554.27,167 550.49,163.34 548.59,159.41C545.9,153.08 550.62,145.2 557.47,144.57Z" style="fill:rgb(252,253,253);fill-rule:nonzero;"/>
            </g>
            <g transform="matrix(0.0197442,0,0,0.0197442,2.37389,2.84909)">
                <path d="M790.41,183.37C797.7,181.91 805.56,188.47 805.07,196C805.25,201.56 801.91,207.86 796.12,209.09C787.12,212.85 776.63,202.7 779.53,193.57C780.68,188.37 785.3,184.42 790.41,183.37Z" style="fill:rgb(252,253,253);fill-rule:nonzero;"/>
            </g>
            <g transform="matrix(0.0197442,0,0,0.0197442,2.37389,2.84909)">
                <path d="M320.4,240.4C323.9,232.71 328.23,225.4 333.06,218.48C336.82,222.08 338.97,226.93 341.74,231.26C343.94,235.5 346.34,239.71 347.57,244.36C349.22,250.56 346.65,257.78 341.03,261.07C335.56,264.36 327.42,263.98 323.1,258.93C318.17,254.26 317.91,246.35 320.4,240.4Z" style="fill:rgb(252,253,253);fill-rule:nonzero;"/>
            </g>
            <g transform="matrix(0.0197442,0,0,0.0197442,2.37389,2.84909)">
                <path d="M687.33,243.26C693.45,241.21 700.09,249.15 696.72,254.67C695.48,258.42 691.02,259.8 687.44,259.43C683.83,258.61 680.36,254.92 680.96,251.01C680.89,247.41 683.93,244.16 687.33,243.26Z" style="fill:rgb(252,253,253);fill-rule:nonzero;"/>
            </g>
            <g transform="matrix(0.0197442,0,0,0.0197442,2.37389,2.84909)">
                <path d="M367.55,309.59C370.9,302.73 374.53,295.98 379.07,289.82C383.65,295.54 387.32,301.96 390.53,308.53C392.74,313.67 395.32,319.55 393.11,325.14C391.56,331.2 385.2,335.62 378.99,335.04C373.39,334.97 367.93,331.23 366.03,325.93C363.83,320.65 365.03,314.55 367.55,309.59Z" style="fill:rgb(252,253,253);fill-rule:nonzero;"/>
            </g>
            <g transform="matrix(0.0197442,0,0,0.0197442,2.37389,2.84909)">
                <path d="M579.3,290.29C584.1,289.32 589.91,289.65 593.3,293.68C597.44,297.37 598.99,303.38 597.68,308.68C595.95,313.47 592.2,318.02 586.97,318.98C582.75,319.38 577.92,319.37 574.61,316.34C571.14,313.67 568.94,309.4 568.96,305.01C568.48,298.46 573.35,292.5 579.3,290.29Z" style="fill:rgb(252,253,253);fill-rule:nonzero;"/>
            </g>
            <g transform="matrix(0.0197442,0,0,0.0197442,2.37389,2.84909)">
                <path d="M638.97,300.98C640.78,298.15 642.1,294.9 644.76,292.73C649.8,300.1 653.94,308.05 657.91,316.04C660.81,322.35 663.78,328.92 663.9,335.99C663.2,342.16 660.86,348.97 655.1,352.13C646.23,357.75 632.14,355.59 627.21,345.71C624.03,340.55 624.36,334.09 625.41,328.36C628.9,318.78 633.98,309.85 638.97,300.98Z" style="fill:rgb(252,253,253);fill-rule:nonzero;"/>
            </g>
            <g transform="matrix(0.0197442,0,0,0.0197442,2.37389,2.84909)">
                <path d="M542.33,305.25C549.08,303.18 556.04,312.1 551.86,318C549.02,323.63 539.96,323.46 536.96,318.07C534.11,313.41 537.22,306.71 542.33,305.25Z" style="fill:rgb(252,253,253);fill-rule:nonzero;"/>
            </g>
            <g transform="matrix(0.0197442,0,0,0.0197442,2.37389,2.84909)">
                <path d="M383.43,356.42C389.02,354.4 395.43,360.14 394.23,365.98C394,373.59 382.28,375.98 378.56,369.52C374.64,365.05 378.2,357.88 383.43,356.42Z" style="fill:rgb(252,253,253);fill-rule:nonzero;"/>
            </g>
            <g transform="matrix(0.0197442,0,0,0.0197442,2.37389,2.84909)">
                <path d="M369.63,527.36C367.68,524.41 369.06,520.68 371.83,518.85C379.37,522.41 387.22,525.21 394.92,528.38C392.71,533.18 387.33,536.63 382,536.04C376.65,535.84 371.5,532.48 369.63,527.36Z" style="fill:rgb(252,253,253);fill-rule:nonzero;"/>
            </g>
            <g transform="matrix(0.0197442,0,0,0.0197442,2.37389,2.84909)">
                <path d="M628.36,528.84C635.88,524.97 643.93,522.23 651.76,519.04C653.14,520.75 655.51,522.9 654.32,525.31C652.92,529.38 650.31,533.54 646.04,534.99C639.76,537.81 631.18,535.43 628.36,528.84Z" style="fill:rgb(252,253,253);fill-rule:nonzero;"/>
            </g>
            <g transform="matrix(0.0197442,0,0,0.0197442,2.37389,2.84909)">
                <path d="M861.32,604.23C863.46,603.77 865.71,603.87 867.9,604.04C874.29,605.53 878.79,612.36 877.92,618.81C876.74,622.79 874.19,626.57 870.37,628.4C861.56,633.57 849.14,623.2 852.67,613.57C853.45,609.08 857.31,605.93 861.32,604.23Z" style="fill:rgb(252,253,253);fill-rule:nonzero;"/>
            </g>
            <g transform="matrix(0.0197442,0,0,0.0197442,2.37389,2.84909)">
                <path d="M82.35,625.36C88.17,614.78 102.2,609.98 113.32,614.65C118.71,616.52 122.62,620.83 126.34,624.95C132.61,625.15 138.88,624.79 145.12,624.15C154.12,623.8 163.17,624.34 172.13,623.15C179.7,623.04 187.27,622.69 194.85,622.67C195.75,627.09 196.24,631.56 195.98,636.08C182.54,637.82 168.94,636.19 155.49,637.74C147.05,638.1 138.59,637.96 130.14,637.97C129.41,644.6 126.95,651.32 121.85,655.83C114.08,663.85 100.81,665.48 91.3,659.68C79.73,653.21 74.96,636.62 82.35,625.36M100.3,626.25C97.06,627.41 94.18,629.62 92.97,632.95C88.88,640.9 95.91,651.49 104.79,650.89C110.24,649.98 115.31,645.93 116.42,640.37C117.71,637.28 116.14,634.06 114.64,631.37C111.61,626.68 105.57,624.93 100.3,626.25Z" style="fill:rgb(252,253,253);fill-rule:nonzero;"/>
            </g>
            <g transform="matrix(0.0197442,0,0,0.0197442,2.37389,2.84909)">
                <path d="M316.79,723.36C322.68,727.42 329.18,730.71 334.35,735.73C342.72,742.37 349.29,750.98 355.24,759.79C363.4,772.54 369.09,787.22 370.05,802.4C358.24,788.84 347.43,774.43 337.58,759.4C330.39,747.55 322.51,736.04 316.79,723.36Z" style="fill:rgb(252,253,253);fill-rule:nonzero;"/>
            </g>
            <g transform="matrix(0.0197442,0,0,0.0197442,2.37389,2.84909)">
                <path d="M684.21,740.22C690.62,733.54 698.62,728.71 706.35,723.72C705.11,727.42 702.59,730.49 700.84,733.95C688.19,757.11 673.33,779.09 656.26,799.23C655.19,800.35 654.04,801.39 652.88,802.43C653.97,796.95 654.39,791.34 656.03,785.98C661.07,768.57 671.03,752.63 684.21,740.22Z" style="fill:rgb(252,253,253);fill-rule:nonzero;"/>
            </g>
            <g transform="matrix(0.0197442,0,0,0.0197442,2.37389,2.84909)">
                <path d="M271.07,810.18C274.93,812.59 278.99,814.78 282.37,817.89C279.97,822.24 276.99,826.28 273.63,829.94C272.04,830.45 270.68,829.3 269.36,828.62C266.68,826.95 264.02,825.19 261.7,823.03C264.65,818.63 267.64,814.22 271.07,810.18Z" style="fill:rgb(252,253,253);fill-rule:nonzero;"/>
            </g>
        </g>
    </g>
</svg>
