<?xml version="1.0" encoding="UTF-8" standalone="no"?>
<!DOCTYPE svg PUBLIC "-//W3C//DTD SVG 1.1//EN" "http://www.w3.org/Graphics/SVG/1.1/DTD/svg11.dtd">
<svg width="100%" height="100%" viewBox="0 0 649 682" version="1.1" xmlns="http://www.w3.org/2000/svg" xmlns:xlink="http://www.w3.org/1999/xlink" xml:space="preserve" xmlns:serif="http://www.serif.com/" style="fill-rule:evenodd;clip-rule:evenodd;stroke-linejoin:round;stroke-miterlimit:2;">
    <g transform="matrix(1,0,0,1,-36.9,-18.0122)">
        <g>
            <path d="M344.5,698.9C312.5,697.4 283,691.4 252.5,680.4C245.4,677.9 238.5,675.8 237.3,675.8C236,675.8 233.5,675.9 231.6,676C225.5,676.3 157.7,645.6 132.5,631C84,603.2 51.9,567.9 42.9,532.5C38.7,516.2 40,501.3 47.5,476.3L50,468.2L46.5,454.3C39.6,426.6 36.9,404.3 36.9,375C36.9,364.3 37.4,350.6 38,344.5C47.7,246.7 100.1,159.2 181.5,105.1C197.9,94.2 220.1,82.2 237,75.2C242.2,73.1 251,68.4 256.5,64.8C286.9,45.1 328.2,25.1 350.6,19.2C356.6,17.6 357.4,17.6 363.8,19.3C383.9,24.5 412.7,38 445.5,57.5C454,62.6 463.2,67.2 468.2,68.9C490.5,76.5 517.3,89.8 538.9,104C621.3,158.3 674.3,246.1 684,344.5C685.5,358.6 685.5,391.4 684,405.5C681.9,427.4 677,451.5 670.9,470.8L667.9,480L670.4,490.3C671.7,495.9 673.2,504.3 673.5,509C676.4,545.8 649.4,586.8 600.5,619.9C582.7,631.9 563.8,641.9 529,657.5C518.3,662.3 504.7,668.4 498.7,671.1C487.8,676 485.8,676.7 480.5,677.4C478.9,677.6 472.1,679.7 465.5,682C427.2,695.2 385.8,701 344.5,698.9ZM544.6,633C580.5,615.7 600.7,602.5 621.1,583.3C639.1,566.3 653.6,543.4 657.5,525.6C661,509.8 659.1,501.2 638.7,441C624.4,398.7 619.3,382.6 600,319C585.5,271.2 574.7,238.8 567.3,221C558.8,200.5 543.7,171.2 534.6,157.5C516.1,129.8 488.3,103.6 453,80.7C426.5,63.6 392,45.5 370.5,37.6L357.6,32.9L349.6,35.6C325.4,43.7 288.7,62.3 259.5,81.5C248.3,88.8 227.5,104.7 218,113.2C200.9,128.4 189.1,142.6 175.9,163.7C167.6,176.9 153.4,204.8 148,218.5C137.9,243.8 123.8,287.1 103.3,355.5C95.8,380.6 85.1,413.5 68.2,463C59.2,489.1 55,505.6 55,514.2C55,520.5 58.3,532.6 62.4,541.6C68.6,554.8 76.5,565.6 91,580.1C109.4,598.6 125.9,610.2 156.2,625.9C170.9,633.6 189.5,642.3 185.7,639.7C184.6,639.1 177.4,634.3 169.7,629.1C129.1,602.3 95.9,572.9 83.3,552.5C70.7,532.1 68.7,507.8 77.5,480.2C82.8,463.5 101.2,423.6 122.2,383.5C155.2,320.3 182.5,279.4 220.4,236C240.7,212.8 277.1,177.2 296,162C306,154 305.5,154.1 291,163.5C265.7,179.8 226.3,218.9 186,267.5C179.2,275.8 169.5,287.5 164.5,293.5C159.5,299.6 150.5,310.5 144.5,317.8C134.5,329.8 133.3,331 130.3,331C127.3,331 127,330.7 127,327.8C127,321.6 143.9,285.3 159.8,257.5C206.8,175.2 256.5,118.4 316.5,78.3C329.9,69.3 350.6,58.9 356.4,58.3C360,57.8 362.3,58.6 372.1,63.3C410.8,82.1 454.8,119.4 492.1,165C517.6,196.1 550.5,247.1 569,284C578.9,303.8 587,323 587,326.6C587,329.8 586.8,330 583.6,330C580.5,330 579.4,329 568.6,315.8C508.4,241.7 475,205.1 444.7,179.8C435.3,172 419.2,160.3 411.3,155.6C408.1,153.8 410.6,156.3 417.3,161.6C439.1,179.1 467,205.9 488.3,229.8C534.8,282.2 570.7,337.8 610.6,419.5C635.2,470 642,489.8 642,511.4C642,536.2 633.9,553.1 611.5,575.5C590.2,596.8 565.7,615.7 529.5,638.8C526.8,640.5 524.9,642 525.3,642C525.8,642 534.5,638 544.6,633ZM370.2,605.4C382,602.6 398.5,592.7 419,576.3C433,565.1 452.8,545 455.6,539.2C456.9,536.3 459.3,522.4 458.6,521.3C458.5,521.2 456,524.8 453,529.3C450,533.8 444,541.2 439.6,545.8C432.8,552.9 431.3,554 428.4,554L425,554L425.7,541.5C426.2,530.4 426.1,529 424.8,529.5C423.9,529.9 422.9,531.7 422.5,533.6C421.6,538.8 418.3,545.8 414.4,551.2C411.3,555.3 410.3,556 407.4,556L404,556L404,545.9C404,537.1 403.8,535.9 402.4,536.4C401.5,536.7 400.2,537 399.5,537C398.8,537 397.9,538.7 397.5,540.8C396.6,545.7 392.4,554.9 389.8,557.7C388.3,559.3 386.5,560 383.9,560C380.4,560 380,559.7 379.1,556.3C378.5,554.2 378,551.4 378,550C378,548.6 377.7,545.8 377.4,543.8C376.9,540.8 376.3,540 374.6,540C369.6,540 368.2,541.1 367.6,545.3C366.8,550.7 364.1,558.9 362.2,561.8C361.1,563.5 359.8,564 356.8,564C353.1,564 352.8,563.8 350.5,558.8C349.1,555.9 347.5,551 346.9,548C346.2,545 345,541.9 344.2,541.3C342.5,539.9 337,539.5 337,540.8C336.9,543.2 334.9,556.7 334.4,558.2C333.6,560.9 326.9,560.6 324.2,557.7C321.6,554.9 317.4,545.7 316.5,540.8C316.1,538.7 315.2,537 314.5,537C313.8,537 312.5,536.7 311.6,536.4C310.2,535.9 310,537.1 310,545.9L310,556L306.5,556C303.5,556 302.5,555.3 299.9,551.8C295.9,546.2 292.5,539.5 291.1,534.3C290.5,532.1 289.3,530 288.5,529.7C287.7,529.3 287.3,529.6 287.5,530.3C287.7,531 288.1,536.3 288.4,542.3L289,553L285.2,553C282.1,553 280.7,552.3 277.4,548.8C271.8,542.9 262.9,531.5 259,525.1C257.2,522.3 255.6,520 255.5,520.2C254.8,521 257.7,536.8 259,539.2C263.2,546.7 281.2,565.2 297.9,578.9C315.1,593 335.5,604.2 348.1,606.5C356,607.9 361,607.7 370.2,605.4ZM347.1,515.4C348.8,502.7 351.2,499 357.5,499C363.1,499 364.7,501.5 366.8,513.1L368.4,522L371.9,522C373.9,522 376,521.6 376.6,521.2C377.2,520.8 378,517 378.3,512.7C378.6,507.8 379.5,503.7 380.7,501.7C382.3,498.9 383.2,498.5 387.2,498.2C393.7,497.8 395.3,500.1 399.6,515.8C399.8,516.4 400.3,517 400.7,517C403.1,516.9 404.1,514.6 404.9,506.8C405.3,502.1 406,497.7 406.4,497.1C406.8,496.5 409.1,496 411.6,496C416.5,496 419.7,498.4 422.2,504.1C422.9,505.7 423.8,507 424.1,507C424.4,507 424.5,501 424.2,493.8C423.9,483.6 424.1,479 425.4,474C427.6,465.4 431.2,458.1 435.5,453.7C439,450.1 439.3,450 446.5,450C450.6,450 456.9,450.7 460.7,451.6C473.1,454.5 481.6,451.3 492.7,439.9C503.6,428.6 510,420.9 510.7,418.2C511.3,415.8 507.4,392.7 504.3,379.6C502.4,372 502.6,371.9 498.9,383.9C493.7,400.8 480,414 461.5,419.6C457,421 452.2,421.5 442,421.5C426.7,421.5 418.6,419.5 408.5,413.4C405.5,411.6 403,410.6 403,411.1C403,411.6 401.4,412 399.5,412C396.4,412 395.6,411.4 390.9,404.8C379.6,388.7 371,365.5 371,351.1C371,344.5 370.9,344.4 366,339C362.3,334.9 361,332.7 361,330.4C361,327.4 361.2,327.2 366.3,326.6C372.5,325.8 389.1,320.4 397.5,316.4C400.8,314.9 410.5,309.5 419,304.6C427.5,299.7 437.2,294.7 440.6,293.5L446.7,291.4L440.9,287.6C427.3,278.8 403.6,270.3 389.9,269.3C383.1,268.8 381.6,269 376.5,271.3C370.6,274.1 366.3,277.9 362.3,284.3C360.4,287.3 359.4,288 356.7,288C354,288 353.1,287.3 350.7,283.5C347.1,277.9 341.8,273.3 336.1,270.7C324.4,265.5 294.6,273.6 271.5,288.3C266.9,291.2 266.7,291.5 269,291.9C272.9,292.4 282.5,297.1 295.5,304.9C302.1,308.9 311.1,313.9 315.6,316C324.8,320.4 341,325.7 348.2,326.6C352.9,327.2 353,327.3 353,330.7C353,333.3 352.2,334.8 349.5,337.2C344.5,341.5 343.9,342.9 343,353.4C342.5,358.5 340.9,366.4 339.4,371.1C336,381.9 328,398.4 322.4,406.1C318.5,411.4 317.6,412 314.5,412C312.6,412 311,411.6 311,411.1C311,410.6 308.5,411.6 305.5,413.4C302.5,415.2 296.8,417.8 292.8,419.1C286.4,421.2 283.7,421.5 271,421.4C258.5,421.4 255.6,421.1 250,419.1C231.1,412.5 218.1,398.1 213.1,378.4L211.4,371.5L209.1,382C203.9,406.7 202.7,415.8 204.1,419.3C205.4,422.5 210.6,428.6 222.4,440.9C233.1,452 242.3,454.7 257.5,451C272.3,447.4 277.8,449.4 283.8,460.8C288.8,470.1 290.3,478.3 289.8,493.8C289.4,506.1 290,509.9 291.5,504.9C291.9,503.8 293.5,501.3 295.2,499.4C297.8,496.5 298.9,496 302.6,496C308,496 308.6,497 309.5,507.7C310.1,514.6 310.6,516 312.2,516.6C314.6,517.3 314.3,517.8 316.4,510.1C317.3,506.6 319,502.4 320.2,500.8C322,498.2 322.7,497.9 326.8,498.2C333.2,498.6 335,501.4 335.7,511.8C336,516.3 336.8,520.4 337.4,520.9C338.3,521.7 344.9,522.8 345.8,522.4C346,522.3 346.5,519.1 347.1,515.4ZM285.9,369.9C288.6,368 290.9,365.2 292.2,362.3L294.2,357.7L291.9,352.9C290.7,350.2 288.7,347.1 287.4,345.9C284.1,342.8 278.2,341 274.9,342.2C271.2,343.5 265.7,349.2 263.5,353.9C261.8,357.8 261.8,357.8 264.6,363.1C266.6,366.8 268.8,369.2 271.5,370.7C277,373.8 280.8,373.6 285.9,369.9ZM443.5,370.6C446.1,369 448.3,366.5 450.2,362.9L452.9,357.5L450.3,352.8C447.2,347.1 444.7,344.7 439.9,342.7C436.6,341.3 435.9,341.4 432.4,343C427.6,345.1 423.7,349.3 421.6,354.2C420.2,357.8 420.2,358.2 422.9,363.2C427.6,372.3 435.8,375.2 443.5,370.6Z" style="fill:rgb(45,95,47);fill-rule:nonzero;"/>
            <path d="M329.3,468C324.2,465 322.7,461.7 322.2,453.1C321.8,446 322.1,444.3 325.8,433.4C334.3,408.5 343,391.8 349.5,387.9C351.4,386.7 354.4,386 357.7,386C362.1,386 363.5,386.5 366.2,388.9C372.5,394.5 380.1,409.7 388,432.6C391.3,442.2 392,445.5 392,451.9C392,464.9 387,470 374.2,470C367.2,470 366.6,469.8 363.6,466.8C361.9,465 359.7,462.4 358.7,461L357,458.5L355.3,461C354.3,462.4 352.1,465 350.4,466.8C347.4,469.8 346.8,470 339.9,470C334.3,470 331.7,469.5 329.3,468Z" style="fill:rgb(45,95,47);fill-rule:nonzero;"/>
            <path d="M479.5,664.9C478.7,663.6 478,664.2 486.5,659.5C525.7,637.9 567.4,609.7 592,588.1C612.9,569.7 625.5,555.1 632,541.5C645.6,513.5 640.9,490.8 607.6,422.5C560.8,326.7 516.8,262.4 458,204.1C435.8,182.1 407.2,157.8 385.8,142.7C372.7,133.5 379,135 402.1,146.6C447.1,169.1 484.9,206.1 571.7,312.8C578.1,320.6 583.4,326.9 583.7,326.7C584.2,326.1 573.1,301.2 566,287C547.5,250.1 514.6,199.1 489.1,168C451.9,122.5 407.8,85.1 369.3,66.4L358,61L350.8,64C321.4,76.5 280.9,107.1 249.5,140.6C233.5,157.7 224.4,168.5 211.4,186C188.1,217.4 163.8,256.5 148,288C141.7,300.5 129.8,327.2 130.3,327.7C130.5,327.8 135.5,322 141.5,314.7C147.5,307.4 156.5,296.6 161.5,290.5C166.5,284.5 176.2,272.8 183,264.5C212.3,229.2 247.3,192.5 269,174.5C274.2,170.2 283,163.7 288.5,160.1C298.3,153.7 321.4,141.5 327.8,139.2C332.7,137.5 332,140.2 326.4,144C289.5,169.4 238.7,218.5 203.4,263C168,307.6 135.6,361.8 102,433C83.8,471.5 78.2,486.4 75.8,503.3C73.7,518.3 77.6,535.7 86.3,549.5C104.9,579.3 161.4,623.1 228.8,660C233,662.4 233.8,663.4 232.1,664.4C230.8,665.2 175.4,640.4 155.4,630.1C123.3,613.5 106.9,602 88,583.1C68.8,563.9 58.7,547.8 53.9,529.3C49.7,512.7 52,498.5 65.2,460C82.1,410.5 92.8,377.6 100.3,352.5C120.8,284.1 134.9,240.8 145,215.5C154.5,191.5 173.8,157.1 187.5,139.5C207.6,113.7 234.8,91.2 275.5,66.7C305.7,48.5 347.1,30 357.5,30C362.9,30 384.7,38.5 404,48.1C466.7,79.5 511.1,114.8 537.6,154.5C546.7,168.2 561.8,197.5 570.3,218C577.7,235.8 588.5,268.2 603,316C622.3,379.6 627.4,395.7 641.7,438C658.7,488.2 660.9,496 661.7,510.1C662.5,523.7 660.5,533 654,546.1C637.1,580.4 606.2,607.2 553.4,633.3C538.7,640.5 482.2,666 480.8,666C480.4,666 479.8,665.5 479.5,664.9Z" style="fill:white;fill-rule:nonzero;"/>
            <path d="M345.1,609.5C332.5,607.2 312.1,596 294.9,581.9C277.5,567.6 259.9,549.4 255.8,541.6C254.8,539.6 253.5,532.7 252.5,523.9C251.7,516 250.8,507.8 250.5,505.8C249.8,500.7 251.4,501 253.4,506.4C255.8,512.6 263.8,525.6 270.6,534.3C276.5,541.8 284,550 285,550C285.3,550 285.2,544.3 284.7,537.4C284.3,530.4 284.2,524.5 284.5,524.2C284.7,523.9 286.8,524.5 289,525.5C292.4,527 293.1,528 294.4,532.4C296,537.8 301.8,548.1 305.1,551.5C307,553.4 307,553.3 307,542.4L307,531.3L312.9,532.9C318.6,534.4 318.9,534.6 319.5,538.1C320.4,543 325.2,553 327.9,555.5C330.7,557.9 331.6,556.7 332.5,549.5C332.8,546.8 333.3,542.7 333.6,540.4L334.2,536.3L339.8,536.8C343,537 346.2,537.6 347,538C347.9,538.5 349.1,541.5 349.8,544.7C351.1,551.2 355.4,561 356.8,561C359.1,561 363.3,550.9 364.6,542.3C365.3,537.7 365.1,537.8 375.7,536.7L379.9,536.2L380.5,542.9C381.3,550.8 382.8,557 383.9,557C386.6,557 393.2,545.1 394.5,537.9C395.1,534.6 395.5,534.2 400.2,533.2C402.9,532.5 405.6,532 406.1,532C406.6,532 407,536.8 407,542.8L407.1,553.5L410,550C413.7,545.7 418.6,535.8 419.5,530.8C420,528 420.9,526.9 422.8,526.2C424.3,525.6 426.3,524.9 427.3,524.5C429.1,523.8 429.1,524.5 428.8,537.3L428.5,550.9L434.4,545.2C445.1,534.8 457,517.3 460.6,506.6C461.5,504.1 462.5,502 462.9,502C464.5,502 460.6,537.8 458.5,542.3C455.8,548 436,568.1 422,579.3C399.1,597.7 382.5,607 368.4,609.5C358.8,611.2 354.7,611.2 345.1,609.5Z" style="fill:white;fill-rule:nonzero;"/>
            <path d="M339,525.3C337.1,525 335,524.4 334.4,523.9C333.8,523.4 333,519.3 332.7,514.8C332.2,506.5 330.1,501.9 326.7,501.2C324.4,500.7 321.1,506.2 319.1,514.2C317,522.1 317.1,522 310.4,519.9C307.3,518.9 307.2,518.8 306.5,510.7C305.8,502.1 304.8,499 302.7,499C300.8,499 296.6,503.8 294.1,508.8C291.7,513.5 291.4,513.7 288.2,511.4C285.9,509.8 285.9,509.6 286.6,496.7C287.3,481.4 285.9,473.4 280.9,463.9C275.1,453.1 271.4,451.3 260,454.2C245.9,457.8 230.8,455.2 223,447.8C216.9,442 203.1,426.2 201.5,423C199.2,418.5 199.9,409.9 204.3,388C209.6,362.3 214,350.1 214,361C214,363.3 214.7,368.6 215.6,372.8C221.9,403.7 248.8,422.5 280.2,418.1C290.4,416.7 299.5,412.9 308.7,406.4C312.8,403.4 316.6,401 317.2,401C317.7,401 317.2,402.6 316.1,404.6C312.8,410.2 314.4,409.8 318.8,403.8C330.2,388.6 339.7,363.6 340.1,347.8C340.3,340.7 340.3,340.7 345.1,335.7C347.8,332.9 350,330.5 350,330.4C350,330.3 347.8,330 345.2,329.6C338,328.7 321.8,323.4 312.6,319C308.1,316.9 299.1,311.9 292.5,307.9C277.3,298.8 269.6,295.3 263.1,294.4C260.3,294 258,293.5 258,293.1C258,291.9 273.4,282.1 281.8,278C293.1,272.4 308.9,267.3 318.5,266.1C335.8,264.1 345.6,268.2 354.3,281.4L356.8,285.2L359.3,281.4C370,264.5 385.5,261.6 415,271.2C425.2,274.5 440.8,282.2 449,288.1L456.5,293.4L450.5,294.6C442.4,296.3 438,298.3 421,308.2C399.4,320.7 387.5,325.8 372.4,328.9L364.2,330.6L369.1,336C373.9,341.4 374,341.5 374,348.1C374,362.6 382.6,385.7 394.1,401.9C399,409 399.4,409.2 400.2,407C400.7,405.7 401.2,404.4 401.4,404.2C401.6,404.1 404.3,405.7 407.4,407.9C433.9,426.4 471.7,420.4 489.3,394.8C494.3,387.6 497.9,376.9 499.3,365.1L500.4,355.5L502.1,359.5C506.1,368.8 514,406.3 514,416.3C514,423.1 512.4,425.5 495.6,442.9C484.1,454.8 473.1,458.2 457.7,454.6C453.9,453.7 448.9,453 446.5,453C442.7,453 441.6,453.5 438.5,456.7C429.2,466.3 425.4,483 427.9,503.4C428.6,509.2 428.6,509.3 425.6,511.1C421.6,513.5 421.3,513.5 420.6,510.4C419.6,506.6 415.1,500.2 412.8,499.4C409.7,498.4 408.8,500.2 407.9,509.6C407.4,514.4 406.8,518.5 406.6,518.7C406.4,519 404.1,519.8 401.6,520.5L397.1,521.9L396.4,518.2C395.3,512.3 392.1,504.4 390,502.5C385.8,498.7 382.1,504.4 381.3,516.1C380.7,524.9 381.1,524.5 371.4,525.5L365.4,526.2L364.1,517.8C362.8,509 360.6,503.2 358.3,502.3C355.2,501.1 351.6,507.2 350.5,515.7C349.1,526 349.1,526 345.7,525.8C343.9,525.8 340.9,525.5 339,525.3ZM345.8,465.4C347,464.6 349.8,461.2 352,457.9C354.3,454.7 356.5,452 357,452C357.5,452 359.7,454.7 362,457.9C366.9,465.3 369.3,467 374.5,467C382.6,467 389,460.3 389,451.9C389,444.1 377.4,412.9 369.8,400.3C365.9,393.8 360.8,389 357.7,389C349.2,389 339.6,404.9 328.8,436.4C324.4,449.3 324.1,455.5 327.5,460.7C331.3,466.4 340.9,468.9 345.8,465.4Z" style="fill:white;fill-rule:nonzero;"/>
            <path d="M435.8,390.9C435.5,390 434.9,386.4 434.5,382.8C433.8,376.7 433.6,376.2 431.1,375.6C426.4,374.6 422.5,371.4 420,366.4C416.9,360.4 416.9,360.3 410.4,359.5C401.6,358.4 402.4,356.7 412.1,355.4C416.9,354.8 417.3,354.5 419,350.6C421,345.9 426.7,340.4 430.6,339.4C433.6,338.6 435,335.5 435,329.7C435,322 436.6,322.5 438,330.5C439.3,338.2 439.3,338.2 443.5,340C447.7,341.8 451.3,345.7 454.3,351.6C455.8,354.5 456.5,354.8 463.5,355.9C467.6,356.6 471,357.3 471,357.5C471,357.7 467.5,358.6 463.2,359.5L455.5,361.2L452.9,366.3C450.8,370.6 449.4,372 444.7,374.4C440.6,376.5 439,377.9 439,379.4C438.9,383.4 436.4,392.4 435.8,390.9Z" style="fill:white;fill-rule:nonzero;"/>
            <path d="M276,382.8C274.7,376.6 274.6,376.5 269.6,374C265.4,371.9 264,370.5 261.5,365.8L258.6,360.1L253,359.5C244.8,358.5 243.8,357.4 249.9,356.1C252.8,355.5 255.9,355 256.9,355C258,355 259.4,353.5 260.5,351.1C262.7,346.2 267.5,341.1 271.6,339.4C274.9,338 275.4,337 276.5,328.8C276.9,326.1 277.6,324 278,324C278.4,324 279.1,327.2 279.6,331.1C280.5,338.2 280.5,338.2 284.3,339.5C289.4,341.2 292.2,344 294.9,349.9L297.2,354.7L305.3,356L313.5,357.4L305.2,359.4C297.1,361.5 296.9,361.6 295.1,365.6C293.1,370.1 287.8,374.7 283.3,375.9C281.1,376.5 280.4,377.3 280.2,379.6C279.7,385.5 278.9,389 278.1,389C277.6,389 276.6,386.2 276,382.8Z" style="fill:white;fill-rule:nonzero;"/>
        </g>
    </g>
</svg>
